<svg width="1920" height="297" viewBox="0 0 1920 297" fill="none" xmlns="http://www.w3.org/2000/svg">
<path opacity="0.8" d="M1888.18 6.38525L1873.26 1.17664M1888.18 6.38525H1843.98M1888.18 6.38525L1903.59 11.767M1888.18 6.38525H1919.49M1873.26 1.17664L1878.69 1.17804L1884.06 1.18903L1889.33 1.22198L1894.41 1.28381L1899.29 1.3855L1903.89 1.53796L1908.16 1.74963L1912.13 2.02026L1915.54 2.39404L1918.63 2.82672L1919.49 2.97791V6.38525M1873.26 1.17664H1829.78M1843.98 6.38525L1829.78 1.17664M1843.98 6.38525H1799.78M1843.98 6.38525L1847.61 7.71387L1858.66 11.767M1903.59 11.767H1858.66M1903.59 11.767L1919.49 17.3163M1903.59 11.767H1919.49M1919.49 6.38525V11.767M1829.78 1.17664H1786.28M1786.28 1.17664H1742.8M1786.28 1.17664L1799.78 6.38525M1742.8 1.17664H1699.31M1742.8 1.17664L1755.59 6.38525M1799.78 6.38525H1755.59M1799.78 6.38525L1813.73 11.767M1699.31 1.17664H1655.82M1699.31 1.17664L1711.38 6.38525M1755.59 6.38525H1711.38M1755.59 6.38525L1768.8 11.767M1655.82 1.17664H1612.34M1655.82 1.17664L1667.19 6.38525M1711.38 6.38525H1667.19M1711.38 6.38525L1723.87 11.767M1612.34 1.17664H1568.84M1612.34 1.17664L1622.99 6.38525M1667.19 6.38525H1622.99M1667.19 6.38525L1670.08 7.71387L1671.55 8.38159L1678.93 11.767M1568.84 1.17664H1525.36M1568.84 1.17664L1578.79 6.38525M1622.99 6.38525H1578.79M1622.99 6.38525L1625.71 7.71387L1633.99 11.767M1525.36 1.17664H1481.86M1525.36 1.17664L1534.59 6.38525M1578.79 6.38525H1534.59M1578.79 6.38525L1589.06 11.767M1481.86 1.17664H1438.38M1481.86 1.17664L1490.38 6.38525M1534.59 6.38525H1490.38M1534.59 6.38525L1536.95 7.71387L1538.13 8.38159L1544.13 11.767M1438.38 1.17664H1394.88M1438.38 1.17664L1446.19 6.38525M1490.38 6.38525H1446.19M1490.38 6.38525L1499.19 11.767M1394.88 1.17664H1351.4M1394.88 1.17664L1402 6.38525M1446.19 6.38525H1402M1446.19 6.38525L1448.18 7.71387L1449.19 8.38159L1454.26 11.767M1351.4 1.17664H1307.91M1351.4 1.17664L1352.98 2.46271L1355.36 4.41235L1357.79 6.38525M1402 6.38525H1357.79M1402 6.38525L1402.89 7.04749L1403.8 7.71387L1409.33 11.767M1307.91 1.17664H1264.42M1307.91 1.17664L1309.31 2.46271L1313.59 6.38525M1357.79 6.38525H1313.59M1357.79 6.38525L1359.42 7.71387L1360.24 8.38159L1364.4 11.767M1264.42 1.17664H1220.93M1264.42 1.17664L1269.39 6.38525M1313.59 6.38525H1269.39M1313.59 6.38525L1319.46 11.767M1220.93 1.17664H1177.44M1220.93 1.17664L1222.51 3.1098L1224.12 5.06628L1224.65 5.72583L1225.2 6.38525M1269.39 6.38525H1225.2M1269.39 6.38525L1270.03 7.04749L1270.66 7.71387L1271.3 8.38159L1274.53 11.767M1177.44 1.17664H1133.95M1177.44 1.17664L1178.76 3.1098L1179.21 3.75964L1179.65 4.41235L1181 6.38525M1225.2 6.38525H1181M1225.2 6.38525L1226.28 7.71387L1226.83 8.38159L1227.38 9.05353L1229.6 11.767M1133.95 1.17664H1090.47M1133.95 1.17664L1136.8 6.38525M1181 6.38525H1136.8M1181 6.38525L1181.9 7.71387L1183.74 10.4041L1184.2 11.0842L1184.66 11.767M1090.47 1.17664L1090.73 1.8183L1090.99 2.46271L1092.33 5.72583L1092.6 6.38525M1090.47 1.17664H1046.98M1136.8 6.38525H1092.6M1136.8 6.38525L1137.16 7.04749L1137.52 7.71387L1137.89 8.38159L1139.73 11.767M1092.6 6.38525H1048.4M1092.6 6.38525L1094.8 11.767M1046.98 1.17664H1003.49M1046.98 1.17664L1048.4 6.38525M1003.49 1.17664H960M1003.49 1.17664L1003.75 3.1098L1004.2 6.38525M1048.4 6.38525H1004.2M1048.4 6.38525L1048.58 7.04749L1048.76 7.71387L1048.94 8.38159L1049.87 11.767M960 1.17664H916.512M960 1.17664V6.38525M1004.2 6.38525H960M1004.2 6.38525L1004.93 11.767M916.512 1.17664H873.022M916.512 1.17664L916.248 3.1098L915.8 6.38525M960 6.38525H915.8M960 6.38525V11.767M873.022 1.17664H829.533M873.022 1.17664L871.602 6.38525M915.8 6.38525H871.602M915.8 6.38525L915.067 11.767M829.533 1.17664L829.27 1.8183L829.008 2.46271L827.673 5.72583L827.403 6.38525M829.533 1.17664H786.045M871.602 6.38525H827.403M871.602 6.38525L871.421 7.04749L871.24 7.71387L871.057 8.38159L870.505 10.4041L870.134 11.767M827.403 6.38525H783.203M827.403 6.38525L825.202 11.767M786.045 1.17664H742.555M786.045 1.17664L783.564 5.72583L783.203 6.38525M742.555 1.17664H699.067M742.555 1.17664L741.237 3.1098L740.795 3.75964L739.903 5.06628L739.454 5.72583L739.004 6.38525M783.203 6.38525H739.004M783.203 6.38525L782.841 7.04749L782.479 7.71387L782.114 8.38159L780.268 11.767M699.067 1.17664H655.577M699.067 1.17664L697.485 3.1098L695.883 5.06628L695.346 5.72583L694.804 6.38525M739.004 6.38525H694.804M739.004 6.38525L738.099 7.71387L736.263 10.4041L735.335 11.767M655.577 1.17664H612.089M655.577 1.17664L650.606 6.38525M694.804 6.38525H650.606M694.804 6.38525L693.718 7.71387L693.171 8.38159L692.622 9.05353L690.402 11.767M612.089 1.17664H568.599M612.089 1.17664L610.686 2.46271L606.408 6.38525M650.606 6.38525L649.973 7.04749L645.469 11.767M650.606 6.38525H606.408M568.599 1.17664H525.111M568.599 1.17664L562.208 6.38525M606.408 6.38525H562.208M606.408 6.38525L605.684 7.04749L600.537 11.767M525.111 1.17664H481.622M525.111 1.17664L518.009 6.38525M562.208 6.38525H518.009M562.208 6.38525L560.577 7.71387L559.756 8.38159L555.604 11.767M481.622 1.17664H438.133M481.622 1.17664L473.809 6.38525M518.009 6.38525H473.809M518.009 6.38525L517.104 7.04749L516.197 7.71387L510.671 11.767M438.133 1.17664H394.644M438.133 1.17664L429.611 6.38525M473.809 6.38525H429.611M473.809 6.38525L471.817 7.71387L470.813 8.38159L465.737 11.767M394.644 1.17664H351.156M394.644 1.17664L385.412 6.38525M429.611 6.38525H385.412M429.611 6.38525L428.525 7.04749L420.804 11.767M351.156 1.17664H307.667M351.156 1.17664L341.212 6.38525M385.412 6.38525H341.212M385.412 6.38525L383.056 7.71387L381.871 8.38159L375.871 11.767M307.667 1.17664H264.178M307.667 1.17664L297.013 6.38525M341.212 6.38525H297.013M341.212 6.38525L330.939 11.767M264.178 1.17664H220.689M264.178 1.17664L252.814 6.38525M297.013 6.38525H252.814M297.013 6.38525L294.296 7.71387L286.006 11.767M220.689 1.17664H177.201M220.689 1.17664L208.615 6.38525M252.814 6.38525H208.615M252.814 6.38525L249.916 7.71387L248.456 8.38159L241.073 11.767M177.201 1.17664H133.711M177.201 1.17664L164.415 6.38525M208.615 6.38525H164.415M208.615 6.38525L196.14 11.767M133.711 1.17664H90.2229M133.711 1.17664L120.217 6.38525M164.415 6.38525H120.217M164.415 6.38525L151.207 11.767M90.2229 1.17664H46.7332M90.2229 1.17664L76.0178 6.38525M120.217 6.38525H76.0178M120.217 6.38525L106.274 11.767M46.7332 1.17664L41.3077 1.17804L35.9348 1.18903L30.6765 1.22198L25.5829 1.28381L20.7091 1.3855L16.108 1.53796L11.836 1.74963L7.86963 2.02026L4.46683 2.39404L1.36823 2.82672L0.516214 2.97791V6.38525H31.8183M46.7332 1.17664L31.8183 6.38525M76.0178 6.38525H31.8183M76.0178 6.38525L72.3937 7.71387L61.3399 11.767M31.8183 6.38525L16.4082 11.767M106.274 11.767L91.8624 17.3301M106.274 11.767H151.207M106.274 11.767H61.3399M151.207 11.767L137.553 17.3301M151.207 11.767H196.14M286.006 11.767H330.939M286.006 11.767H241.073M330.939 11.767H375.871M465.737 11.767H510.671M465.737 11.767H420.804M510.671 11.767L505.96 15.2225L503.083 17.3301M510.671 11.767H555.604M645.469 11.767L640.159 17.3301M645.469 11.767H690.402M645.469 11.767H600.537M690.402 11.767L687.576 15.2225L685.851 17.3301M690.402 11.767H735.335M825.202 11.767L824.639 13.1396L823.788 15.2225L823.214 16.624L822.925 17.3301M825.202 11.767H870.134M825.202 11.767H780.268M870.134 11.767L869.57 13.8307L868.809 16.624L868.617 17.3301M870.134 11.767H915.067M1004.93 11.767L1005.03 12.4512L1005.12 13.1396L1005.21 13.8307L1005.31 14.5245L1005.4 15.2225L1005.69 17.3301M1004.93 11.767H1049.87M1004.93 11.767H960M1049.87 11.767L1050.43 13.8307L1051.19 16.624L1051.38 17.3301M1049.87 11.767H1094.8M1184.66 11.767L1185.6 13.1396L1188.46 17.3301M1184.66 11.767H1229.6M1184.66 11.767H1139.73M1229.6 11.767L1232.42 15.2225L1234.15 17.3301M1229.6 11.767H1274.53M1364.4 11.767L1370.36 16.624L1371.22 17.3301M1364.4 11.767H1409.33M1364.4 11.767H1319.46M1409.33 11.767L1414.04 15.2225L1416.92 17.3301M1409.33 11.767H1454.26M1544.13 11.767L1553.99 17.3301M1544.13 11.767H1589.06M1544.13 11.767H1499.19M1589.06 11.767L1599.68 17.3301M1589.06 11.767H1633.99M1723.87 11.767L1736.76 17.3301M1723.87 11.767H1678.93M1723.87 11.767H1768.8M1768.8 11.767L1782.45 17.3301M1768.8 11.767H1813.73M0.362139 55.0985H0.516214M0.516214 55.0985H44.8487M0.516214 55.0985V62.2389V69.6541M0.516214 55.0985V52.5869V48.2246V41.5995V35.2079V34.0703V29.0403M44.8487 55.0985L61.7231 48.2232M44.8487 55.0985L27.3277 62.2375M44.8487 55.0985H95.6905M61.7231 48.2232L77.9865 41.5981M61.7231 48.2232H111.626M27.3277 62.2375L9.12198 69.6541M27.3277 62.2375H79.1427M27.3277 62.2375H0.516214M95.6905 55.0985L111.626 48.2232M95.6905 55.0985L79.1427 62.2375M95.6905 55.0985H146.532M61.7244 48.2232H11.8189M11.8189 48.2232L28.9857 41.5981M11.8189 48.2232H0.514897M11.8189 48.2232L0.514897 52.5855M111.626 48.2232L126.987 41.5981M111.626 48.2232H161.532M61.5203 29.0403H108.809M61.5203 29.0403L76.9501 23.0842M61.5203 29.0403H14.2354M14.2354 29.0403L30.4751 23.0842M14.2354 29.0403H0.516214M14.2354 29.0403L0.516214 34.0688M61.5243 29.0403L45.5453 35.2065M45.5453 35.2065H93.6731M45.5453 35.2065L28.987 41.5981M45.5453 35.2065H0.516214M108.812 29.0403L123.429 23.0842M108.812 29.0403L93.6744 35.2065M108.812 29.0403H156.101M123.429 23.0842H76.9528M123.429 23.0842H169.904M123.429 23.0842L137.553 17.3301M156.101 29.0403L169.904 23.0842M156.101 29.0403L141.802 35.2065M156.101 29.0403H203.387H250.675M76.9528 23.0842L91.8624 17.3301M76.9528 23.0842H30.4751M91.8624 17.3301H137.553M91.8624 17.3301H46.1695M30.4751 23.0842L46.1695 17.3301M30.4751 23.0842H0.516214M169.904 23.0842H216.381M169.904 23.0842L183.243 17.3301M137.553 17.3301H183.243M0.0302878 163.614H0.51753M41.0535 163.614L62.8148 152.214M41.0535 163.615L18.2123 175.577M106.693 163.611H41.0535H0.516214V175.578V184.847M106.693 163.611L126.899 152.216M106.693 163.611L172.332 163.613M62.8148 152.216L83.5687 141.344M62.8148 152.216H126.899M62.8148 152.216H0.516214V151.343V141.345V130.966V122.025V121.045V111.555V102.465V96.1561V93.7516V85.3939V77.3687V73.1603M83.5687 141.344H20.9659M83.5687 141.344L103.382 130.964L122.322 121.044M83.5687 141.344H146.17M126.899 152.216L146.17 141.344M126.899 152.216H190.985M20.9659 141.344L42.1965 130.965M20.9659 141.344H0.516214M20.9659 141.344L0.516214 151.342M42.1965 130.965H103.382H164.57M42.1965 130.965H0.51753M62.4882 121.044H122.322M62.4882 121.044L81.9002 111.554M62.4882 121.044H2.6535L23.3613 111.552L43.1921 102.464M62.4882 121.044L42.1965 130.964M122.322 121.044L140.442 111.554H81.9002M122.322 121.044H182.156M81.9002 111.554H23.3613H0.516214M81.9002 111.554L100.493 102.464M182.156 121.044L198.979 111.552M182.156 121.044L164.57 130.964M182.156 121.044H241.99M100.493 102.464H43.1921M100.493 102.464L118.313 93.7516M157.793 102.464L140.442 111.552H198.979M198.979 111.552L215.094 102.464H272.394H329.695M135.409 85.3926H190.382M135.409 85.3926L151.825 77.3674M135.409 85.3926H80.4372M151.825 77.3674H205.705M151.825 77.3674H97.9476M151.825 77.3674L167.602 69.6541M80.4372 85.3926H25.4657M80.4372 85.3926L97.9476 77.3674M80.4372 85.3926L62.2012 93.7516H6.09053M135.41 85.3926L118.313 93.7516M118.313 93.7516H174.426M190.383 85.3926L205.705 77.3674M190.383 85.3926L174.426 93.7516M190.383 85.3926H245.356M205.705 77.3674L220.429 69.6541M205.705 77.3674H259.583M174.426 93.7516L157.793 102.462M174.426 93.7516H230.538M245.356 85.3926L230.538 93.7516M245.356 85.3926H300.329M97.9476 77.3674H44.0705M97.9476 77.3674L114.775 69.6541M167.602 69.6541H220.427M167.602 69.6541H114.775M167.602 69.6541L182.773 62.2375M197.374 55.0985H248.216M197.374 55.0985L211.436 48.2232M197.374 55.0985H146.532M197.374 55.0985L182.773 62.2375M248.216 55.0985L261.34 48.2232M248.216 55.0985L234.588 62.2375M248.216 55.0985H299.056M211.436 48.2232H261.34M211.436 48.2232H161.532M211.436 48.2232L224.99 41.5981M146.532 55.0985L161.532 48.2232M146.532 55.0985L130.958 62.2375M182.773 62.2375H234.588M182.773 62.2375H130.958M261.34 48.2232L273.99 41.5981M261.34 48.2232H311.244M234.588 62.2375L220.427 69.6541M234.588 62.2375H286.401M299.056 55.0985L311.244 48.2232M299.056 55.0985L286.401 62.2375M299.056 55.0985H349.897M161.532 48.2232L175.989 41.5981H126.987M311.244 48.2232L322.989 41.5981M311.244 48.2232H361.15M250.675 29.0403H297.963M250.675 29.0403L262.857 23.0842M250.675 29.0403L238.06 35.2065M297.963 29.0403L309.332 23.0842M297.963 29.0403L286.189 35.2065M297.963 29.0403H345.252M262.857 23.0842H309.332M262.857 23.0842L274.627 17.3301M262.857 23.0842H216.381M238.06 35.2065H286.189M238.06 35.2065L224.989 41.5981M238.06 35.2065H189.93M309.332 23.0842H355.81M309.332 23.0842L320.319 17.3301M286.189 35.2065L273.988 41.5981M286.189 35.2065H334.318M274.627 17.3301H320.317M274.627 17.3301L286.005 11.767M274.627 17.3301H228.933M216.381 23.0842L203.386 29.0403L189.93 35.2065M216.381 23.0842L228.933 17.3301M34.1452 361.224L64.7717 338.764M34.1452 361.224L1.34979 385.275M34.1452 361.224H126.731M34.1452 361.224H0.516214M64.7717 338.764L93.4361 317.743M64.7717 338.764H154.294M64.7717 338.764H0.516214M0.516214 338.764V361.226V385.276M0.516214 338.764V321.921M64.1501 279.496H145.591M64.1501 279.496L90.3203 262.049M64.1501 279.496L36.3549 298.027M64.1501 279.496H0.516214M145.591 279.496L169.381 262.049M145.591 279.496L120.323 298.027L93.4361 317.744M145.591 279.496H227.031L248.444 262.049M90.3203 262.049H169.381M90.3203 262.049H11.2593M90.3203 262.049L115.006 245.592M169.381 262.049L191.824 245.592M169.381 262.049H248.444M11.2593 262.049L38.188 245.592M11.2593 262.049H0.516214M11.2593 262.049L0.516214 268.613M115.006 245.592H191.824M115.006 245.592H38.188M115.006 245.592L138.328 230.044H213.025M191.824 245.592L213.025 230.044M191.824 245.592H268.642M248.444 262.049L268.642 245.592M248.444 262.049H327.506M160.398 215.331H233.089M160.398 215.331L181.314 201.388M160.398 215.331L87.7063 215.329M160.398 215.331L138.328 230.046H63.6313M233.089 215.331L252.103 201.388M233.089 215.331L213.025 230.044M233.089 215.331L305.78 215.329M87.7063 215.329L15.015 215.331M87.7063 215.329L110.524 201.386M87.7063 215.329L63.6313 230.046M213.025 230.044H287.723M305.78 215.329L322.892 201.386M305.78 215.329L287.723 230.046M305.78 215.329H378.472M181.314 201.386H252.103M181.314 201.386H110.524M181.314 201.386L201.161 188.153M252.103 201.386L270.147 188.153M252.103 201.386H322.892M110.524 201.386H39.734M110.524 201.386L132.177 188.153M201.161 188.153H270.147M201.161 188.153H132.177M201.161 188.153L220.024 175.578M270.147 188.153L287.294 175.58L303.61 163.613M270.147 188.153H339.133M322.892 201.386L339.133 188.153M322.892 201.386H393.682M237.971 163.614H303.61M237.971 163.614L255.069 152.214M237.971 163.614H172.332M237.971 163.614L220.024 175.578M220.024 175.578H287.294H354.565M220.024 175.578H152.753M303.61 163.613L319.153 152.216M303.61 163.613H369.25M319.153 152.216H255.069M319.153 152.216L333.977 141.344M319.153 152.216H383.238M369.25 163.613L383.238 152.216M369.25 163.613H434.888M255.069 152.216H190.985M255.069 152.216L271.374 141.344M190.985 152.216L208.773 141.344M190.985 152.216L172.332 163.613M271.374 141.344H333.977M271.374 141.344H208.773M271.374 141.344L286.944 130.965M333.977 141.344L348.131 130.964L361.658 121.044M333.977 141.344H396.58M383.238 152.216L396.58 141.344M383.238 152.216H447.322M301.825 121.044H361.658M301.825 121.044L316.061 111.554M301.825 121.044H241.99M301.825 121.044L286.944 130.964M361.658 121.044L374.601 111.554H316.061M361.658 121.044H421.491M316.061 111.554H257.521M316.061 111.554L329.695 102.464M241.99 121.044L257.521 111.554M241.99 121.044L225.757 130.964M421.491 121.044L433.14 111.552M421.491 121.044L409.318 130.964M421.491 121.044H481.327M257.521 111.554H198.981M329.695 102.464L342.763 93.7516M386.996 102.464L374.601 111.552H433.14M433.14 111.552L444.296 102.464H501.595H558.896M355.3 85.3926H410.273M355.3 85.3926L367.339 77.3674M355.3 85.3926H300.329M355.3 85.3926L342.763 93.7516M410.273 85.3926L411.666 84.3717L421.217 77.3674M410.273 85.3926L398.877 93.7516M410.273 85.3926H465.247M367.339 77.3674H421.217M367.339 77.3674H313.462M367.339 77.3674L378.908 69.6541M300.329 85.3926L313.462 77.3674M300.329 85.3926L286.65 93.7516M342.763 93.7516H398.877M421.217 77.3674L431.734 69.6541M421.217 77.3674H475.096M398.877 93.7516L386.996 102.462M398.877 93.7516H454.987M465.247 85.3926L475.096 77.3674M465.247 85.3926L454.987 93.7516M465.247 85.3926H520.219M313.462 77.3674L326.081 69.6541M378.908 69.6541H431.734M378.908 69.6541H326.081M378.908 69.6541L390.033 62.2375M431.734 69.6541L440.606 63.1484L441.848 62.2375M431.734 69.6541H484.562M475.096 77.3674L484.562 69.6541M475.096 77.3674H528.974M400.74 55.0985H451.583M400.74 55.0985L411.054 48.2232M400.74 55.0985H349.898M400.74 55.0985L390.033 62.2375M451.583 55.0985L460.958 48.2232M451.583 55.0985L447.976 57.7447L441.848 62.2375M451.583 55.0985H502.425M411.054 48.2232H460.958M411.054 48.2232H361.15M411.054 48.2232L420.992 41.5981M390.033 62.2375H441.848M390.033 62.2375H338.218M460.958 48.2232L469.993 41.5981M460.958 48.2232H510.862M441.848 62.2375H493.663M502.425 55.0985L510.862 48.2232M502.425 55.0985L500.264 56.8571L493.663 62.2375M502.425 55.0985H553.265M361.15 48.2232L371.991 41.5981M361.15 48.2232L359.764 49.0682L349.897 55.0985M420.992 41.5981H469.993M420.992 41.5981H371.991M420.992 41.5981L430.578 35.2065M469.993 41.5981L478.707 35.2065M469.993 41.5981H518.994M510.862 48.2232L518.994 41.5981M510.862 48.2232H560.766M439.827 29.0403H487.116M439.827 29.0403L448.761 23.0842M439.827 29.0403H392.541M439.827 29.0403L430.578 35.2065M487.116 29.0403L493.235 24.5543L494.238 23.8165L495.239 23.0842M487.116 29.0403L478.707 35.2065M487.116 29.0403H534.405M448.761 23.0842H495.239M448.761 23.0842L457.393 17.3301H503.083M448.761 23.0842H402.285M430.578 35.2065H478.707M430.578 35.2065H382.449M495.239 23.0842H541.714M495.239 23.0842L503.083 17.3301M478.707 35.2065H526.836M534.405 29.0403L541.714 23.0842M534.405 29.0403L526.836 35.2065M534.405 29.0403H581.694M402.285 23.0842H355.808M402.285 23.0842L392.54 29.0403M402.285 23.0842L411.7 17.3301M541.714 23.0842H588.19M541.714 23.0842L548.776 17.3301M503.083 17.3301H548.776M67.6912 617.068H195.164M67.6912 617.068L107.829 575.018M67.6912 617.068L23.5839 663.276M67.6912 617.068L0.51753 617.069M195.164 617.068L229.568 575.018M195.164 617.068L157.358 663.276M195.164 617.068H322.636M107.829 575.018H229.568M107.829 575.018L144.512 536.588M107.829 575.018H0.51753M23.5839 663.276H157.358M23.5839 663.276L0.51753 687.444M23.5839 663.276H0.516214M229.568 575.018L261.011 536.588M229.568 575.018H351.307M157.358 663.276L115.62 714.291M157.358 663.276L291.133 663.278M144.512 536.588H261.011M144.512 536.588L28.0138 536.589M144.512 536.588L178.168 501.329M261.011 536.588L289.858 501.329M261.011 536.588L377.509 536.589M351.307 575.018L377.509 536.589M351.307 575.018L322.636 617.069M351.307 575.018H473.046M209.155 468.866H316.418M209.155 468.866L237.778 438.878M209.155 468.866H101.892M209.155 468.866L178.168 501.329M316.418 468.866L340.953 438.878M316.418 468.866L289.858 501.329M316.418 468.866H423.681M237.778 438.878H340.953M237.778 438.878H134.604M237.778 438.878L264.302 411.093M101.892 468.866L134.604 438.878M101.892 468.866L66.4757 501.329M101.892 468.866H0.516214M178.168 501.329H289.858M178.168 501.329L66.477 501.331M340.953 438.878L363.687 411.093M340.953 438.878H444.128M289.858 501.329L401.547 501.331M134.604 438.878H31.4298M134.604 438.878L164.916 411.094M264.302 411.093H363.687M264.302 411.093L164.916 411.094M264.302 411.093L288.944 385.276M363.687 411.093L384.81 385.276M363.687 411.093L463.073 411.094M311.903 361.224H404.487M311.903 361.224L333.34 338.764M311.903 361.224H219.316M311.903 361.224L288.944 385.275M404.487 361.224L422.864 338.764M404.487 361.224L384.81 385.275M404.487 361.224H497.072M333.34 338.764H422.864M333.34 338.764H243.816M333.34 338.764L353.405 317.743M422.864 338.764L440.062 317.743M422.864 338.764H512.386M243.816 338.764L266.75 317.744M243.816 338.764L219.316 361.226M512.386 338.764L526.719 317.744M512.386 338.764L497.072 361.226M512.386 338.764H601.909M389.913 279.496H471.355M389.913 279.496L406.569 262.049M389.913 279.496H308.473M389.913 279.496L372.226 298.027M471.355 279.496L485.63 262.049M471.355 279.496L456.194 298.027M471.355 279.496H552.795L564.691 262.049M406.569 262.049H485.63M406.569 262.049H327.506M406.569 262.049L422.276 245.592M308.473 279.496L327.506 262.049M308.473 279.496L288.258 298.027M485.63 262.049L499.095 245.592M485.63 262.049H564.691M327.506 262.049L345.459 245.592M422.276 245.592H499.095M422.276 245.592H345.459M422.276 245.592L437.117 230.044M499.095 245.592L511.816 230.044M499.095 245.592H575.912M564.691 262.049L575.912 245.592M564.691 262.049H643.753M451.162 215.331H523.854M451.162 215.331L464.471 201.388M451.162 215.331L378.472 215.329M451.162 215.331L437.117 230.044M523.854 215.331L535.261 201.386M523.854 215.331L511.816 230.044M523.854 215.331L596.545 215.329M378.472 215.329L393.682 201.388M378.472 215.329L362.42 230.044M437.117 230.044H511.816M535.261 201.386H464.471M535.261 201.386L546.089 188.153M535.261 201.386H606.051M511.816 230.044H586.513M596.545 215.329L606.051 201.386M596.545 215.329L586.513 230.046M596.545 215.329H669.236M464.471 201.386H393.682M464.471 201.386L477.103 188.153M393.682 201.386L408.119 188.153M477.103 188.153H546.089M477.103 188.153H408.119M477.103 188.153L489.106 175.578M546.089 188.153L556.376 175.58L566.166 163.613M546.089 188.153H615.074M606.051 201.386L615.074 188.153M606.051 201.386H676.842M500.527 163.614H566.166M500.527 163.614L511.407 152.214M500.527 163.614H434.888M500.527 163.614L489.106 175.578M489.106 175.578H556.376H623.647M489.106 175.578H421.836M566.166 163.613L575.492 152.216M566.166 163.613H631.805M575.492 152.216H511.407M575.492 152.216L584.386 141.344M575.492 152.216H639.576M631.805 163.613L639.576 152.216M631.805 163.613H697.445M511.407 152.216H447.322M511.407 152.216L521.784 141.344M447.322 152.216L459.182 141.344M447.322 152.216L434.888 163.613M521.784 141.344H584.386M521.784 141.344H459.182M521.784 141.344L531.691 130.965M584.386 141.344L592.878 130.964L600.996 121.044M584.386 141.344H646.989M639.576 152.216L644.25 145.361L646.989 141.344M639.576 152.216H703.662M541.161 121.044H600.996M541.161 121.044L550.221 111.554M541.161 121.044H481.327M541.161 121.044L531.691 130.964M600.996 121.044L608.76 111.554H550.221M600.996 121.044H660.829M550.221 111.554H491.681M550.221 111.554L558.896 102.464M481.327 121.044L491.681 111.554M481.327 121.044L470.504 130.964M660.829 121.044L667.3 111.552M660.829 121.044L659.166 123.482L654.066 130.965M491.681 111.554H433.14M558.896 102.464L567.212 93.7516M667.3 111.552H608.76L616.197 102.464L619.798 98.0617L623.326 93.7502M667.3 111.552L673.497 102.464H730.798H788.098M575.191 85.3926H630.164M575.191 85.3926L582.852 77.3674M575.191 85.3926H520.219M575.191 85.3926L567.212 93.7516M630.164 85.3926L629.324 86.4189L623.326 93.7516M630.164 85.3926L636.73 77.3674M630.164 85.3926H685.137M582.852 77.3674H636.73M582.852 77.3674H528.974M582.852 77.3674L590.214 69.6541M520.219 85.3926L528.974 77.3674M520.219 85.3926L511.101 93.7516M567.212 93.7516H623.326M623.326 93.7516H679.438M636.73 77.3674L643.041 69.6541M636.73 77.3674H690.609M685.137 85.3926L690.609 77.3674M685.137 85.3926L679.438 93.7516M685.137 85.3926H740.11M528.974 77.3674L537.388 69.6541M590.214 69.6541H643.041M590.214 69.6541H537.388M590.214 69.6541L597.294 62.2375M643.041 69.6541L649.11 62.2375M643.041 69.6541H695.867M690.609 77.3674L695.867 69.6541M690.609 77.3674H744.487M604.107 55.0985H654.949M604.107 55.0985L610.671 48.2232M604.107 55.0985H553.265M604.107 55.0985L597.294 62.2375M654.949 55.0985L660.575 48.2232M654.949 55.0985L652.786 57.7447L651.325 59.5294L649.11 62.2375M654.949 55.0985H705.791M610.671 48.2232H660.575M610.671 48.2232H560.766M610.671 48.2232L616.994 41.5981M553.265 55.0985L560.766 48.2232M553.265 55.0985L545.479 62.2375M597.294 62.2375H649.11M597.294 62.2375H545.479M660.575 48.2232L662.632 45.7103L663.987 44.0533L665.996 41.5981M660.575 48.2232H710.479M649.11 62.2375H700.925M705.791 55.0985L706.979 53.3549L710.479 48.2232M705.791 55.0985L705.193 55.9764L704.591 56.8571L702.771 59.5294L702.158 60.4266L700.925 62.2375M705.791 55.0985H756.633M560.766 48.2232L567.995 41.5981M616.994 41.5981H665.996M616.994 41.5981H567.995M616.994 41.5981L621.59 36.7825L623.095 35.2065M665.996 41.5981L668.634 38.3734L671.224 35.2065M665.996 41.5981H714.997M710.479 48.2232L711.053 47.3824L711.623 46.5443L713.883 43.2303L714.997 41.5981M710.479 48.2232H760.383M628.982 29.0403H676.269M628.982 29.0403L633.264 24.5543L634.667 23.0842M628.982 29.0403H581.694M628.982 29.0403L623.842 34.4233L623.095 35.2065M676.269 29.0403L679.941 24.5543L680.543 23.8165L681.143 23.0842M676.269 29.0403L673.769 32.0959L671.224 35.2065M676.269 29.0403H723.558M634.667 23.0842H681.143M634.667 23.0842L640.159 17.3301M634.667 23.0842H588.19M581.694 29.0403L588.19 23.0842M581.694 29.0403L574.965 35.2065M623.095 35.2065H671.224M623.095 35.2065H574.965M681.143 23.0842H727.619M681.143 23.0842L685.851 17.3301M671.224 35.2065H719.353M723.558 29.0403L727.619 23.0842M723.558 29.0403L719.353 35.2065M723.558 29.0403H770.847M640.159 17.3301H685.851M640.159 17.3301H594.468M588.19 23.0842L592.919 18.7508L594.468 17.3301M727.619 23.0842H774.094M727.619 23.0842L730.573 18.7508L731.542 17.3301M685.851 17.3301H731.542M577.582 617.068H705.055M577.582 617.068L594.784 575.018M577.582 617.068H450.11M577.582 617.068L558.679 663.276M705.055 617.068L716.523 575.018M705.055 617.068L692.454 663.276M705.055 617.068H832.528M594.784 575.018H716.523M594.784 575.018H473.046M594.784 575.018L610.505 536.588M558.679 663.276H692.454M558.679 663.276L537.811 714.289M558.679 663.276H424.905M716.523 575.018L727.003 536.588M716.523 575.018H838.262M692.454 663.276L678.541 714.289M692.454 663.276H826.225M832.528 617.068L838.262 575.018M832.528 617.068L826.225 663.276M832.528 617.068H960M473.046 575.018L494.008 536.588M473.046 575.018L450.11 617.069M610.505 536.588H727.003M610.505 536.588H494.008M610.505 536.588L624.928 501.329M727.003 536.588L736.619 501.329M727.003 536.588H843.502M838.262 575.018L843.502 536.588M838.262 575.018H960M638.209 468.866H745.472M638.209 468.866L650.477 438.878M638.209 468.866H530.945M638.209 468.866L624.928 501.329M745.472 468.866L753.651 438.878M745.472 468.866L736.619 501.329M745.472 468.866H852.737M650.477 438.878H753.651M650.477 438.878H547.303M650.477 438.878L661.843 411.093M624.928 501.329H736.619M624.928 501.329H513.239M753.651 438.878L761.229 411.093M753.651 438.878H856.826M736.619 501.329H848.309M852.737 468.866L848.309 501.329M852.737 468.866H960M661.843 411.093H761.229M661.843 411.093L562.459 411.094M661.843 411.093L672.404 385.276H768.27M761.229 411.093L768.27 385.276M761.229 411.093L860.614 411.094M682.244 361.224H774.829M682.244 361.224L691.432 338.764M682.244 361.224H589.659M682.244 361.224L672.404 385.275H576.54M774.829 361.224L780.954 338.764M774.829 361.224L768.27 385.275M774.829 361.224H867.415M691.432 338.764H780.954M691.432 338.764H601.909M691.432 338.764L700.031 317.743M780.954 338.764L786.688 317.743M780.954 338.764H870.478M601.909 338.764L613.374 317.744M601.909 338.764L589.659 361.226M870.478 338.764L873.343 317.744M870.478 338.764L867.415 361.226M870.478 338.764H960M715.678 279.496H797.117M715.678 279.496L722.814 262.049M715.678 279.496H634.236M715.678 279.496L708.097 298.027M797.117 279.496L801.877 262.049M797.117 279.496L792.065 298.027M797.117 279.496H878.559L880.939 262.049M722.814 262.049H801.877M722.814 262.049H643.753M722.814 262.049L729.547 245.592M801.877 262.049L806.364 245.592M801.877 262.049H880.939M643.753 262.049L652.729 245.592M643.753 262.049L634.236 279.498M729.547 245.592H806.364M729.547 245.592H652.729M729.547 245.592L735.908 230.044M806.364 245.592L810.606 230.044M806.364 245.592H883.183M880.939 262.049L883.183 245.592M880.939 262.049H960M741.926 215.331H814.619M741.926 215.331L747.631 201.388M741.926 215.331L669.236 215.329M741.926 215.331L735.908 230.044M814.619 215.331L818.42 201.386M814.619 215.331L810.606 230.044M814.619 215.331L887.309 215.329M669.236 215.329L676.842 201.388M669.236 215.329L661.209 230.044M735.908 230.044H810.606M818.42 201.386H747.631M818.42 201.386L822.03 188.153M818.42 201.386H889.21H960M810.606 230.044H885.302M887.309 215.329L889.21 201.388L891.016 188.153M887.309 215.329L885.302 230.046M887.309 215.329H960M747.631 201.386H676.842M747.631 201.386L753.044 188.153M676.842 201.386L684.059 188.153M753.044 188.153H822.03M753.044 188.153H684.059M753.044 188.153L758.189 175.578M822.03 188.153L825.459 175.58L828.722 163.613M822.03 188.153H891.016M763.083 163.614H828.722M763.083 163.614L767.746 152.214M763.083 163.614H697.445M763.083 163.614L758.189 175.578M758.189 175.578H825.459H892.729M758.189 175.578H690.918M828.722 163.613L831.831 152.216M828.722 163.613H894.362M831.831 152.216H767.746M831.831 152.216L834.796 141.344M831.831 152.216H895.916M894.362 163.613L895.916 152.216M894.362 163.613H960M767.746 152.216H703.662M767.746 152.216L769.438 148.08L772.193 141.344M703.662 152.216L709.591 141.344M703.662 152.216L697.445 163.613M772.193 141.344H834.796M772.193 141.344H709.591M772.193 141.344L776.438 130.965M834.796 141.344L837.626 130.964L840.332 121.044M834.796 141.344H897.397M895.916 152.216L897.397 141.344M895.916 152.216H960M780.497 121.044H840.332M780.497 121.044L784.381 111.554L784.853 110.396L788.098 102.464M780.497 121.044H720.662M780.497 121.044L777.471 128.444L776.438 130.965M840.332 121.044H900.167M720.662 121.044L725.84 111.552M720.662 121.044L720 122.26L717.988 125.949L715.251 130.964M776.438 130.965H837.626H898.813M776.438 130.965H715.251M840.332 121.045L841.316 117.436L842.919 111.552M842.919 111.552H784.381H725.84M842.919 111.552L843.862 108.098L844.172 106.958L844.483 105.827L845.399 102.464L846.303 99.154L846.599 98.0617L847.776 93.7516M842.919 111.552H901.461M900.167 121.044L901.461 111.552M900.167 121.044L898.813 130.964M900.167 121.044H960M788.098 102.464L791.663 93.7516M725.84 111.552L730.798 102.462L735.55 93.7516H679.438M901.461 111.552L901.618 110.396L902.7 102.464H960H1017.3M795.081 85.3926H850.054M795.081 85.3926L796.739 81.3394L797.15 80.3392L797.556 79.3431L797.963 78.3539L798.364 77.3674M795.081 85.3926H740.11M795.081 85.3926L791.663 93.7516M850.054 85.3926L851.704 79.3431L851.976 78.3539L852.243 77.3674M850.054 85.3926L847.776 93.7516M850.054 85.3926H905.027M798.364 77.3674H852.243M798.364 77.3674H744.487M798.364 77.3674L800.352 72.5104L800.743 71.5542L801.521 69.6541M740.11 85.3926L743.409 79.3431L744.487 77.3674M740.11 85.3926L738.422 88.4867L736.707 91.6289L735.55 93.7502H791.663M791.663 93.7516H847.776M852.243 77.3674L853.568 72.5104L853.83 71.5542L854.088 70.6021L854.347 69.6541M852.243 77.3674H906.121M847.776 93.7516H903.887M905.027 85.3926L906.121 77.3674M905.027 85.3926L904.606 88.4867L904.176 91.6289L903.887 93.7502M905.027 85.3926H960M744.487 77.3674L748.693 69.6541M801.521 69.6541H854.347M801.521 69.6541H748.693M801.521 69.6541L804.555 62.2375M854.347 69.6541L856.37 62.2375M854.347 69.6541H907.174M906.121 77.3674L907.174 69.6541M906.121 77.3674H960M807.475 55.0985H858.316M807.475 55.0985L810.287 48.2232M807.475 55.0985H756.633M807.475 55.0985L806.754 56.8571L805.662 59.5294L804.555 62.2375M858.316 55.0985L858.077 55.9764L856.616 61.3293L856.37 62.2375M858.316 55.0985L860.192 48.2232M858.316 55.0985H909.158M810.287 48.2232H860.192M810.287 48.2232H760.383M810.287 48.2232L812.999 41.5981M756.633 55.0985L759.922 49.0682L760.383 48.2232M756.633 55.0985L756.155 55.9764L755.673 56.8571L755.191 57.7447L752.74 62.2375M804.555 62.2375H856.37M804.555 62.2375H752.74M856.37 62.2375H908.185M860.192 48.2232L860.878 45.7103L861.103 44.8804L861.329 44.0533L861.998 41.5981M860.192 48.2232H910.096M909.158 55.0985L909.865 49.9187L909.98 49.0682L910.096 48.2232M909.158 55.0985L908.185 62.2375M909.158 55.0985H960M760.383 48.2232L763.998 41.5981M812.999 41.5981H861.998M812.999 41.5981H763.998M812.999 41.5981L813.66 39.9782L813.989 39.1744L814.317 38.3734L814.644 37.5766L814.968 36.7825L815.292 35.9938L815.611 35.2065M861.998 41.5981L862.22 40.7861L862.441 39.9782L862.878 38.3734L863.095 37.5766L863.313 36.7825L863.527 35.9938L863.742 35.2065M861.998 41.5981H910.999M910.096 48.2232L910.999 41.5981M910.096 48.2232H960M818.136 29.0403H865.424M818.136 29.0403L819.97 24.5543L820.571 23.0842M818.136 29.0403H770.847M818.136 29.0403L817.198 31.3265L816.885 32.0959L816.569 32.8681L815.611 35.2065M865.424 29.0403L865.63 28.2846L866.039 26.7815L866.445 25.2935L867.047 23.0842M865.424 29.0403L864.59 32.0959L864.379 32.8681L863.955 34.4233L863.742 35.2065M865.424 29.0403H912.711M820.571 23.0842H867.047M820.571 23.0842L822.634 18.0391L822.925 17.3301M820.571 23.0842H774.094M770.847 29.0403L774.094 23.0842M770.847 29.0403L767.482 35.2065M815.611 35.2065H863.742M815.611 35.2065H767.482M867.047 23.0842L867.247 22.3546L867.445 21.6265L867.642 20.9037L867.839 20.1824L868.423 18.0391L868.617 17.3301M867.047 23.0842H913.524M863.742 35.2065H911.871M912.711 29.0403L913.524 23.0842M912.711 29.0403L911.871 35.2065M912.711 29.0403H960M822.925 17.3301H868.617M822.925 17.3301H777.234M774.094 23.0842L775.679 20.1824L776.848 18.0391L777.234 17.3301M868.617 17.3301H914.308M913.524 23.0842L913.622 22.3546L913.722 21.6265L913.821 20.9037L914.308 17.3301M913.524 23.0842H960M1087.47 617.068H1214.95M1087.47 617.068L1081.74 575.018M1087.47 617.068H960M1087.47 617.068L1093.77 663.276M1214.95 617.068L1203.48 575.018M1214.95 617.068L1227.55 663.276M1214.95 617.068H1342.42M1081.74 575.018H1203.48M1081.74 575.018H960M1081.74 575.018L1076.5 536.588M960 617.068V575.018M960 617.068V663.278M1093.77 663.276H1227.55M1093.77 663.276L1100.73 714.291M1093.77 663.276L960 663.278M1203.48 575.018L1193 536.588M1203.48 575.018H1325.22M1227.55 663.276L1241.46 714.291M1227.55 663.276L1361.32 663.278M960 575.018V536.589M1076.5 536.588H1193M1076.5 536.588L960 536.589M1076.5 536.588L1071.69 501.329M1193 536.588L1183.38 501.329M1193 536.588L1309.5 536.589M1325.22 575.018L1309.5 536.589M1325.22 575.018L1342.42 617.069M1325.22 575.018H1446.95M1067.26 468.866H1174.53M1067.26 468.866L1063.17 438.878M1067.26 468.866H960M1067.26 468.866L1071.69 501.329M1174.53 468.866L1166.35 438.878M1174.53 468.866L1183.38 501.329M1174.53 468.866H1281.79M1063.17 438.878H1166.35M1063.17 438.878H960M1063.17 438.878L1059.39 411.093M960 468.866V438.878M960 468.866V501.331M1071.69 501.329H1183.38M1071.69 501.329L960 501.331M1166.35 438.878L1158.77 411.093M1166.35 438.878H1269.52M1183.38 501.329L1295.07 501.331M960 438.878V411.094M1059.39 411.093H1158.77M1059.39 411.093L960 411.094M1059.39 411.093L1055.87 385.276M1158.77 411.093L1151.73 385.276M1158.77 411.093L1258.16 411.094M1052.59 361.224H1145.17M1052.59 361.224L1049.52 338.764M1052.59 361.224H960M1052.59 361.224L1055.87 385.275M1145.17 361.224L1139.05 338.764M1145.17 361.224L1151.73 385.275M1145.17 361.224H1237.76M1049.52 338.764H1139.05M1049.52 338.764H960M1049.52 338.764L1046.66 317.743M1139.05 338.764L1133.31 317.743M1139.05 338.764H1228.57M960 338.764V317.744M960 338.764V361.226M1228.57 338.764L1219.97 317.744M1228.57 338.764L1237.76 361.226M1228.57 338.764H1318.09M1041.44 279.496H1122.88M1041.44 279.496L1039.06 262.049M1041.44 279.496H960M1041.44 279.496L1043.97 298.027M1122.88 279.496L1118.12 262.049M1122.88 279.496L1127.94 298.027M1122.88 279.496H1204.32L1197.19 262.049M1039.06 262.049H1118.12M1039.06 262.049H960M1039.06 262.049L1036.82 245.592M1118.12 262.049L1113.64 245.592M1118.12 262.049H1197.19M960 262.049V245.592M960 262.049V279.498M1036.82 245.592H1113.64M1036.82 245.592H960M1036.82 245.592L1034.7 230.044M1113.64 245.592L1109.39 230.044M1113.64 245.592H1190.45M1197.19 262.049L1190.45 245.592M1197.19 262.049H1276.25M1032.69 215.331H1105.38M1032.69 215.331L1030.79 201.388M1032.69 215.331L960 215.329M1032.69 215.331L1034.7 230.044M1105.38 215.331L1101.58 201.386M1105.38 215.331L1109.39 230.044M1105.38 215.331L1178.07 215.329M960 215.329V201.386M960 215.329V230.044M1034.7 230.044H1109.39M1101.58 201.386H1030.79M1101.58 201.386L1097.97 188.153M1101.58 201.386H1172.37M1109.39 230.044H1184.09M1178.07 215.329L1172.37 201.386M1178.07 215.329L1184.09 230.046M1178.07 215.329H1250.76M1030.79 201.386H960M1030.79 201.386L1028.98 188.153M960 201.386V188.153M1028.98 188.153H1097.97M1028.98 188.153H960M1028.98 188.153L1027.48 177.117L1027.27 175.578M1097.97 188.153L1094.54 175.58L1091.28 163.613M1097.97 188.153H1166.96M1172.37 201.386L1166.96 188.153M1172.37 201.386H1243.16M1025.64 163.614H1091.28M1025.64 163.614L1024.08 152.214M1025.64 163.614H960M1025.64 163.614L1027.27 175.578M1027.27 175.578H1094.54H1161.81M1027.27 175.578H960M1091.28 163.613L1088.17 152.216M1091.28 163.613H1156.92M1088.17 152.216H1024.08M1088.17 152.216L1085.2 141.344M1088.17 152.216H1152.25M1156.92 163.613L1152.25 152.216M1156.92 163.613H1222.56M1024.08 152.216H960M1024.08 152.216L1022.6 141.344M960 152.216V141.344M960 152.216V163.613M1022.6 141.344H1085.2M1022.6 141.344H960M1022.6 141.344L1021.19 130.965M1085.2 141.344L1082.37 130.964L1079.67 121.044M1085.2 141.344H1147.81M1152.25 152.216L1151.12 149.45L1147.81 141.344M1152.25 152.216H1216.34M1019.83 121.044H1079.67M1019.83 121.044L1018.54 111.554L1018.38 110.396L1017.3 102.464M1019.83 121.044H960M1019.83 121.044L1021.19 130.964M1079.67 121.044L1077.4 112.718L1077.08 111.552M1079.67 121.044H1139.5M960 121.044V111.554H901.461M960 121.044V130.964M1077.08 111.552H1018.54H960M1077.08 111.552L1076.14 108.098L1075.83 106.958L1075.52 105.827L1074.6 102.464L1073.7 99.154L1073.4 98.0617L1072.23 93.7516M1077.08 111.552H1135.62M1139.5 121.044L1135.62 111.552M1139.5 121.044L1142.53 128.444L1143.56 130.965M1017.3 102.464L1017 100.252L1016.4 95.895L1016.11 93.7516M1135.62 111.552L1131.9 102.464H1189.2H1246.5M1014.97 85.3926H1069.95M1014.97 85.3926L1013.88 77.3674M1014.97 85.3926H960M1014.97 85.3926L1015.39 88.4867L1015.54 89.5281L1015.68 90.5765L1015.97 92.6868L1016.11 93.7516M1069.95 85.3926L1068.3 79.3431L1067.76 77.3674M1069.95 85.3926L1072.23 93.7516M1069.95 85.3926H1124.92M1013.88 77.3674H1067.76M1013.88 77.3674H960M1013.88 77.3674L1012.83 69.6541M960 85.3926V77.3674M960 85.3926V93.7516M1016.11 93.7516H1072.23M1067.76 77.3674L1066.43 72.5104L1066.17 71.5542L1065.91 70.6021L1065.65 69.6541M1067.76 77.3674H1121.64M1072.23 93.7516H1128.34M1124.92 85.3926L1122.85 80.3392L1122.44 79.3417L1122.04 78.3525L1121.64 77.3674M1124.92 85.3926L1127.9 92.6882L1128.34 93.7502M1124.92 85.3926H1179.89M960 77.3674V69.6541M1012.83 69.6541H1065.65M1012.83 69.6541H960M1012.83 69.6541L1011.81 62.2375M1065.65 69.6541L1063.63 62.2375M1065.65 69.6541H1118.48M1121.64 77.3674L1120.04 73.4722L1119.65 72.5104L1119.26 71.5542L1118.48 69.6541M1121.64 77.3674H1175.51M1010.84 55.0985H1061.68M1010.84 55.0985L1009.9 48.2232M1010.84 55.0985H960M1010.84 55.0985L1011.81 62.2375M1061.68 55.0985L1061.92 55.9764L1063.38 61.3293L1063.63 62.2375M1061.68 55.0985L1059.81 48.2232M1061.68 55.0985H1112.53M1009.9 48.2232H1059.81M1009.9 48.2232H960M1009.9 48.2232L1009 41.5981M960 55.0985V48.2232M960 55.0985V62.2375M1011.81 62.2375H1063.63M1011.81 62.2375H960M1063.63 62.2375H1115.44M1059.81 48.2232L1059.12 45.7103L1058.9 44.8804L1058.67 44.0533L1058 41.5981M1059.81 48.2232H1109.71M1112.53 55.0985L1109.71 48.2232M1112.53 55.0985L1113.25 56.8571L1114.34 59.5294L1115.44 62.2375M1112.53 55.0985H1163.37M960 48.2232V41.5981M1009 41.5981H1058M1009 41.5981H960M1009 41.5981L1008.13 35.2065M1058 41.5981L1057.78 40.7861L1057.12 38.3734L1056.9 37.5766L1056.69 36.7825L1056.47 35.9938L1056.26 35.2065M1058 41.5981H1107M1109.71 48.2232L1107 41.5981M1109.71 48.2232H1159.62M1007.29 29.0403H1054.58M1007.29 29.0403L1006.48 23.0842M1007.29 29.0403H960M1007.29 29.0403L1008.13 35.2065M1054.58 29.0403L1054.37 28.2846L1053.96 26.7815L1053.76 26.0354L1053.35 24.5543L1053.15 23.8165L1052.95 23.0842M1054.58 29.0403L1055.41 32.0959L1055.62 32.8681L1056.04 34.4233L1056.26 35.2065M1054.58 29.0403H1101.86M1006.48 23.0842L1006.38 22.3546L1006.28 21.6265L1006.18 20.9037L1005.69 17.3301M1006.48 23.0842H1052.95M1006.48 23.0842H960M960 29.0403V23.0842M960 29.0403V35.2065M1008.13 35.2065H1056.26M1008.13 35.2065H960M1052.95 23.0842H1099.43M1052.95 23.0842L1052.55 21.6265L1052.36 20.9037L1052.16 20.1824L1051.58 18.0391L1051.38 17.3301M1056.26 35.2065H1104.39M1101.86 29.0403L1100.03 24.5543L1099.43 23.0842M1101.86 29.0403L1103.43 32.8681L1104.39 35.2065M1101.86 29.0403H1149.15M1005.69 17.3301H1051.38M1005.69 17.3301H960M960 23.0842V17.3301M1099.43 23.0842H1145.91M1099.43 23.0842L1097.66 18.7508L1097.07 17.3301M1051.38 17.3301H1097.07M1597.37 617.068H1724.84M1597.37 617.068L1568.7 575.018M1597.37 617.068H1469.89M1597.37 617.068L1628.87 663.276M1724.84 617.068L1690.43 575.018M1724.84 617.068L1762.65 663.276M1724.84 617.068H1852.31M1568.7 575.018H1690.43M1568.7 575.018H1446.95M1568.7 575.018L1542.49 536.588M1628.87 663.276H1762.65M1628.87 663.276L1663.64 714.291M1628.87 663.276L1495.1 663.278M1690.43 575.018L1659 536.588M1690.43 575.018H1812.17M1762.65 663.276L1804.38 714.291M1762.65 663.276L1896.41 663.278M1446.95 575.018L1425.99 536.589M1446.95 575.018L1469.89 617.069M1542.49 536.588H1659M1542.49 536.588L1425.99 536.589M1542.49 536.588L1518.45 501.329M1659 536.588L1630.14 501.329M1659 536.588L1775.49 536.589M1812.17 575.018L1775.49 536.589M1812.17 575.018L1852.31 617.069M1812.17 575.018L1919.49 575.019M1496.32 468.866H1603.58M1496.32 468.866L1475.87 438.878M1496.32 468.866H1389.05M1496.32 468.866L1518.45 501.329M1603.58 468.866L1579.05 438.878M1603.58 468.866L1630.14 501.329M1603.58 468.866H1710.84M1475.87 438.878H1579.05M1475.87 438.878H1372.69M1475.87 438.878L1456.92 411.093M1518.45 501.329H1630.14M1518.45 501.329L1406.76 501.331M1579.05 438.878L1556.32 411.093M1579.05 438.878H1682.23M1630.14 501.329L1741.83 501.331M1456.92 411.093H1556.32M1456.92 411.093L1357.54 411.094M1456.92 411.093L1439.33 385.276M1556.32 411.093L1535.2 385.276M1556.32 411.093L1655.7 411.094M1422.93 361.224H1515.51M1422.93 361.224L1407.62 338.764M1422.93 361.224H1330.34M1422.93 361.224L1439.33 385.275M1515.51 361.224L1497.14 338.764M1515.51 361.224L1535.2 385.275M1515.51 361.224H1608.1M1407.62 338.764H1497.14M1407.62 338.764H1318.09M1407.62 338.764L1393.28 317.743M1497.14 338.764L1479.94 317.743M1497.14 338.764H1586.66M1318.09 338.764L1306.63 317.744M1318.09 338.764L1330.34 361.226M1586.66 338.764L1566.59 317.744M1586.66 338.764L1608.1 361.226M1586.66 338.764H1676.18M1367.2 279.496H1448.65M1367.2 279.496L1355.31 262.049M1367.2 279.496H1285.76M1367.2 279.496L1379.85 298.027M1448.65 279.496L1434.38 262.049M1448.65 279.496L1463.81 298.027M1448.65 279.496H1530.09L1513.43 262.049M1355.31 262.049H1434.38M1355.31 262.049H1276.25M1355.31 262.049L1344.09 245.592M1434.38 262.049L1420.91 245.592M1434.38 262.049H1513.43M1276.25 262.049L1267.27 245.592M1276.25 262.049L1285.76 279.498M1344.09 245.592H1420.91M1344.09 245.592H1267.27M1344.09 245.592L1333.49 230.044M1420.91 245.592L1408.18 230.044M1420.91 245.592H1497.72M1513.43 262.049L1497.72 245.592M1513.43 262.049H1592.49M1323.46 215.331H1396.15M1323.46 215.331L1313.95 201.386M1323.46 215.331L1250.76 215.329M1323.46 215.331L1333.49 230.044M1396.15 215.331L1384.74 201.386M1396.15 215.331L1408.18 230.044M1396.15 215.331L1468.84 215.329M1313.95 201.386H1384.74M1313.95 201.386H1243.16M1313.95 201.386L1304.93 188.153M1250.76 215.329L1248.82 211.773L1243.16 201.386M1250.76 215.329L1258.79 230.044M1333.49 230.044H1408.18M1384.74 201.386L1373.91 188.153M1384.74 201.386H1455.53M1408.18 230.044H1482.88M1468.84 215.329L1455.53 201.386M1468.84 215.329L1482.88 230.046M1468.84 215.329L1541.53 215.331M1243.16 201.386L1235.94 188.153M1304.93 188.153H1373.91M1304.93 188.153H1235.94M1304.93 188.153L1296.35 175.578M1373.91 188.153L1363.62 175.58L1353.84 163.613M1373.91 188.153H1442.9M1455.53 201.386L1442.9 188.153M1455.53 201.386H1526.32M1288.19 163.614H1353.84M1288.19 163.614L1280.42 152.214M1288.19 163.614H1222.56M1288.19 163.614L1296.35 175.578M1296.35 175.578H1363.62H1430.89M1296.35 175.578H1229.08M1353.84 163.613L1344.51 152.216M1353.84 163.613H1419.47M1344.51 152.216H1280.42M1344.51 152.216L1335.61 141.344M1344.51 152.216H1408.59M1419.47 163.613L1408.59 152.216M1419.47 163.613H1485.12M1280.42 152.216H1216.34M1280.42 152.216L1273.01 141.344M1216.34 152.216L1210.41 141.344M1216.34 152.216L1222.56 163.613M1273.01 141.344H1335.61M1273.01 141.344H1210.41M1273.01 141.344L1265.93 130.965M1335.61 141.344L1327.12 130.964L1319 121.044M1335.61 141.344H1398.22M1408.59 152.216L1398.22 141.344M1408.59 152.216H1472.67M1265.93 130.965L1260.83 123.482L1260 122.26L1259.17 121.044H1199.34M1265.93 130.965H1327.12H1388.31M1265.93 130.965H1204.75M1319 121.045H1259.17L1252.7 111.552M1199.34 121.044L1194.16 111.552L1189.2 102.462L1184.45 93.7516M1199.34 121.044L1202.01 125.949L1204.75 130.964M1319 121.044L1311.24 111.554H1252.7M1319 121.044H1378.84M1378.84 121.044L1369.78 111.552M1378.84 121.044L1388.31 130.964M1378.84 121.044H1438.67M1252.7 111.554H1194.16H1135.62M1252.7 111.554L1246.5 102.464M1246.5 102.464L1244.99 100.252L1240.56 93.7516M1369.78 111.552H1311.24L1303.8 102.464L1301.09 99.154L1300.2 98.0617L1296.67 93.7516M1369.78 111.552L1361.11 102.464H1418.4H1475.7M1234.86 85.3926H1289.84M1234.86 85.3926L1229.39 77.3674M1234.86 85.3926H1179.89M1234.86 85.3926L1240.56 93.7516M1289.84 85.3926L1285.7 80.3392L1283.27 77.3674M1289.84 85.3926L1296.67 93.7516M1289.84 85.3926H1344.8M1229.39 77.3674H1283.27M1229.39 77.3674H1175.51M1229.39 77.3674L1224.78 70.6021L1224.13 69.6541M1179.89 85.3926L1176.59 79.3431L1175.51 77.3674M1179.89 85.3926L1181.58 88.4867L1184.45 93.7516M1240.56 93.7516H1296.67M1283.27 77.3674L1276.96 69.6541M1283.27 77.3674H1337.15M1296.67 93.7516H1352.78M1344.8 85.3926L1337.15 77.3674M1344.8 85.3926L1352.78 93.7516M1344.8 85.3926H1399.78M1175.51 77.3674L1171.31 69.6541M1224.13 69.6541H1276.96M1224.13 69.6541H1171.31M1224.13 69.6541L1219.07 62.2375M1276.96 69.6541L1270.89 62.2375M1276.96 69.6541H1329.79M1337.15 77.3674L1332.52 72.5104L1331.6 71.5542L1329.79 69.6541M1337.15 77.3674H1391.03M1214.21 55.0985H1265.05M1214.21 55.0985L1213.02 53.3549L1209.52 48.2232M1214.21 55.0985H1163.37M1214.21 55.0985L1215.41 56.8571L1217.84 60.4266L1219.07 62.2375M1265.05 55.0985L1259.43 48.2232M1265.05 55.0985L1267.21 57.7447L1268.67 59.5294L1270.89 62.2375M1265.05 55.0985H1315.89M1209.52 48.2232H1259.43M1209.52 48.2232H1159.62M1209.52 48.2232L1206.12 43.2303L1205 41.5981M1163.37 55.0985L1160.08 49.0682L1159.62 48.2232M1163.37 55.0985L1163.85 55.9764L1164.33 56.8571L1164.81 57.7447L1167.26 62.2375M1219.07 62.2375H1270.89M1219.07 62.2375H1167.26M1259.43 48.2232L1257.37 45.7103L1256.01 44.0533L1254 41.5981M1259.43 48.2232H1309.33M1270.89 62.2375H1322.71M1315.89 55.0985L1309.33 48.2232M1315.89 55.0985L1320.12 59.5294L1320.98 60.4266L1322.71 62.2375M1315.89 55.0985H1366.73M1159.62 48.2232L1156 41.5981M1205 41.5981H1254M1205 41.5981H1156M1205 41.5981L1200.65 35.2065M1254 41.5981L1251.37 38.3734L1250.71 37.5766L1248.78 35.2065M1254 41.5981H1303.01M1309.33 48.2232L1303.01 41.5981M1309.33 48.2232H1359.24M1196.44 29.0403H1243.73M1196.44 29.0403L1193.89 25.2935L1192.38 23.0842M1196.44 29.0403H1149.15M1196.44 29.0403L1200.65 35.2065M1243.73 29.0403L1240.06 24.5543L1239.46 23.8165L1238.86 23.0842M1243.73 29.0403L1246.23 32.0959L1248.78 35.2065M1243.73 29.0403H1291.02M1192.38 23.0842H1238.86M1192.38 23.0842L1190.4 20.1824L1189.43 18.7508L1188.94 18.0391L1188.46 17.3301M1192.38 23.0842H1145.91M1149.15 29.0403L1146.71 24.5543L1145.91 23.0842M1149.15 29.0403L1152.52 35.2065M1200.65 35.2065H1248.78M1200.65 35.2065H1152.52M1238.86 23.0842H1285.33M1238.86 23.0842L1234.15 17.3301M1248.78 35.2065H1296.9M1291.02 29.0403L1286.74 24.5543L1285.33 23.0842M1291.02 29.0403L1296.16 34.4233L1296.9 35.2065M1291.02 29.0403H1338.31M1188.46 17.3301H1234.15M1188.46 17.3301H1142.77M1145.91 23.0842L1144.32 20.1824L1143.15 18.0391L1142.77 17.3301M1285.33 23.0842H1331.81M1285.33 23.0842L1279.84 17.3301M1234.15 17.3301H1279.84M1888.57 438.878H1785.39M1888.57 438.878L1854.47 411.093M1888.57 438.878H1919.49M1888.57 438.878L1919.49 464.067M1854.47 411.093L1822.79 385.276M1854.47 411.093L1755.09 411.094M1854.47 411.093L1919.49 411.094M1919.49 438.878V411.094M1919.49 438.878V464.067M1919.49 464.067V468.866V501.331M1793.26 361.224H1885.85M1793.26 361.224L1765.7 338.764M1793.26 361.224H1700.69M1793.26 361.224L1822.79 385.275M1885.85 361.224L1855.22 338.764M1885.85 361.224L1918.66 385.275M1885.85 361.224H1919.49M1765.7 338.764H1855.22M1765.7 338.764H1676.18M1765.7 338.764L1739.9 317.743M1855.22 338.764L1826.57 317.743M1855.22 338.764H1919.49M1919.49 361.224V338.764M1919.49 361.224V385.275V385.885V411.094M1676.18 338.764L1653.25 317.744M1676.18 338.764L1700.69 361.226M1919.49 338.764V321.92V317.744H1913.22M1692.97 279.496H1774.41M1692.97 279.496L1671.56 262.049M1692.97 279.496H1611.52M1692.97 279.496L1715.71 298.027M1774.41 279.496L1750.62 262.049M1774.41 279.496L1799.68 298.027M1774.41 279.496H1855.86M1671.56 262.049H1750.62M1671.56 262.049H1592.49M1671.56 262.049L1651.36 245.592M1750.62 262.049L1728.17 245.592M1750.62 262.049H1829.68M1855.86 279.496L1829.68 262.049M1855.86 279.496L1883.64 298.027M1855.86 279.496H1919.49M1592.49 262.049L1574.54 245.592M1592.49 262.049L1611.52 279.498M1651.36 245.592H1728.17M1651.36 245.592H1574.54M1651.36 245.592L1632.28 230.044H1557.58M1728.17 245.592H1805M1829.68 262.049L1805 245.592M1829.68 262.049H1908.74M1614.22 215.331H1686.91M1614.22 215.331L1597.1 201.388M1614.22 215.331H1541.53M1614.22 215.331L1632.28 230.046H1706.97M1686.91 215.331L1667.9 201.386M1686.91 215.331L1706.97 230.044M1686.91 215.331L1759.6 215.329M1541.53 215.331L1526.32 201.386M1541.53 215.331L1557.58 230.044M1667.9 201.386H1597.1M1667.9 201.386L1649.86 188.153M1667.9 201.386H1738.69M1759.6 215.329L1738.69 201.386M1759.6 215.329L1781.68 230.046M1759.6 215.329H1832.3M1597.1 201.386H1526.32M1597.1 201.386L1580.87 188.153M1526.32 201.386L1511.89 188.153M1580.87 188.153H1649.86M1580.87 188.153H1511.89M1580.87 188.153L1565.43 175.578M1649.86 188.153L1632.71 175.58L1616.39 163.613M1649.86 188.153H1718.83M1738.69 201.386L1718.83 188.153M1738.69 201.386H1809.47M1550.75 163.614H1616.39M1550.75 163.614L1536.76 152.214M1550.75 163.614H1485.12M1550.75 163.614L1565.43 175.578M1565.43 175.578H1632.71H1699.98M1565.43 175.578H1498.17M1616.39 163.613L1600.84 152.216M1616.39 163.613H1682.03M1600.84 152.216H1536.76M1600.84 152.216L1586.03 141.344M1600.84 152.216H1664.93M1682.03 163.613L1664.93 152.216M1682.03 163.613H1747.67M1536.76 152.216H1472.67M1536.76 152.216L1523.42 141.344M1472.67 152.216L1460.82 141.344M1472.67 152.216L1485.12 163.613M1523.42 141.344H1586.03M1523.42 141.344H1460.82M1523.42 141.344L1510.68 130.965M1586.03 141.344L1571.87 130.964L1558.35 121.044M1586.03 141.344H1648.62M1664.93 152.216L1648.62 141.344M1664.93 152.216L1729.01 152.217M1498.51 121.044H1558.35M1498.51 121.044L1486.85 111.554M1498.51 121.044H1438.67M1498.51 121.044L1510.68 130.964M1558.35 121.044L1545.4 111.554H1486.85M1558.35 121.044H1618.17M1486.85 111.554H1428.32M1486.85 111.554L1475.7 102.464M1438.67 121.044L1428.32 111.554M1438.67 121.044L1449.49 130.964M1618.17 121.044L1603.94 111.552M1618.17 121.044L1633.05 130.964M1618.17 121.044H1678.01M1428.32 111.554H1369.78M1475.7 102.464L1465.01 93.7516M1533.01 102.464L1545.4 111.552H1603.94M1603.94 111.552L1590.31 102.464H1647.6H1704.9M1454.75 85.3926H1509.73M1454.75 85.3926L1444.9 77.3674M1454.75 85.3926H1399.78M1454.75 85.3926L1465.01 93.7516M1509.73 85.3926L1498.79 77.3674M1509.73 85.3926L1521.12 93.7516M1509.73 85.3926H1564.69M1444.9 77.3674H1498.79M1444.9 77.3674H1391.03M1444.9 77.3674L1435.44 69.6541M1399.78 85.3926L1391.03 77.3674M1399.78 85.3926L1408.9 93.7516M1465.01 93.7516H1521.12M1498.79 77.3674L1488.26 69.6541M1498.79 77.3674H1552.66M1521.12 93.7516L1533.01 102.462M1521.12 93.7516H1577.23M1564.69 85.3926L1552.66 77.3674M1564.69 85.3926L1577.23 93.7516M1564.69 85.3926H1619.67M1391.03 77.3674L1382.61 69.6541M1435.44 69.6541H1488.26M1435.44 69.6541H1382.61M1435.44 69.6541L1426.33 62.2375M1488.26 69.6541L1479.39 63.1484L1478.15 62.2375M1488.26 69.6541H1541.1M1552.66 77.3674L1541.1 69.6541M1552.66 77.3674H1606.54M1417.57 55.0985H1468.42M1417.57 55.0985L1409.13 48.2232M1417.57 55.0985H1366.73M1417.57 55.0985L1419.73 56.8571L1420.83 57.7447L1426.33 62.2375M1468.42 55.0985L1459.04 48.2232M1468.42 55.0985L1478.15 62.2375M1468.42 55.0985H1519.26M1409.13 48.2232H1459.04M1409.13 48.2232H1359.24M1409.13 48.2232L1401.01 41.5981M1366.73 55.0985L1359.24 48.2232M1366.73 55.0985L1374.53 62.2375M1426.33 62.2375H1478.15M1426.33 62.2375H1374.53M1459.04 48.2232L1450.01 41.5981M1459.04 48.2232H1508.95M1478.15 62.2375H1529.97M1519.26 55.0985L1508.95 48.2232M1519.26 55.0985L1529.97 62.2375M1519.26 55.0985H1570.11M1359.24 48.2232L1352.01 41.5981M1401.01 41.5981H1450.01M1401.01 41.5981H1352.01M1401.01 41.5981L1393.16 35.2065M1450.01 41.5981L1441.29 35.2065M1450.01 41.5981H1499.01M1508.95 48.2232L1499.01 41.5981M1508.95 48.2232H1558.85M1385.6 29.0403H1432.89M1385.6 29.0403L1378.29 23.0842M1385.6 29.0403H1338.31M1385.6 29.0403L1393.16 35.2065M1432.89 29.0403L1426.77 24.5543L1425.76 23.8165L1424.76 23.0842M1432.89 29.0403L1441.29 35.2065M1432.89 29.0403H1480.16M1378.29 23.0842H1424.76M1378.29 23.0842L1372.09 18.0391L1371.22 17.3301M1378.29 23.0842H1331.81M1338.31 29.0403L1331.81 23.0842M1338.31 29.0403L1345.03 35.2065M1393.16 35.2065H1441.29M1393.16 35.2065H1345.03M1424.76 23.0842H1471.24M1424.76 23.0842L1416.92 17.3301M1441.29 35.2065H1489.42M1480.16 29.0403L1471.24 23.0842M1480.16 29.0403L1489.42 35.2065M1480.16 29.0403H1527.45M1371.22 17.3301H1416.92M1371.22 17.3301H1325.53M1331.81 23.0842L1327.08 18.7508L1325.53 17.3301M1471.24 23.0842H1517.71M1471.24 23.0842L1462.61 17.3301M1416.92 17.3301H1462.61M1904.99 215.329L1880.27 201.386M1904.99 215.329H1832.3M1904.99 215.329L1919.49 223.508M1904.99 215.329L1919.49 215.331M1832.3 215.329L1809.47 201.386M1832.3 215.329L1856.37 230.046M1919.49 223.508V215.331M1919.49 223.508V230.044M1919.49 215.331V201.386V188.153M1880.27 201.388H1809.47M1880.27 201.388L1856.8 188.154M1880.27 201.388H1919.49M1856.8 188.154L1834.52 175.58M1856.8 188.154L1787.83 188.153M1856.8 188.154L1919.49 188.153M1813.31 163.615H1878.94M1813.31 163.615L1793.11 152.216M1813.31 163.615H1747.67M1813.31 163.615L1834.52 175.58M1793.11 152.216L1857.19 152.217M1793.11 152.216L1729.01 152.217M1793.11 152.216L1773.83 141.344M1834.52 175.58H1767.24L1747.67 163.613M1878.94 163.614L1857.19 152.217M1878.94 163.614L1901.79 175.581M1878.94 163.614H1919.49M1857.19 152.217L1836.43 141.344M1857.19 152.217L1919.49 152.216M1729.01 152.217L1711.22 141.344M1729.01 152.217L1747.67 163.613M1773.83 141.344H1836.43M1773.83 141.344H1711.22M1773.83 141.344L1755.43 130.965M1836.43 141.344L1816.61 130.964L1797.68 121.044M1836.43 141.344H1899.04M1919.49 152.216V163.613M1919.49 152.216V151.342M1737.85 121.044H1797.68M1737.85 121.044L1721.02 111.554M1737.85 121.044H1678.01M1737.85 121.044L1755.43 130.964M1797.68 121.044L1779.56 111.554H1721.02M1797.68 121.044H1857.51M1721.02 111.554H1662.47M1721.02 111.554L1704.9 102.464M1678.01 121.044L1662.47 111.554M1678.01 121.044L1694.25 130.964M1857.51 121.044L1838.1 111.552M1857.51 121.044L1877.81 130.964M1857.51 121.044H1917.34M1662.47 111.554H1603.94M1704.9 102.464H1762.21M1704.9 102.464L1689.46 93.7516M1762.21 102.464L1779.56 111.552H1838.1M1762.21 102.464H1819.51M1838.1 111.552L1819.51 102.464M1674.64 85.3926H1729.62M1674.64 85.3926L1660.42 77.3674M1674.64 85.3926H1619.67M1674.64 85.3926L1689.46 93.7516M1729.62 85.3926L1714.29 77.3674M1729.62 85.3926L1745.58 93.7516M1729.62 85.3926H1784.59M1660.42 77.3674H1714.29M1660.42 77.3674H1606.54M1660.42 77.3674L1646.75 69.6541M1619.67 85.3926L1606.54 77.3674M1619.67 85.3926L1633.34 93.7516M1689.46 93.7516H1745.58M1689.46 93.7516H1633.34M1714.29 77.3674L1699.57 69.6541M1714.29 77.3674H1768.18M1745.58 93.7516L1762.21 102.462M1745.58 93.7516H1801.69M1784.59 85.3926L1768.18 77.3674M1784.59 85.3926L1801.69 93.7516M1784.59 85.3926H1839.57M1606.54 77.3674L1593.92 69.6541M1646.75 69.6541H1699.57M1646.75 69.6541H1593.92M1646.75 69.6541L1633.59 62.2375M1699.57 69.6541L1685.41 62.2375M1699.57 69.6541H1752.4M1768.18 77.3674L1752.4 69.6541M1768.18 77.3674H1822.05M1620.94 55.0985H1671.78M1620.94 55.0985L1608.76 48.2232M1620.94 55.0985H1570.11M1620.94 55.0985L1633.59 62.2375M1671.78 55.0985L1658.65 48.2232M1671.78 55.0985L1685.41 62.2375M1671.78 55.0985H1722.63M1608.76 48.2232H1658.65M1608.76 48.2232H1558.85M1608.76 48.2232L1597.01 41.5981M1570.11 55.0985L1560.23 49.0682L1558.85 48.2232M1570.11 55.0985L1581.79 62.2375M1633.59 62.2375H1685.41M1633.59 62.2375H1581.79M1658.65 48.2232L1646.01 41.5981M1658.65 48.2232H1708.56M1685.41 62.2375H1737.23M1722.63 55.0985L1708.56 48.2232M1722.63 55.0985L1737.23 62.2375M1722.63 55.0985H1773.47M1558.85 48.2232L1548.01 41.5981M1597.01 41.5981H1646.01M1597.01 41.5981H1548.01M1597.01 41.5981L1585.69 35.2065M1646.01 41.5981L1633.8 35.2065M1646.01 41.5981H1695.01M1708.56 48.2232L1695.01 41.5981M1708.56 48.2232H1758.47M1574.74 29.0403H1622.03M1574.74 29.0403L1564.19 23.0842M1574.74 29.0403H1527.45M1574.74 29.0403L1585.69 35.2065M1622.03 29.0403L1610.67 23.0842M1622.03 29.0403L1633.8 35.2065M1622.03 29.0403H1669.32M1564.19 23.0842H1610.67M1564.19 23.0842L1553.99 17.3301M1564.19 23.0842H1517.71M1527.45 29.0403L1517.71 23.0842M1527.45 29.0403L1537.55 35.2065M1585.69 35.2065H1633.8M1585.69 35.2065H1537.55M1610.67 23.0842H1657.14M1610.67 23.0842L1599.68 17.3301M1633.8 35.2065H1681.94M1669.32 29.0403L1657.14 23.0842M1669.32 29.0403L1681.94 35.2065M1669.32 29.0403H1716.61M1553.99 17.3301H1599.68M1553.99 17.3301H1508.29M1517.71 23.0842L1508.29 17.3301M1657.14 23.0842H1703.62M1657.14 23.0842L1645.37 17.3301M1599.68 17.3301H1645.37M1894.53 85.3926L1875.92 77.3674M1894.53 85.3926H1839.57M1894.53 85.3926L1913.92 93.7516M1894.53 85.3926H1919.49M1875.92 77.3674H1822.05M1875.92 77.3674L1858.05 69.6541M1875.92 77.3674H1919.49M1839.57 85.3926L1822.05 77.3674M1839.57 85.3926L1857.8 93.7516M1913.92 93.7516H1857.8M1913.92 93.7516H1919.49M1913.92 93.7516L1919.49 96.1547M1919.49 85.3926V77.3674M1919.49 85.3926V93.7516M1822.05 77.3674L1805.22 69.6541M1858.05 69.6541H1910.87M1858.05 69.6541H1805.22M1858.05 69.6541L1840.86 62.2375M1919.49 77.3674V73.1603M1824.32 55.0985H1875.15M1824.32 55.0985L1808.37 48.2232M1824.32 55.0985H1773.47M1824.32 55.0985L1840.86 62.2375M1875.15 55.0985L1858.28 48.2232M1875.15 55.0985L1892.67 62.2375M1875.15 55.0985H1919.49M1808.37 48.2232H1858.28M1808.37 48.2232H1758.47M1808.37 48.2232L1793.01 41.5981M1773.47 55.0985L1758.47 48.2232M1773.47 55.0985L1789.04 62.2375M1840.86 62.2375H1892.67M1840.86 62.2375H1789.04M1858.28 48.2232L1842.01 41.5981M1858.28 48.2232H1908.17M1892.67 62.2375L1910.87 69.6541M1892.67 62.2375H1919.49M1919.49 55.0985H1919.64M1919.49 55.0985V52.5855M1919.49 55.0985V62.2375M1758.47 48.2232L1744.01 41.5981M1793.01 41.5981H1842.01M1793.01 41.5981H1744.01M1793.01 41.5981L1778.2 35.2065M1842.01 41.5981L1826.33 35.2065M1842.01 41.5981H1891.02M1908.17 48.2232L1891.02 41.5981M1908.17 48.2232L1919.49 52.5855M1908.17 48.2232H1919.49M1763.9 29.0403H1811.19M1763.9 29.0403L1750.1 23.0842M1763.9 29.0403H1716.61M1763.9 29.0403L1778.2 35.2065M1811.19 29.0403L1796.57 23.0842M1811.19 29.0403L1826.33 35.2065M1811.19 29.0403H1858.48M1750.1 23.0842H1796.57M1750.1 23.0842L1736.76 17.3301M1750.1 23.0842H1703.62M1716.61 29.0403L1703.62 23.0842M1716.61 29.0403L1730.07 35.2065M1778.2 35.2065H1826.33M1778.2 35.2065H1730.07M1796.57 23.0842H1843.04M1796.57 23.0842L1782.45 17.3301M1826.33 35.2065H1874.46M1858.48 29.0403L1843.04 23.0842M1858.48 29.0403L1874.46 35.2065M1858.48 29.0403H1905.76M1736.76 17.3301H1782.45M1736.76 17.3301H1691.06M1703.62 23.0842L1691.06 17.3301M1843.04 23.0842H1889.53M1843.04 23.0842L1828.13 17.3301M1782.45 17.3301H1828.13M1874.46 35.2065L1891.02 41.5981M1874.46 35.2065H1919.49M1905.76 29.0403L1889.53 23.0842M1905.76 29.0403L1919.49 34.0688M1905.76 29.0403H1919.49M1889.53 23.0842L1873.83 17.3301M1889.53 23.0842H1919.49M1828.13 17.3301H1873.83M1828.13 17.3301L1813.73 11.767M1891.02 41.5981H1919.49M1919.49 35.2065V34.0688M1919.49 35.2065V41.5981M1919.49 34.0688V29.0403M1919.49 29.0403V23.0842M1873.83 17.3301L1858.66 11.767M1873.83 17.3301H1919.49M1919.49 23.0842V17.3301M1813.73 11.767H1858.66M1919.49 17.3301H1919.53L1919.49 17.3163M1919.49 17.3301V17.3163M1919.49 52.5855V48.2232M1919.49 48.2232V41.5981M1744.01 41.5981L1730.07 35.2065M1744.01 41.5981H1695.01M1730.07 35.2065H1681.94M1910.87 69.6541L1919.49 73.1603M1910.87 69.6541H1919.49M1919.49 62.2375V69.6541M1919.49 73.1603V69.6541M1805.22 69.6541L1789.04 62.2375M1805.22 69.6541H1752.4M1789.04 62.2375H1737.23M1681.94 35.2065L1695.01 41.5981M1645.37 17.3301H1691.06M1645.37 17.3301L1633.99 11.767M1691.06 17.3301L1678.93 11.767M1633.99 11.767H1678.93M1548.01 41.5981L1537.55 35.2065M1548.01 41.5981H1499.01M1537.55 35.2065H1489.42M1737.23 62.2375L1752.4 69.6541M1593.92 69.6541L1581.79 62.2375M1593.92 69.6541H1541.1M1581.79 62.2375H1529.97M1801.69 93.7516L1819.51 102.462M1801.69 93.7516H1857.8M1857.8 93.7516L1876.81 102.462L1896.64 111.552M1919.49 93.7516V96.1547M1919.49 96.1547V102.464M1819.51 102.464H1876.81H1919.49M1838.1 111.554H1896.64M1896.64 111.554L1917.34 121.044M1896.64 111.554H1919.49M1919.49 102.464H1919.79M1919.49 102.464V111.552V121.044M1633.34 93.7516H1577.23M1633.34 93.7516L1647.6 102.462L1662.47 111.552M1917.34 121.044L1919.49 122.023M1917.34 121.044H1919.49M1919.49 122.023L1920 122.26M1919.49 122.023V121.044M1919.49 122.023V130.965M1877.81 130.965H1816.61H1755.43M1877.81 130.965L1899.04 141.344M1877.81 130.965H1919.49M1755.43 130.965H1694.25M1899.04 141.344H1919.49M1899.04 141.344L1919.49 151.342M1919.49 130.965V141.344M1919.49 141.344V151.342M1711.22 141.344L1694.25 130.965M1711.22 141.344H1648.62M1694.25 130.965H1633.05M1901.79 175.578H1834.52M1901.79 175.578L1919.49 184.847M1901.79 175.578H1919.49M1919.49 184.847L1919.68 184.95M1919.49 184.847V175.58V163.613M1919.49 184.847V188.153M1919.97 163.613H1919.49M1489.42 35.2065L1499.01 41.5981M1462.61 17.3301H1508.29M1462.61 17.3301L1454.26 11.767M1508.29 17.3301L1507.15 16.624L1504.84 15.2225L1499.19 11.767M1454.26 11.767H1499.19M1352.01 41.5981L1345.03 35.2065M1352.01 41.5981H1303.01M1345.03 35.2065H1296.9M1529.97 62.2375L1541.1 69.6541M1382.61 69.6541L1374.53 62.2375M1382.61 69.6541H1329.79M1374.53 62.2375H1322.71M1577.23 93.7516L1590.31 102.462H1533.01M1533.01 102.462H1475.7M1465.01 93.7502H1408.9M1633.05 130.965H1571.87H1510.68M1633.05 130.965L1648.62 141.344M1510.68 130.965H1449.49M1460.82 141.344L1449.49 130.965M1460.82 141.344H1398.22M1449.49 130.965H1388.31M1682.03 163.614L1699.98 175.578M1699.98 175.578L1718.83 188.153M1699.98 175.578H1767.24L1787.83 188.153M1718.83 188.153H1787.83M1787.83 188.153L1809.47 201.386M1511.89 188.153L1498.17 175.578M1511.89 188.153H1442.9M1498.17 175.578H1430.89M1781.68 230.046H1706.97M1781.68 230.046L1805 245.593M1781.68 230.046H1856.37M1856.37 230.046L1881.81 245.592M1706.97 230.046L1728.17 245.593M1881.81 245.592H1805M1881.81 245.592L1908.74 262.049M1881.81 245.592H1919.49M1856.37 230.044H1919.49M1919.49 230.044V245.592M1908.74 262.049H1919.49M1908.74 262.049L1919.49 268.613M1574.54 245.592L1557.58 230.044M1574.54 245.592H1497.72M1919.49 245.592V262.049M1557.58 230.044H1482.88M1919.49 279.496V268.613M1919.49 279.496V298.027V317.743M1919.49 262.049V268.613M1799.68 298.028L1826.57 317.744M1799.68 298.028H1883.64M1799.68 298.028H1715.71M1826.57 317.744H1913.22M1826.57 317.744H1739.9M1883.64 298.028L1913.22 317.744M1883.64 298.028H1919.49M1715.71 298.028L1739.9 317.744M1715.71 298.028H1631.74M1913.22 317.744L1919.49 321.921M1739.9 317.744H1653.25M1653.25 317.744L1631.74 298.028M1653.25 317.744H1566.59M1631.74 298.028L1611.52 279.498M1631.74 298.028H1547.77M1918.66 385.276H1822.79M1918.66 385.276H1919.49M1918.66 385.276L1919.49 385.887M1822.79 385.276H1726.92M1726.92 385.276L1700.69 361.226M1726.92 385.276H1631.05M1726.92 385.276L1755.09 411.094M1296.9 35.2065L1298.41 36.7825L1303.01 41.5981M1279.84 17.3301H1325.53M1279.84 17.3301L1274.53 11.767M1325.53 17.3301L1323.23 15.2225L1319.46 11.767M1274.53 11.767H1319.46M1156 41.5981L1155.12 39.9782L1152.52 35.2065M1156 41.5981H1107M1152.52 35.2065H1104.39M1322.71 62.2375L1329.79 69.6541M1171.31 69.6541L1170.79 68.7115L1170.28 67.7731L1167.26 62.2375M1171.31 69.6541H1118.48M1167.26 62.2375H1115.44M1352.78 93.7516L1361.11 102.462H1303.8H1246.5M1352.78 93.7516H1408.9M1408.9 93.7516L1418.4 102.462L1428.32 111.552M1240.56 93.7502H1184.45M1388.31 130.965L1398.22 141.344M1210.41 141.344L1204.75 130.965M1210.41 141.344H1147.81M1204.75 130.965H1143.56M1419.47 163.614L1430.89 175.578M1430.89 175.578L1442.9 188.153M1485.12 163.613L1498.17 175.58M1235.94 188.153L1229.08 175.578M1235.94 188.153H1166.96M1229.08 175.578H1161.81M1482.88 230.044L1497.72 245.592M1267.27 245.592L1258.79 230.044M1267.27 245.592H1190.45M1333.49 230.046H1258.79M1547.77 298.028L1530.09 279.498H1611.52M1547.77 298.028H1463.81M1547.77 298.028L1566.59 317.744M1463.81 298.028L1479.94 317.744M1463.81 298.028H1379.85M1479.94 317.744H1566.59M1479.94 317.744H1393.28M1379.85 298.028L1393.28 317.744M1379.85 298.028H1295.87M1393.28 317.744H1306.63M1608.1 361.226L1631.05 385.276M1608.1 361.226H1700.69M1306.63 317.744L1295.87 298.028M1306.63 317.744H1219.97M1295.87 298.028L1285.76 279.498M1295.87 298.028H1211.9M1631.05 385.276H1535.2M1631.05 385.276L1655.7 411.094M1535.2 385.276H1439.33M1439.33 385.276H1343.46M1655.7 411.094L1682.23 438.88M1655.7 411.094H1755.09M1755.09 411.094L1785.39 438.88M1682.23 438.88L1710.84 468.867M1682.23 438.88H1785.39M1710.84 468.867L1741.83 501.331M1710.84 468.867H1818.11M1785.39 438.88L1818.11 468.867M1357.54 411.094L1343.46 385.276M1357.54 411.094H1258.16M1357.54 411.094L1372.69 438.88M1343.46 385.276L1330.34 361.226M1343.46 385.276H1247.6M1741.83 501.331L1775.49 536.589M1741.83 501.331H1853.52M1818.11 468.867L1853.52 501.331M1818.11 468.867H1919.49M1853.52 501.331L1891.99 536.589M1853.52 501.331H1919.49M1775.49 536.589H1891.99M1891.99 536.589H1919.49M1891.99 536.589L1919.49 561.795M1919.49 501.331V536.589M1852.31 617.069L1896.41 663.278M1852.31 617.069H1919.49M1919.49 575.019V561.794V536.589M1919.49 575.019V617.068V663.278M1425.99 536.589L1406.76 501.331M1425.99 536.589H1309.5M1406.76 501.331L1389.05 468.867M1406.76 501.331H1295.07M1896.41 663.278L1919.49 687.445M1896.41 663.278H1919.49M1804.38 714.291H1663.64M1804.38 714.291H1919.49M1919.49 687.445V663.278M1919.49 687.445V714.291M1663.64 714.291H1522.92M1919.49 714.291V714.471H0.516214V714.291M1522.92 714.291L1495.1 663.278M1522.92 714.291H1382.19M1495.1 663.278L1469.89 617.069M1495.1 663.278H1361.32M1104.39 35.2065L1104.71 35.9938L1105.03 36.7825L1105.36 37.5766L1105.68 38.3734L1107 41.5981M1097.07 17.3301L1096.79 16.624L1096.21 15.2225L1095.64 13.8307L1095.36 13.1396L1094.8 11.767M1097.07 17.3301H1142.77M1142.77 17.3301L1140.11 12.4512L1139.73 11.767M1094.8 11.767H1139.73M960 41.5981V35.2065M960 41.5981H910.999M960 35.2065H911.871M1115.44 62.2375L1118.48 69.6541M960 69.6541V62.2375M960 69.6541H907.174M960 62.2375H908.185M1184.45 93.7516H1128.34M1128.34 93.7516L1131.9 102.462H1074.6H1017.3M1016.11 93.7502H960M1143.56 130.965H1082.37H1021.19M1143.56 130.965L1147.81 141.344M1139.5 121.045H1199.34M1021.19 130.965H960M960 141.344V130.965M960 141.344H897.397M960 130.965H898.813M1156.92 163.614L1161.81 175.578M1161.81 175.578L1166.96 188.153M1222.56 163.613L1229.08 175.58M960 188.153V175.578M960 188.153H891.016M960 175.578H892.729M1258.79 230.044H1184.09M1184.09 230.044L1190.45 245.592M960 245.592V230.044M960 245.592H883.183M1034.7 230.046H960M1211.9 298.028L1204.32 279.498H1285.76M1211.9 298.028H1127.94M1211.9 298.028L1219.97 317.744M1127.94 298.028L1133.31 317.744M1127.94 298.028H1043.97M1133.31 317.744H1219.97M1133.31 317.744H1046.66M1043.97 298.028L1046.66 317.744M1043.97 298.028H960M1046.66 317.744H960M1237.76 361.226L1247.6 385.276M1237.76 361.226H1330.34M960 317.744V298.028M960 317.744H873.343M960 298.028V279.498M960 298.028H876.032M1247.6 385.276H1151.73M1247.6 385.276L1258.16 411.094M1151.73 385.276H1055.87M1055.87 385.276H960M1258.16 411.094L1269.52 438.88M1269.52 438.88L1281.79 468.867M1269.52 438.88H1372.69M1281.79 468.867L1295.07 501.331M1281.79 468.867H1389.05M1372.69 438.88L1389.05 468.867M960 411.094V385.276M960 411.094H860.614M960 385.276V361.226M960 385.276H864.134M1295.07 501.331L1309.5 536.589M1342.42 617.069L1361.32 663.278M1342.42 617.069H1469.89M960 536.589V501.331M960 536.589L843.502 536.588M960 501.331L848.309 501.329M1361.32 663.278L1382.19 714.291M1241.46 714.291H1382.19M1241.46 714.291H1100.73M1100.73 714.291H960M960 714.291V663.278M960 714.291L819.27 714.289M960 663.278L826.225 663.276M911.871 35.2065L911.763 35.9938L911.656 36.7825L911.547 37.5766L910.999 41.5981M914.308 17.3301H960M914.308 17.3301L914.596 15.2225L914.692 14.5245L915.067 11.767M960 17.3301V11.767M915.067 11.767H960M763.998 41.5981L764.88 39.9782L767.482 35.2065M763.998 41.5981H714.997M767.482 35.2065H719.353M908.185 62.2375L907.174 69.6541M748.693 69.6541L752.74 62.2375M748.693 69.6541H695.867M752.74 62.2375H700.925M960 93.7516H903.887M960 93.7516V102.462M903.887 93.7516L903.596 95.895L903.002 100.25L902.7 102.462H845.399H788.098M960 102.461V111.551M898.813 130.965L897.397 141.344M709.591 141.344L715.251 130.965M709.591 141.344H646.989M715.251 130.965H654.066M894.362 163.614L892.729 175.578M892.729 175.578L891.016 188.153M960 163.613V175.58M684.059 188.153L690.918 175.578M684.059 188.153H615.074M690.918 175.578H623.647M960 230.044H885.302M885.302 230.044L883.183 245.592M652.729 245.592L661.209 230.044M652.729 245.592H575.912M735.908 230.046H661.209M876.032 298.028L878.559 279.498H960M876.032 298.028H792.065M876.032 298.028L873.343 317.744M792.065 298.028L786.688 317.744M792.065 298.028H708.097M786.688 317.744H873.343M786.688 317.744H700.031M708.097 298.028L700.031 317.744M708.097 298.028H624.129M700.031 317.744H613.374M867.415 361.226L864.134 385.276M867.415 361.226H960M613.374 317.744L624.129 298.028M613.374 317.744H526.719M624.129 298.028L634.236 279.498M624.129 298.028H540.161M864.134 385.276H768.27M864.134 385.276L860.614 411.094M860.614 411.094L856.826 438.88M856.826 438.88L852.737 468.867M856.826 438.88H960M562.459 411.094L576.54 385.276M562.459 411.094H463.073M562.459 411.094L547.303 438.88M848.309 501.329L843.502 536.588M494.008 536.588L513.239 501.329M494.008 536.588L377.509 536.589M513.239 501.329L530.945 468.867M513.239 501.329L401.547 501.331M826.225 663.276L819.27 714.289M678.541 714.289H819.27M678.541 714.289H537.811M537.811 714.289H397.08M397.08 714.289L424.905 663.276M397.08 714.289L256.352 714.291M424.905 663.276L450.11 617.069M424.905 663.276L291.133 663.278M719.353 35.2065L714.997 41.5981M731.542 17.3301H777.234M731.542 17.3301L734.399 13.1396L735.335 11.767M777.234 17.3301L777.618 16.624L778.384 15.2225L780.268 11.767M735.335 11.767H780.268M567.995 41.5981L574.965 35.2065M567.995 41.5981H518.994M574.965 35.2065H526.836M700.925 62.2375L695.867 69.6541M537.388 69.6541L544.485 63.1484L545.479 62.2375M537.388 69.6541H484.562M545.479 62.2375H493.663M679.438 93.7516L673.497 102.462H616.197H558.896M667.3 111.554H725.84M567.212 93.7502H511.101M654.066 130.965H592.878H531.691M654.066 130.965L646.989 141.344M660.829 121.045H720.662M531.691 130.965H470.504M459.182 141.344L470.504 130.965M459.182 141.344H396.58M470.504 130.965H409.318M631.805 163.614L623.647 175.578M623.647 175.578L615.074 188.153M697.445 163.613L690.918 175.58M408.119 188.153L421.836 175.578M408.119 188.153H339.133M421.836 175.578H354.565M661.209 230.044H586.513M586.513 230.044L575.912 245.592M345.459 245.592L362.42 230.044M345.459 245.592H268.642M437.117 230.046H362.42M540.161 298.028L552.795 279.498H634.236M540.161 298.028H456.194M540.161 298.028L526.719 317.744M456.194 298.028L440.062 317.744M456.194 298.028H372.226M440.062 317.744H526.719M440.062 317.744H353.405M372.226 298.028L353.405 317.744M372.226 298.028H288.258M353.405 317.744H266.75M497.072 361.226L480.676 385.276M497.072 361.226H589.659M266.75 317.744L288.258 298.028M288.258 298.028H204.29M480.676 385.276H384.81M480.676 385.276L463.073 411.094M480.676 385.276H576.54M589.659 361.226L576.54 385.276M384.81 385.276H288.944M288.944 385.276H193.079M463.073 411.094L444.128 438.88M444.128 438.88L423.681 468.867M444.128 438.88H547.303M423.681 468.867L401.547 501.331M423.681 468.867H530.945M547.303 438.88L530.945 468.867M164.916 411.094L193.079 385.276M164.916 411.094H65.5302M193.079 385.276L219.316 361.226M193.079 385.276H97.2142M401.547 501.331L377.509 536.589M322.636 617.069L291.133 663.278M322.636 617.069H450.11M28.0138 536.589L66.4784 501.329H0.516214M28.0138 536.589L0.51753 536.588M28.0138 536.589L0.51753 561.794M291.133 663.278L256.352 714.291M115.62 714.291H256.352M115.62 714.291H0.516214M0.516214 714.291V687.445V663.276M0.516214 663.276V617.07V575.019V561.795V536.589V501.329M526.836 35.2065L518.994 41.5981M548.776 17.3301L549.641 16.624L555.604 11.767M548.776 17.3301H594.468M594.468 17.3301L596.767 15.2225L600.537 11.767M555.604 11.767H600.537M371.991 41.5981L382.447 35.2065M371.991 41.5981H322.989M493.663 62.2375L484.562 69.6541M326.081 69.6541L338.218 62.2375M326.081 69.6541H273.254M338.218 62.2375L349.897 55.0985M338.218 62.2375H286.401M454.987 93.7516L444.296 102.462H386.996M454.987 93.7516H511.101M511.101 93.7516L501.595 102.462L491.681 111.552M386.996 102.462H329.695M342.763 93.7502H286.65M409.318 130.965H348.131H286.944M409.318 130.965L396.58 141.344M286.944 130.965H225.757M208.773 141.344L225.757 130.965M208.773 141.344H146.17M225.757 130.965H164.57M369.25 163.614L354.565 175.578M354.565 175.578L339.133 188.153M434.888 163.613L421.836 175.58M132.177 188.153L152.753 175.58M132.177 188.153L63.1914 188.154M362.42 230.044H287.723M287.723 230.044L268.642 245.592M38.188 245.592L63.6313 230.046M38.188 245.592H0.516214M204.29 298.028L227.031 279.498H308.473M204.29 298.028H120.323H36.3549M204.29 298.028L180.093 317.744M93.4361 317.744H180.093M93.4361 317.744H6.77926L36.3549 298.028M36.3549 298.028H0.516214M180.093 317.744L154.293 338.766M180.093 317.744H266.748M154.293 338.766L126.731 361.226M154.293 338.766H243.815M126.731 361.226L97.2142 385.276M126.731 361.226H219.316M0.516214 317.744H6.78058L0.516214 321.921M0.516214 317.744V321.921M0.516214 317.744V298.028M0.516214 298.028V279.498V268.616V262.049M97.2142 385.276H1.34979M97.2142 385.276L65.5302 411.094M1.34979 385.276H0.516214M1.34979 385.276L0.516214 385.887M0.516214 385.276V385.887M0.516214 385.887V411.093M65.5302 411.094L31.4298 438.878M65.5302 411.094L0.516214 411.093M31.4298 438.878H0.516214M31.4298 438.878L0.516214 464.067M0.516214 464.067V468.867V501.329M0.516214 464.067V438.88V411.093M273.988 41.5981H322.989M273.988 41.5981H224.989M334.318 35.2065L345.251 29.0403M334.318 35.2065L322.989 41.5981M334.318 35.2065H382.447M345.251 29.0403L355.808 23.0842M345.251 29.0403H392.54M355.808 23.0842L366.009 17.3301M392.54 29.0403L382.447 35.2065M366.009 17.3301H320.317M366.009 17.3301L367.259 16.624L375.87 11.767M366.009 17.3301H411.7M320.317 17.3301L330.938 11.767M411.7 17.3301H457.392L465.736 11.767M411.7 17.3301L412.854 16.624L420.803 11.767M224.989 41.5981H175.988L189.93 35.2065M189.93 35.2065H141.802M286.401 62.2375L273.254 69.6541M220.427 69.6541H273.254M273.254 69.6541L259.582 77.3674M259.582 77.3674L245.354 85.3926M259.582 77.3674H313.46M114.775 69.6541L130.958 62.2375M114.775 69.6541H61.9483M130.958 62.2375H79.1427M230.538 93.7516L215.094 102.462H157.793M230.538 93.7516H286.65M286.65 93.7516L272.394 102.462L257.521 111.552M157.793 102.462H100.493M43.1921 102.464L62.2025 93.7502H118.314M164.57 130.965L146.17 141.344M106.693 163.614L85.4835 175.578L63.1914 188.154M172.332 163.613L152.753 175.58M152.753 175.58H85.4835H18.2123M18.2123 175.58H0.516214M18.2123 175.58L0.516214 184.847M0.516214 184.847L0.321317 184.95M0.516214 184.847V188.153M63.1914 188.154L39.7327 201.388M63.1914 188.154L0.516214 188.153M39.734 201.386L15.0163 215.329M39.734 201.386H0.51753M0.51753 201.386L0.516214 215.331M0.51753 201.386L0.516214 188.153M15.015 215.331H0.516214M15.015 215.331L0.516214 223.51M0.516214 215.331V223.51M0.516214 223.51V230.046V245.593V262.049M63.6313 230.044H0.516214M93.6731 35.2065L77.9891 41.5981M93.6731 35.2065H141.802M77.9891 41.5981H126.987M77.9891 41.5981H28.987M141.802 35.2065L126.987 41.5981M183.243 17.3301H228.933M183.243 17.3301L196.139 11.767M228.933 17.3301L241.072 11.767M28.987 41.5981H0.516214M79.1427 62.2375L61.9483 69.6541M9.12198 69.6541H61.9483M9.12198 69.6541L0.516214 73.1603M9.12198 69.6541H0.516214M61.9483 69.6541L44.0705 77.3674M44.0705 77.3674L25.4657 85.3926M44.0705 77.3674H0.516214M25.4657 85.3926L6.09053 93.7516M25.4657 85.3926H0.516214M0.516214 73.1603V69.6541M6.09053 93.7516L0.516214 96.1547M6.08922 93.7502H0.516214M43.1934 102.462H0.516214H0.217284M0.516214 121.042H2.6535L0.516214 122.022M0 122.26L0.516214 122.023M0.516214 29.0403V23.0856V17.3315M46.1695 17.3301L61.3399 11.767M46.1695 17.3301H0.516214M61.3399 11.767H16.4082M420.804 11.767H375.871M241.073 11.767H196.14M16.4082 11.767L0.516214 17.3163M16.4082 11.767H0.516214M1919.49 17.3163V11.767M0.516214 152.214V163.615M0.516214 17.3315H0.476708L0.516214 17.3177M0.516214 17.3315V17.3177M0.516214 17.3177V11.7684V6.38672" stroke="url(#paint0_linear_617_64920)" stroke-opacity="0.35" stroke-width="1.012" stroke-miterlimit="10" stroke-linecap="round" stroke-linejoin="round"/>
<defs>
<linearGradient id="paint0_linear_617_64920" x1="960" y1="1.17664" x2="960" y2="501.284" gradientUnits="userSpaceOnUse">
<stop stopColor="#CED2DF" stopOpacity="0"/>
<stop offset="1" stopColor="#CED2DF"/>
</linearGradient>
</defs>
</svg>
