<svg width="1920" height="356" viewBox="0 0 1920 356" fill="none" xmlns="http://www.w3.org/2000/svg">
<path opacity="0.8" d="M1888.18 347.334L1873.26 354.804M1888.18 347.334H1843.98M1888.18 347.334L1903.59 339.616M1888.18 347.334H1919.49M1873.26 354.804L1878.69 354.802L1884.06 354.786L1889.33 354.739L1894.41 354.65L1899.29 354.504L1903.89 354.286L1908.16 353.982L1912.13 353.594L1915.54 353.058L1918.63 352.438L1919.49 352.221V347.334M1873.26 354.804H1829.78M1843.98 347.334L1829.78 354.804M1843.98 347.334H1799.78M1843.98 347.334L1847.61 345.429L1858.66 339.616M1903.59 339.616H1858.66M1903.59 339.616L1919.49 331.658M1903.59 339.616H1919.49M1919.49 347.334V339.616M1829.78 354.804H1786.28M1786.28 354.804H1742.8M1786.28 354.804L1799.78 347.334M1742.8 354.804H1699.31M1742.8 354.804L1755.59 347.334M1799.78 347.334H1755.59M1799.78 347.334L1813.73 339.616M1699.31 354.804H1655.82M1699.31 354.804L1711.38 347.334M1755.59 347.334H1711.38M1755.59 347.334L1768.8 339.616M1655.82 354.804H1612.34M1655.82 354.804L1667.19 347.334M1711.38 347.334H1667.19M1711.38 347.334L1723.87 339.616M1612.34 354.804H1568.84M1612.34 354.804L1622.99 347.334M1667.19 347.334H1622.99M1667.19 347.334L1670.08 345.429L1671.55 344.471L1678.93 339.616M1568.84 354.804H1525.36M1568.84 354.804L1578.79 347.334M1622.99 347.334H1578.79M1622.99 347.334L1625.71 345.429L1633.99 339.616M1525.36 354.804H1481.86M1525.36 354.804L1534.59 347.334M1578.79 347.334H1534.59M1578.79 347.334L1589.06 339.616M1481.86 354.804H1438.38M1481.86 354.804L1490.38 347.334M1534.59 347.334H1490.38M1534.59 347.334L1536.95 345.429L1538.13 344.471L1544.13 339.616M1438.38 354.804H1394.88M1438.38 354.804L1446.19 347.334M1490.38 347.334H1446.19M1490.38 347.334L1499.19 339.616M1394.88 354.804H1351.4M1394.88 354.804L1402 347.334M1446.19 347.334H1402M1446.19 347.334L1448.18 345.429L1449.19 344.471L1454.26 339.616M1351.4 354.804H1307.91M1351.4 354.804L1352.98 352.96L1355.36 350.164L1357.79 347.334M1402 347.334H1357.79M1402 347.334L1402.89 346.385L1403.8 345.429L1409.33 339.616M1307.91 354.804H1264.42M1307.91 354.804L1309.31 352.96L1313.59 347.334M1357.79 347.334H1313.59M1357.79 347.334L1359.42 345.429L1360.24 344.471L1364.4 339.616M1264.42 354.804H1220.93M1264.42 354.804L1269.39 347.334M1313.59 347.334H1269.39M1313.59 347.334L1319.46 339.616M1220.93 354.804H1177.44M1220.93 354.804L1222.51 352.032L1224.12 349.226L1224.65 348.28L1225.2 347.334M1269.39 347.334H1225.2M1269.39 347.334L1270.03 346.385L1270.66 345.429L1271.3 344.471L1274.53 339.616M1177.44 354.804H1133.95M1177.44 354.804L1178.76 352.032L1179.21 351.1L1179.65 350.164L1181 347.334M1225.2 347.334H1181M1225.2 347.334L1226.28 345.429L1226.83 344.471L1227.38 343.508L1229.6 339.616M1133.95 354.804H1090.47M1133.95 354.804L1136.8 347.334M1181 347.334H1136.8M1181 347.334L1181.9 345.429L1183.74 341.571L1184.2 340.596L1184.67 339.616M1090.47 354.804L1090.73 353.884L1090.99 352.96L1092.33 348.28L1092.6 347.334M1090.47 354.804H1046.98M1136.8 347.334H1092.6M1136.8 347.334L1137.16 346.385L1137.52 345.429L1137.89 344.471L1139.73 339.616M1092.6 347.334H1048.4M1092.6 347.334L1094.8 339.616M1046.98 354.804H1003.49M1046.98 354.804L1048.4 347.334M1003.49 354.804H960M1003.49 354.804L1003.75 352.032L1004.2 347.334M1048.4 347.334H1004.2M1048.4 347.334L1048.58 346.385L1048.76 345.429L1048.94 344.471L1049.87 339.616M960 354.804H916.512M960 354.804V347.334M1004.2 347.334H960M1004.2 347.334L1004.93 339.616M916.512 354.804H873.022M916.512 354.804L916.248 352.032L915.8 347.334M960 347.334H915.8M960 347.334V339.616M873.022 354.804H829.534M873.022 354.804L871.602 347.334M915.8 347.334H871.602M915.8 347.334L915.067 339.616M829.534 354.804L829.27 353.884L829.008 352.96L827.673 348.28L827.403 347.334M829.534 354.804H786.045M871.602 347.334H827.403M871.602 347.334L871.421 346.385L871.24 345.429L871.057 344.471L870.505 341.571L870.134 339.616M827.403 347.334H783.203M827.403 347.334L825.202 339.616M786.045 354.804H742.555M786.045 354.804L783.564 348.28L783.203 347.334M742.555 354.804H699.067M742.555 354.804L741.237 352.032L740.795 351.1L739.903 349.226L739.454 348.28L739.004 347.334M783.203 347.334H739.004M783.203 347.334L782.841 346.385L782.479 345.429L782.114 344.471L780.268 339.616M699.067 354.804H655.577M699.067 354.804L697.485 352.032L695.883 349.226L695.346 348.28L694.804 347.334M739.004 347.334H694.804M739.004 347.334L738.099 345.429L736.263 341.571L735.335 339.616M655.577 354.804H612.089M655.577 354.804L650.606 347.334M694.804 347.334H650.606M694.804 347.334L693.718 345.429L693.171 344.471L692.622 343.508L690.402 339.616M612.089 354.804H568.599M612.089 354.804L610.686 352.96L606.408 347.334M650.606 347.334L649.973 346.385L645.469 339.616M650.606 347.334H606.408M568.599 354.804H525.111M568.599 354.804L562.208 347.334M606.408 347.334H562.208M606.408 347.334L605.684 346.385L600.537 339.616M525.111 354.804H481.622M525.111 354.804L518.009 347.334M562.208 347.334H518.009M562.208 347.334L560.577 345.429L559.756 344.471L555.604 339.616M481.622 354.804H438.133M481.622 354.804L473.809 347.334M518.009 347.334H473.809M518.009 347.334L517.104 346.385L516.197 345.429L510.671 339.616M438.133 354.804H394.644M438.133 354.804L429.611 347.334M473.809 347.334H429.611M473.809 347.334L471.817 345.429L470.813 344.471L465.737 339.616M394.644 354.804H351.156M394.644 354.804L385.412 347.334M429.611 347.334H385.412M429.611 347.334L428.525 346.385L420.804 339.616M351.156 354.804H307.667M351.156 354.804L341.212 347.334M385.412 347.334H341.212M385.412 347.334L383.056 345.429L381.871 344.471L375.871 339.616M307.667 354.804H264.178M307.667 354.804L297.013 347.334M341.212 347.334H297.013M341.212 347.334L330.939 339.616M264.178 354.804H220.689M264.178 354.804L252.814 347.334M297.013 347.334H252.814M297.013 347.334L294.296 345.429L286.006 339.616M220.689 354.804H177.201M220.689 354.804L208.615 347.334M252.814 347.334H208.615M252.814 347.334L249.916 345.429L248.456 344.471L241.073 339.616M177.201 354.804H133.711M177.201 354.804L164.415 347.334M208.615 347.334H164.415M208.615 347.334L196.14 339.616M133.711 354.804H90.2229M133.711 354.804L120.217 347.334M164.415 347.334H120.217M164.415 347.334L151.207 339.616M90.2229 354.804H46.7332M90.2229 354.804L76.0178 347.334M120.217 347.334H76.0178M120.217 347.334L106.274 339.616M46.7332 354.804L41.3077 354.802L35.9348 354.786L30.6765 354.739L25.5829 354.65L20.7091 354.504L16.108 354.286L11.836 353.982L7.86963 353.594L4.46683 353.058L1.36823 352.438L0.516214 352.221V347.334H31.8183M46.7332 354.804L31.8183 347.334M76.0178 347.334H31.8183M76.0178 347.334L72.3937 345.429L61.3399 339.616M31.8183 347.334L16.4082 339.616M106.274 339.616L91.8624 331.638M106.274 339.616H151.207M106.274 339.616H61.3399M151.207 339.616L137.553 331.638M151.207 339.616H196.14M286.006 339.616H330.939M286.006 339.616H241.073M330.939 339.616H375.871M465.737 339.616H510.671M465.737 339.616H420.804M510.671 339.616L505.96 334.661L503.083 331.638M510.671 339.616H555.604M645.469 339.616L640.159 331.638M645.469 339.616H690.402M645.469 339.616H600.537M690.402 339.616L687.576 334.661L685.851 331.638M690.402 339.616H735.335M825.202 339.616L824.639 337.648L823.788 334.661L823.214 332.651L822.925 331.638M825.202 339.616H870.134M825.202 339.616H780.268M870.134 339.616L869.57 336.657L868.809 332.651L868.617 331.638M870.134 339.616H915.067M1004.93 339.616L1005.03 338.635L1005.12 337.648L1005.21 336.657L1005.31 335.662L1005.4 334.661L1005.69 331.638M1004.93 339.616H1049.87M1004.93 339.616H960M1049.87 339.616L1050.43 336.657L1051.19 332.651L1051.38 331.638M1049.87 339.616H1094.8M1184.67 339.616L1185.6 337.648L1188.46 331.638M1184.67 339.616H1229.6M1184.67 339.616H1139.73M1229.6 339.616L1232.42 334.661L1234.15 331.638M1229.6 339.616H1274.53M1364.4 339.616L1370.36 332.651L1371.22 331.638M1364.4 339.616H1409.33M1364.4 339.616H1319.46M1409.33 339.616L1414.04 334.661L1416.92 331.638M1409.33 339.616H1454.26M1544.13 339.616L1553.99 331.638M1544.13 339.616H1589.06M1544.13 339.616H1499.19M1589.06 339.616L1599.68 331.638M1589.06 339.616H1633.99M1723.87 339.616L1736.76 331.638M1723.87 339.616H1678.93M1723.87 339.616H1768.8M1768.8 339.616L1782.45 331.638M1768.8 339.616H1813.73M0.362139 277.474H0.516214M0.516214 277.474H44.8487M0.516214 277.474V267.234V256.6M0.516214 277.474V281.076V287.332V296.833V306V307.631V314.845M44.8487 277.474L61.7231 287.334M44.8487 277.474L27.3277 267.236M44.8487 277.474H95.6905M61.7231 287.334L77.9865 296.835M61.7231 287.334H111.626M27.3277 267.236L9.12198 256.6M27.3277 267.236H79.1427M27.3277 267.236H0.516214M95.6905 277.474L111.626 287.334M95.6905 277.474L79.1427 267.236M95.6905 277.474H146.532M61.7244 287.334H11.8189M11.8189 287.334L28.9857 296.835M11.8189 287.334H0.514897M11.8189 287.334L0.514897 281.078M111.626 287.334L126.987 296.835M111.626 287.334H161.532M61.5203 314.845H108.809M61.5203 314.845L76.9501 323.386M61.5203 314.845H14.2354M14.2354 314.845L30.4751 323.386M14.2354 314.845H0.516214M14.2354 314.845L0.516214 307.633M61.5243 314.845L45.5453 306.001M45.5453 306.001H93.6731M45.5453 306.001L28.987 296.835M45.5453 306.001H0.516214M108.812 314.845L123.429 323.386M108.812 314.845L93.6744 306.001M108.812 314.845H156.101M123.429 323.386H76.9528M123.429 323.386H169.904M123.429 323.386L137.553 331.638M156.101 314.845L169.904 323.386M156.101 314.845L141.802 306.001M156.101 314.845H203.387H250.675M76.9528 323.386L91.8624 331.638M76.9528 323.386H30.4751M91.8624 331.638H137.553M91.8624 331.638H46.1695M30.4751 323.386L46.1695 331.638M30.4751 323.386H0.516214M169.904 323.386H216.381M169.904 323.386L183.243 331.638M137.553 331.638H183.243M0.0302878 121.851H0.51753M41.0535 121.851L62.8148 138.2M41.0535 121.849L18.2123 104.695M106.693 121.855H41.0535H0.516214V104.693V91.4009M106.693 121.855L126.899 138.198M106.693 121.855L172.333 121.853M62.8148 138.198L83.5687 153.789M62.8148 138.198H126.899M62.8148 138.198H0.516214V139.449V153.787V168.672V181.495V182.9V196.509V209.545V218.593V222.041V234.027V245.536V251.572M83.5687 153.789H20.9659M83.5687 153.789L103.382 168.675L122.322 182.902M83.5687 153.789H146.17M126.899 138.198L146.17 153.789M126.899 138.198H190.985M20.9659 153.789L42.1965 168.674M20.9659 153.789H0.516214M20.9659 153.789L0.516214 139.451M42.1965 168.674H103.382H164.57M42.1965 168.674H0.51753M62.4882 182.902H122.322M62.4882 182.902L81.9003 196.511M62.4882 182.902H2.6535L23.3613 196.513L43.1921 209.547M62.4882 182.902L42.1965 168.675M122.322 182.902L140.442 196.511H81.9003M122.322 182.902H182.156M81.9003 196.511H23.3613H0.516214M81.9003 196.511L100.493 209.547M182.156 182.902L198.979 196.513M182.156 182.902L164.57 168.675M182.156 182.902H241.99M100.493 209.547H43.1921M100.493 209.547L118.313 222.041M157.793 209.547L140.442 196.513H198.979M198.979 196.513L215.094 209.547H272.394H329.695M135.409 234.029H190.382M135.409 234.029L151.825 245.538M135.409 234.029H80.4372M151.825 245.538H205.705M151.825 245.538H97.9477M151.825 245.538L167.602 256.6M80.4372 234.029H25.4657M80.4372 234.029L97.9477 245.538M80.4372 234.029L62.2012 222.041H6.09054M135.41 234.029L118.313 222.041M118.313 222.041H174.426M190.383 234.029L205.705 245.538M190.383 234.029L174.426 222.041M190.383 234.029H245.356M205.705 245.538L220.429 256.6M205.705 245.538H259.583M174.426 222.041L157.793 209.549M174.426 222.041H230.538M245.356 234.029L230.538 222.041M245.356 234.029H300.329M97.9477 245.538H44.0705M97.9477 245.538L114.775 256.6M167.602 256.6H220.427M167.602 256.6H114.775M167.602 256.6L182.773 267.236M197.374 277.474H248.216M197.374 277.474L211.436 287.334M197.374 277.474H146.532M197.374 277.474L182.773 267.236M248.216 277.474L261.34 287.334M248.216 277.474L234.588 267.236M248.216 277.474H299.056M211.436 287.334H261.34M211.436 287.334H161.532M211.436 287.334L224.99 296.835M146.532 277.474L161.532 287.334M146.532 277.474L130.958 267.236M182.773 267.236H234.588M182.773 267.236H130.958M261.34 287.334L273.99 296.835M261.34 287.334H311.244M234.588 267.236L220.427 256.6M234.588 267.236H286.401M299.056 277.474L311.244 287.334M299.056 277.474L286.401 267.236M299.056 277.474H349.897M161.532 287.334L175.989 296.835H126.987M311.244 287.334L322.989 296.835M311.244 287.334H361.15M250.675 314.845H297.963M250.675 314.845L262.857 323.386M250.675 314.845L238.06 306.001M297.963 314.845L309.332 323.386M297.963 314.845L286.189 306.001M297.963 314.845H345.252M262.857 323.386H309.332M262.857 323.386L274.627 331.638M262.857 323.386H216.381M238.06 306.001H286.189M238.06 306.001L224.989 296.835M238.06 306.001H189.93M309.332 323.386H355.81M309.332 323.386L320.319 331.638M286.189 306.001L273.988 296.835M286.189 306.001H334.318M274.627 331.638H320.317M274.627 331.638L286.005 339.616M274.627 331.638H228.933M216.381 323.386L203.386 314.845L189.93 306.001M216.381 323.386L228.933 331.638M34.1452 -161.543L64.7717 -129.333M34.1452 -161.543L1.34979 -196.035M34.1452 -161.543H126.731M34.1452 -161.543H0.516214M64.7717 -129.333L93.4361 -99.1865M64.7717 -129.333H154.294M64.7717 -129.333H0.516214M0.516214 -129.333V-161.545V-196.037M0.516214 -129.333V-105.179M64.1501 -44.3369H145.591M64.1501 -44.3369L90.3203 -19.315M64.1501 -44.3369L36.3549 -70.9115M64.1501 -44.3369H0.516214M145.591 -44.3369L169.381 -19.315M145.591 -44.3369L120.323 -70.9115L93.4361 -99.1885M145.591 -44.3369H227.031L248.444 -19.315M90.3203 -19.315H169.381M90.3203 -19.315H11.2593M90.3203 -19.315L115.006 4.28628M169.381 -19.315L191.824 4.28628M169.381 -19.315H248.444M11.2593 -19.315L38.188 4.28628M11.2593 -19.315H0.516214M11.2593 -19.315L0.516214 -28.7295M115.006 4.28628H191.824M115.006 4.28628H38.188M115.006 4.28628L138.328 26.5831H213.025M191.824 4.28628L213.025 26.5831M191.824 4.28628H268.642M248.444 -19.315L268.642 4.28628M248.444 -19.315H327.506M160.398 47.684H233.089M160.398 47.684L181.314 67.6794M160.398 47.684L87.7063 47.6859M160.398 47.684L138.328 26.5811H63.6313M233.089 47.684L252.103 67.6794M233.089 47.684L213.025 26.5831M233.089 47.684L305.78 47.6859M87.7063 47.6859L15.015 47.684M87.7063 47.6859L110.524 67.6814M87.7063 47.6859L63.6313 26.5811M213.025 26.5831H287.723M305.78 47.6859L322.892 67.6814M305.78 47.6859L287.723 26.5811M305.78 47.6859H378.472M181.314 67.6814H252.103M181.314 67.6814H110.524M181.314 67.6814L201.161 86.6601M252.103 67.6814L270.147 86.6601M252.103 67.6814H322.892M110.524 67.6814H39.734M110.524 67.6814L132.177 86.6601M201.161 86.6601H270.147M201.161 86.6601H132.177M201.161 86.6601L220.024 104.693M270.147 86.6601L287.294 104.691L303.61 121.853M270.147 86.6601H339.133M322.892 67.6814L339.133 86.6601M322.892 67.6814H393.682M237.971 121.851H303.61M237.971 121.851L255.069 138.2M237.971 121.851H172.333M237.971 121.851L220.024 104.693M220.024 104.693H287.294H354.565M220.024 104.693H152.753M303.61 121.853L319.153 138.198M303.61 121.853H369.25M319.153 138.198H255.069M319.153 138.198L333.977 153.789M319.153 138.198H383.238M369.25 121.853L383.238 138.198M369.25 121.853H434.888M255.069 138.198H190.985M255.069 138.198L271.374 153.789M190.985 138.198L208.773 153.789M190.985 138.198L172.333 121.853M271.374 153.789H333.977M271.374 153.789H208.773M271.374 153.789L286.944 168.674M333.977 153.789L348.131 168.675L361.658 182.902M333.977 153.789H396.58M383.238 138.198L396.58 153.789M383.238 138.198H447.322M301.825 182.902H361.658M301.825 182.902L316.061 196.511M301.825 182.902H241.99M301.825 182.902L286.944 168.675M361.658 182.902L374.602 196.511H316.061M361.658 182.902H421.491M316.061 196.511H257.521M316.061 196.511L329.695 209.547M241.99 182.902L257.521 196.511M241.99 182.902L225.757 168.675M421.491 182.902L433.14 196.513M421.491 182.902L409.318 168.675M421.491 182.902H481.327M257.521 196.511H198.981M329.695 209.547L342.763 222.041M386.996 209.547L374.602 196.513H433.14M433.14 196.513L444.296 209.547H501.595H558.896M355.3 234.029H410.273M355.3 234.029L367.339 245.538M355.3 234.029H300.329M355.3 234.029L342.763 222.041M410.273 234.029L411.666 235.493L421.217 245.538M410.273 234.029L398.877 222.041M410.273 234.029H465.247M367.339 245.538H421.217M367.339 245.538H313.462M367.339 245.538L378.908 256.6M300.329 234.029L313.462 245.538M300.329 234.029L286.65 222.041M342.763 222.041H398.877M421.217 245.538L431.734 256.6M421.217 245.538H475.096M398.877 222.041L386.996 209.549M398.877 222.041H454.987M465.247 234.029L475.096 245.538M465.247 234.029L454.987 222.041M465.247 234.029H520.219M313.462 245.538L326.081 256.6M378.908 256.6H431.734M378.908 256.6H326.081M378.908 256.6L390.033 267.236M431.734 256.6L440.606 265.93L441.848 267.236M431.734 256.6H484.562M475.096 245.538L484.562 256.6M475.096 245.538H528.975M400.74 277.474H451.583M400.74 277.474L411.054 287.334M400.74 277.474H349.898M400.74 277.474L390.033 267.236M451.583 277.474L460.958 287.334M451.583 277.474L447.976 273.679L441.848 267.236M451.583 277.474H502.425M411.054 287.334H460.958M411.054 287.334H361.15M411.054 287.334L420.992 296.835M390.033 267.236H441.848M390.033 267.236H338.218M460.958 287.334L469.993 296.835M460.958 287.334H510.862M441.848 267.236H493.663M502.425 277.474L510.862 287.334M502.425 277.474L500.264 274.952L493.663 267.236M502.425 277.474H553.266M361.15 287.334L371.991 296.835M361.15 287.334L359.764 286.122L349.897 277.474M420.992 296.835H469.993M420.992 296.835H371.991M420.992 296.835L430.578 306.001M469.993 296.835L478.707 306.001M469.993 296.835H518.994M510.862 287.334L518.994 296.835M510.862 287.334H560.766M439.827 314.845H487.116M439.827 314.845L448.761 323.386M439.827 314.845H392.541M439.827 314.845L430.578 306.001M487.116 314.845L493.235 321.278L494.238 322.336L495.239 323.386M487.116 314.845L478.707 306.001M487.116 314.845H534.405M448.761 323.386H495.239M448.761 323.386L457.393 331.638H503.083M448.761 323.386H402.285M430.578 306.001H478.707M430.578 306.001H382.449M495.239 323.386H541.714M495.239 323.386L503.083 331.638M478.707 306.001H526.836M534.405 314.845L541.714 323.386M534.405 314.845L526.836 306.001M534.405 314.845H581.694M402.285 323.386H355.808M402.285 323.386L392.54 314.845M402.285 323.386L411.7 331.638M541.714 323.386H588.19M541.714 323.386L548.776 331.638M503.083 331.638H548.776M67.6912 -528.451H195.164M67.6912 -528.451L107.829 -468.147M67.6912 -528.451L23.5839 -594.719M67.6912 -528.451L0.51753 -528.453M195.164 -528.451L229.568 -468.147M195.164 -528.451L157.358 -594.719M195.164 -528.451H322.636M107.829 -468.147H229.568M107.829 -468.147L144.512 -413.033M107.829 -468.147H0.51753M23.5839 -594.719H157.358M23.5839 -594.719L0.51753 -629.378M23.5839 -594.719H0.516214M229.568 -468.147L261.011 -413.033M229.568 -468.147H351.307M157.358 -594.719L115.62 -667.879M157.358 -594.719L291.133 -594.721M144.512 -413.033H261.011M144.512 -413.033L28.0138 -413.035M144.512 -413.033L178.168 -362.469M261.011 -413.033L289.858 -362.469M261.011 -413.033L377.509 -413.035M351.307 -468.147L377.509 -413.035M351.307 -468.147L322.636 -528.453M351.307 -468.147H473.046M209.155 -315.913H316.418M209.155 -315.913L237.778 -272.908M209.155 -315.913H101.892M209.155 -315.913L178.168 -362.469M316.418 -315.913L340.953 -272.908M316.418 -315.913L289.858 -362.469M316.418 -315.913H423.681M237.778 -272.908H340.953M237.778 -272.908H134.604M237.778 -272.908L264.302 -233.06M101.892 -315.913L134.604 -272.908M101.892 -315.913L66.4757 -362.469M101.892 -315.913H0.516214M178.168 -362.469H289.858M178.168 -362.469L66.477 -362.471M340.953 -272.908L363.687 -233.06M340.953 -272.908H444.128M289.858 -362.469L401.547 -362.471M134.604 -272.908H31.4298M134.604 -272.908L164.916 -233.062M264.302 -233.06H363.687M264.302 -233.06L164.916 -233.062M264.302 -233.06L288.944 -196.037M363.687 -233.06L384.81 -196.037M363.687 -233.06L463.073 -233.062M311.903 -161.543H404.487M311.903 -161.543L333.34 -129.333M311.903 -161.543H219.316M311.903 -161.543L288.944 -196.035M404.487 -161.543L422.864 -129.333M404.487 -161.543L384.81 -196.035M404.487 -161.543H497.072M333.34 -129.333H422.864M333.34 -129.333H243.816M333.34 -129.333L353.405 -99.1865M422.864 -129.333L440.062 -99.1865M422.864 -129.333H512.386M243.816 -129.333L266.75 -99.1885M243.816 -129.333L219.316 -161.545M512.386 -129.333L526.719 -99.1885M512.386 -129.333L497.072 -161.545M512.386 -129.333H601.91M389.913 -44.3369H471.355M389.913 -44.3369L406.569 -19.315M389.913 -44.3369H308.473M389.913 -44.3369L372.226 -70.9115M471.355 -44.3369L485.63 -19.315M471.355 -44.3369L456.194 -70.9115M471.355 -44.3369H552.795L564.691 -19.315M406.569 -19.315H485.63M406.569 -19.315H327.506M406.569 -19.315L422.276 4.28628M308.473 -44.3369L327.506 -19.315M308.473 -44.3369L288.258 -70.9115M485.63 -19.315L499.095 4.28628M485.63 -19.315H564.691M327.506 -19.315L345.459 4.28628M422.276 4.28628H499.095M422.276 4.28628H345.459M422.276 4.28628L437.117 26.5831M499.095 4.28628L511.816 26.5831M499.095 4.28628H575.912M564.691 -19.315L575.912 4.28628M564.691 -19.315H643.753M451.162 47.684H523.855M451.162 47.684L464.471 67.6794M451.162 47.684L378.472 47.6859M451.162 47.684L437.117 26.5831M523.855 47.684L535.261 67.6814M523.855 47.684L511.816 26.5831M523.855 47.684L596.545 47.6859M378.472 47.6859L393.682 67.6794M378.472 47.6859L362.42 26.5831M437.117 26.5831H511.816M535.261 67.6814H464.471M535.261 67.6814L546.089 86.6601M535.261 67.6814H606.051M511.816 26.5831H586.513M596.545 47.6859L606.051 67.6814M596.545 47.6859L586.513 26.5811M596.545 47.6859H669.236M464.471 67.6814H393.682M464.471 67.6814L477.103 86.6601M393.682 67.6814L408.119 86.6601M477.103 86.6601H546.089M477.103 86.6601H408.119M477.103 86.6601L489.106 104.693M546.089 86.6601L556.376 104.691L566.166 121.853M546.089 86.6601H615.074M606.051 67.6814L615.074 86.6601M606.051 67.6814H676.842M500.527 121.851H566.166M500.527 121.851L511.407 138.2M500.527 121.851H434.888M500.527 121.851L489.106 104.693M489.106 104.693H556.376H623.647M489.106 104.693H421.836M566.166 121.853L575.492 138.198M566.166 121.853H631.805M575.492 138.198H511.407M575.492 138.198L584.386 153.789M575.492 138.198H639.576M631.805 121.853L639.576 138.198M631.805 121.853H697.445M511.407 138.198H447.322M511.407 138.198L521.784 153.789M447.322 138.198L459.182 153.789M447.322 138.198L434.888 121.853M521.784 153.789H584.386M521.784 153.789H459.182M521.784 153.789L531.691 168.674M584.386 153.789L592.878 168.675L600.996 182.902M584.386 153.789H646.989M639.576 138.198L644.25 148.028L646.989 153.789M639.576 138.198H703.662M541.161 182.902H600.996M541.161 182.902L550.221 196.511M541.161 182.902H481.327M541.161 182.902L531.691 168.675M600.996 182.902L608.76 196.511H550.221M600.996 182.902H660.829M550.221 196.511H491.681M550.221 196.511L558.896 209.547M481.327 182.902L491.681 196.511M481.327 182.902L470.504 168.675M660.829 182.902L667.3 196.513M660.829 182.902L659.166 179.404L654.066 168.674M491.681 196.511H433.14M558.896 209.547L567.213 222.041M667.3 196.513H608.76L616.198 209.547L619.798 215.86L623.326 222.043M667.3 196.513L673.497 209.547H730.798H788.098M575.191 234.029H630.164M575.191 234.029L582.852 245.538M575.191 234.029H520.219M575.191 234.029L567.213 222.041M630.164 234.029L629.324 232.557L623.326 222.041M630.164 234.029L636.73 245.538M630.164 234.029H685.137M582.852 245.538H636.73M582.852 245.538H528.975M582.852 245.538L590.214 256.6M520.219 234.029L528.975 245.538M520.219 234.029L511.101 222.041M567.213 222.041H623.326M623.326 222.041H679.438M636.73 245.538L643.041 256.6M636.73 245.538H690.609M685.137 234.029L690.609 245.538M685.137 234.029L679.438 222.041M685.137 234.029H740.11M528.975 245.538L537.388 256.6M590.214 256.6H643.041M590.214 256.6H537.388M590.214 256.6L597.294 267.236M643.041 256.6L649.11 267.236M643.041 256.6H695.867M690.609 245.538L695.867 256.6M690.609 245.538H744.487M604.107 277.474H654.949M604.107 277.474L610.671 287.334M604.107 277.474H553.266M604.107 277.474L597.294 267.236M654.949 277.474L660.575 287.334M654.949 277.474L652.786 273.679L651.325 271.12L649.11 267.236M654.949 277.474H705.791M610.671 287.334H660.575M610.671 287.334H560.766M610.671 287.334L616.994 296.835M553.266 277.474L560.766 287.334M553.266 277.474L545.479 267.236M597.294 267.236H649.11M597.294 267.236H545.479M660.575 287.334L662.632 290.938L663.987 293.314L665.996 296.835M660.575 287.334H710.479M649.11 267.236H700.925M705.791 277.474L706.979 279.975L710.479 287.334M705.791 277.474L705.193 276.215L704.591 274.952L702.771 271.12L702.158 269.833L700.925 267.236M705.791 277.474H756.633M560.766 287.334L567.995 296.835M616.994 296.835H665.996M616.994 296.835H567.995M616.994 296.835L621.59 303.741L623.095 306.001M665.996 296.835L668.634 301.46L671.224 306.001M665.996 296.835H714.997M710.479 287.334L711.053 288.54L711.623 289.742L713.883 294.494L714.997 296.835M710.479 287.334H760.383M628.982 314.845H676.269M628.982 314.845L633.264 321.278L634.667 323.386M628.982 314.845H581.694M628.982 314.845L623.842 307.125L623.095 306.001M676.269 314.845L679.941 321.278L680.543 322.336L681.143 323.386M676.269 314.845L673.769 310.462L671.224 306.001M676.269 314.845H723.558M634.667 323.386H681.143M634.667 323.386L640.159 331.638M634.667 323.386H588.19M581.694 314.845L588.19 323.386M581.694 314.845L574.965 306.001M623.095 306.001H671.224M623.095 306.001H574.965M681.143 323.386H727.619M681.143 323.386L685.851 331.638M671.224 306.001H719.353M723.558 314.845L727.619 323.386M723.558 314.845L719.353 306.001M723.558 314.845H770.847M640.159 331.638H685.851M640.159 331.638H594.468M588.19 323.386L592.919 329.601L594.468 331.638M727.619 323.386H774.095M727.619 323.386L730.573 329.601L731.542 331.638M685.851 331.638H731.542M577.582 -528.451H705.055M577.582 -528.451L594.784 -468.147M577.582 -528.451H450.11M577.582 -528.451L558.679 -594.719M705.055 -528.451L716.523 -468.147M705.055 -528.451L692.454 -594.719M705.055 -528.451H832.528M594.784 -468.147H716.523M594.784 -468.147H473.046M594.784 -468.147L610.505 -413.033M558.679 -594.719H692.454M558.679 -594.719L537.811 -667.877M558.679 -594.719H424.905M716.523 -468.147L727.003 -413.033M716.523 -468.147H838.262M692.454 -594.719L678.541 -667.877M692.454 -594.719H826.226M832.528 -528.451L838.262 -468.147M832.528 -528.451L826.226 -594.719M832.528 -528.451H960M473.046 -468.147L494.008 -413.033M473.046 -468.147L450.11 -528.453M610.505 -413.033H727.003M610.505 -413.033H494.008M610.505 -413.033L624.928 -362.469M727.003 -413.033L736.619 -362.469M727.003 -413.033H843.502M838.262 -468.147L843.502 -413.033M838.262 -468.147H960M638.209 -315.913H745.472M638.209 -315.913L650.477 -272.908M638.209 -315.913H530.945M638.209 -315.913L624.928 -362.469M745.472 -315.913L753.651 -272.908M745.472 -315.913L736.619 -362.469M745.472 -315.913H852.737M650.477 -272.908H753.651M650.477 -272.908H547.303M650.477 -272.908L661.843 -233.06M624.928 -362.469H736.619M624.928 -362.469H513.239M753.651 -272.908L761.229 -233.06M753.651 -272.908H856.826M736.619 -362.469H848.309M852.737 -315.913L848.309 -362.469M852.737 -315.913H960M661.843 -233.06H761.229M661.843 -233.06L562.459 -233.062M661.843 -233.06L672.404 -196.037H768.27M761.229 -233.06L768.27 -196.037M761.229 -233.06L860.614 -233.062M682.244 -161.543H774.829M682.244 -161.543L691.432 -129.333M682.244 -161.543H589.659M682.244 -161.543L672.404 -196.035H576.54M774.829 -161.543L780.954 -129.333M774.829 -161.543L768.27 -196.035M774.829 -161.543H867.415M691.432 -129.333H780.954M691.432 -129.333H601.91M691.432 -129.333L700.031 -99.1865M780.954 -129.333L786.688 -99.1865M780.954 -129.333H870.478M601.91 -129.333L613.374 -99.1885M601.91 -129.333L589.659 -161.545M870.478 -129.333L873.343 -99.1885M870.478 -129.333L867.415 -161.545M870.478 -129.333H960M715.678 -44.3369H797.117M715.678 -44.3369L722.814 -19.315M715.678 -44.3369H634.236M715.678 -44.3369L708.097 -70.9115M797.117 -44.3369L801.877 -19.315M797.117 -44.3369L792.065 -70.9115M797.117 -44.3369H878.559L880.939 -19.315M722.814 -19.315H801.877M722.814 -19.315H643.753M722.814 -19.315L729.547 4.28628M801.877 -19.315L806.364 4.28628M801.877 -19.315H880.939M643.753 -19.315L652.729 4.28628M643.753 -19.315L634.236 -44.3389M729.547 4.28628H806.364M729.547 4.28628H652.729M729.547 4.28628L735.908 26.5831M806.364 4.28628L810.606 26.5831M806.364 4.28628H883.183M880.939 -19.315L883.183 4.28628M880.939 -19.315H960M741.926 47.684H814.619M741.926 47.684L747.631 67.6794M741.926 47.684L669.236 47.6859M741.926 47.684L735.908 26.5831M814.619 47.684L818.42 67.6814M814.619 47.684L810.606 26.5831M814.619 47.684L887.309 47.6859M669.236 47.6859L676.842 67.6794M669.236 47.6859L661.21 26.5831M735.908 26.5831H810.606M818.42 67.6814H747.631M818.42 67.6814L822.03 86.6601M818.42 67.6814H889.21H960M810.606 26.5831H885.302M887.309 47.6859L889.21 67.6794L891.016 86.6601M887.309 47.6859L885.302 26.5811M887.309 47.6859H960M747.631 67.6814H676.842M747.631 67.6814L753.044 86.6601M676.842 67.6814L684.059 86.6601M753.044 86.6601H822.03M753.044 86.6601H684.059M753.044 86.6601L758.189 104.693M822.03 86.6601L825.459 104.691L828.722 121.853M822.03 86.6601H891.016M763.083 121.851H828.722M763.083 121.851L767.746 138.2M763.083 121.851H697.445M763.083 121.851L758.189 104.693M758.189 104.693H825.459H892.729M758.189 104.693H690.918M828.722 121.853L831.831 138.198M828.722 121.853H894.362M831.831 138.198H767.746M831.831 138.198L834.796 153.789M831.831 138.198H895.916M894.362 121.853L895.916 138.198M894.362 121.853H960M767.746 138.198H703.662M767.746 138.198L769.438 144.128L772.193 153.789M703.662 138.198L709.591 153.789M703.662 138.198L697.445 121.853M772.193 153.789H834.796M772.193 153.789H709.591M772.193 153.789L776.439 168.674M834.796 153.789L837.626 168.675L840.332 182.902M834.796 153.789H897.397M895.916 138.198L897.397 153.789M895.916 138.198H960M780.497 182.902H840.332M780.497 182.902L784.381 196.511L784.853 198.172L788.098 209.547M780.497 182.902H720.662M780.497 182.902L777.471 172.289L776.439 168.674M840.332 182.902H900.167M720.662 182.902L725.84 196.513M720.662 182.902L720 181.158L717.988 175.867L715.251 168.675M776.439 168.674H837.626H898.813M776.439 168.674H715.251M840.332 182.9L841.316 188.076L842.92 196.513M842.92 196.513H784.381H725.84M842.92 196.513L843.862 201.467L844.172 203.102L844.483 204.724L845.399 209.547L846.303 214.294L846.599 215.86L847.776 222.041M842.92 196.513H901.461M900.167 182.902L901.461 196.513M900.167 182.902L898.813 168.675M900.167 182.902H960M788.098 209.547L791.663 222.041M725.84 196.513L730.798 209.549L735.55 222.041H679.438M901.461 196.513L901.618 198.172L902.7 209.547H960H1017.3M795.082 234.029H850.054M795.082 234.029L796.739 239.842L797.15 241.276L797.556 242.705L797.963 244.123L798.364 245.538M795.082 234.029H740.11M795.082 234.029L791.663 222.041M850.054 234.029L851.704 242.705L851.976 244.123L852.243 245.538M850.054 234.029L847.776 222.041M850.054 234.029H905.027M798.364 245.538H852.243M798.364 245.538H744.487M798.364 245.538L800.352 252.504L800.743 253.875L801.521 256.6M740.11 234.029L743.409 242.705L744.487 245.538M740.11 234.029L738.422 229.592L736.707 225.086L735.55 222.043H791.663M791.663 222.041H847.776M852.243 245.538L853.568 252.504L853.83 253.875L854.088 255.24L854.347 256.6M852.243 245.538H906.122M847.776 222.041H903.887M905.027 234.029L906.122 245.538M905.027 234.029L904.606 229.592L904.177 225.086L903.887 222.043M905.027 234.029H960M744.487 245.538L748.693 256.6M801.521 256.6H854.347M801.521 256.6H748.693M801.521 256.6L804.555 267.236M854.347 256.6L856.37 267.236M854.347 256.6H907.174M906.122 245.538L907.174 256.6M906.122 245.538H960M807.475 277.474H858.316M807.475 277.474L810.287 287.334M807.475 277.474H756.633M807.475 277.474L806.754 274.952L805.663 271.12L804.555 267.236M858.316 277.474L858.077 276.215L856.616 268.539L856.37 267.236M858.316 277.474L860.192 287.334M858.316 277.474H909.158M810.287 287.334H860.192M810.287 287.334H760.383M810.287 287.334L812.999 296.835M756.633 277.474L759.922 286.122L760.383 287.334M756.633 277.474L756.155 276.215L755.673 274.952L755.191 273.679L752.74 267.236M804.555 267.236H856.37M804.555 267.236H752.74M856.37 267.236H908.185M860.192 287.334L860.878 290.938L861.103 292.128L861.329 293.314L861.998 296.835M860.192 287.334H910.096M909.158 277.474L909.865 284.903L909.98 286.122L910.096 287.334M909.158 277.474L908.185 267.236M909.158 277.474H960M760.383 287.334L763.998 296.835M812.999 296.835H861.998M812.999 296.835H763.998M812.999 296.835L813.66 299.158L813.989 300.311L814.317 301.46L814.644 302.603L814.968 303.741L815.292 304.872L815.612 306.001M861.998 296.835L862.22 298L862.441 299.158L862.878 301.46L863.095 302.603L863.313 303.741L863.527 304.872L863.742 306.001M861.998 296.835H910.999M910.096 287.334L910.999 296.835M910.096 287.334H960M818.136 314.845H865.424M818.136 314.845L819.97 321.278L820.571 323.386M818.136 314.845H770.847M818.136 314.845L817.198 311.566L816.885 310.462L816.569 309.355L815.612 306.001M865.424 314.845L865.63 315.928L866.039 318.084L866.445 320.218L867.047 323.386M865.424 314.845L864.59 310.462L864.379 309.355L863.955 307.125L863.742 306.001M865.424 314.845H912.711M820.571 323.386H867.047M820.571 323.386L822.634 330.621L822.925 331.638M820.571 323.386H774.095M770.847 314.845L774.095 323.386M770.847 314.845L767.483 306.001M815.612 306.001H863.742M815.612 306.001H767.483M867.047 323.386L867.247 324.432L867.445 325.477L867.643 326.513L867.839 327.548L868.423 330.621L868.617 331.638M867.047 323.386H913.524M863.742 306.001H911.871M912.711 314.845L913.524 323.386M912.711 314.845L911.871 306.001M912.711 314.845H960M822.925 331.638H868.617M822.925 331.638H777.234M774.095 323.386L775.679 327.548L776.848 330.621L777.234 331.638M868.617 331.638H914.308M913.524 323.386L913.622 324.432L913.722 325.477L913.821 326.513L914.308 331.638M913.524 323.386H960M1087.47 -528.451H1214.95M1087.47 -528.451L1081.74 -468.147M1087.47 -528.451H960M1087.47 -528.451L1093.77 -594.719M1214.95 -528.451L1203.48 -468.147M1214.95 -528.451L1227.55 -594.719M1214.95 -528.451H1342.42M1081.74 -468.147H1203.48M1081.74 -468.147H960M1081.74 -468.147L1076.5 -413.033M960 -528.451V-468.147M960 -528.451V-594.721M1093.77 -594.719H1227.55M1093.77 -594.719L1100.73 -667.879M1093.77 -594.719L960 -594.721M1203.48 -468.147L1193 -413.033M1203.48 -468.147H1325.22M1227.55 -594.719L1241.46 -667.879M1227.55 -594.719L1361.32 -594.721M960 -468.147V-413.035M1076.5 -413.033H1193M1076.5 -413.033L960 -413.035M1076.5 -413.033L1071.69 -362.469M1193 -413.033L1183.38 -362.469M1193 -413.033L1309.5 -413.035M1325.22 -468.147L1309.5 -413.035M1325.22 -468.147L1342.42 -528.453M1325.22 -468.147H1446.95M1067.26 -315.913H1174.53M1067.26 -315.913L1063.17 -272.908M1067.26 -315.913H960M1067.26 -315.913L1071.69 -362.469M1174.53 -315.913L1166.35 -272.908M1174.53 -315.913L1183.38 -362.469M1174.53 -315.913H1281.79M1063.17 -272.908H1166.35M1063.17 -272.908H960M1063.17 -272.908L1059.39 -233.06M960 -315.913V-272.908M960 -315.913V-362.471M1071.69 -362.469H1183.38M1071.69 -362.469L960 -362.471M1166.35 -272.908L1158.77 -233.06M1166.35 -272.908H1269.52M1183.38 -362.469L1295.07 -362.471M960 -272.908V-233.062M1059.39 -233.06H1158.77M1059.39 -233.06L960 -233.062M1059.39 -233.06L1055.87 -196.037M1158.77 -233.06L1151.73 -196.037M1158.77 -233.06L1258.16 -233.062M1052.59 -161.543H1145.17M1052.59 -161.543L1049.52 -129.333M1052.59 -161.543H960M1052.59 -161.543L1055.87 -196.035M1145.17 -161.543L1139.05 -129.333M1145.17 -161.543L1151.73 -196.035M1145.17 -161.543H1237.76M1049.52 -129.333H1139.05M1049.52 -129.333H960M1049.52 -129.333L1046.66 -99.1865M1139.05 -129.333L1133.31 -99.1865M1139.05 -129.333H1228.57M960 -129.333V-99.1885M960 -129.333V-161.545M1228.57 -129.333L1219.97 -99.1885M1228.57 -129.333L1237.76 -161.545M1228.57 -129.333H1318.09M1041.44 -44.3369H1122.88M1041.44 -44.3369L1039.06 -19.315M1041.44 -44.3369H960M1041.44 -44.3369L1043.97 -70.9115M1122.88 -44.3369L1118.12 -19.315M1122.88 -44.3369L1127.94 -70.9115M1122.88 -44.3369H1204.32L1197.19 -19.315M1039.06 -19.315H1118.12M1039.06 -19.315H960M1039.06 -19.315L1036.82 4.28628M1118.12 -19.315L1113.64 4.28628M1118.12 -19.315H1197.19M960 -19.315V4.28628M960 -19.315V-44.3389M1036.82 4.28628H1113.64M1036.82 4.28628H960M1036.82 4.28628L1034.7 26.5831M1113.64 4.28628L1109.39 26.5831M1113.64 4.28628H1190.45M1197.19 -19.315L1190.45 4.28628M1197.19 -19.315H1276.25M1032.69 47.684H1105.38M1032.69 47.684L1030.79 67.6794M1032.69 47.684L960 47.6859M1032.69 47.684L1034.7 26.5831M1105.38 47.684L1101.58 67.6814M1105.38 47.684L1109.39 26.5831M1105.38 47.684L1178.07 47.6859M960 47.6859V67.6814M960 47.6859V26.5831M1034.7 26.5831H1109.39M1101.58 67.6814H1030.79M1101.58 67.6814L1097.97 86.6601M1101.58 67.6814H1172.37M1109.39 26.5831H1184.09M1178.07 47.6859L1172.37 67.6814M1178.07 47.6859L1184.09 26.5811M1178.07 47.6859H1250.76M1030.79 67.6814H960M1030.79 67.6814L1028.98 86.6601M960 67.6814V86.6601M1028.98 86.6601H1097.97M1028.98 86.6601H960M1028.98 86.6601L1027.48 102.486L1027.27 104.693M1097.97 86.6601L1094.54 104.691L1091.28 121.853M1097.97 86.6601H1166.96M1172.37 67.6814L1166.96 86.6601M1172.37 67.6814H1243.16M1025.64 121.851H1091.28M1025.64 121.851L1024.08 138.2M1025.64 121.851H960M1025.64 121.851L1027.27 104.693M1027.27 104.693H1094.54H1161.81M1027.27 104.693H960M1091.28 121.853L1088.17 138.198M1091.28 121.853H1156.92M1088.17 138.198H1024.08M1088.17 138.198L1085.2 153.789M1088.17 138.198H1152.25M1156.92 121.853L1152.25 138.198M1156.92 121.853H1222.56M1024.08 138.198H960M1024.08 138.198L1022.6 153.789M960 138.198V153.789M960 138.198V121.853M1022.6 153.789H1085.2M1022.6 153.789H960M1022.6 153.789L1021.19 168.674M1085.2 153.789L1082.37 168.675L1079.67 182.902M1085.2 153.789H1147.81M1152.25 138.198L1151.12 142.164L1147.81 153.789M1152.25 138.198H1216.34M1019.83 182.902H1079.67M1019.83 182.902L1018.54 196.511L1018.38 198.172L1017.3 209.547M1019.83 182.902H960M1019.83 182.902L1021.19 168.675M1079.67 182.902L1077.4 194.842L1077.08 196.513M1079.67 182.902H1139.5M960 182.902V196.511H901.461M960 182.902V168.675M1077.08 196.513H1018.54H960M1077.08 196.513L1076.14 201.467L1075.83 203.102L1075.52 204.724L1074.6 209.547L1073.7 214.294L1073.4 215.86L1072.23 222.041M1077.08 196.513H1135.62M1139.5 182.902L1135.62 196.513M1139.5 182.902L1142.53 172.289L1143.56 168.674M1017.3 209.547L1017 212.72L1016.4 218.968L1016.11 222.041M1135.62 196.513L1131.9 209.547H1189.2H1246.5M1014.97 234.029H1069.95M1014.97 234.029L1013.88 245.538M1014.97 234.029H960M1014.97 234.029L1015.39 229.592L1015.54 228.098L1015.68 226.595L1015.97 223.568L1016.11 222.041M1069.95 234.029L1068.3 242.705L1067.76 245.538M1069.95 234.029L1072.23 222.041M1069.95 234.029H1124.92M1013.88 245.538H1067.76M1013.88 245.538H960M1013.88 245.538L1012.83 256.6M960 234.029V245.538M960 234.029V222.041M1016.11 222.041H1072.23M1067.76 245.538L1066.43 252.504L1066.17 253.875L1065.91 255.24L1065.65 256.6M1067.76 245.538H1121.64M1072.23 222.041H1128.34M1124.92 234.029L1122.85 241.276L1122.44 242.707L1122.04 244.125L1121.64 245.538M1124.92 234.029L1127.9 223.566L1128.34 222.043M1124.92 234.029H1179.89M960 245.538V256.6M1012.83 256.6H1065.65M1012.83 256.6H960M1012.83 256.6L1011.81 267.236M1065.65 256.6L1063.63 267.236M1065.65 256.6H1118.48M1121.64 245.538L1120.04 251.124L1119.65 252.504L1119.26 253.875L1118.48 256.6M1121.64 245.538H1175.51M1010.84 277.474H1061.68M1010.84 277.474L1009.9 287.334M1010.84 277.474H960M1010.84 277.474L1011.81 267.236M1061.68 277.474L1061.92 276.215L1063.38 268.539L1063.63 267.236M1061.68 277.474L1059.81 287.334M1061.68 277.474H1112.53M1009.9 287.334H1059.81M1009.9 287.334H960M1009.9 287.334L1009 296.835M960 277.474V287.334M960 277.474V267.236M1011.81 267.236H1063.63M1011.81 267.236H960M1063.63 267.236H1115.45M1059.81 287.334L1059.12 290.938L1058.9 292.128L1058.67 293.314L1058 296.835M1059.81 287.334H1109.71M1112.53 277.474L1109.71 287.334M1112.53 277.474L1113.25 274.952L1114.34 271.12L1115.45 267.236M1112.53 277.474H1163.37M960 287.334V296.835M1009 296.835H1058M1009 296.835H960M1009 296.835L1008.13 306.001M1058 296.835L1057.78 298L1057.12 301.46L1056.9 302.603L1056.69 303.741L1056.47 304.872L1056.26 306.001M1058 296.835H1107M1109.71 287.334L1107 296.835M1109.71 287.334H1159.62M1007.29 314.845H1054.58M1007.29 314.845L1006.48 323.386M1007.29 314.845H960M1007.29 314.845L1008.13 306.001M1054.58 314.845L1054.37 315.928L1053.96 318.084L1053.76 319.154L1053.35 321.278L1053.15 322.336L1052.95 323.386M1054.58 314.845L1055.41 310.462L1055.62 309.355L1056.04 307.125L1056.26 306.001M1054.58 314.845H1101.86M1006.48 323.386L1006.38 324.432L1006.28 325.477L1006.18 326.513L1005.69 331.638M1006.48 323.386H1052.95M1006.48 323.386H960M960 314.845V323.386M960 314.845V306.001M1008.13 306.001H1056.26M1008.13 306.001H960M1052.95 323.386H1099.43M1052.95 323.386L1052.56 325.477L1052.36 326.513L1052.16 327.548L1051.58 330.621L1051.38 331.638M1056.26 306.001H1104.39M1101.86 314.845L1100.03 321.278L1099.43 323.386M1101.86 314.845L1103.43 309.355L1104.39 306.001M1101.86 314.845H1149.15M1005.69 331.638H1051.38M1005.69 331.638H960M960 323.386V331.638M1099.43 323.386H1145.91M1099.43 323.386L1097.66 329.601L1097.07 331.638M1051.38 331.638H1097.07M1597.37 -528.451H1724.84M1597.37 -528.451L1568.7 -468.147M1597.37 -528.451H1469.89M1597.37 -528.451L1628.87 -594.719M1724.84 -528.451L1690.43 -468.147M1724.84 -528.451L1762.65 -594.719M1724.84 -528.451H1852.31M1568.7 -468.147H1690.43M1568.7 -468.147H1446.95M1568.7 -468.147L1542.49 -413.033M1628.87 -594.719H1762.65M1628.87 -594.719L1663.64 -667.879M1628.87 -594.719L1495.1 -594.721M1690.43 -468.147L1659 -413.033M1690.43 -468.147H1812.17M1762.65 -594.719L1804.38 -667.879M1762.65 -594.719L1896.41 -594.721M1446.95 -468.147L1425.99 -413.035M1446.95 -468.147L1469.89 -528.453M1542.49 -413.033H1659M1542.49 -413.033L1425.99 -413.035M1542.49 -413.033L1518.45 -362.469M1659 -413.033L1630.14 -362.469M1659 -413.033L1775.49 -413.035M1812.17 -468.147L1775.49 -413.035M1812.17 -468.147L1852.31 -528.453M1812.17 -468.147L1919.49 -468.149M1496.32 -315.913H1603.58M1496.32 -315.913L1475.87 -272.908M1496.32 -315.913H1389.05M1496.32 -315.913L1518.45 -362.469M1603.58 -315.913L1579.05 -272.908M1603.58 -315.913L1630.14 -362.469M1603.58 -315.913H1710.84M1475.87 -272.908H1579.05M1475.87 -272.908H1372.69M1475.87 -272.908L1456.92 -233.06M1518.45 -362.469H1630.14M1518.45 -362.469L1406.76 -362.471M1579.05 -272.908L1556.32 -233.06M1579.05 -272.908H1682.23M1630.14 -362.469L1741.83 -362.471M1456.92 -233.06H1556.32M1456.92 -233.06L1357.54 -233.062M1456.92 -233.06L1439.33 -196.037M1556.32 -233.06L1535.2 -196.037M1556.32 -233.06L1655.7 -233.062M1422.93 -161.543H1515.51M1422.93 -161.543L1407.62 -129.333M1422.93 -161.543H1330.34M1422.93 -161.543L1439.33 -196.035M1515.51 -161.543L1497.14 -129.333M1515.51 -161.543L1535.2 -196.035M1515.51 -161.543H1608.1M1407.62 -129.333H1497.14M1407.62 -129.333H1318.09M1407.62 -129.333L1393.28 -99.1865M1497.14 -129.333L1479.94 -99.1865M1497.14 -129.333H1586.66M1318.09 -129.333L1306.63 -99.1885M1318.09 -129.333L1330.34 -161.545M1586.66 -129.333L1566.59 -99.1885M1586.66 -129.333L1608.1 -161.545M1586.66 -129.333H1676.18M1367.2 -44.3369H1448.65M1367.2 -44.3369L1355.31 -19.315M1367.2 -44.3369H1285.76M1367.2 -44.3369L1379.85 -70.9115M1448.65 -44.3369L1434.38 -19.315M1448.65 -44.3369L1463.81 -70.9115M1448.65 -44.3369H1530.09L1513.43 -19.315M1355.31 -19.315H1434.38M1355.31 -19.315H1276.25M1355.31 -19.315L1344.09 4.28628M1434.38 -19.315L1420.91 4.28628M1434.38 -19.315H1513.43M1276.25 -19.315L1267.27 4.28628M1276.25 -19.315L1285.76 -44.3389M1344.09 4.28628H1420.91M1344.09 4.28628H1267.27M1344.09 4.28628L1333.49 26.5831M1420.91 4.28628L1408.18 26.5831M1420.91 4.28628H1497.72M1513.43 -19.315L1497.72 4.28628M1513.43 -19.315H1592.49M1323.46 47.684H1396.15M1323.46 47.684L1313.95 67.6814M1323.46 47.684L1250.76 47.6859M1323.46 47.684L1333.49 26.5831M1396.15 47.684L1384.74 67.6814M1396.15 47.684L1408.18 26.5831M1396.15 47.684L1468.84 47.6859M1313.95 67.6814H1384.74M1313.95 67.6814H1243.16M1313.95 67.6814L1304.93 86.6601M1250.76 47.6859L1248.82 52.7853L1243.16 67.6814M1250.76 47.6859L1258.79 26.5831M1333.49 26.5831H1408.18M1384.74 67.6814L1373.91 86.6601M1384.74 67.6814H1455.53M1408.18 26.5831H1482.88M1468.84 47.6859L1455.53 67.6814M1468.84 47.6859L1482.88 26.5811M1468.84 47.6859L1541.53 47.684M1243.16 67.6814L1235.94 86.6601M1304.93 86.6601H1373.91M1304.93 86.6601H1235.94M1304.93 86.6601L1296.35 104.693M1373.91 86.6601L1363.62 104.691L1353.84 121.853M1373.91 86.6601H1442.9M1455.53 67.6814L1442.9 86.6601M1455.53 67.6814H1526.32M1288.19 121.851H1353.84M1288.19 121.851L1280.42 138.2M1288.19 121.851H1222.56M1288.19 121.851L1296.35 104.693M1296.35 104.693H1363.62H1430.89M1296.35 104.693H1229.08M1353.84 121.853L1344.51 138.198M1353.84 121.853H1419.47M1344.51 138.198H1280.42M1344.51 138.198L1335.61 153.789M1344.51 138.198H1408.59M1419.47 121.853L1408.59 138.198M1419.47 121.853H1485.12M1280.42 138.198H1216.34M1280.42 138.198L1273.01 153.789M1216.34 138.198L1210.41 153.789M1216.34 138.198L1222.56 121.853M1273.01 153.789H1335.61M1273.01 153.789H1210.41M1273.01 153.789L1265.93 168.674M1335.61 153.789L1327.12 168.675L1319 182.902M1335.61 153.789H1398.22M1408.59 138.198L1398.22 153.789M1408.59 138.198H1472.67M1265.93 168.674L1260.83 179.404L1260 181.158L1259.17 182.902H1199.34M1265.93 168.674H1327.12H1388.31M1265.93 168.674H1204.75M1319 182.9H1259.17L1252.7 196.513M1199.34 182.902L1194.16 196.513L1189.2 209.549L1184.45 222.041M1199.34 182.902L1202.01 175.867L1204.75 168.675M1319 182.902L1311.24 196.511H1252.7M1319 182.902H1378.84M1378.84 182.902L1369.78 196.513M1378.84 182.902L1388.31 168.675M1378.84 182.902H1438.67M1252.7 196.511H1194.16H1135.62M1252.7 196.511L1246.5 209.547M1246.5 209.547L1244.99 212.72L1240.56 222.041M1369.78 196.513H1311.24L1303.8 209.547L1301.09 214.294L1300.2 215.86L1296.67 222.041M1369.78 196.513L1361.11 209.547H1418.4H1475.7M1234.86 234.029H1289.84M1234.86 234.029L1229.39 245.538M1234.86 234.029H1179.89M1234.86 234.029L1240.56 222.041M1289.84 234.029L1285.7 241.276L1283.27 245.538M1289.84 234.029L1296.67 222.041M1289.84 234.029H1344.8M1229.39 245.538H1283.27M1229.39 245.538H1175.51M1229.39 245.538L1224.78 255.24L1224.13 256.6M1179.89 234.029L1176.59 242.705L1175.51 245.538M1179.89 234.029L1181.58 229.592L1184.45 222.041M1240.56 222.041H1296.67M1283.27 245.538L1276.96 256.6M1283.27 245.538H1337.15M1296.67 222.041H1352.78M1344.8 234.029L1337.15 245.538M1344.8 234.029L1352.78 222.041M1344.8 234.029H1399.78M1175.51 245.538L1171.31 256.6M1224.13 256.6H1276.96M1224.13 256.6H1171.31M1224.13 256.6L1219.07 267.236M1276.96 256.6L1270.89 267.236M1276.96 256.6H1329.79M1337.15 245.538L1332.52 252.504L1331.6 253.875L1329.79 256.6M1337.15 245.538H1391.03M1214.21 277.474H1265.05M1214.21 277.474L1213.02 279.975L1209.52 287.334M1214.21 277.474H1163.37M1214.21 277.474L1215.41 274.952L1217.84 269.833L1219.07 267.236M1265.05 277.474L1259.43 287.334M1265.05 277.474L1267.21 273.679L1268.67 271.12L1270.89 267.236M1265.05 277.474H1315.89M1209.52 287.334H1259.43M1209.52 287.334H1159.62M1209.52 287.334L1206.12 294.494L1205 296.835M1163.37 277.474L1160.08 286.122L1159.62 287.334M1163.37 277.474L1163.85 276.215L1164.33 274.952L1164.81 273.679L1167.26 267.236M1219.07 267.236H1270.89M1219.07 267.236H1167.26M1259.43 287.334L1257.37 290.938L1256.01 293.314L1254 296.835M1259.43 287.334H1309.33M1270.89 267.236H1322.71M1315.89 277.474L1309.33 287.334M1315.89 277.474L1320.12 271.12L1320.98 269.833L1322.71 267.236M1315.89 277.474H1366.73M1159.62 287.334L1156 296.835M1205 296.835H1254M1205 296.835H1156M1205 296.835L1200.65 306.001M1254 296.835L1251.37 301.46L1250.71 302.603L1248.78 306.001M1254 296.835H1303.01M1309.33 287.334L1303.01 296.835M1309.33 287.334H1359.24M1196.44 314.845H1243.73M1196.44 314.845L1193.89 320.218L1192.38 323.386M1196.44 314.845H1149.15M1196.44 314.845L1200.65 306.001M1243.73 314.845L1240.06 321.278L1239.46 322.336L1238.86 323.386M1243.73 314.845L1246.23 310.462L1248.78 306.001M1243.73 314.845H1291.02M1192.38 323.386H1238.86M1192.38 323.386L1190.4 327.548L1189.43 329.601L1188.94 330.621L1188.46 331.638M1192.38 323.386H1145.91M1149.15 314.845L1146.71 321.278L1145.91 323.386M1149.15 314.845L1152.52 306.001M1200.65 306.001H1248.78M1200.65 306.001H1152.52M1238.86 323.386H1285.33M1238.86 323.386L1234.15 331.638M1248.78 306.001H1296.9M1291.02 314.845L1286.74 321.278L1285.33 323.386M1291.02 314.845L1296.16 307.125L1296.9 306.001M1291.02 314.845H1338.31M1188.46 331.638H1234.15M1188.46 331.638H1142.77M1145.91 323.386L1144.32 327.548L1143.15 330.621L1142.77 331.638M1285.33 323.386H1331.81M1285.33 323.386L1279.84 331.638M1234.15 331.638H1279.84M1888.57 -272.908H1785.39M1888.57 -272.908L1854.47 -233.06M1888.57 -272.908H1919.49M1888.57 -272.908L1919.49 -309.031M1854.47 -233.06L1822.79 -196.037M1854.47 -233.06L1755.09 -233.062M1854.47 -233.06L1919.49 -233.062M1919.49 -272.908V-233.062M1919.49 -272.908V-309.031M1919.49 -309.031V-315.913V-362.471M1793.26 -161.543H1885.85M1793.26 -161.543L1765.7 -129.333M1793.26 -161.543H1700.69M1793.26 -161.543L1822.79 -196.035M1885.85 -161.543L1855.22 -129.333M1885.85 -161.543L1918.66 -196.035M1885.85 -161.543H1919.49M1765.7 -129.333H1855.22M1765.7 -129.333H1676.18M1765.7 -129.333L1739.9 -99.1865M1855.22 -129.333L1826.57 -99.1865M1855.22 -129.333H1919.49M1919.49 -161.543V-129.333M1919.49 -161.543V-196.035V-196.91V-233.062M1676.18 -129.333L1653.25 -99.1885M1676.18 -129.333L1700.69 -161.545M1919.49 -129.333V-105.177V-99.1885H1913.22M1692.97 -44.3369H1774.41M1692.97 -44.3369L1671.56 -19.315M1692.97 -44.3369H1611.52M1692.97 -44.3369L1715.71 -70.9115M1774.41 -44.3369L1750.62 -19.315M1774.41 -44.3369L1799.68 -70.9115M1774.41 -44.3369H1855.86M1671.56 -19.315H1750.62M1671.56 -19.315H1592.49M1671.56 -19.315L1651.36 4.28628M1750.62 -19.315L1728.17 4.28628M1750.62 -19.315H1829.68M1855.86 -44.3369L1829.68 -19.315M1855.86 -44.3369L1883.64 -70.9115M1855.86 -44.3369H1919.49M1592.49 -19.315L1574.54 4.28628M1592.49 -19.315L1611.52 -44.3389M1651.36 4.28628H1728.17M1651.36 4.28628H1574.54M1651.36 4.28628L1632.28 26.5831H1557.58M1728.17 4.28628H1805M1829.68 -19.315L1805 4.28628M1829.68 -19.315H1908.74M1614.22 47.684H1686.91M1614.22 47.684L1597.1 67.6794M1614.22 47.684H1541.53M1614.22 47.684L1632.28 26.5811H1706.97M1686.91 47.684L1667.9 67.6814M1686.91 47.684L1706.97 26.5831M1686.91 47.684L1759.6 47.6859M1541.53 47.684L1526.32 67.6814M1541.53 47.684L1557.58 26.5831M1667.9 67.6814H1597.1M1667.9 67.6814L1649.86 86.6601M1667.9 67.6814H1738.69M1759.6 47.6859L1738.69 67.6814M1759.6 47.6859L1781.68 26.5811M1759.6 47.6859H1832.3M1597.1 67.6814H1526.32M1597.1 67.6814L1580.87 86.6601M1526.32 67.6814L1511.89 86.6601M1580.87 86.6601H1649.86M1580.87 86.6601H1511.89M1580.87 86.6601L1565.43 104.693M1649.86 86.6601L1632.71 104.691L1616.4 121.853M1649.86 86.6601H1718.83M1738.69 67.6814L1718.83 86.6601M1738.69 67.6814H1809.47M1550.75 121.851H1616.4M1550.75 121.851L1536.76 138.2M1550.75 121.851H1485.12M1550.75 121.851L1565.43 104.693M1565.43 104.693H1632.71H1699.98M1565.43 104.693H1498.17M1616.4 121.853L1600.84 138.198M1616.4 121.853H1682.03M1600.84 138.198H1536.76M1600.84 138.198L1586.03 153.789M1600.84 138.198H1664.94M1682.03 121.853L1664.94 138.198M1682.03 121.853H1747.67M1536.76 138.198H1472.67M1536.76 138.198L1523.42 153.789M1472.67 138.198L1460.82 153.789M1472.67 138.198L1485.12 121.853M1523.42 153.789H1586.03M1523.42 153.789H1460.82M1523.42 153.789L1510.68 168.674M1586.03 153.789L1571.87 168.675L1558.35 182.902M1586.03 153.789H1648.62M1664.94 138.198L1648.62 153.789M1664.94 138.198L1729.01 138.196M1498.51 182.902H1558.35M1498.51 182.902L1486.85 196.511M1498.51 182.902H1438.67M1498.51 182.902L1510.68 168.675M1558.35 182.902L1545.4 196.511H1486.85M1558.35 182.902H1618.17M1486.85 196.511H1428.32M1486.85 196.511L1475.7 209.547M1438.67 182.902L1428.32 196.511M1438.67 182.902L1449.49 168.675M1618.17 182.902L1603.94 196.513M1618.17 182.902L1633.05 168.675M1618.17 182.902H1678.01M1428.32 196.511H1369.78M1475.7 209.547L1465.01 222.041M1533.01 209.547L1545.4 196.513H1603.94M1603.94 196.513L1590.31 209.547H1647.61H1704.9M1454.75 234.029H1509.73M1454.75 234.029L1444.9 245.538M1454.75 234.029H1399.78M1454.75 234.029L1465.01 222.041M1509.73 234.029L1498.79 245.538M1509.73 234.029L1521.12 222.041M1509.73 234.029H1564.69M1444.9 245.538H1498.79M1444.9 245.538H1391.03M1444.9 245.538L1435.44 256.6M1399.78 234.029L1391.03 245.538M1399.78 234.029L1408.9 222.041M1465.01 222.041H1521.12M1498.79 245.538L1488.26 256.6M1498.79 245.538H1552.66M1521.12 222.041L1533.01 209.549M1521.12 222.041H1577.23M1564.69 234.029L1552.66 245.538M1564.69 234.029L1577.23 222.041M1564.69 234.029H1619.67M1391.03 245.538L1382.61 256.6M1435.44 256.6H1488.26M1435.44 256.6H1382.61M1435.44 256.6L1426.33 267.236M1488.26 256.6L1479.39 265.93L1478.15 267.236M1488.26 256.6H1541.1M1552.66 245.538L1541.1 256.6M1552.66 245.538H1606.54M1417.57 277.474H1468.42M1417.57 277.474L1409.13 287.334M1417.57 277.474H1366.73M1417.57 277.474L1419.73 274.952L1420.83 273.679L1426.33 267.236M1468.42 277.474L1459.04 287.334M1468.42 277.474L1478.15 267.236M1468.42 277.474H1519.26M1409.13 287.334H1459.04M1409.13 287.334H1359.24M1409.13 287.334L1401.01 296.835M1366.73 277.474L1359.24 287.334M1366.73 277.474L1374.53 267.236M1426.33 267.236H1478.15M1426.33 267.236H1374.53M1459.04 287.334L1450.01 296.835M1459.04 287.334H1508.95M1478.15 267.236H1529.97M1519.26 277.474L1508.95 287.334M1519.26 277.474L1529.97 267.236M1519.26 277.474H1570.11M1359.24 287.334L1352.01 296.835M1401.01 296.835H1450.01M1401.01 296.835H1352.01M1401.01 296.835L1393.16 306.001M1450.01 296.835L1441.29 306.001M1450.01 296.835H1499.01M1508.95 287.334L1499.01 296.835M1508.95 287.334H1558.85M1385.6 314.845H1432.89M1385.6 314.845L1378.29 323.386M1385.6 314.845H1338.31M1385.6 314.845L1393.16 306.001M1432.89 314.845L1426.77 321.278L1425.76 322.336L1424.76 323.386M1432.89 314.845L1441.29 306.001M1432.89 314.845H1480.16M1378.29 323.386H1424.76M1378.29 323.386L1372.09 330.621L1371.22 331.638M1378.29 323.386H1331.81M1338.31 314.845L1331.81 323.386M1338.31 314.845L1345.03 306.001M1393.16 306.001H1441.29M1393.16 306.001H1345.03M1424.76 323.386H1471.24M1424.76 323.386L1416.92 331.638M1441.29 306.001H1489.42M1480.16 314.845L1471.24 323.386M1480.16 314.845L1489.42 306.001M1480.16 314.845H1527.45M1371.22 331.638H1416.92M1371.22 331.638H1325.53M1331.81 323.386L1327.08 329.601L1325.53 331.638M1471.24 323.386H1517.71M1471.24 323.386L1462.61 331.638M1416.92 331.638H1462.61M1904.99 47.6859L1880.27 67.6814M1904.99 47.6859H1832.3M1904.99 47.6859L1919.49 35.9563M1904.99 47.6859L1919.49 47.684M1832.3 47.6859L1809.47 67.6814M1832.3 47.6859L1856.37 26.5811M1919.49 35.9563V47.684M1919.49 35.9563V26.5831M1919.49 47.684V67.6814V86.6601M1880.27 67.6794H1809.47M1880.27 67.6794L1856.8 86.6582M1880.27 67.6794H1919.49M1856.8 86.6582L1834.52 104.691M1856.8 86.6582L1787.83 86.6601M1856.8 86.6582L1919.49 86.6601M1813.31 121.849H1878.94M1813.31 121.849L1793.11 138.198M1813.31 121.849H1747.67M1813.31 121.849L1834.52 104.691M1793.11 138.198L1857.19 138.196M1793.11 138.198L1729.01 138.196M1793.11 138.198L1773.83 153.789M1834.52 104.691H1767.24L1747.67 121.853M1878.94 121.851L1857.19 138.196M1878.94 121.851L1901.79 104.689M1878.94 121.851H1919.49M1857.19 138.196L1836.43 153.789M1857.19 138.196L1919.49 138.198M1729.01 138.196L1711.22 153.789M1729.01 138.196L1747.67 121.853M1773.83 153.789H1836.43M1773.83 153.789H1711.22M1773.83 153.789L1755.43 168.674M1836.43 153.789L1816.61 168.675L1797.68 182.902M1836.43 153.789H1899.04M1919.49 138.198V121.853M1919.49 138.198V139.451M1737.85 182.902H1797.68M1737.85 182.902L1721.02 196.511M1737.85 182.902H1678.01M1737.85 182.902L1755.43 168.675M1797.68 182.902L1779.56 196.511H1721.02M1797.68 182.902H1857.51M1721.02 196.511H1662.47M1721.02 196.511L1704.9 209.547M1678.01 182.902L1662.47 196.511M1678.01 182.902L1694.25 168.675M1857.51 182.902L1838.1 196.513M1857.51 182.902L1877.81 168.675M1857.51 182.902H1917.34M1662.47 196.511H1603.94M1704.9 209.547H1762.21M1704.9 209.547L1689.46 222.041M1762.21 209.547L1779.56 196.513H1838.1M1762.21 209.547H1819.51M1838.1 196.513L1819.51 209.547M1674.64 234.029H1729.62M1674.64 234.029L1660.42 245.538M1674.64 234.029H1619.67M1674.64 234.029L1689.46 222.041M1729.62 234.029L1714.29 245.538M1729.62 234.029L1745.58 222.041M1729.62 234.029H1784.59M1660.42 245.538H1714.29M1660.42 245.538H1606.54M1660.42 245.538L1646.75 256.6M1619.67 234.029L1606.54 245.538M1619.67 234.029L1633.34 222.041M1689.46 222.041H1745.58M1689.46 222.041H1633.34M1714.29 245.538L1699.57 256.6M1714.29 245.538H1768.18M1745.58 222.041L1762.21 209.549M1745.58 222.041H1801.69M1784.59 234.029L1768.18 245.538M1784.59 234.029L1801.69 222.041M1784.59 234.029H1839.57M1606.54 245.538L1593.92 256.6M1646.75 256.6H1699.57M1646.75 256.6H1593.92M1646.75 256.6L1633.59 267.236M1699.57 256.6L1685.41 267.236M1699.57 256.6H1752.4M1768.18 245.538L1752.4 256.6M1768.18 245.538H1822.05M1620.94 277.474H1671.78M1620.94 277.474L1608.76 287.334M1620.94 277.474H1570.11M1620.94 277.474L1633.59 267.236M1671.78 277.474L1658.65 287.334M1671.78 277.474L1685.41 267.236M1671.78 277.474H1722.63M1608.76 287.334H1658.65M1608.76 287.334H1558.85M1608.76 287.334L1597.01 296.835M1570.11 277.474L1560.23 286.122L1558.85 287.334M1570.11 277.474L1581.79 267.236M1633.59 267.236H1685.41M1633.59 267.236H1581.79M1658.65 287.334L1646.01 296.835M1658.65 287.334H1708.56M1685.41 267.236H1737.23M1722.63 277.474L1708.56 287.334M1722.63 277.474L1737.23 267.236M1722.63 277.474H1773.47M1558.85 287.334L1548.01 296.835M1597.01 296.835H1646.01M1597.01 296.835H1548.01M1597.01 296.835L1585.69 306.001M1646.01 296.835L1633.8 306.001M1646.01 296.835H1695.01M1708.56 287.334L1695.01 296.835M1708.56 287.334H1758.47M1574.74 314.845H1622.03M1574.74 314.845L1564.19 323.386M1574.74 314.845H1527.45M1574.74 314.845L1585.69 306.001M1622.03 314.845L1610.67 323.386M1622.03 314.845L1633.8 306.001M1622.03 314.845H1669.32M1564.19 323.386H1610.67M1564.19 323.386L1553.99 331.638M1564.19 323.386H1517.71M1527.45 314.845L1517.71 323.386M1527.45 314.845L1537.55 306.001M1585.69 306.001H1633.8M1585.69 306.001H1537.55M1610.67 323.386H1657.14M1610.67 323.386L1599.68 331.638M1633.8 306.001H1681.94M1669.32 314.845L1657.14 323.386M1669.32 314.845L1681.94 306.001M1669.32 314.845H1716.61M1553.99 331.638H1599.68M1553.99 331.638H1508.29M1517.71 323.386L1508.29 331.638M1657.14 323.386H1703.62M1657.14 323.386L1645.37 331.638M1599.68 331.638H1645.37M1894.53 234.029L1875.92 245.538M1894.53 234.029H1839.57M1894.53 234.029L1913.92 222.041M1894.53 234.029H1919.49M1875.92 245.538H1822.05M1875.92 245.538L1858.05 256.6M1875.92 245.538H1919.49M1839.57 234.029L1822.05 245.538M1839.57 234.029L1857.8 222.041M1913.92 222.041H1857.8M1913.92 222.041H1919.49M1913.92 222.041L1919.49 218.595M1919.49 234.029V245.538M1919.49 234.029V222.041M1822.05 245.538L1805.22 256.6M1858.05 256.6H1910.87M1858.05 256.6H1805.22M1858.05 256.6L1840.86 267.236M1919.49 245.538V251.572M1824.32 277.474H1875.15M1824.32 277.474L1808.37 287.334M1824.32 277.474H1773.47M1824.32 277.474L1840.86 267.236M1875.15 277.474L1858.28 287.334M1875.15 277.474L1892.67 267.236M1875.15 277.474H1919.49M1808.37 287.334H1858.28M1808.37 287.334H1758.47M1808.37 287.334L1793.01 296.835M1773.47 277.474L1758.47 287.334M1773.47 277.474L1789.04 267.236M1840.86 267.236H1892.67M1840.86 267.236H1789.04M1858.28 287.334L1842.01 296.835M1858.28 287.334H1908.17M1892.67 267.236L1910.87 256.6M1892.67 267.236H1919.49M1919.49 277.474H1919.64M1919.49 277.474V281.078M1919.49 277.474V267.236M1758.47 287.334L1744.01 296.835M1793.01 296.835H1842.01M1793.01 296.835H1744.01M1793.01 296.835L1778.2 306.001M1842.01 296.835L1826.33 306.001M1842.01 296.835H1891.02M1908.17 287.334L1891.02 296.835M1908.17 287.334L1919.49 281.078M1908.17 287.334H1919.49M1763.9 314.845H1811.19M1763.9 314.845L1750.1 323.386M1763.9 314.845H1716.61M1763.9 314.845L1778.2 306.001M1811.19 314.845L1796.57 323.386M1811.19 314.845L1826.33 306.001M1811.19 314.845H1858.48M1750.1 323.386H1796.57M1750.1 323.386L1736.76 331.638M1750.1 323.386H1703.62M1716.61 314.845L1703.62 323.386M1716.61 314.845L1730.07 306.001M1778.2 306.001H1826.33M1778.2 306.001H1730.07M1796.57 323.386H1843.04M1796.57 323.386L1782.45 331.638M1826.33 306.001H1874.46M1858.48 314.845L1843.04 323.386M1858.48 314.845L1874.46 306.001M1858.48 314.845H1905.76M1736.76 331.638H1782.45M1736.76 331.638H1691.06M1703.62 323.386L1691.06 331.638M1843.04 323.386H1889.53M1843.04 323.386L1828.14 331.638M1782.45 331.638H1828.14M1874.46 306.001L1891.02 296.835M1874.46 306.001H1919.49M1905.76 314.845L1889.53 323.386M1905.76 314.845L1919.49 307.633M1905.76 314.845H1919.49M1889.53 323.386L1873.83 331.638M1889.53 323.386H1919.49M1828.14 331.638H1873.83M1828.14 331.638L1813.73 339.616M1891.02 296.835H1919.49M1919.49 306.001V307.633M1919.49 306.001V296.835M1919.49 307.633V314.845M1919.49 314.845V323.386M1873.83 331.638L1858.66 339.616M1873.83 331.638H1919.49M1919.49 323.386V331.638M1813.73 339.616H1858.66M1919.49 331.638H1919.53L1919.49 331.658M1919.49 331.638V331.658M1919.49 281.078V287.334M1919.49 287.334V296.835M1744.01 296.835L1730.07 306.001M1744.01 296.835H1695.01M1730.07 306.001H1681.94M1910.87 256.6L1919.49 251.572M1910.87 256.6H1919.49M1919.49 267.236V256.6M1919.49 251.572V256.6M1805.22 256.6L1789.04 267.236M1805.22 256.6H1752.4M1789.04 267.236H1737.23M1681.94 306.001L1695.01 296.835M1645.37 331.638H1691.06M1645.37 331.638L1633.99 339.616M1691.06 331.638L1678.93 339.616M1633.99 339.616H1678.93M1548.01 296.835L1537.55 306.001M1548.01 296.835H1499.01M1537.55 306.001H1489.42M1737.23 267.236L1752.4 256.6M1593.92 256.6L1581.79 267.236M1593.92 256.6H1541.1M1581.79 267.236H1529.97M1801.69 222.041L1819.51 209.549M1801.69 222.041H1857.8M1857.8 222.041L1876.81 209.549L1896.64 196.513M1919.49 222.041V218.595M1919.49 218.595V209.547M1819.51 209.547H1876.81H1919.49M1838.1 196.511H1896.64M1896.64 196.511L1917.34 182.902M1896.64 196.511H1919.49M1919.49 209.547H1919.79M1919.49 209.547V196.513V182.902M1633.34 222.041H1577.23M1633.34 222.041L1647.61 209.549L1662.47 196.513M1917.34 182.902L1919.49 181.497M1917.34 182.902H1919.49M1919.49 181.497L1920 181.158M1919.49 181.497V182.902M1919.49 181.497V168.674M1877.81 168.674H1816.61H1755.43M1877.81 168.674L1899.04 153.789M1877.81 168.674H1919.49M1755.43 168.674H1694.25M1899.04 153.789H1919.49M1899.04 153.789L1919.49 139.451M1919.49 168.674V153.789M1919.49 153.789V139.451M1711.22 153.789L1694.25 168.674M1711.22 153.789H1648.62M1694.25 168.674H1633.05M1901.79 104.693H1834.52M1901.79 104.693L1919.49 91.4009M1901.79 104.693H1919.49M1919.49 91.4009L1919.68 91.2532M1919.49 91.4009V104.691V121.853M1919.49 91.4009V86.6601M1919.97 121.853H1919.49M1489.42 306.001L1499.01 296.835M1462.61 331.638H1508.29M1462.61 331.638L1454.26 339.616M1508.29 331.638L1507.15 332.651L1504.84 334.661L1499.19 339.616M1454.26 339.616H1499.19M1352.01 296.835L1345.03 306.001M1352.01 296.835H1303.01M1345.03 306.001H1296.9M1529.97 267.236L1541.1 256.6M1382.61 256.6L1374.53 267.236M1382.61 256.6H1329.79M1374.53 267.236H1322.71M1577.23 222.041L1590.31 209.549H1533.01M1533.01 209.549H1475.7M1465.01 222.043H1408.9M1633.05 168.674H1571.87H1510.68M1633.05 168.674L1648.62 153.789M1510.68 168.674H1449.49M1460.82 153.789L1449.49 168.674M1460.82 153.789H1398.22M1449.49 168.674H1388.31M1682.03 121.851L1699.98 104.693M1699.98 104.693L1718.83 86.6601M1699.98 104.693H1767.24L1787.83 86.6601M1718.83 86.6601H1787.83M1787.83 86.6601L1809.47 67.6814M1511.89 86.6601L1498.17 104.693M1511.89 86.6601H1442.9M1498.17 104.693H1430.89M1781.68 26.5811H1706.97M1781.68 26.5811L1805 4.2843M1781.68 26.5811H1856.37M1856.37 26.5811L1881.81 4.28628M1706.97 26.5811L1728.17 4.2843M1881.81 4.28628H1805M1881.81 4.28628L1908.74 -19.315M1881.81 4.28628H1919.49M1856.37 26.5831H1919.49M1919.49 26.5831V4.28628M1908.74 -19.315H1919.49M1908.74 -19.315L1919.49 -28.7295M1574.54 4.28628L1557.58 26.5831M1574.54 4.28628H1497.72M1919.49 4.28628V-19.315M1557.58 26.5831H1482.88M1919.49 -44.3369V-28.7295M1919.49 -44.3369V-70.9115V-99.1865M1919.49 -19.315V-28.7295M1799.68 -70.9135L1826.57 -99.1885M1799.68 -70.9135H1883.64M1799.68 -70.9135H1715.71M1826.57 -99.1885H1913.22M1826.57 -99.1885H1739.9M1883.64 -70.9135L1913.22 -99.1885M1883.64 -70.9135H1919.49M1715.71 -70.9135L1739.9 -99.1885M1715.71 -70.9135H1631.74M1913.22 -99.1885L1919.49 -105.179M1739.9 -99.1885H1653.25M1653.25 -99.1885L1631.74 -70.9135M1653.25 -99.1885H1566.59M1631.74 -70.9135L1611.52 -44.3389M1631.74 -70.9135H1547.77M1918.66 -196.037H1822.79M1918.66 -196.037H1919.49M1918.66 -196.037L1919.49 -196.912M1822.79 -196.037H1726.92M1726.92 -196.037L1700.69 -161.545M1726.92 -196.037H1631.05M1726.92 -196.037L1755.09 -233.062M1296.9 306.001L1298.41 303.741L1303.01 296.835M1279.84 331.638H1325.53M1279.84 331.638L1274.53 339.616M1325.53 331.638L1323.23 334.661L1319.46 339.616M1274.53 339.616H1319.46M1156 296.835L1155.12 299.158L1152.52 306.001M1156 296.835H1107M1152.52 306.001H1104.39M1322.71 267.236L1329.79 256.6M1171.31 256.6L1170.79 257.952L1170.28 259.297L1167.26 267.236M1171.31 256.6H1118.48M1167.26 267.236H1115.45M1352.78 222.041L1361.11 209.549H1303.8H1246.5M1352.78 222.041H1408.9M1408.9 222.041L1418.4 209.549L1428.32 196.513M1240.56 222.043H1184.45M1388.31 168.674L1398.22 153.789M1210.41 153.789L1204.75 168.674M1210.41 153.789H1147.81M1204.75 168.674H1143.56M1419.47 121.851L1430.89 104.693M1430.89 104.693L1442.9 86.6601M1485.12 121.853L1498.17 104.691M1235.94 86.6601L1229.08 104.693M1235.94 86.6601H1166.96M1229.08 104.693H1161.81M1482.88 26.5831L1497.72 4.28628M1267.27 4.28628L1258.79 26.5831M1267.27 4.28628H1190.45M1333.49 26.5811H1258.79M1547.77 -70.9135L1530.09 -44.3389H1611.52M1547.77 -70.9135H1463.81M1547.77 -70.9135L1566.59 -99.1885M1463.81 -70.9135L1479.94 -99.1885M1463.81 -70.9135H1379.85M1479.94 -99.1885H1566.59M1479.94 -99.1885H1393.28M1379.85 -70.9135L1393.28 -99.1885M1379.85 -70.9135H1295.87M1393.28 -99.1885H1306.63M1608.1 -161.545L1631.05 -196.037M1608.1 -161.545H1700.69M1306.63 -99.1885L1295.87 -70.9135M1306.63 -99.1885H1219.97M1295.87 -70.9135L1285.76 -44.3389M1295.87 -70.9135H1211.9M1631.05 -196.037H1535.2M1631.05 -196.037L1655.7 -233.062M1535.2 -196.037H1439.33M1439.33 -196.037H1343.46M1655.7 -233.062L1682.23 -272.909M1655.7 -233.062H1755.09M1755.09 -233.062L1785.39 -272.909M1682.23 -272.909L1710.84 -315.915M1682.23 -272.909H1785.39M1710.84 -315.915L1741.83 -362.471M1710.84 -315.915H1818.11M1785.39 -272.909L1818.11 -315.915M1357.54 -233.062L1343.46 -196.037M1357.54 -233.062H1258.16M1357.54 -233.062L1372.69 -272.909M1343.46 -196.037L1330.34 -161.545M1343.46 -196.037H1247.6M1741.83 -362.471L1775.49 -413.035M1741.83 -362.471H1853.52M1818.11 -315.915L1853.52 -362.471M1818.11 -315.915H1919.49M1853.52 -362.471L1891.99 -413.035M1853.52 -362.471H1919.49M1775.49 -413.035H1891.99M1891.99 -413.035H1919.49M1891.99 -413.035L1919.49 -449.184M1919.49 -362.471V-413.035M1852.31 -528.453L1896.41 -594.721M1852.31 -528.453H1919.49M1919.49 -468.149V-449.182V-413.035M1919.49 -468.149V-528.451V-594.721M1425.99 -413.035L1406.76 -362.471M1425.99 -413.035H1309.5M1406.76 -362.471L1389.05 -315.915M1406.76 -362.471H1295.07M1896.41 -594.721L1919.49 -629.38M1896.41 -594.721H1919.49M1804.38 -667.879H1663.64M1804.38 -667.879H1919.49M1919.49 -629.38V-594.721M1919.49 -629.38V-667.879M1663.64 -667.879H1522.92M1919.49 -667.879V-668.137H0.516214V-667.879M1522.92 -667.879L1495.1 -594.721M1522.92 -667.879H1382.19M1495.1 -594.721L1469.89 -528.453M1495.1 -594.721H1361.32M1104.39 306.001L1104.71 304.872L1105.03 303.741L1105.36 302.603L1105.68 301.46L1107 296.835M1097.07 331.638L1096.79 332.651L1096.21 334.661L1095.64 336.657L1095.36 337.648L1094.8 339.616M1097.07 331.638H1142.77M1142.77 331.638L1140.11 338.635L1139.73 339.616M1094.8 339.616H1139.73M960 296.835V306.001M960 296.835H910.999M960 306.001H911.871M1115.45 267.236L1118.48 256.6M960 256.6V267.236M960 256.6H907.174M960 267.236H908.185M1184.45 222.041H1128.34M1128.34 222.041L1131.9 209.549H1074.6H1017.3M1016.11 222.043H960M1143.56 168.674H1082.37H1021.19M1143.56 168.674L1147.81 153.789M1139.5 182.9H1199.34M1021.19 168.674H960M960 153.789V168.674M960 153.789H897.397M960 168.674H898.813M1156.92 121.851L1161.81 104.693M1161.81 104.693L1166.96 86.6601M1222.56 121.853L1229.08 104.691M960 86.6601V104.693M960 86.6601H891.016M960 104.693H892.729M1258.79 26.5831H1184.09M1184.09 26.5831L1190.45 4.28628M960 4.28628V26.5831M960 4.28628H883.183M1034.7 26.5811H960M1211.9 -70.9135L1204.32 -44.3389H1285.76M1211.9 -70.9135H1127.94M1211.9 -70.9135L1219.97 -99.1885M1127.94 -70.9135L1133.31 -99.1885M1127.94 -70.9135H1043.97M1133.31 -99.1885H1219.97M1133.31 -99.1885H1046.66M1043.97 -70.9135L1046.66 -99.1885M1043.97 -70.9135H960M1046.66 -99.1885H960M1237.76 -161.545L1247.6 -196.037M1237.76 -161.545H1330.34M960 -99.1885V-70.9135M960 -99.1885H873.343M960 -70.9135V-44.3389M960 -70.9135H876.032M1247.6 -196.037H1151.73M1247.6 -196.037L1258.16 -233.062M1151.73 -196.037H1055.87M1055.87 -196.037H960M1258.16 -233.062L1269.52 -272.909M1269.52 -272.909L1281.79 -315.915M1269.52 -272.909H1372.69M1281.79 -315.915L1295.07 -362.471M1281.79 -315.915H1389.05M1372.69 -272.909L1389.05 -315.915M960 -233.062V-196.037M960 -233.062H860.614M960 -196.037V-161.545M960 -196.037H864.134M1295.07 -362.471L1309.5 -413.035M1342.42 -528.453L1361.32 -594.721M1342.42 -528.453H1469.89M960 -413.035V-362.471M960 -413.035L843.502 -413.033M960 -362.471L848.309 -362.469M1361.32 -594.721L1382.19 -667.879M1241.46 -667.879H1382.19M1241.46 -667.879H1100.73M1100.73 -667.879H960M960 -667.879V-594.721M960 -667.879L819.27 -667.877M960 -594.721L826.226 -594.719M911.871 306.001L911.763 304.872L911.656 303.741L911.547 302.603L910.999 296.835M914.308 331.638H960M914.308 331.638L914.596 334.661L914.692 335.662L915.067 339.616M960 331.638V339.616M915.067 339.616H960M763.998 296.835L764.88 299.158L767.483 306.001M763.998 296.835H714.997M767.483 306.001H719.353M908.185 267.236L907.174 256.6M748.693 256.6L752.74 267.236M748.693 256.6H695.867M752.74 267.236H700.925M960 222.041H903.887M960 222.041V209.549M903.887 222.041L903.596 218.968L903.002 212.721L902.7 209.549H845.399H788.098M960 209.551V196.515M898.813 168.674L897.397 153.789M709.591 153.789L715.251 168.674M709.591 153.789H646.989M715.251 168.674H654.066M894.362 121.851L892.729 104.693M892.729 104.693L891.016 86.6601M960 121.853V104.691M684.059 86.6601L690.918 104.693M684.059 86.6601H615.074M690.918 104.693H623.647M960 26.5831H885.302M885.302 26.5831L883.183 4.28628M652.729 4.28628L661.21 26.5831M652.729 4.28628H575.912M735.908 26.5811H661.21M876.032 -70.9135L878.559 -44.3389H960M876.032 -70.9135H792.065M876.032 -70.9135L873.343 -99.1885M792.065 -70.9135L786.688 -99.1885M792.065 -70.9135H708.097M786.688 -99.1885H873.343M786.688 -99.1885H700.031M708.097 -70.9135L700.031 -99.1885M708.097 -70.9135H624.129M700.031 -99.1885H613.374M867.415 -161.545L864.134 -196.037M867.415 -161.545H960M613.374 -99.1885L624.129 -70.9135M613.374 -99.1885H526.719M624.129 -70.9135L634.236 -44.3389M624.129 -70.9135H540.161M864.134 -196.037H768.27M864.134 -196.037L860.614 -233.062M860.614 -233.062L856.826 -272.909M856.826 -272.909L852.737 -315.915M856.826 -272.909H960M562.459 -233.062L576.54 -196.037M562.459 -233.062H463.073M562.459 -233.062L547.303 -272.909M848.309 -362.469L843.502 -413.033M494.008 -413.033L513.239 -362.469M494.008 -413.033L377.509 -413.035M513.239 -362.469L530.945 -315.915M513.239 -362.469L401.547 -362.471M826.226 -594.719L819.27 -667.877M678.541 -667.877H819.27M678.541 -667.877H537.811M537.811 -667.877H397.08M397.08 -667.877L424.905 -594.719M397.08 -667.877L256.352 -667.879M424.905 -594.719L450.11 -528.453M424.905 -594.719L291.133 -594.721M719.353 306.001L714.997 296.835M731.542 331.638H777.234M731.542 331.638L734.399 337.648L735.335 339.616M777.234 331.638L777.619 332.651L778.384 334.661L780.268 339.616M735.335 339.616H780.268M567.995 296.835L574.965 306.001M567.995 296.835H518.994M574.965 306.001H526.836M700.925 267.236L695.867 256.6M537.388 256.6L544.485 265.93L545.479 267.236M537.388 256.6H484.562M545.479 267.236H493.663M679.438 222.041L673.497 209.549H616.198H558.896M667.3 196.511H725.84M567.213 222.043H511.101M654.066 168.674H592.878H531.691M654.066 168.674L646.989 153.789M660.829 182.9H720.662M531.691 168.674H470.504M459.182 153.789L470.504 168.674M459.182 153.789H396.58M470.504 168.674H409.318M631.805 121.851L623.647 104.693M623.647 104.693L615.074 86.6601M697.445 121.853L690.918 104.691M408.119 86.6601L421.836 104.693M408.119 86.6601H339.133M421.836 104.693H354.565M661.21 26.5831H586.513M586.513 26.5831L575.912 4.28628M345.459 4.28628L362.42 26.5831M345.459 4.28628H268.642M437.117 26.5811H362.42M540.161 -70.9135L552.795 -44.3389H634.236M540.161 -70.9135H456.194M540.161 -70.9135L526.719 -99.1885M456.194 -70.9135L440.062 -99.1885M456.194 -70.9135H372.226M440.062 -99.1885H526.719M440.062 -99.1885H353.405M372.226 -70.9135L353.405 -99.1885M372.226 -70.9135H288.258M353.405 -99.1885H266.75M497.072 -161.545L480.676 -196.037M497.072 -161.545H589.659M266.75 -99.1885L288.258 -70.9135M288.258 -70.9135H204.29M480.676 -196.037H384.81M480.676 -196.037L463.073 -233.062M480.676 -196.037H576.54M589.659 -161.545L576.54 -196.037M384.81 -196.037H288.944M288.944 -196.037H193.079M463.073 -233.062L444.128 -272.909M444.128 -272.909L423.681 -315.915M444.128 -272.909H547.303M423.681 -315.915L401.547 -362.471M423.681 -315.915H530.945M547.303 -272.909L530.945 -315.915M164.916 -233.062L193.079 -196.037M164.916 -233.062H65.5302M193.079 -196.037L219.316 -161.545M193.079 -196.037H97.2142M401.547 -362.471L377.509 -413.035M322.636 -528.453L291.133 -594.721M322.636 -528.453H450.11M28.0138 -413.035L66.4784 -362.469H0.516214M28.0138 -413.035L0.51753 -413.033M28.0138 -413.035L0.51753 -449.182M291.133 -594.721L256.352 -667.879M115.62 -667.879H256.352M115.62 -667.879H0.516214M0.516214 -667.879V-629.38V-594.719M0.516214 -594.719V-528.455V-468.149V-449.184V-413.035V-362.469M526.836 306.001L518.994 296.835M548.776 331.638L549.642 332.651L555.604 339.616M548.776 331.638H594.468M594.468 331.638L596.767 334.661L600.537 339.616M555.604 339.616H600.537M371.991 296.835L382.447 306.001M371.991 296.835H322.989M493.663 267.236L484.562 256.6M326.081 256.6L338.218 267.236M326.081 256.6H273.254M338.218 267.236L349.897 277.474M338.218 267.236H286.401M454.987 222.041L444.296 209.549H386.996M454.987 222.041H511.101M511.101 222.041L501.595 209.549L491.681 196.513M386.996 209.549H329.695M342.763 222.043H286.65M409.318 168.674H348.131H286.944M409.318 168.674L396.58 153.789M286.944 168.674H225.757M208.773 153.789L225.757 168.674M208.773 153.789H146.17M225.757 168.674H164.57M369.25 121.851L354.565 104.693M354.565 104.693L339.133 86.6601M434.888 121.853L421.836 104.691M132.177 86.6601L152.753 104.691M132.177 86.6601L63.1914 86.6582M362.42 26.5831H287.723M287.723 26.5831L268.642 4.28628M38.188 4.28628L63.6313 26.5811M38.188 4.28628H0.516214M204.29 -70.9135L227.031 -44.3389H308.473M204.29 -70.9135H120.323H36.3549M204.29 -70.9135L180.093 -99.1885M93.4361 -99.1885H180.093M93.4361 -99.1885H6.77926L36.3549 -70.9135M36.3549 -70.9135H0.516214M180.093 -99.1885L154.293 -129.335M180.093 -99.1885H266.748M154.293 -129.335L126.731 -161.545M154.293 -129.335H243.815M126.731 -161.545L97.2142 -196.037M126.731 -161.545H219.316M0.516214 -99.1885H6.78058L0.516214 -105.179M0.516214 -99.1885V-105.179M0.516214 -99.1885V-70.9135M0.516214 -70.9135V-44.3389V-28.7335V-19.315M97.2142 -196.037H1.34979M97.2142 -196.037L65.5302 -233.062M1.34979 -196.037H0.516214M1.34979 -196.037L0.516214 -196.912M0.516214 -196.037V-196.912M0.516214 -196.912V-233.06M65.5302 -233.062L31.4298 -272.908M65.5302 -233.062L0.516214 -233.06M31.4298 -272.908H0.516214M31.4298 -272.908L0.516214 -309.031M0.516214 -309.031V-315.915V-362.469M0.516214 -309.031V-272.909V-233.06M273.988 296.835H322.989M273.988 296.835H224.989M334.318 306.001L345.251 314.845M334.318 306.001L322.989 296.835M334.318 306.001H382.447M345.251 314.845L355.808 323.386M345.251 314.845H392.54M355.808 323.386L366.009 331.638M392.54 314.845L382.447 306.001M366.009 331.638H320.317M366.009 331.638L367.259 332.651L375.87 339.616M366.009 331.638H411.7M320.317 331.638L330.938 339.616M411.7 331.638H457.392L465.736 339.616M411.7 331.638L412.854 332.651L420.803 339.616M224.989 296.835H175.988L189.93 306.001M189.93 306.001H141.802M286.401 267.236L273.254 256.6M220.427 256.6H273.254M273.254 256.6L259.582 245.538M259.582 245.538L245.354 234.029M259.582 245.538H313.46M114.775 256.6L130.958 267.236M114.775 256.6H61.9483M130.958 267.236H79.1427M230.538 222.041L215.094 209.549H157.793M230.538 222.041H286.65M286.65 222.041L272.394 209.549L257.521 196.513M157.793 209.549H100.493M43.1921 209.547L62.2025 222.043H118.314M164.57 168.674L146.17 153.789M106.693 121.851L85.4835 104.693L63.1914 86.6582M172.333 121.853L152.753 104.691M152.753 104.691H85.4835H18.2123M18.2123 104.691H0.516214M18.2123 104.691L0.516214 91.4009M0.516214 91.4009L0.321317 91.2532M0.516214 91.4009V86.6601M63.1914 86.6582L39.7327 67.6794M63.1914 86.6582L0.516214 86.6601M39.734 67.6814L15.0163 47.6859M39.734 67.6814H0.51753M0.51753 67.6814L0.516214 47.684M0.51753 67.6814L0.516214 86.6601M15.015 47.684H0.516214M15.015 47.684L0.516214 35.9543M0.516214 47.684V35.9543M0.516214 35.9543V26.5811V4.2843V-19.315M63.6313 26.5831H0.516214M93.6731 306.001L77.9891 296.835M93.6731 306.001H141.802M77.9891 296.835H126.987M77.9891 296.835H28.987M141.802 306.001L126.987 296.835M183.243 331.638H228.933M183.243 331.638L196.139 339.616M228.933 331.638L241.072 339.616M28.987 296.835H0.516214M79.1427 267.236L61.9483 256.6M9.12198 256.6H61.9483M9.12198 256.6L0.516214 251.572M9.12198 256.6H0.516214M61.9483 256.6L44.0705 245.538M44.0705 245.538L25.4657 234.029M44.0705 245.538H0.516214M25.4657 234.029L6.09054 222.041M25.4657 234.029H0.516214M0.516214 251.572V256.6M6.09054 222.041L0.516214 218.595M6.08922 222.043H0.516214M43.1934 209.549H0.516214H0.217284M0.516214 182.904H2.6535L0.516214 181.499M0 181.158L0.516214 181.497M0.516214 314.845V323.384V331.636M46.1695 331.638L61.3399 339.616M46.1695 331.638H0.516214M61.3399 339.616H16.4082M420.804 339.616H375.871M241.073 339.616H196.14M16.4082 339.616L0.516214 331.658M16.4082 339.616H0.516214M1919.49 331.658V339.616M0.516214 138.2V121.849M0.516214 331.636H0.476708L0.516214 331.656M0.516214 331.636V331.656M0.516214 331.656V339.614V347.332" stroke="url(#paint0_linear_617_64919)" stroke-opacity="0.35" stroke-width="1.012" stroke-miterlimit="10" stroke-linecap="round" stroke-linejoin="round"/>
<defs>
<linearGradient id="paint0_linear_617_64919" x1="960" y1="354.804" x2="960" y2="-362.404" gradientUnits="userSpaceOnUse">
<stop stopColor="#CED2DF" stopOpacity="0"/>
<stop offset="1" stopColor="#CED2DF"/>
</linearGradient>
</defs>
</svg>
