<?xml version="1.0" encoding="UTF-8"?>
<svg version="1.1" xmlns="http://www.w3.org/2000/svg" width="196" height="165">
<path d="M0 0 C0.97744971 15.65208404 1.14767477 31.25426031 1.1328125 46.93359375 C1.13348781 49.47135935 1.13445972 52.00912488 1.13571167 54.54689026 C1.13717392 59.82040918 1.13517753 65.09391526 1.13037109 70.36743164 C1.1248898 76.45143959 1.12672714 82.53541422 1.1321975 88.61942142 C1.13728333 94.51410158 1.13674544 100.40877141 1.13381577 106.30345345 C1.13314947 108.79734362 1.13396453 111.29123465 1.13629532 113.78512383 C1.13883072 117.2544775 1.13497061 120.7237664 1.12939453 124.19311523 C1.13141876 125.21905289 1.13344299 126.24499054 1.13552856 127.30201721 C1.13270874 128.24761505 1.12988892 129.19321289 1.12698364 130.16746521 C1.1264181 131.39366152 1.1264181 131.39366152 1.12584114 132.64462948 C0.99068339 135.17437922 0.55283373 137.53058294 0 140 C-19.6866485 138.65667575 -19.6866485 138.65667575 -27 135 C-27 114.54 -27 94.08 -27 73 C-40.34119628 77.91813888 -40.34119628 77.91813888 -53 84 C-53.03758423 85.89274658 -53.03758423 85.89274658 -53.07592773 87.82373047 C-53.16992106 92.49408569 -53.27016131 97.16428937 -53.37231445 101.83447266 C-53.41569395 103.85787416 -53.45736678 105.88131299 -53.49731445 107.90478516 C-53.55494408 110.80903384 -53.6186594 113.71309411 -53.68359375 116.6171875 C-53.70030624 117.52556366 -53.71701874 118.43393982 -53.73423767 119.36984253 C-53.75418289 120.21056305 -53.77412811 121.05128357 -53.79467773 121.91748047 C-53.81022202 122.65916473 -53.8257663 123.400849 -53.84178162 124.16500854 C-54 126 -54 126 -55 128 C-57.81256281 128.02684312 -60.62487241 128.04676188 -63.4375 128.0625 C-64.23994141 128.07087891 -65.04238281 128.07925781 -65.86914062 128.08789062 C-67.91295221 128.0965143 -69.95683902 128.0522815 -72 128 C-74.03123075 125.96876925 -73.25669618 121.82231134 -73.31640625 119.02734375 C-73.33718735 118.22970108 -73.35796844 117.43205841 -73.37937927 116.61024475 C-73.44496158 114.05275389 -73.50379967 111.4951572 -73.5625 108.9375 C-73.60567699 107.20767118 -73.64929101 105.47785321 -73.69335938 103.74804688 C-73.80065172 99.4988074 -73.90189426 95.2494611 -74 91 C-76.24079152 92.4291262 -78.48015078 93.86041568 -80.71875 95.29296875 C-81.3487793 95.69447144 -81.97880859 96.09597412 -82.62792969 96.50964355 C-92.26963921 102.68675707 -100.78927836 110.15201201 -109.42285156 117.63867188 C-110.75020021 118.78438334 -112.08869457 119.91716391 -113.4296875 121.046875 C-118.6905466 125.50939361 -123.11408991 130.47277655 -127.4765625 135.8046875 C-130.84615385 139.92307692 -130.84615385 139.92307692 -133 141 C-135.44293817 141.19256516 -137.86146604 141.33082268 -140.30859375 141.421875 C-141.03111832 141.44977112 -141.75364288 141.47766724 -142.49806213 141.50640869 C-144.02701211 141.56281221 -145.55606704 141.61642893 -147.08520508 141.66748047 C-149.42545047 141.7495773 -151.76415194 141.85310331 -154.10351562 141.95703125 C-155.58849552 142.00914459 -157.07352133 142.05996871 -158.55859375 142.109375 C-159.60870888 142.16070587 -159.60870888 142.16070587 -160.68003845 142.21307373 C-165.55662535 142.33998116 -165.55662535 142.33998116 -167.96508789 140.49316406 C-168.47736938 139.75404785 -168.47736938 139.75404785 -169 139 C-161.04146152 127.29626694 -150.25167106 117.47793042 -139 109 C-137.70968815 107.9950917 -136.42074272 106.98842762 -135.1328125 105.98046875 C-115.9287505 91.01649404 -95.45447664 77.67977673 -73.45654297 67.17675781 C-70.48640464 65.75397241 -67.5267361 64.31026792 -64.56640625 62.8671875 C-62.21125168 61.72331123 -59.85578106 60.58008547 -57.5 59.4375 C-56.40872803 58.90713135 -55.31745605 58.3767627 -54.19311523 57.83032227 C-45.53929117 53.65928577 -36.81871116 49.85818613 -28 46 C-27.67 32.8 -27.34 19.6 -27 6 C-21.77065278 4.25688426 -16.56909943 2.73335533 -11.25 1.3125 C-10.38761719 1.07466797 -9.52523437 0.83683594 -8.63671875 0.59179688 C-7.81300781 0.37201172 -6.98929688 0.15222656 -6.140625 -0.07421875 C-5.39329102 -0.27619873 -4.64595703 -0.47817871 -3.87597656 -0.6862793 C-2 -1 -2 -1 0 0 Z " fill="#64BC41" transform="translate(176,10)"/>
<path d="M0 0 C0.33 0.66 0.66 1.32 1 2 C0.05125 2.2475 -0.8975 2.495 -1.875 2.75 C-5.43559968 4.17423987 -5.51742659 4.71715887 -7 8 C-9.125 8.75 -9.125 8.75 -11 9 C-11.33 10.32 -11.66 11.64 -12 13 C-10.35 12.67 -8.7 12.34 -7 12 C-10.32486381 14.74054368 -13.83057886 16.42376049 -17.75 18.1875 C-18.92046875 18.71730469 -20.0909375 19.24710938 -21.296875 19.79296875 C-22.63492188 20.39044922 -22.63492188 20.39044922 -24 21 C-24.03758423 22.89274658 -24.03758423 22.89274658 -24.07592773 24.82373047 C-24.16992106 29.49408569 -24.27016131 34.16428937 -24.37231445 38.83447266 C-24.41569395 40.85787416 -24.45736678 42.88131299 -24.49731445 44.90478516 C-24.55494408 47.80903384 -24.6186594 50.71309411 -24.68359375 53.6171875 C-24.70030624 54.52556366 -24.71701874 55.43393982 -24.73423767 56.36984253 C-24.75418289 57.21056305 -24.77412811 58.05128357 -24.79467773 58.91748047 C-24.81022202 59.65916473 -24.8257663 60.400849 -24.84178162 61.16500854 C-25 63 -25 63 -26 65 C-28.81256281 65.02684312 -31.62487241 65.04676188 -34.4375 65.0625 C-35.23994141 65.07087891 -36.04238281 65.07925781 -36.86914062 65.08789062 C-38.91295221 65.0965143 -40.95683902 65.0522815 -43 65 C-45.03123075 62.96876925 -44.25669618 58.82231134 -44.31640625 56.02734375 C-44.33718735 55.22970108 -44.35796844 54.43205841 -44.37937927 53.61024475 C-44.44496158 51.05275389 -44.50379967 48.4951572 -44.5625 45.9375 C-44.60567699 44.20767118 -44.64929101 42.47785321 -44.69335938 40.74804688 C-44.80065172 36.4988074 -44.90189426 32.2494611 -45 28 C-47.24079152 29.4291262 -49.48015078 30.86041568 -51.71875 32.29296875 C-52.3487793 32.69447144 -52.97880859 33.09597412 -53.62792969 33.50964355 C-63.26963921 39.68675707 -71.78927836 47.15201201 -80.42285156 54.63867188 C-81.75020021 55.78438334 -83.08869457 56.91716391 -84.4296875 58.046875 C-89.6905466 62.50939361 -94.11408991 67.47277655 -98.4765625 72.8046875 C-101.84615385 76.92307692 -101.84615385 76.92307692 -104 78 C-106.44293817 78.19256516 -108.86146604 78.33082268 -111.30859375 78.421875 C-112.3923806 78.46371918 -112.3923806 78.46371918 -113.49806213 78.50640869 C-115.02701211 78.56281221 -116.55606704 78.61642893 -118.08520508 78.66748047 C-120.42545047 78.7495773 -122.76415194 78.85310331 -125.10351562 78.95703125 C-126.58849552 79.00914459 -128.07352133 79.05996871 -129.55859375 79.109375 C-130.2586705 79.14359558 -130.95874725 79.17781616 -131.68003845 79.21307373 C-136.55662535 79.33998116 -136.55662535 79.33998116 -138.96508789 77.49316406 C-139.30660889 77.00041992 -139.64812988 76.50767578 -140 76 C-132.04146152 64.29626694 -121.25167106 54.47793042 -110 46 C-108.70968815 44.9950917 -107.42074272 43.98842762 -106.1328125 42.98046875 C-99.15064232 37.54125318 -92.10182679 32.24430841 -84.75 27.3125 C-84.14260986 26.90273926 -83.53521973 26.49297852 -82.90942383 26.07080078 C-79.71300368 23.96440617 -76.61413399 22.27038169 -73 21 C-72.505 22.485 -72.505 22.485 -72 24 C-73.32 24 -74.64 24 -76 24 C-76 24.66 -76 25.32 -76 26 C-77.32 26.33 -78.64 26.66 -80 27 C-80 27.66 -80 28.32 -80 29 C-80.495 29.495 -80.495 29.495 -81 30 C-78.32123523 29.36683742 -75.66123724 28.70103062 -73 28 C-71.97132812 27.74283203 -71.97132812 27.74283203 -70.921875 27.48046875 C-62.59232805 25.08958027 -55.62981209 19.98629873 -48.4140625 15.33203125 C-44.84038819 13.1548952 -42.26355639 11.59644323 -38 12.0625 C-37.01 12.371875 -36.02 12.68125 -35 13 C-34.505 13.99 -34.505 13.99 -34 15 C-33.34 15 -32.68 15 -32 15 C-32.495 13.515 -32.495 13.515 -33 12 C-29.59996527 10.77947471 -26.2923607 9.84815342 -22.75 9.1875 C-18.22997146 8.23031748 -14.50754957 6.39298006 -10.44140625 4.2421875 C-7.05125781 2.51727998 -3.58537149 1.2615196 0 0 Z " fill="#67C143" transform="translate(147,73)"/>
<path d="M0 0 C3.6698551 1.45455203 5.07206987 3.19627738 7.09375 6.54296875 C7.92712891 7.90711914 7.92712891 7.90711914 8.77734375 9.29882812 C9.34582031 10.25208984 9.91429688 11.20535156 10.5 12.1875 C11.06847656 13.12142578 11.63695313 14.05535156 12.22265625 15.01757812 C13.33216249 16.84659015 14.43061736 18.68235874 15.51708984 20.52514648 C16.40147455 22.00111089 17.31449935 23.46134148 18.28369141 24.88305664 C21.58228969 29.87638123 21.53773978 34.29380301 21.375 40.0625 C21.37371094 40.93455078 21.37242188 41.80660156 21.37109375 42.70507812 C21.30669282 47.43139085 21.14592402 51.69498678 19 56 C14.41374783 59.47268375 8.72850803 61.54774937 3 62 C1.89485234 58.68455701 1.67892369 55.79589889 1.4375 52.3125 C1.35371094 51.13300781 1.26992187 49.95351563 1.18359375 48.73828125 C1.12300781 47.83464844 1.06242187 46.93101563 1 46 C0.10245178 47.26962275 -0.79280581 48.54086443 -1.6875 49.8125 C-2.32816406 50.71355469 -2.96882813 51.61460938 -3.62890625 52.54296875 C-5.47306886 55.18240148 -7.19426694 57.88401733 -8.90234375 60.61328125 C-15.56857994 71.08761774 -20.80140141 77.33901932 -32 83 C-42.98489131 89.9400133 -53.52582613 97.29754719 -62.90625 106.3125 C-65 108 -65 108 -68 108 C-67.47139983 103.41311464 -65.46680386 100.31581813 -62.875 96.625 C-61.95819734 95.28483682 -61.04293226 93.94362097 -60.12890625 92.6015625 C-59.37697998 91.50183105 -59.37697998 91.50183105 -58.60986328 90.37988281 C-55.61893703 85.9583558 -52.7211112 81.47591837 -49.8125 77 C-48.52356085 75.01945097 -47.23449655 73.03898338 -45.9453125 71.05859375 C-45.29594727 70.06069824 -44.64658203 69.06280273 -43.97753906 68.03466797 C-42.007359 65.01129289 -40.031888 61.991444 -38.0546875 58.97265625 C-32.22071426 50.06057737 -26.4087628 41.14162453 -20.79150391 32.09106445 C-17.08544537 26.12053481 -13.32962281 20.18216919 -9.5625 14.25 C-8.95849365 13.29601318 -8.3544873 12.34202637 -7.73217773 11.35913086 C-6.87668335 10.01347046 -6.87668335 10.01347046 -6.00390625 8.640625 C-5.49674072 7.84172852 -4.9895752 7.04283203 -4.46704102 6.21972656 C-3.0532788 4.08061422 -1.56067875 2.03367329 0 0 Z " fill="#7AC841" transform="translate(101,10)"/>
<path d="M0 0 C0.99 0.495 0.99 0.495 2 1 C0.73608512 2.00873016 -0.53640883 3.00671822 -1.8125 4 C-2.52019531 4.556875 -3.22789063 5.11375 -3.95703125 5.6875 C-6 7 -6 7 -9 7 C-9 7.66 -9 8.32 -9 9 C-10.52952876 10.37482452 -12.12522906 11.67665897 -13.75 12.9375 C-14.63171875 13.62714844 -15.5134375 14.31679687 -16.421875 15.02734375 C-18.02063819 16.25063983 -19.63764172 17.45093498 -21.28125 18.61328125 C-23.19124604 19.89902843 -23.19124604 19.89902843 -23.75 22.25 C-26.16836558 27.57040427 -31.57214612 30.86354487 -36.0625 34.4375 C-40.85938006 38.62201239 -44.79309164 43.51963566 -48.8125 48.4375 C-51 51 -51 51 -53 52 C-55.44293817 52.19256516 -57.86146604 52.33082268 -60.30859375 52.421875 C-61.03111832 52.44977112 -61.75364288 52.47766724 -62.49806213 52.50640869 C-64.02701211 52.56281221 -65.55606704 52.61642893 -67.08520508 52.66748047 C-69.42545047 52.7495773 -71.76415194 52.85310331 -74.10351562 52.95703125 C-75.58849552 53.00914459 -77.07352133 53.05996871 -78.55859375 53.109375 C-79.2586705 53.14359558 -79.95874725 53.17781616 -80.68003845 53.21307373 C-85.55662535 53.33998116 -85.55662535 53.33998116 -87.96508789 51.49316406 C-88.30660889 51.00041992 -88.64812988 50.50767578 -89 50 C-83.57499556 42.09499354 -76.84261278 35.65987238 -70 29 C-70 32 -70 32 -72 35 C-69.23844564 33.37555626 -66.636092 31.72900468 -64.0625 29.8125 C-60.67856492 27.80976291 -58.85718206 27.63264933 -55 28 C-55.66 27.34 -56.32 26.68 -57 26 C-56.875 24 -56.875 24 -56 22 C-53.85331506 20.61504198 -52.56128588 20 -50 20 C-49.4225 19.071875 -48.845 18.14375 -48.25 17.1875 C-45.75658481 13.65516181 -43.8961483 12.69397752 -40 11 C-39.34 10.34 -38.68 9.68 -38 9 C-35.875 8.375 -35.875 8.375 -34 8 C-33.505 9.485 -33.505 9.485 -33 11 C-34.66666667 12.66666667 -36.33333333 14.33333333 -38 16 C-38.70710678 17.64991582 -39.37943989 19.31562256 -40 21 C-39.38125 20.34644531 -39.38125 20.34644531 -38.75 19.6796875 C-31.84007652 12.55382891 -26.19562863 7.78623686 -16.3203125 5.640625 C-13.82927898 5.15822421 -13.82927898 5.15822421 -12 3 C-9.6875 2.40234375 -9.6875 2.40234375 -7 1.9375 C-3.38219325 1.32706347 -3.38219325 1.32706347 0 0 Z " fill="#23913A" transform="translate(96,99)"/>
<path d="M0 0 C-0.99 1.98 -1.98 3.96 -3 6 C-2.34 6.33 -1.68 6.66 -1 7 C-1.11804905 12.94496559 -1.24228286 18.88975706 -1.37231445 24.83447266 C-1.41569395 26.85787416 -1.45736678 28.88131299 -1.49731445 30.90478516 C-1.55494408 33.80903384 -1.6186594 36.71309411 -1.68359375 39.6171875 C-1.70866249 40.97975174 -1.70866249 40.97975174 -1.73423767 42.36984253 C-1.75418289 43.21056305 -1.77412811 44.05128357 -1.79467773 44.91748047 C-1.81022202 45.65916473 -1.8257663 46.400849 -1.84178162 47.16500854 C-2 49 -2 49 -3 51 C-5.81256281 51.02684312 -8.62487241 51.04676188 -11.4375 51.0625 C-12.23994141 51.07087891 -13.04238281 51.07925781 -13.86914062 51.08789062 C-15.91295221 51.0965143 -17.95683902 51.0522815 -20 51 C-22.93004571 48.06995429 -21.32352238 37.26948358 -21.35009766 33.109375 C-21.36663794 31.21016164 -21.39390259 29.31101004 -21.43212891 27.41210938 C-21.4869574 24.67545235 -21.50878247 21.94025768 -21.5234375 19.203125 C-21.54610687 18.35711731 -21.56877625 17.51110962 -21.59213257 16.63946533 C-21.57649822 12.26615789 -21.44172727 10.55414629 -18.62573242 7.02148438 C-16.12317059 5.0948259 -13.78525369 3.605654 -10.9375 2.25 C-10.10089844 1.84265625 -9.26429687 1.4353125 -8.40234375 1.015625 C-2.74889868 -1.37444934 -2.74889868 -1.37444934 0 0 Z " fill="#1B8D38" transform="translate(124,87)"/>
<path d="M0 0 C-0.49246889 6.52521284 -0.49246889 6.52521284 -2.9375 8.8125 C-3.618125 9.204375 -4.29875 9.59625 -5 10 C-5.66 10.66 -6.32 11.32 -7 12 C-8.65919896 12.36871088 -10.32774271 12.69595322 -12 13 C-15.03450044 13.88506263 -17.58280211 14.73154223 -20.24609375 16.4453125 C-24.48252289 18.836942 -29.03524804 19.73688317 -33.72265625 20.9375 C-36.81023821 21.93848009 -38.49485051 23.03605207 -41 25 C-41.99 25 -42.98 25 -44 25 C-44 25.66 -44 26.32 -44 27 C-44.91910156 27.36351563 -45.83820313 27.72703125 -46.78515625 28.1015625 C-52.22676926 30.4358325 -57.30222387 33.4424436 -62.4375 36.375 C-63.43587891 36.93960938 -64.43425781 37.50421875 -65.46289062 38.0859375 C-70.49689255 40.94548889 -75.46758091 43.85560903 -80.31469727 47.02319336 C-83.06716527 48.61853227 -85.91890418 49.28474561 -89 50 C-89.67289063 50.18433594 -90.34578125 50.36867187 -91.0390625 50.55859375 C-94.77034598 51.57176998 -98.1306796 52.24183253 -102 52 C-98.25 50 -98.25 50 -96 50 C-96 49.34 -96 48.68 -96 48 C-94.02 47.505 -94.02 47.505 -92 47 C-92 46.34 -92 45.68 -92 45 C-91.34 44.34 -90.68 43.68 -90 43 C-89.47664063 42.40703125 -88.95328125 41.8140625 -88.4140625 41.203125 C-85.04645269 38.12977235 -81.32588668 36.00209687 -77.375 33.75 C-76.49070312 33.2442041 -75.60640625 32.7384082 -74.6953125 32.21728516 C-62.84649781 25.60182896 -50.4962871 19.96992847 -38.1875 14.2734375 C-37.53617096 13.97184723 -36.88484192 13.67025696 -36.21377563 13.35952759 C-27.29083722 9.25816744 -27.29083722 9.25816744 -22.5625 8.3125 C-17.65105153 7.1761993 -13.32745817 4.76832309 -8.92407227 2.38793945 C-5.57588567 0.61657753 -3.89357559 0 0 0 Z " fill="#AAD249" transform="translate(163,52)"/>
<path d="M0 0 C0.5775 0.33 1.155 0.66 1.75 1 C4.19883862 2.27075898 4.19883862 2.27075898 8 2 C8 2.99 8 3.98 8 5 C6.68 5 5.36 5 4 5 C3.82210937 5.72703125 3.64421875 6.4540625 3.4609375 7.203125 C1.38234474 11.18246302 -1.5558531 12.56505383 -5.375 14.75 C-6.83579577 15.62480742 -8.2941114 16.50376875 -9.75 17.38671875 C-10.471875 17.82419434 -11.19375 18.26166992 -11.9375 18.71240234 C-19.96716219 23.72523832 -27.12722436 29.80201355 -33.94140625 36.34765625 C-36 38 -36 38 -39 38 C-38.49858277 32.96654239 -36.0566721 29.664661 -33.25 25.625 C-32.81945313 24.99078125 -32.38890625 24.3565625 -31.9453125 23.703125 C-29.02769489 19.42278779 -26.02208292 15.20700033 -23 11 C-22.34 11.33 -21.68 11.66 -21 12 C-18.69 8.37 -16.38 4.74 -14 1 C-13.34 1.66 -12.68 2.32 -12 3 C-12.45375 3.70125 -12.9075 4.4025 -13.375 5.125 C-15.01686943 8.02984591 -16.03677099 10.8139348 -17 14 C-15.5164999 13.57742724 -14.03823576 13.13643678 -12.5625 12.6875 C-11.73878906 12.44386719 -10.91507813 12.20023438 -10.06640625 11.94921875 C-9.38449219 11.63597656 -8.70257813 11.32273437 -8 11 C-7.67 10.01 -7.34 9.02 -7 8 C-5.6846659 7.29848848 -4.34882408 6.63474075 -3 6 C-1.22809091 4.64555699 -1.22809091 4.64555699 0 3 C0 2.01 0 1.02 0 0 Z " fill="#2D973C" transform="translate(72,80)"/>
<path d="M0 0 C3.69870266 1.46054162 5.11354418 3.25233236 7.1640625 6.61328125 C7.72867188 7.53173828 8.29328125 8.45019531 8.875 9.39648438 C9.4525 10.35876953 10.03 11.32105469 10.625 12.3125 C11.50285156 13.73852539 11.50285156 13.73852539 12.3984375 15.19335938 C16.34447321 21.66902118 19.29532525 26.56270096 19.125 34.3125 C19.10695312 35.38113281 19.08890625 36.44976562 19.0703125 37.55078125 C19.04710937 38.35902344 19.02390625 39.16726562 19 40 C18.67 40 18.34 40 18 40 C18 36.7 18 33.4 18 30 C17.01 30 16.02 30 15 30 C14.505 29.01 14.505 29.01 14 28 C13.01 28.33 12.02 28.66 11 29 C11 25.33333333 11 21.66666667 11 18 C10.34 18 9.68 18 9 18 C9 17.34 9 16.68 9 16 C8.01 16.33 7.02 16.66 6 17 C5.01 15.02 4.02 13.04 3 11 C2.34 11.66 1.68 12.32 1 13 C0.175 13.268125 -0.65 13.53625 -1.5 13.8125 C-4.23553696 14.79728463 -4.23553696 14.79728463 -5.3125 17.625 C-5.539375 18.40875 -5.76625 19.1925 -6 20 C-6.66 20 -7.32 20 -8 20 C-8 20.66 -8 21.32 -8 22 C-8.61875 22.556875 -9.2375 23.11375 -9.875 23.6875 C-13.47646314 27.6067393 -14 31.80248499 -14 37 C-14.33 36.34 -14.66 35.68 -15 35 C-15.99 35 -16.98 35 -18 35 C-18 35.99 -18 36.98 -18 38 C-18.97850195 39.02104551 -19.97980427 40.0206121 -21 41 C-21.33 41.99 -21.66 42.98 -22 44 C-22.66 43.34 -23.32 42.68 -24 42 C-23.8141576 36.35589757 -21.91521933 32.70870769 -18.6875 28.25 C-17.78391945 26.95228494 -16.88301046 25.65270681 -15.984375 24.3515625 C-15.50419922 23.6596582 -15.02402344 22.96775391 -14.52929688 22.25488281 C-11.72189641 18.11549094 -9.08846864 13.86559005 -6.4375 9.625 C-5.41636552 7.99156134 -4.39430763 6.35869939 -3.37109375 4.7265625 C-2.7203186 3.68363037 -2.7203186 3.68363037 -2.05639648 2.61962891 C-1 1 -1 1 0 0 Z " fill="#ADD443" transform="translate(101,10)"/>
<path d="M0 0 C-1.3125 1.5 -1.3125 1.5 -3 3 C-3.99 3 -4.98 3 -6 3 C-6 3.66 -6 4.32 -6 5 C-6.91910156 5.36351563 -7.83820313 5.72703125 -8.78515625 6.1015625 C-14.22676926 8.4358325 -19.30222387 11.4424436 -24.4375 14.375 C-25.43587891 14.93960938 -26.43425781 15.50421875 -27.46289062 16.0859375 C-32.49689255 18.94548889 -37.46758091 21.85560903 -42.31469727 25.02319336 C-45.06716527 26.61853227 -47.91890418 27.28474561 -51 28 C-51.67289063 28.18433594 -52.34578125 28.36867188 -53.0390625 28.55859375 C-56.77034598 29.57176998 -60.1306796 30.24183253 -64 30 C-60.25 28 -60.25 28 -58 28 C-58 27.34 -58 26.68 -58 26 C-56.68 25.67 -55.36 25.34 -54 25 C-54 24.34 -54 23.68 -54 23 C-53.34 22.34 -52.68 21.68 -52 21 C-51.40010254 20.36167236 -50.80020508 19.72334473 -50.18212891 19.06567383 C-46.41675071 15.50124499 -41.86466012 13.23103729 -37.375 10.6875 C-36.40820312 10.12482422 -35.44140625 9.56214844 -34.4453125 8.98242188 C-33.52234375 8.45583984 -32.599375 7.92925781 -31.6484375 7.38671875 C-30.80458496 6.90420654 -29.96073242 6.42169434 -29.09130859 5.92456055 C-28.40117676 5.61945557 -27.71104492 5.31435059 -27 5 C-26.34 5.33 -25.68 5.66 -25 6 C-26.65 7.32 -28.3 8.64 -30 10 C-27.50907189 11.24546405 -26.58919267 10.7767578 -24 10 C-24 9.34 -24 8.68 -24 8 C-23.01 7.608125 -22.02 7.21625 -21 6.8125 C-18.09319203 5.59841153 -15.69341755 4.12792767 -13.125 2.3125 C-8.79378522 -0.52402105 -5.04261358 -0.52527225 0 0 Z " fill="#9CDD43" transform="translate(125,74)"/>
<path d="M0 0 C0.33 0.99 0.66 1.98 1 3 C0.34 3.66 -0.32 4.32 -1 5 C-1.6425235 7.06874034 -1.6425235 7.06874034 -2 9 C-2.66 9 -3.32 9 -4 9 C-4.33 9.99 -4.66 10.98 -5 12 C-5.99 12.495 -5.99 12.495 -7 13 C-7 22.9 -7 32.8 -7 43 C-2.71 43 1.58 43 6 43 C5.98839844 41.64390625 5.97679688 40.2878125 5.96484375 38.890625 C5.89155888 26.22379403 6.23208729 13.64313421 7 1 C7.99 1.33 8.98 1.66 10 2 C9.88195095 7.94496559 9.75771714 13.88975706 9.62768555 19.83447266 C9.58430605 21.85787416 9.54263322 23.88131299 9.50268555 25.90478516 C9.44505592 28.80903384 9.3813406 31.71309411 9.31640625 34.6171875 C9.29133751 35.97975174 9.29133751 35.97975174 9.26576233 37.36984253 C9.24581711 38.21056305 9.22587189 39.05128357 9.20532227 39.91748047 C9.18977798 40.65916473 9.1742337 41.400849 9.15821838 42.16500854 C9 44 9 44 8 46 C5.18743719 46.02684312 2.37512759 46.04676188 -0.4375 46.0625 C-1.23994141 46.07087891 -2.04238281 46.07925781 -2.86914062 46.08789062 C-4.91295221 46.0965143 -6.95683902 46.0522815 -9 46 C-11.93004571 43.06995429 -10.32352238 32.26948358 -10.35009766 28.109375 C-10.36663794 26.21016164 -10.39390259 24.31101004 -10.43212891 22.41210938 C-10.4869574 19.67545235 -10.50878247 16.94025768 -10.5234375 14.203125 C-10.54610687 13.35711731 -10.56877625 12.51110962 -10.59213257 11.63946533 C-10.57646673 7.25734789 -10.40736954 5.52813726 -7.64306641 1.94433594 C-4.74286921 -0.18915477 -3.50854499 -0.50122071 0 0 Z " fill="#236A33" transform="translate(113,92)"/>
<path d="M0 0 C0.02505615 0.83660156 0.0501123 1.67320313 0.07592773 2.53515625 C0.17172836 5.67376726 0.27091655 8.81224881 0.37231445 11.95068359 C0.43632741 13.96313601 0.4965197 15.9757088 0.55664062 17.98828125 C0.75250859 25.58210083 0.75250859 25.58210083 1.5625 33.125 C2.20066572 38.77732495 1.84508872 44.32873674 1.5625 50 C1.51029297 51.15628906 1.45808594 52.31257813 1.40429688 53.50390625 C1.27555291 56.33627353 1.14063319 59.16820235 1 62 C2.59609028 62.17045807 4.19251018 62.33783156 5.7890625 62.50390625 C7.12251709 62.64421265 7.12251709 62.64421265 8.48291016 62.78735352 C11.13966229 63.05515519 11.13966229 63.05515519 14.375 62.9375 C17.15483871 63.00368664 18.65458277 63.55666632 21 65 C21 64.34 21 63.68 21 63 C22.485 62.505 22.485 62.505 24 62 C24.33 50.45 24.66 38.9 25 27 C27.50682248 29.50682248 27.23686946 31.01459071 27.25224304 34.43464661 C27.24505753 35.17422104 27.23787201 35.91379547 27.23046875 36.67578125 C27.23001053 37.43795456 27.22955231 38.20012787 27.2290802 38.98539734 C27.22605647 40.60022535 27.21816654 42.21505041 27.20581055 43.82983398 C27.18764927 46.29226113 27.18530026 48.75430999 27.18554688 51.21679688 C27.18062774 52.78646156 27.17479771 54.35612371 27.16796875 55.92578125 C27.16685593 56.65928299 27.1657431 57.39278473 27.16459656 58.14851379 C27.13022694 61.88666426 26.89183474 65.36460583 26 69 C6.3133515 67.65667575 6.3133515 67.65667575 -1 64 C-1 43.54 -1 23.08 -1 2 C-3.97 2.66 -6.94 3.32 -10 4 C-6.64877401 1.34213111 -4.39380802 0 0 0 Z " fill="#1F773B" transform="translate(150,81)"/>
<path d="M0 0 C-0.56847656 0.4846875 -1.13695312 0.969375 -1.72265625 1.46875 C-7.53995074 6.51882201 -12.60283444 11.84590631 -17.47265625 17.80078125 C-20.8479798 21.9239899 -20.8479798 21.9239899 -23 23 C-25.44293817 23.19256516 -27.86146604 23.33082268 -30.30859375 23.421875 C-31.03111832 23.44977112 -31.75364288 23.47766724 -32.49806213 23.50640869 C-34.02701211 23.56281221 -35.55606704 23.61642893 -37.08520508 23.66748047 C-39.42545047 23.7495773 -41.76415194 23.85310331 -44.10351562 23.95703125 C-45.58849552 24.00914459 -47.07352133 24.05996871 -48.55859375 24.109375 C-49.2586705 24.14359558 -49.95874725 24.17781616 -50.68003845 24.21307373 C-55.55662535 24.33998116 -55.55662535 24.33998116 -57.96508789 22.49316406 C-58.30660889 22.00041992 -58.64812988 21.50767578 -59 21 C-53.57499556 13.09499354 -46.84261278 6.65987238 -40 0 C-40 3 -40 3 -41.42578125 4.61328125 C-42.04839844 5.17402344 -42.67101562 5.73476562 -43.3125 6.3125 C-46.41800308 9.28598777 -48.42801417 11.93133078 -50 16 C-50 16.99 -50 17.98 -50 19 C-50 19.66 -50 20.32 -50 21 C-45.72838208 20.91930249 -41.45821066 20.80644255 -37.1875 20.6875 C-35.97255859 20.66494141 -34.75761719 20.64238281 -33.50585938 20.61914062 C-32.34248047 20.58369141 -31.17910156 20.54824219 -29.98046875 20.51171875 C-28.37014771 20.47244263 -28.37014771 20.47244263 -26.72729492 20.43237305 C-23.67330549 19.94820732 -22.94818302 19.28574136 -21 17 C-20.34 17 -19.68 17 -19 17 C-18.67 15.35 -18.34 13.7 -18 12 C-17.360625 11.896875 -16.72125 11.79375 -16.0625 11.6875 C-15.381875 11.460625 -14.70125 11.23375 -14 11 C-13.67 10.01 -13.34 9.02 -13 8 C-12.34 7.34 -11.68 6.68 -11 6 C-10.67 5.01 -10.34 4.02 -10 3 C-8.25699494 0.73409343 -7.21328191 0.06242397 -4.4375 -0.75 C-2 -1 -2 -1 0 0 Z " fill="#226638" transform="translate(66,128)"/>
<path d="M0 0 C-0.66 0.99 -1.32 1.98 -2 3 C-1.01 3.66 -0.02 4.32 1 5 C-7.54097091 9.31082742 -15.34319738 13.01625088 -25 14 C-25 14.99 -25 15.98 -25 17 C-25.99 17.33 -26.98 17.66 -28 18 C-28 17.01 -28 16.02 -28 15 C-29.32 15.33 -30.64 15.66 -32 16 C-32.66 15.01 -33.32 14.02 -34 13 C-32.58957044 12.15615325 -31.17135868 11.32530504 -29.75 10.5 C-28.96109375 10.0359375 -28.1721875 9.571875 -27.359375 9.09375 C-25 8 -25 8 -21 8 C-21 7.34 -21 6.68 -21 6 C-14.9739174 2.20094793 -7.23179781 -2.44384891 0 0 Z " fill="#6EC745" transform="translate(140,71)"/>
<path d="M0 0 C1.64393619 18.08329811 0.28482939 35.94004806 -1 54 C-1.33 54 -1.66 54 -2 54 C-2.33 38.16 -2.66 22.32 -3 6 C-3.66 6 -4.32 6 -5 6 C-5.33 5.34 -5.66 4.68 -6 4 C-6.969375 4.28875 -7.93875 4.5775 -8.9375 4.875 C-12.61183247 5.94730519 -16.31501303 6.67202468 -20.08203125 7.33984375 C-22.38068332 7.91428641 -22.38068332 7.91428641 -24 11 C-24.20606089 13.33175281 -24.20606089 13.33175281 -24.0625 16 C-23.95582173 21.77485036 -24.17689147 27.4867331 -24.5 33.25 C-24.54777588 34.10851563 -24.59555176 34.96703125 -24.64477539 35.8515625 C-24.76064714 37.90118663 -24.87995241 39.95061621 -25 42 C-25.33 42 -25.66 42 -26 42 C-26 30.45 -26 18.9 -26 7 C-16 4 -16 4 -13 4 C-13 3.34 -13 2.68 -13 2 C-11.21089097 1.47044766 -9.41860852 0.9516063 -7.625 0.4375 C-6.62726563 0.14746094 -5.62953125 -0.14257812 -4.6015625 -0.44140625 C-2 -1 -2 -1 0 0 Z " fill="#AFD854" transform="translate(176,10)"/>
<path d="M0 0 C-0.49246889 6.52521284 -0.49246889 6.52521284 -2.9375 8.8125 C-3.618125 9.204375 -4.29875 9.59625 -5 10 C-5.66 10.66 -6.32 11.32 -7 12 C-8.65919896 12.36871088 -10.32774271 12.69595322 -12 13 C-15.05270427 13.89037208 -17.60829273 14.74976111 -20.29296875 16.46484375 C-23.28528193 18.16178326 -25.96766052 18.91561397 -29.3125 19.6875 C-30.38113281 19.93886719 -31.44976562 20.19023438 -32.55078125 20.44921875 C-33.35902344 20.63097656 -34.16726562 20.81273438 -35 21 C-33.57694602 17.43095018 -32.05343443 16.10577935 -28.6875 14.3125 C-27.92824219 13.89613281 -27.16898438 13.47976562 -26.38671875 13.05078125 C-23.9240557 11.96656462 -21.62982444 11.51530344 -19 11 C-17.33289654 9.50014391 -17.33289654 9.50014391 -16 8 C-15.34 8 -14.68 8 -14 8 C-14 7.01 -14 6.02 -14 5 C-12.421924 4.15675328 -10.8372958 3.32576082 -9.25 2.5 C-8.36828125 2.0359375 -7.4865625 1.571875 -6.578125 1.09375 C-4 0 -4 0 0 0 Z " fill="#99DA42" transform="translate(163,52)"/>
<path d="M0 0 C0.66 0.33 1.32 0.66 2 1 C2.99 0.67 3.98 0.34 5 0 C4.12054965 4.05944962 3.37621941 5.70472022 0.05859375 8.30859375 C-1.13899904 9.0340442 -2.3466458 9.74308988 -3.5625 10.4375 C-4.8380036 11.2088333 -6.11144398 11.98358856 -7.3828125 12.76171875 C-8.00317383 13.1386084 -8.62353516 13.51549805 -9.26269531 13.90380859 C-12.35807675 15.85690902 -15.17414977 18.13674673 -18.0234375 20.42578125 C-20.93097535 22.74146851 -23.95851188 24.86448706 -27 27 C-26.6975855 23.85344915 -25.92227915 22.92468419 -23.6015625 20.67578125 C-22.61929688 19.89589844 -21.63703125 19.11601563 -20.625 18.3125 C-19.64789063 17.52488281 -18.67078125 16.73726562 -17.6640625 15.92578125 C-15 14 -15 14 -12 13 C-12 12.34 -12 11.68 -12 11 C-11.071875 10.566875 -10.14375 10.13375 -9.1875 9.6875 C-6.52815927 8.27961373 -4.91894095 7.23876444 -3 5 C-3.845625 5.28875 -4.69125 5.5775 -5.5625 5.875 C-7.91794403 6.64587259 -10.29551674 7.35132657 -12.6875 8 C-16.09544552 8.85377892 -16.09544552 8.85377892 -19 11 C-21.04296875 11.4140625 -21.04296875 11.4140625 -23.1875 11.625 C-24.445625 11.74875 -25.70375 11.8725 -27 12 C-22.29937376 6.75699381 -16.36567809 4.71130733 -10 2 C-9.319375 1.608125 -8.63875 1.21625 -7.9375 0.8125 C-5.22310248 -0.32579573 -2.90929353 -0.18973653 0 0 Z " fill="#45A63A" transform="translate(99,95)"/>
<path d="M0 0 C-1.0621875 0.59167969 -2.124375 1.18335937 -3.21875 1.79296875 C-4.64605299 2.59075298 -6.07312131 3.38895714 -7.5 4.1875 C-8.23597412 4.5987915 -8.97194824 5.01008301 -9.73022461 5.43383789 C-13.41410582 7.50375054 -17.03408245 9.60860412 -20.5625 11.9375 C-23.90129248 14.07082036 -27.12152348 15.09963938 -31 16 C-31.67289063 16.18433594 -32.34578125 16.36867188 -33.0390625 16.55859375 C-36.77034598 17.57176998 -40.1306796 18.24183253 -44 18 C-40.25 16 -40.25 16 -38 16 C-38 15.34 -38 14.68 -38 14 C-36.68 13.67 -35.36 13.34 -34 13 C-34 12.34 -34 11.68 -34 11 C-31.49638331 7.46548232 -28.00546302 7.09239901 -24 6 C-23.34 5.34 -22.68 4.68 -22 4 C-20.1875 3.7265625 -20.1875 3.7265625 -18 3.625 C-13.25426025 3.22568209 -9.46649081 1.72267037 -5.1640625 -0.2578125 C-3 -1 -3 -1 0 0 Z " fill="#92D743" transform="translate(105,86)"/>
<path d="M0 0 C1.74627478 2.61941217 2.38722388 4.03824877 3 7 C2.360625 7.4125 1.72125 7.825 1.0625 8.25 C-1.20990931 10.17810487 -1.60196439 11.11424181 -2 14 C-2.66 14 -3.32 14 -4 14 C-4 14.66 -4 15.32 -4 16 C-4.61875 16.556875 -5.2375 17.11375 -5.875 17.6875 C-9.47646314 21.6067393 -10 25.80248499 -10 31 C-10.33 30.34 -10.66 29.68 -11 29 C-11.99 29 -12.98 29 -14 29 C-14 29.99 -14 30.98 -14 32 C-14.97850195 33.02104551 -15.97980427 34.0206121 -17 35 C-17.33 35.99 -17.66 36.98 -18 38 C-18.66 37.34 -19.32 36.68 -20 36 C-19.83032883 30.23824976 -17.77977741 26.49342452 -14.5 21.9375 C-13.59514177 20.63365306 -12.6915268 19.32894255 -11.7890625 18.0234375 C-11.09731934 17.0329541 -11.09731934 17.0329541 -10.39160156 16.02246094 C-8.14155386 12.75239161 -6.00812401 9.40955135 -3.875 6.0625 C-3.48505859 5.4533374 -3.09511719 4.8441748 -2.69335938 4.21655273 C-1.79428847 2.81185643 -0.89693333 1.40606216 0 0 Z " fill="#A5CC47" transform="translate(97,16)"/>
<path d="M0 0 C0.33 0 0.66 0 1 0 C1 6.27 1 12.54 1 19 C0.67 19 0.34 19 0 19 C-0.495 12.565 -0.495 12.565 -1 6 C-1.886875 7.258125 -2.77375 8.51625 -3.6875 9.8125 C-4.31914063 10.70839844 -4.95078125 11.60429688 -5.6015625 12.52734375 C-7.49435654 15.24133695 -9.32510908 17.99281948 -11.1484375 20.75390625 C-11.70958252 21.59526123 -12.27072754 22.43661621 -12.84887695 23.3034668 C-13.97639062 24.99546016 -15.09499742 26.69342866 -16.20385742 28.39770508 C-19.32076227 33.05017516 -21.91424594 36.50348679 -27 39 C-27.99 38.67 -28.98 38.34 -30 38 C-28.75 36.5 -28.75 36.5 -27 35 C-25.68 35 -24.36 35 -23 35 C-23 31.04 -23 27.08 -23 23 C-22.34 23 -21.68 23 -21 23 C-20.67 23.66 -20.34 24.32 -20 25 C-19.59007813 24.3503125 -19.18015625 23.700625 -18.7578125 23.03125 C-18.21898438 22.1959375 -17.68015625 21.360625 -17.125 20.5 C-16.59132813 19.6646875 -16.05765625 18.829375 -15.5078125 17.96875 C-15.01023437 17.3190625 -14.51265625 16.669375 -14 16 C-13.34 16 -12.68 16 -12 16 C-11.773125 15.46375 -11.54625 14.9275 -11.3125 14.375 C-8.67003006 9.59338772 -4.83412299 5.83412299 -1 2 C-0.67 1.34 -0.34 0.68 0 0 Z " fill="#5CB840" transform="translate(103,50)"/>
<path d="M0 0 C0.33 0.66 0.66 1.32 1 2 C-0.423125 2.37125 -0.423125 2.37125 -1.875 2.75 C-5.43559968 4.17423987 -5.51742659 4.71715887 -7 8 C-9.125 8.75 -9.125 8.75 -11 9 C-11.33 10.32 -11.66 11.64 -12 13 C-10.35 12.67 -8.7 12.34 -7 12 C-9.9968234 14.41018108 -13.00570256 16.08914691 -16.5 17.6875 C-17.90765625 18.34298828 -17.90765625 18.34298828 -19.34375 19.01171875 C-22 20 -22 20 -26 20 C-25.34 18.02 -24.68 16.04 -24 14 C-24.99 13.67 -25.98 13.34 -27 13 C-18.24149813 8.02838662 -9.51711446 3.34861435 0 0 Z " fill="#3E993F" transform="translate(147,73)"/>
<path d="M0 0 C-4.29 0.99 -8.58 1.98 -13 3 C-12.88007682 7.21772385 -12.75741483 11.43518062 -12.62768555 15.65258789 C-12.58439207 17.08711003 -12.54271301 18.52168184 -12.50268555 19.95629883 C-12.44484733 22.0191952 -12.38119247 24.08184283 -12.31640625 26.14453125 C-12.27974854 27.38565674 -12.24309082 28.62678223 -12.20532227 29.90551758 C-12.12855879 33.03553347 -12.12855879 33.03553347 -11 36 C-9.700625 35.505 -9.700625 35.505 -8.375 35 C-5.04281725 34.01268659 -2.44840462 33.83579026 1 34 C1 34.99 1 35.98 1 37 C-1.56126064 38.294174 -4.12393358 39.58540784 -6.6875 40.875 C-7.40873047 41.23980469 -8.12996094 41.60460938 -8.87304688 41.98046875 C-16.98389285 46.05440965 -16.98389285 46.05440965 -20 47 C-20.99 46.67 -21.98 46.34 -23 46 C-20.36 44.68 -17.72 43.36 -15 42 C-14.67 28.8 -14.34 15.6 -14 2 C-4.57142857 -1.14285714 -4.57142857 -1.14285714 0 0 Z " fill="#82B043" transform="translate(163,14)"/>
<path d="M0 0 C0.66 0.33 1.32 0.66 2 1 C1.4375 4.3125 1.4375 4.3125 0 8 C-2.29468783 9.5368579 -4.32672237 10.1584126 -7 11 C-7 11.99 -7 12.98 -7 14 C-6.34 14.66 -5.68 15.32 -5 16 C-5.7425 16.144375 -6.485 16.28875 -7.25 16.4375 C-8.1575 16.623125 -9.065 16.80875 -10 17 C-10.639375 17.103125 -11.27875 17.20625 -11.9375 17.3125 C-14.97617707 18.32539236 -17.35234016 20.21688215 -20 22 C-21.64619113 22.71573527 -23.30728055 23.4025696 -25 24 C-24.360625 23.236875 -23.72125 22.47375 -23.0625 21.6875 C-20.85767219 19.11753287 -20.85767219 19.11753287 -20 16 C-18.06640625 14.23828125 -18.06640625 14.23828125 -15.5625 12.3125 C-14.66917969 11.61769531 -13.77585937 10.92289063 -12.85546875 10.20703125 C-11.91316406 9.47871094 -10.97085938 8.75039062 -10 8 C-8.12227628 6.503411 -6.24713051 5.00357985 -4.375 3.5 C-2.91666667 2.33333333 -1.45833333 1.16666667 0 0 Z " fill="#629E4C" transform="translate(47,111)"/>
<path d="M0 0 C-4.46287061 3.92108179 -9.40178885 6.56240019 -14.625 9.3125 C-15.48351562 9.77978516 -16.34203125 10.24707031 -17.2265625 10.72851562 C-18.0515625 11.16486328 -18.8765625 11.60121094 -19.7265625 12.05078125 C-20.84925537 12.64886597 -20.84925537 12.64886597 -21.99462891 13.2590332 C-24 14 -24 14 -27 13 C-28.66362417 12.65179959 -30.32995171 12.31595508 -32 12 C-28.73530121 8.08236146 -25.84088198 7.29666482 -21 6 C-19.66209359 5.00612666 -18.32781878 4.0073108 -17 3 C-15.68 3 -14.36 3 -13 3 C-12.67 3.66 -12.34 4.32 -12 5 C-11.34 5 -10.68 5 -10 5 C-10.33 4.01 -10.66 3.02 -11 2 C-7.17679443 0.57741188 -4.08718695 -0.24042276 0 0 Z " fill="#57B843" transform="translate(125,83)"/>
<path d="M0 0 C2 1 2 1 3 3 C1.68 3 0.36 3 -1 3 C-1 3.66 -1 4.32 -1 5 C-2.32 5.33 -3.64 5.66 -5 6 C-5 6.66 -5 7.32 -5 8 C-5.33 8.33 -5.66 8.66 -6 9 C-4.35 9 -2.7 9 -1 9 C-1 9.66 -1 10.32 -1 11 C-1.7425 11.103125 -2.485 11.20625 -3.25 11.3125 C-6.04180127 11.81930867 -6.04180127 11.81930867 -8.0625 13.5625 C-10 15 -10 15 -14 15 C-14.33 15.66 -14.66 16.32 -15 17 C-17.31104818 18.05047644 -19.64583651 19.05007438 -22 20 C-22.66 20.33 -23.32 20.66 -24 21 C-23.92717059 18.31987783 -23.56597541 16.56739797 -21.64013672 14.63671875 C-19.78128443 13.18682441 -17.88236918 11.83232475 -15.9375 10.5 C-15.2566333 10.01950195 -14.5757666 9.53900391 -13.87426758 9.04394531 C-11.92729029 7.67890074 -9.96704399 6.33590688 -8 5 C-7.10796875 4.38640625 -6.2159375 3.7728125 -5.296875 3.140625 C-3.1875 1.75 -3.1875 1.75 0 0 Z " fill="#76B946" transform="translate(72,94)"/>
<path d="M0 0 C0.33 0.99 0.66 1.98 1 3 C1.66 3.33 2.32 3.66 3 4 C3.66 4.33 4.32 4.66 5 5 C5.33 5.99 5.66 6.98 6 8 C5.15115234 8.25523438 5.15115234 8.25523438 4.28515625 8.515625 C3.55167969 8.75796875 2.81820312 9.0003125 2.0625 9.25 C1.33160156 9.48203125 0.60070312 9.7140625 -0.15234375 9.953125 C-2.19741623 10.83490251 -2.19741623 10.83490251 -2.6328125 13 C-2.75398438 13.66 -2.87515625 14.32 -3 15 C-6.32142857 18 -6.32142857 18 -9 18 C-9.27585937 18.57234375 -9.55171875 19.1446875 -9.8359375 19.734375 C-10.99467848 21.98964267 -12.26875706 24.10856378 -13.625 26.25 C-14.07101563 26.95640625 -14.51703125 27.6628125 -14.9765625 28.390625 C-15.48316406 29.18726563 -15.48316406 29.18726563 -16 30 C-16.66 29.01 -17.32 28.02 -18 27 C-15.12011719 22.68017578 -12.24023438 18.36035156 -9.36035156 14.04052734 C-8.91143555 13.36715332 -8.46251953 12.6937793 -8 12 C-6.45833333 9.6875 -4.91666667 7.375 -3.375 5.0625 C-2.39660156 3.59490234 -2.39660156 3.59490234 -1.3984375 2.09765625 C-0.93695313 1.40542969 -0.47546875 0.71320312 0 0 Z " fill="#5CA541" transform="translate(67,63)"/>
<path d="M0 0 C0 3.38928559 -0.58766616 4.20729197 -2.4375 6.9375 C-4.25488647 9.62474666 -5.3779531 11.80396595 -6 15 C-6.66 15 -7.32 15 -8 15 C-8 15.66 -8 16.32 -8 17 C-4.87802522 15.6910428 -4.87802522 15.6910428 -3 13 C-1.35 13 0.3 13 2 13 C-1.27226444 16.38133992 -4.67398438 19.6137516 -8.125 22.8125 C-9.39730469 23.99779297 -9.39730469 23.99779297 -10.6953125 25.20703125 C-13 27 -13 27 -16 27 C-15.49858277 21.96654239 -13.0566721 18.664661 -10.25 14.625 C-9.81945313 13.99078125 -9.38890625 13.3565625 -8.9453125 12.703125 C-6.02769489 8.42278779 -3.02208292 4.20700033 0 0 Z " fill="#367B3E" transform="translate(49,91)"/>
<path d="M0 0 C-0.78503906 0.44730469 -1.57007813 0.89460938 -2.37890625 1.35546875 C-8.13921799 4.67029845 -13.64693284 8.06713433 -19 12 C-21.5 13.5 -21.5 13.5 -24 15 C-28.68844027 17.8529894 -28.68844027 17.8529894 -32 22 C-32.66 22 -33.32 22 -34 22 C-34 19.75 -34 19.75 -33 17 C-31.19053067 16.1123358 -29.37282627 15.23867925 -27.5234375 14.4375 C-23.58281389 12.19268655 -20.51635709 9.05600685 -17.30151367 5.88427734 C-13.10080147 1.81546987 -5.99684528 -2.99842264 0 0 Z " fill="#2D983B" transform="translate(82,106)"/>
<path d="M0 0 C-0.56847656 0.4846875 -1.13695312 0.969375 -1.72265625 1.46875 C-7.4984143 6.48276366 -12.73622236 11.7011386 -17.3671875 17.80078125 C-20.47004446 21.83834978 -20.47004446 21.83834978 -23.25390625 22.6875 C-26.37358873 23.04251365 -29.18949361 22.87136876 -32.3125 22.5625 C-33.38113281 22.46066406 -34.44976562 22.35882813 -35.55078125 22.25390625 C-36.35902344 22.17011719 -37.16726562 22.08632812 -38 22 C-38 21.67 -38 21.34 -38 21 C-37.02417969 20.96261719 -36.04835938 20.92523438 -35.04296875 20.88671875 C-33.13451172 20.78810547 -33.13451172 20.78810547 -31.1875 20.6875 C-29.29064453 20.60048828 -29.29064453 20.60048828 -27.35546875 20.51171875 C-23.88046571 19.98177067 -23.11622676 19.62243383 -21 17 C-20.34 17 -19.68 17 -19 17 C-18.67 15.35 -18.34 13.7 -18 12 C-17.360625 11.896875 -16.72125 11.79375 -16.0625 11.6875 C-15.381875 11.460625 -14.70125 11.23375 -14 11 C-13.67 10.01 -13.34 9.02 -13 8 C-12.34 7.34 -11.68 6.68 -11 6 C-10.67 5.01 -10.34 4.02 -10 3 C-8.25699494 0.73409343 -7.21328191 0.06242397 -4.4375 -0.75 C-2 -1 -2 -1 0 0 Z " fill="#28713D" transform="translate(66,128)"/>
<path d="M0 0 C1 2 1 2 0.47265625 3.85546875 C-1.61458589 6.89498052 -4.45854684 8.45524652 -7.5625 10.3125 C-12.61466025 13.43999703 -17.38499835 16.69939474 -22.0234375 20.42578125 C-24.93097535 22.74146851 -27.95851188 24.86448706 -31 27 C-30.6975855 23.85344915 -29.92227915 22.92468419 -27.6015625 20.67578125 C-26.61929688 19.89589844 -25.63703125 19.11601563 -24.625 18.3125 C-23.64789063 17.52488281 -22.67078125 16.73726562 -21.6640625 15.92578125 C-19 14 -19 14 -16 13 C-16 12.34 -16 11.68 -16 11 C-15.113125 10.608125 -14.22625 10.21625 -13.3125 9.8125 C-9.8519061 7.91896749 -7.73720152 5.80738617 -5 3 C-3.36622358 1.94712186 -1.70818403 0.9272999 0 0 Z " fill="#46823E" transform="translate(103,95)"/>
<path d="M0 0 C0.02505615 0.83660156 0.0501123 1.67320313 0.07592773 2.53515625 C0.17172836 5.67376726 0.27091655 8.81224881 0.37231445 11.95068359 C0.43632741 13.96313601 0.4965197 15.9757088 0.55664062 17.98828125 C0.77296558 25.73555239 0.77296558 25.73555239 1.5625 33.4375 C2.0581579 37.47357145 1.88831329 40.94543465 1.5625 45 C1.51029297 45.67933594 1.45808594 46.35867187 1.40429688 47.05859375 C1.27665791 48.70629674 1.13937353 50.35324808 1 52 C0.34 52 -0.32 52 -1 52 C-1 35.5 -1 19 -1 2 C-3.97 2.66 -6.94 3.32 -10 4 C-6.64877401 1.34213111 -4.39380802 0 0 0 Z " fill="#478743" transform="translate(150,81)"/>
<path d="M0 0 C0.5775 0.33 1.155 0.66 1.75 1 C4.19883862 2.27075898 4.19883862 2.27075898 8 2 C8 2.99 8 3.98 8 5 C6.68 5 5.36 5 4 5 C3.835 5.721875 3.67 6.44375 3.5 7.1875 C1.35055649 11.21770658 -1.95439483 13.01933913 -6 15 C-6.66 15 -7.32 15 -8 15 C-7.75 11.625 -7.75 11.625 -7 8 C-5.125 6.75 -5.125 6.75 -3 6 C-1.22809091 4.64555699 -1.22809091 4.64555699 0 3 C0 2.01 0 1.02 0 0 Z " fill="#43AA3F" transform="translate(72,80)"/>
<path d="M0 0 C0.33 0.99 0.66 1.98 1 3 C0.34 3.66 -0.32 4.32 -1 5 C-1.6425235 7.06874034 -1.6425235 7.06874034 -2 9 C-2.66 9 -3.32 9 -4 9 C-4.33 9.99 -4.66 10.98 -5 12 C-7.0625 13.1875 -7.0625 13.1875 -9 14 C-8.67 12.02 -8.34 10.04 -8 8 C-8.66 8 -9.32 8 -10 8 C-9.67372714 4.98197607 -9.38918764 3.40308719 -7.25 1.1875 C-4.62847443 -0.19608294 -2.92325122 -0.24360427 0 0 Z " fill="#177729" transform="translate(113,92)"/>
<path d="M0 0 C2.50682248 2.50682248 2.23686946 4.01459071 2.25224304 7.43464661 C2.24505753 8.17422104 2.23787201 8.91379547 2.23046875 9.67578125 C2.23001053 10.43795456 2.22955231 11.20012787 2.2290802 11.98539734 C2.22605647 13.60022535 2.21816654 15.21505041 2.20581055 16.82983398 C2.18764927 19.29226113 2.18530026 21.75430999 2.18554688 24.21679688 C2.18062774 25.78646156 2.17479771 27.35612371 2.16796875 28.92578125 C2.16685593 29.65928299 2.1657431 30.39278473 2.16459656 31.14851379 C2.13022694 34.88666426 1.89183474 38.36460583 1 42 C-0.65 42 -2.3 42 -4 42 C-3.67 41.34 -3.34 40.68 -3 40 C-2.01 40 -1.02 40 0 40 C-0.17402344 38.84628906 -0.34804687 37.69257813 -0.52734375 36.50390625 C-1.32459101 29.32868091 -0.85076107 22.13252913 -0.5625 14.9375 C-0.50916183 13.48504809 -0.45642267 12.03257405 -0.40429688 10.58007812 C-0.27643515 7.05310359 -0.14047379 3.52649739 0 0 Z " fill="#236533" transform="translate(175,108)"/>
<path d="M0 0 C2 2 2 2 2.1953125 5.6953125 C2.182009 7.17200108 2.15814835 8.64862358 2.125 10.125 C2.11597656 10.87910156 2.10695312 11.63320312 2.09765625 12.41015625 C2.0740687 14.27357254 2.03819719 16.13682593 2 18 C1.67 18 1.34 18 1 18 C0.67 23.94 0.34 29.88 0 36 C-0.33 36 -0.66 36 -1 36 C-1.03758423 34.9627478 -1.03758423 34.9627478 -1.07592773 33.90454102 C-1.19152161 30.79032134 -1.31441242 27.67643211 -1.4375 24.5625 C-1.47681641 23.47388672 -1.51613281 22.38527344 -1.55664062 21.26367188 C-1.59853516 20.22919922 -1.64042969 19.19472656 -1.68359375 18.12890625 C-1.73858032 16.69140015 -1.73858032 16.69140015 -1.79467773 15.22485352 C-1.75834424 13.02861075 -1.75834424 13.02861075 -3 12 C-3.04092937 9.66702567 -3.04241723 7.33294775 -3 5 C-2.34 5 -1.68 5 -1 5 C-0.67 3.35 -0.34 1.7 0 0 Z " fill="#499645" transform="translate(175,91)"/>
<path d="M0 0 C-1.5677053 2.53087064 -2.42732176 3.81169563 -5.3046875 4.7578125 C-6.15289062 4.87898438 -7.00109375 5.00015625 -7.875 5.125 C-11.52645151 5.73181636 -14.60625817 6.48174708 -18 8 C-19.39082713 8.57476677 -20.78713709 9.13637327 -22.1875 9.6875 C-22.86167969 9.95949219 -23.53585938 10.23148438 -24.23046875 10.51171875 C-26 11 -26 11 -28 10 C-25 8 -25 8 -21 8 C-21 7.34 -21 6.68 -21 6 C-14.9739174 2.20094793 -7.23179781 -2.44384891 0 0 Z " fill="#81CF40" transform="translate(140,71)"/>
<path d="M0 0 C1.9375 0.5 1.9375 0.5 4 2 C4.68790422 4.69658452 4.81946464 7.2017019 5 10 C4.34 10 3.68 10 3 10 C2.01 11.485 2.01 11.485 1 13 C-2 12 -2 12 -3.375 10.375 C-4.35291914 6.65890726 -2.68779075 4.31307073 -1 1 C-0.67 0.67 -0.34 0.34 0 0 Z " fill="#AFD44C" transform="translate(101,10)"/>
<path d="M0 0 C-5.29230769 4.92307692 -5.29230769 4.92307692 -8.875 5.3125 C-9.57625 5.209375 -10.2775 5.10625 -11 5 C-11.33 5.99 -11.66 6.98 -12 8 C-12.99 8 -13.98 8 -15 8 C-15 8.66 -15 9.32 -15 10 C-19.42778844 12.74522883 -22.71862571 14.48474397 -28 15 C-23.73576641 10.44833139 -18.81671239 7.74940145 -13.4375 4.6875 C-12.47908203 4.12482422 -11.52066406 3.56214844 -10.53320312 2.98242188 C-9.61345703 2.45583984 -8.69371094 1.92925781 -7.74609375 1.38671875 C-6.90747803 0.90420654 -6.0688623 0.42169434 -5.20483398 -0.07543945 C-3 -1 -3 -1 0 0 Z " fill="#65BA3C" transform="translate(108,86)"/>
<path d="M0 0 C0.99 -0.33 1.98 -0.66 3 -1 C2.75390625 0.8984375 2.75390625 0.8984375 2 3 C0.21484375 3.9765625 0.21484375 3.9765625 -2.0625 4.625 C-2.87332031 4.86089844 -3.68414062 5.09679687 -4.51953125 5.33984375 C-5.74736328 5.66662109 -5.74736328 5.66662109 -7 6 C-7.72574219 6.20753906 -8.45148438 6.41507812 -9.19921875 6.62890625 C-12.86658762 7.62782767 -16.19847196 8.2375955 -20 8 C-16.25 6 -16.25 6 -14 6 C-14 5.34 -14 4.68 -14 4 C-12.68 3.67 -11.36 3.34 -10 3 C-10 2.34 -10 1.68 -10 1 C-3.375 -1.125 -3.375 -1.125 0 0 Z " fill="#89CD40" transform="translate(81,96)"/>
<path d="M0 0 C0.33 0.66 0.66 1.32 1 2 C0 3.4375 0 3.4375 -2 5 C-3.99880865 5.25791079 -5.99954776 5.51049304 -8.0078125 5.6796875 C-10.74526082 6.11982625 -12.6588491 7.56929667 -15 9 C-17.140625 8.5859375 -17.140625 8.5859375 -19 8 C-16.59205692 6.46358856 -14.17531353 4.94603605 -11.75 3.4375 C-11.06808594 2.99986328 -10.38617188 2.56222656 -9.68359375 2.11132812 C-9.01972656 1.70205078 -8.35585937 1.29277344 -7.671875 0.87109375 C-7.0644043 0.48880615 -6.45693359 0.10651855 -5.83105469 -0.28735352 C-3.48245134 -1.20142994 -2.31084891 -0.93535826 0 0 Z " fill="#ACD24F" transform="translate(93,85)"/>
<path d="M0 0 C0.33 0.66 0.66 1.32 1 2 C-0.423125 2.37125 -0.423125 2.37125 -1.875 2.75 C-5.43559968 4.17423987 -5.51742659 4.71715887 -7 8 C-8.33333333 8.33333333 -9.66666667 8.66666667 -11 9 C-11.309375 9.639375 -11.61875 10.27875 -11.9375 10.9375 C-13 13 -13 13 -15.625 14.25 C-16.40875 14.4975 -17.1925 14.745 -18 15 C-17.67 13.02 -17.34 11.04 -17 9 C-15.35 9 -13.7 9 -12 9 C-12.33 7.68 -12.66 6.36 -13 5 C-8.71 3.35 -4.42 1.7 0 0 Z " fill="#4EAF3D" transform="translate(147,73)"/>
<path d="M0 0 C0.33 0.66 0.66 1.32 1 2 C1.66 2 2.32 2 3 2 C3.33 1.34 3.66 0.68 4 0 C7.85907002 4.69799829 8.12779144 8.24318779 8.0625 14.25 C8.05347656 15.32765625 8.04445313 16.4053125 8.03515625 17.515625 C8.02355469 18.33546875 8.01195313 19.1553125 8 20 C7.67 20 7.34 20 7 20 C7 16.7 7 13.4 7 10 C6.01 10 5.02 10 4 10 C3.67 9.34 3.34 8.68 3 8 C2.01 8.33 1.02 8.66 0 9 C0 6 0 3 0 0 Z " fill="#A2CD54" transform="translate(112,30)"/>
<path d="M0 0 C0.33 0 0.66 0 1 0 C1 6.27 1 12.54 1 19 C0.67 19 0.34 19 0 19 C-0.33 14.71 -0.66 10.42 -1 6 C-1.9075 7.258125 -2.815 8.51625 -3.75 9.8125 C-5.89695722 12.78896342 -7.97333509 14.91423309 -11 17 C-11.33 16.01 -11.66 15.02 -12 14 C-10.70703125 12.09765625 -10.70703125 12.09765625 -8.8125 10.0625 C-7.84376953 9.00869141 -7.84376953 9.00869141 -6.85546875 7.93359375 C-4.93074367 5.92782761 -2.96558333 3.96558333 -1 2 C-0.67 1.34 -0.34 0.68 0 0 Z " fill="#79B54F" transform="translate(103,50)"/>
<path d="M0 0 C0.66 0.66 1.32 1.32 2 2 C2.99 1.67 3.98 1.34 5 1 C5 1.66 5 2.32 5 3 C5.66 3 6.32 3 7 3 C6.67 3.99 6.34 4.98 6 6 C5.67 5.34 5.34 4.68 5 4 C4.01 4 3.02 4 2 4 C2 4.99 2 5.98 2 7 C1.02149805 8.02104551 0.02019573 9.0206121 -1 10 C-1.33 10.99 -1.66 11.98 -2 13 C-2.66 12.34 -3.32 11.68 -4 11 C-3.74525692 6.41462451 -3.14031285 3.41338353 0 0 Z " fill="#92CB46" transform="translate(81,41)"/>
<path d="M0 0 C1.3303125 0.4021875 1.3303125 0.4021875 2.6875 0.8125 C1.02083333 2.47916667 -0.64583333 4.14583333 -2.3125 5.8125 C-3.01375 6.575625 -3.715 7.33875 -4.4375 8.125 C-6.3125 9.8125 -6.3125 9.8125 -9.3125 9.8125 C-9.01368318 6.32630377 -8.27722514 4.76613875 -6.125 1.9375 C-3.3125 -0.1875 -3.3125 -0.1875 0 0 Z " fill="#467A4A" transform="translate(42.3125,108.1875)"/>
<path d="M0 0 C0.66 0.33 1.32 0.66 2 1 C-1.96 4.465 -1.96 4.465 -6 8 C-5.01 7.67 -4.02 7.34 -3 7 C-4.4652994 10.86306207 -6.37002815 12.1428051 -10 14 C-11.65369357 14.69822617 -13.31727014 15.37498605 -15 16 C-14.360625 15.236875 -13.72125 14.47375 -13.0625 13.6875 C-10.85767219 11.11753287 -10.85767219 11.11753287 -10 8 C-8.36735356 6.54038617 -6.67087977 5.15093248 -4.9375 3.8125 C-4.01839844 3.09707031 -3.09929688 2.38164063 -2.15234375 1.64453125 C-1.44207031 1.10183594 -0.73179688 0.55914062 0 0 Z " fill="#448844" transform="translate(37,119)"/>
<path d="M0 0 C0.66 0.33 1.32 0.66 2 1 C0.80677986 2.92611169 -0.40531789 4.84053513 -1.625 6.75 C-2.63433594 8.35101563 -2.63433594 8.35101563 -3.6640625 9.984375 C-6.17249044 13.22267996 -8.38973352 15.08355828 -12 17 C-12.99 16.67 -13.98 16.34 -15 16 C-13.75 14.5 -13.75 14.5 -12 13 C-10.68 13 -9.36 13 -8 13 C-7.9175 12.46375 -7.835 11.9275 -7.75 11.375 C-6.71964299 8.11220279 -5.05460338 5.719328 -3 3 C-2.01 2.67 -1.02 2.34 0 2 C0 1.34 0 0.68 0 0 Z " fill="#63A14A" transform="translate(88,72)"/>
<path d="M0 0 C0.8971875 0.309375 0.8971875 0.309375 1.8125 0.625 C1.23905063 3.49224686 0.9510485 4.4864515 -1.1875 6.625 C-1.8475 6.295 -2.5075 5.965 -3.1875 5.625 C-3.8475 6.945 -4.5075 8.265 -5.1875 9.625 C-6.1775 9.625 -7.1675 9.625 -8.1875 9.625 C-8.1875 8.965 -8.1875 8.305 -8.1875 7.625 C-7.5275 7.625 -6.8675 7.625 -6.1875 7.625 C-6.084375 6.67625 -5.98125 5.7275 -5.875 4.75 C-5.0713416 1.09700729 -4.00453504 -0.68649172 0 0 Z " fill="#23913A" transform="translate(49.1875,98.375)"/>
<path d="M0 0 C-5.3850089 4.59309583 -9.74531181 7.51819201 -17 7 C-16.34 5.68 -15.68 4.36 -15 3 C-14.34 3 -13.68 3 -13 3 C-12.67 3.66 -12.34 4.32 -12 5 C-11.34 5 -10.68 5 -10 5 C-10.33 4.01 -10.66 3.02 -11 2 C-7.17679443 0.57741188 -4.08718695 -0.24042276 0 0 Z " fill="#5DC047" transform="translate(125,83)"/>
<path d="M0 0 C0.66 0.66 1.32 1.32 2 2 C1.54625 2.70125 1.0925 3.4025 0.625 4.125 C-1.01984336 7.03510749 -2.00966314 9.81677437 -3 13 C-3.33 13.66 -3.66 14.32 -4 15 C-6 15 -8 15 -10 15 C-8.95688505 11.87065515 -8.25752523 11.21442212 -6 9 C-4.90627061 7.45919874 -3.84468775 5.89518789 -2.8125 4.3125 C-2.28269531 3.50425781 -1.75289062 2.69601563 -1.20703125 1.86328125 C-0.80871094 1.24839844 -0.41039062 0.63351563 0 0 Z " fill="#3FA43E" transform="translate(58,81)"/>
<path d="M0 0 C1.051875 0.185625 2.10375 0.37125 3.1875 0.5625 C6.61914506 0.95629533 8.70212589 0.65957482 12 0 C12.66 0.66 13.32 1.32 14 2 C12.38007835 2.86375896 10.75388139 3.71575854 9.125 4.5625 C8.22007813 5.03816406 7.31515625 5.51382813 6.3828125 6.00390625 C5.59648438 6.33261719 4.81015625 6.66132812 4 7 C3.34 6.67 2.68 6.34 2 6 C2.99 5.34 3.98 4.68 5 4 C3.35 4.33 1.7 4.66 0 5 C0 3.35 0 1.7 0 0 Z " fill="#66AC45" transform="translate(106,64)"/>
<path d="M0 0 C-0.474375 0.825 -0.94875 1.65 -1.4375 2.5 C-3.23569599 6.52795901 -3.6234255 9.63173579 -4 14 C-4.33 14 -4.66 14 -5 14 C-5.10957031 13.30132812 -5.21914062 12.60265625 -5.33203125 11.8828125 C-5.49058594 10.97273438 -5.64914063 10.06265625 -5.8125 9.125 C-5.96332031 8.22007813 -6.11414063 7.31515625 -6.26953125 6.3828125 C-6.83051301 3.65587522 -6.83051301 3.65587522 -10 2 C-8.71211992 1.46987262 -7.41953322 0.9511671 -6.125 0.4375 C-5.40570313 0.14746094 -4.68640625 -0.14257812 -3.9453125 -0.44140625 C-2 -1 -2 -1 0 0 Z " fill="#2E9237" transform="translate(124,87)"/>
<path d="M0 0 C-0.33 0.99 -0.66 1.98 -1 3 C-2.32 3 -3.64 3 -5 3 C-5.33 3.99 -5.66 4.98 -6 6 C-8.6171875 6.984375 -8.6171875 6.984375 -11.875 7.75 C-12.94492188 8.01296875 -14.01484375 8.2759375 -15.1171875 8.546875 C-18 9 -18 9 -21 8 C-17.87745057 6.66087415 -14.75157642 5.32969342 -11.625 4 C-10.73554688 3.6184375 -9.84609375 3.236875 -8.9296875 2.84375 C-8.07890625 2.4828125 -7.228125 2.121875 -6.3515625 1.75 C-5.56604004 1.41484375 -4.78051758 1.0796875 -3.97119141 0.734375 C-2 0 -2 0 0 0 Z " fill="#BAE453" transform="translate(150,58)"/>
<path d="M0 0 C-2.93828597 2.50298434 -5.17902761 3.46930939 -9 4 C-9.103125 4.639375 -9.20625 5.27875 -9.3125 5.9375 C-9.539375 6.618125 -9.76625 7.29875 -10 8 C-10.99 8.33 -11.98 8.66 -13 9 C-13.66 8.01 -14.32 7.02 -15 6 C-14.236875 5.566875 -13.47375 5.13375 -12.6875 4.6875 C-10.04961333 3.1703101 -10.04961333 3.1703101 -8.375 1.375 C-5.64950535 -1.35049465 -3.40352493 -1.05626636 0 0 Z " fill="#B3D157" transform="translate(109,77)"/>
<path d="M0 0 C2.97 0.495 2.97 0.495 6 1 C3.8322078 3.27618181 1.67272281 5.32954824 -1 7 C-1.99 6.67 -2.98 6.34 -4 6 C-4.99 6.33 -5.98 6.66 -7 7 C-7.66 6.34 -8.32 5.68 -9 5 C-8.43410156 4.80664062 -7.86820312 4.61328125 -7.28515625 4.4140625 C-6.55167969 4.15367188 -5.81820312 3.89328125 -5.0625 3.625 C-3.96615234 3.24214844 -3.96615234 3.24214844 -2.84765625 2.8515625 C-0.81317884 2.14728587 -0.81317884 2.14728587 0 0 Z " fill="#9FD846" transform="translate(82,90)"/>
<path d="M0 0 C-5.94 5.445 -5.94 5.445 -12 11 C-12.33 9.68 -12.66 8.36 -13 7 C-12.34 6.34 -11.68 5.68 -11 5 C-10.505 4.46375 -10.01 3.9275 -9.5 3.375 C-8 2 -8 2 -6 2 C-6 1.34 -6 0.68 -6 0 C-3 -1 -3 -1 0 0 Z " fill="#51B547" transform="translate(68,110)"/>
<path d="M0 0 C1.4540625 0.0309375 1.4540625 0.0309375 2.9375 0.0625 C2.9375 2.0425 2.9375 4.0225 2.9375 6.0625 C0.6275 7.3825 -1.6825 8.7025 -4.0625 10.0625 C-3.39583333 7.39583333 -2.72916667 4.72916667 -2.0625 2.0625 C-2.7225 1.7325 -3.3825 1.4025 -4.0625 1.0625 C-3.0625 0.0625 -3.0625 0.0625 0 0 Z " fill="#20872D" transform="translate(115.0625,89.9375)"/>
<path d="M0 0 C0.66 0 1.32 0 2 0 C2 3.3 2 6.6 2 10 C4.97 10.495 4.97 10.495 8 11 C8 11.66 8 12.32 8 13 C2.25 13.125 2.25 13.125 0 12 C0 8.04 0 4.08 0 0 Z " fill="#226F37" transform="translate(149,133)"/>
<path d="M0 0 C1 4 1 4 -0.65234375 7.015625 C-1.40644531 8.08296875 -2.16054688 9.1503125 -2.9375 10.25 C-3.68902344 11.32765625 -4.44054688 12.4053125 -5.21484375 13.515625 C-5.80394531 14.33546875 -6.39304688 15.1553125 -7 16 C-7.66 15.01 -8.32 14.02 -9 13 C-6.03 8.71 -3.06 4.42 0 0 Z " fill="#58964F" transform="translate(58,77)"/>
<path d="M0 0 C0.99 0.33 1.98 0.66 3 1 C2.360625 1.495 1.72125 1.99 1.0625 2.5 C-3.0713508 5.87457208 -7.02939246 9.43596883 -11 13 C-11.33 12.01 -11.66 11.02 -12 10 C-10.07254909 8.29965959 -8.13458261 6.61509021 -6.1875 4.9375 C-5.36668945 4.20950195 -5.36668945 4.20950195 -4.52929688 3.46679688 C-3.08389691 2.23163691 -1.54572201 1.10704321 0 0 Z " fill="#49864C" transform="translate(84,109)"/>
<path d="M0 0 C-0.33 1.32 -0.66 2.64 -1 4 C-2.2065625 3.9690625 -2.2065625 3.9690625 -3.4375 3.9375 C-5.93354885 3.70366379 -5.93354885 3.70366379 -7 5 C-8.99958364 5.04080783 -11.00045254 5.04254356 -13 5 C-9.01056314 0.61161946 -5.91391458 -0.2688143 0 0 Z " fill="#4BB33F" transform="translate(99,95)"/>
<path d="M0 0 C0.33 1.65 0.66 3.3 1 5 C-0.11375 5.474375 -1.2275 5.94875 -2.375 6.4375 C-4.26710994 7.25306463 -6.15712709 8.07856355 -8 9 C-7.70100785 5.41209425 -7.23013399 4.21833224 -4.5625 1.6875 C-2 0 -2 0 0 0 Z " fill="#6EAB4B" transform="translate(56,106)"/>
<path d="M0 0 C-0.33 0.66 -0.66 1.32 -1 2 C-2.65 2 -4.3 2 -6 2 C-5.67 2.99 -5.34 3.98 -5 5 C-7.57856865 5.92091738 -8.5943287 6.18506902 -11.140625 5.0234375 C-11.75421875 4.68570313 -12.3678125 4.34796875 -13 4 C-11.59248779 3.13083113 -10.1735479 2.28014851 -8.75 1.4375 C-7.96109375 0.96183594 -7.1721875 0.48617187 -6.359375 -0.00390625 C-3.69155375 -1.13022151 -2.65498232 -1.0169313 0 0 Z " fill="#44A537" transform="translate(136,80)"/>
<path d="M0 0 C2 1 2 1 3 3 C1.68 3 0.36 3 -1 3 C-1 3.66 -1 4.32 -1 5 C-2.32 5.33 -3.64 5.66 -5 6 C-5 6.66 -5 7.32 -5 8 C-6.65 8.33 -8.3 8.66 -10 9 C-8.60064115 5.59635112 -7.12995268 4.09193812 -4 2.1875 C-3.29875 1.74792969 -2.5975 1.30835937 -1.875 0.85546875 C-1.25625 0.57316406 -0.6375 0.29085937 0 0 Z " fill="#90B753" transform="translate(72,94)"/>
<path d="M0 0 C0.66 0.33 1.32 0.66 2 1 C0.35 2.32 -1.3 3.64 -3 5 C-1.68 5.66 -0.36 6.32 1 7 C-1.46278801 9.46278801 -3.70676982 9.99771255 -7 11 C-6.7215625 9.824375 -6.7215625 9.824375 -6.4375 8.625 C-5.74037734 6.02910225 -5.74037734 6.02910225 -7 4 C-1.7265625 0.77734375 -1.7265625 0.77734375 0 0 Z " fill="#9DC743" transform="translate(98,79)"/>
<path d="M0 0 C1 4 1 4 -0.1875 7.1875 C-2 10 -2 10 -4.125 10.6875 C-4.74375 10.790625 -5.3625 10.89375 -6 11 C-6.33 11.99 -6.66 12.98 -7 14 C-7.33 13.34 -7.66 12.68 -8 12 C-5.36 8.04 -2.72 4.08 0 0 Z " fill="#7EB450" transform="translate(76,49)"/>
<path d="M0 0 C3.22795322 0.95966177 4.74128361 1.66099231 6.8125 4.375 C8 7 8 7 8 11 C7.34 11 6.68 11 6 11 C5.67 9.68 5.34 8.36 5 7 C4.34 7 3.68 7 3 7 C2.01 4.69 1.02 2.38 0 0 Z " fill="#B4D751" transform="translate(107,21)"/>
<path d="M0 0 C0.99 0.33 1.98 0.66 3 1 C3.33 3.64 3.66 6.28 4 9 C2.68 9 1.36 9 0 9 C0.33 7.35 0.66 5.7 1 4 C0.34 3.67 -0.32 3.34 -1 3 C-1.33 3.99 -1.66 4.98 -2 6 C-2.33 5.34 -2.66 4.68 -3 4 C-2.01 2.68 -1.02 1.36 0 0 Z " fill="#BFE455" transform="translate(102,11)"/>
<path d="M0 0 C1.75 0.9375 1.75 0.9375 3.75 3.9375 C0.32233436 4.79441641 -1.87751675 4.94924497 -5.25 3.9375 C-6.24 3.9375 -7.23 3.9375 -8.25 3.9375 C-2.89285714 -0.08035714 -2.89285714 -0.08035714 0 0 Z " fill="#47A544" transform="translate(38.25,123.0625)"/>
<path d="M0 0 C0.33 0 0.66 0 1 0 C1.33 2.97 1.66 5.94 2 9 C5.465 8.505 5.465 8.505 9 8 C5.8459821 10.71595986 4.12615036 11.96846241 0 13 C0 8.71 0 4.42 0 0 Z " fill="#7BB855" transform="translate(104,59)"/>
<path d="M0 0 C0.33 0 0.66 0 1 0 C1 6.27 1 12.54 1 19 C0.67 19 0.34 19 0 19 C-0.33 14.71 -0.66 10.42 -1 6 C-1.99 6.66 -2.98 7.32 -4 8 C-2.87548273 5.0280615 -1.77706209 2.66559313 0 0 Z " fill="#5F8C3D" transform="translate(103,50)"/>
<path d="M0 0 C0.33 0.66 0.66 1.32 1 2 C1.66 2 2.32 2 3 2 C3 2.99 3 3.98 3 5 C3.66 5 4.32 5 5 5 C5.66 6.65 6.32 8.3 7 10 C6.01 10 5.02 10 4 10 C3.67 9.34 3.34 8.68 3 8 C2.01 8.33 1.02 8.66 0 9 C0 6 0 3 0 0 Z " fill="#9ED83F" transform="translate(112,30)"/>
<path d="M0 0 C1.32 0.33 2.64 0.66 4 1 C-1.445 4.96 -1.445 4.96 -7 9 C-7.66 8.67 -8.32 8.34 -9 8 C-6.6875 5.5 -6.6875 5.5 -4 3 C-3.01 3 -2.02 3 -1 3 C-0.67 2.01 -0.34 1.02 0 0 Z " fill="#387E3E" transform="translate(60,95)"/>
<path d="M0 0 C1.9375 0.3125 1.9375 0.3125 4 1 C4.33 1.99 4.66 2.98 5 4 C0.545 5.485 0.545 5.485 -4 7 C-2 3 -2 3 0 0 Z " fill="#62BE3B" transform="translate(68,67)"/>
<path d="M0 0 C1.23086034 3.69258103 0.66728638 4.58206293 -1 8 C-1.95824253 9.36365283 -2.94721175 10.70794169 -4 12 C-4.33 11.34 -4.66 10.68 -5 10 C-3.61457684 6.37151078 -2.15648338 3.23472506 0 0 Z " fill="#70AD4A" transform="translate(67,63)"/>
<path d="M0 0 C-4.02167317 2.96837781 -7.00088076 4.52389341 -12 5 C-12 4.34 -12 3.68 -12 3 C-11.01 2.67 -10.02 2.34 -9 2 C-8.67 1.34 -8.34 0.68 -8 0 C-2.55072464 -1.27536232 -2.55072464 -1.27536232 0 0 Z " fill="#93D645" transform="translate(146,66)"/>
<path d="M0 0 C0 3.61806453 -0.86311787 4.20561568 -3 7 C-3.71162443 8.64797236 -4.39031953 10.31165408 -5 12 C-5.99 11.67 -6.98 11.34 -8 11 C-5.69281189 6.71522208 -3.67033927 3.27708863 0 0 Z " fill="#266442" transform="translate(15,139)"/>
<path d="M0 0 C0.66 0.99 1.32 1.98 2 3 C1.01 3.33 0.02 3.66 -1 4 C-1 4.66 -1 5.32 -1 6 C-2.53125 7.2890625 -2.53125 7.2890625 -4.5 8.625 C-5.1496875 9.07101563 -5.799375 9.51703125 -6.46875 9.9765625 C-6.9740625 10.31429687 -7.479375 10.65203125 -8 11 C-6.60366572 6.55711819 -4.39598172 4.13475236 -1 1 C-0.67 0.67 -0.34 0.34 0 0 Z " fill="#AEDF47" transform="translate(94,26)"/>
<path d="M0 0 C1.2065625 0.0309375 1.2065625 0.0309375 2.4375 0.0625 C2.7675 1.0525 3.0975 2.0425 3.4375 3.0625 C2.0625 4.5625 2.0625 4.5625 0.4375 6.0625 C-0.2225 6.0625 -0.8825 6.0625 -1.5625 6.0625 C-2.2225 4.4125 -2.8825 2.7625 -3.5625 1.0625 C-2.5625 0.0625 -2.5625 0.0625 0 0 Z " fill="#1B7D31" transform="translate(110.5625,91.9375)"/>
<path d="M0 0 C-1.78953185 0.83790789 -3.58169695 1.67019396 -5.375 2.5 C-6.87160156 3.19609375 -6.87160156 3.19609375 -8.3984375 3.90625 C-11 5 -11 5 -13 5 C-12.67 3.68 -12.34 2.36 -12 1 C-10.56496445 0.63597631 -9.12683494 0.28413409 -7.6875 -0.0625 C-6.88699219 -0.25972656 -6.08648437 -0.45695312 -5.26171875 -0.66015625 C-3 -1 -3 -1 0 0 Z " fill="#529743" transform="translate(140,86)"/>
<path d="M0 0 C0.99 0.99 1.98 1.98 3 3 C2.01 4.485 2.01 4.485 1 6 C0.34 6 -0.32 6 -1 6 C-1.33 6.99 -1.66 7.98 -2 9 C-2 6.36 -2 3.72 -2 1 C-1.34 0.67 -0.68 0.34 0 0 Z " fill="#89CA4A" transform="translate(106,50)"/>
<path d="M0 0 C0 1.65 0 3.3 0 5 C-1.75 5.6875 -1.75 5.6875 -4 6 C-6.25 4.5625 -6.25 4.5625 -8 3 C-6.68 3 -5.36 3 -4 3 C-4 2.34 -4 1.68 -4 1 C-1 0 -1 0 0 0 Z " fill="#1A8339" transform="translate(175,143)"/>
<path d="M0 0 C-4.56327794 3.53286034 -8.49633208 3.32374517 -14 3 C-9.7368213 0.15788087 -5.03577274 -2.0143091 0 0 Z " fill="#43AC43" transform="translate(97,99)"/>
<path d="M0 0 C0.99 0.33 1.98 0.66 3 1 C3 1.99 3 2.98 3 4 C1.68 4 0.36 4 -1 4 C-1.33 4.99 -1.66 5.98 -2 7 C-2.66 6.67 -3.32 6.34 -4 6 C-1.125 1.125 -1.125 1.125 0 0 Z " fill="#48A93C" transform="translate(77,81)"/>
<path d="M0 0 C0.66 0.33 1.32 0.66 2 1 C0.7391988 2.03319813 -0.53403258 3.05124379 -1.8125 4.0625 C-2.87404297 4.91521484 -2.87404297 4.91521484 -3.95703125 5.78515625 C-4.63121094 6.18605469 -5.30539063 6.58695312 -6 7 C-6.99 6.67 -7.98 6.34 -9 6 C-6.03 4.02 -3.06 2.04 0 0 Z " fill="#288029" transform="translate(96,99)"/>
<path d="M0 0 C-1.28813342 0.83878455 -2.58063256 1.67086783 -3.875 2.5 C-4.59429687 2.9640625 -5.31359375 3.428125 -6.0546875 3.90625 C-8 5 -8 5 -10 5 C-10 3.68 -10 2.36 -10 1 C-8.71073008 0.63720544 -7.41846728 0.28503302 -6.125 -0.0625 C-5.40570313 -0.25972656 -4.68640625 -0.45695312 -3.9453125 -0.66015625 C-2 -1 -2 -1 0 0 Z " fill="#42883E" transform="translate(74,90)"/>
<path d="M0 0 C0.66 0.33 1.32 0.66 2 1 C0.9375 2.9375 0.9375 2.9375 -1 5 C-4.6875 5.75 -4.6875 5.75 -8 6 C-5.63404067 3.38499232 -3.13950774 1.61000397 0 0 Z " fill="#9CBE51" transform="translate(82,88)"/>
<path d="M0 0 C0.7425 0.0825 1.485 0.165 2.25 0.25 C-1.07307692 4.18846154 -1.07307692 4.18846154 -4.5 4.5 C-5.2425 4.4175 -5.985 4.335 -6.75 4.25 C-3.42692308 0.31153846 -3.42692308 0.31153846 0 0 Z " fill="#70C647" transform="translate(77.75,99.75)"/>
<path d="M0 0 C-1.61594832 2.04119788 -3.2856382 4.04072937 -5 6 C-5.66 6 -6.32 6 -7 6 C-6.75 3.625 -6.75 3.625 -6 1 C-2.69333333 -1.34666667 -2.69333333 -1.34666667 0 0 Z " fill="#3BA644" transform="translate(55,122)"/>
<path d="M0 0 C1.65 0 3.3 0 5 0 C4.34 1.32 3.68 2.64 3 4 C1.35 4 -0.3 4 -2 4 C-1.34 2.68 -0.68 1.36 0 0 Z " fill="#5BB145" transform="translate(43,116)"/>
<path d="M0 0 C0.66 0.33 1.32 0.66 2 1 C1 4 1 4 -1.375 5.75 C-4 7 -4 7 -7 6 C-5.75 4.5 -5.75 4.5 -4 3 C-2.68 3 -1.36 3 0 3 C0 2.01 0 1.02 0 0 Z " fill="#578F45" transform="translate(80,82)"/>
<path d="M0 0 C-0.75 1.9375 -0.75 1.9375 -2 4 C-4.125 4.75 -4.125 4.75 -6 5 C-6.33 4.01 -6.66 3.02 -7 2 C-2.25 0 -2.25 0 0 0 Z " fill="#9FDD47" transform="translate(156,55)"/>
<path d="M0 0 C-2.35968744 2.09749995 -3.54616994 2.96905704 -6.75 3.1875 C-7.86375 3.0946875 -7.86375 3.0946875 -9 3 C-9 2.34 -9 1.68 -9 1 C-3.375 -1.125 -3.375 -1.125 0 0 Z " fill="#68AF2F" transform="translate(160,52)"/>
<path d="M0 0 C-5.75 4 -5.75 4 -8 4 C-7.1875 2.0625 -7.1875 2.0625 -6 0 C-3 -1 -3 -1 0 0 Z " fill="#8AD64C" transform="translate(92,93)"/>
<path d="M0 0 C-0.3125 1.9375 -0.3125 1.9375 -1 4 C-1.99 4.33 -2.98 4.66 -4 5 C-4.66 4.01 -5.32 3.02 -6 2 C-3 0 -3 0 0 0 Z " fill="#B8E053" transform="translate(100,81)"/>
<path d="M0 0 C0.99 0.33 1.98 0.66 3 1 C2.67 3.31 2.34 5.62 2 8 C1.01 7.67 0.02 7.34 -1 7 C-0.67 6.01 -0.34 5.02 0 4 C-0.66 3.67 -1.32 3.34 -2 3 C-1.34 3 -0.68 3 0 3 C0 2.01 0 1.02 0 0 Z " fill="#AFE23F" transform="translate(101,14)"/>
<path d="M0 0 C-0.6875 1.9375 -0.6875 1.9375 -2 4 C-4.625 4.75 -4.625 4.75 -7 5 C-2.25 0 -2.25 0 0 0 Z " fill="#389F36" transform="translate(73,107)"/>
<path d="M0 0 C0.33 0.99 0.66 1.98 1 3 C-2.22791555 5.1519437 -3.28400809 5.20086443 -7 5 C-6.34 4.34 -5.68 3.68 -5 3 C-4.01 3 -3.02 3 -2 3 C-2 2.34 -2 1.68 -2 1 C-1.34 0.67 -0.68 0.34 0 0 Z " fill="#83D047" transform="translate(83,95)"/>
<path d="M0 0 C0.33 0.66 0.66 1.32 1 2 C-0.30406884 4.01920337 -1.63823419 6.01924973 -3 8 C-3.33 8 -3.66 8 -4 8 C-4 6.02 -4 4.04 -4 2 C-2.68 1.34 -1.36 0.68 0 0 Z " fill="#65AA48" transform="translate(94,64)"/>
</svg>
