<?xml version="1.0" encoding="UTF-8"?>
<svg version="1.1" xmlns="http://www.w3.org/2000/svg" width="560" height="446">
<path d="M0 0 C1.45201215 -0.00417897 2.90402102 -0.00965957 4.35602391 -0.01631981 C8.32368283 -0.03071932 12.29113305 -0.026547 16.25880313 -0.019153 C20.54657845 -0.01440995 24.83430937 -0.02694122 29.12207031 -0.03717041 C37.51353941 -0.0543416 45.90493357 -0.0552019 54.29641567 -0.04995751 C61.11911805 -0.04591139 67.94179833 -0.04736461 74.76449966 -0.05270576 C76.22266104 -0.0538284 76.22266104 -0.0538284 77.71028022 -0.05497371 C79.68530011 -0.05650523 81.66031999 -0.05804358 83.63533987 -0.05958868 C102.14493336 -0.07330768 120.65448454 -0.06788028 139.16407706 -0.05640347 C156.08474287 -0.04647207 173.00529931 -0.05941122 189.92594825 -0.08333766 C207.31496497 -0.10774046 224.70393079 -0.1173336 242.09296429 -0.11068493 C251.84962528 -0.1071953 261.60620218 -0.10940789 271.36285019 -0.12693596 C279.6685505 -0.14167271 287.9741075 -0.14227413 296.27980505 -0.12486505 C300.51425811 -0.11636475 304.74845532 -0.11418163 308.9828949 -0.1295166 C312.86547819 -0.14340282 316.7475874 -0.13855058 320.63014354 -0.11927737 C322.02843245 -0.11552904 323.4267597 -0.11840544 324.82501434 -0.12888902 C336.15692281 -0.20775403 346.21860378 1.67638039 355.7649231 8.01268005 C357.13390747 8.89826599 357.13390747 8.89826599 358.5305481 9.80174255 C359.51281372 10.58678162 359.51281372 10.58678162 360.5149231 11.38768005 C360.5149231 12.04768005 360.5149231 12.70768005 360.5149231 13.38768005 C361.5049231 13.71768005 362.4949231 14.04768005 363.5149231 14.38768005 C363.5149231 15.04768005 363.5149231 15.70768005 363.5149231 16.38768005 C364.5049231 16.71768005 365.4949231 17.04768005 366.5149231 17.38768005 C366.5149231 18.04768005 366.5149231 18.70768005 366.5149231 19.38768005 C367.1749231 19.38768005 367.8349231 19.38768005 368.5149231 19.38768005 C377.79680065 29.67668215 380.59222889 44.00769167 380.76101685 57.39549255 C380.79242796 59.19164088 380.8241797 60.98778328 380.85623169 62.78392029 C380.87159973 63.71936676 380.88696777 64.65481323 380.90280151 65.61860657 C381.21094907 83.59065882 381.73311713 101.49083306 383.5149231 119.38768005 C383.59935669 120.26714294 383.68379028 121.14660583 383.77078247 122.05271912 C386.24099192 146.11404499 393.19574987 174.43642022 410.5149231 192.38768005 C411.24066528 192.91619568 411.96640747 193.4447113 412.71414185 193.98924255 C413.30839966 194.45072693 413.90265747 194.9122113 414.5149231 195.38768005 C414.5149231 196.04768005 414.5149231 196.70768005 414.5149231 197.38768005 C415.08339966 197.66869568 415.65187622 197.9497113 416.23757935 198.23924255 C417.71443336 198.98400256 419.18151464 199.74859702 420.63601685 200.53611755 C427.64755817 204.24880554 433.59920797 205.9520754 441.5149231 208.38768005 C441.5149231 218.28768005 441.5149231 228.18768005 441.5149231 238.38768005 C434.5849231 240.36768005 434.5849231 240.36768005 427.5149231 242.38768005 C417.7048854 246.67252411 410.99834361 251.87494262 405.0149231 260.76268005 C404.30783203 261.81032532 404.30783203 261.81032532 403.5864563 262.87913513 C391.23166079 281.72310468 385.92088107 304.22432147 383.5149231 326.38768005 C383.41727661 327.26730408 383.31963013 328.1469281 383.21902466 329.0532074 C381.99774578 340.64302055 381.47517887 352.21051904 381.27664185 363.85643005 C381.25869568 364.87193939 381.24074951 365.88744873 381.22225952 366.93373108 C381.13558976 372.05434374 381.06914818 377.17418409 381.03201294 382.2953949 C380.82067477 401.7413502 377.28459363 417.74248134 363.5149231 432.38768005 C360.1653901 435.26729488 356.67144613 437.67209273 352.8899231 439.95018005 C351.94890747 440.52896912 351.00789185 441.10775818 350.0383606 441.7040863 C340.5694764 446.22857531 331.44028052 446.82283163 321.06817627 446.77536011 C319.63251292 446.77954048 318.19685288 446.78502184 316.76119888 446.79167992 C312.84333525 446.80606111 308.9256833 446.80191292 305.00780845 446.79451311 C300.77183829 446.78976548 296.53591289 446.80230535 292.29995728 446.81253052 C284.011896 446.82969273 275.72391063 446.83056388 267.43583621 446.82531761 C260.69659494 446.82126985 253.95737604 446.82272667 247.21813583 446.82806587 C246.25755391 446.82881429 245.29697198 446.82956272 244.30728152 446.83033382 C242.35561689 446.83186536 240.40395227 446.8334037 238.45228766 446.83494879 C220.1658452 446.84866452 201.87944557 446.84324267 183.59300409 446.83176357 C166.88000575 446.82183235 150.16711813 446.83477162 133.45413686 446.85869776 C116.27413581 446.88310633 99.09418628 446.8926923 81.91416824 446.88604504 C72.27653843 446.8825567 62.63899376 446.88475939 53.00137711 446.90229607 C44.79710494 446.91704003 36.59297787 446.91762485 28.38870849 446.90022516 C24.2067804 446.8917308 20.02511125 446.88952709 15.84319687 446.90487671 C12.0074767 446.91878079 8.17223591 446.91388808 4.33654307 446.89463747 C2.30766824 446.88913509 0.27876864 446.90310107 -1.75005901 446.91799158 C-15.52849621 446.80817008 -29.16936181 442.97754525 -39.54367065 433.5087738 C-41.32592034 431.54393284 -42.91359949 429.52427004 -44.4850769 427.38768005 C-45.09093628 426.61424255 -45.69679565 425.84080505 -46.3210144 425.04393005 C-54.49783286 414.14150545 -57.74201681 401.56538838 -57.8288269 388.0868988 C-57.8573021 386.30052172 -57.88578549 384.51414478 -57.91427612 382.72776794 C-57.93116486 381.34308823 -57.93116486 381.34308823 -57.94839478 379.93043518 C-58.17833267 362.03258183 -58.69465724 344.20790389 -60.4850769 326.38768005 C-60.57482788 325.48694763 -60.66457886 324.58621521 -60.75704956 323.65818787 C-63.52719842 297.76141975 -71.88651887 266.83396348 -92.1100769 248.88768005 C-99.70787668 243.27086464 -109.31325931 240.22204357 -118.4850769 238.38768005 C-118.4850769 228.48768005 -118.4850769 218.58768005 -118.4850769 208.38768005 C-109.9225769 205.70018005 -109.9225769 205.70018005 -107.26803589 204.88890076 C-101.86903894 203.13963794 -98.00476474 200.80216752 -93.4850769 197.38768005 C-92.8250769 197.38768005 -92.1650769 197.38768005 -91.4850769 197.38768005 C-91.4850769 196.72768005 -91.4850769 196.06768005 -91.4850769 195.38768005 C-89.9691394 194.18111755 -89.9691394 194.18111755 -88.4225769 192.95018005 C-77.11520297 183.53496749 -71.24357777 167.10805057 -67.2975769 153.38768005 C-66.95516968 152.20560974 -66.61276245 151.02353943 -66.25997925 149.8056488 C-63.42367453 139.71250468 -61.5057141 129.81220348 -60.4850769 119.38768005 C-60.39033081 118.47373474 -60.29558472 117.55978943 -60.19796753 116.6181488 C-59.02482393 104.85521904 -58.45662881 93.11223204 -58.24679565 81.2978363 C-58.2198764 79.83850174 -58.2198764 79.83850174 -58.19241333 78.34968567 C-58.10605091 73.47231556 -58.03940733 68.59575034 -58.00216675 63.71775818 C-57.81988457 47.88462686 -55.75620078 32.209117 -45.4850769 19.38768005 C-44.8250769 19.38768005 -44.1650769 19.38768005 -43.4850769 19.38768005 C-42.9900769 17.90268005 -42.9900769 17.90268005 -42.4850769 16.38768005 C-41.8250769 16.38768005 -41.1650769 16.38768005 -40.4850769 16.38768005 C-40.2891394 15.82178162 -40.0932019 15.25588318 -39.8913269 14.6728363 C-37.91132867 11.45533918 -35.1132515 9.79859233 -31.9850769 7.82518005 C-31.12269409 7.24606873 -31.12269409 7.24606873 -30.2428894 6.65525818 C-20.70848176 0.54532664 -11.08855329 -0.05222428 0 0 Z M76.5149231 105.38768005 C76.5149231 183.26768005 76.5149231 261.14768005 76.5149231 341.38768005 C148.38651696 349.54177194 148.38651696 349.54177194 234.2883606 323.7431488 C235.02312622 322.96584412 235.75789185 322.18853943 236.5149231 321.38768005 C237.2986731 320.83080505 238.0824231 320.27393005 238.8899231 319.70018005 C247.87722395 311.78279596 254.78276898 297.46578043 255.8664856 285.5087738 C256.97958881 267.91608314 255.5109608 254.01901984 244.5149231 239.38768005 C244.00187622 238.64646912 243.48882935 237.90525818 242.9602356 237.1415863 C242.48328247 236.56279724 242.00632935 235.98400818 241.5149231 235.38768005 C240.8549231 235.38768005 240.1949231 235.38768005 239.5149231 235.38768005 C239.5149231 234.72768005 239.5149231 234.06768005 239.5149231 233.38768005 C229.47400331 223.10769074 216.16028029 219.2408002 202.5149231 216.38768005 C204.69330898 214.20929417 205.80892357 213.85931503 208.7024231 213.01268005 C212.98587702 211.63268373 216.76751985 209.88594888 220.5149231 207.38768005 C221.56293091 206.69932068 221.56293091 206.69932068 222.6321106 205.99705505 C233.0045923 198.60352138 240.62969559 187.83342464 243.1633606 175.29393005 C245.23995985 158.12737623 242.96995278 142.21382925 232.1555481 128.34080505 C228.13235908 123.55129432 224.10011921 119.31325897 218.5149231 116.38768005 C217.9271106 116.0215863 217.3392981 115.65549255 216.7336731 115.27830505 C178.1064037 91.92898549 105.35527162 105.38768005 76.5149231 105.38768005 Z " fill="#7D09F7" transform="translate(118.48507690429688,-0.3876800537109375)"/>
<path d="M0 0 C1.08623657 -0.00637985 2.17247314 -0.0127597 3.29162598 -0.01933289 C4.47994019 -0.02044571 5.66825439 -0.02155853 6.89257812 -0.02270508 C8.72773987 -0.02769768 8.72773987 -0.02769768 10.59997559 -0.03279114 C13.20613224 -0.03787143 15.81229543 -0.04019913 18.41845703 -0.04003906 C22.35131698 -0.03991941 26.28398313 -0.06025919 30.21679688 -0.0793457 C65.15718181 -0.1615826 65.15718181 -0.1615826 77.11132812 4.95776367 C78.28050781 5.43858398 79.4496875 5.9194043 80.65429688 6.41479492 C89.72897744 11.21776205 94.49733718 17.97579323 97.93164062 27.41479492 C100.95961679 38.79950845 99.50141237 49.74934749 93.92382812 60.14526367 C89.66861261 66.47239041 84.18316895 70.8970387 77.11132812 73.77026367 C76.13550781 74.1750293 75.1596875 74.57979492 74.15429688 74.99682617 C65.49686422 78.07455918 57.72858147 78.49243617 48.57226562 78.59448242 C47.18558742 78.61577833 45.79891941 78.63774753 44.41226196 78.66035461 C41.51935539 78.70552899 38.62645816 78.74437921 35.73339844 78.77832031 C32.03695169 78.82194342 28.34085278 78.87871089 24.64465904 78.93986797 C21.78617833 78.98617877 18.92763982 79.02690825 16.06904984 79.06583595 C14.70635608 79.08479223 13.34368085 79.10513522 11.98102951 79.12692833 C10.07450591 79.15630425 8.16786408 79.17767176 6.26123047 79.19873047 C5.17949554 79.21268356 4.09776062 79.22663666 2.98324585 79.24101257 C-0.12011431 79.14388843 -3.02936629 78.72639742 -6.07617188 78.14526367 C-6.09929597 68.12298604 -6.1170873 58.1007147 -6.12798405 48.07841587 C-6.13321273 43.42515181 -6.1403101 38.77190594 -6.15161133 34.11865234 C-6.16244074 29.63181821 -6.16844882 25.14500163 -6.17104912 20.65815544 C-6.17290327 18.94246074 -6.1765237 17.22676706 -6.18190193 15.51107979 C-6.18911309 13.11641454 -6.19016279 10.72182271 -6.18969727 8.32714844 C-6.19329254 7.61073685 -6.19688782 6.89432526 -6.20059204 6.15620422 C-6.18810808 0.25993288 -5.79390789 0.02302695 0 0 Z " fill="#7908F3" transform="translate(238.076171875,232.854736328125)"/>
<path d="M0 0 C1.12562347 -0.00637985 2.25124695 -0.0127597 3.41098022 -0.01933289 C4.63999054 -0.02044571 5.86900085 -0.02155853 7.13525391 -0.02270508 C9.02505478 -0.02769768 9.02505478 -0.02769768 10.95303345 -0.03279114 C13.63148502 -0.03786917 16.30983531 -0.04063021 18.98828125 -0.04003906 C22.391742 -0.03993835 25.79498982 -0.05348945 29.1984005 -0.07081127 C32.46900987 -0.08474496 35.73961894 -0.08402449 39.01025391 -0.08520508 C40.82340591 -0.09598335 40.82340591 -0.09598335 42.67318726 -0.10697937 C56.38047299 -0.07053429 69.38519565 1.84830132 79.79931641 11.58276367 C85.78966675 18.22739985 88.27047822 28.0464569 87.98681641 36.91088867 C86.97436085 45.95971017 84.83420791 53.62761841 77.91650391 59.75854492 C66.07544695 69.11530169 53.63948427 71.62501496 38.75634766 71.43823242 C37.46234543 71.43398758 36.1683432 71.42974274 34.83512878 71.42536926 C31.43368385 71.41404228 28.03263759 71.384684 24.63134766 71.35125732 C21.14507435 71.32029049 17.65873516 71.30680773 14.17236328 71.29174805 C7.36035297 71.25979919 0.54860395 71.2087548 -6.26318359 71.14526367 C-6.28630904 62.03567203 -6.30409971 52.92609042 -6.31499577 43.81647587 C-6.32022415 39.58694996 -6.32732099 35.35744407 -6.33862305 31.12792969 C-6.34945351 27.04957824 -6.35546076 22.9712461 -6.35806084 18.89288139 C-6.3599148 17.33348728 -6.36353487 15.77409427 -6.36891365 14.21470833 C-6.37612621 12.03797205 -6.37717445 9.86131653 -6.37670898 7.68457031 C-6.3789296 6.44324844 -6.38115021 5.20192657 -6.38343811 3.92298889 C-6.1772026 -0.84078715 -4.27504882 0.01637809 0 0 Z " fill="#7D09F3" transform="translate(238.26318359375,133.854736328125)"/>
<path d="M0 0 C1.21538405 0.00138269 1.21538405 0.00138269 2.45532131 0.00279331 C3.38225292 0.00141865 4.30918453 0.00004398 5.26420498 -0.00137234 C6.80168392 0.00402058 6.80168392 0.00402058 8.37022305 0.00952244 C9.97978123 0.0093034 9.97978123 0.0093034 11.62185574 0.00907993 C15.18765656 0.00977959 18.75340589 0.01757445 22.31919765 0.02539158 C24.78399534 0.02725557 27.24879339 0.02867956 29.71359158 0.0296793 C36.21558045 0.03350596 42.71754716 0.0433375 49.21952724 0.05438328 C55.84844957 0.06513035 62.47737833 0.06917624 69.10630703 0.0742197 C82.12389464 0.08495964 95.14146685 0.10184686 108.1590414 0.12304783 C108.1590414 0.45304783 108.1590414 0.78304783 108.1590414 1.12304783 C72.8490414 1.12304783 37.5390414 1.12304783 1.1590414 1.12304783 C1.1590414 79.33304783 1.1590414 157.54304783 1.1590414 238.12304783 C0.1690414 238.12304783 -0.8209586 238.12304783 -1.8409586 238.12304783 C-3.55706509 234.69083485 -2.97722221 230.74454582 -2.96794224 226.96775913 C-2.96950223 226.00712104 -2.97106222 225.04648296 -2.97266948 224.05673462 C-2.97667804 220.81767462 -2.97349039 217.57866097 -2.97035313 214.33960056 C-2.97170722 212.0256863 -2.9734872 209.71177225 -2.97566319 207.39785862 C-2.98023628 201.09851868 -2.97844853 194.79919504 -2.9752841 188.4998548 C-2.97276017 181.9219459 -2.9750981 175.34403844 -2.97667027 168.76612949 C-2.97880881 157.01035379 -2.97549254 145.25458498 -2.97041093 133.49881048 C-2.96594192 122.82968864 -2.9667198 112.16057768 -2.97132969 101.49145603 C-2.97667526 89.11381541 -2.97867647 76.73618173 -2.97571743 64.35854012 C-2.97415429 57.8019205 -2.9739619 51.24530838 -2.97725391 44.68868923 C-2.98013128 38.52708784 -2.97815943 32.36550711 -2.97235966 26.20390797 C-2.97103139 23.93545853 -2.97142729 21.66700738 -2.97362232 19.39855862 C-2.97633119 16.31613281 -2.97295596 13.23377433 -2.96794224 10.15135288 C-2.97017296 9.24125711 -2.97240368 8.33116135 -2.974702 7.39348692 C-2.95179882 0.19729528 -2.95179882 0.19729528 0 0 Z " fill="#8634D1" transform="translate(193.84095859527588,103.87695217132568)"/>
<path d="M0 0 C2.375 0.6875 2.375 0.6875 5 2 C6.3125 4.625 6.3125 4.625 7 7 C7.66 7 8.32 7 9 7 C9 7.99 9 8.98 9 10 C10.32 9.67 11.64 9.34 13 9 C13.33 9.66 13.66 10.32 14 11 C14.66 10.67 15.32 10.34 16 10 C16 11.32 16 12.64 16 14 C15.34 14.66 14.68 15.32 14 16 C14.47824219 17.22332031 14.95648438 18.44664062 15.44921875 19.70703125 C17.42319428 25.65219474 17.64384538 31.46355681 17.8125 37.6875 C17.84964111 38.83710205 17.88678223 39.9867041 17.92504883 41.17114258 C18.12062817 49.33297416 17.82120018 57.01021856 16 65 C15.83113281 65.7528125 15.66226563 66.505625 15.48828125 67.28125 C14.70980112 70.32043642 13.76039402 72.35940898 12 75 C11.154375 75.474375 10.30875 75.94875 9.4375 76.4375 C6.8817917 77.76447666 6.8817917 77.76447666 6.0625 80.0625 C6.041875 80.701875 6.02125 81.34125 6 82 C6.66 82.66 7.32 83.32 8 84 C4.25 87 4.25 87 2 87 C0.02383467 89.10573566 0.02383467 89.10573566 -2 91.75 C-2.70125 92.63171875 -3.4025 93.5134375 -4.125 94.421875 C-5.69307683 96.57798064 -6.91326484 98.57748621 -8 101 C-8.66 100.67 -9.32 100.34 -10 100 C-13.70246587 98.59561639 -15.45067396 99.42252176 -19 101 C-20.49586283 101.51224447 -21.99630143 102.01123562 -23.5 102.5 C-27.43364335 103.7959424 -31.28989972 105.14494986 -35 107 C-35.66 106.67 -36.32 106.34 -37 106 C-37.495 107.485 -37.495 107.485 -38 109 C-39.9490625 108.7215625 -39.9490625 108.7215625 -41.9375 108.4375 C-45.08755936 107.98749152 -47.86239889 108.07253354 -50.99449158 108.49107361 C-56.32358245 109.10552843 -61.57775912 109.0926887 -66.93579102 109.02172852 C-67.99049088 109.01212097 -69.04519073 109.00251343 -70.1318512 108.99261475 C-73.58927574 108.95985182 -77.04656477 108.91943418 -80.50390625 108.87890625 C-82.91242507 108.8545829 -85.32094879 108.83074048 -87.72947693 108.80735779 C-94.04726778 108.74473721 -100.36497111 108.67560887 -106.68267822 108.60510254 C-113.13802122 108.53421939 -119.59342592 108.46952226 -126.04882812 108.40429688 C-138.69928624 108.2755687 -151.34966378 108.14017228 -164 108 C-164 107.67 -164 107.34 -164 107 C-157.41641934 106.2419012 -150.93120783 105.84711184 -144.30615234 105.82641602 C-143.39404999 105.819729 -142.48194763 105.81304199 -141.54220581 105.80615234 C-139.57912853 105.79220499 -137.61603601 105.7802791 -135.65293503 105.77020454 C-132.53082495 105.75361338 -129.40882663 105.73036871 -126.28677368 105.70530701 C-117.4156871 105.63503968 -108.54455506 105.57467795 -99.67333984 105.52319336 C-94.22818811 105.49112739 -88.78316745 105.44978794 -83.33812332 105.40299797 C-81.28038546 105.38714524 -79.22261759 105.37474822 -77.16483688 105.36609077 C-54.18283376 105.26801904 -33.24351255 103.3004991 -12.9765625 91.671875 C-10 90 -10 90 -7 89 C-6.71125 88.4225 -6.4225 87.845 -6.125 87.25 C-4.61694529 84.23389057 -2.38529794 82.38529794 0 80 C11.86892574 67.13933114 13.92699532 49.79788481 14.015625 33.046875 C13.42569759 23.14920397 9.09914353 13.83022105 3.33203125 5.90234375 C2.00283822 4.00405341 0.98427169 2.09449285 0 0 Z " fill="#6709D6" transform="translate(360,235)"/>
<path d="M0 0 C1.01037827 0.00222061 2.02075653 0.00444122 3.06175232 0.00672913 C4.77341331 0.00684242 4.77341331 0.00684242 6.51965332 0.00695801 C7.76129745 0.01211929 9.00294159 0.01728058 10.2822113 0.02259827 C12.17785072 0.02472069 12.17785072 0.02472069 14.11178589 0.02688599 C17.47705394 0.0315487 20.84225495 0.04053972 24.20750427 0.05158997 C27.63930175 0.06180606 31.07110614 0.06638403 34.50291443 0.07142639 C41.2405633 0.08248071 47.9781803 0.09923742 54.71580505 0.12025452 C55.21080505 1.11025452 55.21080505 1.11025452 55.71580505 2.12025452 C55.05625824 2.13056198 54.39671143 2.14086945 53.71717834 2.15148926 C46.87189016 2.25940831 40.02673751 2.3740179 33.18162537 2.49256897 C30.62468798 2.53596474 28.06772074 2.57763632 25.51072693 2.61756897 C21.84201546 2.67515921 18.17345494 2.7388859 14.50486755 2.80384827 C13.35587982 2.82056076 12.20689209 2.83727325 11.02308655 2.85449219 C9.43166336 2.88441002 9.43166336 2.88441002 7.80809021 2.91493225 C6.40244308 2.93824867 6.40244308 2.93824867 4.96839905 2.96203613 C2.68066714 2.97805437 2.68066714 2.97805437 0.71580505 4.12025452 C0.38580505 27.88025452 0.05580505 51.64025452 -0.28419495 76.12025452 C9.59518005 76.01712952 19.47455505 75.91400452 29.65330505 75.80775452 C32.75599792 75.7828595 35.8586908 75.75796448 39.05540466 75.73231506 C41.53466783 75.7000081 44.0139174 75.66663199 46.4931488 75.63197327 C47.76420471 75.62572937 49.03526062 75.61948547 50.34483337 75.61305237 C56.65803636 75.51131602 62.0717888 75.15477392 67.95410156 72.7585144 C69.71580505 72.12025452 69.71580505 72.12025452 72.71580505 72.12025452 C75.23172232 70.79939795 77.2820957 69.59010632 79.21580505 67.49525452 C80.71580505 66.12025452 80.71580505 66.12025452 83.27830505 65.62025452 C86.07443388 65.34456081 86.07443388 65.34456081 87.71580505 62.12025452 C90.34080505 61.93275452 90.34080505 61.93275452 92.71580505 62.12025452 C93.04580505 60.47025452 93.37580505 58.82025452 93.71580505 57.12025452 C94.37580505 58.11025452 95.03580505 59.10025452 95.71580505 60.12025452 C94.2138484 63.94341692 91.94867132 65.67589222 88.71580505 68.12025452 C88.28525818 68.60236389 87.8547113 69.08447327 87.41111755 69.58119202 C85.15705303 71.62750866 82.84209535 72.53345989 80.02830505 73.68275452 C79.03443787 74.09654358 78.04057068 74.51033264 77.0165863 74.93666077 C68.3352223 78.04962324 60.55299435 78.46706552 51.36424255 78.56947327 C49.97756435 78.59076917 48.59089634 78.61273838 47.20423889 78.63534546 C44.31133232 78.68051983 41.41843509 78.71937006 38.52537537 78.75331116 C34.82892861 78.79693426 31.1328297 78.85370173 27.43663597 78.91485882 C24.57815525 78.96116962 21.71961675 79.0018991 18.86102676 79.0408268 C17.49833301 79.05978308 16.13565778 79.08012607 14.77300644 79.10191917 C12.86648284 79.1312951 10.959841 79.1526626 9.0532074 79.17372131 C7.97147247 79.18767441 6.88973755 79.2016275 5.77522278 79.21600342 C2.67186262 79.11887927 -0.23738937 78.70138827 -3.28419495 78.12025452 C-3.30731904 68.09797688 -3.32511037 58.07570555 -3.33600712 48.05340672 C-3.3412358 43.40014265 -3.34833318 38.74689678 -3.3596344 34.09364319 C-3.37046381 29.60680906 -3.37647189 25.11999247 -3.37907219 20.63314629 C-3.38092634 18.91745159 -3.38454677 17.2017579 -3.389925 15.48607063 C-3.39713616 13.09140539 -3.39818586 10.69681356 -3.39772034 8.30213928 C-3.40131561 7.58572769 -3.40491089 6.8693161 -3.40861511 6.13119507 C-3.3960123 0.17878764 -3.3960123 0.17878764 0 0 Z " fill="#6D18C1" transform="translate(235.28419494628906,232.87974548339844)"/>
<path d="M0 0 C1.12562347 -0.00637985 2.25124695 -0.0127597 3.41098022 -0.01933289 C4.63999054 -0.02044571 5.86900085 -0.02155853 7.13525391 -0.02270508 C9.02505478 -0.02769768 9.02505478 -0.02769768 10.95303345 -0.03279114 C13.63148502 -0.03786917 16.30983531 -0.04063021 18.98828125 -0.04003906 C22.391742 -0.03993835 25.79498982 -0.05348945 29.1984005 -0.07081127 C32.46900987 -0.08474496 35.73961894 -0.08402449 39.01025391 -0.08520508 C40.82340591 -0.09598335 40.82340591 -0.09598335 42.67318726 -0.10697937 C52.47837955 -0.08090922 61.6640759 0.52942764 70.42431641 5.27026367 C71.94605469 6.07850586 71.94605469 6.07850586 73.49853516 6.90307617 C74.23716797 7.31299805 74.97580078 7.72291992 75.73681641 8.14526367 C75.73681641 8.47526367 75.73681641 8.80526367 75.73681641 9.14526367 C74.31369141 9.11432617 74.31369141 9.11432617 72.86181641 9.08276367 C69.83015358 8.91974541 69.83015358 8.91974541 67.73681641 10.14526367 C67.73681641 9.48526367 67.73681641 8.82526367 67.73681641 8.14526367 C66.74681641 7.81526367 65.75681641 7.48526367 64.73681641 7.14526367 C65.06681641 6.81526367 65.39681641 6.48526367 65.73681641 6.14526367 C51.18344294 2.4885591 36.66402783 2.59676163 21.73681641 2.45776367 C13.15681641 2.35463867 4.57681641 2.25151367 -4.26318359 2.14526367 C-4.26318359 24.25526367 -4.26318359 46.36526367 -4.26318359 69.14526367 C4.44056641 69.00088867 13.14431641 68.85651367 22.11181641 68.70776367 C26.23496338 68.64310913 26.23496338 68.64310913 30.44140625 68.57714844 C32.61019554 68.53903721 34.7789786 68.50056908 36.94775391 68.46166992 C38.08188721 68.44519409 39.21602051 68.42871826 40.38452148 68.41174316 C41.46032471 68.39156128 42.53612793 68.37137939 43.64453125 68.35058594 C45.05017838 68.32726952 45.05017838 68.32726952 46.48422241 68.30348206 C48.77195432 68.28746382 48.77195432 68.28746382 50.73681641 67.14526367 C53.4091785 67.01110895 56.05932129 67.10207827 58.73681641 67.14526367 C58.73681641 66.48526367 58.73681641 65.82526367 58.73681641 65.14526367 C61.70681641 65.14526367 64.67681641 65.14526367 67.73681641 65.14526367 C67.73681641 64.48526367 67.73681641 63.82526367 67.73681641 63.14526367 C69.71681641 62.81526367 71.69681641 62.48526367 73.73681641 62.14526367 C60.13881682 73.9929161 41.11988535 71.76887334 24.2880249 71.48858643 C20.83491495 71.43669782 17.38161314 71.41444661 13.92822266 71.3894043 C7.19726635 71.33476323 0.4671464 71.25146664 -6.26318359 71.14526367 C-6.28630904 62.03567203 -6.30409971 52.92609042 -6.31499577 43.81647587 C-6.32022415 39.58694996 -6.32732099 35.35744407 -6.33862305 31.12792969 C-6.34945351 27.04957824 -6.35546076 22.9712461 -6.35806084 18.89288139 C-6.3599148 17.33348728 -6.36353487 15.77409427 -6.36891365 14.21470833 C-6.37612621 12.03797205 -6.37717445 9.86131653 -6.37670898 7.68457031 C-6.3789296 6.44324844 -6.38115021 5.20192657 -6.38343811 3.92298889 C-6.1772026 -0.84078715 -4.27504882 0.01637809 0 0 Z " fill="#853FCB" transform="translate(238.26318359375,133.854736328125)"/>
<path d="M0 0 C1.5625 1.6875 1.5625 1.6875 3 4 C2.8125 6.3125 2.8125 6.3125 2 9 C1.71125 10.19625 1.4225 11.3925 1.125 12.625 C-0.00516244 16.01548733 -0.59398121 16.65309715 -3 19 C-4.34214574 21.08291461 -5.57595837 23.21076914 -6.81640625 25.35546875 C-7.20699219 25.89816406 -7.59757812 26.44085938 -8 27 C-8.66 27 -9.32 27 -10 27 C-10 28.32 -10 29.64 -10 31 C-11.375 32.625 -11.375 32.625 -13 34 C-13.66 34.66 -14.32 35.32 -15 36 C-15.639375 36.28875 -16.27875 36.5775 -16.9375 36.875 C-19.15396838 37.89504305 -19.15396838 37.89504305 -20.5625 40.125 C-21.036875 40.74375 -21.51125 41.3625 -22 42 C-22.99 42 -23.98 42 -25 42 C-25.33 42.66 -25.66 43.32 -26 44 C-20.72 44 -15.44 44 -10 44 C-10.99 46.475 -10.99 46.475 -12 49 C-9.28395285 51.87420123 -9.28395285 51.87420123 -6 54 C-5.33333333 55.33333333 -4.66666667 56.66666667 -4 58 C-3.01 58.495 -3.01 58.495 -2 59 C-1.375 61.0625 -1.375 61.0625 -1 63 C-1.66 63 -2.32 63 -3 63 C-3 62.34 -3 61.68 -3 61 C-3.598125 60.731875 -4.19625 60.46375 -4.8125 60.1875 C-7 59 -7 59 -8.25 57.640625 C-16.55798793 49.85188631 -29.21692452 47.25464306 -40 45 C-40 44.01 -40 43.02 -40 42 C-39.12859375 41.74347656 -38.2571875 41.48695313 -37.359375 41.22265625 C-22.30782607 36.38465838 -11.80898133 27.88097763 -3.8515625 13.99609375 C-1.78993481 9.59727428 -0.91445691 4.74441763 0 0 Z " fill="#6F11D6" transform="translate(361,172)"/>
<path d="M0 0 C0.33 0 0.66 0 1 0 C1.20231929 1.72749545 1.38566571 3.45721007 1.5625 5.1875 C1.71912109 6.63189453 1.71912109 6.63189453 1.87890625 8.10546875 C1.97939215 11.33722507 1.83887498 14.27656215 1.55078125 17.484375 C1.02892475 23.63034357 0.86901818 29.74346588 0.7890625 35.91015625 C0.77481735 36.89138962 0.7605722 37.87262299 0.74589539 38.8835907 C0.68805117 42.97418607 0.63350638 47.06465481 0.59863281 51.15551758 C0.40674459 71.97704361 -2.11833624 89.17210328 -17 105 C-20.4736055 107.99784765 -24.1313951 110.45184914 -28.0625 112.8125 C-29.59583984 113.75029297 -29.59583984 113.75029297 -31.16015625 114.70703125 C-34 116 -34 116 -36.37109375 115.69921875 C-36.90863281 115.46847656 -37.44617188 115.23773438 -38 115 C-35.35261084 113.5393715 -34.10551666 113 -31 113 C-31 112.34 -31 111.68 -31 111 C-30.34 111 -29.68 111 -29 111 C-29 109.68 -29 108.36 -29 107 C-28.195625 106.87625 -27.39125 106.7525 -26.5625 106.625 C-25.2940625 106.315625 -25.2940625 106.315625 -24 106 C-23.505 105.01 -23.505 105.01 -23 104 C-22.01 104 -21.02 104 -20 104 C-20 102.68 -20 101.36 -20 100 C-18.68945377 98.64426252 -17.35251497 97.31387169 -16 96 C-15.525625 94.989375 -15.05125 93.97875 -14.5625 92.9375 C-13 90 -13 90 -10.51171875 88.74609375 C-7.70709326 87.16100054 -7.70709326 87.16100054 -6.890625 83.8203125 C-6.67921875 82.60085938 -6.4678125 81.38140625 -6.25 80.125 C-5.91742188 78.30355469 -5.91742188 78.30355469 -5.578125 76.4453125 C-5.38734375 75.30835938 -5.1965625 74.17140625 -5 73 C-4.82436523 72.21898926 -4.64873047 71.43797852 -4.46777344 70.63330078 C-3.96989408 67.83052066 -3.90293164 65.26704316 -3.9375 62.421875 C-3.94587891 61.35050293 -3.95425781 60.27913086 -3.96289062 59.17529297 C-3.97513672 58.04494629 -3.98738281 56.91459961 -4 55.75 C-4.06320556 45.45467578 -3.80044748 35.26288021 -3 25 C-2.34 25 -1.68 25 -1 25 C-1.01160156 23.69804687 -1.02320313 22.39609375 -1.03515625 21.0546875 C-1.04453973 19.32812644 -1.05363934 17.60156382 -1.0625 15.875 C-1.07087891 15.0190625 -1.07925781 14.163125 -1.08789062 13.28125 C-1.10538306 8.73321589 -0.93192358 4.47616836 0 0 Z " fill="#600CCC" transform="translate(499,327)"/>
<path d="M0 0 C0.70189453 0.00451172 1.40378906 0.00902344 2.12695312 0.01367188 C3.85550538 0.02543073 5.58401365 0.04336546 7.3125 0.0625 C2.57188587 2.60211471 -1.24210194 3.18748036 -6.61453629 3.18554783 C-8.44481507 3.1885344 -8.44481507 3.1885344 -10.31206918 3.19158131 C-11.66802759 3.18872828 -13.02398581 3.18578268 -14.37994385 3.18275452 C-15.81882679 3.18319048 -17.25770965 3.18406585 -18.69659209 3.18534368 C-22.6553125 3.18758369 -26.61400594 3.18357408 -30.57272291 3.17856562 C-34.83990447 3.17425424 -39.10708446 3.17570804 -43.37426758 3.1764679 C-50.76904919 3.17699269 -58.16382199 3.17385049 -65.55860138 3.16823006 C-76.25026117 3.16010909 -86.94191669 3.15749922 -97.63357922 3.15624207 C-114.97935471 3.15405249 -132.3251255 3.14739494 -149.67089844 3.13793945 C-166.5224607 3.12876291 -183.37402168 3.12168326 -200.22558594 3.11743164 C-201.2640095 3.11716892 -202.30243307 3.11690619 -203.37232402 3.11663551 C-208.58169827 3.11533049 -213.79107253 3.11406678 -219.0004468 3.11282361 C-262.22946779 3.10245392 -305.45848365 3.08483815 -348.6875 3.0625 C-348.6875 2.7325 -348.6875 2.4025 -348.6875 2.0625 C-347.97344142 2.06076375 -347.25938283 2.0590275 -346.52368611 2.05723864 C-304.23680483 1.95429153 -261.94993944 1.8461966 -219.66308863 1.73138306 C-214.58976427 1.71761288 -209.51643979 1.70388588 -204.44311523 1.69018555 C-203.43307437 1.68745724 -202.42303351 1.68472894 -201.38238535 1.68191796 C-185.01117341 1.63779937 -168.63995454 1.59718076 -152.26873048 1.55784739 C-135.48011115 1.51743359 -118.69150469 1.47327766 -101.90290433 1.42562145 C-91.53693827 1.3963153 -81.1709732 1.36995537 -70.80499039 1.34732103 C-63.70418741 1.33153714 -56.60340019 1.31213033 -49.5026147 1.28983159 C-45.40107915 1.27705978 -41.29955576 1.26592647 -37.19800568 1.25908089 C-33.44701984 1.25278528 -29.69607594 1.2419662 -25.9451131 1.2274667 C-23.93716909 1.22090504 -21.92921089 1.21925778 -19.92125672 1.21775442 C-18.73789587 1.21227998 -17.55453502 1.20680554 -16.33531475 1.2011652 C-15.30969014 1.19850716 -14.28406553 1.19584911 -13.22736138 1.19311053 C-8.74570951 0.96264484 -4.60695954 -0.05592014 0 0 Z " fill="#7D1FDF" transform="translate(454.6875,442.9375)"/>
<path d="M0 0 C1.07310858 3.27185553 0.89263102 5.42947592 0.0625 8.75 C-0.13214844 9.54921875 -0.32679687 10.3484375 -0.52734375 11.171875 C-0.68332031 11.77515625 -0.83929688 12.3784375 -1 13 C-1.66 13 -2.32 13 -3 13 C-3.33 14.65 -3.66 16.3 -4 18 C-4.66 18 -5.32 18 -6 18 C-5.99333817 18.74041534 -5.98667633 19.48083069 -5.97981262 20.24368286 C-5.91890908 27.3299809 -5.87363259 34.41618357 -5.84456348 41.5026722 C-5.82911491 45.14317395 -5.8082747 48.78345396 -5.77368164 52.42382812 C-5.61627927 69.43642313 -5.66227603 86.2317807 -9 103 C-9.495 103.495 -9.495 103.495 -10 104 C-9.99406272 106.18788873 -9.94456916 108.37570955 -9.875 110.5625 C-9.81983426 116.58782465 -10.4888488 120.5759134 -13 126 C-13.16757812 126.680625 -13.33515625 127.36125 -13.5078125 128.0625 C-14 130 -14 130 -15.4375 132.375 C-17.10735444 135.18035546 -17.99092929 137.90551647 -19 141 C-19.66 141.99 -20.32 142.98 -21 144 C-21.66 144 -22.32 144 -23 144 C-22.5627435 142.5389896 -22.12517623 141.07807221 -21.6875 139.6171875 C-21.41292969 138.7003418 -21.13835938 137.78349609 -20.85546875 136.83886719 C-20.08043766 134.26693181 -19.29113762 131.69982386 -18.5 129.1328125 C-11.15495439 104.88838607 -9.21018222 80.16033596 -8.76171875 54.91015625 C-8.7347995 53.45082169 -8.7347995 53.45082169 -8.70733643 51.96200562 C-8.62097401 47.08463551 -8.55433043 42.20807029 -8.51708984 37.33007812 C-8.18214641 8.18214641 -8.18214641 8.18214641 0 0 Z " fill="#9045CF" transform="translate(69,26)"/>
<path d="M0 0 C0 0.66 0 1.32 0 2 C0.99 2 1.98 2 3 2 C3 2.66 3 3.32 3 4 C-0.12595711 5.31088524 -3.28199367 6.44165735 -6.5 7.5 C-10.43364335 8.7959424 -14.28989972 10.14494986 -18 12 C-18.99 11.505 -18.99 11.505 -20 11 C-20.33 11.99 -20.66 12.98 -21 14 C-22.299375 13.814375 -23.59875 13.62875 -24.9375 13.4375 C-28.08755936 12.98749152 -30.86239889 13.07253354 -33.99449158 13.49107361 C-39.32358245 14.10552843 -44.57775912 14.0926887 -49.93579102 14.02172852 C-50.99049088 14.01212097 -52.04519073 14.00251343 -53.1318512 13.99261475 C-56.58927574 13.95985182 -60.04656477 13.91943418 -63.50390625 13.87890625 C-65.91242507 13.8545829 -68.32094879 13.83074048 -70.72947693 13.80735779 C-77.04726778 13.74473721 -83.36497111 13.67560887 -89.68267822 13.60510254 C-96.13802122 13.53421939 -102.59342592 13.46952226 -109.04882812 13.40429688 C-121.69928624 13.2755687 -134.34966378 13.14017228 -147 13 C-147 12.67 -147 12.34 -147 12 C-140.41641934 11.2419012 -133.93120783 10.84711184 -127.30615234 10.82641602 C-126.39404999 10.819729 -125.48194763 10.81304199 -124.54220581 10.80615234 C-122.57912853 10.79220499 -120.61603601 10.7802791 -118.65293503 10.77020454 C-115.53082495 10.75361338 -112.40882663 10.73036871 -109.28677368 10.70530701 C-100.4156871 10.63503968 -91.54455506 10.57467795 -82.67333984 10.52319336 C-77.22818811 10.49112739 -71.78316745 10.44978794 -66.33812332 10.40299797 C-64.28038546 10.38714524 -62.22261759 10.37474822 -60.16483688 10.36609077 C-45.23552997 10.30238253 -30.23319655 10.16339036 -15.875 5.5625 C-14.84246094 5.25602539 -14.84246094 5.25602539 -13.7890625 4.94335938 C-9.36605624 3.58860269 -4.52489009 0 0 0 Z " fill="#8E4ED1" transform="translate(343,330)"/>
<path d="M0 0 C0.33 0 0.66 0 1 0 C3.641513 8.91510638 3.17875809 17.79395814 3 27 C3.66 27 4.32 27 5 27 C5.01401855 28.69805786 5.01401855 28.69805786 5.02832031 30.43041992 C4.90400872 55.74468627 4.90400872 55.74468627 7.8125 80.8125 C7.96557617 81.62033936 8.11865234 82.42817871 8.27636719 83.26049805 C9.26831218 87.67858175 10.60976488 90.04633439 14 93 C15.25 96.25 15.25 96.25 16 99 C15.01 99.495 15.01 99.495 14 100 C5.46410121 87.81956015 1.95001879 76.24767459 1.71875 61.5 C1.70034058 60.58726318 1.68193115 59.67452637 1.66296387 58.73413086 C1.60449925 55.82281643 1.55165385 52.91144268 1.5 50 C1.3005431 38.92175383 1.09743942 27.89046388 0.20947266 16.84277344 C-0.05494724 13.25430582 -0.09920945 9.72252606 -0.0625 6.125 C-0.05347656 4.95195312 -0.04445312 3.77890625 -0.03515625 2.5703125 C-0.02355469 1.72210938 -0.01195312 0.87390625 0 0 Z " fill="#7312D6" transform="translate(59,326)"/>
<path d="M0 0 C2.375 0.6875 2.375 0.6875 5 2 C6.3125 4.625 6.3125 4.625 7 7 C7.66 7 8.32 7 9 7 C9 7.99 9 8.98 9 10 C10.32 9.67 11.64 9.34 13 9 C13.33 9.66 13.66 10.32 14 11 C14.66 10.67 15.32 10.34 16 10 C16 11.32 16 12.64 16 14 C15.34 14.66 14.68 15.32 14 16 C14.21148682 16.52134521 14.42297363 17.04269043 14.64086914 17.57983398 C16.9737903 23.83085754 17.50619087 29.42238297 17.4375 36.0625 C17.43210205 37.06168457 17.4267041 38.06086914 17.42114258 39.09033203 C17.2482895 47.6154734 16.32159999 56.06815253 13 64 C11.515 64.495 11.515 64.495 10 65 C10.20496094 64.41476562 10.40992188 63.82953125 10.62109375 63.2265625 C15.84685688 46.5741307 15.42813729 28.80454743 8 13 C6.54185458 10.54116655 5.01297588 8.21308822 3.33203125 5.90234375 C2.00283822 4.00405341 0.98427169 2.09449285 0 0 Z " fill="#7C34CB" transform="translate(360,235)"/>
<path d="M0 0 C1.01037827 0.00222061 2.02075653 0.00444122 3.06175232 0.00672913 C4.77341331 0.00684242 4.77341331 0.00684242 6.51965332 0.00695801 C7.76129745 0.01211929 9.00294159 0.01728058 10.2822113 0.02259827 C12.17785072 0.02472069 12.17785072 0.02472069 14.11178589 0.02688599 C17.47705394 0.0315487 20.84225495 0.04053972 24.20750427 0.05158997 C27.63930175 0.06180606 31.07110614 0.06638403 34.50291443 0.07142639 C41.2405633 0.08248071 47.9781803 0.09923742 54.71580505 0.12025452 C55.21080505 1.11025452 55.21080505 1.11025452 55.71580505 2.12025452 C27.50080505 2.61525452 27.50080505 2.61525452 -1.28419495 3.12025452 C-1.61419495 27.87025452 -1.94419495 52.62025452 -2.28419495 78.12025452 C-2.61419495 78.12025452 -2.94419495 78.12025452 -3.28419495 78.12025452 C-3.30731904 68.09797688 -3.32511037 58.07570555 -3.33600712 48.05340672 C-3.3412358 43.40014265 -3.34833318 38.74689678 -3.3596344 34.09364319 C-3.37046381 29.60680906 -3.37647189 25.11999247 -3.37907219 20.63314629 C-3.38092634 18.91745159 -3.38454677 17.2017579 -3.389925 15.48607063 C-3.39713616 13.09140539 -3.39818586 10.69681356 -3.39772034 8.30213928 C-3.40131561 7.58572769 -3.40491089 6.8693161 -3.40861511 6.13119507 C-3.3960123 0.17878764 -3.3960123 0.17878764 0 0 Z " fill="#AA71E0" transform="translate(235.28419494628906,232.87974548339844)"/>
<path d="M0 0 C1.7513151 2.97192866 2.26659255 4.6269928 1.5 8 C-2.41338523 23.08387092 -11.86561341 34.88769452 -25.0625 42.8125 C-26.08472656 43.43769531 -27.10695313 44.06289063 -28.16015625 44.70703125 C-31 46 -31 46 -33.37109375 45.69921875 C-33.90863281 45.46847656 -34.44617188 45.23773438 -35 45 C-32.35261084 43.5393715 -31.10551666 43 -28 43 C-28 42.34 -28 41.68 -28 41 C-27.34 41 -26.68 41 -26 41 C-26 39.68 -26 38.36 -26 37 C-25.195625 36.87625 -24.39125 36.7525 -23.5625 36.625 C-22.716875 36.41875 -21.87125 36.2125 -21 36 C-20.67 35.34 -20.34 34.68 -20 34 C-19.01 34 -18.02 34 -17 34 C-17 32.68 -17 31.36 -17 30 C-15.68945377 28.64426252 -14.35251497 27.31387169 -13 26 C-12.525625 24.989375 -12.05125 23.97875 -11.5625 22.9375 C-10 20 -10 20 -7.515625 18.765625 C-4.68171874 17.14535347 -4.68171874 17.14535347 -3.85546875 13.64453125 C-3.63503906 12.37996094 -3.41460937 11.11539062 -3.1875 9.8125 C-2.95417969 8.54019531 -2.72085938 7.26789063 -2.48046875 5.95703125 C-2.24263672 4.49330078 -2.24263672 4.49330078 -2 3 C-1.34 3 -0.68 3 0 3 C0 2.01 0 1.02 0 0 Z " fill="#660FE0" transform="translate(496,397)"/>
<path d="M0 0 C3.55902177 0.50843168 6.54008096 0.07153543 10.0625 -0.5625 C9.0725 -0.0675 9.0725 -0.0675 8.0625 0.4375 C8.45102558 3.44321856 8.45102558 3.44321856 10.0625 6.4375 C12.11167253 7.2189641 14.08469946 7.56639883 16.2421875 7.9453125 C16.84289062 8.10773438 17.44359375 8.27015625 18.0625 8.4375 C19.1875 10.4375 19.1875 10.4375 20.0625 12.4375 C22.92389721 13.58205888 25.76754182 14.36204558 28.75 15.125 C31.61001744 16.74825314 32.20902386 18.47084654 33.30078125 21.5 C34.10725234 23.55133161 35.13725671 25.26386386 36.3125 27.125 C38.0625 30.4375 38.0625 30.4375 37.671875 32.64453125 C37.37023437 33.53205078 37.37023437 33.53205078 37.0625 34.4375 C36.65 33.73625 36.2375 33.035 35.8125 32.3125 C30.92488976 24.28285461 25.61336431 16.81721099 17.0625 12.4375 C16.18271484 11.89029297 16.18271484 11.89029297 15.28515625 11.33203125 C5.90733095 5.65643866 -4.98276225 2.01406514 -15.9375 1.4375 C-15.9375 1.1075 -15.9375 0.7775 -15.9375 0.4375 C-10.47597933 -0.43634331 -5.46516603 -1.04652116 0 0 Z " fill="#730FDD" transform="translate(319.9375,104.5625)"/>
<path d="M0 0 C1.79665721 3.18193029 2.82836662 6.51006247 3.90209961 9.99047852 C7.94192125 22.96675126 13.81499919 39.29038948 25.203125 47.609375 C25.79609375 48.06828125 26.3890625 48.5271875 27 49 C27 49.66 27 50.32 27 51 C27.8971875 51.433125 27.8971875 51.433125 28.8125 51.875 C31 53 31 53 34 55 C34 55.66 34 56.32 34 57 C29.05 55.515 29.05 55.515 24 54 C24 52.68 24 51.36 24 50 C23.01 50 22.02 50 21 50 C20.773125 49.236875 20.54625 48.47375 20.3125 47.6875 C18.69988626 44.38548139 17.14261291 43.7957788 14 42 C8.6298031 36.79253633 6.82022695 29.09875059 4.875 22.0625 C4.15518407 19.0949343 4.15518407 19.0949343 2.875 17 C1.56915585 14.01521337 1.87652562 11.21033399 2 8 C1.34 8 0.68 8 0 8 C0 5.36 0 2.72 0 0 Z " fill="#9660DC" transform="translate(506,146)"/>
<path d="M0 0 C4.01975198 4.8514248 6.98544855 9.49898122 9.125 15.4375 C9.62386719 16.79681641 9.62386719 16.79681641 10.1328125 18.18359375 C11.95621754 24.10555335 12.168581 29.86814722 12.24609375 36.0078125 C12.27778241 37.8050996 12.30977686 39.60238134 12.34204102 41.3996582 C12.35743927 42.33524567 12.37283752 43.27083313 12.38870239 44.23477173 C12.67876555 61.41489169 13.40177671 78.44769848 14.82861328 95.57275391 C15.02734255 98.38723592 15.07281658 101.17957099 15 104 C14.67 104 14.34 104 14 104 C10.32623352 88.55947092 10.51259203 73.10815721 10.4375 57.3125 C10.41482772 53.35124224 10.38552615 49.39013039 10.34571838 45.42900085 C10.32151072 42.98165919 10.30653105 40.5342036 10.30210876 38.08674622 C10.28682884 36.42792671 10.28682884 36.42792671 10.27124023 34.7355957 C10.26696518 33.76983109 10.26269012 32.80406647 10.25828552 31.80903625 C9.96682054 28.63915007 9.05179127 25.99469855 8 23 C7.875 20.125 7.875 20.125 8 18 C7.34 18 6.68 18 6 18 C5.566875 16.80375 5.13375 15.6075 4.6875 14.375 C3.6937586 11.69663033 2.63592913 9.29882647 1.3125 6.75 C0 4 0 4 0 0 Z " fill="#925FCC" transform="translate(487,21)"/>
<path d="M0 0 C7.82762353 5.85463349 10.50777985 12.4829515 12 22 C12.67229018 30.20194018 11.29502404 39.16820572 6.5625 46.0625 C4.47175638 48.4592061 2.67634724 50.31489248 0 52 C-0.33 50.68 -0.66 49.36 -1 48 C-0.01 48 0.98 48 2 48 C3.93058141 42.64536855 5.2380463 37.6602275 6 32 C7.0625 29.0625 7.0625 29.0625 8 27 C7.34 26.67 6.68 26.34 6 26 C6.66 25.01 7.32 24.02 8 23 C8.38499891 21.34450469 8.72793135 19.6777567 9 18 C8.34 18 7.68 18 7 18 C6.01 14.37 5.02 10.74 4 7 C3.34 7 2.68 7 2 7 C1.34 4.69 0.68 2.38 0 0 Z " fill="#8235CD" transform="translate(314,143)"/>
<path d="M0 0 C0.66 0.99 1.32 1.98 2 3 C0.49804334 6.8231624 -1.76713373 8.5556377 -5 11 C-5.43054688 11.48082031 -5.86109375 11.96164062 -6.3046875 12.45703125 C-11.84363648 17.49824057 -20.6609332 19.74248888 -28 20 C-31 19.5625 -31 19.5625 -33 19 C-33 18.67 -33 18.34 -33 18 C-31.56445975 17.49440092 -30.1264798 16.9957251 -28.6875 16.5 C-27.88699219 16.2215625 -27.08648437 15.943125 -26.26171875 15.65625 C-24 15 -24 15 -21 15 C-18.48408273 13.67914344 -16.43370936 12.4698518 -14.5 10.375 C-13 9 -13 9 -10.4375 8.5 C-7.64137117 8.2243063 -7.64137117 8.2243063 -6 5 C-3.375 4.8125 -3.375 4.8125 -1 5 C-0.67 3.35 -0.34 1.7 0 0 Z " fill="#791FDB" transform="translate(329,290)"/>
<path d="M0 0 C0.33 0.66 0.66 1.32 1 2 C3.3140622 2.73075648 5.64828869 3.40138258 8 4 C8 4.66 8 5.32 8 6 C7.10539063 6.23074219 6.21078125 6.46148437 5.2890625 6.69921875 C-9.70989755 10.74478047 -20.05390435 16.08878503 -29 29 C-29.9695556 25.91079526 -30.03574161 25.10512238 -28.9375 21.875 C-26.60585641 18.41514177 -24.99622061 17.88804902 -21 17 C-21 16.34 -21 15.68 -21 15 C-20.01 15 -19.02 15 -18 15 C-18 14.34 -18 13.68 -18 13 C-17.01 13 -16.02 13 -15 13 C-15 11.68 -15 10.36 -15 9 C-10.47618873 6.95698846 -5.83628305 5.99043705 -1 5 C-0.67 3.35 -0.34 1.7 0 0 Z " fill="#7F43CF" transform="translate(552,232)"/>
<path d="M0 0 C17.82 0 35.64 0 54 0 C54 0.33 54 0.66 54 1 C53.3927861 1.00586624 52.7855722 1.01173248 52.15995789 1.01777649 C45.84957425 1.08162728 39.53970455 1.16602503 33.22973633 1.26245117 C30.87368539 1.2957402 28.51755394 1.32375961 26.16137695 1.34643555 C22.77780793 1.37990803 19.39497946 1.43222092 16.01171875 1.48828125 C14.42722176 1.49786613 14.42722176 1.49786613 12.81071472 1.50764465 C11.82992447 1.52743881 10.84913422 1.54723297 9.83862305 1.56762695 C8.97480515 1.57873001 8.11098724 1.58983307 7.22099304 1.60127258 C4.96815248 1.85843975 4.96815248 1.85843975 3.21887207 3.15002441 C1.46000223 5.81959601 1.64006405 7.850526 1.65942383 11.03198242 C1.65965042 12.27304245 1.65987701 13.51410248 1.66011047 14.79277039 C1.67543032 16.14700684 1.6910783 17.50123961 1.70703125 18.85546875 C1.71262749 20.2412317 1.71689746 21.62700059 1.71989441 23.01277161 C1.73134117 26.65762764 1.76080642 30.30212423 1.79400635 33.94683838 C1.82471115 37.66698342 1.83840059 41.38718661 1.85351562 45.10742188 C1.88567669 52.40511167 1.93687049 59.70250544 2 67 C1.34 67 0.68 67 0 67 C0 44.89 0 22.78 0 0 Z " fill="#710CD5" transform="translate(234,136)"/>
<path d="M0 0 C0 0.33 0 0.66 0 1 C-4.51368252 1.87782924 -8.77219979 2.1166438 -13.3671875 2.09765625 C-14.38656906 2.09553383 -14.38656906 2.09553383 -15.42654419 2.09336853 C-17.57607612 2.08781518 -19.72550008 2.07527169 -21.875 2.0625 C-23.34114432 2.05747896 -24.80729029 2.05291711 -26.2734375 2.04882812 C-29.84899283 2.03786111 -33.42448586 2.02062919 -37 2 C-37.33 2.66 -37.66 3.32 -38 4 C-38.6705542 4.01981934 -39.3411084 4.03963867 -40.03198242 4.06005859 C-43.08420161 4.15559715 -46.13576341 4.26515945 -49.1875 4.375 C-50.24259766 4.4059375 -51.29769531 4.436875 -52.38476562 4.46875 C-53.91713867 4.52675781 -53.91713867 4.52675781 -55.48046875 4.5859375 C-56.88655396 4.63306885 -56.88655396 4.63306885 -58.32104492 4.68115234 C-61.16995808 5.02022831 -63.39520444 5.82257457 -66 7 C-65.625 4.5625 -65.625 4.5625 -65 2 C-62.52930711 0.76465355 -60.83041643 0.84205103 -58.06640625 0.79467773 C-57.03773438 0.77473251 -56.0090625 0.75478729 -54.94921875 0.73423767 C-53.83160156 0.71752518 -52.71398437 0.70081268 -51.5625 0.68359375 C-49.83773437 0.6524221 -49.83773437 0.6524221 -48.078125 0.62062073 C-44.3854791 0.55509364 -40.692758 0.49633247 -37 0.4375 C-34.54035717 0.39430012 -32.08072159 0.35068535 -29.62109375 0.30664062 C-19.74670003 0.13455925 -9.87620682 -0.03646679 0 0 Z " fill="#7210DB" transform="translate(301,234)"/>
<path d="M0 0 C1.57263227 2.43930187 2.04556264 3.63605453 1.6796875 6.55859375 C1.41414063 7.50863281 1.14859375 8.45867187 0.875 9.4375 C0.58367187 10.50871094 0.29234375 11.57992188 -0.0078125 12.68359375 C-0.63787687 14.78959632 -1.29622327 16.88750357 -1.9921875 18.97265625 C-5.27037848 28.81993534 -6.65043775 38.74537167 -8 49 C-8.33 49 -8.66 49 -9 49 C-9.35517 40.58115559 -8.85683047 32.99421042 -7.13745117 24.7824707 C-6.11869985 19.88658811 -5.58973773 15.12911406 -5.40625 10.13671875 C-4.9075515 7.51375646 -3.95820846 6.7450364 -2 5 C-0.80972016 2.40084462 -0.80972016 2.40084462 0 0 Z " fill="#6412D5" transform="translate(510,277)"/>
<path d="M0 0 C0.33 0 0.66 0 1 0 C3.06778872 7.66940108 3.29503939 14.88238633 3.30859375 22.80078125 C3.3273192 24.80729832 3.3460619 26.8138154 3.36577702 28.82032299 C3.41078166 33.72248824 3.43468017 38.62478398 3.45629883 43.52709961 C3.46920433 46.28952573 3.4900107 49.05170241 3.51856995 51.81401062 C3.54452645 54.39953751 3.55870401 56.98521991 3.5589447 59.57087708 C3.63856279 66.68171315 4.44927969 72.87177568 6.55458069 79.67887878 C6.70156906 80.44484879 6.84855743 81.21081879 7 82 C6.01 82.99 6.01 82.99 5 84 C1.53045272 72.5670538 1.4844333 61.40865521 1.375 49.5625 C1.32616833 45.81370544 1.26967451 42.06505747 1.2109375 38.31640625 C1.19806198 37.41758728 1.18518646 36.51876831 1.17192078 35.5927124 C1.06707452 29.32016465 0.7211853 23.11182567 0.21386719 16.8581543 C-0.05507187 13.26401093 -0.09927004 9.72846392 -0.0625 6.125 C-0.05347656 4.95195312 -0.04445312 3.77890625 -0.03515625 2.5703125 C-0.02355469 1.72210938 -0.01195312 0.87390625 0 0 Z " fill="#9E6BCA" transform="translate(59,326)"/>
<path d="M0 0 C0.33 0 0.66 0 1 0 C1.2509727 2.9995773 1.47621839 5.99757711 1.6875 9 C1.76033203 9.83917969 1.83316406 10.67835938 1.90820312 11.54296875 C2.30458568 17.55865698 1.40924092 21.47956647 -1 27 C-1.16798096 27.68578125 -1.33596191 28.3715625 -1.5090332 29.078125 C-2 31 -2 31 -3.4375 33.375 C-5.10735444 36.18035546 -5.99092929 38.90551647 -7 42 C-7.66 42.99 -8.32 43.98 -9 45 C-9.66 45 -10.32 45 -11 45 C-10.81896729 44.39704102 -10.63793457 43.79408203 -10.45141602 43.17285156 C-9.92045538 41.40377875 -9.38997654 39.63456129 -8.85986328 37.86523438 C-8.31612385 36.05338713 -7.77047223 34.24211168 -7.22216797 32.43164062 C-3.97299381 21.66390679 -1.09488702 11.23203066 0 0 Z " fill="#913BE0" transform="translate(57,125)"/>
<path d="M0 0 C0.85709523 3.07394306 1.15444061 4.95647475 0 8 C-0.99 8.495 -0.99 8.495 -2 9 C-2.70394612 10.31403276 -3.36345658 11.6520257 -4 13 C-5.375 15.6875 -5.375 15.6875 -7 18 C-8.9375 18.625 -8.9375 18.625 -11 19 C-11.5775 19.515625 -12.155 20.03125 -12.75 20.5625 C-16.16348916 22.7433403 -18.99872124 22.20006394 -23 22 C-21.33784732 20.66104368 -19.67036393 19.32869858 -18 18 C-17.278125 17.4225 -16.55625 16.845 -15.8125 16.25 C-14 15 -14 15 -12 15 C-12 14.34 -12 13.68 -12 13 C-10.64453125 11.73828125 -10.64453125 11.73828125 -8.8125 10.3125 C-5.09743288 7.25436548 -2.64419518 4.00635633 0 0 Z " fill="#902EE1" transform="translate(39,182)"/>
<path d="M0 0 C5.95389574 8.93084362 7.56952044 18.45088939 6 29 C4.84152586 33.53485315 3.02045199 37.78591442 1 42 C0.67 42 0.34 42 0 42 C0.85044313 30.98042836 0.85044313 30.98042836 1.5625 26.3125 C2.48508604 19.32720571 2.02799627 13.12073391 0.4375 6.26171875 C0 4 0 4 0 0 Z " fill="#924FD2" transform="translate(331,251)"/>
<path d="M0 0 C2.73916774 4.10875162 3.12400027 6.83587656 3.11352539 11.66479492 C3.11344986 12.82577194 3.11337433 13.98674896 3.11329651 15.1829071 C3.10813522 16.43610245 3.10297394 17.68929779 3.09765625 18.98046875 C3.0962413 20.26359451 3.09482635 21.54672028 3.09336853 22.86872864 C3.08955405 26.27670241 3.07973291 29.68463343 3.06866455 33.09259033 C3.05842743 36.57148663 3.05386598 40.05038985 3.04882812 43.52929688 C3.03810967 50.35288212 3.02104609 57.17643901 3 64 C2.67 64 2.34 64 2 64 C-0.59502483 42.70689451 -0.19993428 21.40988583 0 0 Z " fill="#6D0ED3" transform="translate(495,44)"/>
<path d="M0 0 C0.33 0 0.66 0 1 0 C1.13277344 0.92683594 1.26554687 1.85367188 1.40234375 2.80859375 C1.57894531 4.00613281 1.75554687 5.20367187 1.9375 6.4375 C2.11152344 7.63246094 2.28554688 8.82742187 2.46484375 10.05859375 C2.68985213 12.87955676 2.68985213 12.87955676 4 14 C4.59402639 16.60254135 5.1296216 19.19112265 5.625 21.8125 C5.77195312 22.53759766 5.91890625 23.26269531 6.0703125 24.00976562 C6.7711491 27.6925272 7.08453328 30.41885322 6 34 C5.34 34 4.68 34 4 34 C3.80664062 33.38511719 3.61328125 32.77023438 3.4140625 32.13671875 C3.15367187 31.32847656 2.89328125 30.52023438 2.625 29.6875 C2.36976563 28.88699219 2.11453125 28.08648437 1.8515625 27.26171875 C1.01168189 24.77275472 1.01168189 24.77275472 -1 22 C-0.72026565 19.99180185 -0.3756331 17.99248862 0 16 C0.12719585 13.20719168 0.09535272 10.42000816 0.0625 7.625 C0.05798828 6.88894531 0.05347656 6.15289062 0.04882812 5.39453125 C0.03715142 3.59631842 0.01922011 1.79814803 0 0 Z " fill="#6D10DC" transform="translate(499,112)"/>
<path d="M0 0 C0.33 0 0.66 0 1 0 C1.20231929 1.72749545 1.38566571 3.45721007 1.5625 5.1875 C1.66691406 6.15042969 1.77132813 7.11335938 1.87890625 8.10546875 C1.97886839 11.32038016 1.84554407 14.2463169 1.5625 17.4375 C0.67935286 27.87326822 0.63446776 38.34587435 0.4375 48.8125 C0.39421594 50.96940781 0.35059884 53.12630895 0.30664062 55.28320312 C0.20058726 60.52206486 0.0986455 65.76099381 0 71 C-0.33 71 -0.66 71 -1 71 C-1.02320776 62.62868031 -1.04095803 54.25737414 -1.05181217 45.8860302 C-1.05702257 41.99855281 -1.06408665 38.1110975 -1.07543945 34.22363281 C-1.08633395 30.46945098 -1.09229072 26.71529033 -1.09487724 22.9610939 C-1.09671968 21.53143099 -1.10031746 20.10176918 -1.10573006 18.67211533 C-1.11302753 16.66407154 -1.1134088 14.65600627 -1.11352539 12.64794922 C-1.115746 11.50655487 -1.11796661 10.36516052 -1.12025452 9.18917847 C-1.00166976 6.04428241 -0.58900198 3.08838119 0 0 Z " fill="#885AC5" transform="translate(499,327)"/>
<path d="M0 0 C0.33 0 0.66 0 1 0 C0.76410716 2.63999219 0.52409166 5.27932568 0.2734375 7.91796875 C0.10337153 9.83485515 -0.04184548 11.75431981 -0.1484375 13.67578125 C-0.5250276 19.44119639 -1.55207768 24.25054409 -5 29 C-7.625 30.9375 -7.625 30.9375 -10 32 C-10.99 32.495 -10.99 32.495 -12 33 C-11.69964844 32.44699219 -11.39929688 31.89398438 -11.08984375 31.32421875 C-9.5538505 28.04853421 -8.77470625 24.64071066 -7.87890625 21.14453125 C-7.58886719 20.43683594 -7.29882812 19.72914063 -7 19 C-6.01 18.67 -5.02 18.34 -4 18 C-3.87882812 17.03578125 -3.75765625 16.0715625 -3.6328125 15.078125 C-3.46523438 13.81484375 -3.29765625 12.5515625 -3.125 11.25 C-2.96257812 9.99703125 -2.80015625 8.7440625 -2.6328125 7.453125 C-2.0941645 4.51383592 -1.51991159 2.52892853 0 0 Z " fill="#660AD6" transform="translate(377,281)"/>
<path d="M0 0 C-1.4001116 2.8002232 -3.26572551 3.56776098 -6 5 C-6.99 5 -7.98 5 -9 5 C-9.33 5.99 -9.66 6.98 -10 8 C-10.73605469 8.13277344 -11.47210938 8.26554688 -12.23046875 8.40234375 C-13.20628906 8.57894531 -14.18210937 8.75554688 -15.1875 8.9375 C-16.15042969 9.11152344 -17.11335938 9.28554687 -18.10546875 9.46484375 C-20.74239972 9.9523735 -23.3719905 10.46671105 -26 11 C-19.22053875 3.86808969 -9.88321687 -0.33353663 0 0 Z " fill="#8612EC" transform="translate(109,0)"/>
<path d="M0 0 C0.66 0.33 1.32 0.66 2 1 C1.34 2.32 0.68 3.64 0 5 C2.71604715 7.87420123 2.71604715 7.87420123 6 10 C6.66666667 11.33333333 7.33333333 12.66666667 8 14 C8.66 14.33 9.32 14.66 10 15 C10.625 17.0625 10.625 17.0625 11 19 C10.34 19 9.68 19 9 19 C9 18.34 9 17.68 9 17 C8.401875 16.731875 7.80375 16.46375 7.1875 16.1875 C5 15 5 15 3.75 13.625 C1.36162569 11.40722386 -1.26007502 10.22899596 -4.1875 8.8125 C-5.27417969 8.28269531 -6.36085938 7.75289062 -7.48046875 7.20703125 C-8.31191406 6.80871094 -9.14335937 6.41039062 -10 6 C-10 5.67 -10 5.34 -10 5 C-8.35 4.67 -6.7 4.34 -5 4 C-5 3.34 -5 2.68 -5 2 C-2.625 0.9375 -2.625 0.9375 0 0 Z " fill="#7E24E0" transform="translate(349,216)"/>
<path d="M0 0 C2.375 0.6875 2.375 0.6875 5 2 C6.3125 4.625 6.3125 4.625 7 7 C7.66 7 8.32 7 9 7 C9 7.99 9 8.98 9 10 C10.32 9.67 11.64 9.34 13 9 C13.33 9.66 13.66 10.32 14 11 C14.66 10.67 15.32 10.34 16 10 C16 11.32 16 12.64 16 14 C15.34 14.66 14.68 15.32 14 16 C14.33 16.66 14.66 17.32 15 18 C14.34 18 13.68 18 13 18 C12.34 18.99 11.68 19.98 11 21 C10.68869141 20.09121094 10.68869141 20.09121094 10.37109375 19.1640625 C8.13169166 13.0736384 5.25718698 8.14045558 1.390625 2.93359375 C0 1 0 1 0 0 Z " fill="#7924DF" transform="translate(360,235)"/>
<path d="M0 0 C10.21454938 0.51072747 19.59913294 3.78889876 27 11 C27.61875 11.598125 28.2375 12.19625 28.875 12.8125 C29.24625 13.204375 29.6175 13.59625 30 14 C29.67 14.66 29.34 15.32 29 16 C28.01 16 27.02 16 26 16 C26 15.34 26 14.68 26 14 C25.195625 13.71125 24.39125 13.4225 23.5625 13.125 C21 12 21 12 20 10 C17.98330173 8.86649466 17.98330173 8.86649466 16 8 C16 7.34 16 6.68 16 6 C15.46890625 5.87753906 14.9378125 5.75507813 14.390625 5.62890625 C11.46272452 4.85865792 8.61888994 3.90419117 5.75 2.9375 C4.67234375 2.57527344 3.5946875 2.21304688 2.484375 1.83984375 C1.66453125 1.56269531 0.8446875 1.28554687 0 1 C0 0.67 0 0.34 0 0 Z " fill="#813ECD" transform="translate(301,235)"/>
<path d="M0 0 C6.07328688 -0.50610724 9.77228537 0.95842058 15 4 C15 4.66 15 5.32 15 6 C17.31 6 19.62 6 22 6 C22 6.66 22 7.32 22 8 C22.66 8 23.32 8 24 8 C23.67 8.99 23.34 9.98 23 11 C22.319375 10.72285156 21.63875 10.44570312 20.9375 10.16015625 C17.64474269 8.85969226 14.32994538 7.63958157 11 6.4375 C9.205625 5.78587891 9.205625 5.78587891 7.375 5.12109375 C4.56922508 4.18908287 1.9088354 3.49031506 -1 3 C-0.67 2.01 -0.34 1.02 0 0 Z " fill="#8012E0" transform="translate(1,235)"/>
<path d="M0 0 C1.5625 1.6875 1.5625 1.6875 3 4 C2.8125 6.3125 2.8125 6.3125 2 9 C1.71125 10.19625 1.4225 11.3925 1.125 12.625 C0.03082106 15.90753681 -0.52735037 16.82406833 -3 19 C-3.45375 19.86625 -3.9075 20.7325 -4.375 21.625 C-6 24 -6 24 -8.6015625 24.6484375 C-9.78878906 24.82246094 -9.78878906 24.82246094 -11 25 C-10.52949219 24.32195312 -10.05898438 23.64390625 -9.57421875 22.9453125 C-5.44990336 16.78018681 -2.67320225 11.22051125 -1 4 C-0.66720303 2.66653269 -0.33404783 1.33315451 0 0 Z " fill="#8C43D0" transform="translate(361,172)"/>
<path d="M0 0 C1.4606285 2.64738916 2 3.89448334 2 7 C1.071875 7.309375 0.14375 7.61875 -0.8125 7.9375 C-5.23168199 10.7969707 -5.81633002 14.04727562 -7 19 C-7.33 18.34 -7.66 17.68 -8 17 C-8.66 17 -9.32 17 -10 17 C-10.66 19.64 -11.32 22.28 -12 25 C-12.66 24.01 -13.32 23.02 -14 22 C-13.125 18.8125 -13.125 18.8125 -12 16 C-10.68 16 -9.36 16 -8 16 C-8.309375 14.8553125 -8.309375 14.8553125 -8.625 13.6875 C-9 11 -9 11 -7 8 C-5 5.8125 -5 5.8125 -3 4 C-2.34 4 -1.68 4 -1 4 C-0.67 2.68 -0.34 1.36 0 0 Z " fill="#6E08F4" transform="translate(529,242)"/>
<path d="M0 0 C2.00461299 0.65266469 4.00379834 1.32204472 6 2 C6.886875 2.226875 7.77375 2.45375 8.6875 2.6875 C11.54751744 4.31075314 12.14652386 6.03334654 13.23828125 9.0625 C14.04475234 11.11383161 15.07475671 12.82636386 16.25 14.6875 C18 18 18 18 17.609375 20.20703125 C17.40828125 20.79871094 17.2071875 21.39039063 17 22 C16.41605469 20.98292969 16.41605469 20.98292969 15.8203125 19.9453125 C11.87329521 13.37907636 7.5087145 8.15875557 1.94140625 2.8984375 C1.30074219 2.27195312 0.66007812 1.64546875 0 1 C0 0.67 0 0.34 0 0 Z " fill="#7E2CD0" transform="translate(340,117)"/>
<path d="M0 0 C0.66 0.99 1.32 1.98 2 3 C0.49804334 6.8231624 -1.76713373 8.5556377 -5 11 C-5.45375 11.48855469 -5.9075 11.97710937 -6.375 12.48046875 C-8.30056722 14.28105925 -10.15523341 15.18715412 -12.5625 16.25 C-13.74005859 16.78367187 -13.74005859 16.78367187 -14.94140625 17.328125 C-17 18 -17 18 -19 17 C-18.01 16.67 -17.02 16.34 -16 16 C-16 15.34 -16 14.68 -16 14 C-14.35178756 12.96986723 -12.68496298 11.96885372 -11 11 C-11 10.67 -11 10.34 -11 10 C-9.35 10 -7.7 10 -6 10 C-6 8.35 -6 6.7 -6 5 C-4.35 5 -2.7 5 -1 5 C-0.67 3.35 -0.34 1.7 0 0 Z " fill="#7C30D1" transform="translate(329,290)"/>
<path d="M0 0 C-14.11457767 7.7461782 -26.17937483 8.42960896 -42 8 C-42 7.67 -42 7.34 -42 7 C-40.80503906 6.95101562 -39.61007812 6.90203125 -38.37890625 6.8515625 C-26.568195 6.31943461 -26.568195 6.31943461 -15 4 C-15 3.34 -15 2.68 -15 2 C-12.03 2 -9.06 2 -6 2 C-6 1.34 -6 0.68 -6 0 C-3.50907189 -1.24546405 -2.58919267 -0.7767578 0 0 Z " fill="#9C5DD7" transform="translate(312,197)"/>
<path d="M0 0 C11.33010714 3.72889602 11.33010714 3.72889602 15 8 C14.05125 7.979375 13.1025 7.95875 12.125 7.9375 C9.09333717 7.77448174 9.09333717 7.77448174 7 9 C7 8.34 7 7.68 7 7 C6.01 6.67 5.02 6.34 4 6 C4.33 5.67 4.66 5.34 5 5 C-0.28 4.01 -5.56 3.02 -11 2 C-7.19916636 -0.53388909 -4.39014867 -0.696849 0 0 Z " fill="#8539D2" transform="translate(299,135)"/>
<path d="M0 0 C0.99 0 1.98 0 3 0 C2.68185763 2.96932875 2.11402579 3.90012489 -0.171875 5.90234375 C-3.05853662 8.04341735 -5.98150085 9.96234249 -9.0625 11.8125 C-10.08472656 12.43769531 -11.10695313 13.06289063 -12.16015625 13.70703125 C-15 15 -15 15 -17.37109375 14.69921875 C-17.90863281 14.46847656 -18.44617188 14.23773438 -19 14 C-16.35261084 12.5393715 -15.10551666 12 -12 12 C-12 11.34 -12 10.68 -12 10 C-11.34 10 -10.68 10 -10 10 C-10 8.68 -10 7.36 -10 6 C-9.195625 5.87625 -8.39125 5.7525 -7.5625 5.625 C-6.716875 5.41875 -5.87125 5.2125 -5 5 C-4.67 4.34 -4.34 3.68 -4 3 C-3.01 3 -2.02 3 -1 3 C-0.67 2.01 -0.34 1.02 0 0 Z " fill="#8745D7" transform="translate(480,428)"/>
<path d="M0 0 C6.47560547 7.81538591 10.65906603 15.67463224 10 26 C7.8480563 22.77208445 7.79913557 21.71599191 8 18 C7.34 18 6.68 18 6 18 C5.566875 16.80375 5.13375 15.6075 4.6875 14.375 C3.6937586 11.69663033 2.63592913 9.29882647 1.3125 6.75 C0 4 0 4 0 0 Z " fill="#8D4AD5" transform="translate(487,21)"/>
<path d="M0 0 C2.36270898 3.97648379 1.93856981 6.13067579 0.84765625 10.47265625 C-0.63039501 14.87956485 -2.77399463 18.93031842 -5 23 C-5.33 23 -5.66 23 -6 23 C-6.39463456 18.79056466 -5.27264121 15.88695414 -3.734375 12.0703125 C-2.66718803 9.06175349 -2.33002647 6.16825408 -2 3 C-1.34 3 -0.68 3 0 3 C0 2.01 0 1.02 0 0 Z " fill="#7635D2" transform="translate(496,397)"/>
<path d="M0 0 C1.39987708 2.67051745 2.49362807 5.27898016 3.40234375 8.15234375 C3.65306641 8.92900391 3.90378906 9.70566406 4.16210938 10.50585938 C4.67754586 12.12227857 5.19058185 13.73946526 5.70117188 15.35742188 C7.08366014 19.62510305 8.66787524 23.14724216 11 27 C10.67 27.66 10.34 28.32 10 29 C9.01 29 8.02 29 7 29 C6.80664062 28.32453125 6.61328125 27.6490625 6.4140625 26.953125 C6.15367187 26.06109375 5.89328125 25.1690625 5.625 24.25 C5.24214844 22.92742187 5.24214844 22.92742187 4.8515625 21.578125 C4.08604524 19.02725281 4.08604524 19.02725281 2.90625 16.90625 C1.51580612 13.98152321 1.87762179 11.1818334 2 8 C1.34 8 0.68 8 0 8 C0 5.36 0 2.72 0 0 Z " fill="#9056D4" transform="translate(506,146)"/>
<path d="M0 0 C0.33 0 0.66 0 1 0 C2.72509924 6.67626991 3.25620222 12.68447571 3.125 19.5625 C3.11597656 20.47580078 3.10695312 21.38910156 3.09765625 22.33007812 C3.07437253 24.55367319 3.0416771 26.77668677 3 29 C2.34 28.67 1.68 28.34 1 28 C-0.42331759 18.82900083 -0.12657844 9.25429026 0 0 Z " fill="#965AD5" transform="translate(59,326)"/>
<path d="M0 0 C1.32 0 2.64 0 4 0 C5.13917218 3.41751653 5.11338481 6.03487937 5.09765625 9.63671875 C5.09443359 10.93544922 5.09121094 12.23417969 5.08789062 13.57226562 C5.07953531 14.94401108 5.07107037 16.31575587 5.0625 17.6875 C5.05748335 19.07096195 5.05292073 20.45442563 5.04882812 21.83789062 C5.03702529 25.22530395 5.02056019 28.61263033 5 32 C4.67 32 4.34 32 4 32 C3.96261719 30.86304688 3.92523438 29.72609375 3.88671875 28.5546875 C3.49191104 18.70910324 2.44840752 9.57804704 0 0 Z " fill="#9D65DF" transform="translate(358,140)"/>
<path d="M0 0 C0.85574112 0.02361099 1.71148224 0.04722198 2.59315491 0.07154846 C5.30318287 0.14759307 8.01288127 0.23186879 10.72265625 0.31640625 C12.5696458 0.36968635 14.41665101 0.42242625 16.26367188 0.47460938 C20.7710386 0.60312716 25.27812851 0.73902313 29.78515625 0.87890625 C29.78515625 1.20890625 29.78515625 1.53890625 29.78515625 1.87890625 C24.03785927 2.04685787 18.29042035 2.20738167 12.54272461 2.36108398 C10.58824102 2.41438956 8.63381128 2.46970957 6.67944336 2.52709961 C3.86714281 2.60933062 1.05472701 2.68426924 -1.7578125 2.7578125 C-2.62883102 2.78484756 -3.49984955 2.81188263 -4.39726257 2.83973694 C-8.49294043 2.94005454 -12.21781165 2.94168023 -16.21484375 1.87890625 C-16.21484375 1.54890625 -16.21484375 1.21890625 -16.21484375 0.87890625 C-10.72869915 -0.07339354 -5.55651344 -0.18388028 0 0 Z " fill="#7A0BF2" transform="translate(114.21484375,442.12109375)"/>
<path d="M0 0 C0.99 0 1.98 0 3 0 C5.33447255 8.67089803 5.19865739 17.10456358 5 26 C4.67 26 4.34 26 4 26 C3.91435791 25.42556152 3.82871582 24.85112305 3.74047852 24.25927734 C3.34834457 21.63110617 2.95542857 19.00305248 2.5625 16.375 C2.42779297 15.47136719 2.29308594 14.56773437 2.15429688 13.63671875 C1.47310556 9.08436703 0.77632452 4.53735301 0 0 Z " fill="#964FDA" transform="translate(54,300)"/>
<path d="M0 0 C1.07310858 3.27185553 0.89263102 5.42947592 0.0625 8.75 C-0.13214844 9.54921875 -0.32679687 10.3484375 -0.52734375 11.171875 C-0.76130859 12.07679687 -0.76130859 12.07679687 -1 13 C-1.66 13 -2.32 13 -3 13 C-3.33 14.65 -3.66 16.3 -4 18 C-4.99 18.33 -5.98 18.66 -7 19 C-4.37175793 4.37175793 -4.37175793 4.37175793 0 0 Z " fill="#9338DD" transform="translate(69,26)"/>
<path d="M0 0 C0.66 0 1.32 0 2 0 C2.75 1.625 2.75 1.625 3 4 C2.12330081 5.38248719 1.23075377 6.75768634 0.2578125 8.07421875 C-2.36193069 12.08519202 -4.09655142 16.61582745 -6 21 C-7.07999887 17.7600034 -6.92129428 16.61636465 -6.1875 13.375 C-6.01605469 12.57835937 -5.84460938 11.78171875 -5.66796875 10.9609375 C-5 9 -5 9 -3 8 C-2.28293018 6.01751285 -1.61709587 4.01584651 -1 2 C-0.67 1.34 -0.34 0.68 0 0 Z " fill="#823AD8" transform="translate(519,259)"/>
<path d="M0 0 C8.02669121 -0.78693051 8.02669121 -0.78693051 11.9375 2.375 C12.618125 3.24125 13.29875 4.1075 14 5 C14.66 5.66 15.32 6.32 16 7 C13 8 13 8 10.625 7.109375 C9.75875 6.66078125 8.8925 6.2121875 8 5.75 C6.700625 5.09257812 6.700625 5.09257812 5.375 4.421875 C3.20746767 3.12420762 1.67398683 1.87222211 0 0 Z " fill="#862FE4" transform="translate(83,435)"/>
<path d="M0 0 C0.66 0 1.32 0 2 0 C4.97361983 6.90929314 6.40706004 14.46938928 6 22 C3.6742282 18.51134231 2.54929156 14.96055189 1.3125 11 C1.07466797 10.27554687 0.83683594 9.55109375 0.59179688 8.8046875 C-1.12049864 3.36149591 -1.12049864 3.36149591 0 0 Z " fill="#9952DA" transform="translate(48,277)"/>
<path d="M0 0 C6.27 1.98 12.54 3.96 19 6 C19 7.32 19 8.64 19 10 C18.34 10 17.68 10 17 10 C17 9.34 17 8.68 17 8 C16.30132813 7.96261719 15.60265625 7.92523438 14.8828125 7.88671875 C13.97273437 7.82097656 13.06265625 7.75523437 12.125 7.6875 C11.22007812 7.62949219 10.31515625 7.57148438 9.3828125 7.51171875 C7 7 7 7 5 4 C2.44816596 2.79549696 2.44816596 2.79549696 0 2 C0 1.34 0 0.68 0 0 Z " fill="#8242D8" transform="translate(541,202)"/>
<path d="M0 0 C0.33 0 0.66 0 1 0 C1 2.97 1 5.94 1 9 C1.66 9 2.32 9 3 9 C3.12117188 9.68707031 3.24234375 10.37414062 3.3671875 11.08203125 C3.61855469 12.43361328 3.61855469 12.43361328 3.875 13.8125 C4.03742188 14.70582031 4.19984375 15.59914062 4.3671875 16.51953125 C4.91188449 19.22727846 4.91188449 19.22727846 7 22 C6.67 22.99 6.34 23.98 6 25 C5.34 24.34 4.68 23.68 4 23 C2.68252676 22.30251417 1.35085807 21.63040043 0 21 C0.33 20.34 0.66 19.68 1 19 C1.22467831 17.46331135 1.40796805 15.92031946 1.5625 14.375 C1.64628906 13.55773437 1.73007812 12.74046875 1.81640625 11.8984375 C1.87699219 11.27195313 1.93757813 10.64546875 2 10 C1.34 10 0.68 10 0 10 C0 6.7 0 3.4 0 0 Z " fill="#6D11DC" transform="translate(505,145)"/>
<path d="M0 0 C0.99 0 1.98 0 3 0 C3.33 0.99 3.66 1.98 4 3 C3.01 3.495 3.01 3.495 2 4 C1.34 3.67 0.68 3.34 0 3 C-0.33 3.99 -0.66 4.98 -1 6 C-1.59167969 5.91621094 -2.18335938 5.83242188 -2.79296875 5.74609375 C-7.20204955 5.17787616 -10.62738169 5.0724749 -15 6 C-15.66 5.34 -16.32 4.68 -17 4 C-15.85660156 3.79503906 -14.71320313 3.59007812 -13.53515625 3.37890625 C-12.04423324 3.1069769 -10.55334984 2.83483026 -9.0625 2.5625 C-8.30775391 2.42779297 -7.55300781 2.29308594 -6.77539062 2.15429688 C-3.08046826 1.75727966 -3.08046826 1.75727966 0 0 Z " fill="#6609D2" transform="translate(323,338)"/>
<path d="M0 0 C1.45551681 4.46423613 -0.01507373 6.80960011 -2 11 C-2.67276716 12.6642135 -3.34206835 14.32986582 -4 16 C-4.66 16 -5.32 16 -6 16 C-6 16.66 -6 17.32 -6 18 C-7.65 18.33 -9.3 18.66 -11 19 C-10.62488281 18.46632813 -10.24976563 17.93265625 -9.86328125 17.3828125 C-6.0353934 11.80971634 -2.88363561 6.11177635 0 0 Z " fill="#9052D3" transform="translate(369,300)"/>
<path d="M0 0 C1.32 0.66 2.64 1.32 4 2 C4 5 4 5 2 8 C-0.8125 8.5625 -0.8125 8.5625 -4 8 C-6.04985395 6.16311789 -7.39129514 4.27111274 -9 2 C-7.68 2 -6.36 2 -5 2 C-5 2.66 -5 3.32 -5 4 C-4.34 4 -3.68 4 -3 4 C-3 4.66 -3 5.32 -3 6 C-2.34 6 -1.68 6 -1 6 C-0.67 4.02 -0.34 2.04 0 0 Z " fill="#8A0AF6" transform="translate(38,249)"/>
<path d="M0 0 C1 3 1 3 -0.125 5.5 C-2.18117165 8.24156221 -3.93718326 9.50785851 -7 11 C-7.66 11 -8.32 11 -9 11 C-9 11.66 -9 12.32 -9 13 C-11.64 13.33 -14.28 13.66 -17 14 C-14.78143766 12.31767784 -12.54327187 10.67544821 -10.2734375 9.0625 C-9.31695312 8.381875 -8.36046875 7.70125 -7.375 7 C-6.41335938 6.319375 -5.45171875 5.63875 -4.4609375 4.9375 C-1.81740957 3.0626179 -1.81740957 3.0626179 0 0 Z " fill="#9056CD" transform="translate(349,197)"/>
<path d="M0 0 C1.02820502 3.08461506 1.04582849 4.89685239 0.87890625 8.10546875 C0.83056641 9.08837891 0.78222656 10.07128906 0.73242188 11.08398438 C0.67634766 12.10814453 0.62027344 13.13230469 0.5625 14.1875 C0.51029297 15.22326172 0.45808594 16.25902344 0.40429688 17.32617188 C0.27461607 19.88442049 0.13965022 22.44227938 0 25 C-0.33 25 -0.66 25 -1 25 C-1.185625 23.576875 -1.185625 23.576875 -1.375 22.125 C-1.71687177 18.91332809 -1.71687177 18.91332809 -4 17 C-3.67768769 14.42150151 -3.25599432 12.02402042 -2.6875 9.5 C-2.54376953 8.81035156 -2.40003906 8.12070312 -2.25195312 7.41015625 C-1.16952328 2.33904656 -1.16952328 2.33904656 0 0 Z " fill="#6813D4" transform="translate(501,309)"/>
<path d="M0 0 C0 0.66 0 1.32 0 2 C-1.65 2.66 -3.3 3.32 -5 4 C-5 4.33 -5 4.66 -5 5 C-2.36 5.33 0.28 5.66 3 6 C2.34 6.66 1.68 7.32 1 8 C-3.75890208 7.68794085 -7.64918266 7.03944563 -12 5 C-9.11083069 1.26107501 -4.63135569 0 0 0 Z " fill="#8B59C3" transform="translate(332,211)"/>
<path d="M0 0 C3.59199301 0.99777583 4.93391293 1.91783769 7.3125 4.875 C9 8 9 8 9 12 C9.66 12 10.32 12 11 12 C11.33 14.64 11.66 17.28 12 20 C9.61413397 17.61413397 8.5851848 15.29142118 7.125 12.25 C5.00029836 7.91727509 2.82260103 3.90821681 0 0 Z " fill="#9D5DD8" transform="translate(35,258)"/>
<path d="M0 0 C2.475 0.99 2.475 0.99 5 2 C5 2.66 5 3.32 5 4 C5.99 4.33 6.98 4.66 8 5 C8 5.66 8 6.32 8 7 C8.99 7.33 9.98 7.66 11 8 C11 8.66 11 9.32 11 10 C11.66 10 12.32 10 13 10 C12.67 10.66 12.34 11.32 12 12 C7.125 10.25 7.125 10.25 6 8 C5.360625 7.7525 4.72125 7.505 4.0625 7.25 C1.0872577 5.44682285 0.85092063 3.2618624 0 0 Z " fill="#9659D8" transform="translate(474,9)"/>
<path d="M0 0 C3.47478479 3.01148016 4.97043629 5.50735835 6 10 C5.625 12.375 5.625 12.375 5 14 C0.65757571 9.65757571 0.2555331 5.86448454 0 0 Z " fill="#792ED8" transform="translate(515,174)"/>
<path d="M0 0 C0.33 0 0.66 0 1 0 C1.53132389 2.58157368 2.05034379 5.16461756 2.5625 7.75 C2.78969727 8.84441406 2.78969727 8.84441406 3.02148438 9.9609375 C3.74557178 13.66557073 4.09817231 16.39322322 3 20 C2.34 20 1.68 20 1 20 C-0.05619003 15.71702469 -0.11702092 11.57014354 -0.0625 7.1875 C-0.05798828 6.49462891 -0.05347656 5.80175781 -0.04882812 5.08789062 C-0.03713156 3.39188932 -0.01919924 1.69593297 0 0 Z " fill="#975DD9" transform="translate(502,126)"/>
<path d="M0 0 C0.66 0.33 1.32 0.66 2 1 C2 2.65 2 4.3 2 6 C2.66 6.33 3.32 6.66 4 7 C2.68 9.64 1.36 12.28 0 15 C-0.33 15 -0.66 15 -1 15 C-1.18451025 4.44191344 -1.18451025 4.44191344 0 0 Z " fill="#8C0BF8" transform="translate(60,124)"/>
<path d="M0 0 C1.67793253 2.54729612 2.04245422 3.69899955 1.609375 6.76953125 C1.32578125 7.77371094 1.0421875 8.77789062 0.75 9.8125 C0.45996094 10.86566406 0.16992188 11.91882813 -0.12890625 13.00390625 C-0.41636719 13.99261719 -0.70382812 14.98132813 -1 16 C-1.21527344 16.77214844 -1.43054688 17.54429687 -1.65234375 18.33984375 C-2.08858112 19.89692458 -2.54181924 21.44923434 -3 23 C-3.33 23 -3.66 23 -4 23 C-3.85962479 21.18706911 -3.71255111 19.3746557 -3.5625 17.5625 C-3.48128906 16.55316406 -3.40007812 15.54382813 -3.31640625 14.50390625 C-3 12 -3 12 -2 11 C-1.79231771 9.52603261 -1.63283983 8.0450874 -1.5 6.5625 C-1.10958904 2.21917808 -1.10958904 2.21917808 0 0 Z " fill="#965CD8" transform="translate(510,277)"/>
<path d="M0 0 C5.00890086 0.61512818 10.00632136 1.2717552 15 2 C15 2.66 15 3.32 15 4 C15.66 4 16.32 4 17 4 C16.67 4.99 16.34 5.98 16 7 C15.29488281 6.71382812 14.58976562 6.42765625 13.86328125 6.1328125 C10.98794768 4.99523169 8.09547814 3.92607644 5.1875 2.875 C4.21167969 2.52179688 3.23585938 2.16859375 2.23046875 1.8046875 C1.49441406 1.53914062 0.75835937 1.27359375 0 1 C0 0.67 0 0.34 0 0 Z " fill="#9747D9" transform="translate(8,239)"/>
<path d="M0 0 C0.66 0.33 1.32 0.66 2 1 C2 1.33 2 1.66 2 2 C2.66 2.33 3.32 2.66 4 3 C1.78631706 5.21368294 0.06983375 6.86552921 -3.11328125 7.265625 C-5.07746787 7.25166986 -7.0402625 7.13286356 -9 7 C-6.03716687 4.61327331 -3.05729491 2.2646629 0 0 Z " fill="#9F4AE5" transform="translate(25,197)"/>
<path d="M0 0 C0.99 0.99 1.98 1.98 3 3 C1.49087042 7.98012761 -1.55661849 11.24259942 -5 15 C-5.66 13.68 -6.32 12.36 -7 11 C-6.01 11 -5.02 11 -4 11 C-3.79503906 10.37351563 -3.59007812 9.74703125 -3.37890625 9.1015625 C-3.10949219 8.28429687 -2.84007812 7.46703125 -2.5625 6.625 C-2.29566406 5.81289062 -2.02882813 5.00078125 -1.75390625 4.1640625 C-1 2 -1 2 0 0 Z " fill="#7E35D2" transform="translate(320,180)"/>
<path d="M0 0 C3 1 3 1 4.5625 4 C5.036875 4.99 5.51125 5.98 6 7 C6.66 7.33 7.32 7.66 8 8 C8.72693904 9.97888961 9.39816251 11.97954558 10 14 C9.01 14.495 9.01 14.495 8 15 C6.84735447 13.25447936 5.70312673 11.50339804 4.5625 9.75 C3.92441406 8.77546875 3.28632812 7.8009375 2.62890625 6.796875 C1.2423864 4.41618385 0.453419 2.68219693 0 0 Z " fill="#975BD7" transform="translate(65,411)"/>
<path d="M0 0 C0.33 0.66 0.66 1.32 1 2 C3.3140622 2.73075648 5.64828869 3.40138258 8 4 C8 4.66 8 5.32 8 6 C3.9472484 6.98248524 0.16138263 7.08159574 -4 7 C-3.67 6.34 -3.34 5.68 -3 5 C-2.34 5 -1.68 5 -1 5 C-0.67 3.35 -0.34 1.7 0 0 Z " fill="#6D1FD1" transform="translate(552,232)"/>
<path d="M0 0 C5.75 -0.125 5.75 -0.125 8 1 C9 3 9 3 10 5 C10.66 5.33 11.32 5.66 12 6 C12.625 8.0625 12.625 8.0625 13 10 C12.34 10 11.68 10 11 10 C11 9.34 11 8.68 11 8 C10.401875 7.731875 9.80375 7.46375 9.1875 7.1875 C7.00186425 6.00101202 5.7416583 4.7416583 4 3 C1.90010348 1.82425289 1.90010348 1.82425289 0 1 C0 0.67 0 0.34 0 0 Z " fill="#8C4BD4" transform="translate(347,225)"/>
<path d="M0 0 C-4.32788658 3.63542473 -9.46250797 5.89250159 -15 7 C-15 5.68 -15 4.36 -15 3 C-12.87790224 2.30359327 -10.75221473 1.61811643 -8.625 0.9375 C-6.84996094 0.36322266 -6.84996094 0.36322266 -5.0390625 -0.22265625 C-2 -1 -2 -1 0 0 Z " fill="#8116DA" transform="translate(15,205)"/>
<path d="M0 0 C5.23880078 0.55145271 9.97350697 1.42922093 15 3 C13 5 13 5 10.3125 5.3125 C6.28873965 4.93289997 3.63019132 3.74249184 0 2 C0 1.34 0 0.68 0 0 Z " fill="#8F49DB" transform="translate(451,0)"/>
<path d="M0 0 C0.33 0 0.66 0 1 0 C1.0543965 2.37531394 1.09385864 4.74935883 1.125 7.125 C1.14175781 7.79015625 1.15851563 8.4553125 1.17578125 9.140625 C1.21829658 13.47718902 0.81690323 17.0413168 -1 21 C-1.99 21.33 -2.98 21.66 -4 22 C-3.79503906 21.33355469 -3.59007812 20.66710937 -3.37890625 19.98046875 C-1.42784615 13.30578947 -0.38921872 6.93883025 0 0 Z " fill="#995FD4" transform="translate(374,278)"/>
<path d="M0 0 C2.375 0.6875 2.375 0.6875 5 2 C6.3125 4.625 6.3125 4.625 7 7 C7.66 7 8.32 7 9 7 C9 8.98 9 10.96 9 13 C0 2 0 2 0 0 Z " fill="#914DD5" transform="translate(360,235)"/>
<path d="M0 0 C0.680625 0.00644531 1.36125 0.01289063 2.0625 0.01953125 C4 0.1875 4 0.1875 7 1.1875 C7 1.8475 7 2.5075 7 3.1875 C7.66 3.5175 8.32 3.8475 9 4.1875 C3.63108121 3.68880596 -1.69235173 3.16522468 -7 2.1875 C-3.97455666 0.17053778 -3.38932618 -0.07061096 0 0 Z " fill="#772EC1" transform="translate(295,134.8125)"/>
<path d="M0 0 C2.0625 0.4375 2.0625 0.4375 4 1 C3.75 3.875 3.75 3.875 3 7 C0.9375 8.375 0.9375 8.375 -1 9 C-1.09765625 2.84765625 -1.09765625 2.84765625 -1 1 C-0.67 0.67 -0.34 0.34 0 0 Z " fill="#6A07EF" transform="translate(489,407)"/>
<path d="M0 0 C-5.5439852 2.80512399 -9.77270879 3.3935213 -15.9375 3.1875 C-16.71673828 3.17396484 -17.49597656 3.16042969 -18.29882812 3.14648438 C-20.19952404 3.11150224 -22.09985834 3.05770959 -24 3 C-24 2.67 -24 2.34 -24 2 C-22.33710938 1.80083984 -22.33710938 1.80083984 -20.640625 1.59765625 C-19.1770673 1.41940243 -17.71352651 1.24100972 -16.25 1.0625 C-15.15558594 0.93198242 -15.15558594 0.93198242 -14.0390625 0.79882812 C-9.93376304 0.30793023 -9.93376304 0.30793023 -5.89746094 -0.56079102 C-3.6243485 -1.08695279 -2.19617213 -0.70591247 0 0 Z " fill="#A771D6" transform="translate(326,338)"/>
<path d="M0 0 C4.38462134 0.50109958 6.8000997 1.98295115 10 5 C10 5.66 10 6.32 10 7 C6.7 6.01 3.4 5.02 0 4 C0 2.68 0 1.36 0 0 Z " fill="#8040D5" transform="translate(530,196)"/>
<path d="M0 0 C2 2 2 2 2 5 C1.34 5 0.68 5 0 5 C-0.33 7.64 -0.66 10.28 -1 13 C-1.99 13 -2.98 13 -4 13 C-3.67 12.34 -3.34 11.68 -3 11 C-3.66 10.67 -4.32 10.34 -5 10 C-3.35 6.7 -1.7 3.4 0 0 Z " fill="#9849E0" transform="translate(45,170)"/>
<path d="M0 0 C0.33 0 0.66 0 1 0 C0.85780436 2.20857055 0.71108153 4.41684987 0.5625 6.625 C0.48128906 7.85476563 0.40007812 9.08453125 0.31640625 10.3515625 C0.03336056 13.61532388 -0.41038953 16.77943859 -1 20 C-1.33 20 -1.66 20 -2 20 C-2.0544452 17.79194476 -2.09299283 15.58349446 -2.125 13.375 C-2.14820313 12.14523437 -2.17140625 10.91546875 -2.1953125 9.6484375 C-2.0030428 6.05683959 -1.30258556 3.33338825 0 0 Z " fill="#925ED8" transform="translate(503,306)"/>
<path d="M0 0 C0.33 0 0.66 0 1 0 C1.33 4.95 1.66 9.9 2 15 C2.99 15.33 3.98 15.66 5 16 C4.34 16.33 3.68 16.66 3 17 C3.33 17.99 3.66 18.98 4 20 C2.68 20 1.36 20 0 20 C0 13.4 0 6.8 0 0 Z " fill="#7308E6" transform="translate(235,289)"/>
<path d="M0 0 C0 3.15987325 -0.38214873 4.36034793 -2 7 C-5 9 -5 9 -9 9 C-9 9.66 -9 10.32 -9 11 C-10.32 10.67 -11.64 10.34 -13 10 C-11.71186658 9.16121545 -10.41936744 8.32913217 -9.125 7.5 C-8.40570313 7.0359375 -7.68640625 6.571875 -6.9453125 6.09375 C-5 5 -5 5 -3 5 C-2.690625 4.360625 -2.38125 3.72125 -2.0625 3.0625 C-1 1 -1 1 0 0 Z " fill="#9559D0" transform="translate(356,319)"/>
<path d="M0 0 C0 1.32 0 2.64 0 4 C-2.31 4.33 -4.62 4.66 -7 5 C-7.33 3.68 -7.66 2.36 -8 1 C-5.29120665 -0.35439668 -2.99066732 -0.06501451 0 0 Z " fill="#7413DC" transform="translate(313,192)"/>
<path d="M0 0 C8.98996656 0.74916388 8.98996656 0.74916388 12 4 C12.75 6.1875 12.75 6.1875 13 8 C10.03216871 6.54331217 7.13584687 4.98767914 4.25 3.375 C3.45078125 2.92898437 2.6515625 2.48296875 1.828125 2.0234375 C1.22484375 1.68570313 0.6215625 1.34796875 0 1 C0 0.67 0 0.34 0 0 Z " fill="#9550D5" transform="translate(328,111)"/>
<path d="M0 0 C-1 2 -1 2 -3.625 3.125 C-7.21810788 4.05654649 -10.30415624 4.14783375 -14 4 C-14.33 4.66 -14.66 5.32 -15 6 C-15.66 5.34 -16.32 4.68 -17 4 C-15.10751181 3.32389577 -13.2108398 2.65949561 -11.3125 2 C-10.25675781 1.62875 -9.20101562 1.2575 -8.11328125 0.875 C-5.21637944 0.0608143 -2.98299377 -0.17709796 0 0 Z " fill="#A55CDC" transform="translate(109,0)"/>
<path d="M0 0 C1.32 0 2.64 0 4 0 C4.33 1.98 4.66 3.96 5 6 C4.01 5.67 3.02 5.34 2 5 C1.34 5.66 0.68 6.32 0 7 C-1.32 5.35 -2.64 3.7 -4 2 C-2.68 2 -1.36 2 0 2 C0 1.34 0 0.68 0 0 Z " fill="#9029E9" transform="translate(28,244)"/>
<path d="M0 0 C2.38564077 0.57584432 4.66682784 1.22227595 7 2 C7.33 2.66 7.66 3.32 8 4 C10.01669827 5.13350534 10.01669827 5.13350534 12 6 C12 6.33 12 6.66 12 7 C5.539801 7.36567164 5.539801 7.36567164 3.0625 5.6875 C2 4 2 4 2 1 C1.34 0.67 0.68 0.34 0 0 Z " fill="#6B09DF" transform="translate(310,239)"/>
<path d="M0 0 C2.31 0 4.62 0 7 0 C6.25 2.9375 6.25 2.9375 5 6 C2.875 6.875 2.875 6.875 1 7 C0 2.25 0 2.25 0 0 Z M3 2 C4 4 4 4 4 4 Z " fill="#6C09EF" transform="translate(544,232)"/>
<path d="M0 0 C1.65 0 3.3 0 5 0 C5.33 0.66 5.66 1.32 6 2 C7.64363134 2.72159424 9.31050386 3.39351421 11 4 C7.25 5.125 7.25 5.125 5 4 C4.67 4.66 4.34 5.32 4 6 C3.34 6 2.68 6 2 6 C1.34 4.02 0.68 2.04 0 0 Z " fill="#6C0FE4" transform="translate(536,202)"/>
<path d="M0 0 C2 1 2 1 2.66796875 2.92578125 C2.83941406 3.71339844 3.01085937 4.50101563 3.1875 5.3125 C3.36667969 6.09238281 3.54585938 6.87226563 3.73046875 7.67578125 C4.01067443 10.09204759 3.74132137 11.70242952 3 14 C0.9945196 9.64026 -0.53945369 5.83573624 -1 1 C-0.67 0.67 -0.34 0.34 0 0 Z " fill="#670CD0" transform="translate(329,250)"/>
<path d="M0 0 C2.475 0.99 2.475 0.99 5 2 C3.71034824 3.37562854 2.37310707 4.70766393 1 6 C0.34 6 -0.32 6 -1 6 C-1.99 6.33 -2.98 6.66 -4 7 C-4 4 -4 4 -2 1.8125 C-1.34 1.214375 -0.68 0.61625 0 0 Z " fill="#6E06E8" transform="translate(363,316)"/>
<path d="M0 0 C-3.2811302 2.18742014 -5.33084356 2.54442806 -9.1875 3.125 C-10.27417969 3.29257813 -11.36085938 3.46015625 -12.48046875 3.6328125 C-13.31191406 3.75398437 -14.14335938 3.87515625 -15 4 C-15 3.34 -15 2.68 -15 2 C-10.13948404 -0.59227518 -5.34728867 -0.18689553 0 0 Z " fill="#7939D8" transform="translate(552,239)"/>
<path d="M0 0 C1.65 0 3.3 0 5 0 C5.33 1.32 5.66 2.64 6 4 C1.25 5 1.25 5 -1 5 C-0.67 3.35 -0.34 1.7 0 0 Z " fill="#7306E5" transform="translate(355,194)"/>
<path d="M0 0 C0.99 0 1.98 0 3 0 C3.433125 0.928125 3.86625 1.85625 4.3125 2.8125 C5.72038627 5.47184073 6.76123556 7.08105905 9 9 C7.25 9.75 7.25 9.75 5 10 C2.6875 8.375 2.6875 8.375 1 6 C1.25 3.25 1.25 3.25 2 1 C1.34 0.67 0.68 0.34 0 0 Z " fill="#700AD7" transform="translate(311,143)"/>
<path d="M0 0 C2 2 2 2 2.1953125 4.3828125 C2.17210938 5.28773437 2.14890625 6.19265625 2.125 7.125 C2.10695313 8.03507812 2.08890625 8.94515625 2.0703125 9.8828125 C2.03550781 10.93082031 2.03550781 10.93082031 2 12 C1.34 12 0.68 12 0 12 C0.33 13.32 0.66 14.64 1 16 C0.34 16 -0.32 16 -1 16 C-1.09688221 10.55306686 -1.12862175 5.36095333 0 0 Z " fill="#8E0CF8" transform="translate(62,107)"/>
<path d="M0 0 C5.95507399 0.3916035 10.62819824 1.37124595 16 4 C15.01 4.66 14.02 5.32 13 6 C10.87890625 5.390625 10.87890625 5.390625 8.5625 4.25 C7.80066406 3.88390625 7.03882813 3.5178125 6.25390625 3.140625 C5.51011719 2.76421875 4.76632812 2.3878125 4 2 C2.86884766 1.43539062 2.86884766 1.43539062 1.71484375 0.859375 C1.14894531 0.57578125 0.58304687 0.2921875 0 0 Z " fill="#8145C2" transform="translate(301,235)"/>
<path d="M0 0 C2.475 0.495 2.475 0.495 5 1 C5.103125 1.61875 5.20625 2.2375 5.3125 2.875 C5.87525373 5.36526484 5.87525373 5.36526484 9 7 C9 7.66 9 8.32 9 9 C6.525 8.01 6.525 8.01 4 7 C4 6.01 4 5.02 4 4 C2.68 3.34 1.36 2.68 0 2 C0 1.34 0 0.68 0 0 Z " fill="#6C0AD9" transform="translate(355,227)"/>
<path d="M0 0 C1.32 0 2.64 0 4 0 C4 0.66 4 1.32 4 2 C3.01 2 2.02 2 1 2 C0.67 3.32 0.34 4.64 0 6 C-1.65 6 -3.3 6 -5 6 C-5 5.01 -5 4.02 -5 3 C-3.35 2.67 -1.7 2.34 0 2 C0 1.34 0 0.68 0 0 Z " fill="#660CC6" transform="translate(332,211)"/>
<path d="M0 0 C0.33 0 0.66 0 1 0 C1.46882399 8.12628256 1.46882399 8.12628256 -0.375 11.5625 C-2 13 -2 13 -4 13 C-3.52140759 11.39566191 -3.04210442 9.79153584 -2.5625 8.1875 C-2.29566406 7.29417969 -2.02882812 6.40085938 -1.75390625 5.48046875 C-1.19612127 3.64526945 -0.60655425 1.81966274 0 0 Z " fill="#9E59DB" transform="translate(50,157)"/>
<path d="M0 0 C0.66 0 1.32 0 2 0 C4 2 4 2 4.1953125 4.3828125 C4.17210937 5.28773438 4.14890625 6.19265625 4.125 7.125 C4.10695313 8.03507813 4.08890625 8.94515625 4.0703125 9.8828125 C4.04710937 10.58148438 4.02390625 11.28015625 4 12 C3.01 12.495 3.01 12.495 2 13 C-0.28571429 4.57142857 -0.28571429 4.57142857 0 0 Z " fill="#7109E0" transform="translate(363,148)"/>
<path d="M0 0 C7.66742597 5.96583144 7.66742597 5.96583144 9 11 C5.17734712 9.21609532 3.37871427 7.56807141 1 4 C0.375 1.8125 0.375 1.8125 0 0 Z " fill="#8B4ECA" transform="translate(314,143)"/>
<path d="M0 0 C-1.89492746 0.19644384 -3.79100903 0.38177288 -5.6875 0.5625 C-7.27111328 0.71912109 -7.27111328 0.71912109 -8.88671875 0.87890625 C-11.81426086 0.99277552 -14.17131144 0.70848415 -17 0 C-17 -0.33 -17 -0.66 -17 -1 C-4.54918033 -3.03278689 -4.54918033 -3.03278689 0 0 Z " fill="#8734E4" transform="translate(115,444)"/>
<path d="M0 0 C0.99 0 1.98 0 3 0 C2.59316505 2.35964273 2.10185661 3.85934088 0.6875 5.8125 C-1 7 -1 7 -3.1875 6.6875 C-3.785625 6.460625 -4.38375 6.23375 -5 6 C-4.67 5.01 -4.34 4.02 -4 3 C-3.01 3 -2.02 3 -1 3 C-0.67 2.01 -0.34 1.02 0 0 Z " fill="#7A3ACF" transform="translate(480,428)"/>
<path d="M0 0 C1.8125 0.125 1.8125 0.125 4 1 C7.20021665 5.96585343 7.20021665 5.96585343 6.57421875 9.19921875 C6.38472656 9.79347656 6.19523437 10.38773438 6 11 C4.99735282 9.35577799 3.99794896 7.70957779 3 6.0625 C2.443125 5.14597656 1.88625 4.22945312 1.3125 3.28515625 C0 1 0 1 0 0 Z " fill="#904ECD" transform="translate(351,128)"/>
<path d="M0 0 C-0.11351517 1.81325551 -0.24112961 3.62563357 -0.375 5.4375 C-0.44460937 6.44683594 -0.51421875 7.45617187 -0.5859375 8.49609375 C-0.72257812 9.32238281 -0.85921875 10.14867187 -1 11 C-1.99 11.495 -1.99 11.495 -3 12 C-3 8.37 -3 4.74 -3 1 C-1 0 -1 0 0 0 Z " fill="#8529D7" transform="translate(61,118)"/>
<path d="M0 0 C0.66 0 1.32 0 2 0 C3.5912689 4.873261 4.21192221 8.80790596 4 14 C1.8480563 10.77208445 1.79913557 9.71599191 2 6 C1.34 6 0.68 6 0 6 C0 4.02 0 2.04 0 0 Z " fill="#843CCC" transform="translate(493,33)"/>
<path d="M0 0 C0 1.65 0 3.3 0 5 C-0.66 5 -1.32 5 -2 5 C-2 5.66 -2 6.32 -2 7 C-3.65 7.33 -5.3 7.66 -7 8 C-6.34 7.01 -5.68 6.02 -5 5 C-4.34 5.33 -3.68 5.66 -3 6 C-3.66 4.35 -4.32 2.7 -5 1 C-2 0 -2 0 0 0 Z " fill="#6709E9" transform="translate(470,433)"/>
<path d="M0 0 C-1.125 1.9375 -1.125 1.9375 -3 4 C-6.1875 4.75 -6.1875 4.75 -9 5 C-9 3.68 -9 2.36 -9 1 C-5.8035914 -0.06546953 -3.34252724 -0.07427838 0 0 Z " fill="#7129CB" transform="translate(335,335)"/>
<path d="M0 0 C0.33 0 0.66 0 1 0 C2.2019586 6.22833095 1.93161919 9.37129115 -1 15 C-1.33 15 -1.66 15 -2 15 C-1.85879286 13.06215735 -1.71187127 11.12473045 -1.5625 9.1875 C-1.48128906 8.10855469 -1.40007812 7.02960938 -1.31640625 5.91796875 C-1 3 -1 3 0 0 Z " fill="#8342D0" transform="translate(333,278)"/>
<path d="M0 0 C0.63934602 5.11476819 -1.59466453 8.67254378 -4 13 C-5.07999887 9.7600034 -4.92129428 8.61636465 -4.1875 5.375 C-4.01605469 4.57835937 -3.84460938 3.78171875 -3.66796875 2.9609375 C-2.95227651 0.85989946 -2.37872509 0 0 0 Z " fill="#8B51D3" transform="translate(517,267)"/>
<path d="M0 0 C1.5625 1.6875 1.5625 1.6875 3 4 C2.8517636 7.03884627 2.42925609 8.50206293 0.4375 10.8125 C-0.036875 11.204375 -0.51125 11.59625 -1 12 C-2.09898702 8.70303895 -1.87124444 7.59505097 -1.0625 4.3125 C-0.86785156 3.50425781 -0.67320312 2.69601563 -0.47265625 1.86328125 C-0.31667969 1.24839844 -0.16070312 0.63351563 0 0 Z " fill="#9459D9" transform="translate(361,172)"/>
<path d="M0 0 C2.31 0 4.62 0 7 0 C7 2 7 2 5.8125 3.625 C3.44439338 5.42149467 1.90102749 5.23521845 -1 5 C-0.34 4.34 0.32 3.68 1 3 C0.67 2.01 0.34 1.02 0 0 Z " fill="#6D0AE1" transform="translate(340,216)"/>
<path d="M0 0 C0.33 0 0.66 0 1 0 C2.28113879 8.54092527 2.28113879 8.54092527 1 12 C0.67 12.99 0.34 13.98 0 15 C-2.50356732 11.24464902 -1.9608592 10.13110586 -1.125 5.8125 C-0.92132813 4.72582031 -0.71765625 3.63914063 -0.5078125 2.51953125 C-0.34023438 1.68808594 -0.17265625 0.85664063 0 0 Z " fill="#7108E1" transform="translate(365,164)"/>
<path d="M0 0 C0.33 0.66 0.66 1.32 1 2 C2.32 1.67 3.64 1.34 5 1 C3.63016497 4.16115776 3.0109362 4.9927092 0 7 C-0.99 6.34 -1.98 5.68 -3 5 C-2.01 3.35 -1.02 1.7 0 0 Z " fill="#9A3EE9" transform="translate(73,19)"/>
<path d="M0 0 C3.63 0.33 7.26 0.66 11 1 C10.67 1.99 10.34 2.98 10 4 C9.37351562 3.9278125 8.74703125 3.855625 8.1015625 3.78125 C7.28429688 3.6884375 6.46703125 3.595625 5.625 3.5 C4.81289062 3.4071875 4.00078125 3.314375 3.1640625 3.21875 C1.03087175 2.96647649 1.03087175 2.96647649 -1 3 C-0.67 2.01 -0.34 1.02 0 0 Z " fill="#8C0CF9" transform="translate(1,233)"/>
<path d="M0 0 C2.475 0.495 2.475 0.495 5 1 C5.66 3.31 6.32 5.62 7 8 C5.35 7.67 3.7 7.34 2 7 C3 4 3 4 4 2 C2.68 1.34 1.36 0.68 0 0 Z " fill="#730FE0" transform="translate(481,19)"/>
<path d="M0 0 C0.33 0.66 0.66 1.32 1 2 C4.02934491 2.65772428 4.02934491 2.65772428 7 3 C6.67 3.66 6.34 4.32 6 5 C3.36 4.67 0.72 4.34 -2 4 C-2 3.01 -2 2.02 -2 1 C-1.34 0.67 -0.68 0.34 0 0 Z " fill="#790DE9" transform="translate(450,0)"/>
<path d="M0 0 C1.875 0.25 1.875 0.25 4 1 C4.69937532 2.31647119 5.36729133 3.65022151 6 5 C6.99 5.33 7.98 5.66 9 6 C9 6.99 9 7.98 9 9 C7 9 7 9 5.2734375 7.28515625 C4.64695312 6.55167969 4.02046875 5.81820313 3.375 5.0625 C2.74335937 4.33160156 2.11171875 3.60070312 1.4609375 2.84765625 C0 1 0 1 0 0 Z " fill="#8744CE" transform="translate(74,426)"/>
<path d="M0 0 C2.22885515 3.82089454 3.16510643 7.68638323 4 12 C3.34 12.66 2.68 13.32 2 14 C0.4087311 9.126739 -0.21192221 5.19209404 0 0 Z " fill="#9052D4" transform="translate(62,396)"/>
<path d="M0 0 C-3.36423277 2.96052484 -6.69159287 3.92289822 -11 5 C-10.67 4.34 -10.34 3.68 -10 3 C-9.34 3 -8.68 3 -8 3 C-8 2.34 -8 1.68 -8 1 C-4.93251126 -0.86240388 -3.40254489 -1.2151946 0 0 Z " fill="#9C66DA" transform="translate(321,303)"/>
<path d="M0 0 C0.33 0 0.66 0 1 0 C2.125 7.75 2.125 7.75 1 10 C0.34 10 -0.32 10 -1 10 C-1.33 10.66 -1.66 11.32 -2 12 C-1.34 8.04 -0.68 4.08 0 0 Z " fill="#7936D5" transform="translate(504,296)"/>
<path d="M0 0 C3.3 0.33 6.6 0.66 10 1 C8.35 2.32 6.7 3.64 5 5 C4.67 4.34 4.34 3.68 4 3 C1.97536745 2.34786708 1.97536745 2.34786708 0 2 C0 1.34 0 0.68 0 0 Z " fill="#630BC7" transform="translate(295,235)"/>
<path d="M0 0 C0.33 0 0.66 0 1 0 C1.125 7.625 1.125 7.625 0 11 C-0.99 11.33 -1.98 11.66 -3 12 C-2.68950274 10.56206608 -2.3765224 9.1246682 -2.0625 7.6875 C-1.88847656 6.88699219 -1.71445312 6.08648437 -1.53515625 5.26171875 C-1 3 -1 3 0 0 Z " fill="#A35FDB" transform="translate(65,33)"/>
<path d="M0 0 C0.66 0.33 1.32 0.66 2 1 C1.375 3.375 1.375 3.375 0 6 C-3.125 7.3125 -3.125 7.3125 -6 8 C-5.67 7.01 -5.34 6.02 -5 5 C-4.34 5 -3.68 5 -3 5 C-2.5359375 4.0409375 -2.5359375 4.0409375 -2.0625 3.0625 C-1 1 -1 1 0 0 Z " fill="#AE72DC" transform="translate(81,11)"/>
<path d="M0 0 C3.8063457 0.67170806 7.35206816 1.72746564 11 3 C10.67 3.66 10.34 4.32 10 5 C8.51800098 4.55090939 7.03944764 4.09043436 5.5625 3.625 C4.73878906 3.36976563 3.91507812 3.11453125 3.06640625 2.8515625 C1 2 1 2 0 0 Z " fill="#8E4BD7" transform="translate(88,438)"/>
<path d="M0 0 C0.99 1.485 0.99 1.485 2 3 C2.391875 3.5775 2.78375 4.155 3.1875 4.75 C4.36513195 8.01113462 3.64352802 10.65365431 3 14 C2.67 14 2.34 14 2 14 C1.66179834 12.4176994 1.32964061 10.83410625 1 9.25 C0.814375 8.36828125 0.62875 7.4865625 0.4375 6.578125 C0 4 0 4 0 0 Z " fill="#874CCA" transform="translate(331,251)"/>
<path d="M0 0 C2 2 2 2 2.375 4.4375 C2 7 2 7 -2 10 C-1.34 6.7 -0.68 3.4 0 0 Z " fill="#8E0DF6" transform="translate(70,28)"/>
<path d="M0 0 C0.66 0.33 1.32 0.66 2 1 C1.01 1.33 0.02 1.66 -1 2 C-0.67 3.32 -0.34 4.64 0 6 C-1.65 6.33 -3.3 6.66 -5 7 C-4.49396008 4.83125748 -4.00016187 3.00032373 -3 1 C-2.01 0.67 -1.02 0.34 0 0 Z " fill="#6011C6" transform="translate(360,318)"/>
<path d="M0 0 C1.051875 0.2475 2.10375 0.495 3.1875 0.75 C1.28348862 2.65401138 -0.14675686 3.68520439 -2.859375 3.94921875 C-4.84483273 3.9386578 -6.8294914 3.84915043 -8.8125 3.75 C-5.66311307 0.60061307 -4.55934222 -0.29897326 0 0 Z " fill="#6B0CD5" transform="translate(309.8125,304.25)"/>
<path d="M0 0 C1 3 1 3 0.0625 5.1875 C-0.4634375 6.0846875 -0.4634375 6.0846875 -1 7 C-2.65 6.67 -4.3 6.34 -6 6 C-6 5.34 -6 4.68 -6 4 C-4.7934375 3.566875 -4.7934375 3.566875 -3.5625 3.125 C-0.8673532 2.26737432 -0.8673532 2.26737432 0 0 Z " fill="#6E09EF" transform="translate(502,302)"/>
<path d="M0 0 C0.33 0 0.66 0 1 0 C0.88490339 1.41750563 0.75746342 2.83401169 0.625 4.25 C0.55539062 5.03890625 0.48578125 5.8278125 0.4140625 6.640625 C-0.01507113 9.085877 -0.78600638 10.84836903 -2 13 C-2.625 9.625 -2.625 9.625 -3 6 C-2.34 5.34 -1.68 4.68 -1 4 C-0.3574765 1.93125966 -0.3574765 1.93125966 0 0 Z " fill="#6612D8" transform="translate(513,268)"/>
<path d="M0 0 C1.65 0 3.3 0 5 0 C4.67 0.99 4.34 1.98 4 3 C4 2.34 4 1.68 4 1 C3.34 1 2.68 1 2 1 C1.34 3.64 0.68 6.28 0 9 C-0.66 8.01 -1.32 7.02 -2 6 C-1.125 2.8125 -1.125 2.8125 0 0 Z " fill="#690BE8" transform="translate(517,258)"/>
<path d="M0 0 C0.98120464 3.05263664 0.98120464 4.94736336 0 8 C-1.32 7.67 -2.64 7.34 -4 7 C-2.92598892 4.08482708 -2.22189824 2.22189824 0 0 Z " fill="#9F4BE6" transform="translate(39,182)"/>
<path d="M0 0 C2.64 0 5.28 0 8 0 C8.33 0.99 8.66 1.98 9 3 C6.03 3 3.06 3 0 3 C0 2.01 0 1.02 0 0 Z " fill="#610EDE" transform="translate(453,440)"/>
<path d="M0 0 C0.99 0.33 1.98 0.66 3 1 C1.55746343 4.36591866 -0.33264727 6.51047079 -3 9 C-3 8.01 -3 7.02 -3 6 C-2.34 6 -1.68 6 -1 6 C-0.67 4.02 -0.34 2.04 0 0 Z " fill="#844DCE" transform="translate(487,419)"/>
<path d="M0 0 C1.22589844 0.01353516 1.22589844 0.01353516 2.4765625 0.02734375 C3.41628906 0.04474609 3.41628906 0.04474609 4.375 0.0625 C1.42429881 2.02963413 -0.16081611 2.71608161 -3.625 3.0625 C-4.615 2.4025 -5.605 1.7425 -6.625 1.0625 C-4.21954362 -0.14022819 -2.67503047 -0.03821472 0 0 Z " fill="#681EBB" transform="translate(304.625,340.9375)"/>
<path d="M0 0 C2.24087517 2.24087517 2.66556265 2.90645453 3 6 C2.411438 8.354248 1.75407101 10.69342986 1 13 C0.67 13 0.34 13 0 13 C0 8.71 0 4.42 0 0 Z " fill="#6C09E2" transform="translate(377,265)"/>
<path d="M0 0 C2.5 2.3125 2.5 2.3125 5 5 C5 5.99 5 6.98 5 8 C3.68 7.67 2.36 7.34 1 7 C0.67 4.69 0.34 2.38 0 0 Z " fill="#8B4BD5" transform="translate(520,182)"/>
<path d="M0 0 C0.33 0.99 0.66 1.98 1 3 C-0.4375 5.1875 -0.4375 5.1875 -2 7 C-2.99 6.67 -3.98 6.34 -5 6 C-3.63016497 2.83884224 -3.0109362 2.0072908 0 0 Z " fill="#7208E6" transform="translate(318,184)"/>
<path d="M0 0 C0 1.65 0 3.3 0 5 C-1.65 5.33 -3.3 5.66 -5 6 C-4.67 4.35 -4.34 2.7 -4 1 C-1 0 -1 0 0 0 Z " fill="#8030D6" transform="translate(362,182)"/>
<path d="M0 0 C-1.29299694 2.88437779 -2.65941363 4.87219421 -5 7 C-5 5.02 -5 3.04 -5 1 C-3 0 -3 0 0 0 Z " fill="#6D05E8" transform="translate(359,324)"/>
<path d="M0 0 C0.66 0.99 1.32 1.98 2 3 C0.63016497 6.16115776 0.0109362 6.9927092 -3 9 C-3 8.01 -3 7.02 -3 6 C-2.34 6 -1.68 6 -1 6 C-1.0309375 4.7934375 -1.0309375 4.7934375 -1.0625 3.5625 C-1 1 -1 1 0 0 Z " fill="#8D42D4" transform="translate(329,290)"/>
<path d="M0 0 C2.125 0.375 2.125 0.375 4 1 C4.33 2.65 4.66 4.3 5 6 C2.50638429 4.79618552 0.31856917 3.54571278 -2 2 C-1.34 1.34 -0.68 0.68 0 0 Z " fill="#6D0CE9" transform="translate(507,164)"/>
<path d="M0 0 C-0.33 1.65 -0.66 3.3 -1 5 C-2.65 4.67 -4.3 4.34 -6 4 C-6 3.34 -6 2.68 -6 2 C-2.25 0 -2.25 0 0 0 Z " fill="#7A0AE6" transform="translate(336,107)"/>
<path d="M0 0 C6.625 -0.25 6.625 -0.25 10 2 C10 2.66 10 3.32 10 4 C6.7 3.01 3.4 2.02 0 1 C0 0.67 0 0.34 0 0 Z " fill="#A164D9" transform="translate(316,107)"/>
<path d="M0 0 C0 0.66 0 1.32 0 2 C-3.96 1.67 -7.92 1.34 -12 1 C-12 0.67 -12 0.34 -12 0 C-7.6835078 -0.76173392 -4.25566547 -1.16063604 0 0 Z " fill="#A369D9" transform="translate(316,105)"/>
<path d="M0 0 C0.66 0.33 1.32 0.66 2 1 C1 4 1 4 -1.375 5.25 C-4 6 -4 6 -7 5 C-4.69 3.35 -2.38 1.7 0 0 Z " fill="#A458DA" transform="translate(90,5)"/>
<path d="M0 0 C0.33 0.66 0.66 1.32 1 2 C0.22265625 3.7265625 0.22265625 3.7265625 -0.9375 5.625 C-1.618125 6.73875 -2.29875 7.8525 -3 9 C-3.33 9 -3.66 9 -4 9 C-4 7.35 -4 5.7 -4 4 C-3.01 3.67 -2.02 3.34 -1 3 C-0.67 2.01 -0.34 1.02 0 0 Z " fill="#9663D9" transform="translate(494,411)"/>
<path d="M0 0 C0.33 0 0.66 0 1 0 C1.33 3.96 1.66 7.92 2 12 C1.01 11.34 0.02 10.68 -1 10 C-0.67 6.7 -0.34 3.4 0 0 Z " fill="#8448DB" transform="translate(499,327)"/>
<path d="M0 0 C0.99 0.33 1.98 0.66 3 1 C3.6875 3.0625 3.6875 3.0625 4 5 C2 5 0 5 -2 5 C-1.34 3.35 -0.68 1.7 0 0 Z " fill="#6B06E7" transform="translate(349,330)"/>
<path d="M0 0 C0.99 0.33 1.98 0.66 3 1 C2.40138258 3.35171131 1.73075648 5.6859378 1 8 C0.01 8.495 0.01 8.495 -1 9 C-1.08886184 5.80097361 -0.91058531 3.07322544 0 0 Z " fill="#6D07E8" transform="translate(373,299)"/>
<path d="M0 0 C0.598125 0.20625 1.19625 0.4125 1.8125 0.625 C-1.1875 2.625 -1.1875 2.625 -3.375 2.25 C-3.973125 2.04375 -4.57125 1.8375 -5.1875 1.625 C-2.1875 -0.375 -2.1875 -0.375 0 0 Z M-7.1875 2.625 C-6.5275 2.955 -5.8675 3.285 -5.1875 3.625 C-7.1675 4.615 -7.1675 4.615 -9.1875 5.625 C-9.1875 4.965 -9.1875 4.305 -9.1875 3.625 C-8.5275 3.295 -7.8675 2.965 -7.1875 2.625 Z " fill="#870DF0" transform="translate(9.1875,208.375)"/>
<path d="M0 0 C-2.71182212 2.60334924 -3.89133813 2.99456691 -7.75 3.1875 C-8.8225 3.125625 -9.895 3.06375 -11 3 C-3.71428571 -1.85714286 -3.71428571 -1.85714286 0 0 Z " fill="#A964D9" transform="translate(15,205)"/>
<path d="M0 0 C0.99 0.33 1.98 0.66 3 1 C1.35 2.98 -0.3 4.96 -2 7 C-2.66 5.68 -3.32 4.36 -4 3 C-3.01 3 -2.02 3 -1 3 C-0.67 2.01 -0.34 1.02 0 0 Z " fill="#8F53CF" transform="translate(317,188)"/>
<path d="M0 0 C0.66 0 1.32 0 2 0 C1.6875 3.375 1.6875 3.375 1 7 C0.01 7.66 -0.98 8.32 -2 9 C-1.34 6.03 -0.68 3.06 0 0 Z " fill="#A766D6" transform="translate(53,146)"/>
<path d="M0 0 C-5.75 5 -5.75 5 -8 5 C-7.8125 3.125 -7.8125 3.125 -7 1 C-2.66666667 -1.33333333 -2.66666667 -1.33333333 0 0 Z " fill="#8416E2" transform="translate(90,10)"/>
<path d="M0 0 C1.32 0 2.64 0 4 0 C4 0.66 4 1.32 4 2 C4.66 2 5.32 2 6 2 C6.33 3.32 6.66 4.64 7 6 C3.63279613 4.60667426 2.0140476 3.0210714 0 0 Z " fill="#9656CF" transform="translate(29,251)"/>
<path d="M0 0 C2.31 0.66 4.62 1.32 7 2 C7 2.66 7 3.32 7 4 C4.36 3.67 1.72 3.34 -1 3 C-0.67 2.01 -0.34 1.02 0 0 Z " fill="#903FCB" transform="translate(1,235)"/>
<path d="M0 0 C0.66 0 1.32 0 2 0 C2.33 1.98 2.66 3.96 3 6 C2.01 6.33 1.02 6.66 0 7 C0 4.69 0 2.38 0 0 Z " fill="#8242D6" transform="translate(503,139)"/>
<path d="M0 0 C3.37503669 1.1858237 5.64722731 2.27573689 8 5 C7.01 5.33 6.02 5.66 5 6 C2.3125 4.1875 2.3125 4.1875 0 2 C0 1.34 0 0.68 0 0 Z " fill="#9455D6" transform="translate(466,4)"/>
</svg>
