<?xml version="1.0" encoding="UTF-8"?>
<svg version="1.1" xmlns="http://www.w3.org/2000/svg" width="500" height="500">
<path d="M0 0 C133.98 0 267.96 0 406 0 C405.381907 11.12567393 404.70961006 22.16690382 403.6875 33.25 C403.48830762 35.45149181 403.29030695 37.65308905 403.09233093 39.85469055 C402.95148877 41.42022228 402.81029867 42.98572275 402.66877747 44.55119324 C401.86078431 53.50037317 401.08834126 62.45260454 400.31408691 71.40475464 C398.79660572 88.94322212 397.25228136 106.47916785 395.68490601 124.01324463 C394.82239604 133.66356622 393.96662699 143.31422432 393.15234375 152.96875 C393.08624908 153.75208206 393.02015442 154.53541412 392.95205688 155.34248352 C392.82258701 156.87786659 392.6931411 158.41325168 392.5637207 159.94863892 C392.50144287 160.68746307 392.43916504 161.42628723 392.375 162.1875 C392.28279175 163.28232193 392.28279175 163.28232193 392.1887207 164.39926147 C391.48062545 172.7788219 390.70095346 181.13944911 389.69873047 189.48925781 C388.79219625 197.29794295 388.30354058 205.14025385 387.74975586 212.98022461 C387.22667196 220.27016321 386.5662969 227.52444851 385.75 234.78662109 C385.00878702 241.53426508 384.49759274 248.29300346 384 255.0625 C383.46379264 262.35313965 382.87465193 269.61692344 382 276.875 C381.14429142 284.05079801 380.60590841 291.22749751 380.125 298.4375 C379.30756945 310.6053207 378.21907794 322.73557413 377.0625 334.875 C375.53933483 350.86708135 374.16517145 366.86375719 372.95141602 382.88232422 C372.64497481 386.92246302 372.32696019 390.96146656 372 395 C371.92313965 395.96905273 371.8462793 396.93810547 371.76708984 397.93652344 C371.42076021 401.69257772 371.13122103 403.80316846 369 407 C366.5680367 407.90461169 364.24316317 408.63742421 361.74609375 409.3046875 C361.01238052 409.51054474 360.2786673 409.71640198 359.52272034 409.92849731 C357.16378205 410.58794723 354.80092969 411.23185378 352.4375 411.875 C350.90400272 412.29972059 349.37079601 412.72549183 347.83789062 413.15234375 C345.53361305 413.79377791 343.22913748 414.43436806 340.92347717 415.07081604 C334.24772129 416.91619363 327.60464037 418.8640169 320.96362305 420.83007812 C315.21634823 422.53079436 309.45214888 424.17181859 303.6875 425.8125 C301.25390103 426.5064921 298.82030743 427.20050306 296.38671875 427.89453125 C295.16259277 428.24338379 293.9384668 428.59223633 292.67724609 428.95166016 C286.78405881 430.63173891 280.892073 432.31601847 275 434 C272.66667281 434.66668818 270.33333947 435.33335481 268 436 C266.845 436.33 265.69 436.66 264.5 437 C261 438 257.5 439 254 440 C252.84338867 440.3307251 251.68677734 440.6614502 250.49511719 441.00219727 C248.17862451 441.66352065 245.86157215 442.32288696 243.54394531 442.98022461 C238.0971253 444.5276341 232.65819518 446.09357786 227.2376709 447.73110962 C225.31614683 448.31059434 223.39245473 448.88287412 221.46875 449.45507812 C219.05352459 450.17431805 216.64179108 450.90542909 214.234375 451.65039062 C203.73615427 454.75157493 196.74809922 453.12963138 186.4375 450 C184.3113592 449.36664583 182.18504817 448.7338629 180.05859375 448.1015625 C178.92534668 447.76286133 177.79209961 447.42416016 176.62451172 447.07519531 C172.78698027 445.93680864 168.94374382 444.81998096 165.09765625 443.7109375 C164.43054626 443.51849457 163.76343628 443.32605164 163.07611084 443.1277771 C161.72536964 442.73817387 160.37462094 442.34859665 159.02386475 441.95904541 C149.17127321 439.11579174 139.33139236 436.25329617 129.58203125 433.0703125 C126.67570785 432.2019018 123.79284475 431.44659335 120.84765625 430.73046875 C112.63442438 428.70663258 104.52354128 426.32986276 96.39706421 423.98675537 C76.30570789 418.19087871 76.30570789 418.19087871 56.12939453 412.69995117 C52.30018001 411.67998988 48.66352713 410.50282011 45 409 C43.6101393 408.66192578 42.21426938 408.34719204 40.8125 408.0625 C37 407 37 407 35 404 C34.56858941 401.31566745 34.24658612 398.70235969 34 396 C33.91878906 395.1740332 33.83757812 394.34806641 33.75390625 393.49707031 C32.8435399 383.92771939 32.18614929 374.33715375 31.49609375 364.75 C30.50264493 351.05473679 29.24100177 337.3867702 27.89208984 323.72241211 C27.7627002 322.41151611 27.63331055 321.10062012 27.5 319.75 C27.37061035 318.43974854 27.2412207 317.12949707 27.10791016 315.77954102 C26.1532783 305.95917418 25.38993366 296.13421606 24.69921875 286.29223633 C24.20993296 279.45191904 23.56508832 272.65612527 22.74975586 265.84790039 C21.85314844 258.16231829 21.31921227 250.45182254 20.75 242.73632812 C20.19698861 235.32683959 19.52431078 227.94098141 18.75 220.55175781 C18.05682607 213.83392764 17.51814671 207.10837727 17 200.375 C16.45257443 193.27397079 15.84412526 186.1970221 15 179.125 C13.96672782 170.444101 13.36570183 161.74125213 12.75 153.0222168 C12.23000019 145.77725851 11.57912517 138.56681399 10.76428223 131.3497467 C10.05878999 124.94187102 9.56455733 118.52646783 9.09375 112.09765625 C8.06324138 98.38185582 6.80149994 84.69233067 5.5 71 C4.09595747 56.22887782 2.75178886 41.46077499 1.67175293 26.66186523 C1.34281845 22.20059075 0.98999541 17.7605905 0.44335938 13.3203125 C-0.01016376 8.90095931 0 4.44256298 0 0 Z " fill="#0377BC" transform="translate(47,23)"/>
<path d="M0 0 C71.61 0 143.22 0 217 0 C217 7.95960559 216.88291171 15.78335524 216.4140625 23.7109375 C216.32224701 25.33014099 216.32224701 25.33014099 216.22857666 26.98205566 C216.03100308 30.44658961 215.82828999 33.91079716 215.625 37.375 C215.48703763 39.76187548 215.34918002 42.14875703 215.21142578 44.53564453 C214.46974931 57.3176936 213.7102787 70.09869558 212.875 82.875 C212.76212646 84.62369385 212.76212646 84.62369385 212.64697266 86.40771484 C212.57526855 87.46684082 212.50356445 88.5259668 212.4296875 89.6171875 C212.37022949 90.50003418 212.31077148 91.38288086 212.24951172 92.29248047 C212.07098234 94.22975128 211.815208 96.16051218 211.50927734 98.08178711 C210.81739027 103.40493941 210.63413274 108.71319457 210.421875 114.07421875 C210.31480569 116.57351196 210.20710978 119.07277839 210.09887695 121.57202148 C210.04178985 122.90705324 209.98471196 124.24208539 209.92764282 125.57711792 C208.81674532 151.39847157 207.25764276 177.16564799 205.3125 202.9375 C205.22656837 204.07700418 205.22656837 204.07700418 205.13890076 205.23952866 C204.43995498 214.49411641 203.72742691 223.74760348 203 233 C201.15305542 233.54418579 201.15305542 233.54418579 199.26879883 234.09936523 C187.6642416 237.53788915 176.15573183 241.19572576 164.6875 245.0625 C163.17132243 245.5712571 161.65504628 246.07972051 160.13867188 246.58789062 C157.17445333 247.5815715 154.21090466 248.57721356 151.24780273 249.57421875 C148.48094062 250.50436761 145.71236475 251.42904668 142.94165039 252.34765625 C137.35062711 254.20151636 131.76757361 256.06622273 126.22265625 258.0546875 C125.35962891 258.35890625 124.49660156 258.663125 123.60742188 258.9765625 C121.87909307 259.58671695 120.15521038 260.20958413 118.43554688 260.84375 C117.58154297 261.14023437 116.72753906 261.43671875 115.84765625 261.7421875 C115.10523682 262.0088623 114.36281738 262.27553711 113.59790039 262.55029297 C106.74242465 263.73700346 100.29606374 261.31255226 93.91796875 259.05078125 C93.06431229 258.75568161 92.21065582 258.46058197 91.33113098 258.15653992 C88.6139574 257.21590309 85.90060199 256.26480969 83.1875 255.3125 C79.64063182 254.07564175 76.09220586 252.84332401 72.54296875 251.61328125 C71.22612343 251.15614494 71.22612343 251.15614494 69.88267517 250.68977356 C62.39749391 248.10542685 54.86023067 245.70956799 47.30151367 243.35083008 C41.52715485 241.54670609 35.79380964 239.62339206 30.0625 237.6875 C28.03302475 237.00250427 26.00309584 236.31885072 23.97265625 235.63671875 C23.10906494 235.34498779 22.24547363 235.05325684 21.35571289 234.75268555 C19.24849006 234.07939629 17.14762885 233.52504354 15 233 C14.56165856 227.29806384 14.1351447 221.59539097 13.71826172 215.8918457 C13.5757794 213.96323438 13.43040247 212.0348341 13.28173828 210.10668945 C13.06505901 207.2891219 12.85983413 204.47088473 12.65625 201.65234375 C12.59062866 200.8304808 12.52500732 200.00861786 12.45739746 199.16184998 C11.70588193 188.4118638 12 177.84940547 12 167 C27.51 167 43.02 167 59 167 C60.16071429 189.05357143 60.16071429 189.05357143 60 197 C61.7325 197.3403125 61.7325 197.3403125 63.5 197.6875 C75.33544183 200.32383064 86.64259133 204.50804652 97.8046875 209.171875 C99.23167969 209.73648438 99.23167969 209.73648438 100.6875 210.3125 C101.53699219 210.65925781 102.38648438 211.00601563 103.26171875 211.36328125 C110.41014108 213.0254679 117.61255025 209.6190488 124.3125 207.3125 C125.88970825 206.77882813 125.88970825 206.77882813 127.4987793 206.234375 C130.66776724 205.16178707 133.83416706 204.08186021 137 203 C139.65352692 202.09484637 142.30749898 201.19120547 144.96362305 200.29370117 C146.49523774 199.77615836 148.02543103 199.25438396 149.55395508 198.7277832 C152.49853215 197.73182844 154.86787107 197 158 197 C158 192.38 158 187.76 158 183 C158.99 169.8 159.98 156.6 161 143 C126.35 143 91.7 143 56 143 C55.67 135.08 55.34 127.16 55 119 C54.67 115.7 54.34 112.4 54 109 C54 104.38 54 99.76 54 95 C90.3 95 126.6 95 164 95 C164.66 82.46 165.32 69.92 166 57 C166.33 54.03 166.66 51.06 167 48 C112.88 48 58.76 48 3 48 C1.73998441 41.69992204 1.37337745 35.46505548 0.9375 29.0625 C0.84662109 27.81919922 0.75574219 26.57589844 0.66210938 25.29492188 C0.57638672 24.05419922 0.49066406 22.81347656 0.40234375 21.53515625 C0.32491943 20.425354 0.24749512 19.31555176 0.16772461 18.17211914 C-0.07560348 12.11937717 0 6.05763105 0 0 Z " fill="#FDFEFE" transform="translate(141,119)"/>
<path d="M0 0 C53.79 0 107.58 0 163 0 C163 18 163 18 162 21 C161.87664087 22.3888746 161.79939468 23.78218126 161.75390625 25.17578125 C161.72232422 25.9965918 161.69074219 26.81740234 161.65820312 27.66308594 C161.62662109 28.53739258 161.59503906 29.41169922 161.5625 30.3125 C161.25981987 37.48704509 160.60785766 44.44976397 159.47265625 51.546875 C158.75107921 56.81856178 158.50637852 62.09431595 158.24609375 67.40625 C158 71 158 71 157.5 73.97265625 C156.78994669 78.27180714 156.6569759 82.58481961 156.48242188 86.93164062 C156.24820689 91.67338923 155.69773112 96.3109302 155.02734375 101.01171875 C153.98637761 108.56520279 153.48463832 116.08119274 153.10888672 123.69308472 C151.70749411 151.77474591 151.70749411 151.77474591 149.54052734 162.21334839 C148.04483566 169.57184428 147.52506735 176.84739621 147.16629028 184.33919716 C146.98431107 188.09356524 146.77432344 191.84633429 146.5625 195.59912109 C146.49682579 196.76373037 146.49682579 196.76373037 146.42982483 197.9518671 C145.69488732 210.62324491 144.53349528 223.26321361 143.39550781 235.90356445 C143.0597328 239.63369506 142.73249007 243.36452072 142.407547 247.09560871 C142.14985742 250.04473318 141.88802883 252.99347923 141.62496948 255.94212914 C141.444526 257.97175294 141.26724284 260.00165695 141.09008789 262.03157043 C140.44823673 269.10317929 139.56094269 276.0742505 138.43264771 283.08387756 C137.85423375 286.98249046 137.57607095 290.85071896 137.40234375 294.78515625 C137.36315323 295.53413681 137.32396271 296.28311737 137.28358459 297.05479431 C137.16201773 299.39043268 137.04899919 301.72636125 136.9375 304.0625 C136.82144256 306.43069907 136.7034027 308.79874612 136.58070374 311.16661072 C136.5053634 312.62552227 136.43389313 314.0846406 136.3669281 315.54396057 C136.19988947 318.82617551 135.86500343 321.8339153 135 325 C134.85966422 326.439735 134.75583143 327.88337149 134.68359375 329.328125 C134.64169922 330.12734375 134.59980469 330.9265625 134.55664062 331.75 C134.51732422 332.575 134.47800781 333.4 134.4375 334.25 C134.37272461 335.51070313 134.37272461 335.51070313 134.30664062 336.796875 C134.20091457 338.86440671 134.09998705 340.93218281 134 343 C130.23881218 344.67860419 126.82783866 345.42038278 122.75 345.9375 C118.11492711 346.61075081 113.92122032 347.50464455 109.52734375 349.09375 C106.29483951 350.25285507 103.02680556 351.28744181 99.75 352.3125 C98.74670654 352.62707153 98.74670654 352.62707153 97.72314453 352.94799805 C90.99814193 355.03589659 84.2274521 356.96016597 77.44628906 358.85668945 C73.3538708 360.00822378 69.30421515 361.21357734 65.28125 362.58984375 C61.69979415 363.80371003 58.15226915 364.70366217 54.4375 365.4375 C49.08367244 366.54900116 43.75253494 367.71731388 38.4375 369 C37.77097412 369.1539624 37.10444824 369.3079248 36.41772461 369.46655273 C32.44411467 370.4403926 29.46382115 371.88009647 26 374 C23.09765625 374.87890625 23.09765625 374.87890625 20.0625 375.5625 C16.87701754 376.30539029 13.84335458 377.05422341 10.75 378.125 C8 379 8 379 0 380 C0 361.19 0 342.38 0 323 C30.66858142 312.38395259 30.66858142 312.38395259 44.25 307.875 C45.38293488 307.49846283 45.38293488 307.49846283 46.53875732 307.11431885 C51.69034299 305.40297162 56.84432665 303.69898948 62 302 C63.18432617 301.60941406 64.36865234 301.21882813 65.58886719 300.81640625 C68.59841158 299.82800851 71.61069814 298.84877781 74.625 297.875 C75.86491699 297.46870361 75.86491699 297.46870361 77.12988281 297.05419922 C82.68837055 295.27886033 88.26495028 294.05843668 94 293 C93.98660835 292.00604218 93.98660835 292.00604218 93.97294617 290.99200439 C93.92144693 284.17827126 94.23473014 277.46239177 94.76953125 270.671875 C94.93683696 268.43411152 95.10372825 266.19631703 95.27026367 263.95849609 C95.3587558 262.78502625 95.44724792 261.6115564 95.53842163 260.40252686 C97.44459477 234.99976124 98.85201991 209.59855151 99.95987701 184.1497364 C100.04636802 182.16752505 100.13414805 180.18537008 100.22195435 178.20321655 C100.32850523 175.783136 100.43189079 173.3629131 100.53146362 170.9425354 C100.76739833 165.55236576 101.23177874 160.34207015 102 155 C102.36508821 150.30336216 102.63065432 145.60128178 102.90234375 140.8984375 C102.98551237 139.49816175 103.0689792 138.09790369 103.15272522 136.69766235 C103.37305238 133.0034584 103.59016341 129.3090732 103.80633545 125.61462402 C104.14781713 119.78385218 104.49335966 113.95332283 104.84045601 108.12288284 C104.95804046 106.13826499 105.07367693 104.153532 105.18919373 102.16879272 C106.02126208 88.10376221 107.03042052 74.0589025 108 60 C72.36 60 36.72 60 0 60 C0 40.2 0 20.4 0 0 Z " fill="#039AE5" transform="translate(250,59)"/>
<path d="M0 0 C15.51 0 31.02 0 47 0 C48.16071429 22.05357143 48.16071429 22.05357143 48 30 C49.7325 30.3403125 49.7325 30.3403125 51.5 30.6875 C60.50851968 32.69413708 69.52218037 35.48675815 78.0625 39 C84.59080834 41.64437806 91.31790522 43.77263507 98 46 C97.67 61.84 97.34 77.68 97 94 C99.64 93.67 102.28 93.34 105 93 C101.08935472 95.60709686 97.64479993 96.49653586 92.92941284 95.61126709 C90.60845474 94.95809746 88.33822997 94.21499613 86.05859375 93.4296875 C85.21386002 93.15158234 84.36912628 92.87347717 83.49879456 92.58694458 C80.80686147 91.69680204 78.12238681 90.78614647 75.4375 89.875 C73.66124766 89.2851306 71.88455782 88.69657694 70.10742188 88.109375 C62.48823501 85.58098583 54.89846101 82.98366836 47.34765625 80.2578125 C42.76924824 78.60525301 38.18363621 77.10984268 33.51074219 75.75097656 C28.50766957 74.25453049 23.57241346 72.54452271 18.625 70.875 C16.51349535 70.16265442 14.40153451 69.45165923 12.2890625 68.7421875 C10.90775146 68.27594971 10.90775146 68.27594971 9.49853516 67.80029297 C7.34209949 67.10957613 5.19813271 66.53644494 3 66 C2.56165856 60.29806384 2.1351447 54.59539097 1.71826172 48.8918457 C1.5757794 46.96323438 1.43040247 45.0348341 1.28173828 43.10668945 C1.06505901 40.2891219 0.85983413 37.47088473 0.65625 34.65234375 C0.59062866 33.8304808 0.52500732 33.00861786 0.45739746 32.16184998 C-0.29411807 21.4118638 0 10.84940547 0 0 Z " fill="#EBEDED" transform="translate(153,286)"/>
<path d="M0 0 C71.61 0 143.22 0 217 0 C217 7.15247605 216.97738403 14.14084861 216.5 21.25 C216.45230469 22.00667969 216.40460938 22.76335937 216.35546875 23.54296875 C216.2403279 25.36219421 216.12068307 27.18113379 216 29 C215.67 29 215.34 29 215 29 C214.97272322 26.02076997 214.95302872 23.04179621 214.9375 20.0625 C214.92912109 19.23169922 214.92074219 18.40089844 214.91210938 17.54492188 C214.90888672 16.71669922 214.90566406 15.88847656 214.90234375 15.03515625 C214.89710693 14.2862915 214.89187012 13.53742676 214.88647461 12.76586914 C215.048035 8.82970209 215.56495707 4.91538638 216 1 C180.69 1 145.38 1 109 1 C109 16.18 109 31.36 109 47 C128.14 47 147.28 47 167 47 C167 47.33 167 47.66 167 48 C112.88 48 58.76 48 3 48 C1.73998441 41.69992204 1.37337745 35.46505548 0.9375 29.0625 C0.84662109 27.81919922 0.75574219 26.57589844 0.66210938 25.29492188 C0.57638672 24.05419922 0.49066406 22.81347656 0.40234375 21.53515625 C0.32491943 20.425354 0.24749512 19.31555176 0.16772461 18.17211914 C-0.07560348 12.11937717 0 6.05763105 0 0 Z " fill="#E6ECEE" transform="translate(141,119)"/>
<path d="M0 0 C17.16 0 34.32 0 52 0 C52 18.38835175 52 18.38835175 51.34375 25.875 C51.27716187 26.69581055 51.21057373 27.51662109 51.14196777 28.36230469 C50.93402779 30.90874722 50.71724165 33.4543361 50.5 36 C50.35487251 37.75776337 50.21033811 39.51557582 50.06640625 41.2734375 C49.71774321 45.51621943 49.36116226 49.75826454 49 54 C48.00782471 54.3297583 47.01564941 54.6595166 45.9934082 54.99926758 C37.78789779 57.72135889 37.78789779 57.72135889 29.60546875 60.51171875 C23.63006684 62.56725701 17.77634787 64.48006057 11.5390625 65.54296875 C7.66867872 66.23963783 3.8389378 67.14690271 0 68 C0 45.56 0 23.12 0 0 Z " fill="#039AE5" transform="translate(250,262)"/>
<path d="M0 0 C0.33 0 0.66 0 1 0 C1.14163253 8.79695351 0.77011723 17.528643 0.20043945 26.30249023 C0.06114212 28.4585171 -0.07036074 30.61492769 -0.20117188 32.77148438 C-0.28860352 34.15888317 -0.37647784 35.54625415 -0.46484375 36.93359375 C-0.543396 38.17165771 -0.62194824 39.40972168 -0.70288086 40.68530273 C-1 44 -1 44 -2 49 C-20.48 49 -38.96 49 -58 49 C-58 63.85 -58 78.7 -58 94 C-40.84 94 -23.68 94 -6 94 C-6 94.33 -6 94.66 -6 95 C-40.65 95 -75.3 95 -111 95 C-111.33 87.08 -111.66 79.16 -112 71 C-112.33 67.7 -112.66 64.4 -113 61 C-113 56.38 -113 51.76 -113 47 C-76.7 47 -40.4 47 -3 47 C-2.34 34.46 -1.68 21.92 -1 9 C-0.67 6.03 -0.34 3.06 0 0 Z " fill="#ECEDED" transform="translate(308,167)"/>
<path d="M0 0 C19.14 0 38.28 0 58 0 C56.47368421 38.15789474 56.47368421 38.15789474 55 47 C36.85 47 18.7 47 0 47 C0 31.49 0 15.98 0 0 Z " fill="#039AE5" transform="translate(250,167)"/>
<path d="M0 0 C14.32494426 -0.0233302 28.64988559 -0.04091336 42.97484493 -0.05181217 C49.6257353 -0.05704174 56.27660786 -0.06414072 62.92749023 -0.07543945 C69.34002877 -0.08626571 75.75255504 -0.09227628 82.16510201 -0.09487724 C84.61764278 -0.09673197 87.07018285 -0.10035347 89.52271843 -0.10573006 C92.94476677 -0.11293702 96.36676371 -0.11399109 99.78881836 -0.11352539 C100.81380432 -0.11712067 101.83879028 -0.12071594 102.89483643 -0.12442017 C103.82176804 -0.1230455 104.74869965 -0.12167084 105.70372009 -0.12025452 C106.51397613 -0.12117631 107.32423216 -0.1220981 108.1590414 -0.12304783 C110 0 110 0 111 1 C110.99480537 2.73173465 110.91197145 4.4632371 110.80078125 6.19140625 C110.6915332 7.91097534 110.6915332 7.91097534 110.58007812 9.6652832 C110.49177734 10.95136475 110.40347656 12.23744629 110.3125 13.5625 C110.22197173 14.94034611 110.13147803 16.31819449 110.04101562 17.69604492 C109.47343041 26.13458183 108.79228273 34.56012234 108.04296875 42.984375 C106.1046791 64.87596616 104.58312359 86.69037229 103.82913208 108.65719604 C103.30911945 123.75692515 102.46247661 138.78427641 101.23660278 153.84280396 C100.25606322 165.89487129 99.57696777 177.90567897 99.29077148 189.99560547 C99.26442627 191.0476416 99.23808105 192.09967773 99.2109375 193.18359375 C99.18459229 194.55342407 99.18459229 194.55342407 99.15771484 195.95092773 C99 198 99 198 98 199 C97.86544302 201.22009557 97.79629495 203.44420322 97.75390625 205.66796875 C97.72094108 207.0501359 97.68772992 208.43229721 97.65429688 209.81445312 C97.60706945 211.9954791 97.56269949 214.17648607 97.52319336 216.35766602 C97.48319359 218.46136627 97.43169059 220.56455568 97.37890625 222.66796875 C97.3538501 223.92891357 97.32879395 225.1898584 97.30297852 226.48901367 C96.99689486 230.0359831 96.48936792 232.76580816 95 236 C93.20336914 237.21606445 93.20336914 237.21606445 91.03515625 237.86328125 C90.23956299 238.10997559 89.44396973 238.35666992 88.62426758 238.61083984 C87.77888428 238.8423877 86.93350098 239.07393555 86.0625 239.3125 C85.20744873 239.56467285 84.35239746 239.8168457 83.47143555 240.07666016 C77.36275362 241.80911957 71.37448025 242.97135065 65 243 C67.8580365 241.09464233 69.96988782 240.26263825 73.21875 239.2734375 C74.23324219 238.9640625 75.24773437 238.6546875 76.29296875 238.3359375 C77.35128906 238.01882813 78.40960938 237.70171875 79.5 237.375 C80.55832031 237.05015625 81.61664063 236.7253125 82.70703125 236.390625 C90.61216518 234 90.61216518 234 94 234 C93.98660835 233.00604218 93.98660835 233.00604218 93.97294617 231.99200439 C93.92144693 225.17827126 94.23473014 218.46239177 94.76953125 211.671875 C94.93683696 209.43411152 95.10372825 207.19631703 95.27026367 204.95849609 C95.3587558 203.78502625 95.44724792 202.6115564 95.53842163 201.40252686 C97.44459477 175.99976124 98.85201991 150.59855151 99.95987701 125.1497364 C100.04636802 123.16752505 100.13414805 121.18537008 100.22195435 119.20321655 C100.32850523 116.783136 100.43189079 114.3629131 100.53146362 111.9425354 C100.76739833 106.55236576 101.23177874 101.34207015 102 96 C102.36508821 91.30336216 102.63065432 86.60128178 102.90234375 81.8984375 C102.98551237 80.49816175 103.0689792 79.09790369 103.15272522 77.69766235 C103.37305238 74.0034584 103.59016341 70.3090732 103.80633545 66.61462402 C104.14781713 60.78385218 104.49335966 54.95332283 104.84045601 49.12288284 C104.95804046 47.13826499 105.07367693 45.153532 105.18919373 43.16879272 C106.02126208 29.10376221 107.03042052 15.0589025 108 1 C72.36 1 36.72 1 0 1 C0 0.67 0 0.34 0 0 Z " fill="#339DCF" transform="translate(250,118)"/>
<path d="M0 0 C0.33 0 0.66 0 1 0 C1.14163253 8.79695351 0.77011723 17.528643 0.20043945 26.30249023 C0.06114212 28.4585171 -0.07036074 30.61492769 -0.20117188 32.77148438 C-0.28860352 34.15888317 -0.37647784 35.54625415 -0.46484375 36.93359375 C-0.543396 38.17165771 -0.62194824 39.40972168 -0.70288086 40.68530273 C-0.95852878 43.53734198 -1.41290082 46.20391479 -2 49 C-3.14877121 49.01030746 -4.29754242 49.02061493 -5.48112488 49.03123474 C-16.35235466 49.12935322 -27.22353208 49.23212029 -38.09467602 49.33933926 C-43.68248362 49.39430348 -49.27029663 49.44767834 -54.8581543 49.49731445 C-60.25930722 49.54535235 -65.66040326 49.59770428 -71.0614872 49.65294075 C-73.11334106 49.67318728 -75.16521041 49.69192729 -77.21709251 49.70907402 C-80.10987261 49.73351539 -83.00254925 49.76350799 -85.89526367 49.79467773 C-86.72749451 49.8004332 -87.55972534 49.80618866 -88.41717529 49.81211853 C-95.34535645 49.89596944 -102.04267985 50.46482153 -109 51 C-109 64.86 -109 78.72 -109 93 C-104.4934375 92.9896875 -99.986875 92.979375 -95.34375 92.96875 C-77.52291038 92.95390858 -59.70821623 93.18956054 -41.88983154 93.46356201 C-37.81850728 93.52563788 -33.74714254 93.58494215 -29.67578125 93.64453125 C-21.7838139 93.7604221 -13.89189384 93.8791958 -6 94 C-6 94.33 -6 94.66 -6 95 C-40.65 95 -75.3 95 -111 95 C-111.33 87.08 -111.66 79.16 -112 71 C-112.33 67.7 -112.66 64.4 -113 61 C-113 56.38 -113 51.76 -113 47 C-76.7 47 -40.4 47 -3 47 C-2.34 34.46 -1.68 21.92 -1 9 C-0.67 6.03 -0.34 3.06 0 0 Z " fill="#BEE6F6" transform="translate(308,167)"/>
<path d="M0 0 C1.36721695 0.01055923 1.36721695 0.01055923 2.76205444 0.02133179 C3.76474365 0.0342778 4.76743286 0.04722382 5.80050659 0.06056213 C6.85418427 0.07016968 7.90786194 0.07977722 8.99346924 0.0896759 C12.48894756 0.12275308 15.98430428 0.1630522 19.47970581 0.2033844 C21.89822964 0.22767699 24.31675801 0.25152097 26.73529053 0.27493286 C33.11071944 0.33785942 39.48606822 0.40690175 45.86141968 0.47718811 C52.36305075 0.54779424 58.86473878 0.61265737 65.36642456 0.67799377 C78.13080978 0.80711657 90.89512069 0.94250096 103.65939331 1.08229065 C103.65939331 1.74229065 103.65939331 2.40229065 103.65939331 3.08229065 C67.68939331 3.08229065 31.71939331 3.08229065 -5.34060669 3.08229065 C-4.35060669 17.27229065 -3.36060669 31.46229065 -2.34060669 46.08229065 C-2.34060669 47.73229065 -2.34060669 49.38229065 -2.34060669 51.08229065 C32.63939331 51.08229065 67.61939331 51.08229065 103.65939331 51.08229065 C103.65939331 51.41229065 103.65939331 51.74229065 103.65939331 52.08229065 C68.34939331 52.08229065 33.03939331 52.08229065 -3.34060669 52.08229065 C-3.67060669 50.76229065 -4.00060669 49.44229065 -4.34060669 48.08229065 C-5.33060669 48.57729065 -5.33060669 48.57729065 -6.34060669 49.08229065 C-6.34060669 33.24229065 -6.34060669 17.40229065 -6.34060669 1.08229065 C-3.98245379 -0.0967858 -2.62732258 -0.02743144 0 0 Z " fill="#1E76AB" transform="translate(146.34060668945313,115.91770935058594)"/>
<path d="M0 0 C19.14 0 38.28 0 58 0 C56.47368421 38.15789474 56.47368421 38.15789474 55 47 C36.85 47 18.7 47 0 47 C0 46.67 0 46.34 0 46 C17.82 46 35.64 46 54 46 C54 41.38 54 36.76 54 32 C54.05587466 29.35635568 54.12520736 26.71289212 54.21875 24.0703125 C54.2796582 22.29551514 54.2796582 22.29551514 54.34179688 20.48486328 C54.39400391 19.0461084 54.44621094 17.60735352 54.5 16.125 C54.665 11.46375 54.83 6.8025 55 2 C37.84 2 20.68 2 3 2 C2.34 4.64 1.68 7.28 1 10 C0.67 10 0.34 10 0 10 C0 6.7 0 3.4 0 0 Z " fill="#2297CF" transform="translate(250,167)"/>
<path d="M0 0 C15.51 0 31.02 0 47 0 C48.16071429 22.05357143 48.16071429 22.05357143 48 30 C45.32151454 27.32151454 45.69495994 25.86029139 45.5859375 22.1171875 C45.55032715 21.06644043 45.5147168 20.01569336 45.47802734 18.93310547 C45.44402832 17.59393066 45.4100293 16.25475586 45.375 14.875 C45.25125 10.62625 45.1275 6.3775 45 2 C23.22 1.505 23.22 1.505 1 1 C2.3829906 20.09755436 2.3829906 20.09755436 5 31 C5.16357422 34.7121582 5.16357422 34.7121582 5.0546875 38.30078125 C5.03019531 39.60724609 5.00570312 40.91371094 4.98046875 42.25976562 C4.93061474 44.29859724 4.87420961 46.33687234 4.80810547 48.37524414 C4.7476989 50.3708014 4.71333667 52.36709352 4.6796875 54.36328125 C4.64601074 55.54188721 4.61233398 56.72049316 4.57763672 57.93481445 C5.09065011 61.65786828 6.0483601 62.75320453 9 65 C12.01688359 66.11477169 12.01688359 66.11477169 15.25 66.75 C16.86648437 67.11351562 16.86648437 67.11351562 18.515625 67.484375 C19.33546875 67.65453125 20.1553125 67.8246875 21 68 C20.67 68.66 20.34 69.32 20 70 C15.73534453 69.53645049 11.84797853 68.71853047 7.7421875 67.45703125 C6.40583252 67.04868042 6.40583252 67.04868042 5.04248047 66.63208008 C4.36846191 66.42349365 3.69444336 66.21490723 3 66 C2.56165856 60.29806384 2.1351447 54.59539097 1.71826172 48.8918457 C1.5757794 46.96323438 1.43040247 45.0348341 1.28173828 43.10668945 C1.06505901 40.2891219 0.85983413 37.47088473 0.65625 34.65234375 C0.59062866 33.8304808 0.52500732 33.00861786 0.45739746 32.16184998 C-0.29411807 21.4118638 0 10.84940547 0 0 Z " fill="#D0EDFA" transform="translate(153,286)"/>
<path d="M0 0 C0.33 0 0.66 0 1 0 C1.05534912 0.69037354 1.11069824 1.38074707 1.16772461 2.09204102 C1.42209536 5.24904414 1.6797704 8.40576938 1.9375 11.5625 C2.02451172 12.64853516 2.11152344 13.73457031 2.20117188 14.85351562 C2.55067455 19.1122705 2.89888945 23.33252382 3.5390625 27.55859375 C4.20458039 32.527418 4.28408952 37.49277618 4.4375 42.5 C4.66992053 49.20355012 4.97679451 55.7537257 6.0625 62.375 C7.78156226 73.46613504 7.16529393 84.80960106 7 96 C6.67 96 6.34 96 6 96 C5.89042969 94.69933594 5.78085938 93.39867187 5.66796875 92.05859375 C4.80409907 81.91929577 3.89057024 71.78742476 2.88720703 61.66088867 C1.74821646 50.15679662 0.68037235 38.65302495 -0.1875 27.125 C-0.27128906 26.0328418 -0.35507813 24.94068359 -0.44140625 23.81542969 C-1.60320681 7.81563319 -1.60320681 7.81563319 0 0 Z " fill="#3387B4" transform="translate(72,285)"/>
<path d="M0 0 C1.53971208 0.00502803 3.07942575 0.00958862 4.61914062 0.01367188 C8.35029428 0.02456736 12.08138654 0.04175918 15.8125 0.0625 C15.03801599 17.44235447 13.3978271 34.7417202 11.8125 52.0625 C11.1525 52.0625 10.4925 52.0625 9.8125 52.0625 C9.8125 45.1325 9.8125 38.2025 9.8125 31.0625 C10.4725 31.0625 11.1325 31.0625 11.8125 31.0625 C11.80089844 30.47726563 11.78929687 29.89203125 11.77734375 29.2890625 C11.68107768 20.1300331 12.29998285 11.28780874 12.8125 2.0625 C-0.7175 2.0625 -14.2475 2.0625 -28.1875 2.0625 C-28.1875 1.7325 -28.1875 1.4025 -28.1875 1.0625 C-18.78198238 -0.0677932 -9.45362478 -0.05416086 0 0 Z " fill="#3785B4" transform="translate(437.1875,22.9375)"/>
<path d="M0 0 C1.65 0 3.3 0 5 0 C4.01 0.33 3.02 0.66 2 1 C2.28376192 4.02176257 2.57674991 7.04216139 2.875 10.0625 C2.95363281 10.91005859 3.03226563 11.75761719 3.11328125 12.63085938 C3.5014242 16.4973603 3.94722719 20.15401235 5.09375 23.875 C6.17223857 27.5939261 5.766994 30.24172938 5 34 C5.66 34 6.32 34 7 34 C6.99214478 34.83192871 6.99214478 34.83192871 6.98413086 35.68066406 C6.96328969 38.20376443 6.95031718 40.72684664 6.9375 43.25 C6.92912109 44.12269531 6.92074219 44.99539062 6.91210938 45.89453125 C6.90727539 47.16103516 6.90727539 47.16103516 6.90234375 48.453125 C6.89710693 49.22817383 6.89187012 50.00322266 6.88647461 50.80175781 C6.91995588 52.96274222 6.91995588 52.96274222 7.5 54.8359375 C8.2225241 57.96311211 8.11079597 60.96578333 8.09765625 64.171875 C8.0962413 64.8542926 8.09482635 65.53671021 8.09336853 66.23980713 C8.08779084 68.40991684 8.07524254 70.5799217 8.0625 72.75 C8.05748211 74.22525892 8.05291971 75.70051947 8.04882812 77.17578125 C8.03782875 80.78388798 8.02057953 84.39193375 8 88 C7.67 88 7.34 88 7 88 C2.81717632 42.78044905 2.81717632 42.78044905 1.59619141 25.80517578 C1.289696 21.57138334 0.94514793 17.35728315 0.453125 13.140625 C-0.05866227 8.72688913 -0.07050785 4.44199467 0 0 Z " fill="#2F85B5" transform="translate(47,23)"/>
<path d="M0 0 C17.16 0 34.32 0 52 0 C52 18.38835175 52 18.38835175 51.34375 25.875 C51.27716187 26.69581055 51.21057373 27.51662109 51.14196777 28.36230469 C50.93402779 30.90874722 50.71724165 33.4543361 50.5 36 C50.35487251 37.75776337 50.21033811 39.51557582 50.06640625 41.2734375 C49.71774321 45.51621943 49.36116226 49.75826454 49 54 C46.54285453 54.83698386 44.08441143 55.66972424 41.625 56.5 C40.92632812 56.73847656 40.22765625 56.97695313 39.5078125 57.22265625 C34.2265625 59 34.2265625 59 32 59 C32 58.34 32 57.68 32 57 C41.41002278 52.59225513 41.41002278 52.59225513 46 52 C46.82328947 49.05437986 47.20032064 46.28177057 47.38891602 43.23144531 C47.44970337 42.2777002 47.51049072 41.32395508 47.57312012 40.34130859 C47.63277954 39.34695801 47.69243896 38.35260742 47.75390625 37.328125 C47.81187378 36.40821777 47.86984131 35.48831055 47.92956543 34.54052734 C48.14460633 31.11060386 48.3531667 27.68027656 48.5625 24.25 C49.2740625 12.74125 49.2740625 12.74125 50 1 C33.5 1 17 1 0 1 C0 0.67 0 0.34 0 0 Z " fill="#3EA3D2" transform="translate(250,262)"/>
<path d="M0 0 C0.33 0 0.66 0 1 0 C1.5435627 13.72999104 0.1179095 27.14861682 -1.34695435 40.78665161 C-2.20374055 48.80880301 -2.94372695 56.84173058 -3.6875 64.875 C-3.81998049 66.29826664 -3.95254652 67.72152533 -4.08520508 69.14477539 C-4.39103857 72.42976758 -4.69598737 75.71483889 -5 79 C-5.33 79 -5.66 79 -6 79 C-6.5175086 62.15221987 -5.06481591 45.61440395 -3.38476562 28.87744141 C-3.03685237 25.37137645 -2.70771004 21.86443533 -2.390625 18.35546875 C-2.30216309 17.38351562 -2.21370117 16.4115625 -2.12255859 15.41015625 C-1.96285685 13.6537521 -1.80424701 11.89724817 -1.64697266 10.140625 C-1.32138229 6.66961218 -0.90424579 3.36549271 0 0 Z " fill="#4A91B8" transform="translate(426,311)"/>
<path d="M0 0 C0.33 0 0.66 0 1 0 C3.13050583 5.96541633 3.42869131 11.78074983 3.75390625 18.0859375 C3.67518653 20.89021821 3.67518653 20.89021821 5 22 C5.25343807 24.59070023 5.43249797 27.15182801 5.5625 29.75 C5.6049585 30.56315674 5.64741699 31.37631348 5.69116211 32.21411133 C6.26415674 44.79808802 6.08465819 57.40676882 6 70 C5.67 70 5.34 70 5 70 C4.9498877 69.33693848 4.89977539 68.67387695 4.84814453 67.99072266 C3.65228581 52.03260847 3.65228581 52.03260847 1.9375 36.125 C0.46245661 24.1481033 0.33006734 12.05148314 0 0 Z " fill="#3388B4" transform="translate(60,166)"/>
<path d="M0 0 C0.33 0 0.66 0 1 0 C1.35245721 3.49832525 1.67774785 6.99877392 2 10.5 C2.09539062 11.44359375 2.19078125 12.3871875 2.2890625 13.359375 C3.33349391 24.99732505 3 36.14772059 3 48 C20.49 48 37.98 48 56 48 C56 48.33 56 48.66 56 49 C48.32788798 49.02526605 40.6557866 49.04283123 32.98364258 49.05493164 C30.37133381 49.05997377 27.75902789 49.06680725 25.14672852 49.07543945 C21.40119732 49.08751036 17.65570328 49.09322935 13.91015625 49.09765625 C12.73413345 49.10281754 11.55811066 49.10797882 10.34645081 49.11329651 C9.26540573 49.11337204 8.18436066 49.11344757 7.07055664 49.11352539 C6.11347305 49.115746 5.15638947 49.11796661 4.17030334 49.12025452 C2 49 2 49 1 48 C0.84144642 46.58828868 0.7486833 45.16909529 0.68359375 43.75 C0.64161865 42.84258057 0.59964355 41.93516113 0.55639648 41.00024414 C0.51716064 40.01016357 0.4779248 39.02008301 0.4375 38 C0.3950415 36.9886499 0.35258301 35.9772998 0.30883789 34.93530273 C-0.13414394 23.29210011 -0.09578903 11.64941952 0 0 Z " fill="#287DB0" transform="translate(194,214)"/>
<path d="M0 0 C0.33 0 0.66 0 1 0 C0.66083231 14.20381825 -0.21572664 28.23345873 -1.83642578 42.34960938 C-3.25954066 54.87302029 -4.15940903 67.4258457 -5 80 C-5.33 80 -5.66 80 -6 80 C-6.10739503 69.73688997 -5.83337416 59.55901653 -5.1875 49.3125 C-5.14464874 48.61242828 -5.10179749 47.91235657 -5.05764771 47.19107056 C-2.76192312 10.05823686 -2.76192312 10.05823686 0 0 Z " fill="#5298BD" transform="translate(443,121)"/>
<path d="M0 0 C15.84 0 31.68 0 48 0 C49.34567289 2.69134577 49.32216992 5.02715974 49.53515625 8.03125 C49.66567383 9.83529297 49.66567383 9.83529297 49.79882812 11.67578125 C49.9293457 13.56876953 49.9293457 13.56876953 50.0625 15.5 C50.15337891 16.76199219 50.24425781 18.02398437 50.33789062 19.32421875 C51 28.61366306 51 28.61366306 51 31 C52.32 31.66 53.64 32.32 55 33 C52.69 32.67 50.38 32.34 48 32 C46.66526869 21.60816338 47 11.59120819 47 1 C31.49 1 15.98 1 0 1 C0 0.67 0 0.34 0 0 Z " fill="#1473AB" transform="translate(153,284)"/>
<path d="M0 0 C0.33 0 0.66 0 1 0 C1.11740197 6.92613399 0.78711925 13.70883094 0.125 20.6015625 C0.03621582 21.564039 -0.05256836 22.5265155 -0.14404297 23.51815796 C-0.42508314 26.55418827 -0.71242901 29.58958206 -1 32.625 C-1.19312781 34.69917973 -1.38584 36.77339821 -1.578125 38.84765625 C-2.04728406 43.89889771 -2.52209429 48.94957888 -3 54 C-3.33 54 -3.66 54 -4 54 C-5.07403832 49.64417794 -5.14952163 45.39634885 -5.125 40.9375 C-5.12886719 40.23044922 -5.13273437 39.52339844 -5.13671875 38.79492188 C-5.12675964 33.49169429 -5.12675964 33.49169429 -4.49780273 31.05200195 C-3.94662714 28.77999072 -3.88656046 26.78905159 -3.90234375 24.453125 C-3.90556641 23.60878906 -3.90878906 22.76445312 -3.91210938 21.89453125 C-3.92048828 21.02183594 -3.92886719 20.14914063 -3.9375 19.25 C-3.94201172 18.36183594 -3.94652344 17.47367188 -3.95117188 16.55859375 C-3.962926 14.37232671 -3.97935751 12.18619821 -4 10 C-3.01 9.67 -2.02 9.34 -1 9 C-0.67 6.03 -0.34 3.06 0 0 Z " fill="#3D8BB9" transform="translate(436,201)"/>
<path d="M0 0 C0.99 0.33 1.98 0.66 3 1 C3 1.99 3 2.98 3 4 C37.65 4 72.3 4 108 4 C108 4.33 108 4.66 108 5 C72.36 5 36.72 5 0 5 C0 3.35 0 1.7 0 0 Z " fill="#1093D6" transform="translate(250,113)"/>
<path d="M0 0 C0.33 0 0.66 0 1 0 C1.02473064 4.21752518 1.04287453 8.43501186 1.05493164 12.65258789 C1.05995842 14.08716568 1.06678079 15.52173836 1.07543945 16.95629883 C1.08757752 19.01905582 1.09324486 21.08174504 1.09765625 23.14453125 C1.10551147 25.00621948 1.10551147 25.00621948 1.11352539 26.90551758 C1 30 1 30 0 33 C-0.10166116 34.59158327 -0.15464648 36.18656332 -0.17578125 37.78125 C-0.19962891 38.70550781 -0.22347656 39.62976563 -0.24804688 40.58203125 C-0.29101069 42.5271203 -0.32226409 44.47250332 -0.34179688 46.41796875 C-0.36951172 47.34222656 -0.39722656 48.26648438 -0.42578125 49.21875 C-0.44036377 50.06373047 -0.45494629 50.90871094 -0.4699707 51.77929688 C-1 54 -1 54 -2.89526367 55.72460938 C-8.12091713 58.89115776 -11.99492634 59.20356182 -18 59 C-13.37795091 56.49639008 -8.30049345 54 -3 54 C-3.01740234 53.23155762 -3.03480469 52.46311523 -3.05273438 51.67138672 C-3.18562465 40.76330973 -2.36903101 29.99080387 -1.5 19.125 C-1.35497656 17.26175699 -1.210442 15.39847587 -1.06640625 13.53515625 C-0.71656073 9.02297911 -0.36014305 4.51136642 0 0 Z " fill="#CFF4FC" transform="translate(302,262)"/>
<path d="M0 0 C0.33 0 0.66 0 1 0 C1.20891639 12.79612897 0.59883707 25.37898161 -0.5 38.125 C-0.64520583 39.87364203 -0.78973991 41.62233998 -0.93359375 43.37109375 C-1.28136774 47.58141026 -1.63806303 51.79087835 -2 56 C-4.97 56.495 -4.97 56.495 -8 57 C-8 56.34 -8 55.68 -8 55 C-6.35 55 -4.7 55 -3 55 C-3.00523682 54.10168457 -3.01047363 53.20336914 -3.01586914 52.27783203 C-3.03289725 48.94937501 -3.04544337 45.62096419 -3.05493164 42.29248047 C-3.05996474 40.8510668 -3.06679173 39.40965824 -3.07543945 37.96826172 C-3.08754983 35.89809915 -3.09323847 33.82800399 -3.09765625 31.7578125 C-3.10289307 30.5114502 -3.10812988 29.26508789 -3.11352539 27.98095703 C-3 25 -3 25 -2 23 C-1.85950588 21.34575414 -1.77430036 19.68661532 -1.71875 18.02734375 C-1.68136719 17.04572266 -1.64398438 16.06410156 -1.60546875 15.05273438 C-1.53502415 12.97200968 -1.46471215 10.89128048 -1.39453125 8.81054688 C-1.35714844 7.83021484 -1.31976563 6.84988281 -1.28125 5.83984375 C-1.25095703 4.93613037 -1.22066406 4.03241699 -1.18945312 3.10131836 C-1 1 -1 1 0 0 Z " fill="#CFF4FD" transform="translate(346,296)"/>
<path d="M0 0 C7.07193592 0.64290327 13.4589027 2.1220697 19.76953125 5.46875 C23.48232063 7.22862115 27.07796327 8.19490272 31.0625 9.125 C31.75666016 9.29386719 32.45082031 9.46273438 33.16601562 9.63671875 C35.10738572 10.10500745 37.0535836 10.55314949 39 11 C39.88429687 11.23460937 40.76859375 11.46921875 41.6796875 11.7109375 C44.54707163 12.06815371 46.35546826 11.47068217 49.0625 10.5 C52.51289492 9.26657685 54.49717511 8.77037094 58 10 C55.81877494 10.87430519 53.63250158 11.72408501 51.4375 12.5625 C49.61025391 13.27599609 49.61025391 13.27599609 47.74609375 14.00390625 C40.72701654 15.87029279 34.63462824 13.40704495 28 11.125 C27.23171875 10.86847656 26.4634375 10.61195313 25.671875 10.34765625 C22.14340372 9.15349675 18.68126804 7.89976091 15.26953125 6.40234375 C11.61420344 4.83452692 7.96648002 3.78417605 4.13671875 2.74609375 C2 2 2 2 0 0 Z " fill="#2E87B7" transform="translate(208,317)"/>
<path d="M0 0 C1.53971208 0.00502803 3.07942575 0.00958862 4.61914062 0.01367188 C8.35029428 0.02456736 12.08138654 0.04175918 15.8125 0.0625 C15.8125 2.7025 15.8125 5.3425 15.8125 8.0625 C15.1525 8.3925 14.4925 8.7225 13.8125 9.0625 C13.3175 6.0925 13.3175 6.0925 12.8125 3.0625 C-7.4825 2.5675 -7.4825 2.5675 -28.1875 2.0625 C-28.1875 1.7325 -28.1875 1.4025 -28.1875 1.0625 C-18.78198238 -0.0677932 -9.45362478 -0.05416086 0 0 Z " fill="#5698BF" transform="translate(437.1875,22.9375)"/>
<path d="M0 0 C0.33 0 0.66 0 1 0 C1 8.91 1 17.82 1 27 C1.66 27 2.32 27 3 27 C3 35.91 3 44.82 3 54 C2.67 54 2.34 54 2 54 C0.6139838 42.95223981 -0.25179323 31.94007215 -0.6875 20.8125 C-0.73575928 19.66740967 -0.78401855 18.52231934 -0.83374023 17.3425293 C-1.03951602 11.42114604 -0.95025704 5.8515828 0 0 Z " fill="#4A95BC" transform="translate(80,373)"/>
<path d="M0 0 C5.99282191 1.5043206 11.82268505 3.24614139 17.625 5.375 C25.63941588 8.30471425 33.79551853 10.66579522 42 13 C42 13.33 42 13.66 42 14 C37.38 14 32.76 14 28 14 C28 12.68 28 11.36 28 10 C27.21625 9.87625 26.4325 9.7525 25.625 9.625 C21.0646674 8.83873576 16.53432907 7.92299584 12 7 C12 6.34 12 5.68 12 5 C9.69 5 7.38 5 5 5 C4.67 4.01 4.34 3.02 4 2 C2.35 2 0.7 2 -1 2 C-0.67 1.34 -0.34 0.68 0 0 Z " fill="#297EB3" transform="translate(164,354)"/>
<path d="M0 0 C0.33 0 0.66 0 1 0 C1.19148936 20.53191489 1.19148936 20.53191489 0 30 C-0.99 30 -1.98 30 -3 30 C-3 30.66 -3 31.32 -3 32 C-11.98409901 35.05481911 -20.41505417 37.77662203 -30 38 C-27.1419635 36.09464233 -25.03011218 35.26263825 -21.78125 34.2734375 C-20.76675781 33.9640625 -19.75226563 33.6546875 -18.70703125 33.3359375 C-17.64871094 33.01882813 -16.59039062 32.70171875 -15.5 32.375 C-13.91251953 31.88773437 -13.91251953 31.88773437 -12.29296875 31.390625 C-4.38783482 29 -4.38783482 29 -1 29 C-1.01160156 28.41476562 -1.02320313 27.82953125 -1.03515625 27.2265625 C-1.13080264 18.12649164 -0.55927288 9.07819735 0 0 Z " fill="#44A9D6" transform="translate(345,323)"/>
<path d="M0 0 C0.33 0 0.66 0 1 0 C1.20638953 25.76376337 1.20638953 25.76376337 0 38 C-2.45714547 38.83698386 -4.91558857 39.66972424 -7.375 40.5 C-8.07367188 40.73847656 -8.77234375 40.97695313 -9.4921875 41.22265625 C-14.7734375 43 -14.7734375 43 -17 43 C-17 42.34 -17 41.68 -17 41 C-7.58997722 36.59225513 -7.58997722 36.59225513 -3 36 C-1.86480253 32.25759075 -1.68519148 28.48862229 -1.46484375 24.609375 C-1.42186661 23.90476135 -1.37888947 23.20014771 -1.33460999 22.47418213 C-1.19871902 20.23298352 -1.06803874 17.99151609 -0.9375 15.75 C-0.84604719 14.22654181 -0.75425414 12.703104 -0.66210938 11.1796875 C-0.43746393 7.45335305 -0.21748929 3.72675975 0 0 Z " fill="#299ACF" transform="translate(299,278)"/>
<path d="M0 0 C7.46883612 11.20325417 4.18856455 31.23417964 4 44 C3.67 44 3.34 44 3 44 C1.61724431 29.3411795 0.57697518 14.71286708 0 0 Z " fill="#4791BA" transform="translate(75,337)"/>
<path d="M0 0 C4.29 0 8.58 0 13 0 C13 0.33 13 0.66 13 1 C9.00273339 2.15551615 5.00175828 3.29764577 1 4.4375 C-0.68802734 4.92573242 -0.68802734 4.92573242 -2.41015625 5.42382812 C-8.28912924 7.09125614 -13.90780194 8.46991904 -20 9 C-20 8.34 -20 7.68 -20 7 C-14.99869672 4.49934836 -10.81214531 3.57470513 -5.234375 3.2109375 C-2.8301433 3.06874965 -2.8301433 3.06874965 0 2 C0 1.34 0 0.68 0 0 Z " fill="#3A8CB7" transform="translate(292,461)"/>
<path d="M0 0 C6.80753245 -0.45807695 11.57787978 -0.0769465 17.65234375 3.04296875 C21.91516042 4.78072264 26.4419444 4.8296054 31 5 C31 5.99 31 6.98 31 8 C31.66 8.33 32.32 8.66 33 9 C26.35260152 8.46607241 20.55426696 7.13158628 14.25 5 C7.22684993 2.61764087 7.22684993 2.61764087 0 1 C0 0.67 0 0.34 0 0 Z " fill="#4A92BA" transform="translate(209,465)"/>
<path d="M0 0 C0.33 0 0.66 0 1 0 C1.38736547 15.06421272 0.19781188 29.99071632 -1 45 C-1.33 45 -1.66 45 -2 45 C-2.05030772 40.84148622 -2.08613707 36.68314448 -2.10986328 32.52441406 C-2.11977813 31.11650499 -2.13331412 29.70861567 -2.15087891 28.30078125 C-2.26806586 18.65009097 -1.66093203 9.53678334 0 0 Z " fill="#BDECF9" transform="translate(355,151)"/>
<path d="M0 0 C16.5 0 33 0 50 0 C49.67 0.66 49.34 1.32 49 2 C48.44511902 1.99333817 47.89023804 1.98667633 47.31854248 1.97981262 C41.54363804 1.91344502 35.76884193 1.86819359 29.99365234 1.83520508 C27.83833414 1.82011818 25.68304664 1.79964611 23.52783203 1.77368164 C20.42993596 1.73729456 17.33244577 1.72027261 14.234375 1.70703125 C13.27070007 1.69154739 12.30702515 1.67606354 11.31414795 1.66011047 C10.41351624 1.65988388 9.51288452 1.65965729 8.58496094 1.65942383 C7.79442322 1.65276199 7.0038855 1.64610016 6.18939209 1.63923645 C3.46676497 2.08786538 2.06465352 3.21818555 0 5 C0 3.35 0 1.7 0 0 Z " fill="#1096DA" transform="translate(250,263)"/>
<path d="M0 0 C0 0.66 0 1.32 0 2 C2.31 2 4.62 2 7 2 C7 2.66 7 3.32 7 4 C11.99367864 4.7282448 16.99109914 5.38487182 22 6 C21.67 6.99 21.34 7.98 21 9 C11.38443671 7.608547 2.26190729 4.84480623 -7 2 C-7 1.67 -7 1.34 -7 1 C-2.25 0 -2.25 0 0 0 Z " fill="#4691BD" transform="translate(143,443)"/>
<path d="M0 0 C0.66 0.33 1.32 0.66 2 1 C2.05422947 2.4370809 2.09289723 3.87475462 2.125 5.3125 C2.14820313 6.11300781 2.17140625 6.91351563 2.1953125 7.73828125 C2 10 2 10 0 13 C-2.93359375 14.203125 -2.93359375 14.203125 -6.4375 15.25 C-8.16806641 15.78367187 -8.16806641 15.78367187 -9.93359375 16.328125 C-13 17 -13 17 -16 16 C-10.99614939 12.02258028 -7.36946479 11.38602817 -1 11 C-0.67 7.37 -0.34 3.74 0 0 Z " fill="#428EB9" transform="translate(416,417)"/>
<path d="M0 0 C0.33 0 0.66 0 1 0 C0.85970858 4.14604002 0.71175506 8.29177376 0.5625 12.4375 C0.52318359 13.60216797 0.48386719 14.76683594 0.44335938 15.96679688 C0.20922499 22.36046672 -0.19215648 28.65265809 -1 35 C-1.33 35 -1.66 35 -2 35 C-2 25.1 -2 15.2 -2 5 C-1.34 5 -0.68 5 0 5 C0 3.35 0 1.7 0 0 Z " fill="#4990BA" transform="translate(431,256)"/>
<path d="M0 0 C0.33 0 0.66 0 1 0 C3.6753801 7.00444001 3.2222309 14.02925342 3.125 21.4375 C3.11597656 22.74138672 3.10695312 24.04527344 3.09765625 25.38867188 C3.07418397 28.59263832 3.04134727 31.79622264 3 35 C2.67 35 2.34 35 2 35 C1.66082869 30.85462295 1.32973047 26.70863782 1 22.5625 C0.90460937 21.39783203 0.80921875 20.23316406 0.7109375 19.03320312 C0.20861638 12.66448898 -0.1093176 6.38824697 0 0 Z " fill="#509AC1" transform="translate(60,166)"/>
<path d="M0 0 C0.66 0 1.32 0 2 0 C3.18817968 3.73310433 3.11362739 7.27491645 3.09765625 11.171875 C3.09553383 12.1955014 3.09553383 12.1955014 3.09336853 13.23980713 C3.08779084 15.40991684 3.07524254 17.5799217 3.0625 19.75 C3.05748211 21.22525892 3.05291971 22.70051947 3.04882812 24.17578125 C3.03782875 27.78388798 3.02057953 31.39193375 3 35 C2.67 35 2.34 35 2 35 C1.65985722 31.04222159 1.32915088 27.0837065 1 23.125 C0.85691406 21.46210937 0.85691406 21.46210937 0.7109375 19.765625 C0.16678217 13.15802455 -0.13503301 6.62974592 0 0 Z " fill="#539DC3" transform="translate(52,76)"/>
<path d="M0 0 C0.33 0 0.66 0 1 0 C1.33 1.65 1.66 3.3 2 5 C2.33 5 2.66 5 3 5 C3.33 11.6 3.66 18.2 4 25 C5.32 25.66 6.64 26.32 8 27 C5.69 26.67 3.38 26.34 1 26 C-0.01286753 17.30019136 -0.10621544 8.74507107 0 0 Z " fill="#3589B8" transform="translate(200,290)"/>
<path d="M0 0 C0.33 0 0.66 0 1 0 C1.3172599 12.4612638 0.35798878 24.61918735 -1 37 C-1.33 37 -1.66 37 -2 37 C-2 29.08 -2 21.16 -2 13 C-1.34 13 -0.68 13 0 13 C0 8.71 0 4.42 0 0 Z " fill="#609FC2" transform="translate(446,84)"/>
<path d="M0 0 C2.31 0 4.62 0 7 0 C3.45442489 2.36371674 -0.15189721 3.46953218 -4.1875 4.6875 C-4.91775391 4.92533203 -5.64800781 5.16316406 -6.40039062 5.40820312 C-11.68149841 7.00329414 -15.58529515 7.16578891 -21 6 C-21.66 5.34 -22.32 4.68 -23 4 C-21.68 3.67 -20.36 3.34 -19 3 C-19 3.33 -19 3.66 -19 4 C-17.906875 3.855625 -16.81375 3.71125 -15.6875 3.5625 C-10.470742 2.90689307 -5.23765253 2.45251777 0 2 C0 1.34 0 0.68 0 0 Z " fill="#569BBD" transform="translate(265,470)"/>
<path d="M0 0 C3.06192834 3.34799085 3.35882691 5.59977035 3.29296875 10.078125 C3.28330078 11.23828125 3.27363281 12.3984375 3.26367188 13.59375 C3.23853516 14.8003125 3.21339844 16.006875 3.1875 17.25 C3.17396484 18.47203125 3.16042969 19.6940625 3.14648438 20.953125 C3.1111398 23.96919498 3.0617956 26.98437487 3 30 C2.67 30 2.34 30 2 30 C0.75155935 19.96788765 -0.35762486 10.13270429 0 0 Z " fill="#4F97C2" transform="translate(66,236)"/>
<path d="M0 0 C7.10552799 0.40563053 13.69640562 1.51176694 20.56640625 3.37890625 C22.90438045 4.08243002 22.90438045 4.08243002 25 4 C25 4.99 25 5.98 25 7 C23.26969709 6.71515154 21.54079286 6.42180062 19.8125 6.125 C18.84957031 5.96257812 17.88664062 5.80015625 16.89453125 5.6328125 C14.07916109 5.01730647 11.6594317 4.0910489 9 3 C7.40464778 2.58911437 5.80008636 2.21195834 4.1875 1.875 C3.39730469 1.70742188 2.60710937 1.53984375 1.79296875 1.3671875 C0.90544922 1.18542969 0.90544922 1.18542969 0 1 C0 0.67 0 0.34 0 0 Z " fill="#4993BC" transform="translate(164,452)"/>
<path d="M0 0 C0.99 0.33 1.98 0.66 3 1 C2.34 11.23 1.68 21.46 1 32 C0.67 32 0.34 32 0 32 C0 21.44 0 10.88 0 0 Z " fill="#1F96D2" transform="translate(358,118)"/>
<path d="M0 0 C1.65 0 3.3 0 5 0 C4.01 0.33 3.02 0.66 2 1 C2.16371094 1.95003906 2.32742187 2.90007813 2.49609375 3.87890625 C3.16558293 8.56533049 3.10920922 13.21268306 3.0625 17.9375 C3.05798828 18.81212891 3.05347656 19.68675781 3.04882812 20.58789062 C3.03714834 22.72529047 3.01921689 24.86265463 3 27 C2.67 27 2.34 27 2 27 C1.66027199 24.18814406 1.32809788 21.37571764 1 18.5625 C0.90460937 17.77939453 0.80921875 16.99628906 0.7109375 16.18945312 C0.08488869 10.75624381 -0.08759571 5.46925737 0 0 Z " fill="#579BBE" transform="translate(47,23)"/>
<path d="M0 0 C0 0.66 0 1.32 0 2 C-2.31 2.33 -4.62 2.66 -7 3 C-7 3.66 -7 4.32 -7 5 C-8.72681437 5.50806447 -10.45657979 6.00610467 -12.1875 6.5 C-13.63189453 6.91765625 -13.63189453 6.91765625 -15.10546875 7.34375 C-17.85345876 7.96677608 -20.19598416 8.12302812 -23 8 C-20.29760047 5.29760047 -17.18175873 4.5725641 -13.625 3.4375 C-12.61566406 3.10588867 -12.61566406 3.10588867 -11.5859375 2.76757812 C-3.09089407 0 -3.09089407 0 0 0 Z " fill="#35A1D6" transform="translate(294,368)"/>
<path d="M0 0 C2.375 -0.125 2.375 -0.125 5 0 C5.66 0.66 6.32 1.32 7 2 C13.40217398 4.09525694 19.30050056 4.22167461 26 4 C22.10559155 6.5962723 18.6283018 7.50130928 13.93408203 6.60595703 C11.7803868 5.993666 9.67545346 5.30290364 7.5625 4.5625 C6.83095703 4.31951172 6.09941406 4.07652344 5.34570312 3.82617188 C3.55932563 3.23071271 1.77898352 2.61719836 0 2 C0 1.34 0 0.68 0 0 Z " fill="#BDE5F5" transform="translate(232,375)"/>
<path d="M0 0 C-3.73352888 4.20463662 -8.83693606 5.74946028 -14.3671875 6.1875 C-16.2458316 6.1875 -18.12414436 6.1023194 -20 6 C-16.63660335 3.75773557 -13.23659448 2.57407253 -9.4375 1.3125 C-8.40979492 0.95575195 -8.40979492 0.95575195 -7.36132812 0.59179688 C-2.24241255 -1.12120628 -2.24241255 -1.12120628 0 0 Z " fill="#329FD1" transform="translate(314,362)"/>
<path d="M0 0 C-3.36339665 2.24226443 -6.76340552 3.42592747 -10.5625 4.6875 C-11.59020508 5.04424805 -11.59020508 5.04424805 -12.63867188 5.40820312 C-14.40652572 5.99980093 -16.20234149 6.5063209 -18 7 C-18.66 6.67 -19.32 6.34 -20 6 C-13.07884955 1.65325878 -8.23887262 -0.81038091 0 0 Z " fill="#D2F7FD" transform="translate(303,364)"/>
<path d="M0 0 C5.45379099 0.33784546 10.56728446 1.74934194 15 5 C11.1280483 6.29065057 8.55767399 5.22324098 4.8125 4.0625 C3.83120117 3.76956055 3.83120117 3.76956055 2.83007812 3.47070312 C1.21772593 2.98817437 -0.39146289 2.49509795 -2 2 C-1.34 1.34 -0.68 0.68 0 0 Z " fill="#4B91B8" transform="translate(121,438)"/>
<path d="M0 0 C0.66 0.33 1.32 0.66 2 1 C2 1.66 2 2.32 2 3 C3.65 3 5.3 3 7 3 C2.13371581 5.62030687 -2.4185702 7.3283194 -8 7 C-8 6.34 -8 5.68 -8 5 C-6.576875 4.87625 -6.576875 4.87625 -5.125 4.75 C-1.89538209 4.34925077 -1.89538209 4.34925077 -0.625 1.9375 C-0.41875 1.298125 -0.2125 0.65875 0 0 Z " fill="#4693BE" transform="translate(350,443)"/>
<path d="M0 0 C0.79664063 0.34933594 1.59328125 0.69867188 2.4140625 1.05859375 C3.47367188 1.51363281 4.53328125 1.96867187 5.625 2.4375 C7.19121094 3.11619141 7.19121094 3.11619141 8.7890625 3.80859375 C11.88685251 4.95801705 14.73210054 5.57311223 18 6 C17.67 6.66 17.34 7.32 17 8 C11.0870696 7.35729017 5.65755469 5.80996216 0 4 C0 2.68 0 1.36 0 0 Z " fill="#C6E7F7" transform="translate(156,348)"/>
<path d="M0 0 C-0.66 0 -1.32 0 -2 0 C-2 0.66 -2 1.32 -2 2 C-7.56069582 4.25433614 -13.0785651 4.59961828 -19 5 C-16.01243632 3.00829088 -13.44575614 1.97092021 -10.0625 0.8125 C-9.02222656 0.44769531 -7.98195313 0.08289063 -6.91015625 -0.29296875 C-4.04543948 -0.98896034 -2.71018643 -1.02529944 0 0 Z " fill="#3BA3D3" transform="translate(334,356)"/>
<path d="M0 0 C1.41791408 0.45445964 2.83428046 0.91374944 4.25 1.375 C5.43335938 1.75785156 5.43335938 1.75785156 6.640625 2.1484375 C8.86627958 2.95173667 10.90931672 3.89711662 13 5 C11.35 5 9.7 5 8 5 C8 5.66 8 6.32 8 7 C6.68 6.67 5.36 6.34 4 6 C4 5.01 4 4.02 4 3 C2.35 2.67 0.7 2.34 -1 2 C-0.67 1.34 -0.34 0.68 0 0 Z " fill="#D1EAF4" transform="translate(238,328)"/>
<path d="M0 0 C11.52164009 3.07517084 11.52164009 3.07517084 17 5 C16.67 5.66 16.34 6.32 16 7 C13.51623494 6.41118927 11.0391414 5.80497632 8.5625 5.1875 C7.85544922 5.02185547 7.14839844 4.85621094 6.41992188 4.68554688 C4.58598132 4.22048061 2.78817399 3.6181087 1 3 C0.67 2.01 0.34 1.02 0 0 Z " fill="#217BAD" transform="translate(233,377)"/>
<path d="M0 0 C3.96 0 7.92 0 12 0 C12 0.33 12 0.66 12 1 C10.27507022 1.53469802 8.544802 2.05219175 6.8125 2.5625 C5.36810547 2.99755859 5.36810547 2.99755859 3.89453125 3.44140625 C0.87247412 4.02461026 -1.05929955 3.81178385 -4 3 C-2.68 2.67 -1.36 2.34 0 2 C0 1.34 0 0.68 0 0 Z " fill="#438EBB" transform="translate(307,457)"/>
<path d="M0 0 C0.33 0 0.66 0 1 0 C3.48063781 13.6332574 3.48063781 13.6332574 2 20 C1.67 20 1.34 20 1 20 C-0.05619003 15.71702469 -0.11702092 11.57014354 -0.0625 7.1875 C-0.05798828 6.49462891 -0.05347656 5.80175781 -0.04882812 5.08789062 C-0.03713156 3.39188932 -0.01919924 1.69593297 0 0 Z " fill="#0B73AB" transform="translate(60,151)"/>
<path d="M0 0 C1.41655793 -0.0272415 2.83327045 -0.04650467 4.25 -0.0625 C5.43335938 -0.07990234 5.43335938 -0.07990234 6.640625 -0.09765625 C8.90691002 -0.00385306 10.8288895 0.36758937 13 1 C13 1.66 13 2.32 13 3 C14.32 3.66 15.64 4.32 17 5 C11.30694567 3.76123355 5.64629987 2.43723997 0 1 C0 0.67 0 0.34 0 0 Z " fill="#5798C3" transform="translate(192,460)"/>
<path d="M0 0 C2.64 0 5.28 0 8 0 C5.8244694 2.1755306 4.44026108 2.71879553 1.5625 3.6875 C0.38880859 4.09548828 0.38880859 4.09548828 -0.80859375 4.51171875 C-3 5 -3 5 -6 4 C-4.7934375 3.566875 -4.7934375 3.566875 -3.5625 3.125 C-0.8673532 2.26737432 -0.8673532 2.26737432 0 0 Z " fill="#269BD0" transform="translate(272,321)"/>
<path d="M0 0 C1.7492214 -0.08142927 3.49954542 -0.13938541 5.25 -0.1875 C6.22453125 -0.22230469 7.1990625 -0.25710938 8.203125 -0.29296875 C11.37468742 0.03924798 12.67040307 0.88672279 15 3 C9.5814234 3.22577402 5.22512279 2.46670113 0 1 C0 0.67 0 0.34 0 0 Z " fill="#3E8AB6" transform="translate(209,465)"/>
<path d="M0 0 C0 0.66 0 1.32 0 2 C-2.75078884 2.91692961 -4.35948913 3.10886083 -7.1875 3.0625 C-9.0746875 3.0315625 -9.0746875 3.0315625 -11 3 C-8.89427904 -1.21144191 -4.11694326 -0.07767817 0 0 Z " fill="#3086B2" transform="translate(395,434)"/>
<path d="M0 0 C-0.66 0 -1.32 0 -2 0 C-2 0.66 -2 1.32 -2 2 C-5.21451269 3.60725635 -8.43612536 3.05748185 -12 3 C-8.61613364 -0.38386636 -4.56431325 -1.75550509 0 0 Z " fill="#CBF2FC" transform="translate(264,329)"/>
<path d="M0 0 C-4.51667907 3.01111938 -7.6639991 3.10067926 -13 3 C-12.67 2.34 -12.34 1.68 -12 1 C-8.01624339 -0.17169312 -4.12560776 -0.08089427 0 0 Z " fill="#4689B7" transform="translate(377,440)"/>
<path d="M0 0 C1.32 0.33 2.64 0.66 4 1 C4.33 2.32 4.66 3.64 5 5 C4.34 5 3.68 5 3 5 C3 4.34 3 3.68 3 3 C0.69 3.33 -1.62 3.66 -4 4 C-4.33 3.34 -4.66 2.68 -5 2 C-3.35 2 -1.7 2 0 2 C0 1.34 0 0.68 0 0 Z " fill="#0A73B2" transform="translate(140,440)"/>
<path d="M0 0 C2 0 2 0 3.625 1.375 C5 3 5 3 5 5 C2.125 5.625 2.125 5.625 -1 6 C-1.66 5.34 -2.32 4.68 -3 4 C-1.68 3.67 -0.36 3.34 1 3 C0.67 2.01 0.34 1.02 0 0 Z " fill="#217CB0" transform="translate(378,434)"/>
<path d="M0 0 C2 2 2 2 2.046875 4.34765625 C1.94890625 5.24355469 1.8509375 6.13945312 1.75 7.0625 C1.61851562 8.41021484 1.61851562 8.41021484 1.484375 9.78515625 C1.32453125 10.51605469 1.1646875 11.24695313 1 12 C0.01 12.495 0.01 12.495 -1 13 C-1.02686553 11.02090602 -1.04633375 9.04171029 -1.0625 7.0625 C-1.07410156 5.96035156 -1.08570313 4.85820312 -1.09765625 3.72265625 C-1 1 -1 1 0 0 Z " fill="#0C96DD" transform="translate(348,316)"/>
<path d="M0 0 C4.29 0.33 8.58 0.66 13 1 C12.67 1.99 12.34 2.98 12 4 C10.5608866 3.71640113 9.12374482 3.42278601 7.6875 3.125 C6.88699219 2.96257812 6.08648437 2.80015625 5.26171875 2.6328125 C3 2 3 2 0 0 Z " fill="#60A2CD" transform="translate(105,435)"/>
<path d="M0 0 C1.2065625 0.0309375 1.2065625 0.0309375 2.4375 0.0625 C-1.02892155 3.24005309 -4.95148294 4.52214644 -9.5625 5.0625 C-11.8125 4.609375 -11.8125 4.609375 -13.5625 4.0625 C-12.85222656 3.85753906 -12.14195312 3.65257812 -11.41015625 3.44140625 C-10.49105469 3.17199219 -9.57195312 2.90257812 -8.625 2.625 C-7.25021484 2.22474609 -7.25021484 2.22474609 -5.84765625 1.81640625 C-0.36926856 0.00900655 -0.36926856 0.00900655 0 0 Z " fill="#048BD4" transform="translate(320.5625,417.9375)"/>
<path d="M0 0 C2.97 0 5.94 0 9 0 C9 0.66 9 1.32 9 2 C9.66 2 10.32 2 11 2 C11 2.66 11 3.32 11 4 C7.37 3.01 3.74 2.02 0 1 C0 0.67 0 0.34 0 0 Z " fill="#BEE4F3" transform="translate(187,361)"/>
<path d="M0 0 C1.27875 0.103125 2.5575 0.20625 3.875 0.3125 C4.95394531 0.39951172 4.95394531 0.39951172 6.0546875 0.48828125 C8 1 8 1 10 4 C6.7 3.67 3.4 3.34 0 3 C0 2.01 0 1.02 0 0 Z " fill="#2175AB" transform="translate(189,457)"/>
<path d="M0 0 C-1.4117783 0.53394179 -2.82970244 1.05165104 -4.25 1.5625 C-5.03890625 1.85253906 -5.8278125 2.14257812 -6.640625 2.44140625 C-9.19103452 3.04522837 -10.55322229 2.8473932 -13 2 C-8.63207758 -0.91194828 -5.00102117 -1.43657843 0 0 Z " fill="#5CA5C1" transform="translate(342,451)"/>
<path d="M0 0 C-2.85478326 1.90318884 -4.41941308 2.4619099 -7.6875 3.125 C-8.49574219 3.29257812 -9.30398438 3.46015625 -10.13671875 3.6328125 C-10.75160156 3.75398438 -11.36648438 3.87515625 -12 4 C-12 3.34 -12 2.68 -12 2 C-7.8794254 0.00214565 -4.54805635 -0.17835515 0 0 Z " fill="#106EA6" transform="translate(363,443)"/>
<path d="M0 0 C-1 1.5 -1 1.5 -3 3 C-5.71846235 3.27345479 -8.25677199 3.13491285 -11 3 C-3.71428571 -1.85714286 -3.71428571 -1.85714286 0 0 Z " fill="#43A7D6" transform="translate(314,362)"/>
<path d="M0 0 C2.97 0 5.94 0 9 0 C9 0.99 9 1.98 9 3 C2.25 2.25 2.25 2.25 0 0 Z " fill="#CCECF7" transform="translate(173,356)"/>
<path d="M0 0 C2.46800047 1.15173355 4.04783565 2.04783565 6 4 C3.03 4 0.06 4 -3 4 C-2.34 3.67 -1.68 3.34 -1 3 C-0.67 2.01 -0.34 1.02 0 0 Z " fill="#0771B1" transform="translate(299,457)"/>
<path d="M0 0 C0 0.66 0 1.32 0 2 C-2.64 2.33 -5.28 2.66 -8 3 C-8 2.34 -8 1.68 -8 1 C-5.10765685 0.17361624 -3.11257569 0 0 0 Z " fill="#5097BC" transform="translate(280,467)"/>
<path d="M0 0 C2.31 0.33 4.62 0.66 7 1 C7.33 1.99 7.66 2.98 8 4 C5.23723823 3.47731534 2.6739124 2.89130413 0 2 C0 1.34 0 0.68 0 0 Z " fill="#4A93BD" transform="translate(92,430)"/>
<path d="M0 0 C-0.33 0.99 -0.66 1.98 -1 3 C-1.99 3 -2.98 3 -4 3 C-4 3.66 -4 4.32 -4 5 C-5.65 5 -7.3 5 -9 5 C-2.87096774 0 -2.87096774 0 0 0 Z " fill="#0E97D9" transform="translate(286,316)"/>
</svg>
