<?xml version="1.0" standalone="no"?>
<!DOCTYPE svg PUBLIC "-//W3C//DTD SVG 20010904//EN"
 "http://www.w3.org/TR/2001/REC-SVG-20010904/DTD/svg10.dtd">
<svg version="1.0" xmlns="http://www.w3.org/2000/svg"
 width="196.000000pt" height="196.000000pt" viewBox="0 0 196.000000 196.000000"
 preserveAspectRatio="xMidYMid meet">
<metadata>
Created by potrace 1.16, written by Peter Selinger 2001-2019
</metadata>
<g transform="translate(0.000000,196.000000) scale(0.100000,-0.100000)"
fill="#000000" stroke="none">
<path d="M814 1868 c-52 -50 -96 -100 -100 -111 -7 -24 60 -97 91 -98 12 0 15
-3 7 -6 -10 -4 1 -20 34 -54 26 -26 52 -45 57 -42 6 3 7 1 3 -5 -11 -17 32
-34 79 -30 46 3 45 4 95 -44 40 -38 43 -46 43 -108 0 -43 4 -49 75 -122 42
-43 82 -78 91 -78 8 0 11 -3 8 -7 -9 -9 13 -34 24 -27 5 3 8 0 7 -8 -2 -9 16
-15 62 -20 95 -11 99 -12 95 -16 -2 -2 8 -20 21 -39 95 -141 -93 -296 -211
-173 -25 26 -29 38 -31 96 l-2 67 -101 101 c-82 81 -103 98 -111 86 -6 -9 -10
-125 -10 -271 0 -203 3 -259 13 -268 8 -6 18 -7 22 -3 5 4 5 2 1 -5 -3 -6 -2
-14 4 -18 12 -8 40 -60 45 -85 7 -36 -16 -89 -52 -120 -34 -30 -40 -32 -95
-28 -50 4 -64 9 -90 35 -59 59 -48 163 22 213 l30 21 0 273 0 272 -39 29 c-37
29 -41 34 -41 56 0 5 -5 7 -12 3 -7 -4 -8 -3 -4 4 4 6 1 20 -5 31 -10 15 -9
22 4 36 9 9 17 21 17 27 0 20 -224 239 -240 235 -8 -2 -14 -9 -12 -16 1 -7 -1
-10 -6 -7 -10 6 -268 -254 -264 -266 1 -5 -1 -7 -6 -4 -4 2 -28 -16 -52 -41
-25 -26 -39 -43 -31 -38 10 5 12 4 7 -3 -4 -7 -12 -12 -17 -12 -17 0 -79 -62
-72 -73 3 -6 2 -7 -4 -4 -13 8 -86 -67 -76 -78 5 -4 3 -5 -3 -2 -7 4 -27 -10
-46 -31 -33 -37 -34 -41 -33 -111 l1 -72 452 -451 451 -452 73 -2 73 -1 452
451 452 451 -1 75 0 75 -141 142 c-77 78 -145 139 -150 136 -6 -3 -7 -2 -4 4
7 11 -426 446 -436 438 -4 -3 -5 -2 -2 2 8 10 -67 83 -78 76 -6 -3 -7 -2 -4 4
3 5 -14 29 -38 53 -45 44 -46 44 -121 47 l-76 2 -94 -91z"/>
</g>
</svg>
