<?xml version="1.0" standalone="no"?>
<!DOCTYPE svg PUBLIC "-//W3C//DTD SVG 20010904//EN"
 "http://www.w3.org/TR/2001/REC-SVG-20010904/DTD/svg10.dtd">
<svg version="1.0" xmlns="http://www.w3.org/2000/svg"
 width="500.000000pt" height="500.000000pt" viewBox="0 0 500.000000 500.000000"
 preserveAspectRatio="xMidYMid meet">
<metadata>
Created by potrace 1.16, written by Peter Selinger 2001-2019
</metadata>
<g transform="translate(0.000000,500.000000) scale(0.100000,-0.100000)"
fill="#000000" stroke="none">
<path d="M2165 4820 c-85 -9 -337 -72 -445 -110 -238 -84 -486 -215 -654 -345
-477 -368 -793 -868 -911 -1440 -53 -259 -65 -465 -40 -685 54 -479 198 -859
465 -1220 30 -41 62 -82 70 -90 8 -9 33 -37 55 -63 98 -117 276 -279 399 -362
234 -159 436 -266 598 -317 86 -26 112 -24 156 16 l37 34 3 244 4 244 -177 -4
c-224 -6 -304 6 -410 59 -89 44 -128 86 -205 219 -120 209 -150 251 -225 321
-22 20 -64 59 -92 86 -29 27 -53 54 -53 61 0 17 66 42 114 42 112 0 240 -82
339 -214 12 -16 62 -71 111 -122 117 -123 182 -156 311 -162 99 -4 189 9 244
35 38 19 50 39 97 158 15 39 42 91 61 118 18 26 33 51 33 56 0 13 -16 18 -145
41 -386 70 -630 227 -786 505 -53 95 -93 213 -109 325 -12 87 -16 425 -6 520
13 120 60 233 146 350 66 91 70 105 55 160 -21 71 -26 186 -15 300 14 148 29
207 61 241 23 24 35 29 76 29 54 0 129 -18 212 -51 61 -24 208 -95 225 -108 6
-5 42 -25 79 -46 l69 -37 61 18 c93 26 196 35 477 41 265 5 432 -5 545 -34
106 -26 112 -26 144 -4 16 12 32 21 36 21 4 0 20 9 36 21 38 27 166 89 250
122 124 49 165 58 236 55 l68 -3 22 -67 c13 -36 28 -99 34 -140 13 -86 7 -284
-11 -349 -15 -52 -9 -85 20 -116 11 -12 20 -25 20 -29 0 -4 11 -22 25 -40 41
-53 94 -176 122 -282 24 -89 27 -113 27 -292 0 -166 -3 -210 -22 -295 -24
-106 -89 -287 -120 -333 -11 -15 -32 -47 -48 -72 -41 -63 -148 -168 -218 -215
-142 -93 -318 -163 -476 -190 -165 -29 -201 -41 -170 -60 6 -4 24 -33 40 -65
16 -32 40 -74 53 -93 l24 -36 7 -443 c4 -244 9 -457 12 -474 7 -40 54 -75 108
-81 32 -4 64 4 145 36 235 93 542 277 679 405 24 23 50 44 57 48 23 14 166
162 260 271 115 133 251 360 350 582 118 264 211 755 191 1005 -4 41 -9 109
-12 150 -9 107 -67 387 -108 510 -50 153 -133 339 -213 478 -26 45 -119 187
-135 207 -5 6 -28 35 -51 65 -92 119 -265 293 -373 377 -16 12 -45 35 -64 51
-48 40 -152 110 -230 156 -82 48 -290 149 -350 169 -25 8 -70 25 -100 37 -65
26 -185 55 -335 81 -87 16 -170 21 -395 24 -157 2 -321 0 -365 -5z"/>
</g>
</svg>
