<?xml version="1.0" standalone="no"?>
<!DOCTYPE svg PUBLIC "-//W3C//DTD SVG 20010904//EN"
 "http://www.w3.org/TR/2001/REC-SVG-20010904/DTD/svg10.dtd">
<svg version="1.0" xmlns="http://www.w3.org/2000/svg"
 width="677.000000pt" height="369.000000pt" viewBox="0 0 677.000000 369.000000"
 preserveAspectRatio="xMidYMid meet">
<metadata>
Created by potrace 1.16, written by Peter Selinger 2001-2019
</metadata>
<g transform="translate(0.000000,369.000000) scale(0.100000,-0.100000)"
fill="#000000" stroke="none">
<path d="M1794 3598 c4 -29 27 -282 51 -563 25 -280 52 -584 60 -675 30 -331
36 -398 50 -570 8 -96 20 -218 25 -270 5 -52 17 -174 25 -270 8 -96 24 -278
35 -405 12 -126 25 -277 30 -334 5 -57 11 -105 12 -106 2 -1 111 -33 243 -70
132 -37 404 -113 605 -170 201 -57 384 -108 407 -114 47 -13 46 -13 403 89
113 32 270 76 350 98 356 100 585 164 588 167 3 3 17 131 32 290 6 66 15 167
20 225 6 58 19 213 30 345 11 132 25 281 30 330 5 50 14 146 20 215 6 69 26
298 45 510 19 212 39 441 45 510 5 69 14 172 19 230 6 58 19 206 31 329 11
122 20 232 20 242 0 19 -35 19 -1591 19 l-1590 0 5 -52z m2594 -697 c-1 -55
-6 -97 -10 -95 -4 3 -8 -21 -9 -53 0 -32 -4 -83 -8 -113 -9 -58 -6 -74 9 -50
8 13 10 12 10 -2 0 -19 -25 -25 -35 -8 -4 7 -270 10 -764 10 l-758 0 3 -27 c2
-16 8 -93 14 -173 6 -80 13 -157 16 -172 l6 -28 729 0 730 0 -6 -42 c-3 -24
-7 -82 -8 -129 -1 -48 -5 -82 -9 -75 -4 6 -8 -16 -8 -49 0 -33 -7 -127 -15
-210 -41 -415 -47 -508 -33 -516 11 -8 11 -11 -1 -18 -18 -12 -37 -191 -20
-201 6 -5 1 -8 -12 -8 -40 -1 -300 -78 -292 -86 4 -4 -5 -4 -21 0 -21 5 -27 4
-22 -4 4 -8 2 -10 -7 -6 -19 7 -157 -34 -181 -55 -14 -11 -17 -12 -11 -2 6 11
4 13 -11 7 -10 -4 -34 -10 -51 -13 -18 -3 -33 -10 -33 -15 0 -5 -4 -7 -9 -4
-5 4 -38 -3 -73 -15 -98 -32 -112 -31 -262 11 -78 22 -206 57 -286 79 -293 81
-391 109 -395 113 -1 1 -10 93 -19 203 -9 110 -21 249 -26 309 -5 60 -7 112
-4 117 6 11 391 12 398 1 2 -4 10 -73 17 -152 7 -80 17 -150 23 -157 6 -6 99
-35 206 -64 240 -64 240 -64 240 -51 0 6 10 8 23 6 12 -2 16 -2 10 2 -7 3 -13
10 -13 15 0 6 8 5 20 -1 25 -13 79 -2 58 12 -10 8 -9 8 5 4 22 -7 82 5 68 13
-6 4 4 7 22 7 40 0 208 44 202 53 -2 4 0 13 6 21 7 12 9 11 9 -4 0 -13 3 -17
10 -10 15 15 25 174 11 174 -6 0 -11 4 -11 10 0 5 7 7 15 4 16 -6 16 -6 19
141 1 28 4 55 7 60 3 6 6 31 6 56 l1 46 -361 6 c-198 4 -508 7 -689 7 -229 0
-328 3 -328 11 0 6 -13 153 -29 327 -17 175 -39 425 -50 557 -12 132 -23 257
-25 277 -2 20 -1 39 2 42 3 3 457 6 1009 6 l1003 0 -2 -99z"/>
</g>
</svg>
