<?xml version="1.0" encoding="UTF-8"?>
<svg version="1.1" xmlns="http://www.w3.org/2000/svg" width="500" height="500">
<path d="M0 0 C1.34705302 -0.00115418 2.69410573 -0.00274369 4.04115778 -0.00472724 C7.71829259 -0.00887945 11.39540125 -0.00684859 15.07253611 -0.00374103 C19.04723509 -0.00147049 23.0219297 -0.00497465 26.99662781 -0.00772095 C34.77144078 -0.01215909 42.54624408 -0.01121112 50.32105743 -0.00830831 C56.63753725 -0.00604773 62.95401436 -0.00574459 69.27049446 -0.00683212 C70.1702658 -0.00698536 71.07003713 -0.00713859 71.99707427 -0.00729647 C73.82498673 -0.00761619 75.6528992 -0.00794041 77.48081166 -0.00826906 C94.60379213 -0.01111782 111.72676724 -0.00784569 128.84974683 -0.00246869 C143.54896822 0.00200414 158.24818171 0.00121831 172.94740295 -0.00338745 C190.02097423 -0.00873467 207.09454082 -0.0108488 224.16811281 -0.00777519 C225.98707076 -0.00745664 227.8060287 -0.00714227 229.62498665 -0.00683212 C230.51995047 -0.00667785 231.4149143 -0.00652357 232.33699824 -0.00636462 C238.6510576 -0.00550031 244.96511399 -0.00696039 251.2791729 -0.00931168 C258.96585085 -0.01211127 266.65251859 -0.01136781 274.33919536 -0.00603093 C278.26258349 -0.00339691 282.18595456 -0.00238391 286.10934258 -0.00568008 C289.69708253 -0.00864881 293.28478953 -0.00704056 296.87252647 -0.00170253 C298.79251771 -0.00004753 300.71251122 -0.00333065 302.63250011 -0.00675976 C303.76440983 -0.00415202 304.89631955 -0.00154427 306.06252956 0.0011425 C307.04324253 0.00130485 308.02395551 0.00146721 309.03438705 0.00163448 C311.47938538 0.12698364 311.47938538 0.12698364 314.47938538 1.12698364 C314.65318394 9.23250144 314.11639078 17.13003717 313.29188538 25.18948364 C313.01151085 28.02370347 312.73696661 30.85847081 312.46376038 33.69338989 C312.34980675 34.87277634 312.34980675 34.87277634 312.23355103 36.07598877 C311.19077642 46.98671523 310.28993332 57.91006196 309.36393738 68.83117676 C307.75239551 87.82531958 306.06956029 106.804511 304.10716248 125.76571655 C302.68725025 139.51915351 301.52954072 153.28388378 300.51795959 167.07327271 C299.90399825 175.35012945 299.13396477 183.58931832 298.18856812 191.83518982 C297.52710665 197.61285887 296.99083958 203.39125348 296.54188538 209.18948364 C295.8035878 218.34054597 295.00572569 227.48459897 294.16688538 236.62698364 C292.85888318 250.89536419 291.58001109 265.16624531 290.30854797 279.43792725 C289.98095811 283.10935737 289.65201666 286.78066396 289.32264709 290.45193481 C288.02100599 304.95110361 288.02100599 304.95110361 286.77226257 319.45489502 C286.50897382 322.58185385 286.24012187 325.7083207 285.97059631 328.83474731 C285.852708 330.22315597 285.73789384 331.61182953 285.62635803 333.00076294 C285.47683275 334.86246776 285.31635612 336.7232837 285.15516663 338.58401489 C285.03008728 340.09958984 285.03008728 340.09958984 284.90248108 341.64578247 C284.47938538 344.12698364 284.47938538 344.12698364 282.47938538 347.12698364 C279.71156311 348.16531372 279.71156311 348.16531372 276.22547913 349.08401489 C274.95945862 349.42384399 273.69343811 349.7636731 272.38905334 350.11380005 C271.08592083 350.45187555 269.78270028 350.78961195 268.47938538 351.12698364 C267.33743713 351.43168579 266.19548889 351.73638794 265.01893616 352.05032349 C261.52890333 352.98069635 258.03548977 353.89762183 254.54188538 354.81448364 C242.55311341 357.97862928 230.63606629 361.35425 218.73744202 364.84060669 C209.84653239 367.44540488 200.93792979 369.97556103 192.00990295 372.44998169 C186.08788062 374.09777807 180.18128344 375.79136586 174.28407288 377.52542114 C173.5838501 377.73084534 172.88362732 377.93626953 172.16218567 378.1479187 C168.72117301 379.15770675 165.28171818 380.17231125 161.84461975 381.19534302 C160.59745178 381.5620813 159.35028381 381.92881958 158.06532288 382.30667114 C156.41089172 382.79756226 156.41089172 382.79756226 154.72303772 383.29837036 C148.45630228 384.89925099 143.8066828 385.31392149 137.54188538 383.62698364 C136.86569153 383.44756226 136.18949768 383.26814087 135.49281311 383.08328247 C127.24021566 380.85970408 119.04819297 378.40644668 110.85047913 375.99026489 C98.82006848 372.4547443 86.72750971 369.13369035 74.64344788 365.78713989 C73.17208191 365.3796304 71.7007274 364.97207957 70.22938538 364.56448364 C69.51613098 364.36693481 68.80287659 364.16938599 68.06800842 363.96585083 C61.64029867 362.18098053 55.22697008 360.34691366 48.81556702 358.50442505 C43.84012457 357.07739904 38.85903664 355.67380357 33.87001038 354.29495239 C32.75505188 353.98606079 31.64009338 353.67716919 30.49134827 353.35891724 C28.32991782 352.76113894 26.16768488 352.1662521 24.00453186 351.57473755 C18.36947194 350.01428751 12.91760336 348.2775812 7.47938538 346.12698364 C6.17917272 338.14589104 5.26179444 330.18554234 4.59657288 322.13088989 C3.78582474 312.57362776 2.92773961 303.02128686 2.04188538 293.47073364 C1.91385999 292.0883742 1.78583878 290.70601438 1.65782166 289.32365417 C1.26563423 285.0913726 0.87258646 280.85917114 0.47938538 276.62698364 C-0.04224353 271.01247389 -0.56337673 265.3979188 -1.08311462 259.78323364 C-1.14651031 259.09849535 -1.20990601 258.41375706 -1.27522278 257.70826912 C-2.04838994 249.34861596 -2.80262203 240.98766283 -3.52061462 232.62307739 C-4.29682913 223.58061577 -5.1196423 214.54276016 -5.95811462 205.50588989 C-6.02142975 204.82313869 -6.08474487 204.1403875 -6.14997864 203.43694687 C-6.73724905 197.10619643 -7.32617927 190.77560077 -7.91612244 184.44509888 C-9.29227605 169.67280276 -10.64783183 154.90032715 -11.86022949 140.11346436 C-12.50460606 132.25820314 -13.21142447 124.41076465 -13.95811462 116.56448364 C-14.08507909 115.21805684 -14.21194798 113.87162101 -14.33872986 112.525177 C-14.9823511 105.70622609 -15.63937335 98.88867456 -16.30967712 92.07229614 C-17.56446589 79.2944033 -18.77167337 66.52105441 -19.74693298 53.71853638 C-20.20819912 47.75567554 -20.7312254 41.80206344 -21.30967712 35.84963989 C-21.41297333 34.78064201 -21.41297333 34.78064201 -21.51835632 33.69004822 C-21.85709929 30.19244554 -22.20177412 26.69558457 -22.55577087 23.19949341 C-23.27824358 15.80671697 -23.67377849 8.5529327 -23.52061462 1.12698364 C-15.66531215 0.14385505 -7.90987687 -0.01430596 0 0 Z M248.68861389 76.21878052 C247.73174179 76.22853409 246.77486969 76.23828766 245.78900146 76.24833679 C242.64542794 76.28046359 239.50185988 76.31309546 236.35829163 76.34573364 C234.17111238 76.3681851 231.98393281 76.3906049 229.79675293 76.41299438 C224.05438412 76.47186204 218.31201983 76.53115876 212.56965637 76.59054565 C206.70428225 76.65112851 200.83890396 76.71130444 194.973526 76.77151489 C183.47547501 76.88960683 171.97742874 77.00815217 160.47938538 77.12698364 C159.14462 79.7965144 159.39024071 81.76874558 159.43505859 84.75836182 C159.45051224 85.95592102 159.46596588 87.15348022 159.48188782 88.3873291 C159.50431498 89.72128456 159.52684027 91.05523836 159.54945374 92.38919067 C159.56945188 93.78847643 159.5889978 95.18776871 159.60812378 96.58706665 C159.66142836 100.39269044 159.72108449 104.19819165 159.78184962 108.00370264 C159.84424255 111.97816383 159.90083781 115.95270739 159.95803833 119.92724609 C160.06728608 127.45667946 160.18177577 134.98602371 160.29813153 142.51535022 C160.4303242 151.08591207 160.55669944 159.65655658 160.68257701 168.22721314 C160.94168966 185.86057007 161.20813723 203.49380943 161.47938538 221.12698364 C166.00137408 220.51016517 170.5217292 219.88207956 175.04188538 219.25198364 C176.31870178 219.07796021 177.59551819 218.90393677 178.911026 218.72463989 C180.15174866 218.55061646 181.39247131 218.37659302 182.67079163 218.19729614 C184.37537537 217.9616394 184.37537537 217.9616394 186.11439514 217.72122192 C189.66300147 217.09455808 193.02471345 216.14386041 196.47938538 215.12698364 C198.88742702 214.72373814 201.30389752 214.36846277 203.72547913 214.05667114 C204.92616028 213.89924438 206.12684143 213.74181763 207.36390686 213.57962036 C208.86638977 213.38900024 210.36887268 213.19838013 211.91688538 213.00198364 C216.72251038 212.38323364 221.52813538 211.76448364 226.47938538 211.12698364 C226.14938538 221.68698364 225.81938538 232.24698364 225.47938538 243.12698364 C220.19255058 245.10954669 215.33381901 246.80112417 209.92860413 248.21292114 C208.88947121 248.48616966 208.88947121 248.48616966 207.8293457 248.76493835 C206.36229318 249.15010288 204.89473782 249.53335671 203.42671204 249.91479492 C201.1422809 250.50837682 198.85927924 251.10720224 196.57655334 251.70730591 C190.10931998 253.40555578 183.6382222 255.08843148 177.16297913 256.75588989 C176.28617493 256.98292603 175.40937073 257.20996216 174.5059967 257.44387817 C172.95876561 257.84370144 171.41049234 258.23952381 169.86097717 258.63040161 C166.43459662 259.51470861 163.67845258 260.52745004 160.47938538 262.12698364 C160.47938538 274.33698364 160.47938538 286.54698364 160.47938538 299.12698364 C162.49488645 300.40909067 162.49488645 300.40909067 164.92079163 299.49026489 C165.95075256 299.14350708 166.9807135 298.79674927 168.04188538 298.43948364 C173.29738175 296.75145997 178.53456967 295.34652871 183.91688538 294.12698364 C190.31955319 292.66839195 196.61468344 290.98752681 202.91688538 289.13479614 C207.60356 287.80896056 212.32532572 286.64758072 217.06361389 285.52151489 C219.74997312 284.8710217 222.32074291 284.19261098 224.87782288 283.13479614 C229.41513983 281.37709678 234.21744179 280.60494152 238.973526 279.62698364 C239.75018616 279.46198364 240.52684631 279.29698364 241.32704163 279.12698364 C242.02837219 278.98260864 242.72970276 278.83823364 243.45228577 278.68948364 C244.12122864 278.50385864 244.79017151 278.31823364 245.47938538 278.12698364 C246.19981018 277.94442017 246.92023499 277.76185669 247.66249084 277.57376099 C249.86961497 276.12542942 249.86961497 276.12542942 250.28822327 272.56692505 C250.44752683 271.03954283 250.58394272 269.50966558 250.70204163 267.97854614 C250.77482834 267.16960907 250.84761505 266.360672 250.92260742 265.52722168 C251.07057663 263.81486358 251.20862807 262.101624 251.33753967 260.38772583 C251.54083975 257.76547058 251.79224091 255.15085451 252.04774475 252.53323364 C252.18545681 250.86941239 252.32031723 249.20535214 252.45204163 247.54104614 C252.57036095 246.36743027 252.57036095 246.36743027 252.69107056 245.17010498 C252.91085739 242.67782494 252.91085739 242.67782494 252.47938538 239.12698364 C250.16856423 236.67417585 250.16856423 236.67417585 247.47938538 235.12698364 C246.1799296 232.5280721 246.45707768 230.80031708 246.60047913 227.90042114 C246.64881897 226.86917114 246.69715881 225.83792114 246.7469635 224.77542114 C246.80303772 223.69518677 246.85911194 222.61495239 246.91688538 221.50198364 C246.96909241 220.41401489 247.02129944 219.32604614 247.0750885 218.20510864 C247.20501312 215.51212554 247.33998699 212.81949029 247.47938538 210.12698364 C248.13938538 210.45698364 248.79938538 210.78698364 249.47938538 211.12698364 C249.83620162 213.35369768 249.92262724 215.55154262 250.03797913 217.80276489 C250.56367426 220.57080563 251.6634375 222.01079905 253.47938538 224.12698364 C255.30751467 211.25228583 256.30467817 198.34510917 257.24159241 185.37942505 C257.63776781 179.96068921 258.05887573 174.54387733 258.47938538 169.12698364 C250.82555891 168.94418865 243.64254103 169.27274041 236.09266663 170.55667114 C221.34885222 172.88380293 206.31273544 173.77849727 191.47938538 175.12698364 C191.47938538 155.32698364 191.47938538 135.52698364 191.47938538 115.12698364 C199.14995178 115.14438599 199.14995178 115.14438599 206.97547913 115.16213989 C210.20660018 115.16724676 213.43771629 115.17206054 216.6688385 115.17581177 C221.80239388 115.1817998 226.93593149 115.18889903 232.06947327 115.2024231 C236.20617938 115.21325339 240.34286646 115.21926078 244.47958565 115.22186089 C246.06130841 115.22371488 247.64303009 115.227335 249.2247448 115.2327137 C251.43261376 115.23992604 253.6404031 115.24097451 255.84828186 115.24050903 C257.736912 115.24383995 257.736912 115.24383995 259.66369629 115.24723816 C262.38273833 115.44906091 262.38273833 115.44906091 263.47938538 114.12698364 C263.70953151 111.92083343 263.87530771 109.70791907 264.01454163 107.49417114 C264.05751877 106.82411041 264.10049591 106.15404968 264.14477539 105.46368408 C264.23515553 104.03973955 264.32326815 102.6156496 264.40931702 101.19143677 C264.54009397 99.03156986 264.67805168 96.87225819 264.817276 94.71292114 C265.20694181 88.50924744 265.53090432 82.34627111 265.47938538 76.12698364 C259.88179879 76.11586377 254.28586894 76.16005279 248.68861389 76.21878052 Z " fill="#D3B62B" transform="translate(104.52061462402344,56.873016357421875)"/>
<path d="M0 0 C45.54 0 91.08 0 138 0 C138 13.46771568 138 13.46771568 137.23046875 19.421875 C137.06344454 20.7697412 136.89670985 22.1176433 136.73022461 23.46557617 C136.64175262 24.161539 136.55328064 24.85750183 136.46212769 25.57455444 C134.71426693 39.42012103 133.42221616 53.26807794 132.4375 67.1875 C131.56614678 79.47316747 130.62152991 91.74017446 129.4375 104 C129.31109131 105.31137939 129.18468262 106.62275879 129.05444336 107.97387695 C128.8708728 109.87786255 128.8708728 109.87786255 128.68359375 111.8203125 C128.07228704 118.16817505 127.51815273 124.51892059 127 130.875 C126.23765961 140.19086469 125.45078473 149.50434915 124.63842773 158.815979 C124.50571473 160.34109011 124.37386222 161.86627637 124.24291992 163.39154053 C124.05877554 165.53467146 123.87155552 167.67751342 123.68359375 169.8203125 C123.57587646 171.06055176 123.46815918 172.30079102 123.35717773 173.57861328 C123.13918838 175.66672187 122.86984493 177.7513024 122.51147461 179.81994629 C122.00206441 182.98716468 121.6988659 186.10385604 121.45922852 189.30224609 C121.36565567 190.53147797 121.27208282 191.76070984 121.17567444 193.02719116 C121.12741076 193.6775169 121.07914707 194.32784264 121.02942085 194.99787521 C120.87609511 197.0612686 120.71914622 199.12435898 120.56126404 201.18740845 C120.11323858 207.05083281 119.67197309 212.91476184 119.23217773 218.77880859 C118.9619835 222.37810974 118.6878958 225.97709951 118.411726 229.57594681 C118.25925579 231.57818726 118.11118384 233.58076114 117.96327209 235.58334351 C117.35117885 243.56161841 116.49640927 251.47120566 115.45178223 259.40188599 C114.77957059 264.75555853 114.34662659 270.12087478 113.9375 275.5 C113.43137211 282.0252852 112.87271115 288.51258969 112 295 C105.07892895 297.0259879 98.15602785 299.04561622 91.23144531 301.05957031 C89.2330757 301.64114479 87.23497342 302.22363979 85.23730469 302.80761719 C73.43690793 306.25446847 61.58337584 309.4177555 49.67236328 312.46044922 C43.57955065 314.02961203 37.54524564 315.6777452 31.5625 317.625 C25.50873613 319.58223193 19.41901431 321.25574507 13.25 322.8125 C12.39092041 323.03180176 11.53184082 323.25110352 10.64672852 323.47705078 C9.43714478 323.77651611 9.43714478 323.77651611 8.203125 324.08203125 C7.48801758 324.25968018 6.77291016 324.4373291 6.03613281 324.62036133 C4 325 4 325 0 325 C0 217.75 0 110.5 0 0 Z M103.20922852 44.09179688 C102.25235641 44.10155045 101.29548431 44.11130402 100.30961609 44.12135315 C97.16604257 44.15347995 94.0224745 44.18611181 90.87890625 44.21875 C88.691727 44.24120146 86.50454743 44.26362126 84.31736755 44.28601074 C78.57499875 44.3448784 72.83263445 44.40417512 67.090271 44.46356201 C61.22489687 44.52414487 55.35951858 44.58432079 49.49414062 44.64453125 C37.99608964 44.76262319 26.49804337 44.88116853 15 45 C13.66523462 47.66953075 13.91085534 49.64176194 13.95567322 52.63137817 C13.97112686 53.82893738 13.98658051 55.02649658 14.00250244 56.26034546 C14.02492961 57.59430091 14.04745489 58.92825472 14.07006836 60.26220703 C14.09006651 61.66149278 14.10961242 63.06078506 14.1287384 64.46008301 C14.18204298 68.26570679 14.24169912 72.07120801 14.30246425 75.876719 C14.36485717 79.85118019 14.42145243 83.82572375 14.47865295 87.80026245 C14.58790071 95.32969582 14.7023904 102.85904007 14.81874615 110.38836658 C14.95093882 118.95892843 15.07731407 127.52957294 15.20319164 136.1002295 C15.46230428 153.73358642 15.72875186 171.36682579 16 189 C20.5219887 188.38318153 25.04234383 187.75509592 29.5625 187.125 C30.83931641 186.95097656 32.11613281 186.77695312 33.43164062 186.59765625 C34.67236328 186.42363281 35.91308594 186.24960937 37.19140625 186.0703125 C38.89598999 185.83465576 38.89598999 185.83465576 40.63500977 185.59423828 C44.18361609 184.96757443 47.54532807 184.01687676 51 183 C53.40804164 182.5967545 55.82451214 182.24147912 58.24609375 181.9296875 C59.4467749 181.77226074 60.64745605 181.61483398 61.88452148 181.45263672 C63.38700439 181.2620166 64.8894873 181.07139648 66.4375 180.875 C71.243125 180.25625 76.04875 179.6375 81 179 C80.67 189.56 80.34 200.12 80 211 C74.7131652 212.98256305 69.85443363 214.67414052 64.44921875 216.0859375 C63.41008583 216.35918602 63.41008583 216.35918602 62.34996033 216.63795471 C60.8829078 217.02311924 59.41535245 217.40637307 57.94732666 217.78781128 C55.66289553 218.38139318 53.37989387 218.9802186 51.09716797 219.58032227 C44.6299346 221.27857214 38.15883683 222.96144784 31.68359375 224.62890625 C30.80678955 224.85594238 29.92998535 225.08297852 29.02661133 225.31689453 C27.47938023 225.71671779 25.93110696 226.11254016 24.3815918 226.50341797 C20.95521124 227.38772497 18.1990672 228.4004664 15 230 C15 242.21 15 254.42 15 267 C17.01550107 268.28210703 17.01550107 268.28210703 19.44140625 267.36328125 C20.47136719 267.01652344 21.50132812 266.66976562 22.5625 266.3125 C27.81799638 264.62447633 33.05518429 263.21954506 38.4375 262 C44.84016781 260.5414083 51.13529806 258.86054316 57.4375 257.0078125 C62.12417463 255.68197691 66.84594034 254.52059708 71.58422852 253.39453125 C74.27058774 252.74403806 76.84135753 252.06562734 79.3984375 251.0078125 C83.93575446 249.25011314 88.73805642 248.47795788 93.49414062 247.5 C94.27080078 247.335 95.04746094 247.17 95.84765625 247 C96.54898682 246.855625 97.25031738 246.71125 97.97290039 246.5625 C98.64184326 246.376875 99.31078613 246.19125 100 246 C100.7204248 245.81743652 101.44084961 245.63487305 102.18310547 245.44677734 C104.39022959 243.99844578 104.39022959 243.99844578 104.80883789 240.43994141 C104.96814145 238.91255919 105.10455734 237.38268193 105.22265625 235.8515625 C105.29544296 235.04262543 105.36822968 234.23368835 105.44322205 233.40023804 C105.59119126 231.68787994 105.7292427 229.97464036 105.8581543 228.26074219 C106.06145438 225.63848694 106.31285553 223.02387086 106.56835938 220.40625 C106.70607143 218.74242875 106.84093185 217.0783685 106.97265625 215.4140625 C107.09097557 214.24044662 107.09097557 214.24044662 107.21168518 213.04312134 C107.43147202 210.55084129 107.43147202 210.55084129 107 207 C104.68917885 204.54719221 104.68917885 204.54719221 102 203 C100.70054423 200.40108846 100.9776923 198.67333344 101.12109375 195.7734375 C101.16943359 194.7421875 101.21777344 193.7109375 101.26757812 192.6484375 C101.32365234 191.56820312 101.37972656 190.48796875 101.4375 189.375 C101.48970703 188.28703125 101.54191406 187.1990625 101.59570312 186.078125 C101.72562775 183.3851419 101.86060162 180.69250664 102 178 C102.66 178.33 103.32 178.66 104 179 C104.35681624 181.22671403 104.44324186 183.42455897 104.55859375 185.67578125 C105.08428888 188.44382199 106.18405212 189.88381541 108 192 C109.8281293 179.12530219 110.82529279 166.21812552 111.76220703 153.25244141 C112.15838243 147.83370556 112.57949035 142.41689369 113 137 C105.34617353 136.817205 98.16315565 137.14575676 90.61328125 138.4296875 C75.86946685 140.75681929 60.83335006 141.65151363 46 143 C46 123.2 46 103.4 46 83 C53.67056641 83.01740234 53.67056641 83.01740234 61.49609375 83.03515625 C64.7272148 83.04026311 67.95833091 83.04507689 71.18945312 83.04882812 C76.3230085 83.05481616 81.45654612 83.06191538 86.59008789 83.07543945 C90.726794 83.08626975 94.86348108 83.09227714 99.00020027 83.09487724 C100.58192304 83.09673124 102.16364471 83.10035136 103.74535942 83.10573006 C105.95322838 83.1129424 108.16101773 83.11399086 110.36889648 83.11352539 C112.25752663 83.11685631 112.25752663 83.11685631 114.18431091 83.12025452 C116.90335295 83.32207726 116.90335295 83.32207726 118 82 C118.23014613 79.79384979 118.39592233 77.58093543 118.53515625 75.3671875 C118.57813339 74.69712677 118.62111053 74.02706604 118.66539001 73.33670044 C118.75577015 71.91275591 118.84388278 70.48866596 118.92993164 69.06445312 C119.0607086 66.90458622 119.19866631 64.74527455 119.33789062 62.5859375 C119.72755644 56.3822638 120.05151895 50.21928747 120 44 C114.40241341 43.98888012 108.80648356 44.03306915 103.20922852 44.09179688 Z " fill="#F9D626" transform="translate(250,89)"/>
<path d="M0 0 C11.22 0 22.44 0 34 0 C34 74.58 34 149.16 34 226 C30.11537474 225.35256246 26.45218405 224.67703315 22.65625 223.73046875 C21.66383301 223.48337158 20.67141602 223.23627441 19.64892578 222.98168945 C18.60978027 222.71960693 17.57063477 222.45752441 16.5 222.1875 C14.89294189 221.78374146 14.89294189 221.78374146 13.25341797 221.37182617 C4.6086961 219.18483569 -3.97622919 216.85419195 -12.5 214.23046875 C-17.30304561 212.75321624 -22.12003581 211.45216237 -27 210.25 C-34.62506157 208.37052331 -42.22225685 206.39031168 -49.8125 204.375 C-50.96427734 204.07368164 -52.11605469 203.77236328 -53.30273438 203.46191406 C-54.38490234 203.1728418 -55.46707031 202.88376953 -56.58203125 202.5859375 C-58.03959839 202.19994385 -58.03959839 202.19994385 -59.52661133 201.80615234 C-62 201 -62 201 -65 199 C-65.26653946 196.0204901 -65.34767784 193.2511418 -65.29296875 190.2734375 C-65.28872391 189.41062164 -65.28447906 188.54780579 -65.28010559 187.65884399 C-65.26328392 184.89724803 -65.22562598 182.13637617 -65.1875 179.375 C-65.17245764 177.50521886 -65.15876846 175.6354263 -65.14648438 173.765625 C-65.11336906 169.17680342 -65.06156339 164.58852456 -65 160 C-59.28509238 160.59633469 -53.96818696 161.6661745 -48.44140625 163.21484375 C-47.65281723 163.4306459 -46.86422821 163.64644806 -46.05174255 163.86878967 C-43.55386766 164.55317345 -41.05810277 165.24488139 -38.5625 165.9375 C-36.0701637 166.62536643 -33.57739582 167.31159517 -31.08396912 167.99549866 C-29.54050777 168.41923465 -27.9976991 168.84535871 -26.45570374 169.2743988 C-22.00798192 170.50004719 -17.55521843 171.56451517 -13.0355072 172.4924469 C-9.84216906 173.28870479 -6.99691726 174.64844908 -4 176 C-2.68 176.33 -1.36 176.66 0 177 C0 118.59 0 60.18 0 0 Z " fill="#EBEFEE" transform="translate(204,132)"/>
<path d="M0 0 C1.34705302 -0.00115418 2.69410573 -0.00274369 4.04115778 -0.00472724 C7.71829259 -0.00887945 11.39540125 -0.00684859 15.07253611 -0.00374103 C19.04723509 -0.00147049 23.0219297 -0.00497465 26.99662781 -0.00772095 C34.77144078 -0.01215909 42.54624408 -0.01121112 50.32105743 -0.00830831 C56.63753725 -0.00604773 62.95401436 -0.00574459 69.27049446 -0.00683212 C70.1702658 -0.00698536 71.07003713 -0.00713859 71.99707427 -0.00729647 C73.82498673 -0.00761619 75.6528992 -0.00794041 77.48081166 -0.00826906 C94.60379213 -0.01111782 111.72676724 -0.00784569 128.84974683 -0.00246869 C143.54896822 0.00200414 158.24818171 0.00121831 172.94740295 -0.00338745 C190.02097423 -0.00873467 207.09454082 -0.0108488 224.16811281 -0.00777519 C225.98707076 -0.00745664 227.8060287 -0.00714227 229.62498665 -0.00683212 C230.51995047 -0.00667785 231.4149143 -0.00652357 232.33699824 -0.00636462 C238.6510576 -0.00550031 244.96511399 -0.00696039 251.2791729 -0.00931168 C258.96585085 -0.01211127 266.65251859 -0.01136781 274.33919536 -0.00603093 C278.26258349 -0.00339691 282.18595456 -0.00238391 286.10934258 -0.00568008 C289.69708253 -0.00864881 293.28478953 -0.00704056 296.87252647 -0.00170253 C298.79251771 -0.00004753 300.71251122 -0.00333065 302.63250011 -0.00675976 C303.76440983 -0.00415202 304.89631955 -0.00154427 306.06252956 0.0011425 C307.04324253 0.00130485 308.02395551 0.00146721 309.03438705 0.00163448 C311.47938538 0.12698364 311.47938538 0.12698364 314.47938538 1.12698364 C314.68966052 9.74937693 314.02995252 18.17747252 313.16688538 26.75198364 C312.96222103 28.84514595 312.75944393 30.93848648 312.55664062 33.03182983 C312.41587904 34.48285916 312.27448473 35.93382723 312.13247681 37.38473511 C311.31050316 45.79500871 310.55149017 54.21089077 309.79188538 62.62698364 C309.65938212 64.09004293 309.52681547 65.55309647 309.3941803 67.0161438 C309.08871264 70.38637538 308.78385001 73.75666128 308.47938538 77.12698364 C308.14938538 77.12698364 307.81938538 77.12698364 307.47938538 77.12698364 C307.34530757 68.82905726 307.63453799 60.6257369 308.12586975 52.34597778 C308.40991127 47.29673978 308.49404464 42.30848744 308.41688538 37.25198364 C308.32841328 26.347798 308.74799156 14.71943465 311.47938538 4.12698364 C310.06812677 4.1286491 310.06812677 4.1286491 308.62835789 4.13034821 C240.02701997 4.2082831 171.42856146 3.99810284 102.82800639 3.68160152 C93.40329115 3.63818197 83.97857162 3.59584146 74.55384827 3.55422974 C73.87738848 3.55124274 73.2009287 3.54825575 72.50397014 3.54517823 C69.105965 3.53017946 65.70795978 3.51519837 62.30995452 3.50022602 C34.69975224 3.37854717 7.08956433 3.25383913 -20.52061462 3.12698364 C-20.21379598 6.39837607 -19.89918181 9.66897285 -19.58311462 12.93948364 C-19.49610291 13.86825317 -19.40909119 14.79702271 -19.31944275 15.75393677 C-19.23243103 16.64661255 -19.14541931 17.53928833 -19.05577087 18.45901489 C-18.97721863 19.28119507 -18.89866638 20.10337524 -18.81773376 20.95046997 C-18.56510417 23.30185786 -18.56510417 23.30185786 -17.52061462 26.12698364 C-17.39288557 28.20801516 -17.31869114 30.29250388 -17.27452087 32.37698364 C-17.24164978 33.62608521 -17.20877869 34.87518677 -17.1749115 36.16213989 C-17.11443876 38.77404735 -17.0570698 41.38602879 -17.0030365 43.99807739 C-16.82234624 50.65975239 -16.31554694 56.92128011 -14.98179626 63.44680786 C-14.1420401 68.32708482 -14.08925006 73.24791675 -13.95811462 78.18948364 C-13.89836744 80.22215896 -13.83476689 82.25472588 -13.76670837 84.28713989 C-13.74278015 85.17022827 -13.71885193 86.05331665 -13.69419861 86.96316528 C-13.65261333 89.17486898 -13.65261333 89.17486898 -12.52061462 91.12698364 C-12.2859828 94.49003982 -12.12847353 97.84643102 -12.0030365 101.21487427 C-11.81335564 105.22680346 -11.38496884 109.03341895 -10.58311462 112.97073364 C-8.95038979 121.45098957 -8.56782282 130.08832937 -7.95811462 138.68948364 C-7.7707399 141.3057543 -7.58161166 143.92184575 -7.3873291 146.53761292 C-7.26738132 148.15438425 -7.15145589 149.77146021 -7.04000854 151.38883972 C-6.812687 155.3877149 -6.812687 155.3877149 -5.52061462 159.12698364 C-5.37969132 160.79554461 -5.29477742 162.46902432 -5.23936462 164.14260864 C-5.20198181 165.14678833 -5.164599 166.15096802 -5.12608337 167.18557739 C-5.07387634 168.76532349 -5.07387634 168.76532349 -5.02061462 170.37698364 C-4.95125881 172.44481448 -4.87844151 174.51253263 -4.80186462 176.58010864 C-4.77157166 177.49953247 -4.74127869 178.4189563 -4.71006775 179.36624146 C-4.57089738 182.13776531 -4.57089738 182.13776531 -4.02281189 184.87649536 C-3.36249105 189.15044366 -3.28756818 193.36288494 -3.20420837 197.68167114 C-3.18342728 198.5832193 -3.16264618 199.48476746 -3.14123535 200.41363525 C-3.07616883 203.27634505 -3.01705548 206.13914183 -2.95811462 209.00198364 C-2.91488855 210.94990909 -2.87127299 212.89782593 -2.82725525 214.84573364 C-2.72053174 219.60606253 -2.61914498 224.3664784 -2.52061462 229.12698364 C-2.85061462 229.12698364 -3.18061462 229.12698364 -3.52061462 229.12698364 C-6.14873653 203.75819864 -8.7529148 178.39968275 -10.53160095 152.9548645 C-11.14752933 144.25266453 -12.0036266 135.6156574 -13.06333923 126.95632935 C-13.63789706 122.14482933 -14.07034019 117.33145321 -14.45811462 112.50198364 C-15.23111484 103.24340523 -16.10857123 93.99784479 -17.02061462 84.75198364 C-18.03769143 74.41571078 -18.9580367 64.07711596 -19.74668884 53.72073364 C-20.20815659 47.75715047 -20.73115414 41.8027967 -21.30967712 35.84963989 C-21.41297333 34.78064201 -21.41297333 34.78064201 -21.51835632 33.69004822 C-21.85709929 30.19244554 -22.20177412 26.69558457 -22.55577087 23.19949341 C-23.27824358 15.80671697 -23.67377849 8.5529327 -23.52061462 1.12698364 C-15.66531215 0.14385505 -7.90987687 -0.01430596 0 0 Z " fill="#E1D07F" transform="translate(104.52061462402344,56.873016357421875)"/>
<path d="M0 0 C11.22 0 22.44 0 34 0 C34 74.58 34 149.16 34 226 C27.25 224.875 27.25 224.875 24 223 C26.64 223.33 29.28 223.66 32 224 C32 150.74 32 77.48 32 2 C21.77 2 11.54 2 1 2 C1 60.08 1 118.16 1 178 C-14 178 -14 178 -17 177 C-17 176.34 -17 175.68 -17 175 C-17.99 175 -18.98 175 -20 175 C-20.495 174.01 -20.495 174.01 -21 173 C-23.91935535 172.24356784 -26.79655517 171.58884881 -29.75 171 C-39.61793612 168.995086 -39.61793612 168.995086 -44 167 C-44 166.34 -44 165.68 -44 165 C-42.56333984 165.36351562 -42.56333984 165.36351562 -41.09765625 165.734375 C-39.75266069 166.07314117 -38.40760357 166.41166297 -37.0625 166.75 C-36.349729 166.92974365 -35.63695801 167.1094873 -34.90258789 167.29467773 C-31.0761988 168.25325727 -27.24610632 169.18123766 -23.3984375 170.05078125 C-22.27876587 170.30553223 -22.27876587 170.30553223 -21.13647461 170.56542969 C-19.708866 170.88813549 -18.28003794 171.20551011 -16.84985352 171.51660156 C-12.25396492 172.55937089 -8.28315826 174.10265858 -4 176 C-2.68 176.33 -1.36 176.66 0 177 C0 118.59 0 60.18 0 0 Z " fill="#ECE3B4" transform="translate(204,132)"/>
<path d="M0 0 C1.1821995 0.00138269 1.1821995 0.00138269 2.38828182 0.00279331 C3.28997097 0.00141865 4.19166012 0.00004398 5.12067318 -0.00137234 C6.6160738 0.00402058 6.6160738 0.00402058 8.14168453 0.00952244 C9.18546261 0.00937641 10.22924068 0.00923038 11.3046484 0.00907993 C14.77305295 0.00977956 18.24140454 0.0175743 21.70979977 0.02539158 C24.1073367 0.02725558 26.50487401 0.02867957 28.90241146 0.0296793 C35.22684936 0.03350589 41.55126446 0.04333737 47.87569332 0.05438328 C54.32364754 0.06459438 60.77160543 0.06917627 67.21956539 0.0742197 C79.88168452 0.08495951 92.54378781 0.10184664 105.20589352 0.12304783 C105.23313022 2.64395561 105.25284559 5.16456239 105.26839352 7.68554783 C105.27677242 8.39002048 105.28515133 9.09449314 105.29378414 9.82031345 C105.31466064 14.35051301 104.93628857 18.63820982 104.20589352 23.12304783 C104.08814231 24.5770324 103.99061112 26.03298286 103.92464352 27.49023533 C103.8872607 28.2301572 103.84987789 28.97007908 103.81136227 29.73242283 C103.73996105 31.2662267 103.66968122 32.80008312 103.60042477 34.33398533 C103.31018097 40.01876038 103.31018097 40.01876038 102.20589352 41.12304783 C99.99721521 41.21737768 97.78547831 41.24047214 95.57479 41.23657322 C94.88214046 41.23671925 94.18949093 41.23686527 93.47585201 41.23701572 C91.17619906 41.23631657 88.87662615 41.22852411 86.57698727 41.22070408 C84.98657939 41.21883991 83.39617094 41.217416 81.80576229 41.21641636 C77.61193422 41.21259111 73.41814057 41.20276078 69.22432613 41.19171238 C64.19665647 41.1797038 59.16897532 41.17509605 54.14129543 41.16925907 C46.49613749 41.15954902 38.85105513 41.14039254 31.20589352 41.12304783 C31.20589352 60.26304783 31.20589352 79.40304783 31.20589352 99.12304783 C34.83589352 98.79304783 38.46589352 98.46304783 42.20589352 98.12304783 C44.10099211 98.06630835 45.9976448 98.03307321 47.89339352 98.06054783 C48.7222607 98.06957127 49.55112789 98.0785947 50.40511227 98.08789158 C51.29649899 98.10529392 51.29649899 98.10529392 52.20589352 98.12304783 C52.20589352 98.45304783 52.20589352 98.78304783 52.20589352 99.12304783 C44.68629504 100.1426544 37.96673229 100.12304783 30.20589352 100.12304783 C30.20589352 80.32304783 30.20589352 60.52304783 30.20589352 40.12304783 C65.35089352 39.62804783 65.35089352 39.62804783 101.20589352 39.12304783 C101.86589352 28.89304783 102.52589352 18.66304783 103.20589352 8.12304783 C103.53589352 5.81304783 103.86589352 3.50304783 104.20589352 1.12304783 C103.25282818 1.28570637 102.29976284 1.44836491 101.31781673 1.61595249 C96.68106471 2.27377713 92.09072431 2.2554354 87.41512203 2.23657322 C86.45824993 2.23671925 85.50137783 2.23686527 84.51550961 2.23701572 C81.37191611 2.23632245 78.22838284 2.22855754 75.08479977 2.22070408 C72.89762053 2.21883782 70.71044087 2.2174149 68.52326107 2.21641636 C62.78088371 2.21260756 57.03853184 2.20279129 51.29616451 2.19171238 C45.43079123 2.18146302 39.56541381 2.17691119 33.70003414 2.17187595 C22.2019761 2.16116751 10.70393693 2.1441108 -0.79410648 2.12304783 C-0.78157841 2.90943134 -0.76905033 3.69581486 -0.75614262 4.50602818 C-0.59389125 14.77408387 -0.44066962 25.04225669 -0.29410648 35.31054783 C-0.28222923 36.14227638 -0.27035198 36.97400494 -0.25811481 37.83093739 C0.1125208 63.99153221 0.29804441 90.14733844 0.26839352 116.31054783 C0.2675375 117.07143585 0.26668148 117.83232388 0.26579952 118.61626911 C0.25469247 127.78522114 0.23506796 136.95413398 0.20589352 146.12304783 C2.07761227 145.63191502 2.07761227 145.63191502 3.98714352 145.13086033 C7.46974566 144.21703704 10.58880267 143.94219329 14.20589352 144.12304783 C14.20589352 144.45304783 14.20589352 144.78304783 14.20589352 145.12304783 C8.77168218 146.50316499 3.82366349 147.47415845 -1.79410648 147.12304783 C-3.55107904 145.36607527 -2.92024763 142.88920648 -2.92109013 140.5047617 C-2.92390995 139.28477985 -2.92672977 138.06479801 -2.92963505 136.80784702 C-2.92769045 135.44351277 -2.92564227 134.07917866 -2.92350101 132.7148447 C-2.92485502 131.287766 -2.92663495 129.86068765 -2.92881107 128.43360996 C-2.93338551 124.54735368 -2.93159581 120.66112383 -2.92843199 116.77486706 C-2.92590844 112.71673223 -2.92824591 108.65859973 -2.92981815 104.60046482 C-2.93163986 97.78425787 -2.9292335 90.96806173 -2.92447758 84.15185642 C-2.91903495 76.26010537 -2.92079761 68.36838016 -2.92630398 60.47662973 C-2.93083507 53.71316573 -2.93148568 46.94970952 -2.92886531 40.18624449 C-2.92730252 36.14136583 -2.92710885 32.09649933 -2.9304018 28.05162144 C-2.93328046 24.24975907 -2.93130493 20.44793017 -2.92550755 16.64607143 C-2.92417992 15.24679145 -2.92457411 13.84750868 -2.92677021 12.44822979 C-2.92948157 10.54593217 -2.92548702 8.64362843 -2.92109013 6.74133396 C-2.9207131 5.67427471 -2.92033607 4.60721546 -2.91994762 3.50782108 C-2.74477847 0.18824916 -2.74477847 0.18824916 0 0 Z " fill="#FBF2A9" transform="translate(265.7941064834595,131.87695217132568)"/>
<path d="M0 0 C0.33 0 0.66 0 1 0 C1.05386629 2.12472576 1.09273071 4.24983652 1.125 6.375 C1.14820313 7.55835938 1.17140625 8.74171875 1.1953125 9.9609375 C1 13 1 13 -1 15 C-3.89797974 15.24050903 -3.89797974 15.24050903 -7.65283203 15.22705078 C-8.33587402 15.22734283 -9.01891602 15.22763489 -9.72265625 15.22793579 C-11.98450341 15.22654039 -14.24602276 15.21096967 -16.5078125 15.1953125 C-18.07436951 15.19158311 -19.64092884 15.18873579 -21.20748901 15.18673706 C-25.33394797 15.17909476 -29.46026651 15.15944124 -33.58666992 15.1373291 C-38.5359151 15.11328977 -43.48520719 15.10409252 -48.43449402 15.09242249 C-55.95642706 15.07301709 -63.47805189 15.03469889 -71 15 C-71 32.82 -71 50.64 -71 69 C-58.13 68.01 -58.13 68.01 -45 67 C-45 66.67 -45 66.34 -45 66 C-32.13 65.34 -19.26 64.68 -6 64 C-6.60520945 73.68335122 -7.2306194 83.33786088 -8.0625 93 C-8.15337891 94.0725 -8.24425781 95.145 -8.33789062 96.25 C-8.55702435 98.83347133 -8.77772294 101.41679757 -9 104 C-9.33 104 -9.66 104 -10 104 C-10.29087369 91.52475044 -9.43520129 79.39142544 -8 67 C-9.72875963 66.94393212 -11.45811501 66.90632133 -13.1875 66.875 C-14.15042969 66.85179687 -15.11335938 66.82859375 -16.10546875 66.8046875 C-19.50493153 66.97517209 -22.65927853 67.38950496 -26.01171875 67.9375 C-33.19849222 69.09448789 -40.36471643 69.65881337 -47.625 70.125 C-48.85734375 70.21136719 -50.0896875 70.29773438 -51.359375 70.38671875 C-58.6247358 70.87261868 -65.68278015 71 -73 71 C-73 51.86 -73 32.72 -73 13 C-37.855 12.505 -37.855 12.505 -2 12 C-1.34 8.04 -0.68 4.08 0 0 Z " fill="#F0D74E" transform="translate(370,160)"/>
<path d="M0 0 C0.66 0 1.32 0 2 0 C3.62630388 7.71710179 4.353501 15.18680612 4.5625 23.0625 C4.62224718 25.09517532 4.68584774 27.12774224 4.75390625 29.16015625 C4.77783447 30.04324463 4.8017627 30.92633301 4.82641602 31.83618164 C4.86800129 34.04788533 4.86800129 34.04788533 6 36 C6.23463183 39.36305617 6.39214109 42.71944738 6.51757812 46.08789062 C6.70725899 50.09981982 7.13564579 53.9064353 7.9375 57.84375 C9.57022484 66.32400593 9.95279181 74.96134573 10.5625 83.5625 C10.74987472 86.17877065 10.93900296 88.79486211 11.13328552 91.41062927 C11.2532333 93.0274006 11.36915873 94.64447656 11.48060608 96.26185608 C11.70792762 100.26073126 11.70792762 100.26073126 13 104 C13.1409233 105.66856097 13.2258372 107.34204067 13.28125 109.015625 C13.31863281 110.01980469 13.35601562 111.02398437 13.39453125 112.05859375 C13.42933594 113.11175781 13.46414062 114.16492188 13.5 115.25 C13.56935582 117.31783084 13.64217311 119.38554899 13.71875 121.453125 C13.74904297 122.37254883 13.77933594 123.29197266 13.81054688 124.23925781 C13.94971724 127.01078167 13.94971724 127.01078167 14.49780273 129.74951172 C15.15812357 134.02346002 15.23304645 138.2359013 15.31640625 142.5546875 C15.33718735 143.45623566 15.35796844 144.35778381 15.37937927 145.28665161 C15.4444458 148.1493614 15.50355914 151.01215819 15.5625 153.875 C15.60572607 155.82292544 15.64934164 157.77084229 15.69335938 159.71875 C15.80008289 164.47907889 15.90146964 169.23949476 16 174 C15.67 174 15.34 174 15 174 C12.3718781 148.63121499 9.76769983 123.27269911 7.98901367 97.82788086 C7.3730853 89.12568089 6.51698802 80.48867376 5.45727539 71.8293457 C4.88272071 67.01787207 4.44975558 62.20449701 4.0625 57.375 C3.50416762 50.61964449 2.8972611 43.87211906 2.20703125 37.12890625 C2.0682458 35.75797852 1.92949262 34.38704752 1.79077148 33.01611328 C1.52282436 30.37166164 1.24635254 27.7285663 0.96508789 25.08544922 C0.11343606 16.67202853 -0.16104091 8.45302118 0 0 Z " fill="#DFCF7F" transform="translate(86,112)"/>
<path d="M0 0 C0.33 0 0.66 0 1 0 C1.78740907 8.25572975 2.19255357 16.45538817 2.31640625 24.74609375 C2.33723267 25.9639003 2.35805908 27.18170685 2.3795166 28.43641663 C2.43421551 31.74803203 2.48474546 35.05964849 2.53242874 38.37136841 C2.56265456 40.44811957 2.5944879 42.52484093 2.62667847 44.6015625 C3.13994556 78.06661327 3.10289015 111.53200287 3 145 C4.87171875 144.50886719 4.87171875 144.50886719 6.78125 144.0078125 C10.26385214 143.09398921 13.38290916 142.81914546 17 143 C17 143.33 17 143.66 17 144 C11.56578866 145.38011717 6.61776997 146.35111062 1 146 C0 145 0 145 -0.12304783 142.61243343 C-0.12212604 141.54407537 -0.12120424 140.4757173 -0.12025452 139.37498474 C-0.12162918 138.15355774 -0.12300385 136.93213074 -0.12442017 135.6736908 C-0.12088056 134.30776953 -0.11724574 132.94184852 -0.11352539 131.57592773 C-0.11324352 130.14722699 -0.11340124 128.7185261 -0.1139679 127.28982544 C-0.11425589 123.39950028 -0.10835887 119.50920569 -0.10139394 115.61888766 C-0.0951607 111.55761795 -0.09455663 107.49634761 -0.09336853 103.43507385 C-0.09025512 95.73921067 -0.08204161 88.04336162 -0.07201904 80.34750468 C-0.06085819 71.58827886 -0.05534753 62.82905239 -0.05032361 54.06982124 C-0.03985901 36.04653947 -0.02225939 18.02327087 0 0 Z " fill="#F7EA8D" transform="translate(263,133)"/>
<path d="M0 0 C0.33 0 0.66 0 1 0 C1 58.08 1 116.16 1 176 C-4.73651997 175.18049715 -7.90636036 174.22267912 -13 172 C-14.98821313 171.60235737 -16.98732362 171.24544834 -19 171 C-19 170.67 -19 170.34 -19 170 C-17.700625 169.938125 -16.40125 169.87625 -15.0625 169.8125 C-14.33160156 169.77769531 -13.60070312 169.74289062 -12.84765625 169.70703125 C-10.08710532 169.99103855 -7.93613886 170.62213033 -5.32202148 171.51831055 C-4.51240463 171.79410446 -3.70278778 172.06989838 -2.86863708 172.35404968 C-2.25198685 172.56721329 -1.63533661 172.78037689 -1 173 C-1.00092179 172.26636797 -1.00184359 171.53273594 -1.00279331 170.77687263 C-1.02502401 152.80053663 -1.04149616 134.82420342 -1.05181217 116.84785652 C-1.05693544 108.1540998 -1.06390098 99.46035234 -1.07543945 90.76660156 C-1.08550917 83.17578273 -1.09188216 75.58497061 -1.09408849 67.99414527 C-1.09537509 63.98701575 -1.09832695 59.97990541 -1.10573006 55.97278214 C-1.13894578 37.29002242 -0.91743315 18.66574271 0 0 Z " fill="#D3BE5E" transform="translate(203,133)"/>
<path d="M0 0 C0.33 0 0.66 0 1 0 C1.18149329 10.27362022 0.68091052 20.26956823 -0.375 30.5 C-0.51296053 31.88989134 -0.65007448 33.27986695 -0.78637695 34.66992188 C-0.99191647 36.76570469 -1.19786789 38.8614327 -1.4065094 40.95690918 C-2.05384135 47.46667764 -2.63044244 53.98190592 -3.1875 60.5 C-3.27112793 61.47259766 -3.35475586 62.44519531 -3.44091797 63.44726562 C-3.62830414 65.63142268 -3.81433416 67.81569604 -4 70 C-5.60149886 70.67305018 -7.20631029 71.33822227 -8.8125 72 C-9.70582031 72.37125 -10.59914063 72.7425 -11.51953125 73.125 C-14 74 -14 74 -17 74 C-17 74.66 -17 75.32 -17 76 C-27.89 76.99 -27.89 76.99 -39 78 C-30.89647898 72.59765265 -20.24709921 71.40943251 -10.85009766 69.43310547 C-8.78726242 68.98001194 -8.78726242 68.98001194 -6 68 C-5.44727293 62.80672408 -4.92944139 57.61158193 -4.44360352 52.41162109 C-4.273466 50.64342354 -4.0938403 48.87611217 -3.90454102 47.10986328 C-3.63396915 44.56977169 -3.39774388 42.02844076 -3.16796875 39.484375 C-3.0308271 38.30134796 -3.0308271 38.30134796 -2.89091492 37.09442139 C-2.62700867 34.58324974 -2.62700867 34.58324974 -3 31 C-5.30129224 28.53960157 -5.30129224 28.53960157 -8 27 C-9.18280248 24.63439504 -9.05472098 23.41153701 -8.9140625 20.7890625 C-8.87023437 19.95632813 -8.82640625 19.12359375 -8.78125 18.265625 C-8.7296875 17.39421875 -8.678125 16.5228125 -8.625 15.625 C-8.58117187 14.76132812 -8.53734375 13.89765625 -8.4921875 13.0078125 C-8.28078637 9.20259212 -8.02395947 5.68478981 -7 2 C-6.01 2.33 -5.02 2.66 -4 3 C-3.93941406 3.62648438 -3.87882812 4.25296875 -3.81640625 4.8984375 C-3.73261719 5.71570313 -3.64882813 6.53296875 -3.5625 7.375 C-3.48128906 8.18710937 -3.40007812 8.99921875 -3.31640625 9.8359375 C-3.10909886 12.04272805 -3.10909886 12.04272805 -2 14 C-1.34 9.38 -0.68 4.76 0 0 Z " fill="#FCF7C0" transform="translate(359,265)"/>
<path d="M0 0 C0.33 0 0.66 0 1 0 C1.2778733 10.87719585 0.54444437 21.46841927 -0.59500122 32.27978516 C-1.07433197 36.82953518 -1.5290239 41.38178197 -1.98828125 45.93359375 C-2.0786113 46.82142548 -2.16894135 47.7092572 -2.26200867 48.62399292 C-2.93332632 55.244001 -3.53351709 61.86700401 -4.0625 68.5 C-4.20946587 70.30600339 -4.35660462 72.11199272 -4.50390625 73.91796875 C-4.58012207 74.85431152 -4.65633789 75.7906543 -4.73486328 76.75537109 C-4.8223584 77.82609863 -4.90985352 78.89682617 -5 80 C-5.05371765 80.65776428 -5.1074353 81.31552856 -5.16278076 81.9932251 C-5.53316254 86.51090976 -5.91419933 91.02754731 -6.30563354 95.54345703 C-6.43422624 97.04465408 -6.55970291 98.54612162 -6.68191528 100.04785156 C-6.85283229 102.14335338 -7.03454887 104.23766111 -7.21875 106.33203125 C-7.32123047 107.54608643 -7.42371094 108.7601416 -7.52929688 110.01098633 C-8 113 -8 113 -10 116 C-17.00961538 118.59615385 -17.00961538 118.59615385 -21 117 C-20.34 117 -19.68 117 -19 117 C-19 116.34 -19 115.68 -19 115 C-14.545 114.505 -14.545 114.505 -10 114 C-10.01933594 112.58976562 -10.03867187 111.17953125 -10.05859375 109.7265625 C-10.05732342 101.80225191 -9.6211694 93.90066476 -9.20043945 85.98974609 C-9.06098512 83.34628432 -8.92973103 80.70249125 -8.79882812 78.05859375 C-8.71143066 76.38018258 -8.62355796 74.70179607 -8.53515625 73.0234375 C-8.49656998 72.23190277 -8.4579837 71.44036804 -8.41822815 70.62484741 C-8.11455811 65.11455811 -8.11455811 65.11455811 -7 64 C-6.86672408 62.48410361 -6.79658741 60.96255143 -6.75390625 59.44140625 C-6.72103516 58.49716797 -6.68816406 57.55292969 -6.65429688 56.58007812 C-6.594171 54.60359981 -6.53677631 52.62703608 -6.48242188 50.65039062 C-6.28202031 45.04292794 -5.66061004 39.82825165 -4.45678711 34.35083008 C-3.62824374 30.08677659 -3.57056681 25.79365634 -3.43359375 21.46289062 C-3.27098383 17.80416746 -3.08367024 16.12550536 -1 13 C-0.5396236 9.80193335 -0.5396236 9.80193335 -0.375 6.3125 C-0.30023438 5.13300781 -0.22546875 3.95351563 -0.1484375 2.73828125 C-0.09945313 1.83464844 -0.05046875 0.93101562 0 0 Z " fill="#CCB94A" transform="translate(397,288)"/>
<path d="M0 0 C32.34 0 64.68 0 98 0 C98 36.14732143 98 36.14732143 96.29101562 47.7265625 C95.63911809 52.81923851 95.28523045 57.94578714 94.875 63.0625 C94.74375732 64.68200562 94.74375732 64.68200562 94.60986328 66.33422852 C94.40409973 68.88929841 94.2007201 71.44452973 94 74 C93.67 74 93.34 74 93 74 C92.86592219 65.70207362 93.15515261 57.49875325 93.64648438 49.21899414 C93.93052589 44.16975614 94.01465926 39.1815038 93.9375 34.125 C93.84878772 23.19121193 94.34200631 11.63197478 97 1 C64.99 1 32.98 1 0 1 C0 0.67 0 0.34 0 0 Z " fill="#CEB540" transform="translate(319,60)"/>
<path d="M0 0 C0.33 0 0.66 0 1 0 C1.0501123 0.55872803 1.10022461 1.11745605 1.15185547 1.69311523 C1.38690201 4.27516273 1.63090559 6.85629274 1.875 9.4375 C1.95363281 10.31599609 2.03226562 11.19449219 2.11328125 12.09960938 C2.60050006 17.17792849 3.38002068 22.0307095 4.55859375 26.99291992 C5.13896002 29.63185304 5.38088765 32.24422746 5.5625 34.9375 C5.76379744 38.60996903 5.76379744 38.60996903 7 42 C7.13171181 44.20853475 7.20300208 46.42077343 7.24609375 48.6328125 C7.27775696 50.00244882 7.30975198 51.37207751 7.34204102 52.74169922 C7.35743927 53.45807556 7.37283752 54.1744519 7.38870239 54.91253662 C7.62215219 65.497054 8.00642745 75.88145291 9.58984375 86.3671875 C10.40063889 93.54851586 10.15032608 100.78434807 10 108 C9.67 108 9.34 108 9 108 C6.48517281 84.5316488 4.25309956 61.05172487 2.30761719 37.52905273 C2.18712257 36.07671989 2.18712257 36.07671989 2.06419373 34.595047 C1.91511414 32.79322695 1.76727168 30.99130387 1.62098694 29.18925476 C1.2298419 24.44375421 0.76450075 19.71621833 0.19903564 14.98814392 C-0.10335337 11.9676152 -0.09442703 8.97056796 -0.0625 5.9375 C-0.05347656 4.81214844 -0.04445313 3.68679688 -0.03515625 2.52734375 C-0.02355469 1.69332031 -0.01195313 0.85929687 0 0 Z " fill="#F0E7AF" transform="translate(102,288)"/>
<path d="M0 0 C-2.81348583 1.87565722 -4.64748202 2.60027945 -7.84765625 3.48046875 C-9.32552612 3.89087402 -9.32552612 3.89087402 -10.83325195 4.30957031 C-11.89890381 4.59928711 -12.96455566 4.88900391 -14.0625 5.1875 C-15.71608521 5.64334473 -15.71608521 5.64334473 -17.40307617 6.10839844 C-20.93358243 7.07899463 -24.46644963 8.04054961 -28 9 C-29.16466797 9.31727051 -30.32933594 9.63454102 -31.52929688 9.96142578 C-51.66333063 15.44047726 -51.66333063 15.44047726 -60.26171875 17.515625 C-64.27371091 18.50691489 -68.03333338 19.71297304 -71.86865234 21.23242188 C-76.57491469 22.92732323 -81.46402902 24.04008477 -86.3125 25.25 C-87.39595703 25.53101563 -88.47941406 25.81203125 -89.59570312 26.1015625 C-91.1512793 26.49214844 -91.1512793 26.49214844 -92.73828125 26.890625 C-94.14654175 27.24688965 -94.14654175 27.24688965 -95.58325195 27.61035156 C-98 28 -98 28 -101 27 C-85.34722222 21.67592593 -85.34722222 21.67592593 -80 22 C-80 21.34 -80 20.68 -80 20 C-79.36191406 19.86722656 -78.72382813 19.73445313 -78.06640625 19.59765625 C-77.24011719 19.42105469 -76.41382813 19.24445313 -75.5625 19.0625 C-74.73878906 18.88847656 -73.91507812 18.71445312 -73.06640625 18.53515625 C-71.02338796 18.19247006 -71.02338796 18.19247006 -70 17 C-67.36243974 16.45697289 -64.71156173 16.03556211 -62.0546875 15.59765625 C-55.98724042 14.41054704 -50.13556876 12.43029792 -44.25 10.5625 C-38.87792934 8.87213429 -33.50241075 7.25652289 -28.0546875 5.82421875 C-25.54895412 5.14811933 -23.0604141 4.43753775 -20.5703125 3.70703125 C-19.7767334 3.47757812 -18.9831543 3.248125 -18.16552734 3.01171875 C-16.59344656 2.5566511 -15.02331994 2.09475888 -13.45556641 1.625 C-8.80312115 0.29134675 -4.83969922 -0.23686359 0 0 Z " fill="#F3D436" transform="translate(352,386)"/>
<path d="M0 0 C2.05078125 0.03255208 4.1015625 0.06510417 6.15234375 0.09765625 C3.37186597 1.95130811 1.62637608 2.65577891 -1.53125 3.5 C-2.45381592 3.74919189 -3.37638184 3.99838379 -4.3269043 4.25512695 C-5.30312744 4.51253662 -6.27935059 4.76994629 -7.28515625 5.03515625 C-8.27620361 5.30094482 -9.26725098 5.5667334 -10.28833008 5.84057617 C-16.4110311 7.47566978 -22.54294131 9.06650257 -28.703125 10.5546875 C-30.43867327 10.99410683 -32.14921713 11.53150988 -33.84765625 12.09765625 C-33.87233542 17.33040013 -33.89050628 22.56311028 -33.90258789 27.79589844 C-33.90762336 29.57682892 -33.91445206 31.35775525 -33.9230957 33.13867188 C-33.93519567 35.6953229 -33.94089234 38.25191937 -33.9453125 40.80859375 C-33.95047379 41.60760101 -33.95563507 42.40660828 -33.96095276 43.22982788 C-34.06104375 47.2945753 -34.06104375 47.2945753 -32.84765625 51.09765625 C-34.16765625 51.09765625 -35.48765625 51.09765625 -36.84765625 51.09765625 C-37.17765625 37.56765625 -37.50765625 24.03765625 -37.84765625 10.09765625 C-29.03116499 5.68941062 -19.73318439 3.50452456 -9.84765625 4.09765625 C-9.84765625 3.43765625 -9.84765625 2.77765625 -9.84765625 2.09765625 C-8.71328125 1.95328125 -7.57890625 1.80890625 -6.41015625 1.66015625 C-3.51115113 1.2024186 -2.54328457 0.13442307 0 0 Z " fill="#F7E886" transform="translate(299.84765625,306.90234375)"/>
<path d="M0 0 C0.66 0 1.32 0 2 0 C3.62630388 7.71710179 4.353501 15.18680612 4.5625 23.0625 C4.62224718 25.09517532 4.68584774 27.12774224 4.75390625 29.16015625 C4.77783447 30.04324463 4.8017627 30.92633301 4.82641602 31.83618164 C4.86800129 34.04788533 4.86800129 34.04788533 6 36 C6.08639869 38.40838678 6.11567764 40.78733881 6.09765625 43.1953125 C6.0962413 43.90275604 6.09482635 44.61019958 6.09336853 45.33908081 C6.087766 47.60109669 6.07521318 49.86301398 6.0625 52.125 C6.05748532 53.65755065 6.05292236 55.19010286 6.04882812 56.72265625 C6.03779577 60.48180888 6.02052952 64.24088772 6 68 C5.67 68 5.34 68 5 68 C4.89042969 66.69933594 4.78085938 65.39867187 4.66796875 64.05859375 C4.50817345 62.18486502 4.34798103 60.31117013 4.1875 58.4375 C4.05819092 56.92168335 4.05819092 56.92168335 3.92626953 55.37524414 C3.39670449 49.2659726 2.82315412 43.16282883 2.19921875 37.0625 C2.061553 35.7012585 1.92393909 34.34001175 1.78637695 32.97875977 C1.52025558 30.3481143 1.24533679 27.71888229 0.96557617 25.08959961 C0.11362792 16.67476153 -0.16106824 8.45445548 0 0 Z " fill="#EADC9C" transform="translate(86,112)"/>
<path d="M0 0 C0.33 0 0.66 0 1 0 C1.30081746 11.77533249 0.35844841 23.23704904 -0.875 34.9375 C-1.24670875 38.56998774 -1.61339548 42.20297882 -1.98046875 45.8359375 C-2.07038589 46.71860794 -2.16030304 47.60127838 -2.25294495 48.51069641 C-3.07449578 56.61444043 -3.7726032 64.72456705 -4.40380859 72.84545898 C-4.80289259 77.92097642 -5.32898457 82.95279695 -6 88 C-6.33 88 -6.66 88 -7 88 C-7.02683987 85.02077407 -7.04676037 82.04178705 -7.0625 79.0625 C-7.07087891 78.21236328 -7.07925781 77.36222656 -7.08789062 76.48632812 C-7.09111328 75.67744141 -7.09433594 74.86855469 -7.09765625 74.03515625 C-7.10289307 73.2862915 -7.10812988 72.53742676 -7.11352539 71.76586914 C-7 70 -7 70 -6 69 C-5.85450179 67.3644576 -5.77277839 65.72314356 -5.71875 64.08203125 C-5.68136719 63.07462891 -5.64398438 62.06722656 -5.60546875 61.02929688 C-5.57066406 59.96775391 -5.53585937 58.90621094 -5.5 57.8125 C-5.43064006 55.73555526 -5.35782222 53.6587226 -5.28125 51.58203125 C-5.25095703 50.65624268 -5.22066406 49.7304541 -5.18945312 48.77661133 C-5 46 -5 46 -4.49780273 43.00927734 C-4.00955549 40.05776411 -3.82878188 37.25774948 -3.75390625 34.26953125 C-3.72103516 33.21958984 -3.68816406 32.16964844 -3.65429688 31.08789062 C-3.59277374 28.89269264 -3.53552638 26.6973709 -3.48242188 24.50195312 C-3.44826172 23.45587891 -3.41410156 22.40980469 -3.37890625 21.33203125 C-3.3538501 20.38046143 -3.32879395 19.4288916 -3.30297852 18.44848633 C-3 16 -3 16 -1 13 C-0.5396236 9.80193335 -0.5396236 9.80193335 -0.375 6.3125 C-0.26285156 4.54326172 -0.26285156 4.54326172 -0.1484375 2.73828125 C-0.09945313 1.83464844 -0.05046875 0.93101562 0 0 Z " fill="#E8DC9A" transform="translate(397,288)"/>
<path d="M0 0 C-0.74631363 13.35508602 -1.85334314 26.67407804 -3 40 C-3.33 40 -3.66 40 -4 40 C-4.29087369 27.52475044 -3.43520129 15.39142544 -2 3 C-8.13302196 2.80109118 -14.00586985 2.88654233 -20.0625 3.9375 C-28.65110679 5.41432141 -37.30713645 5.65118393 -46 6 C-43.64046906 3.64046906 -42.22104383 3.50858587 -39 3 C-39 2.67 -39 2.34 -39 2 C-34.41029978 1.71280957 -29.82045701 1.42805734 -25.23046875 1.14550781 C-23.67085746 1.04916367 -22.1112863 0.95216757 -20.55175781 0.85449219 C-18.30283826 0.7137552 -16.05378214 0.57540718 -13.8046875 0.4375 C-13.1138205 0.39375244 -12.42295349 0.35000488 -11.71115112 0.30493164 C-7.80097803 0.06778879 -3.91709578 -0.04263506 0 0 Z " fill="#F9EE9C" transform="translate(364,224)"/>
<path d="M0 0 C0.99 0.33 1.98 0.66 3 1 C3.06058594 1.62648438 3.12117188 2.25296875 3.18359375 2.8984375 C3.26738281 3.71570313 3.35117187 4.53296875 3.4375 5.375 C3.55931641 6.59316406 3.55931641 6.59316406 3.68359375 7.8359375 C3.89090114 10.04272805 3.89090114 10.04272805 5 12 C5.07194869 14.88370333 5.09291708 17.74239664 5.0625 20.625 C5.05798828 21.42679687 5.05347656 22.22859375 5.04882812 23.0546875 C5.03703168 25.03649006 5.01909605 27.01825433 5 29 C1.73539027 27.19587357 0.11070205 26.16605307 -2 23 C-2.15112305 20.97875977 -2.15112305 20.97875977 -2.01171875 18.69140625 C-1.94114258 17.44713867 -1.94114258 17.44713867 -1.86914062 16.17773438 C-1.80919922 15.31470703 -1.74925781 14.45167969 -1.6875 13.5625 C-1.63916016 12.70333984 -1.59082031 11.84417969 -1.54101562 10.95898438 C-1.30917998 7.17624841 -1.01223952 3.66410971 0 0 Z " fill="#FEFEFC" transform="translate(352,267)"/>
<path d="M0 0 C0.99 0.495 0.99 0.495 2 1 C2.28756297 3.6503226 2.46773109 6.21684759 2.5625 8.875 C2.74411602 14.51760981 2.74411602 14.51760981 4 20 C4.11282322 21.50914159 4.17773855 23.0221674 4.2109375 24.53515625 C4.23929687 25.42783203 4.26765625 26.32050781 4.296875 27.24023438 C4.34819638 29.09421929 4.39268028 30.94840851 4.4296875 32.80273438 C4.65183951 39.2775397 5.8509958 44.89130253 8 51 C8.67111816 51.14381104 9.34223633 51.28762207 10.03369141 51.43579102 C16.75 52.875 16.75 52.875 19 54 C19 54.66 19 55.32 19 56 C20.98 56.33 22.96 56.66 25 57 C21.90107564 57.99439537 20.02779131 57.98269243 16.92578125 57.0390625 C16.17619141 56.81476563 15.42660156 56.59046875 14.65429688 56.359375 C13.88150391 56.11703125 13.10871094 55.8746875 12.3125 55.625 C11.52810547 55.39039063 10.74371094 55.15578125 9.93554688 54.9140625 C4.15559977 53.15559977 4.15559977 53.15559977 3 52 C2.86588961 50.33540898 2.79638975 48.66553798 2.75390625 46.99609375 C2.72224365 45.95275879 2.69058105 44.90942383 2.65795898 43.83447266 C2.62645752 42.71347168 2.59495605 41.5924707 2.5625 40.4375 C2.31665517 32.947463 1.99708641 25.54767677 0.9375 18.125 C0.07139014 12.03015286 -0.23451195 6.14942449 0 0 Z " fill="#CDB646" transform="translate(109,351)"/>
<path d="M0 0 C0.12361526 4.50225791 0.21434063 9.00352849 0.2746582 13.50708008 C0.29980078 15.03883061 0.33392047 16.57046117 0.37719727 18.10180664 C0.43786942 20.30384884 0.46620891 22.50430574 0.48828125 24.70703125 C0.51408768 25.39150833 0.5398941 26.07598541 0.56648254 26.78120422 C0.56762695 28.72192383 0.56762695 28.72192383 0 32 C-3.16032801 34.55786614 -5.79738423 35.38786449 -9.8125 35.6875 C-10.60269531 35.75324219 -11.39289063 35.81898438 -12.20703125 35.88671875 C-13.09455078 35.94279297 -13.09455078 35.94279297 -14 36 C-10.31514671 33.93648216 -7.31641436 33.23326125 -3 32 C-2.34 21.77 -1.68 11.54 -1 1 C-6.383125 1.8971875 -6.383125 1.8971875 -11.875 2.8125 C-13.05618408 3.00851807 -14.23736816 3.20453613 -15.4543457 3.40649414 C-20.42453215 4.23159229 -25.3929394 5.0635215 -30.35546875 5.93359375 C-31.15678223 6.07240967 -31.9580957 6.21122559 -32.78369141 6.35424805 C-34.25685336 6.61008644 -35.72925448 6.87036296 -37.20068359 7.13598633 C-41.51335387 7.87906535 -45.62741197 8.11372141 -50 8 C-46.76721969 6.14499987 -43.93072296 5.55295166 -40.25 5.0625 C-33.72665884 4.13584725 -27.28887756 2.94515002 -20.82421875 1.68359375 C-13.77672574 0.42382738 -7.14438841 -0.14884143 0 0 Z " fill="#FDF7BD" transform="translate(331,268)"/>
<path d="M0 0 C-1.06541016 0.41572266 -1.06541016 0.41572266 -2.15234375 0.83984375 C-3.07144531 1.20207031 -3.99054688 1.56429688 -4.9375 1.9375 C-5.85402344 2.29714844 -6.77054687 2.65679687 -7.71484375 3.02734375 C-9.92418533 3.7996218 -9.92418533 3.7996218 -11 5 C-12.4703219 5.34140429 -13.95221271 5.63341059 -15.4375 5.90234375 C-16.33210938 6.07056641 -17.22671875 6.23878906 -18.1484375 6.41210938 C-20.04878684 6.76224223 -21.94983553 7.10860051 -23.8515625 7.45117188 C-24.74617188 7.62068359 -25.64078125 7.79019531 -26.5625 7.96484375 C-27.38878906 8.1155835 -28.21507812 8.26632324 -29.06640625 8.42163086 C-29.70449219 8.61249268 -30.34257812 8.80335449 -31 9 C-31.33 9.66 -31.66 10.32 -32 11 C-34.04125977 11.41064453 -34.04125977 11.41064453 -36.69140625 11.6328125 C-38.10776367 11.75849609 -38.10776367 11.75849609 -39.55273438 11.88671875 C-40.54595703 11.96535156 -41.53917969 12.04398437 -42.5625 12.125 C-43.55958984 12.21136719 -44.55667969 12.29773438 -45.58398438 12.38671875 C-48.05539988 12.59956793 -50.52723225 12.80359321 -53 13 C-50.7566144 10.7566144 -49.60318529 10.44124787 -46.58984375 9.6328125 C-45.69031982 9.38885742 -44.7907959 9.14490234 -43.86401367 8.89355469 C-42.89826416 8.63993164 -41.93251465 8.38630859 -40.9375 8.125 C-39.95048096 7.86106445 -38.96346191 7.59712891 -37.9465332 7.32519531 C-29.33585771 5.04273036 -20.68627353 2.97115219 -12 1 C-11.02933594 0.76152344 -10.05867188 0.52304687 -9.05859375 0.27734375 C-3.33195864 -1.11065288 -3.33195864 -1.11065288 0 0 Z " fill="#F9EC9C" transform="translate(320,344)"/>
<path d="M0 0 C0.33 0 0.66 0 1 0 C0.90510382 4.1954915 0.79874682 8.39050437 0.68261719 12.58544922 C0.64477966 14.00692184 0.60985616 15.42847561 0.578125 16.85009766 C0.3988257 24.78969494 -0.08691317 32.4630029 -1.54541016 40.29199219 C-2.24104945 44.43594012 -2.37723909 48.55645304 -2.5 52.75 C-2.84348532 61.59116013 -3.74022445 70.24272531 -5 79 C-5.33 79 -5.66 79 -6 79 C-6.17848981 67.81558312 -5.68093325 56.82563803 -4.6875 45.6875 C-4.55278552 44.12273796 -4.41826684 42.55795905 -4.28393555 40.99316406 C-3.09186209 27.302405 -1.62972257 13.64565132 0 0 Z " fill="#F0DA59" transform="translate(364,225)"/>
<path d="M0 0 C17.58940587 1.71653215 17.58940587 1.71653215 26 5 C28.32346632 5.70789722 30.65877418 6.3524269 33 7 C33 7.66 33 8.32 33 9 C33.969375 8.938125 34.93875 8.87625 35.9375 8.8125 C42.78287636 8.8125 49.07181464 11.80790019 55 15 C51.72403039 16.09198987 51.02323002 15.9445154 47.8515625 14.99609375 C47.02116455 14.75286377 46.1907666 14.50963379 45.33520508 14.2590332 C44.4408374 13.98792725 43.54646973 13.71682129 42.625 13.4375 C40.72533911 12.87733723 38.82559712 12.31744943 36.92578125 11.7578125 C35.94818848 11.46680664 34.9705957 11.17580078 33.96337891 10.87597656 C29.25686978 9.48472967 24.53422619 8.15099259 19.8125 6.8125 C13.19087426 4.93128373 6.58883716 2.99315161 0 1 C0 0.67 0 0.34 0 0 Z " fill="#DACB75" transform="translate(135,409)"/>
<path d="M0 0 C5.0836692 0.63545865 9.21551736 1.18696124 14 2.5625 C15.423125 2.96662109 15.423125 2.96662109 16.875 3.37890625 C17.57625 3.58386719 18.2775 3.78882813 19 4 C19 4.33 19 4.66 19 5 C17.52093108 5.02689216 16.04172517 5.04634621 14.5625 5.0625 C13.32693359 5.07990234 13.32693359 5.07990234 12.06640625 5.09765625 C10 5 10 5 9 4 C6.36 3.67 3.72 3.34 1 3 C1.33 14.55 1.66 26.1 2 38 C2.99 38 3.98 38 5 38 C5 38.66 5 39.32 5 40 C5.63808594 40.04898438 6.27617187 40.09796875 6.93359375 40.1484375 C7.75988281 40.22320312 8.58617187 40.29796875 9.4375 40.375 C10.26121094 40.44460938 11.08492187 40.51421875 11.93359375 40.5859375 C12.61550781 40.72257812 13.29742187 40.85921875 14 41 C14.33 41.66 14.66 42.32 15 43 C13.62391448 42.91131893 12.24908258 42.80314061 10.875 42.6875 C9.72644531 42.60048828 9.72644531 42.60048828 8.5546875 42.51171875 C6 42 6 42 0 39 C0 26.13 0 13.26 0 0 Z " fill="#F1ECCA" transform="translate(139,292)"/>
<path d="M0 0 C0.99 0 1.98 0 3 0 C3.24195769 7.72920401 2.84738727 15.22910313 1.85644531 22.88818359 C0.54308322 33.22226955 -0.18446789 43.61704381 -1 54 C-1.33 54 -1.66 54 -2 54 C-2.13389931 45.71312065 -1.84557272 37.52072073 -1.35571289 29.25195312 C-0.98386169 22.62889215 -0.95255244 16.04918072 -1.0625 9.41796875 C-1.00309543 6.16928124 -0.62406685 3.18371602 0 0 Z " fill="#E4D68D" transform="translate(414,80)"/>
<path d="M0 0 C0.33 0 0.66 0 1 0 C1.0501123 0.55872803 1.10022461 1.11745605 1.15185547 1.69311523 C1.38690201 4.27516273 1.63090559 6.85629274 1.875 9.4375 C1.95363281 10.31599609 2.03226562 11.19449219 2.11328125 12.09960938 C2.60050006 17.17792849 3.38002068 22.0307095 4.55859375 26.99291992 C5.13896002 29.63185304 5.38088765 32.24422746 5.5625 34.9375 C5.76379744 38.60996903 5.76379744 38.60996903 7 42 C7.08308638 43.37548156 7.10736016 44.75485796 7.09765625 46.1328125 C7.09282227 47.34130859 7.09282227 47.34130859 7.08789062 48.57421875 C7.07951172 49.41597656 7.07113281 50.25773437 7.0625 51.125 C7.05798828 51.97449219 7.05347656 52.82398438 7.04882812 53.69921875 C7.03702874 55.79950909 7.01909306 57.8997633 7 60 C6.67 60 6.34 60 6 60 C4.6786742 51.2580141 3.66834412 42.862582 4 34 C3.34 34 2.68 34 2 34 C0.78913248 22.64650681 -0.38178283 11.43227487 0 0 Z " fill="#DECF7F" transform="translate(102,288)"/>
<path d="M0 0 C1.8871875 0.0309375 1.8871875 0.0309375 3.8125 0.0625 C0.81494011 2.06087326 -1.26162392 2.75259203 -4.7109375 3.6484375 C-6.35823853 4.0825293 -6.35823853 4.0825293 -8.03881836 4.52539062 C-9.2016333 4.82638672 -10.36444824 5.12738281 -11.5625 5.4375 C-19.7789536 7.59388999 -27.92257552 9.78780774 -35.96484375 12.53125 C-38.1875 13.0625 -38.1875 13.0625 -41.1875 12.0625 C-40.1875 10.5625 -40.1875 10.5625 -38.1875 9.0625 C-35.46903765 8.78904521 -32.93072801 8.92758715 -30.1875 9.0625 C-30.1875 8.4025 -30.1875 7.7425 -30.1875 7.0625 C-29.11371094 6.79695313 -28.03992188 6.53140625 -26.93359375 6.2578125 C-25.4973799 5.90110579 -24.06118288 5.54433134 -22.625 5.1875 C-21.92052734 5.01347656 -21.21605469 4.83945312 -20.49023438 4.66015625 C-1.65432747 -0.02712012 -1.65432747 -0.02712012 0 0 Z " fill="#DECF7C" transform="translate(350.1875,411.9375)"/>
<path d="M0 0 C0.02727678 2.97923003 0.04697128 5.95820379 0.0625 8.9375 C0.07087891 9.76830078 0.07925781 10.59910156 0.08789062 11.45507812 C0.10966956 17.05226441 -0.28840732 22.44733582 -1 28 C-1.33 28 -1.66 28 -2 28 C-2 19.42 -2 10.84 -2 2 C-4.145 2.33 -6.29 2.66 -8.5 3 C-13.75069174 3.75618481 -18.70581681 4.21176733 -24 4 C-20.63337034 2.0504675 -17.51943875 1.44236108 -13.6875 0.875 C-12.05361328 0.62363281 -12.05361328 0.62363281 -10.38671875 0.3671875 C-6.89732042 -0.0111325 -3.50700505 -0.06222823 0 0 Z " fill="#F0D857" transform="translate(330,269)"/>
<path d="M0 0 C1.45880109 0.14107747 2.91703551 0.28802415 4.375 0.4375 C5.59316406 0.55931641 5.59316406 0.55931641 6.8359375 0.68359375 C9 1 9 1 11 2 C12.53668865 2.22467831 14.07968054 2.40796805 15.625 2.5625 C16.44226563 2.64628906 17.25953125 2.73007812 18.1015625 2.81640625 C18.72804687 2.87699219 19.35453125 2.93757813 20 3 C20 3.66 20 4.32 20 5 C21.8871875 5.1546875 21.8871875 5.1546875 23.8125 5.3125 C29.3851218 5.91590491 34.63960058 7.40690933 40 9 C40 9.66 40 10.32 40 11 C34.56705972 10.42658169 29.47034741 9.46204434 24.21875 7.93359375 C23.51979614 7.73524429 22.82084229 7.53689484 22.10070801 7.33253479 C19.89886142 6.70634573 17.69944005 6.07208383 15.5 5.4375 C13.99494549 5.00792426 12.48973833 4.57888294 10.984375 4.15039062 C7.32112532 3.10642215 3.66002542 2.05521407 0 1 C0 0.67 0 0.34 0 0 Z " fill="#CEBD58" transform="translate(144,292)"/>
<path d="M0 0 C0.33 0 0.66 0 1 0 C1.58405642 15.14220341 -0.20217667 29.98148117 -2 45 C-2.33 45 -2.66 45 -3 45 C-3.25482096 35.37343059 -2.86937508 25.90777124 -2.0625 16.3125 C-1.97564941 15.27351562 -1.88879883 14.23453125 -1.79931641 13.1640625 C-1.40512435 8.70481039 -0.93934489 4.38213484 0 0 Z " fill="#CEBB55" transform="translate(405,187)"/>
<path d="M0 0 C0.66 0 1.32 0 2 0 C4.5035281 9.9470536 4.18974296 19.82766893 4 30 C3.67 30 3.34 30 3 30 C2.77213542 27.94921875 2.54427083 25.8984375 2.31640625 23.84765625 C2.18113386 21.98859771 2.18113386 21.98859771 1 21 C-0.4490351 14.07683229 -0.08788058 7.0402113 0 0 Z " fill="#DDCC7C" transform="translate(86,112)"/>
<path d="M0 0 C2.31 0 4.62 0 7 0 C3.27476665 3.72523335 -2.46225223 4.36753137 -7.4375 5.75 C-9.14583008 6.26240234 -9.14583008 6.26240234 -10.88867188 6.78515625 C-18.39660309 8.86902522 -24.51384399 9.51649318 -32 7 C-32.99 6.34 -33.98 5.68 -35 5 C-34.05125 5.165 -33.1025 5.33 -32.125 5.5 C-24.67397736 6.54072988 -18.15170836 6.28854668 -11 4 C-9.68 4 -8.36 4 -7 4 C-7 3.34 -7 2.68 -7 2 C-4.69 2 -2.38 2 0 2 C0 1.34 0 0.68 0 0 Z " fill="#E6DA96" transform="translate(272,433)"/>
<path d="M0 0 C0.33 0 0.66 0 1 0 C1.1486432 7.7745898 0.68848221 15.44041526 0.0625 23.1875 C-0.02451172 24.32380859 -0.11152344 25.46011719 -0.20117188 26.63085938 C-0.63340973 32.12188098 -1.12627706 37.56087793 -2 43 C-2.33 43 -2.66 43 -3 43 C-2.67 30.79 -2.34 18.58 -2 6 C-1.34 6 -0.68 6 0 6 C0 4.02 0 2.04 0 0 Z " fill="#D1BC5F" transform="translate(401,234)"/>
<path d="M0 0 C0.33 0 0.66 0 1 0 C1.27933384 20.08099924 1.27933384 20.08099924 -2 25 C-9.00961538 27.59615385 -9.00961538 27.59615385 -13 26 C-12.34 26 -11.68 26 -11 26 C-11 25.34 -11 24.68 -11 24 C-8.03 23.67 -5.06 23.34 -2 23 C-2.02320313 22.34515625 -2.04640625 21.6903125 -2.0703125 21.015625 C-2.21292763 13.80337411 -1.38227343 7.07180962 0 0 Z " fill="#E9DC9C" transform="translate(389,379)"/>
<path d="M0 0 C0.99 0.495 0.99 0.495 2 1 C2.625 3.5625 2.625 3.5625 3 6 C3.60328125 6.04898437 4.2065625 6.09796875 4.828125 6.1484375 C6.02695313 6.26058594 6.02695313 6.26058594 7.25 6.375 C8.03890625 6.44460938 8.8278125 6.51421875 9.640625 6.5859375 C12.085877 7.01507113 13.84836903 7.78600638 16 9 C16 9.66 16 10.32 16 11 C18.97 11.495 18.97 11.495 22 12 C18.90107564 12.99439537 17.02779131 12.98269243 13.92578125 12.0390625 C12.80139648 11.70261719 12.80139648 11.70261719 11.65429688 11.359375 C10.88150391 11.11703125 10.10871094 10.8746875 9.3125 10.625 C8.52810547 10.39039063 7.74371094 10.15578125 6.93554688 9.9140625 C1.15559977 8.15559977 1.15559977 8.15559977 0 7 C-0.04092937 4.66702567 -0.04241723 2.33294775 0 0 Z " fill="#DDD07A" transform="translate(112,396)"/>
<path d="M0 0 C-0.99 0.33 -1.98 0.66 -3 1 C-3 1.66 -3 2.32 -3 3 C-10.26 3.66 -17.52 4.32 -25 5 C-17.10457695 -0.26361537 -9.28253876 -0.38737024 0 0 Z " fill="#F7E88B" transform="translate(345,338)"/>
<path d="M0 0 C-2.52049393 0.79276039 -5.04138014 1.58423465 -7.5625 2.375 C-8.26697266 2.59671875 -8.97144531 2.8184375 -9.69726562 3.046875 C-11.79617561 3.70459794 -13.89740678 4.35415564 -16 5 C-16.99181274 5.3086499 -16.99181274 5.3086499 -18.00366211 5.62353516 C-23.67114258 7.33154297 -23.67114258 7.33154297 -27 6 C-26.34 6 -25.68 6 -25 6 C-24.67 5.01 -24.34 4.02 -24 3 C-20.56489764 2.30013302 -17.12663476 1.61725071 -13.6875 0.9375 C-12.71103516 0.73833984 -11.73457031 0.53917969 -10.72851562 0.33398438 C-9.79072266 0.15029297 -8.85292969 -0.03339844 -7.88671875 -0.22265625 C-6.59060669 -0.48187866 -6.59060669 -0.48187866 -5.26831055 -0.74633789 C-3 -1 -3 -1 0 0 Z " fill="#DED17F" transform="translate(307,426)"/>
<path d="M0 0 C9.88233202 0.76811629 18.44879752 1.49529472 27 7 C23.17625463 8.44083159 20.66990005 7.51191857 16.875 6.25 C15.73417969 5.87875 14.59335938 5.5075 13.41796875 5.125 C12.29003906 4.75375 11.16210938 4.3825 10 4 C8.06458536 3.40978461 6.12731726 2.82558059 4.1875 2.25 C3.37667969 2.00765625 2.56585938 1.7653125 1.73046875 1.515625 C1.15941406 1.34546875 0.58835938 1.1753125 0 1 C0 0.67 0 0.34 0 0 Z " fill="#E1D389" transform="translate(135,409)"/>
<path d="M0 0 C5.28 0.33 10.56 0.66 16 1 C16 1.66 16 2.32 16 3 C16.62648437 3.19335938 17.25296875 3.38671875 17.8984375 3.5859375 C18.71570313 3.84632813 19.53296875 4.10671875 20.375 4.375 C21.59316406 4.75785156 21.59316406 4.75785156 22.8359375 5.1484375 C25 6 25 6 27 8 C23.21096931 7.483314 20.38787323 6.69554759 17 5 C15.64233636 4.59954516 14.27091674 4.24339017 12.890625 3.9296875 C11.75947266 3.66865234 11.75947266 3.66865234 10.60546875 3.40234375 C9.82816406 3.22832031 9.05085937 3.05429687 8.25 2.875 C7.45722656 2.69324219 6.66445312 2.51148438 5.84765625 2.32421875 C3.89947634 1.87824986 1.94987269 1.43850849 0 1 C0 0.67 0 0.34 0 0 Z " fill="#ECE7C3" transform="translate(165,338)"/>
<path d="M0 0 C0.33 0 0.66 0 1 0 C1 3.96 1 7.92 1 12 C-7.75359116 11.22762431 -7.75359116 11.22762431 -12 9 C-13.99110401 8.61709538 -15.99100513 8.27395385 -18 8 C-18 7.67 -18 7.34 -18 7 C-11.17716964 6.67510332 -6.38479413 7.56769747 0 10 C0 6.7 0 3.4 0 0 Z " fill="#CCB950" transform="translate(202,296)"/>
<path d="M0 0 C0.33 0 0.66 0 1 0 C1.28435784 10.85299084 0.47317858 21.25368837 -1 32 C-1.33 32 -1.66 32 -2 32 C-2.02683987 29.02077407 -2.04676037 26.04178705 -2.0625 23.0625 C-2.07087891 22.21236328 -2.07925781 21.36222656 -2.08789062 20.48632812 C-2.09111328 19.67744141 -2.09433594 18.86855469 -2.09765625 18.03515625 C-2.10289307 17.2862915 -2.10812988 16.53742676 -2.11352539 15.76586914 C-2 14 -2 14 -1 13 C-0.76518307 10.81707226 -0.58636677 8.62796826 -0.4375 6.4375 C-0.35371094 5.23996094 -0.26992188 4.04242188 -0.18359375 2.80859375 C-0.12300781 1.88175781 -0.06242187 0.95492188 0 0 Z " fill="#EFE4B1" transform="translate(392,344)"/>
<path d="M0 0 C1.85625 0.061875 1.85625 0.061875 3.75 0.125 C-0.07338795 2.6739253 -3.85346015 3.59930386 -8.25 4.8125 C-9.47976563 5.16924805 -9.47976563 5.16924805 -10.734375 5.53320312 C-11.52328125 5.75298828 -12.3121875 5.97277344 -13.125 6.19921875 C-13.84429687 6.40119873 -14.56359375 6.60317871 -15.3046875 6.8112793 C-17.25 7.125 -17.25 7.125 -20.25 6.125 C-17.85549427 3.73049427 -16.65903764 3.67071545 -13.375 3.125 C-10.72647695 2.68226182 -8.5895809 2.29930959 -6.1953125 1.0703125 C-3.95136492 -0.02011986 -2.47542213 -0.08251407 0 0 Z " fill="#DDCE80" transform="translate(350.25,411.875)"/>
<path d="M0 0 C2.05078125 0.03255208 4.1015625 0.06510417 6.15234375 0.09765625 C3.0642468 1.86228308 1.91922239 2.09765625 -1.84765625 2.09765625 C-1.84765625 2.75765625 -1.84765625 3.41765625 -1.84765625 4.09765625 C-5.67086182 5.52024437 -8.7604693 6.33807901 -12.84765625 6.09765625 C-12.84765625 5.43765625 -12.84765625 4.77765625 -12.84765625 4.09765625 C-9.39706939 1.79726501 -6.90670123 1.62382875 -2.84765625 1.09765625 C-1.84765625 0.09765625 -1.84765625 0.09765625 0 0 Z " fill="#F3DE61" transform="translate(318.84765625,300.90234375)"/>
<path d="M0 0 C2.74378083 3.97265564 2.11848406 7.97273912 1.8125 12.5625 C1.76512695 13.71395508 1.76512695 13.71395508 1.71679688 14.88867188 C1.37896092 20.50458257 1.37896092 20.50458257 -0.55078125 23.02734375 C-1.02902344 23.34832031 -1.50726563 23.66929687 -2 24 C-1.03644647 7.1070615 -1.03644647 7.1070615 0 0 Z " fill="#DBBC23" transform="translate(378,200)"/>
<path d="M0 0 C6.93 0.495 6.93 0.495 14 1 C14 1.66 14 2.32 14 3 C16.31 3 18.62 3 21 3 C21.33 3.99 21.66 4.98 22 6 C14.36945905 5.38955672 7.29810526 3.20378179 0 1 C0 0.67 0 0.34 0 0 Z " fill="#EEE7BF" transform="translate(194,346)"/>
<path d="M0 0 C-1.06541016 0.41572266 -1.06541016 0.41572266 -2.15234375 0.83984375 C-3.53099609 1.38318359 -3.53099609 1.38318359 -4.9375 1.9375 C-5.85402344 2.29714844 -6.77054687 2.65679687 -7.71484375 3.02734375 C-9.92418533 3.7996218 -9.92418533 3.7996218 -11 5 C-12.84891946 5.23363881 -14.70488031 5.41303635 -16.5625 5.5625 C-18.08037109 5.68818359 -18.08037109 5.68818359 -19.62890625 5.81640625 C-20.41136719 5.87699219 -21.19382812 5.93757813 -22 6 C-18.55549263 3.70366176 -16.06187717 3.45983515 -12 3 C-12 2.34 -12 1.68 -12 1 C-10.56496445 0.63597631 -9.12683494 0.28413409 -7.6875 -0.0625 C-6.88699219 -0.25972656 -6.08648437 -0.45695312 -5.26171875 -0.66015625 C-3 -1 -3 -1 0 0 Z " fill="#F4E379" transform="translate(320,344)"/>
<path d="M0 0 C0.66 0.33 1.32 0.66 2 1 C2.05441656 2.89551022 2.09298035 4.7914792 2.125 6.6875 C2.14820313 7.74324219 2.17140625 8.79898437 2.1953125 9.88671875 C1.99858729 13.02251859 1.33057654 15.17645373 0 18 C-0.33 18 -0.66 18 -1 18 C-1.11269443 11.8894576 -0.89604368 6.04829486 0 0 Z " fill="#DABB22" transform="translate(370,288)"/>
<path d="M0 0 C0 0.33 0 0.66 0 1 C-0.98742187 1.20496094 -1.97484375 1.40992188 -2.9921875 1.62109375 C-4.27351563 1.89050781 -5.55484375 2.15992188 -6.875 2.4375 C-8.15117187 2.70433594 -9.42734375 2.97117187 -10.7421875 3.24609375 C-13.86460244 3.8347826 -13.86460244 3.8347826 -16 5 C-18.3400417 4.71758117 -20.67504723 4.38749213 -23 4 C-23 3.67 -23 3.34 -23 3 C-7.25512528 -0.44419134 -7.25512528 -0.44419134 0 0 Z " fill="#EFDA56" transform="translate(288,276)"/>
<path d="M0 0 C2.31 0 4.62 0 7 0 C4.28432704 2.71567296 1.23593892 3.24031242 -2.375 4.1875 C-3.38433594 4.47270508 -3.38433594 4.47270508 -4.4140625 4.76367188 C-7.90094068 5.69373485 -10.57636262 6.37823351 -14 5 C-9.07015675 2.96006486 -5.42039575 1.59347032 0 2 C0 1.34 0 0.68 0 0 Z " fill="#E8DC9C" transform="translate(368,406)"/>
<path d="M0 0 C0.33 0 0.66 0 1 0 C1 4.29 1 8.58 1 13 C-7.42857143 16.42857143 -7.42857143 16.42857143 -12 16 C-8.49461443 14.03698408 -4.86648272 13.04097612 -1 12 C-0.67 8.04 -0.34 4.08 0 0 Z " fill="#FAEC93" transform="translate(329,288)"/>
<path d="M0 0 C4.51617599 -0.07654536 8.59085217 -0.10228696 13 1 C13 1.66 13 2.32 13 3 C14.32 3.66 15.64 4.32 17 5 C5.47835991 3.07289294 5.47835991 3.07289294 0 1 C0 0.67 0 0.34 0 0 Z " fill="#E1D48A" transform="translate(191,425)"/>
<path d="M0 0 C6.70126536 -0.48736475 11.06561592 0.92291196 17 4 C13.02623171 5.56393356 10.18622097 4.36145292 6.25 3.0625 C4.49429688 2.49208984 4.49429688 2.49208984 2.703125 1.91015625 C1.81109375 1.60980469 0.9190625 1.30945313 0 1 C0 0.67 0 0.34 0 0 Z " fill="#DFD284" transform="translate(220,433)"/>
<path d="M0 0 C3.3 0.33 6.6 0.66 10 1 C10 1.99 10 2.98 10 4 C6.98968256 4.93423645 6.13349732 5.04449911 3 4 C3 3.34 3 2.68 3 2 C2.01 2 1.02 2 0 2 C0 1.34 0 0.68 0 0 Z " fill="#F1EDE5" transform="translate(184,305)"/>
<path d="M0 0 C5.52706913 0.72724594 10.69960141 2.33445973 16 4 C16 4.33 16 4.66 16 5 C14.39667209 5.08121924 12.79215974 5.13929134 11.1875 5.1875 C10.29417969 5.22230469 9.40085938 5.25710938 8.48046875 5.29296875 C5.50852107 4.94195131 4.88697395 4.23300929 3 2 C2.01 1.34 1.02 0.68 0 0 Z " fill="#CFBE59" transform="translate(178,342)"/>
<path d="M0 0 C-2 3 -2 3 -4.3828125 3.51171875 C-5.28773438 3.56972656 -6.19265625 3.62773437 -7.125 3.6875 C-8.03507812 3.75324219 -8.94515625 3.81898438 -9.8828125 3.88671875 C-10.93082031 3.94279297 -10.93082031 3.94279297 -12 4 C-12 3.34 -12 2.68 -12 2 C-10.37787941 1.47026689 -8.75218416 0.95146893 -7.125 0.4375 C-6.22007812 0.14746094 -5.31515625 -0.14257812 -4.3828125 -0.44140625 C-2 -1 -2 -1 0 0 Z " fill="#D2C061" transform="translate(332,417)"/>
<path d="M0 0 C0.33 0 0.66 0 1 0 C1.08153933 1.58246707 1.13943557 3.16616273 1.1875 4.75 C1.23970703 6.07257813 1.23970703 6.07257813 1.29296875 7.421875 C0.94923684 10.44671583 -0.00227459 11.75583602 -2 14 C-2 11.36 -2 8.72 -2 6 C-1.34 6 -0.68 6 0 6 C0 4.02 0 2.04 0 0 Z " fill="#CFB84A" transform="translate(401,234)"/>
<path d="M0 0 C0.33 0 0.66 0 1 0 C0.67 4.29 0.34 8.58 0 13 C-2 10 -2 10 -1.6875 7.625 C-1.460625 6.75875 -1.23375 5.8925 -1 5 C-0.814375 4.071875 -0.62875 3.14375 -0.4375 2.1875 C-0.293125 1.465625 -0.14875 0.74375 0 0 Z " fill="#F1D12D" transform="translate(372,259)"/>
<path d="M0 0 C0.99 0.495 0.99 0.495 2 1 C2.34153937 2.66500443 2.67449498 4.33178677 3 6 C3.66 6.66 4.32 7.32 5 8 C3.35 7.67 1.7 7.34 0 7 C0 4.69 0 2.38 0 0 Z " fill="#DFD288" transform="translate(112,396)"/>
<path d="M0 0 C1.9453125 -0.29296875 1.9453125 -0.29296875 4.125 -0.1875 C5.40375 -0.125625 6.6825 -0.06375 8 0 C4.55549263 2.29633824 2.06187717 2.54016485 -2 3 C-1.34 2.01 -0.68 1.02 0 0 Z " fill="#F9EB91" transform="translate(298,307)"/>
</svg>
