<?xml version="1.0" encoding="UTF-8"?>
<svg version="1.1" xmlns="http://www.w3.org/2000/svg" width="210" height="210">
<path d="M0 0 C0.66128906 0.51691406 1.32257813 1.03382812 2.00390625 1.56640625 C20.01125898 16.08142391 32.22315705 40.22154316 35.4140625 62.94921875 C35.98147237 70.31503946 36.18204908 77.61400886 36 85 C35.97486328 86.61648437 35.97486328 86.61648437 35.94921875 88.265625 C35.27514771 104.82851341 30.13432833 119.70636149 22 134 C21.45601562 134.98355469 20.91203125 135.96710938 20.3515625 136.98046875 C12.92281339 149.53686663 2.07914529 159.94723648 -10 168 C-11.96704102 167.9309082 -11.96704102 167.9309082 -14 167 C-15.73803711 164.92260742 -15.73803711 164.92260742 -17.52734375 162.10546875 C-18.57039673 160.48668823 -18.57039673 160.48668823 -19.63452148 158.83520508 C-20.00745331 158.24446198 -20.38038513 157.65371887 -20.76461792 157.04507446 C-22.38785544 154.47424094 -24.03714951 151.92045855 -25.68421936 149.36485291 C-26.5992997 147.94408855 -27.51293561 146.52239304 -28.42527771 145.09986877 C-34.21545595 136.07815538 -40.12971886 127.13820307 -46.03640747 118.1925354 C-47.89102462 115.38290727 -49.7435736 112.57192731 -51.59545898 109.76049805 C-58.60894781 99.11605845 -65.65427174 88.49350129 -72.73513794 77.89376831 C-74.47616423 75.28708058 -76.21471122 72.67874303 -77.953125 70.0703125 C-79.64135096 67.53748137 -81.33011865 65.00502089 -83.02050781 62.47363281 C-85.55884699 58.67105149 -88.09350153 54.86682385 -90.59375 51.0390625 C-91.66109375 49.41097656 -91.66109375 49.41097656 -92.75 47.75 C-93.63945312 46.38101563 -93.63945312 46.38101563 -94.546875 44.984375 C-95.85353694 42.88264311 -95.85353694 42.88264311 -98 42 C-102.65275976 41.6947378 -102.65275976 41.6947378 -107 43 C-107.02312297 53.93496471 -107.04091485 64.86992366 -107.05181217 75.8049078 C-107.0570411 80.88191018 -107.06413892 85.95889589 -107.07543945 91.03588867 C-107.08626799 95.93120552 -107.09227676 100.82650629 -107.09487724 105.72183418 C-107.09673155 107.59382951 -107.10035228 109.46582391 -107.10573006 111.33781242 C-107.11294004 113.95040699 -107.11399096 116.56293427 -107.11352539 119.17553711 C-107.1189183 120.34833725 -107.1189183 120.34833725 -107.12442017 121.54483032 C-107.44283962 125.06522819 -107.44283962 125.06522819 -106 128 C-101.34911285 128.30523962 -101.34911285 128.30523962 -97 127 C-96.67 107.2 -96.34 87.4 -96 67 C-95.01 67 -94.02 67 -93 67 C-91.08203125 69.21875 -91.08203125 69.21875 -88.8125 72.5 C-88.38598145 73.11238525 -87.95946289 73.72477051 -87.52001953 74.35571289 C-82.68371098 81.35021359 -78.01427868 88.46062026 -73.31225586 95.5456543 C-59.21565337 116.7538489 -44.33053569 137.3410232 -28.99316406 157.66381836 C-28.09626122 158.85389034 -27.20365066 160.0472126 -26.31591797 161.24414062 C-25.40090243 162.46506674 -24.46599842 163.67123595 -23.51611328 164.86523438 C-19.93770024 169.50177368 -19.93770024 169.50177368 -20.265625 172.12426758 C-21.58396794 175.4915644 -24.51020193 176.23834087 -27.64453125 177.69921875 C-54.77803391 188.21779429 -85.02763116 188.22362327 -111.84375 176.87890625 C-136.84995876 165.81104933 -156.63329261 145.79514712 -166.72607422 120.35473633 C-177.26531828 92.39602004 -177.07049065 62.40860537 -165 35 C-160.98139855 26.43453025 -156.19672604 19.12856454 -150 12 C-149.33484375 11.19046875 -148.6696875 10.3809375 -147.984375 9.546875 C-132.33651057 -8.882832 -109.03203385 -21.77944366 -84.9296875 -24.75390625 C-52.70315177 -26.77206902 -24.91307205 -21.41035542 0 0 Z M-43 40 C-43.36875252 42.38396406 -43.36875252 42.38396406 -43.40161133 45.18969727 C-43.43696487 46.27585831 -43.47231842 47.36201935 -43.50874329 48.48109436 C-43.6115538 53.51067555 -43.70151015 58.53969644 -43.75512695 63.57006836 C-43.79299614 66.20528011 -43.85404778 68.84027351 -43.93969727 71.47436523 C-44.48884596 88.49797474 -43.92924483 101.06596426 -32 114 C-31.67 114 -31.34 114 -31 114 C-30.93058403 104.38617615 -30.8772317 94.77243815 -30.84456348 85.15841866 C-30.82888681 80.69455254 -30.80761231 76.23085749 -30.77368164 71.76708984 C-30.74115915 67.46178372 -30.72316208 63.15664244 -30.71536827 58.85122299 C-30.70981192 57.20610838 -30.69896211 55.5610031 -30.68280983 53.9159584 C-30.66112947 51.61711154 -30.65802904 49.31895166 -30.65942383 47.02001953 C-30.65276199 45.7098587 -30.64610016 44.39969788 -30.63923645 43.04983521 C-30.75828842 42.04338959 -30.87734039 41.03694397 -31 40 C-34.99328753 37.33780831 -39.37226965 36.37226965 -43 40 Z " fill="#010001" transform="translate(174,25)"/>
</svg>
