<?xml version="1.0" encoding="UTF-8"?>
<svg version="1.1" xmlns="http://www.w3.org/2000/svg" width="420" height="420">
<path d="M0 0 C8.81218936 3.5144881 13.46717421 15.45405657 17.06542969 23.59863281 C25.49365703 43.6390845 28.55716375 64.2302166 29.98828125 85.79296875 C30.931875 85.3340625 31.87546875 84.87515625 32.84765625 84.40234375 C52.10779693 75.14334034 74.58155852 67.45752324 95.98828125 73.79296875 C99.71130102 75.53565885 101.90629613 77.25126781 103.98828125 80.79296875 C104.31765524 83.46060135 104.46436522 85.81666754 104.42578125 88.48046875 C104.41675781 89.23303955 104.40773438 89.98561035 104.3984375 90.76098633 C103.51590782 120.18783538 87.98345631 152.67309525 68.05078125 173.8515625 C66.70871272 175.77977299 66.70871272 175.77977299 67.5703125 178.07421875 C68.03824219 178.97140625 68.50617188 179.86859375 68.98828125 180.79296875 C69.54902344 181.93765625 70.10976563 183.08234375 70.6875 184.26171875 C71.16558105 185.22549438 71.16558105 185.22549438 71.65332031 186.20874023 C84.62387946 212.64848795 90.38432249 240.98791744 90.30395508 270.32202148 C90.30078687 272.72620779 90.32441701 275.12916647 90.34960938 277.53320312 C90.40758041 291.56969646 89.002167 305.72566118 84.30078125 319.04296875 C84.04441895 319.7805542 83.78805664 320.51813965 83.52392578 321.27807617 C76.11712212 341.6809342 61.46842918 358.12653969 41.80078125 367.54296875 C4.99302137 384.17801691 -43.35599567 384.34478896 -82.01171875 374.79296875 C-83.08164063 374.52871094 -84.1515625 374.26445312 -85.25390625 373.9921875 C-106.5019902 368.09571432 -126.00131843 355.39354085 -137.26171875 336.10546875 C-157.7698663 299.13676727 -153.95054107 251.7939732 -142.82421875 212.35546875 C-136.60038752 191.46188836 -126.61810814 169.39935814 -111.01171875 153.79296875 C-111.36086052 149.07613188 -112.97303594 145.17177095 -114.82421875 140.85546875 C-117.92920851 133.3276576 -120.25932824 125.75394013 -122.01171875 117.79296875 C-122.1627002 117.13506348 -122.31368164 116.4771582 -122.46923828 115.79931641 C-124.91561083 104.72334492 -125.3225239 93.65619444 -125.38671875 82.35546875 C-125.39457397 81.67364532 -125.4024292 80.9918219 -125.41052246 80.28933716 C-125.4988159 70.44772979 -125.3473602 59.46249405 -120.01171875 50.79296875 C-111.24668632 45.88455059 -102.69995175 47.84968345 -93.37890625 50.40234375 C-81.4039122 54.0147913 -70.74125676 59.98761369 -61.01171875 67.79296875 C-59.28297982 69.12685662 -57.55383839 70.46022307 -55.82421875 71.79296875 C-54.55196662 72.79116306 -53.2805528 73.79043321 -52.01171875 74.79296875 C-51.91890625 73.66761719 -51.82609375 72.54226562 -51.73046875 71.3828125 C-51.09684979 66.37436266 -49.42853201 62.00152848 -47.51171875 57.35546875 C-46.97877197 56.05210571 -46.97877197 56.05210571 -46.43505859 54.72241211 C-40.61632682 40.78513992 -33.75595216 28.35079765 -24.01171875 16.79296875 C-23.23570312 15.86484375 -22.4596875 14.93671875 -21.66015625 13.98046875 C-8.28874851 -1.45868245 -8.28874851 -1.45868245 0 0 Z M-100.609375 207.484375 C-104.22353709 212.30661355 -104.76222371 216.95297071 -104.5 222.88671875 C-103.5381021 228.61193505 -100.65107066 232.15361684 -96.63671875 236.16796875 C-91.24597295 239.5050971 -86.3173217 240.23931842 -80.1484375 239.328125 C-74.1356372 237.82217685 -70.55441102 233.55029838 -67.01171875 228.79296875 C-65.17936118 223.29589605 -64.83445605 216.8264963 -66.953125 211.3671875 C-69.9278295 206.4155634 -73.42723759 202.65446247 -79.01171875 200.79296875 C-88.10878157 199.84956964 -94.2384241 200.73957857 -100.609375 207.484375 Z M3.73828125 211.10546875 C-0.09636509 215.90379584 -1.52979665 220.50281219 -1.31640625 226.71484375 C-0.44461609 232.66089973 2.35326871 236.60568467 7.05078125 240.23046875 C11.68115817 243.4921738 15.3086477 244.25100371 20.98828125 243.79296875 C27.65601158 241.86802399 32.22690979 238.63265732 35.98828125 232.79296875 C38.23903241 227.88223894 39.035612 223.02276118 37.3359375 217.78125 C35.02446387 212.57299397 31.71395944 208.96169496 26.98828125 205.79296875 C18.24286184 202.87782895 10.00486445 204.31291334 3.73828125 211.10546875 Z " fill="#FED756" transform="translate(233.01171875,20.20703125)"/>
<path d="M0 0 C8.81218936 3.5144881 13.46717421 15.45405657 17.06542969 23.59863281 C25.49365703 43.6390845 28.55716375 64.2302166 29.98828125 85.79296875 C30.931875 85.3340625 31.87546875 84.87515625 32.84765625 84.40234375 C52.10779693 75.14334034 74.58155852 67.45752324 95.98828125 73.79296875 C99.71130102 75.53565885 101.90629613 77.25126781 103.98828125 80.79296875 C104.31765524 83.46060135 104.46436522 85.81666754 104.42578125 88.48046875 C104.41675781 89.23303955 104.40773438 89.98561035 104.3984375 90.76098633 C103.63155314 116.33178675 91.00837959 149.53628269 72.98828125 167.79296875 C71.04383899 169.55552554 69.0540766 171.16984383 66.98828125 172.79296875 C66.32828125 173.78296875 65.66828125 174.77296875 64.98828125 175.79296875 C64.32828125 175.79296875 63.66828125 175.79296875 62.98828125 175.79296875 C62.694375 175.16132813 62.40046875 174.5296875 62.09765625 173.87890625 C57.65246397 165.01406877 51.65318165 158.03293799 44.98828125 150.79296875 C44.52228516 150.28169434 44.05628906 149.77041992 43.57617188 149.24365234 C31.44940043 136.07131871 14.25183324 124.24877831 -3.01171875 118.79296875 C-3.92824219 118.49519531 -4.84476562 118.19742188 -5.7890625 117.890625 C-30.96703841 111.13707645 -56.54341925 116.24552189 -79.00390625 128.4140625 C-89.39528798 134.69407146 -98.65004037 143.0423751 -107.01171875 151.79296875 C-110.50109122 149.02480397 -111.82620329 145.11274886 -113.44921875 141.10546875 C-113.90663452 139.98664307 -113.90663452 139.98664307 -114.37329102 138.84521484 C-117.55925257 130.80207857 -121.01171875 121.52821344 -121.01171875 112.79296875 C-121.67171875 112.79296875 -122.33171875 112.79296875 -123.01171875 112.79296875 C-124.61794224 103.39467655 -125.35805445 94.25655612 -125.32739258 84.72412109 C-125.32420939 82.66190706 -125.34790003 80.6011034 -125.37304688 78.5390625 C-125.41742986 69.21307035 -125.0464761 58.98104458 -120.01171875 50.79296875 C-111.24668632 45.88455059 -102.69995175 47.84968345 -93.37890625 50.40234375 C-81.4039122 54.0147913 -70.74125676 59.98761369 -61.01171875 67.79296875 C-59.28297982 69.12685662 -57.55383839 70.46022307 -55.82421875 71.79296875 C-54.55196662 72.79116306 -53.2805528 73.79043321 -52.01171875 74.79296875 C-51.91890625 73.66761719 -51.82609375 72.54226562 -51.73046875 71.3828125 C-51.09684979 66.37436266 -49.42853201 62.00152848 -47.51171875 57.35546875 C-46.97877197 56.05210571 -46.97877197 56.05210571 -46.43505859 54.72241211 C-40.61632682 40.78513992 -33.75595216 28.35079765 -24.01171875 16.79296875 C-23.23570312 15.86484375 -22.4596875 14.93671875 -21.66015625 13.98046875 C-8.28874851 -1.45868245 -8.28874851 -1.45868245 0 0 Z " fill="#64D675" transform="translate(233.01171875,20.20703125)"/>
<path d="M0 0 C2.92458792 2.96025363 3.3969877 5.41017582 3.46875 9.5300293 C3.4584375 10.24199463 3.448125 10.95395996 3.4375 11.6875 C3.42847656 12.4400708 3.41945313 13.1926416 3.41015625 13.96801758 C2.64327189 39.538818 -9.97990166 72.74331394 -28 91 C-29.94444226 92.76255679 -31.93420465 94.37687508 -34 96 C-34.66 96.99 -35.32 97.98 -36 99 C-36.66 99 -37.32 99 -38 99 C-38.44085938 98.05253906 -38.44085938 98.05253906 -38.890625 97.0859375 C-43.33309274 88.22653345 -49.32742306 81.2277488 -56 74 C-56.47131348 73.48872559 -56.94262695 72.97745117 -57.42822266 72.45068359 C-63.33792034 66.12051649 -69.48359999 60.93956145 -76.6640625 56.16796875 C-79 54 -79 54 -79.9609375 51.05078125 C-80.0035737 47.72089382 -79.29912013 46.03128029 -78 43 C-77.59838513 40.3225675 -77.26527327 37.68989512 -77 35 C-76.8378483 33.49067891 -76.67376168 31.98156453 -76.5078125 30.47265625 C-76.42563477 29.72387207 -76.34345703 28.97508789 -76.25878906 28.20361328 C-75.66101414 23.1135034 -74.82674508 18.05721726 -74 13 C-73.34 13 -72.68 13 -72 13 C-72 12.34 -72 11.68 -72 11 C-71.1028125 10.5978125 -71.1028125 10.5978125 -70.1875 10.1875 C-68.00343428 9.15983858 -68.00343428 9.15983858 -66.75 7.609375 C-53.26806535 -4.7891899 -14.84947927 -11.69958973 0 0 Z " fill="#52AD59" transform="translate(334,97)"/>
<path d="M0 0 C3.24430787 2.08496134 6.41983706 4.20782712 9.18554688 6.90185547 C9.18554688 7.89185547 9.18554688 8.88185547 9.18554688 9.90185547 C9.78367187 10.16998047 10.38179688 10.43810547 10.99804688 10.71435547 C13.18402541 11.90102953 14.59887281 12.9978466 16.18554688 14.90185547 C16.18554688 15.56185547 16.18554688 16.22185547 16.18554688 16.90185547 C16.84554687 17.23185547 17.50554687 17.56185547 18.18554688 17.90185547 C18.02054687 19.15998047 17.85554688 20.41810547 17.68554688 21.71435547 C17.29642051 25.11658192 17.19282116 28.35745859 17.31054688 31.77685547 C17.25969511 49.67667555 17.25969511 49.67667555 14.18554688 56.90185547 C10.57962922 60.01764839 6.72873251 60.72282805 2.18554688 61.90185547 C-10.52858392 67.8290837 -21.0631314 75.91988972 -31.18554688 85.48388672 C-33.3242218 87.4509592 -35.4508452 89.21995007 -37.81445312 90.90185547 C-41.61033586 84.03696115 -44.61690905 77.13327342 -47.12695312 69.71435547 C-47.38105957 68.97910645 -47.63516602 68.24385742 -47.89697266 67.48632812 C-49.60257963 62.28602407 -50.35591901 57.35571415 -50.81445312 51.90185547 C-51.47445312 51.90185547 -52.13445312 51.90185547 -52.81445312 51.90185547 C-54.42067661 42.50356327 -55.16078882 33.36544284 -55.13012695 23.83300781 C-55.12694377 21.77079378 -55.15063441 19.70999012 -55.17578125 17.64794922 C-55.22016424 8.32195707 -54.84921047 -1.9100687 -49.81445312 -10.09814453 C-34.66921293 -18.57947904 -13.50134303 -8.17129184 0 0 Z " fill="#51AF5A" transform="translate(162.814453125,81.09814453125)"/>
<path d="M0 0 C2.27801929 3.41702893 2.76039909 5.99213035 3.625 10 C5.88090638 19.82307096 9.89353372 28.83022092 14 38 C18.01110256 34.59426549 21.95570759 31.14333793 25.8125 27.5625 C48.63762581 7.0985941 74.81913343 0.37204306 105 2 C110.59822986 2.62024934 115.70096294 4.07151675 121 6 C121.64936523 6.23605957 122.29873047 6.47211914 122.96777344 6.71533203 C138.92872712 12.6862532 151.89815421 22.16668629 164 34 C164.72703125 34.67675781 165.4540625 35.35351562 166.203125 36.05078125 C171.88656709 41.45452639 176.47132605 47.61559124 181 54 C182.12148438 55.57394531 182.12148438 55.57394531 183.265625 57.1796875 C185 60 185 60 185 63 C186.11375 61.8553125 186.11375 61.8553125 187.25 60.6875 C189.4263323 58.5606298 191.52167796 56.7440044 194 55 C192.93102496 57.30240777 191.96375688 59.04012631 190.25 60.9375 C189.8375 61.618125 189.425 62.29875 189 63 C190.16596703 66.64282356 191.96809682 69.99486289 193.66503906 73.41577148 C206.63559821 99.8555192 212.39604124 128.19494869 212.31567383 157.52905273 C212.31250562 159.93323904 212.33613576 162.33619772 212.36132812 164.74023438 C212.41929916 178.77672771 211.01388575 192.93269243 206.3125 206.25 C206.0561377 206.98758545 205.79977539 207.7251709 205.53564453 208.48510742 C199.03469817 226.39268156 187.1147803 240.84296421 171 251 C170.34 251 169.68 251 169 251 C169 250.34 169 249.68 169 249 C170.55000297 248.00836424 172.14309953 247.0840052 173.75 246.1875 C190.46091686 235.77812579 200.84302539 217.65611402 206 199 C207.34353779 193.05360128 208.21192248 187.0409645 209 181 C209.185625 179.75863281 209.37125 178.51726562 209.5625 177.23828125 C210.23467258 171.73819711 210.19074865 166.22116582 210.1875 160.6875 C210.1884668 158.97784058 210.1884668 158.97784058 210.18945312 157.23364258 C210.136492 148.64611595 209.52547863 140.24344132 208.4375 131.73046875 C208.08935662 128.76192471 207.90633156 125.97982709 208 123 C207.34 123 206.68 123 206 123 C203.84856834 116.30532161 201.88241476 109.61682506 200.18359375 102.79516602 C198.42626622 95.77069132 196.6235074 89.38092574 193.0625 83.015625 C192.0091939 81.01744136 191.37974599 79.18035177 190.8125 77 C190.24305821 73.91127857 190.24305821 73.91127857 188 72 C188 71.01 188 70.02 188 69 C187.34 69 186.68 69 186 69 C184.44067246 66.66100868 183.24676539 64.49353078 182 62 C181.46375 61.175 180.9275 60.35 180.375 59.5 C179 57 179 57 179 53 C178.38125 52.71125 177.7625 52.4225 177.125 52.125 C175 51 175 51 173 49 C172.01 49.33 171.02 49.66 170 50 C169.01 47.03 168.02 44.06 167 41 C166.01 41.33 165.02 41.66 164 42 C163.01 41.01 162.02 40.02 161 39 C161.99 38.01 161.99 38.01 163 37 C160.1575146 35.42726432 160.1575146 35.42726432 157 35 C157 34.01 157 33.02 157 32 C156.01 32 155.02 32 154 32 C153.938125 31.236875 153.87625 30.47375 153.8125 29.6875 C153.25799407 26.84148366 153.25799407 26.84148366 150.8125 25.5 C149.884375 25.005 148.95625 24.51 148 24 C147.01 23.13375 146.02 22.2675 145 21.375 C141.98988071 18.9919889 140.64340125 18.59082182 137 18 C135.3125 16.4375 135.3125 16.4375 134 15 C133.34 15 132.68 15 132 15 C132 14.34 132 13.68 132 13 C131.24074219 12.79503906 130.48148438 12.59007812 129.69921875 12.37890625 C128.70535156 12.10949219 127.71148437 11.84007812 126.6875 11.5625 C125.70136719 11.29566406 124.71523437 11.02882812 123.69921875 10.75390625 C121.78482474 10.21920575 119.88566385 9.62855462 118 9 C117.01 9.33 116.02 9.66 115 10 C114.67 9.01 114.34 8.02 114 7 C106.79315037 5.27835822 99.96157144 4.66275394 92.5625 4.6875 C91.60279297 4.67138672 90.64308594 4.65527344 89.65429688 4.63867188 C82.74463806 4.63401891 76.52686521 5.68813283 70 8 C69.67 8.33 69.34 8.66 69 9 C67.46148441 9.15915679 65.91862239 9.27706625 64.375 9.375 C59.61614689 9.82562311 56.12586094 10.54204029 52 13 C50.94832473 15.57732914 50.94832473 15.57732914 51 18 C49.35 17.67 47.7 17.34 46 17 C46 17.66 46 18.32 46 19 C44.68 19 43.36 19 42 19 C39.86897564 20.18000086 39.86897564 20.18000086 37.875 21.8125 C37.19179687 22.33457031 36.50859375 22.85664063 35.8046875 23.39453125 C33.77433275 25.06445045 33.77433275 25.06445045 32 28 C31.154375 28.495 30.30875 28.99 29.4375 29.5 C26.70198063 30.82369166 26.70198063 30.82369166 26 34 C24.00390625 35.82421875 24.00390625 35.82421875 21.5625 37.6875 C20.75941406 38.31011719 19.95632812 38.93273437 19.12890625 39.57421875 C17 41 17 41 15 41 C15 41.66 15 42.32 15 43 C14.01 43 13.02 43 12 43 C11.9175 44.0725 11.835 45.145 11.75 46.25 C10.91558371 50.42208146 10.08759991 51.27564714 7 54 C5.98133771 55.65532623 4.98189187 57.32260138 4 59 C3.360625 59.763125 2.72125 60.52625 2.0625 61.3125 C-0.0660247 64.08603218 -1.48648785 66.80551997 -2.9921875 69.94140625 C-5.04434007 74.13320627 -7.41122686 78.11684029 -10 82 C-10.99 82 -11.98 82 -13 82 C-13.11029541 82.54889893 -13.22059082 83.09779785 -13.33422852 83.66333008 C-14.49246829 89.17303269 -16.063937 94.38454289 -17.9375 99.6875 C-24.25862974 118.1961042 -26.36573116 136.85248993 -26.31567383 156.30810547 C-26.31251114 158.86599339 -26.33609849 161.42272215 -26.36132812 163.98046875 C-26.47671086 194.71430071 -17.69038589 220.13167876 3 243 C-8.70820376 238.1663379 -16.01381656 223.07536905 -20.72265625 212.078125 C-36.76573281 172.58969925 -30.77050125 121.84045253 -14.84472656 83.04663086 C-8.41788114 67.86219164 -0.79413593 52.79413593 11 41 C10.65085823 36.28316313 9.03868281 32.3788022 7.1875 28.0625 C3.57563228 19.37178389 -0.46729023 9.52553168 0 0 Z " fill="#DDE673" transform="translate(111,133)"/>
<path d="M0 0 C0 0.66 0 1.32 0 2 C0.66 2 1.32 2 2 2 C2.3125 4.6875 2.3125 4.6875 2 8 C0 10.3125 0 10.3125 -1.375 11.51953125 C-3.41753057 13.38039444 -5.18346437 15.41855292 -7 17.5 C-12.92479675 24.19613821 -12.92479675 24.19613821 -16 27 C-16.66 27 -17.32 27 -18 27 C-18.495 28.485 -18.495 28.485 -19 30 C-19.66 30 -20.32 30 -21 30 C-22.03853294 33.16324392 -22.03853294 33.16324392 -22 37 C-19.98677561 40.3378867 -17.51125416 43.24437292 -14 45 C-14 45.66 -14 46.32 -14 47 C-13.34 47 -12.68 47 -12 47 C-10.875 48.6875 -10.875 48.6875 -10 51 C-10.875 53.75 -10.875 53.75 -12 56 C-17.4 56.49090909 -17.4 56.49090909 -20.0625 54.3125 C-20.701875 53.549375 -21.34125 52.78625 -22 52 C-22.886875 51.154375 -23.77375 50.30875 -24.6875 49.4375 C-27 47 -27 47 -28 44 C-31.29642012 44.57828015 -32.87414478 45.52403016 -35.1640625 47.94140625 C-35.72867187 48.52470703 -36.29328125 49.10800781 -36.875 49.70898438 C-37.4525 50.32064453 -38.03 50.93230469 -38.625 51.5625 C-39.77926655 52.77651382 -40.93791034 53.98638572 -42.1015625 55.19140625 C-42.61025879 55.72967041 -43.11895508 56.26793457 -43.64306641 56.82250977 C-45 58 -45 58 -47 58 C-47.24234375 58.56074219 -47.4846875 59.12148438 -47.734375 59.69921875 C-49.2590912 62.47100221 -51.07169224 64.51934948 -53.25 66.8125 C-54.37148437 68.02873047 -54.37148437 68.02873047 -55.515625 69.26953125 C-58 71 -58 71 -61.296875 70.76171875 C-62.18890625 70.51035156 -63.0809375 70.25898438 -64 70 C-64.7578125 67.34765625 -64.7578125 67.34765625 -65 64 C-63.3046875 61.18359375 -63.3046875 61.18359375 -60.875 58.4375 C-59.69550781 57.07431641 -59.69550781 57.07431641 -58.4921875 55.68359375 C-56.04768755 53.05135007 -53.62979667 50.44827872 -51 48 C-50.34 48 -49.68 48 -49 48 C-48.67 47.01 -48.34 46.02 -48 45 C-47.34 45 -46.68 45 -46 45 C-45.773125 44.443125 -45.54625 43.88625 -45.3125 43.3125 C-44 41 -44 41 -41.375 38.5 C-38.54083369 36.09138014 -38.54083369 36.09138014 -39 32 C-39.54140625 31.79375 -40.0828125 31.5875 -40.640625 31.375 C-43.92118012 29.46315331 -46.23844174 26.79501496 -48.75 24 C-49.25660156 23.4534375 -49.76320312 22.906875 -50.28515625 22.34375 C-54 18.25842318 -54 18.25842318 -54 16 C-54.99 15.67 -55.98 15.34 -57 15 C-57.04254356 13.00045254 -57.04080783 10.99958364 -57 9 C-56 8 -56 8 -53.1875 7.75 C-49.71535734 8.02232491 -48.4324572 8.5675428 -46 11 C-46 11.66 -46 12.32 -46 13 C-45.01 13.33 -44.02 13.66 -43 14 C-42.855625 14.639375 -42.71125 15.27875 -42.5625 15.9375 C-42.376875 16.618125 -42.19125 17.29875 -42 18 C-40.68596724 18.70394612 -39.3479743 19.36345658 -38 20 C-35.25 22.5 -35.25 22.5 -33 25 C-33 25.66 -33 26.32 -33 27 C-29.59832352 26.74802396 -28.86073934 25.83931463 -26.5625 23.1875 C-26.14613281 22.64996094 -25.72976563 22.11242187 -25.30078125 21.55859375 C-23.469843 19.36476684 -21.24785983 17.74833542 -19 16 C-18.67 15.34 -18.34 14.68 -18 14 C-17.34 14 -16.68 14 -16 14 C-16 13.34 -16 12.68 -16 12 C-15.319375 11.46375 -14.63875 10.9275 -13.9375 10.375 C-10.69753522 7.75545401 -8.31982053 4.86665508 -5.74609375 1.609375 C-4 0 -4 0 0 0 Z " fill="#EDB935" transform="translate(294,296)"/>
<path d="M0 0 C1.4540625 0.0309375 1.4540625 0.0309375 2.9375 0.0625 C2.9375 0.7225 2.9375 1.3825 2.9375 2.0625 C3.7728125 2.4028125 3.7728125 2.4028125 4.625 2.75 C7.59003447 4.4328574 9.59103689 6.59871374 11.9375 9.0625 C12.700625 9.784375 13.46375 10.50625 14.25 11.25 C15.9375 13.0625 15.9375 13.0625 15.9375 15.0625 C16.515 15.31 17.0925 15.5575 17.6875 15.8125 C20.26689979 17.24549988 21.99871592 18.84674676 23.9375 21.0625 C23.9375 21.7225 23.9375 22.3825 23.9375 23.0625 C25.9175 23.7225 27.8975 24.3825 29.9375 25.0625 C30.63875 24.36125 31.34 23.66 32.0625 22.9375 C32.51496094 22.48761719 32.96742188 22.03773438 33.43359375 21.57421875 C34.4778339 20.52455398 35.51097976 19.46378152 36.53515625 18.39453125 C37.96611348 16.91435191 39.44902221 15.48482322 40.9375 14.0625 C41.5975 14.0625 42.2575 14.0625 42.9375 14.0625 C43.205625 13.464375 43.47375 12.86625 43.75 12.25 C45.80905963 8.45699541 45.80905963 8.45699541 47.9375 7.0625 C51.625 7.375 51.625 7.375 54.9375 8.0625 C55.26292619 11.6841786 55.28648462 13.53171874 53.2578125 16.6171875 C52.53335938 17.38289063 51.80890625 18.14859375 51.0625 18.9375 C50.34320313 19.71867187 49.62390625 20.49984375 48.8828125 21.3046875 C46.9375 23.0625 46.9375 23.0625 44.9375 23.0625 C44.9375 23.7225 44.9375 24.3825 44.9375 25.0625 C43.31410195 26.77134005 41.64430947 28.43696717 39.9375 30.0625 C39.2775 30.7225 38.6175 31.3825 37.9375 32.0625 C38.17592331 36.02202996 40.58243167 38.20084545 43.1875 41 C43.99574219 41.87527344 44.80398437 42.75054687 45.63671875 43.65234375 C47.39472802 45.49392562 49.16900679 47.29482644 51 49.0625 C52.9375 51.0625 52.9375 51.0625 52.9375 53.0625 C53.5975 53.0625 54.2575 53.0625 54.9375 53.0625 C56.62890625 54.77734375 56.62890625 54.77734375 58.5 57 C59.12003906 57.73089844 59.74007812 58.46179688 60.37890625 59.21484375 C60.89324219 59.82457031 61.40757812 60.43429687 61.9375 61.0625 C62.2675 61.3925 62.5975 61.7225 62.9375 62.0625 C62.97830783 64.06208364 62.98004356 66.06295254 62.9375 68.0625 C61.125 69.125 61.125 69.125 58.9375 70.0625 C57.9475 69.7325 56.9575 69.4025 55.9375 69.0625 C55.9375 68.4025 55.9375 67.7425 55.9375 67.0625 C54.6175 66.4025 53.2975 65.7425 51.9375 65.0625 C51.9375 64.4025 51.9375 63.7425 51.9375 63.0625 C50.9475 63.0625 49.9575 63.0625 48.9375 63.0625 C48.2775 61.0825 47.6175 59.1025 46.9375 57.0625 C45.9475 57.0625 44.9575 57.0625 43.9375 57.0625 C43.9375 56.4025 43.9375 55.7425 43.9375 55.0625 C43.2775 55.0625 42.6175 55.0625 41.9375 55.0625 C41.9375 54.4025 41.9375 53.7425 41.9375 53.0625 C41.2775 53.0625 40.6175 53.0625 39.9375 53.0625 C38.11020951 51.12719234 36.46854622 49.07202377 34.7890625 47.0078125 C32.93152052 45.05621776 31.40278691 44.094228 28.9375 43.0625 C28.52757812 43.495625 28.11765625 43.92875 27.6953125 44.375 C26.88707031 45.2103125 26.88707031 45.2103125 26.0625 46.0625 C25.52882812 46.619375 24.99515625 47.17625 24.4453125 47.75 C22.9375 49.0625 22.9375 49.0625 20.9375 49.0625 C20.504375 49.990625 20.504375 49.990625 20.0625 50.9375 C18.9375 53.0625 18.9375 53.0625 16.9375 55.0625 C13.9375 55.375 13.9375 55.375 10.9375 55.0625 C8.9375 52.0625 8.9375 52.0625 9.09765625 49.64453125 C10.06017615 46.68534216 11.29321889 45.04818248 13.375 42.75 C13.99246094 42.05261719 14.60992187 41.35523438 15.24609375 40.63671875 C16.9375 39.0625 16.9375 39.0625 18.9375 39.0625 C18.9375 38.4025 18.9375 37.7425 18.9375 37.0625 C19.5975 37.0625 20.2575 37.0625 20.9375 37.0625 C20.9375 35.0825 20.9375 33.1025 20.9375 31.0625 C20.36 30.815 19.7825 30.5675 19.1875 30.3125 C16.60810021 28.87950012 14.87628408 27.27825324 12.9375 25.0625 C12.9375 24.4025 12.9375 23.7425 12.9375 23.0625 C12.2775 23.0625 11.6175 23.0625 10.9375 23.0625 C10.9375 22.4025 10.9375 21.7425 10.9375 21.0625 C9.9475 20.7325 8.9575 20.4025 7.9375 20.0625 C6.21875 18.3203125 6.21875 18.3203125 4.4375 16.1875 C1.93484679 13.20865469 1.93484679 13.20865469 -0.78125 10.4296875 C-2.0625 9.0625 -2.0625 9.0625 -2.0625 7.0625 C-2.7225 7.0625 -3.3825 7.0625 -4.0625 7.0625 C-4.10504356 5.06295254 -4.10330783 3.06208364 -4.0625 1.0625 C-3.0625 0.0625 -3.0625 0.0625 0 0 Z " fill="#EDB934" transform="translate(112.0625,296.9375)"/>
<path d="M0 0 C2.375 2.125 2.375 2.125 5 5 C6.10161023 6.06515031 7.2057835 7.1276562 8.3125 8.1875 C11 11 11 11 11 13 C11.556875 13.226875 12.11375 13.45375 12.6875 13.6875 C15.63246684 15.35896766 17.68156544 17.55276352 20 20 C23.72614153 18.88145414 23.72614153 18.88145414 26 16 C26.66 16 27.32 16 28 16 C28.2475 15.4225 28.495 14.845 28.75 14.25 C30.18299988 11.67060021 31.78424676 9.93878408 34 8 C34.66 8 35.32 8 36 8 C36.2475 7.4225 36.495 6.845 36.75 6.25 C38.24553329 3.55804008 39.52513927 1.85614554 42 0 C45.25 0.25 45.25 0.25 48 1 C48.3125 3.25 48.3125 3.25 48 6 C46.36739286 7.37482707 44.69774938 8.70647667 43 10 C42.57654297 11.17175781 42.57654297 11.17175781 42.14453125 12.3671875 C40.70482975 15.67899232 38.93588354 16.97312686 36.0625 19.125 C29.86290762 23.42420676 29.86290762 23.42420676 27 30 C27.556875 30.061875 28.11375 30.12375 28.6875 30.1875 C33.55546523 31.89786616 37.12770464 36.85112893 40 41 C40 42.32 40 43.64 40 45 C36.9375 46 36.9375 46 33 46 C30.86787302 44.17184224 29.27216669 42.2167621 27.578125 39.98046875 C25.97668212 37.76414836 25.97668212 37.76414836 23 36 C23 35.34 23 34.68 23 34 C21.68 34 20.36 34 19 34 C18.75765625 34.56074219 18.5153125 35.12148437 18.265625 35.69921875 C16.7409088 38.47100221 14.92830776 40.51934948 12.75 42.8125 C12.00234375 43.62332031 11.2546875 44.43414062 10.484375 45.26953125 C8 47 8 47 4.703125 46.76171875 C3.36507812 46.38466797 3.36507812 46.38466797 2 46 C2 44.02 2 42.04 2 40 C2.66 40 3.32 40 4 40 C4.25394531 39.4121875 4.50789062 38.824375 4.76953125 38.21875 C6.50220599 35.09443492 8.97932932 33.12443908 11.63671875 30.78125 C13.23212282 29.10440801 13.23212282 29.10440801 12.85546875 26.9765625 C10.99010372 22.66663235 7.85079617 19.56719744 4 17 C4 16.34 4 15.68 4 15 C3.01 14.67 2.02 14.34 1 14 C1 13.34 1 12.68 1 12 C0.34 12 -0.32 12 -1 12 C-1 11.34 -1 10.68 -1 10 C-1.66 10 -2.32 10 -3 10 C-5.21747812 7.69723426 -5.96760006 6.47519908 -6.1875 3.25 C-6.125625 2.5075 -6.06375 1.765 -6 1 C-4 0 -4 0 0 0 Z " fill="#FBC83E" transform="translate(182,162)"/>
<path d="M0 0 C1.625 2.0625 1.625 2.0625 1.625 6.0625 C2.285 6.0625 2.945 6.0625 3.625 6.0625 C5.48302379 10.71823778 5.75849987 14.21164599 5.3125 19.1875 C5.21324219 20.38632813 5.11398437 21.58515625 5.01171875 22.8203125 C4.71129122 25.33904833 4.33138311 27.63544009 3.625 30.0625 C4.49125 30.44728516 4.49125 30.44728516 5.375 30.83984375 C7.76617817 32.07279499 9.66630205 33.21025302 11.625 35.0625 C12.58168602 38.2384751 12.44014304 40.86368111 11.625 44.0625 C9.41597202 47.00787064 7.61565845 47.06427167 4 47.75 C2.54347807 47.87700655 1.08469618 47.97959127 -0.375 48.0625 C-1.17550781 48.11535156 -1.97601563 48.16820312 -2.80078125 48.22265625 C-9.21798284 48.45219845 -16.00802016 47.87838224 -21.1171875 43.60546875 C-22.375 42.0625 -22.375 42.0625 -22.5625 39.6875 C-23.88478661 35.41549711 -27.64540291 34.19470362 -31.375 32.0625 C-35.29314422 29.33683446 -36.91981667 27.58760957 -38.375 23.0625 C-39.27378801 14.90025075 -38.54166377 9.09374511 -34.375 2.0625 C-34.375 1.0725 -34.375 0.0825 -34.375 -0.9375 C-23.40839722 -7.2082968 -10.26183683 -8.37149847 0 0 Z M-31.625 3.375 C-35.45964634 8.17332709 -36.8930779 12.77234344 -36.6796875 18.984375 C-35.80789734 24.93043098 -33.01001254 28.87521592 -28.3125 32.5 C-23.68212308 35.76170505 -20.05463355 36.52053496 -14.375 36.0625 C-7.70726967 34.13755524 -3.13637146 30.90218857 0.625 25.0625 C2.87575116 20.15177019 3.67233075 15.29229243 1.97265625 10.05078125 C-0.33881738 4.84252522 -3.64932181 1.23122621 -8.375 -1.9375 C-17.12041941 -4.8526398 -25.3584168 -3.41755541 -31.625 3.375 Z " fill="#EAADC9" transform="translate(268.375,227.9375)"/>
<path d="M0 0 C4.69994029 1.71728588 7.20959499 3.86606666 10 8 C11.56840852 12.70522555 11.54895539 16.52648816 9.8125 21.1875 C7.47953993 24.80761046 4.84455245 27.07772378 1 29 C-3.61891196 29.56350726 -7.09841312 29.4422879 -11.3125 27.375 C-14.83710435 24.26023336 -17.54048449 21.61173611 -18.3828125 16.82421875 C-18.65535778 11.41873732 -17.67213845 8.15531456 -14 4 C-9.44787756 0.06862153 -5.81719888 -0.95402062 0 0 Z M-12 8 C-12.85974801 10.29294488 -12.85974801 10.29294488 -13 13 C-11.16641665 15.33454661 -11.16641665 15.33454661 -9 17 C-8.01 16.67 -7.02 16.34 -6 16 C-4.78130071 13.49552484 -4.78130071 13.49552484 -4 11 C-5.31200404 9.64567325 -6.64631404 8.31266518 -8 7 C-9.36893239 6.94729537 -9.36893239 6.94729537 -12 8 Z " fill="#272727" transform="translate(255,230)"/>
<path d="M0 0 C5.34780019 2.62528373 7.41749336 5.83498672 10 11 C10.44364893 15.88013818 9.6348239 18.87210922 7 23 C3.12580113 27.15092736 0.02933574 28.91797958 -5.6875 29.265625 C-10.94832848 28.66134065 -14.72581425 25.60300788 -17.9375 21.5625 C-19.83550129 16.98496748 -20.39465152 14.24972981 -18.875 9.4375 C-14.21553818 0.89515332 -9.26832362 -1.02506805 0 0 Z M-12 7 C-12.66 7.66 -13.32 8.32 -14 9 C-13.67673447 12.59679066 -13.67673447 12.59679066 -13 16 C-10.58354218 16.16687448 -10.58354218 16.16687448 -8 16 C-5.7508092 14.17296773 -5.7508092 14.17296773 -5.75 11.5 C-5.7508092 8.82703227 -5.7508092 8.82703227 -8 7 C-9.32 7 -10.64 7 -12 7 Z " fill="#292929" transform="translate(153,226)"/>
<path d="M0 0 C2.21200511 3.31800766 2.85525767 6.30967907 3.6875 10.125 C5.11236515 16.37447146 7.17997115 21.97746598 9.8125 27.8125 C12.74160276 34.45702161 14.15948391 39.78863251 12 47 C10.8125 49.6875 10.8125 49.6875 9 52 C8.01926084 53.3113254 7.04025611 54.62394886 6.0625 55.9375 C5.53914063 56.6284375 5.01578125 57.319375 4.4765625 58.03125 C0.96506033 62.71325289 -1.95702184 67.61905692 -4.76171875 72.7421875 C-6.46720844 75.85188163 -8.23335087 78.92472188 -10 82 C-10.99 82 -11.98 82 -13 82 C-13.11029541 82.54889893 -13.22059082 83.09779785 -13.33422852 83.66333008 C-14.49246829 89.17303269 -16.063937 94.38454289 -17.9375 99.6875 C-24.25862974 118.1961042 -26.36573116 136.85248993 -26.31567383 156.30810547 C-26.31251114 158.86599339 -26.33609849 161.42272215 -26.36132812 163.98046875 C-26.47671086 194.71430071 -17.69038589 220.13167876 3 243 C-8.70820376 238.1663379 -16.01381656 223.07536905 -20.72265625 212.078125 C-36.76573281 172.58969925 -30.77050125 121.84045253 -14.84472656 83.04663086 C-8.41788114 67.86219164 -0.79413593 52.79413593 11 41 C10.65085823 36.28316313 9.03868281 32.3788022 7.1875 28.0625 C3.57563228 19.37178389 -0.46729023 9.52553168 0 0 Z " fill="#FEFAD9" transform="translate(111,133)"/>
<path d="M0 0 C0 3.90838866 -1.50567876 5.11594107 -4 8 C-2.64337545 11.5809379 -1.03587538 14.98685523 0.66503906 18.41577148 C13.63559821 44.8555192 19.39604124 73.19494869 19.31567383 102.52905273 C19.31250562 104.93323904 19.33613576 107.33619772 19.36132812 109.74023438 C19.41929916 123.77672771 18.01388575 137.93269243 13.3125 151.25 C13.0561377 151.98758545 12.79977539 152.7251709 12.53564453 153.48510742 C6.03469817 171.39268156 -5.8852197 185.84296421 -22 196 C-22.66 196 -23.32 196 -24 196 C-24 195.34 -24 194.68 -24 194 C-22.44999703 193.00836424 -20.85690047 192.0840052 -19.25 191.1875 C-2.53908314 180.77812579 7.84302539 162.65611402 13 144 C14.34353779 138.05360128 15.21192248 132.0409645 16 126 C16.2784375 124.13794922 16.2784375 124.13794922 16.5625 122.23828125 C17.23467258 116.73819711 17.19074865 111.22116582 17.1875 105.6875 C17.18814453 104.54772705 17.18878906 103.4079541 17.18945312 102.23364258 C17.136492 93.64611595 16.52547863 85.24344132 15.4375 76.73046875 C15.08935662 73.76192471 14.90633156 70.97982709 15 68 C14.34 68 13.68 68 13 68 C10.84856834 61.30532161 8.88241476 54.61682506 7.18359375 47.79516602 C5.42626622 40.77069132 3.6235074 34.38092574 0.0625 28.015625 C-0.9908061 26.01744136 -1.62025401 24.18035177 -2.1875 22 C-2.75694179 18.91127857 -2.75694179 18.91127857 -5 17 C-5 16.01 -5 15.02 -5 14 C-5.66 14 -6.32 14 -7 14 C-9 11 -9 11 -10 8 C-9.40703125 7.90847656 -8.8140625 7.81695312 -8.203125 7.72265625 C-5.47465343 6.82767887 -4.52874959 5.66093699 -2.75 3.4375 C-2.22921875 2.79683594 -1.7084375 2.15617188 -1.171875 1.49609375 C-0.78515625 1.00238281 -0.3984375 0.50867188 0 0 Z " fill="#FEF9D1" transform="translate(304,188)"/>
<path d="M0 0 C0.54527344 0.42152344 1.09054688 0.84304687 1.65234375 1.27734375 C8.43865735 6.20757158 13.77329529 7.6632797 22.0625 6.5625 C23.031875 6.376875 24.00125 6.19125 25 6 C24.67 6.66 24.34 7.32 24 8 C23.34 8 22.68 8 22 8 C22.1546875 9.36125 22.1546875 9.36125 22.3125 10.75 C22 14 22 14 19.921875 16.171875 C14.44715148 19.59723678 8.23225569 18.62753216 2 18 C-2.16870476 17.03556452 -6.14698002 15.87851864 -10 14 C-11.39431504 11.21136993 -11.25660094 9.07921132 -11 6 C-8 4 -8 4 -4 4 C-4 3.34 -4 2.68 -4 2 C-2.68 2 -1.36 2 0 2 C0 1.34 0 0.68 0 0 Z " fill="#EBB7C5" transform="translate(132,252)"/>
<path d="M0 0 C3.54177486 2.79048929 4.92917699 4.54520373 5.49609375 9.13671875 C5.52033558 10.52843533 5.52015934 11.9207183 5.5 13.3125 C5.49097656 14.0650708 5.48195313 14.8176416 5.47265625 15.59301758 C4.80829634 37.74526849 -5.09777555 59.70566613 -15.9375 78.625 C-17.47576616 75.54846768 -16.49689052 73.10525382 -15.73828125 69.84375 C-14.9375 67.625 -14.9375 67.625 -12.5 65.3125 C-9.08246882 61.72825998 -8.6550761 58.394968 -7.625 53.63671875 C-6.74529254 49.78300029 -5.3812654 46.30003921 -3.9375 42.625 C-3.78539062 41.9134375 -3.63328125 41.201875 -3.4765625 40.46875 C-3.29867187 39.8603125 -3.12078125 39.251875 -2.9375 38.625 C-2.2775 38.295 -1.6175 37.965 -0.9375 37.625 C2.47993377 29.18192834 3.98244798 17.38484394 1.0625 8.625 C0.4025 7.965 -0.2575 7.305 -0.9375 6.625 C-1.4325 5.14 -1.4325 5.14 -1.9375 3.625 C-7.60029693 0.95386937 -12.4114215 0.10747414 -18.625 0.1875 C-19.43155029 0.19144775 -20.23810059 0.19539551 -21.0690918 0.19946289 C-30.16118733 0.40766552 -38.92294084 2.22929944 -47.77978516 4.16748047 C-50.4858069 4.74126241 -53.20426976 5.20141619 -55.9375 5.625 C-44.77014356 -5.54235644 -13.40342913 -6.27394555 0 0 Z " fill="#A5DBAB" transform="translate(331.9375,95.375)"/>
<path d="M0 0 C1.625 2.0625 1.625 2.0625 1.625 6.0625 C2.285 6.0625 2.945 6.0625 3.625 6.0625 C5.48302379 10.71823778 5.75849987 14.21164599 5.3125 19.1875 C5.21324219 20.38632813 5.11398437 21.58515625 5.01171875 22.8203125 C4.625 26.0625 4.625 26.0625 3.89453125 28.3046875 C3.76111328 29.17480469 3.76111328 29.17480469 3.625 30.0625 C4.97944301 31.83440909 4.97944301 31.83440909 6.625 33.0625 C5.96113281 32.94390625 5.29726563 32.8253125 4.61328125 32.703125 C-1.10533634 31.72924735 -1.10533634 31.72924735 -6.25 33.9375 C-7.301875 34.989375 -7.301875 34.989375 -8.375 36.0625 C-13.73943094 37.87386629 -20.44510617 38.2956203 -25.6953125 36.0859375 C-27.69470045 34.84677311 -29.53093533 33.52098751 -31.375 32.0625 C-32.32375 31.4025 -33.2725 30.7425 -34.25 30.0625 C-37.40312641 27.09485162 -38.24047709 24.28415573 -38.7109375 20.01171875 C-38.79793787 12.74718797 -38.0737236 8.30409608 -34.375 2.0625 C-34.375 1.0725 -34.375 0.0825 -34.375 -0.9375 C-23.40839722 -7.2082968 -10.26183683 -8.37149847 0 0 Z M-31.625 3.375 C-35.45964634 8.17332709 -36.8930779 12.77234344 -36.6796875 18.984375 C-35.80789734 24.93043098 -33.01001254 28.87521592 -28.3125 32.5 C-23.68212308 35.76170505 -20.05463355 36.52053496 -14.375 36.0625 C-7.70726967 34.13755524 -3.13637146 30.90218857 0.625 25.0625 C2.87575116 20.15177019 3.67233075 15.29229243 1.97265625 10.05078125 C-0.33881738 4.84252522 -3.64932181 1.23122621 -8.375 -1.9375 C-17.12041941 -4.8526398 -25.3584168 -3.41755541 -31.625 3.375 Z " fill="#FAEAA3" transform="translate(268.375,227.9375)"/>
<path d="M0 0 C4.36009948 1.8300611 7.34818621 6.06614184 10.01953125 9.84765625 C10.01953125 10.50765625 10.01953125 11.16765625 10.01953125 11.84765625 C9.35953125 11.84765625 8.69953125 11.84765625 8.01953125 11.84765625 C7.52453125 9.86765625 7.52453125 9.86765625 7.01953125 7.84765625 C5.69953125 8.17765625 4.37953125 8.50765625 3.01953125 8.84765625 C2.52453125 7.36265625 2.52453125 7.36265625 2.01953125 5.84765625 C-1.21525671 4.74904902 -2.67665792 4.29100794 -5.98046875 4.84765625 C-11.84908481 8.84934344 -16.52247861 13.12838414 -18.98046875 19.84765625 C-19.80546875 20.48703125 -20.63046875 21.12640625 -21.48046875 21.78515625 C-24.46390724 24.24649301 -25.05700179 26.15378843 -25.98046875 29.84765625 C-26.64046875 29.84765625 -27.30046875 29.84765625 -27.98046875 29.84765625 C-30.87433438 33.41861223 -33.0125306 37.32078177 -34.10546875 41.78515625 C-34.39421875 42.79578125 -34.68296875 43.80640625 -34.98046875 44.84765625 C-36.46546875 45.34265625 -36.46546875 45.34265625 -37.98046875 45.84765625 C-39.01060152 47.49586869 -40.01161503 49.16269327 -40.98046875 50.84765625 C-41.97046875 51.34265625 -41.97046875 51.34265625 -42.98046875 51.84765625 C-43.9228038 53.8379821 -44.78761687 55.86552654 -45.60546875 57.91015625 C-46.05148438 59.01488281 -46.4975 60.11960938 -46.95703125 61.2578125 C-47.29476562 62.11246094 -47.6325 62.96710938 -47.98046875 63.84765625 C-49.44263546 59.46115612 -47.38424492 56.5283749 -45.54296875 52.53515625 C-45.17679443 51.73062012 -44.81062012 50.92608398 -44.43334961 50.09716797 C-37.90383127 35.98692218 -19.48714998 -2.9128161 0 0 Z " fill="#89DE9B" transform="translate(232.98046875,20.15234375)"/>
<path d="M0 0 C0 0.33 0 0.66 0 1 C-1.26457031 1.06058594 -2.52914062 1.12117188 -3.83203125 1.18359375 C-5.49219871 1.26800904 -7.15235437 1.35265655 -8.8125 1.4375 C-9.64587891 1.47681641 -10.47925781 1.51613281 -11.33789062 1.55664062 C-12.14033203 1.59853516 -12.94277344 1.64042969 -13.76953125 1.68359375 C-14.50792236 1.72025146 -15.24631348 1.75690918 -16.00708008 1.79467773 C-19.20340421 2.12398174 -20.78101667 2.78101667 -23.0625 5.0625 C-23.701875 5.701875 -24.34125 6.34125 -25 7 C-25.66 7 -26.32 7 -27 7 C-27.06058594 7.62648438 -27.12117188 8.25296875 -27.18359375 8.8984375 C-27.26738281 9.71570313 -27.35117188 10.53296875 -27.4375 11.375 C-27.51871094 12.18710938 -27.59992188 12.99921875 -27.68359375 13.8359375 C-28 16 -28 16 -29 18 C-30.6138475 27.05610465 -30.11305855 36.46531689 -30.0625 45.625 C-30.05747395 47.21744651 -30.052913 48.80989455 -30.04882812 50.40234375 C-30.03791237 54.26826779 -30.02070895 58.13411653 -30 62 C-30.33 62 -30.66 62 -31 62 C-32.60622349 52.6017078 -33.3463357 43.46358737 -33.31567383 33.93115234 C-33.31249064 31.86893831 -33.33618128 29.80813465 -33.36132812 27.74609375 C-33.40571111 18.4201016 -33.03475735 8.18807583 -28 0 C-18.58343045 -5.27327895 -9.95134345 -2.54851479 0 0 Z " fill="#9ADAA4" transform="translate(141,71)"/>
<path d="M0 0 C0.33 0.66 0.66 1.32 1 2 C5.12973628 1.43260132 5.12973628 1.43260132 9 0 C9.66 0.66 10.32 1.32 11 2 C13.4592364 2.48057454 15.82950254 2.8445687 18.3125 3.125 C19.02148438 3.20991699 19.73046875 3.29483398 20.4609375 3.38232422 C26.97892061 4.10670651 33.44578169 4.20201358 40 4 C40 4.66 40 5.32 40 6 C41.65 6 43.3 6 45 6 C45.33 5.34 45.66 4.68 46 4 C46.99 4 47.98 4 49 4 C49 5.65 49 7.3 49 9 C49.99 9.33 50.98 9.66 52 10 C52.495 10.99 52.495 10.99 53 12 C56.62561178 14.06000669 59.87202695 15.39294514 64 16 C64 17.65 64 19.3 64 21 C63.05253906 20.45472656 63.05253906 20.45472656 62.0859375 19.8984375 C45.29250767 10.46120748 30.55954461 5.77856382 11.375 5.6875 C10.24296143 5.68186035 9.11092285 5.6762207 7.94458008 5.67041016 C0.45693372 5.73463508 -6.65659958 6.54646266 -14 8 C-14 6.02 -14 4.04 -14 2 C-13.01 1.67 -12.02 1.34 -11 1 C-10.67 1.99 -10.34 2.98 -10 4 C-9.01 4 -8.02 4 -7 4 C-5.33333333 4 -3.66666667 4 -2 4 C-1.34 2.68 -0.68 1.36 0 0 Z " fill="#6CC95B" transform="translate(191,130)"/>
<path d="M0 0 C2.21200511 3.31800766 2.85525767 6.30967907 3.6875 10.125 C5.11236515 16.37447146 7.17997115 21.97746598 9.8125 27.8125 C12.74160276 34.45702161 14.15948391 39.78863251 12 47 C10.8125 49.6875 10.8125 49.6875 9 52 C8.01926084 53.3113254 7.04025611 54.62394886 6.0625 55.9375 C5.53914063 56.6284375 5.01578125 57.319375 4.4765625 58.03125 C0.96506033 62.71325289 -1.95702184 67.61905692 -4.76171875 72.7421875 C-6.46720844 75.85188163 -8.23335087 78.92472188 -10 82 C-10.66 82 -11.32 82 -12 82 C-10.78675794 78.86579134 -9.45907116 75.80533385 -8.0625 72.75 C-6.69397787 69.73427488 -5.63534757 66.81225126 -4.75 63.625 C-2.15130195 55.50229351 4.01976898 48.58863941 10.06640625 42.73046875 C11.56873605 39.94581561 10.76856493 38.00175361 10 35 C9.11338387 32.66751756 8.17105102 30.35579237 7.1875 28.0625 C3.57563228 19.37178389 -0.46729023 9.52553168 0 0 Z " fill="#F8E38C" transform="translate(111,133)"/>
<path d="M0 0 C0 3.90838866 -1.50567876 5.11594107 -4 8 C-2.64298432 11.58197031 -1.03425365 14.98865123 0.66577148 18.41918945 C7.10281863 31.52861665 14.21062688 46.93731172 14.0625 61.75 C14.05347656 62.92046875 14.04445313 64.0909375 14.03515625 65.296875 C14.02355469 66.18890625 14.01195312 67.0809375 14 68 C10.69836799 61.67113197 8.9026035 54.86481834 7.2121582 47.95996094 C5.47752176 40.87716265 3.64641846 34.42187925 0.0625 28.015625 C-0.9908061 26.01744136 -1.62025401 24.18035177 -2.1875 22 C-2.75694179 18.91127857 -2.75694179 18.91127857 -5 17 C-5 16.01 -5 15.02 -5 14 C-5.66 14 -6.32 14 -7 14 C-9 11 -9 11 -10 8 C-9.40703125 7.90847656 -8.8140625 7.81695312 -8.203125 7.72265625 C-5.47465343 6.82767887 -4.52874959 5.66093699 -2.75 3.4375 C-2.22921875 2.79683594 -1.7084375 2.15617188 -1.171875 1.49609375 C-0.78515625 1.00238281 -0.3984375 0.50867188 0 0 Z " fill="#F9E99E" transform="translate(304,188)"/>
<path d="M0 0 C3.63432954 0.31151396 4.83343049 0.82915947 7.4375 3.5 C10.5017791 6.48954058 11.78384067 6.75676004 16 7 C16.69351563 7.061875 17.38703125 7.12375 18.1015625 7.1875 C23.36686647 7.47700125 26.69843882 6.565123 31.17578125 3.77734375 C33.49267282 2.79006019 34.66979234 3.18211254 37 4 C36.9375 5.75 36.9375 5.75 36 8 C28.27233065 13.10317787 21.24827923 13.96381364 12 13 C6.54225954 11.10473278 1.94252249 8.08253885 -1 3 C-0.67 2.01 -0.34 1.02 0 0 Z " fill="#1A1204" transform="translate(179,259)"/>
<path d="M0 0 C0.66 0.33 1.32 0.66 2 1 C1.3503125 1.76570312 1.3503125 1.76570312 0.6875 2.546875 C-3.62387465 8.17561413 -4.62747102 12.24936123 -4.40625 19.30078125 C-4.00388778 21.97416872 -3.21493874 23.62401094 -2 26 C-2 27.32 -2 28.64 -2 30 C-3.32 30 -4.64 30 -6 30 C-6 30.66 -6 31.32 -6 32 C-8.31 32.66 -10.62 33.32 -13 34 C-12.67 36.64 -12.34 39.28 -12 42 C-2.98406134 44.82062886 9.12262345 48.04405957 17.94140625 43.4765625 C18.96041016 42.74566406 18.96041016 42.74566406 20 42 C20 43.32 20 44.64 20 46 C9.76971475 48.77431465 -0.24148081 49.61311816 -10 45 C-11.2065625 44.4740625 -11.2065625 44.4740625 -12.4375 43.9375 C-14 43 -14 43 -15 41 C-15.375 37.6875 -15.375 37.6875 -15 34 C-12.625 31.0625 -12.625 31.0625 -10 29 C-9.34 29 -8.68 29 -8 29 C-7.97421875 27.7934375 -7.9484375 26.586875 -7.921875 25.34375 C-7.86555114 23.72913262 -7.8082048 22.11455067 -7.75 20.5 C-7.72873047 19.31277344 -7.72873047 19.31277344 -7.70703125 18.1015625 C-7.40865372 10.82115083 -5.40260005 5.04345652 0 0 Z " fill="#FDD172" transform="translate(134,224)"/>
<path d="M0 0 C-2.72985205 1.81990136 -5.37684653 3.05196169 -8.39331055 4.30761719 C-24.71621199 11.12506264 -37.81196524 21.2450799 -50 34 C-53.29737324 31.31655211 -54.61094587 27.7640499 -56.1875 23.9375 C-56.46013672 23.30005859 -56.73277344 22.66261719 -57.01367188 22.00585938 C-59 17.28148496 -59 17.28148496 -59 15 C-58.34 15 -57.68 15 -57 15 C-56.54625 16.0725 -56.0925 17.145 -55.625 18.25 C-54.75087221 20.30482173 -53.85577339 22.27327148 -52.8125 24.25 C-52 26 -52 26 -52 29 C-51.01 29 -50.02 29 -49 29 C-48.731875 28.38125 -48.46375 27.7625 -48.1875 27.125 C-46.4321693 23.98388191 -44.34337135 23.11445712 -41 22 C-40.5875 21.195625 -40.175 20.39125 -39.75 19.5625 C-37.36341196 16.06785323 -35.03424517 15.83729617 -31 15 C-31 14.01 -31 13.02 -31 12 C-29.13854138 11.06927069 -27.27683571 10.13903299 -25.4140625 9.2109375 C-23.77967189 8.39109755 -22.14954963 7.56270218 -20.5234375 6.7265625 C-6.21507441 -0.58266323 -6.21507441 -0.58266323 0 0 Z " fill="#67A14C" transform="translate(176,138)"/>
<path d="M0 0 C13.06518412 2.25159636 26.68478073 21.01604096 34.09765625 31.24609375 C34.72542969 32.15488281 35.35320312 33.06367188 36 34 C36.76183594 35.04285156 37.52367187 36.08570313 38.30859375 37.16015625 C38.86675781 38.09730469 39.42492187 39.03445312 40 40 C39.67 40.99 39.34 41.98 39 43 C36.17970072 41.58985036 35.41850081 39.77252431 34 37 C34 35.68 34 34.36 34 33 C33.071875 32.566875 33.071875 32.566875 32.125 32.125 C30 31 30 31 28 29 C27.01 29.33 26.02 29.66 25 30 C24.01 27.03 23.02 24.06 22 21 C21.01 21.33 20.02 21.66 19 22 C18.01 21.01 17.02 20.02 16 19 C16.66 18.34 17.32 17.68 18 17 C15.1575146 15.42726432 15.1575146 15.42726432 12 15 C12 14.01 12 13.02 12 12 C11.01 12 10.02 12 9 12 C8.938125 11.236875 8.87625 10.47375 8.8125 9.6875 C8.24093374 6.80623326 8.24093374 6.80623326 5.625 5.3125 C4.75875 4.879375 3.8925 4.44625 3 4 C2.01 3.34 1.02 2.68 0 2 C0 1.34 0 0.68 0 0 Z " fill="#ECE472" transform="translate(256,153)"/>
<path d="M0 0 C0.33 0 0.66 0 1 0 C1.01458252 0.8751123 1.02916504 1.75022461 1.04418945 2.65185547 C1.40368462 26.48597864 1.40368462 26.48597864 5 50 C5.20367187 50.99902344 5.40734375 51.99804688 5.6171875 53.02734375 C9.40797297 69.33708125 19.93939941 83.77512566 31 96 C19.29179624 91.1663379 11.98618344 76.07536905 7.27734375 65.078125 C0.95284894 49.38211921 -0.4402664 34.80072308 -0.1875 18.0625 C-0.17240659 16.30014181 -0.15872653 14.53777093 -0.14648438 12.77539062 C-0.11389183 8.51660544 -0.06237494 4.25844879 0 0 Z " fill="#FDF2C5" transform="translate(83,280)"/>
<path d="M0 0 C0.66 0.33 1.32 0.66 2 1 C1.38511719 1.65355469 1.38511719 1.65355469 0.7578125 2.3203125 C-4.16494472 7.76125469 -6.55544902 12.32353888 -6.30859375 19.91796875 C-5.62215658 24.54924736 -3.73923109 28.40306963 -0.28125 31.578125 C4.71887574 35.26465838 8.68518225 36.5092595 15 36 C21.32871807 34.10355195 25.36295729 31.51067077 29 26 C31.48774512 20.78758166 31.20101707 15.65081317 31 10 C33.44950621 12.44950621 33.32271254 13.24723021 33.375 16.625 C33.20931766 23.02217915 31.49601112 27.36077513 27.09375 32.015625 C21.14771252 37.47355492 16.83785692 38.41570286 8.8203125 38.3515625 C4.34880582 37.79417247 1.46855594 35.74331243 -2 33 C-2.94875 32.34 -3.8975 31.68 -4.875 31 C-8.815585 27.29121412 -9.36575531 23.0049871 -9.5625 17.75 C-9.48970017 10.6237051 -6.95446043 6.89841449 -2 2 C-1.34 1.34 -0.68 0.68 0 0 Z " fill="#FCF1C8" transform="translate(239,227)"/>
<path d="M0 0 C2.27830106 6.83490317 2.7199694 16.48351806 -0.4921875 23.05078125 C-2.2126848 25.2317436 -3.9450565 27.13567343 -6 29 C-6.66 29.66 -7.32 30.32 -8 31 C-9.485 30.505 -9.485 30.505 -11 30 C-9.6078125 28.948125 -9.6078125 28.948125 -8.1875 27.875 C-4.22265332 24.49128924 -2.32043569 21.52432119 -1.6484375 16.23046875 C-1.31008493 9.15177687 -2.27478299 4.37324677 -7 -1 C-11.87615036 -5.4459018 -16.72308626 -5.20622372 -23.03515625 -5.16796875 C-26.30325301 -4.98281966 -29.00665876 -4.33037388 -32 -3 C-27.78311681 -7.63857151 -23.52769322 -8.49169336 -17.44921875 -8.953125 C-10.32061374 -9.08955763 -4.99323833 -4.71992424 0 0 Z " fill="#F9EDA7" transform="translate(168,227)"/>
<path d="M0 0 C-23.7363409 12.04760283 -50.14476404 14.23612172 -76.375 14.0625 C-77.70833161 14.05746427 -79.04166511 14.0529051 -80.375 14.04882812 C-83.58338361 14.03720355 -86.79166551 14.02086669 -90 14 C-90 13.67 -90 13.34 -90 13 C-89.21463867 12.97494385 -88.42927734 12.9498877 -87.62011719 12.92407227 C-83.99663572 12.80667913 -80.37332532 12.68461408 -76.75 12.5625 C-75.51507813 12.52318359 -74.28015625 12.48386719 -73.0078125 12.44335938 C-60.16821452 12.81050002 -60.16821452 12.81050002 -48 10 C-45.20846836 9.67677002 -42.42192984 9.39119878 -39.625 9.125 C-28.49059478 7.9582342 -9.35478369 -2.80643511 0 0 Z " fill="#FCF0B9" transform="translate(278,386)"/>
<path d="M0 0 C3.01548064 2.73941551 5.64863762 5.67144806 8 9 C8 9.66 8 10.32 8 11 C7.34 11 6.68 11 6 11 C5.505 9.02 5.505 9.02 5 7 C3.68 7.33 2.36 7.66 1 8 C0.505 6.515 0.505 6.515 0 5 C-5.41071066 3.840562 -8.98180769 3.60976499 -13.859375 6.375 C-21.10010118 11.87160966 -26.79170388 19.61099454 -32 27 C-32 22.91877466 -29.92771793 20.87994552 -27.5 17.8125 C-27.04584717 17.23314697 -26.59169434 16.65379395 -26.1237793 16.05688477 C-10.32953361 -3.80561765 -10.32953361 -3.80561765 0 0 Z " fill="#C0F0CA" transform="translate(235,21)"/>
<path d="M0 0 C1.32 0.33 2.64 0.66 4 1 C4.61714286 9.17714286 4.61714286 9.17714286 2.5 12 C-0.96836794 13.38734717 -4.3074187 13.79026647 -8 14 C-9.20076172 14.07927734 -9.20076172 14.07927734 -10.42578125 14.16015625 C-16.85096188 14.38998386 -23.60405795 13.8020329 -28.7421875 9.5625 C-30.50200776 7.37638788 -30.22073079 5.72234642 -30 3 C-29.731875 3.598125 -29.46375 4.19625 -29.1875 4.8125 C-27.9565726 7.07999784 -27.00360274 8.38519395 -25 10 C-22.68749164 10.50246675 -22.68749164 10.50246675 -20.11328125 10.51171875 C-19.17548828 10.54716797 -18.23769531 10.58261719 -17.27148438 10.61914062 C-16.29501953 10.64169922 -15.31855469 10.66425781 -14.3125 10.6875 C-13.32443359 10.72166016 -12.33636719 10.75582031 -11.31835938 10.79101562 C-8.87901947 10.87350538 -6.44003937 10.94265068 -4 11 C-4 10.34 -4 9.68 -4 9 C-2.68 9 -1.36 9 0 9 C0 8.34 0 7.68 0 7 C0.66 7 1.32 7 2 7 C1.34 4.69 0.68 2.38 0 0 Z " fill="#EEB7A5" transform="translate(276,262)"/>
<path d="M0 0 C2.21221159 3.31831738 2.85430607 6.30970428 3.6875 10.125 C5.31203133 17.18145622 7.71189184 23.65427781 10.71362305 30.23876953 C12.52799147 34.32839255 13.49644757 37.51855437 13 42 C11.625 43.625 11.625 43.625 10 45 C9.690625 45.639375 9.38125 46.27875 9.0625 46.9375 C8 49 8 49 6.19921875 50.73828125 C3.63841899 53.37185684 1.75548073 56.17492954 -0.25 59.25 C-0.95640625 60.32765625 -1.6628125 61.4053125 -2.390625 62.515625 C-3.18726562 63.74539062 -3.18726562 63.74539062 -4 65 C-4.33 64.34 -4.66 63.68 -5 63 C-3.74262429 60.69682622 -2.44378403 58.55742462 -1 56.375 C-0.59152832 55.74271484 -0.18305664 55.11042969 0.23779297 54.45898438 C3.06856274 50.16159157 6.125617 46.3838631 9.8828125 42.84375 C11.25949862 40.96128568 11.25949862 40.96128568 10.85546875 38.21484375 C9.91063377 34.66416254 8.63582132 31.43947199 7.1875 28.0625 C3.57563228 19.37178389 -0.46729023 9.52553168 0 0 Z " fill="#D3EFD6" transform="translate(111,133)"/>
<path d="M0 0 C0.66 0.66 1.32 1.32 2 2 C-12.01736374 10.98469791 -28.54667885 14.22875057 -45 15 C-45.66 14.67 -46.32 14.34 -47 14 C-45.11236696 12.11236696 -41.7824478 12.46400195 -39.25 12.1875 C-31.84968627 11.29974643 -25.06804621 9.36906812 -18 7 C-16.62766379 6.61536598 -15.25314377 6.23827639 -13.875 5.875 C-10.84185733 5.10286484 -10.84185733 5.10286484 -8 3 C-5.95703125 2.5859375 -5.95703125 2.5859375 -3.8125 2.375 C-2.554375 2.25125 -1.29625 2.1275 0 2 C0 1.34 0 0.68 0 0 Z " fill="#F5C955" transform="translate(275,382)"/>
<path d="M0 0 C0 0.33 0 0.66 0 1 C-2.01822917 1.42317708 -4.03645833 1.84635417 -6.0546875 2.26953125 C-8.37046549 2.92308838 -8.37046549 2.92308838 -10 6 C-9.401875 6.103125 -8.80375 6.20625 -8.1875 6.3125 C-5.53960178 7.14469658 -4.49509034 7.63933104 -3 10 C-3.3125 13.6875 -3.3125 13.6875 -4 17 C-7.25 17.75 -7.25 17.75 -11 18 C-13.94572605 15.82946501 -14.84060941 14.47817177 -16 11 C-16.66 10.67 -17.32 10.34 -18 10 C-13.45005313 2.30008991 -9.01163057 -0.62149176 0 0 Z M-12 8 C-12.85974801 10.29294488 -12.85974801 10.29294488 -13 13 C-11.16641665 15.33454661 -11.16641665 15.33454661 -9 17 C-8.01 16.67 -7.02 16.34 -6 16 C-4.78130071 13.49552484 -4.78130071 13.49552484 -4 11 C-5.31200404 9.64567325 -6.64631404 8.31266518 -8 7 C-9.36893239 6.94729537 -9.36893239 6.94729537 -12 8 Z " fill="#A2A1A2" transform="translate(255,230)"/>
<path d="M0 0 C0.99 0 1.98 0 3 0 C3 1.98 3 3.96 3 6 C-4.25889087 7.19091178 -11.49891994 7.15204865 -18.8359375 7.13037109 C-20.9948631 7.12501275 -23.15358073 7.13034012 -25.3125 7.13671875 C-31.94686454 7.13959027 -38.44183479 7.07594898 -45 6 C-45 5.67 -45 5.34 -45 5 C-32.56823538 4.39987887 -20.16444135 3.8453749 -7.71557617 4.03710938 C-3.72937302 4.18434171 -3.72937302 4.18434171 0 3 C0 2.01 0 1.02 0 0 Z " fill="#F1CB63" transform="translate(221,392)"/>
<path d="M0 0 C0.33 0 0.66 0 1 0 C1.02505615 1.14065918 1.0501123 2.28131836 1.07592773 3.45654297 C1.16994293 7.67964341 1.27017787 11.90257709 1.37231445 16.12548828 C1.41568565 17.95487575 1.45735911 19.78430427 1.49731445 21.61376953 C1.55496418 24.24003486 1.61867365 26.8660931 1.68359375 29.4921875 C1.70030624 30.31306854 1.71701874 31.13394958 1.73423767 31.97970581 C1.7431387 36.1233696 1.7431387 36.1233696 3 40 C3.27632858 43.04838667 3.44658298 46.09654869 3.62109375 49.15234375 C3.81367373 52.19729591 3.81367373 52.19729591 6 55 C7.32570544 59.86091995 7.54334085 64.99618164 8 70 C6 69 6 69 5.32983398 67.08569336 C5.13719971 66.26206299 4.94456543 65.43843262 4.74609375 64.58984375 C4.53146484 63.68169922 4.31683594 62.77355469 4.09570312 61.83789062 C3.87849609 60.88076172 3.66128906 59.92363281 3.4375 58.9375 C3.21642578 58.00744141 2.99535156 57.07738281 2.76757812 56.11914062 C0.76099732 47.49266183 -0.15236782 39.30587023 -0.09765625 30.46875 C-0.0962413 29.59222778 -0.09482635 28.71570557 -0.09336853 27.81262207 C-0.08781768 25.04171179 -0.07527461 22.27088543 -0.0625 19.5 C-0.05747864 17.60937618 -0.05291685 15.71875107 -0.04882812 13.828125 C-0.0378644 9.21871817 -0.02063425 4.60937327 0 0 Z " fill="#F5D370" transform="translate(84,272)"/>
<path d="M0 0 C0 3.90838866 -1.50567876 5.11594107 -4 8 C-2.83710647 11.07466613 -1.52243904 14.04028511 -0.08984375 16.99609375 C0.26013672 17.71990234 0.61011719 18.44371094 0.97070312 19.18945312 C1.69778175 20.68653273 2.4295497 22.18134408 3.16601562 23.67382812 C5.14821387 27.79577457 6.52493713 31.38823582 7 36 C4.2952035 33.6543149 3.29077167 31.5455414 2.125 28.1875 C0.86106004 24.82679143 -0.36060894 22.24887752 -2.75 19.5625 C-5 17 -5 17 -5 14 C-5.66 14 -6.32 14 -7 14 C-9 11 -9 11 -10 8 C-9.40703125 7.90847656 -8.8140625 7.81695312 -8.203125 7.72265625 C-5.47465343 6.82767887 -4.52874959 5.66093699 -2.75 3.4375 C-2.22921875 2.79683594 -1.7084375 2.15617188 -1.171875 1.49609375 C-0.78515625 1.00238281 -0.3984375 0.50867188 0 0 Z " fill="#F6F1BC" transform="translate(304,188)"/>
<path d="M0 0 C-0.474375 0.721875 -0.94875 1.44375 -1.4375 2.1875 C-2.94152903 4.89475226 -3.56599182 6.96194275 -4 10 C-4.99 10.33 -5.98 10.66 -7 11 C-8.03013277 12.64821244 -9.03114628 14.31503702 -10 16 C-10.66 16.33 -11.32 16.66 -12 17 C-12.94233505 18.99032585 -13.80714812 21.01787029 -14.625 23.0625 C-15.07101563 24.16722656 -15.51703125 25.27195312 -15.9765625 26.41015625 C-16.48316406 27.69212891 -16.48316406 27.69212891 -17 29 C-18.1456504 25.56304881 -17.91448324 25.15772057 -16.48828125 22.015625 C-16.14216797 21.24476562 -15.79605469 20.47390625 -15.43945312 19.6796875 C-15.06755859 18.87789062 -14.69566406 18.07609375 -14.3125 17.25 C-13.78366211 16.07050781 -13.78366211 16.07050781 -13.24414062 14.8671875 C-7.38967878 1.98094973 -7.38967878 1.98094973 -3.875 -0.5 C-2 -1 -2 -1 0 0 Z " fill="#A9E8B5" transform="translate(202,55)"/>
<path d="M0 0 C3.75118749 3.38930666 5.15443399 7.47110554 7.0625 12.0625 C7.41376953 12.87138672 7.76503906 13.68027344 8.12695312 14.51367188 C10.53777679 20.25134106 12.00122238 25.86139044 13 32 C9 27.375 9 27.375 9 24 C8.34 24 7.68 24 7 24 C6.67 21.03 6.34 18.06 6 15 C5.34 15 4.68 15 4 15 C3.525625 13.865625 3.05125 12.73125 2.5625 11.5625 C1.36377917 8.24259834 1.36377917 8.24259834 0 7 C-0.04092937 4.66702567 -0.04241723 2.33294775 0 0 Z " fill="#BBECC5" transform="translate(243,32)"/>
<path d="M0 0 C1.2380014 3.57644848 0.74926071 6.33694766 0 10 C-0.33 10 -0.66 10 -1 10 C-2.58499816 16.33999265 -3.52723888 22.65799972 -4.21435547 29.15039062 C-4.72011595 33.64357999 -5.66053077 37.70253623 -7 42 C-7.33 42 -7.66 42 -8 42 C-7.78088449 27.9168484 -5.77768349 12.97963315 0 0 Z " fill="#F7DB7A" transform="translate(93,230)"/>
<path d="M0 0 C2.375 0.75 2.375 0.75 5 2 C5.68486725 3.32407669 6.34870203 4.65909241 7 6 C7.969375 6.721875 8.93875 7.44375 9.9375 8.1875 C13.89313125 11.26302748 14.8292499 15.28619039 16 20 C16.66 20 17.32 20 18 20 C18 19.34 18 18.68 18 18 C19.65 18 21.3 18 23 18 C21.79618552 20.49361571 20.54571278 22.68143083 19 25 C18.34 25 17.68 25 17 25 C16.69449219 24.35675781 16.38898438 23.71351563 16.07421875 23.05078125 C12.32092304 15.63934381 7.65503367 9.73331441 2.1953125 3.5546875 C0 1 0 1 0 0 Z " fill="#68A049" transform="translate(279,171)"/>
<path d="M0 0 C7.45937249 0.61142397 7.45937249 0.61142397 10 2.4375 C11 4 11 4 11 6 C14.75399798 7.2039337 18.33217412 7.09877617 22.25 7.0625 C23.51328125 7.05347656 24.7765625 7.04445313 26.078125 7.03515625 C27.52445313 7.01775391 27.52445313 7.01775391 29 7 C29.33 6.34 29.66 5.68 30 5 C32.64860427 4.40644386 35.29197322 4.25790731 38 4 C32.5361192 8.58965987 27.31672501 10.50721229 20.2734375 10.21875 C11.11457036 9.33748443 11.11457036 9.33748443 7.8125 5.375 C7.214375 4.59125 6.61625 3.8075 6 3 C3.33071879 2.58129447 3.33071879 2.58129447 1 3 C0.67 2.01 0.34 1.02 0 0 Z " fill="#EBCD74" transform="translate(177,257)"/>
<path d="M0 0 C3.53486188 0.30298816 4.72059967 0.66979962 7.0625 3.4375 C11.46587473 7.27874179 16.32200845 7.39326087 22 8 C22 8.33 22 8.66 22 9 C17.83861737 9.08159574 14.0527516 8.98248524 10 8 C10 8.99 10 9.98 10 11 C4.3616163 9.68874798 2.14594657 7.671254 -1 3 C-0.67 2.01 -0.34 1.02 0 0 Z " fill="#2D2009" transform="translate(179,259)"/>
<path d="M0 0 C0.66 0.33 1.32 0.66 2 1 C1.67 1.66 1.34 2.32 1 3 C1.99 3.99 2.98 4.98 4 6 C2.35 6.66 0.7 7.32 -1 8 C-1 10.31 -1 12.62 -1 15 C-4 13 -4 13 -5 10 C-5 13.3 -5 16.6 -5 20 C-7.67666871 17.32333129 -7.78714133 15.76050325 -8 12 C-6.3502753 6.77587178 -4.06954248 3.62959195 0 0 Z " fill="#979594" transform="translate(141,227)"/>
<path d="M0 0 C4.67623652 1.50307602 5.85884357 4.8653531 8 9 C10.13887058 13.27774117 9.71243939 18.38045251 9 23 C6.64120072 27.30388245 3.44436374 30.55563626 0 34 C-0.99 33.67 -1.98 33.34 -3 33 C-2.071875 32.29875 -1.14375 31.5975 -0.1875 30.875 C3.77734668 27.49128924 5.67956431 24.52432119 6.3515625 19.23046875 C6.69890739 11.96364808 5.44610413 7.68518233 1 2 C0.67 1.34 0.34 0.68 0 0 Z " fill="#FDF6C5" transform="translate(160,224)"/>
<path d="M0 0 C0.66 0.33 1.32 0.66 2 1 C1.76998507 6.63536569 0.31510015 9.44891885 -3.33203125 13.71484375 C-5 15 -5 15 -9 15 C-7.25 10.125 -7.25 10.125 -5 9 C-5.103125 8.2575 -5.20625 7.515 -5.3125 6.75 C-5 4 -5 4 -2.5 1.6875 C-1.2625 0.8521875 -1.2625 0.8521875 0 0 Z " fill="#F9CD4F" transform="translate(303,354)"/>
<path d="M0 0 C0.66 0.33 1.32 0.66 2 1 C2.33 1.99 2.66 2.98 3 4 C4.95324533 5.20828966 4.95324533 5.20828966 7.3125 6.125 C8.48232422 6.62386719 8.48232422 6.62386719 9.67578125 7.1328125 C11.77819247 7.91724156 13.81908356 8.48737222 16 9 C16.99 9.33 17.98 9.66 19 10 C20.66621616 10.03874921 22.33394172 10.0450286 24 10 C23.67 10.99 23.34 11.98 23 13 C14.93079814 11.95428138 8.2497867 9.67397314 1 6 C1 5.34 1 4.68 1 4 C-0.32 3.34 -1.64 2.68 -3 2 C-2.01 1.34 -1.02 0.68 0 0 Z " fill="#F5CA5B" transform="translate(125,378)"/>
<path d="M0 0 C0.33 0.66 0.66 1.32 1 2 C1.66 2 2.32 2 3 2 C3.33 3.65 3.66 5.3 4 7 C4.99 7 5.98 7 7 7 C7.268125 7.928125 7.53625 8.85625 7.8125 9.8125 C8.94940437 12.86419067 9.74759307 13.8499752 12 16 C12 16.99 12 17.98 12 19 C14.475 19.99 14.475 19.99 17 21 C17 21.99 17 22.98 17 24 C14.2104249 23.65282581 13.18165815 23.2052986 11.2890625 21.06640625 C10.73992187 20.24011719 10.19078125 19.41382813 9.625 18.5625 C9.02816406 17.6653125 8.43132812 16.768125 7.81640625 15.84375 C7.21699219 14.9053125 6.61757812 13.966875 6 13 C5.41089844 12.0821875 4.82179688 11.164375 4.21484375 10.21875 C0 3.44311466 0 3.44311466 0 0 Z " fill="#F7CA58" transform="translate(93,345)"/>
<path d="M0 0 C0.33 0 0.66 0 1 0 C1.66 1.98 2.32 3.96 3 6 C5.97 6.495 5.97 6.495 9 7 C8.67 7.66 8.34 8.32 8 9 C7.01 9.33 6.02 9.66 5 10 C3.82244087 12.94389782 3.96651304 13.89953913 5 17 C3.125 16.375 3.125 16.375 1 15 C-1.03067184 10.63405555 -1.2753353 6.77247852 -1 2 C-0.67 1.34 -0.34 0.68 0 0 Z " fill="#51524F" transform="translate(136,235)"/>
<path d="M0 0 C4.65479018 0.63024238 8.54486865 2.52429006 12.6875 4.625 C13.39068359 4.97820312 14.09386719 5.33140625 14.81835938 5.6953125 C20.5721431 8.64867536 25.86965871 12.05358362 31 16 C28.45297384 17.27351308 27.5717055 16.80191925 24.875 16.0625 C24.15054688 15.86785156 23.42609375 15.67320313 22.6796875 15.47265625 C22.12539062 15.31667969 21.57109375 15.16070312 21 15 C21.66 14.67 22.32 14.34 23 14 C20.01565016 10.70150807 17.11587746 8.81458676 13.125 6.875 C12.11695313 6.37742187 11.10890625 5.87984375 10.0703125 5.3671875 C7.00345071 3.93339011 7.00345071 3.93339011 3.6796875 2.9453125 C1 2 1 2 0 0 Z " fill="#C4F0CA" transform="translate(141,72)"/>
<path d="M0 0 C0.33 0.99 0.66 1.98 1 3 C-5.15082116 12.7729714 -14.15043326 21.07585474 -24 27 C-24.66 27 -25.32 27 -26 27 C-26 26.34 -26 25.68 -26 25 C-24.44999703 24.00836424 -22.85690047 23.0840052 -21.25 22.1875 C-16.25565162 19.11455249 -12.42239371 15.67109923 -8.5 11.375 C-7.74444824 10.54971802 -7.74444824 10.54971802 -6.97363281 9.70776367 C-4.25670278 6.65282694 -1.97071564 3.58190883 0 0 Z " fill="#FDF0BE" transform="translate(306,357)"/>
<path d="M0 0 C0.66 0.33 1.32 0.66 2 1 C1.3503125 1.76570312 1.3503125 1.76570312 0.6875 2.546875 C-4.22484143 8.96020964 -4.99274832 14.04673225 -4 22 C-3.15697007 25.55542252 -3.15697007 25.55542252 -2 28 C-4.35226677 26.35341326 -5.54737786 25.41768599 -7 23 C-8.15232726 16.36221406 -7.46404636 10.49341592 -4.16796875 4.62109375 C-2.9217875 2.89144418 -1.54925904 1.46047628 0 0 Z " fill="#FEF5C4" transform="translate(134,224)"/>
<path d="M0 0 C1.32 0.33 2.64 0.66 4 1 C4.61714286 9.17714286 4.61714286 9.17714286 2.5 12 C-3.63973286 14.45589314 -11.45144555 14.71815002 -18 14 C-18.66 13.34 -19.32 12.68 -20 12 C-18.74703125 11.95101563 -17.4940625 11.90203125 -16.203125 11.8515625 C-14.55206179 11.77651417 -12.90102119 11.70096723 -11.25 11.625 C-10.425 11.5940625 -9.6 11.563125 -8.75 11.53125 C-7.95078125 11.49257813 -7.1515625 11.45390625 -6.328125 11.4140625 C-5.22839355 11.36693115 -5.22839355 11.36693115 -4.10644531 11.31884766 C-1.75077082 10.96227477 -0.06549409 10.16337117 2 9 C1.51515724 4.35413108 1.51515724 4.35413108 0 0 Z " fill="#F6C784" transform="translate(276,262)"/>
<path d="M0 0 C2.97 0 5.94 0 9 0 C9.33 0.66 9.66 1.32 10 2 C13.62561178 4.06000669 16.87202695 5.39294514 21 6 C21 7.65 21 9.3 21 11 C20.32195312 10.61328125 19.64390625 10.2265625 18.9453125 9.828125 C12.77965371 6.37808878 6.62880823 3.4444629 0 1 C0 0.67 0 0.34 0 0 Z " fill="#76C85F" transform="translate(234,140)"/>
<path d="M0 0 C5.72351149 5.20319226 9.73229045 11.59843568 14 18 C13.67 18.99 13.34 19.98 13 21 C10.17970072 19.58985036 9.41850081 17.77252431 8 15 C8 13.68 8 12.36 8 11 C7.4225 10.731875 6.845 10.46375 6.25 10.1875 C1.88235294 7.88235294 1.88235294 7.88235294 0 6 C-0.25 2.8125 -0.25 2.8125 0 0 Z " fill="#DEE475" transform="translate(282,175)"/>
<path d="M0 0 C0.625 1.8125 0.625 1.8125 1 4 C0.01 5.485 0.01 5.485 -1 7 C-1.66 7 -2.32 7 -3 7 C-3 7.66 -3 8.32 -3 9 C-4.49609375 10.11328125 -4.49609375 10.11328125 -6.4375 11.3125 C-9.50779899 13.37684215 -9.50779899 13.37684215 -10.9375 16.8125 C-10.958125 17.534375 -10.97875 18.25625 -11 19 C-11.99 19 -12.98 19 -14 19 C-14.5 16.3125 -14.5 16.3125 -14 13 C-12.1652622 11.56233232 -10.22724907 10.54481489 -8.1796875 9.43359375 C-4.54441542 7.04265315 -2.35602485 3.59650763 0 0 Z " fill="#F7DC7B" transform="translate(168,247)"/>
<path d="M0 0 C8.82352941 1.76470588 8.82352941 1.76470588 12 6 C12 6.66 12 7.32 12 8 C12.804375 8.2475 13.60875 8.495 14.4375 8.75 C18.74324143 10.26078647 22.85364007 12.10188856 27 14 C23.25078988 15.24973671 21.86916876 14.24423816 18.45117188 12.54711914 C17.74541016 12.18094482 17.03964844 11.81477051 16.3125 11.4375 C15.59513672 11.07197021 14.87777344 10.70644043 14.13867188 10.32983398 C9.00862464 7.66055532 4.41085164 4.76760244 0 1 C0 0.67 0 0.34 0 0 Z " fill="#FCECB8" transform="translate(114,376)"/>
<path d="M0 0 C0.6875 1.8125 0.6875 1.8125 1 4 C-0.3125 5.5 -0.3125 5.5 -2 7 C-2.309375 7.639375 -2.61875 8.27875 -2.9375 8.9375 C-4 11 -4 11 -5.80078125 12.73828125 C-8.36158101 15.37185684 -10.24451927 18.17492954 -12.25 21.25 C-12.95640625 22.32765625 -13.6628125 23.4053125 -14.390625 24.515625 C-14.92171875 25.33546875 -15.4528125 26.1553125 -16 27 C-16.33 26.34 -16.66 25.68 -17 25 C-15.7425844 22.69675316 -14.44462364 20.55698363 -13 18.375 C-12.59007813 17.74489014 -12.18015625 17.11478027 -11.7578125 16.46557617 C-8.92093111 12.1821716 -5.87254731 8.26740472 -2.3125 4.55078125 C-0.76659018 2.91892972 -0.76659018 2.91892972 0 0 Z " fill="#FEFCE3" transform="translate(123,171)"/>
<path d="M0 0 C6.20970773 -0.33266291 10.28264895 0.54970669 16 3 C16 3.66 16 4.32 16 5 C10.21101581 5.20674944 5.57067277 4.59162079 0 3 C0 2.01 0 1.02 0 0 Z " fill="#FAC741" transform="translate(168,392)"/>
<path d="M0 0 C1.32 0.33 2.64 0.66 4 1 C3.69923801 4.11253688 3.0206507 4.9816021 0.63671875 7.10546875 C-0.33652344 7.79253906 -1.30976563 8.47960937 -2.3125 9.1875 C-3.76076172 10.22970703 -3.76076172 10.22970703 -5.23828125 11.29296875 C-7.62176533 12.76621139 -9.27064327 13.56563682 -12 14 C-12 13.34 -12 12.68 -12 12 C-11.01 12 -10.02 12 -9 12 C-9 11.34 -9 10.68 -9 10 C-8.01 10 -7.02 10 -6 10 C-6 9.34 -6 8.68 -6 8 C-5.195625 7.79375 -4.39125 7.5875 -3.5625 7.375 C-2.716875 6.92125 -1.87125 6.4675 -1 6 C-0.10169161 2.94727535 -0.10169161 2.94727535 0 0 Z " fill="#F7CC59" transform="translate(290,369)"/>
<path d="M0 0 C0 0.33 0 0.66 0 1 C-1.134375 0.99097656 -2.26875 0.98195312 -3.4375 0.97265625 C-13.39021122 0.82893953 -13.39021122 0.82893953 -21.875 5.375 C-22.95188215 6.55205723 -23.9974568 7.75901409 -25 9 C-25.99082626 10.00909034 -26.98795313 11.01219378 -28 12 C-26.0785473 4.16638514 -26.0785473 4.16638514 -23 2 C-15.6259885 -1.79234877 -7.93089103 -1.05636868 0 0 Z " fill="#F6DF7A" transform="translate(260,223)"/>
<path d="M0 0 C1 3 1 3 0.19555664 5.0847168 C-0.22862549 5.86500244 -0.65280762 6.64528809 -1.08984375 7.44921875 C-1.54423828 8.29677734 -1.99863281 9.14433594 -2.46679688 10.01757812 C-2.95212891 10.89865234 -3.43746094 11.77972656 -3.9375 12.6875 C-4.65969727 14.02651367 -4.65969727 14.02651367 -5.39648438 15.39257812 C-6.58876897 17.60007534 -7.79017894 19.80207933 -9 22 C-10.53554707 18.92890587 -9.5649271 16.49630519 -8.80078125 13.2421875 C-7.64287335 10.00004539 -5.52399837 8.27775463 -3 6 C-1.20679176 2.83354526 -1.20679176 2.83354526 0 0 Z " fill="#AFDCB5" transform="translate(325,152)"/>
<path d="M0 0 C1.24343376 3.73030129 0.4405794 4.45985275 -1 8 C-1.27876518 10.0959986 -1.48588744 12.20262611 -1.625 14.3125 C-1.69976562 15.38113281 -1.77453125 16.44976562 -1.8515625 17.55078125 C-1.90054688 18.35902344 -1.94953125 19.16726562 -2 20 C-2.33 20 -2.66 20 -3 20 C-3.33 16.7 -3.66 13.4 -4 10 C-4.66 10 -5.32 10 -6 10 C-6.33 8.35 -6.66 6.7 -7 5 C-5.68 5 -4.36 5 -3 5 C-1.21030974 2.57327433 -1.21030974 2.57327433 0 0 Z " fill="#FADD65" transform="translate(232,230)"/>
<path d="M0 0 C1.3303125 0.37125 1.3303125 0.37125 2.6875 0.75 C-3.06633399 5.27086957 -7.64402726 6.88533141 -15 6.8125 C-16.76923828 6.79896484 -16.76923828 6.79896484 -18.57421875 6.78515625 C-19.47785156 6.77355469 -20.38148438 6.76195312 -21.3125 6.75 C-21.3125 6.42 -21.3125 6.09 -21.3125 5.75 C-20.43207031 5.65203125 -19.55164063 5.5540625 -18.64453125 5.453125 C-17.48308594 5.30359375 -16.32164062 5.1540625 -15.125 5 C-13.97644531 4.86078125 -12.82789063 4.7215625 -11.64453125 4.578125 C-6.82559847 3.38045355 -4.96291864 -0.3745599 0 0 Z " fill="#E3BAC8" transform="translate(268.3125,259.25)"/>
<path d="M0 0 C0.25 2.3125 0.25 2.3125 0 5 C-2.37869491 7.65315971 -3.67124653 7.98103345 -7.25 8.1875 C-8.1575 8.125625 -9.065 8.06375 -10 8 C-9.67 6.68 -9.34 5.36 -9 4 C-8.67 4.99 -8.34 5.98 -8 7 C-7.34 6.34 -6.68 5.68 -6 5 C-6 4.34 -6 3.68 -6 3 C-2.53846154 0 -2.53846154 0 0 0 Z " fill="#E7B2B9" transform="translate(154,261)"/>
<path d="M0 0 C1.70884005 1.62339805 3.37446717 3.29319053 5 5 C5 5.66 5 6.32 5 7 C3.68 7 2.36 7 1 7 C1 7.66 1 8.32 1 9 C-1.31 9.33 -3.62 9.66 -6 10 C-6 9.34 -6 8.68 -6 8 C-5.195625 7.79375 -4.39125 7.5875 -3.5625 7.375 C-2.716875 6.92125 -1.87125 6.4675 -1 6 C-0.10169161 2.94727535 -0.10169161 2.94727535 0 0 Z " fill="#F8D773" transform="translate(127,247)"/>
<path d="M0 0 C0.66 0 1.32 0 2 0 C2.45375 1.0725 2.9075 2.145 3.375 3.25 C4.24912779 5.30482173 5.14422661 7.27327148 6.1875 9.25 C7 11 7 11 7 14 C7.66 14 8.32 14 9 14 C9 15.65 9 17.3 9 19 C5.70262676 16.31655211 4.38905413 12.7640499 2.8125 8.9375 C2.40354492 7.98133789 2.40354492 7.98133789 1.98632812 7.00585938 C0 2.28148496 0 2.28148496 0 0 Z " fill="#63A166" transform="translate(117,153)"/>
<path d="M0 0 C0.33 1.32 0.66 2.64 1 4 C-2.49261398 5.74630699 -6.46530618 5.18463963 -10.3125 5.1875 C-11.16779297 5.19974609 -12.02308594 5.21199219 -12.90429688 5.22460938 C-17.38181307 5.23501414 -20.93367895 5.12119428 -25 3 C-22 2 -22 2 -19 3 C-16.50562103 3.14756281 -14.05737022 3.23086389 -11.5625 3.25 C-10.24378906 3.27578125 -8.92507812 3.3015625 -7.56640625 3.328125 C-3.92162809 2.99278944 -2.57673125 2.50424009 0 0 Z " fill="#F7C884" transform="translate(153,266)"/>
<path d="M0 0 C0.99 0.33 1.98 0.66 3 1 C3.6875 3.0625 3.6875 3.0625 4 5 C2.02 5.99 2.02 5.99 0 7 C0 7.66 0 8.32 0 9 C-1.98 9.66 -3.96 10.32 -6 11 C-6.33 10.01 -6.66 9.02 -7 8 C-4.69 6.68 -2.38 5.36 0 4 C0 2.68 0 1.36 0 0 Z " fill="#E9CB65" transform="translate(215,262)"/>
<path d="M0 0 C5.42441362 0.43395309 8.76058371 1.54931233 13 5 C15.12272015 7.99110566 15.20086799 10.38437619 15 14 C13 12 13 12 11.4375 8.625 C8.8996834 3.96747452 4.82520275 2.65995223 0 1 C0 0.67 0 0.34 0 0 Z " fill="#F8E38A" transform="translate(154,221)"/>
<path d="M0 0 C1.07174763 3.65188082 0.76411467 6.26432828 0 10 C-0.33 10 -0.66 10 -1 10 C-1.12117188 10.63808594 -1.24234375 11.27617187 -1.3671875 11.93359375 C-1.53476563 12.75988281 -1.70234375 13.58617187 -1.875 14.4375 C-2.03742188 15.26121094 -2.19984375 16.08492187 -2.3671875 16.93359375 C-2.57601562 17.61550781 -2.78484375 18.29742187 -3 19 C-3.66 19.33 -4.32 19.66 -5 20 C-4.45484328 12.91296261 -2.39081395 6.67203894 0 0 Z " fill="#F8DF89" transform="translate(93,230)"/>
<path d="M0 0 C0.66 0.66 1.32 1.32 2 2 C1.34 2 0.68 2 0 2 C0.12375 2.99 0.12375 2.99 0.25 4 C-0.10103641 8.21243694 -1.96960773 11.34710677 -4 15 C-4.66 15 -5.32 15 -6 15 C-6.33 16.65 -6.66 18.3 -7 20 C-7.93423645 16.98968256 -8.04449911 16.13349732 -7 13 C-6.34 13 -5.68 13 -5 13 C-4.80664062 12.39671875 -4.61328125 11.7934375 -4.4140625 11.171875 C-4.15367187 10.37265625 -3.89328125 9.5734375 -3.625 8.75 C-3.36976563 7.96109375 -3.11453125 7.1721875 -2.8515625 6.359375 C-2.04826333 4.13372042 -1.10288338 2.09068328 0 0 Z " fill="#95DFA5" transform="translate(190,71)"/>
<path d="M0 0 C0.556875 0.226875 1.11375 0.45375 1.6875 0.6875 C1.5 2.5625 1.5 2.5625 0.6875 4.6875 C-1.875 5.9375 -1.875 5.9375 -4.3125 6.6875 C-4.3125 5.6975 -4.3125 4.7075 -4.3125 3.6875 C-5.3025 3.3575 -6.2925 3.0275 -7.3125 2.6875 C-2.88173077 -0.38942308 -2.88173077 -0.38942308 0 0 Z " fill="#271D05" transform="translate(214.3125,262.3125)"/>
<path d="M0 0 C0 0.33 0 0.66 0 1 C-0.78246094 1.20496094 -1.56492188 1.40992188 -2.37109375 1.62109375 C-3.38300781 1.89050781 -4.39492187 2.15992188 -5.4375 2.4375 C-6.44683594 2.70433594 -7.45617187 2.97117188 -8.49609375 3.24609375 C-10.91752001 3.75978077 -10.91752001 3.75978077 -12 5 C-13.66617115 5.04063832 -15.33388095 5.042721 -17 5 C-17 4.34 -17 3.68 -17 3 C-11.10261508 0.70657253 -6.33393082 -0.34548714 0 0 Z " fill="#F5E970" transform="translate(192,137)"/>
<path d="M0 0 C7.45937249 0.61142397 7.45937249 0.61142397 10 2.4375 C11 4 11 4 11 6 C12.32 6.66 13.64 7.32 15 8 C14.01 8.33 13.02 8.66 12 9 C7.41818182 5.83636364 7.41818182 5.83636364 6 3 C4.35 3 2.7 3 1 3 C0.67 2.01 0.34 1.02 0 0 Z " fill="#DEC268" transform="translate(177,257)"/>
<path d="M0 0 C1.1484375 3.6953125 1.1484375 3.6953125 -0.1875 6.4375 C-2.0318806 9.04507258 -3.96240549 11.54083421 -6 14 C-6.36539443 9.71422781 -5.48423598 7.65507938 -3 4.1875 C-2.1646875 3.00220703 -2.1646875 3.00220703 -1.3125 1.79296875 C-0.879375 1.20128906 -0.44625 0.60960937 0 0 Z " fill="#F9E37B" transform="translate(122,176)"/>
<path d="M0 0 C2 2 2 2 3 5 C3.66 5.33 4.32 5.66 5 6 C5.6328125 8.28515625 5.6328125 8.28515625 6.125 11.0625 C6.29257813 11.98160156 6.46015625 12.90070312 6.6328125 13.84765625 C6.75398437 14.55792969 6.87515625 15.26820312 7 16 C3 11.375 3 11.375 3 8 C2.34 8 1.68 8 1 8 C0.67 5.36 0.34 2.72 0 0 Z " fill="#A6E8B4" transform="translate(249,48)"/>
<path d="M0 0 C0.66 0 1.32 0 2 0 C2.33 1.65 2.66 3.3 3 5 C3.66 4.67 4.32 4.34 5 4 C5.6875 6.75 5.6875 6.75 6 10 C4.51953125 12.203125 4.51953125 12.203125 3 14 C2.49713066 12.0424015 1.9977901 10.08389623 1.5 8.125 C1.2215625 7.03445312 0.943125 5.94390625 0.65625 4.8203125 C0 2 0 2 0 0 Z " fill="#62A267" transform="translate(112,134)"/>
<path d="M0 0 C0.3125 2.25 0.3125 2.25 0 5 C-4.10810811 9 -4.10810811 9 -7 9 C-4.6 0 -4.6 0 0 0 Z " fill="#ADE8B4" transform="translate(204,47)"/>
<path d="M0 0 C0 2 0 4 0 6 C0.99 6.99 1.98 7.98 3 9 C0.03 8.67 -2.94 8.34 -6 8 C-4.21844267 4.43688534 -2.83236991 2.64354525 0 0 Z " fill="#F8D981" transform="translate(272,252)"/>
<path d="M0 0 C-3.78912441 2.99972349 -7.88831832 5.47510809 -12 8 C-12 6.68 -12 5.36 -12 4 C-4.71428571 -0.57142857 -4.71428571 -0.57142857 0 0 Z " fill="#F6E170" transform="translate(143,219)"/>
<path d="M0 0 C7.425 0.99 7.425 0.99 15 2 C15 2.33 15 2.66 15 3 C10.83861737 3.08159574 7.0527516 2.98248524 3 2 C3 2.99 3 3.98 3 5 C1.68 4.67 0.36 4.34 -1 4 C-0.67 2.68 -0.34 1.36 0 0 Z " fill="#33290F" transform="translate(186,265)"/>
<path d="M0 0 C0.33 0.66 0.66 1.32 1 2 C-1.64 5.63 -4.28 9.26 -7 13 C-8 11 -8 11 -7.25 7.9375 C-6.8375 6.968125 -6.425 5.99875 -6 5 C-5.01 4.67 -4.02 4.34 -3 4 C-1.31461399 2.00334686 -1.31461399 2.00334686 0 0 Z " fill="#B6DEB9" transform="translate(314,174)"/>
<path d="M0 0 C2.78211944 0.37596209 4.5879284 0.67318459 6.8125 2.4375 C8 4 8 4 8 6 C8.99 6 9.98 6 11 6 C11.33 6.99 11.66 7.98 12 9 C8.36679834 8.41083216 6.45533138 6.94481799 3.75 4.5 C3.04359375 3.8709375 2.3371875 3.241875 1.609375 2.59375 C1.07828125 2.0678125 0.5471875 1.541875 0 1 C0 0.67 0 0.34 0 0 Z " fill="#6DA34C" transform="translate(264,157)"/>
<path d="M0 0 C1.84619835 1.03998511 3.67673494 2.107814 5.5 3.1875 C6.5209375 3.77917969 7.541875 4.37085938 8.59375 4.98046875 C11 7 11 7 11.34375 9.73828125 C11.2303125 10.48464844 11.116875 11.23101562 11 12 C9 11 9 11 8.1875 9.0625 C7.14936023 6.75362765 7.14936023 6.75362765 4.5 6.0625 C2 5 2 5 0.84375 2.43359375 C0.42609375 1.22896484 0.42609375 1.22896484 0 0 Z " fill="#F6D877" transform="translate(235,258)"/>
<path d="M0 0 C0.33 0 0.66 0 1 0 C1.625 2.875 1.625 2.875 2 6 C1.34 6.66 0.68 7.32 0 8 C-0.64767793 10.57061311 -0.64767793 10.57061311 -1 13 C-1.99 13.33 -2.98 13.66 -4 14 C-3.52188823 12.22888156 -3.0424722 10.45811517 -2.5625 8.6875 C-2.29566406 7.70136719 -2.02882813 6.71523437 -1.75390625 5.69921875 C-1.21920575 3.78482474 -0.62855462 1.88566385 0 0 Z " fill="#F9E184" transform="translate(98,215)"/>
<path d="M0 0 C1.65 0 3.3 0 5 0 C3.79618552 2.49361571 2.54571278 4.68143083 1 7 C0.34 7 -0.32 7 -1 7 C-0.67 4.69 -0.34 2.38 0 0 Z " fill="#65A65B" transform="translate(297,189)"/>
<path d="M0 0 C3 3 3 3 3.375 6.0625 C3.25125 7.031875 3.1275 8.00125 3 9 C2.01 9.66 1.02 10.32 0 11 C0 7.37 0 3.74 0 0 Z " fill="#F5DC70" transform="translate(169,235)"/>
<path d="M0 0 C0.66 0.33 1.32 0.66 2 1 C1.2884375 1.495 1.2884375 1.495 0.5625 2 C-1.85791615 5.09813267 -1.68198917 8.12026792 -2 12 C-2.66 11.01 -3.32 10.02 -4 9 C-4.66 8.67 -5.32 8.34 -6 8 C-2.25 2.25 -2.25 2.25 0 0 Z " fill="#8E8C8D" transform="translate(243,232)"/>
<path d="M0 0 C2.9244745 2.63202705 5.02154932 5.60837026 7 9 C6.67 9.99 6.34 10.98 6 12 C3.15203218 10.57601609 2.43845537 8.8143692 1 6 C0.3125 2.6875 0.3125 2.6875 0 0 Z " fill="#D4DB72" transform="translate(289,184)"/>
<path d="M0 0 C3.375 -0.1875 3.375 -0.1875 7 0 C7.66 0.99 8.32 1.98 9 3 C8.01 3.66 7.02 4.32 6 5 C6 4.34 6 3.68 6 3 C5.01 3.33 4.02 3.66 3 4 C2.67 3.01 2.34 2.02 2 1 C1.34 0.67 0.68 0.34 0 0 Z " fill="#62C571" transform="translate(134,72)"/>
<path d="M0 0 C0.33 0 0.66 0 1 0 C1 3.63 1 7.26 1 11 C1.66 11 2.32 11 3 11 C3.66 12.98 4.32 14.96 5 17 C2.63344822 15.34341375 1.42958407 14.4528653 0 12 C-0.44572896 7.96746391 -0.29001875 4.04092798 0 0 Z " fill="#FBEAA1" transform="translate(127,235)"/>
<path d="M0 0 C0.66 0.33 1.32 0.66 2 1 C4.92824652 1.97608217 6.95613276 2.08226668 10 2 C9.67 2.99 9.34 3.98 9 5 C7.081875 4.8453125 7.081875 4.8453125 5.125 4.6875 C4.04605469 4.60048828 4.04605469 4.60048828 2.9453125 4.51171875 C1 4 1 4 -1 1 C-0.67 0.67 -0.34 0.34 0 0 Z " fill="#F9C74C" transform="translate(139,386)"/>
<path d="M0 0 C0.33 0 0.66 0 1 0 C1.66 2.64 2.32 5.28 3 8 C2.01 8.66 1.02 9.32 0 10 C-1 9 -1 9 -1.125 5.5625 C-1 2 -1 2 0 0 Z " fill="#0B0A0C" transform="translate(136,235)"/>
<path d="M0 0 C3.15473719 0.35052635 4.8233534 0.86519076 7.375 2.8125 C9 5 9 5 8.75 7.25 C8.5025 7.8275 8.255 8.405 8 9 C7.4225 8.2575 6.845 7.515 6.25 6.75 C4.27746474 4.33912357 2.23955718 2.15957299 0 0 Z " fill="#F8DE7E" transform="translate(261,225)"/>
<path d="M0 0 C3.79588866 0.54226981 5.47211993 2.20127563 8 5 C4.7 4.34 1.4 3.68 -2 3 C-1.34 2.67 -0.68 2.34 0 2 C0 1.34 0 0.68 0 0 Z " fill="#91D69C" transform="translate(164,84)"/>
<path d="M0 0 C1.79275866 3.11910856 2.34290718 5.67682428 2.625 9.25 C2.69976562 10.14203125 2.77453125 11.0340625 2.8515625 11.953125 C2.92503906 12.96632813 2.92503906 12.96632813 3 14 C0.19954377 10.85408067 -0.35261589 8.932936 -0.1875 4.75 C-0.16042969 3.85796875 -0.13335937 2.9659375 -0.10546875 2.046875 C-0.07066406 1.37140625 -0.03585938 0.6959375 0 0 Z " fill="#BCEEC6" transform="translate(256,64)"/>
<path d="M0 0 C0.6875 1.8125 0.6875 1.8125 1 4 C-0.3125 5.5 -0.3125 5.5 -2 7 C-2.33 7.70125 -2.66 8.4025 -3 9.125 C-4 11 -4 11 -7 12 C-5.67212214 8.01636642 -3.99014805 5.89369166 -1 3 C-0.67 2.01 -0.34 1.02 0 0 Z " fill="#FDF9D2" transform="translate(123,171)"/>
<path d="M0 0 C0.99 0.33 1.98 0.66 3 1 C3 1.66 3 2.32 3 3 C4.32 3.66 5.64 4.32 7 5 C5.1875 6.0625 5.1875 6.0625 3 7 C2.01 6.67 1.02 6.34 0 6 C0.66 4.68 1.32 3.36 2 2 C1.34 2 0.68 2 0 2 C0 1.34 0 0.68 0 0 Z " fill="#60B668" transform="translate(169,88)"/>
<path d="M0 0 C1.65 0.33 3.3 0.66 5 1 C4.34 2.32 3.68 3.64 3 5 C1.68 4.34 0.36 3.68 -1 3 C-0.67 2.01 -0.34 1.02 0 0 Z " fill="#1F1507" transform="translate(182,263)"/>
<path d="M0 0 C-1.375 1.5 -1.375 1.5 -3 3 C-3.66 3 -4.32 3 -5 3 C-5 3.66 -5 4.32 -5 5 C-5.99 4.67 -6.98 4.34 -8 4 C-7.25 2.0625 -7.25 2.0625 -6 0 C-3.40292416 -1.05506206 -2.5386068 -1.2693034 0 0 Z " fill="#EFE483" transform="translate(131,171)"/>
<path d="M0 0 C3.39609044 1.19322096 5.62433927 2.28495916 8 5 C8.66 5.66 9.32 6.32 10 7 C6.65580848 7 5.93159679 6.52480606 3.3125 4.625 C2.68988281 4.18414062 2.06726563 3.74328125 1.42578125 3.2890625 C0.95527344 2.86367187 0.48476562 2.43828125 0 2 C0 1.34 0 0.68 0 0 Z " fill="#6DA64B" transform="translate(255,149)"/>
<path d="M0 0 C0.33 0.66 0.66 1.32 1 2 C1.66 2 2.32 2 3 2 C3.99 4.97 4.98 7.94 6 11 C3.34730103 8.52414762 1.31989897 6.40973899 0 3 C0 2.01 0 1.02 0 0 Z " fill="#F4CF6B" transform="translate(93,345)"/>
<path d="M0 0 C2.375 0.1875 2.375 0.1875 5 1 C6.3125 3.5625 6.3125 3.5625 7 6 C4.69 5.01 2.38 4.02 0 3 C0 2.01 0 1.02 0 0 Z " fill="#ECB5AA" transform="translate(271,260)"/>
<path d="M0 0 C1.98 0 3.96 0 6 0 C6.33 0.99 6.66 1.98 7 3 C5.35 2.67 3.7 2.34 2 2 C2 2.66 2 3.32 2 4 C1.34 4 0.68 4 0 4 C0 2.68 0 1.36 0 0 Z " fill="#F9E771" transform="translate(155,148)"/>
<path d="M0 0 C1.32 0.33 2.64 0.66 4 1 C3.67 2.65 3.34 4.3 3 6 C2.01 6 1.02 6 0 6 C0 4.02 0 2.04 0 0 Z " fill="#F8D473" transform="translate(154,260)"/>
<path d="M0 0 C0.99 0 1.98 0 3 0 C3 1.65 3 3.3 3 5 C3.66 5.33 4.32 5.66 5 6 C3.68 6 2.36 6 1 6 C-0.0625 4.125 -0.0625 4.125 -1 2 C-0.67 1.34 -0.34 0.68 0 0 Z " fill="#52CE5F" transform="translate(237,134)"/>
<path d="M0 0 C0.33 0.66 0.66 1.32 1 2 C0.00390625 3.9453125 0.00390625 3.9453125 -1.4375 6.125 C-1.91058594 6.84945313 -2.38367188 7.57390625 -2.87109375 8.3203125 C-3.24363281 8.87460937 -3.61617188 9.42890625 -4 10 C-5 8 -5 8 -4.8125 6.125 C-3.76845291 3.39441531 -2.14784331 1.9399875 0 0 Z " fill="#F2D268" transform="translate(309,350)"/>
<path d="M0 0 C0.66 0.33 1.32 0.66 2 1 C2 1.66 2 2.32 2 3 C1.01 3.495 1.01 3.495 0 4 C0.33 4.99 0.66 5.98 1 7 C0.01 7 -0.98 7 -2 7 C-2 5.02 -2 3.04 -2 1 C-1.34 0.67 -0.68 0.34 0 0 Z " fill="#64C55F" transform="translate(179,131)"/>
<path d="M0 0 C-2.85306797 2.32472205 -5.54074837 3.7508258 -9 5 C-8.6875 3.0625 -8.6875 3.0625 -8 1 C-5.07175348 0.02391783 -3.04386724 -0.08226668 0 0 Z " fill="#E5C669" transform="translate(215,261)"/>
<path d="M0 0 C2.09749995 2.35968744 2.96905704 3.54616994 3.1875 6.75 C3.125625 7.4925 3.06375 8.235 3 9 C2.67 7.68 2.34 6.36 2 5 C1.01 5.33 0.02 5.66 -1 6 C-0.67 4.02 -0.34 2.04 0 0 Z " fill="#85DC92" transform="translate(253,60)"/>
</svg>
