<?xml version="1.0" encoding="UTF-8"?>
<svg version="1.1" xmlns="http://www.w3.org/2000/svg" width="157" height="157">
<path d="M0 0 C6.67633483 4.85760913 11.5957471 10.3477475 14.6875 18.0625 C15.10386719 19.08472656 15.52023438 20.10695313 15.94921875 21.16015625 C17.87743257 26.37135123 18.09216007 30.47039554 18 36 C15.03 35.34 12.06 34.68 9 34 C8.78085938 33.0821875 8.56171875 32.164375 8.3359375 31.21875 C6.58137186 24.42872364 4.89420035 18.83003011 0.171875 13.453125 C-1 12 -1 12 -1 10 C-1.721875 9.71125 -2.44375 9.4225 -3.1875 9.125 C-6 8 -6 8 -8.1875 6.8125 C-14.97618449 4.85132448 -21.91916639 6.78073515 -28 10 C-35.38235514 14.74579973 -38.99822417 22.69127019 -41 31 C-41.39905607 34.6577874 -41.42092319 38.26109347 -41.375 41.9375 C-41.38660156 42.86240234 -41.39820313 43.78730469 -41.41015625 44.74023438 C-41.38255714 51.30422273 -40.13155769 56.81958856 -38 63 C-37.82114258 63.68046387 -37.64228516 64.36092773 -37.45800781 65.06201172 C-36.86826314 67.22983765 -36.86826314 67.22983765 -35 70 C-32.70035642 71.03335734 -30.52204664 71.66931345 -28.05859375 72.19921875 C-26 73 -26 73 -24.74609375 74.8359375 C-23.57490342 78.23300265 -23.44916436 81.48580807 -24 85 C-25.5625 87.9375 -25.5625 87.9375 -28 90 C-31.89105194 91.13194238 -34.0056423 91.42938174 -37.75 89.8125 C-41.61331626 86.70038412 -41.61331626 86.70038412 -43 84 C-42.938125 82.88625 -42.87625 81.7725 -42.8125 80.625 C-42.62117284 76.31216703 -44.01860577 73.32866764 -45.8125 69.4375 C-50.50205281 59.25817648 -52.97205064 48.25058616 -52 37 C-51.93039063 36.08089844 -51.86078125 35.16179688 -51.7890625 34.21484375 C-50.48492474 23.21661532 -45.50293116 13.12161364 -38 5 C-26.2446362 -4.08526642 -13.45821718 -7.52076842 0 0 Z " fill="#7048B1" transform="translate(93,24)"/>
<path d="M0 0 C0.70898438 0.6496875 1.41796875 1.299375 2.1484375 1.96875 C5.95288478 4.67876724 9.00067081 4.7230335 13.5625 5 C31.59572964 6.57647732 45.79586017 13.85754847 58.0390625 27.2265625 C65.37816461 36.06471526 68.7046553 45.86946643 67.81640625 57.37890625 C66.64378061 64.33003761 63.27309688 70.26845187 57.8515625 74.79296875 C48.80113229 81.04795891 40.02139582 83.88171167 29 83 C23.41759455 81.94257019 18.01591405 80.73379202 13 78 C14 75 14 75 16.4375 72.6875 C20.87536659 70.58535267 22.75511773 71.25053173 27.35546875 72.40234375 C36.49437509 74.46770958 44.90543078 72.47561495 53 68 C54.17657468 66.31980946 54.17657468 66.31980946 55 64 C55.25910156 63.41992188 55.51820313 62.83984375 55.78515625 62.2421875 C58.72763151 55.26236246 58.87371036 49.79613641 56.1875 42.75 C55.10877395 40.1544446 54.05792565 38.07686553 52.36328125 35.828125 C51 34 51 34 51 32 C50.34 32 49.68 32 49 32 C48.319375 31.29875 47.63875 30.5975 46.9375 29.875 C37.42706092 20.11646251 23.85149141 15.0481385 10.375 14.6875 C6.12427629 14.60742449 6.12427629 14.60742449 2.75 17 C2.1725 17.66 1.595 18.32 1 19 C-2.86445626 19.49183989 -5.24712561 19.33461084 -8.8125 17.75 C-11.23268075 15.8138554 -12.19268129 14.98707921 -13 12 C-13 6.85380117 -13 6.85380117 -12 4 C-8.20641416 0.47108294 -5.1513049 -0.87681786 0 0 Z " fill="#7149B1" transform="translate(74,56)"/>
<path d="M0 0 C3 2 3 2 4.1875 5.5625 C4.49487588 8.64184748 4.17747613 9.74640158 2.37890625 12.31640625 C0.94852637 13.86751544 -0.50798569 15.39489123 -1.98828125 16.8984375 C-6.60062115 21.71676539 -7.76441963 26.8785601 -8.25 33.3125 C-7.8555346 39.13086459 -6.40169429 43.34009887 -2.625 47.8125 C5.40921738 54.50768115 12.7611473 54.75049182 23 54 C31.71632838 52.2333205 38.82986062 48.12985582 46 43 C46.89525391 42.36578125 46.89525391 42.36578125 47.80859375 41.71875 C52.87990573 37.81976728 57.65866985 32.00861769 60 26 C59.505 24.329375 59.505 24.329375 59 22.625 C57.8566818 18.48047154 58.13693059 16.81485641 60 13 C63.27046125 10.8196925 65.1199299 10.31040561 69 10 C72.48390944 10.9722538 74.73881199 12.17829215 77 15 C77.67915754 18.39012806 77.60504643 21.59941496 77 25 C74.75 27.375 74.75 27.375 72 29 C68.9126025 31.8254365 66.57013207 34.88170393 64.1875 38.3125 C54.74273753 51.33142304 40.97061752 60.7811554 24.8671875 63.64453125 C13.15145008 65.09702731 4.08961888 63.74545903 -6.3125 58.25 C-13.15762567 52.51919711 -16.50146556 46.36214373 -17.3359375 37.38671875 C-17.4535506 26.24875801 -15.21288906 16.78304178 -8 8 C-7.34 8 -6.68 8 -6 8 C-5.7525 7.4225 -5.505 6.845 -5.25 6.25 C-3.83316683 3.6997003 -2.12372463 1.98214299 0 0 Z " fill="#744AB9" transform="translate(34,74)"/>
<path d="M0 0 C2.27493335 2.91270368 1.87702343 5.79083958 1.7734375 9.359375 C1.3515625 11.73046875 1.3515625 11.73046875 -0.8984375 14.10546875 C-2.2596875 14.90984375 -2.2596875 14.90984375 -3.6484375 15.73046875 C-7.27064388 19.01309328 -9.87759491 22.72814057 -12.6484375 26.73046875 C-12.6484375 24.10933167 -12.33551305 22.22111763 -11.6484375 19.73046875 C-12.9684375 19.40046875 -14.2884375 19.07046875 -15.6484375 18.73046875 C-16.26332031 19.41753906 -16.87820312 20.10460937 -17.51171875 20.8125 C-18.31996094 21.71355469 -19.12820312 22.61460938 -19.9609375 23.54296875 C-20.76144531 24.43628906 -21.56195313 25.32960938 -22.38671875 26.25 C-26.29270104 30.53376296 -26.29270104 30.53376296 -27.6484375 31.73046875 C-28.3084375 31.73046875 -28.9684375 31.73046875 -29.6484375 31.73046875 C-29.6484375 32.39046875 -29.6484375 33.05046875 -29.6484375 33.73046875 C-30.47988281 34.14039063 -31.31132813 34.5503125 -32.16796875 34.97265625 C-33.25464844 35.51148438 -34.34132812 36.0503125 -35.4609375 36.60546875 C-36.53988281 37.13914063 -37.61882812 37.6728125 -38.73046875 38.22265625 C-41.72682015 39.70268014 -41.72682015 39.70268014 -44.6484375 41.73046875 C-53.22251696 44.39138996 -65.15959219 46.27676464 -73.5703125 42.375 C-75.85380977 40.63938882 -77.73990297 38.86733811 -79.6484375 36.73046875 C-80.16792969 36.19421875 -80.68742187 35.65796875 -81.22265625 35.10546875 C-86.02291005 29.82381414 -87.03857 25.24598088 -86.9140625 18.3046875 C-86.43963033 13.70688159 -84.70829756 9.85018886 -82.6484375 5.73046875 C-81.9884375 5.73046875 -81.3284375 5.73046875 -80.6484375 5.73046875 C-80.97328125 6.79974609 -80.97328125 6.79974609 -81.3046875 7.890625 C-83.81371523 16.52121575 -84.97901725 23.53514851 -80.6484375 31.73046875 C-76.78650557 36.30380919 -72.57634975 39.56954313 -66.6484375 40.73046875 C-52.03999884 41.87881251 -41.44597669 38.1709846 -29.6484375 29.73046875 C-29.05160156 29.30765625 -28.45476562 28.88484375 -27.83984375 28.44921875 C-22.76853177 24.55023603 -17.98976765 18.73908644 -15.6484375 12.73046875 C-16.1434375 11.05984375 -16.1434375 11.05984375 -16.6484375 9.35546875 C-17.7917557 5.21094029 -17.51150691 3.54532516 -15.6484375 -0.26953125 C-10.25590165 -3.86455515 -5.34643356 -4.11751399 0 0 Z " fill="#7248B5" transform="translate(109.6484375,87.26953125)"/>
<path d="M0 0 C1.32 0.33 2.64 0.66 4 1 C4.103125 1.639375 4.20625 2.27875 4.3125 2.9375 C4.6528125 3.9584375 4.6528125 3.9584375 5 5 C5.99 5.33 6.98 5.66 8 6 C8.33 6.99 8.66 7.98 9 9 C9.66 9 10.32 9 11 9 C10.505 8.01 10.505 8.01 10 7 C10.66 7 11.32 7 12 7 C12.33 6.34 12.66 5.68 13 5 C12.34 5 11.68 5 11 5 C10.505 3.02 10.505 3.02 10 1 C19.03858286 7.87661636 23.30578316 15.98757269 26 27 C26.26842184 29.77795297 26.21489147 32.20641095 26 35 C23.03 34.34 20.06 33.68 17 33 C16.78085938 32.0821875 16.56171875 31.164375 16.3359375 30.21875 C14.58137186 23.42872364 12.89420035 17.83003011 8.171875 12.453125 C7 11 7 11 7 9 C6.278125 8.71125 5.55625 8.4225 4.8125 8.125 C2 7 2 7 -0.1875 5.8125 C-7.09230334 3.81777904 -13.75804818 5.94271748 -20 9 C-20.99 9.33 -21.98 9.66 -23 10 C-21.9900089 7.26843315 -21.32692912 6.18389763 -18.75 4.734375 C-12.30265098 2.42651711 -6.84035832 1.46582885 0 2 C0 1.34 0 0.68 0 0 Z " fill="#7149B2" transform="translate(85,25)"/>
<path d="M0 0 C1.04285156 0.54269531 2.08570312 1.08539063 3.16015625 1.64453125 C5.9375 3.1875 5.9375 3.1875 8.9375 5.1875 C8.9375 5.8475 8.9375 6.5075 8.9375 7.1875 C9.618125 7.3525 10.29875 7.5175 11 7.6875 C14.68890011 9.57119367 16.67678134 12.05291972 19.2890625 15.21484375 C20.84691948 17.171508 20.84691948 17.171508 22.51171875 18.61328125 C26.30062397 22.79664783 28.19890948 29.79576483 28.1875 35.375 C28.105 36.303125 28.0225 37.23125 27.9375 38.1875 C25.9575 38.6825 25.9575 38.6825 23.9375 39.1875 C23.710625 38.23875 23.48375 37.29 23.25 36.3125 C21.81970893 31.28604852 19.38676581 26.78182344 16.9375 22.1875 C16.421875 21.218125 15.90625 20.24875 15.375 19.25 C13.81566212 17.01268913 12.12928956 15.77465796 9.9375 14.1875 C9.9375 13.5275 9.9375 12.8675 9.9375 12.1875 C8.9475 12.1875 7.9575 12.1875 6.9375 12.1875 C5.92648173 11.19864103 4.92762417 10.19727924 3.9375 9.1875 C1.90672316 8.20121583 1.90672316 8.20121583 -0.25 7.5 C-0.96542969 7.24863281 -1.68085937 6.99726562 -2.41796875 6.73828125 C-2.96066406 6.55652344 -3.50335938 6.37476562 -4.0625 6.1875 C-4.0625 5.5275 -4.0625 4.8675 -4.0625 4.1875 C-4.92875 4.001875 -4.92875 4.001875 -5.8125 3.8125 C-8.08585767 3.18101176 -9.9878529 2.29891809 -12.0625 1.1875 C-11.4025 1.1875 -10.7425 1.1875 -10.0625 1.1875 C-10.0625 0.1975 -10.0625 -0.7925 -10.0625 -1.8125 C-6.00202563 -3.50517968 -3.72241151 -1.96960312 0 0 Z " fill="#754AB9" transform="translate(111.0625,68.8125)"/>
<path d="M0 0 C0.99 0.66 1.98 1.32 3 2 C2.44948535 5.99267992 1.5226161 9.25025861 -0.0625 12.9375 C-2.28295265 19.3081805 -2.3786236 25.41254168 -2.375 32.125 C-2.37636963 33.1574585 -2.37773926 34.18991699 -2.37915039 35.25366211 C-2.64437307 40.67493086 -2.64437307 40.67493086 0 45 C0.125 48.125 0.125 48.125 0 51 C-1.32 50.67 -2.64 50.34 -4 50 C-4 49.01 -4 48.02 -4 47 C-4.99 46.67 -5.98 46.34 -7 46 C-7 45.01 -7 44.02 -7 43 C-7.66 42.67 -8.32 42.34 -9 42 C-8.505 41.505 -8.505 41.505 -8 41 C-8.2165625 40.0409375 -8.2165625 40.0409375 -8.4375 39.0625 C-10.64575707 27.03976706 -8.83281021 13.24921531 -2 3 C-1.34 2.67 -0.68 2.34 0 2 C0 1.34 0 0.68 0 0 Z " fill="#754AB9" transform="translate(52,36)"/>
<path d="M0 0 C2.475 0.99 2.475 0.99 5 2 C5 2.66 5 3.32 5 4 C6.65 4 8.3 4 10 4 C10.33 3.34 10.66 2.68 11 2 C15.875 3.75 15.875 3.75 17 6 C17.13357453 9.67329964 17.1671568 12.49852959 16 16 C15.34 16 14.68 16 14 16 C13.67 16.99 13.34 17.98 13 19 C8.96901069 20.15171123 6.70658609 20.00356005 3 18 C0.51266649 14.26899974 0.92731351 12.43387604 1 8 C0.74213536 5.31820769 0.37461078 2.66910184 0 0 Z " fill="#7449B9" transform="translate(51,93)"/>
<path d="M0 0 C0.33 1.32 0.66 2.64 1 4 C1.99 3.67 2.98 3.34 4 3 C5.56118428 2.93259135 7.1250252 2.91485544 8.6875 2.9375 C9.89986328 2.95103516 9.89986328 2.95103516 11.13671875 2.96484375 C12.05904297 2.98224609 12.05904297 2.98224609 13 3 C13 3.66 13 4.32 13 5 C14.11375 4.690625 14.11375 4.690625 15.25 4.375 C18.32330841 3.95591249 19.42786866 4.38050989 22 6 C22 6.66 22 7.32 22 8 C22.66 8.33 23.32 8.66 24 9 C23.07719238 8.9685791 23.07719238 8.9685791 22.13574219 8.93652344 C19.34066191 8.85322983 16.54584285 8.80129987 13.75 8.75 C12.78191406 8.71648437 11.81382813 8.68296875 10.81640625 8.6484375 C5.25419353 8.40105583 5.25419353 8.40105583 0.5859375 10.99609375 C0.06257813 11.65738281 -0.46078125 12.31867188 -1 13 C-4.38917777 13.69701958 -7.87057535 13.56471233 -11 12 C-11.59355614 9.35139573 -11.74209269 6.70802678 -12 4 C-11.34 3.67 -10.68 3.34 -10 3 C-9.67 2.34 -9.34 1.68 -9 1 C-5.72782326 -1.22040564 -3.74383599 -1.03995444 0 0 Z " fill="#754ABA" transform="translate(75,60)"/>
<path d="M0 0 C0.66 0 1.32 0 2 0 C2.28040202 3.1778896 2.16653819 4.72243636 0.5 7.5 C-3.05472313 15.79435396 -1.33035571 24.560874 1.734375 32.7578125 C3.15329498 35.27157815 4.67470859 36.34884769 7 38 C7 38.66 7 39.32 7 40 C8.65538958 40.69419563 10.32636023 41.35103764 12 42 C12.87785156 42.39638672 12.87785156 42.39638672 13.7734375 42.80078125 C26.88320209 48.09993897 40.41384732 45.06817103 52.97900391 39.90722656 C58.79618313 37.29589073 64.42225805 34.36661293 68 29 C68.66 29 69.32 29 70 29 C70.495 27.515 70.495 27.515 71 26 C73.0625 25.3125 73.0625 25.3125 75 25 C65.81455113 36.54069218 52.46668887 45.58517806 37.5859375 47.78515625 C25.29216845 48.8065419 13.87239912 48.26526438 4 40 C-3.22806895 32.04041563 -4.44125342 24.35259381 -4.3359375 13.7578125 C-3.8798616 8.65612624 -2.37460234 4.5053839 0 0 Z " fill="#5C3E95" transform="translate(21,90)"/>
<path d="M0 0 C0.66 0 1.32 0 2 0 C1.7834375 0.71285156 1.566875 1.42570312 1.34375 2.16015625 C-1.16527773 10.790747 -2.33057975 17.80467976 2 26 C5.86193193 30.57334044 10.07208775 33.83907438 16 35 C30.60843866 36.14834376 41.20246081 32.44051585 53 24 C53.59683594 23.5771875 54.19367188 23.154375 54.80859375 22.71875 C59.67246105 18.97925722 64.05077059 13.84768823 66 8 C66.66 8 67.32 8 68 8 C67.51898913 12.62765634 65.7809184 14.78524169 62.625 18.125 C61.83351563 18.97320312 61.04203125 19.82140625 60.2265625 20.6953125 C59.12441406 21.83613281 59.12441406 21.83613281 58 23 C57.45085937 23.59554687 56.90171875 24.19109375 56.3359375 24.8046875 C55 26 55 26 53 26 C53 26.66 53 27.32 53 28 C52.16855469 28.40992187 51.33710937 28.81984375 50.48046875 29.2421875 C49.39378906 29.78101562 48.30710938 30.31984375 47.1875 30.875 C46.10855469 31.40867187 45.02960938 31.94234375 43.91796875 32.4921875 C40.92161735 33.97221139 40.92161735 33.97221139 38 36 C29.42592054 38.66092121 17.48884531 40.54629589 9.078125 36.64453125 C6.79462773 34.90892007 4.90853453 33.13686936 3 31 C2.48050781 30.46375 1.96101563 29.9275 1.42578125 29.375 C-3.37447255 24.09334539 -4.3901325 19.51551213 -4.265625 12.57421875 C-3.79119283 7.97641284 -2.05986006 4.11972011 0 0 Z " fill="#5E4393" transform="translate(27,93)"/>
<path d="M0 0 C3 2 3 2 4.1875 5.5625 C4.502677 8.68561755 4.09955729 9.84478659 2.37890625 12.52734375 C0.35064475 14.88310436 -1.58570392 17.03951897 -4 19 C-4.99 19 -5.98 19 -7 19 C-7.66 21.31 -8.32 23.62 -9 26 C-9.639375 26.103125 -10.27875 26.20625 -10.9375 26.3125 C-11.9584375 26.6528125 -11.9584375 26.6528125 -13 27 C-13.33 27.99 -13.66 28.98 -14 30 C-14.33 29.01 -14.66 28.02 -15 27 C-14.525625 26.0925 -14.05125 25.185 -13.5625 24.25 C-11.73647391 21.07510529 -11.73647391 21.07510529 -12.0625 17.5 C-11.98521165 13.17185234 -10.72855781 11.29031972 -8 8 C-7.34 8 -6.68 8 -6 8 C-5.7525 7.4225 -5.505 6.845 -5.25 6.25 C-3.83316683 3.6997003 -2.12372463 1.98214299 0 0 Z " fill="#744BB6" transform="translate(34,74)"/>
<path d="M0 0 C0.33 0 0.66 0 1 0 C0.74336934 7.05734318 -1.29552135 11.69641238 -6 17 C-15.11830974 24.61238199 -25.19045312 27.94476375 -37 27 C-42.58240545 25.94257019 -47.98408595 24.73379202 -53 22 C-52 19 -52 19 -49.5625 16.6875 C-45.12769207 14.58680151 -43.24696162 15.24250148 -38.65234375 16.41015625 C-32.16003496 17.85395393 -25.49235833 17.1291058 -19 16 C-19 16.66 -19 17.32 -19 18 C-23.77137102 19.92180222 -27.39518177 20.11808934 -32.5 19.6875 C-33.7684375 19.58824219 -35.036875 19.48898438 -36.34375 19.38671875 C-40 19 -40 19 -43.34375 18.39453125 C-45.96831967 17.74508987 -45.96831967 17.74508987 -48 19 C-48 19.66 -48 20.32 -48 21 C-39.94910744 24.65949662 -29.94899335 25.4002249 -21.4375 22.875 C-13.97672704 20.06235462 -7.43823579 15.65735368 -3 9 C-1.8024877 6.0474292 -0.83974436 3.07223545 0 0 Z " fill="#5A408D" transform="translate(140,112)"/>
<path d="M0 0 C4.90094703 -0.288291 8.21612143 -0.33871638 12 3 C13.43303924 7.49018962 13.16812775 8.6637445 11 13 C7.7 13 4.4 13 1 13 C0.67 13.99 0.34 14.98 0 16 C-2.7617689 5.5235378 -2.7617689 5.5235378 0 0 Z " fill="#754ABA" transform="translate(97,86)"/>
<path d="M0 0 C0.91845703 0.09796875 1.83691406 0.1959375 2.78320312 0.296875 C4.71564176 0.51432288 6.64793609 0.7330573 8.58007812 0.953125 C9.50240234 1.05109375 10.42472656 1.1490625 11.375 1.25 C12.21587158 1.34539062 13.05674316 1.44078125 13.9230957 1.5390625 C16.56842554 1.6313384 18.81986635 1.23941683 21.38671875 0.625 C21.38671875 1.285 21.38671875 1.945 21.38671875 2.625 C17.92171875 4.11 17.92171875 4.11 14.38671875 5.625 C14.71671875 5.955 15.04671875 6.285 15.38671875 6.625 C15.38671875 6.955 15.38671875 7.285 15.38671875 7.625 C7.2223116 7.93180444 -0.29372014 7.53095414 -7.61328125 3.625 C-7.28328125 2.635 -6.95328125 1.645 -6.61328125 0.625 C-4.09142466 -0.63592829 -2.7884308 -0.31760482 0 0 Z " fill="#7349B7" transform="translate(98.61328125,129.375)"/>
<path d="M0 0 C14.06569477 1.41541583 25.11147578 10.91013086 33.875 21.4375 C38.7271789 28.01030972 41.7156988 34.76946378 41 43 C40.01 43.495 40.01 43.495 39 44 C38.90203125 43.31035156 38.8040625 42.62070313 38.703125 41.91015625 C37.21646041 32.56723828 35.05065836 25.46310349 28 19 C28 18.34 28 17.68 28 17 C27.01 16.67 26.02 16.34 25 16 C23.97980427 15.0206121 22.97850195 14.02104551 22 13 C21.34 12.67 20.68 12.34 20 12 C20 11.34 20 10.68 20 10 C19.34 9.7525 18.68 9.505 18 9.25 C15.63787495 8.26578123 13.40231119 7.21887786 11.125 6.0625 C7.47538495 4.20993875 3.77758429 2.57399345 0 1 C0 0.67 0 0.34 0 0 Z " fill="#5E4290" transform="translate(100,64)"/>
<path d="M0 0 C0.33 0.99 0.66 1.98 1 3 C0.67 3.66 0.34 4.32 0 5 C-0.66 5 -1.32 5 -2 5 C-1.67 6.32 -1.34 7.64 -1 9 C-1.99 9.33 -2.98 9.66 -4 10 C-10.66511964 19.77234623 -11.06531821 34.27644294 -9.5 45.625 C-9.335 46.40875 -9.17 47.1925 -9 48 C-9.99 47.67 -10.98 47.34 -12 47 C-15.19786498 31.81014135 -11.75746014 18.10912568 -4 5 C-2.70305159 3.30486568 -1.38099951 1.62738929 0 0 Z " fill="#5F4497" transform="translate(54,30)"/>
<path d="M0 0 C0.66 0 1.32 0 2 0 C0.43776075 4.03578473 -1.31510197 7.97226323 -3.09765625 11.9140625 C-5.37695202 17.18308389 -5.22020319 21.90483152 -5.25 27.5625 C-5.270625 28.51447266 -5.29125 29.46644531 -5.3125 30.44726562 C-5.3490731 37.16300026 -4.16564837 42.67548365 -2 49 C-1.65253529 50.32972071 -1.31436018 51.66206631 -1 53 C-1.66 53 -2.32 53 -3 53 C-9.1001241 42.10692125 -10.32381425 25.77417766 -6.98828125 13.78125 C-3.54887915 3.94848485 -3.54887915 3.94848485 0 0 Z " fill="#5D418D" transform="translate(57,38)"/>
<path d="M0 0 C1.32 0.33 2.64 0.66 4 1 C4.103125 1.639375 4.20625 2.27875 4.3125 2.9375 C4.6528125 3.9584375 4.6528125 3.9584375 5 5 C5.99 5.33 6.98 5.66 8 6 C8.33 6.99 8.66 7.98 9 9 C11.50447516 10.21869929 11.50447516 10.21869929 14 11 C14 11.99 14 12.98 14 14 C13.01 13.67 12.02 13.34 11 13 C11 12.34 11 11.68 11 11 C10.01 11.33 9.02 11.66 8 12 C7.67 11.01 7.34 10.02 7 9 C4.70465742 7.86454438 4.70465742 7.86454438 2 7 C1.278125 6.608125 0.55625 6.21625 -0.1875 5.8125 C-7.09230334 3.81777904 -13.75804818 5.94271748 -20 9 C-20.99 9.33 -21.98 9.66 -23 10 C-21.9900089 7.26843315 -21.32692912 6.18389763 -18.75 4.734375 C-12.30265098 2.42651711 -6.84035832 1.46582885 0 2 C0 1.34 0 0.68 0 0 Z " fill="#6644AE" transform="translate(85,25)"/>
<path d="M0 0 C4.3907553 3.48232317 5.77639803 7.70079146 7 13 C7.03703069 14.99965715 7.04760556 17.00056665 7 19 C8.69803675 22.27176692 8.69803675 22.27176692 11.9375 22.75 C15.03946442 23.20482638 15.03946442 23.20482638 18 22 C18.33 21.34 18.66 20.68 19 20 C19.66 20 20.32 20 21 20 C21.33 17.36 21.66 14.72 22 12 C22.33 12 22.66 12 23 12 C23.48105833 19.09561034 23.48105833 19.09561034 21.4375 22.9375 C18.22755042 25.65361118 16.17955847 26 12 26 C8.35267837 24.42502021 5.82448146 22.55293758 4 19 C4.0326041 17.07635838 4.0700153 15.15227381 4.16015625 13.23046875 C3.90985804 9.74460827 2.42543657 6.97291872 0.875 3.8828125 C0 2 0 2 0 0 Z " fill="#5B438A" transform="translate(46,89)"/>
<path d="M0 0 C3.9492568 0.55105909 7.34920174 1.38935371 11 3 C11 3.99 11 4.98 11 6 C11.99 6 12.98 6 14 6 C20.97575243 11.90105668 26.02005201 21.19056827 27.96875 29.9921875 C28.00737524 32.47385904 27.24997527 33.88829935 26 36 C25.91363281 35.39414063 25.82726562 34.78828125 25.73828125 34.1640625 C24.74154489 28.22022183 22.98702754 23.42705685 20.12109375 18.12890625 C19 16 19 16 18 13 C17.34 13 16.68 13 16 13 C14.87311941 11.83897151 13.74815775 10.67602057 12.6328125 9.50390625 C10.00086988 7.07974857 6.99914159 5.24987338 3.98828125 3.33203125 C2 2 2 2 0 0 Z " fill="#624794" transform="translate(107,75)"/>
<path d="M0 0 C3 2 3 2 4.1875 5.5625 C4.52672539 8.75004888 4.1124325 9.83542121 2.2734375 12.52734375 C0.25802404 14.78133089 -1.80316257 16.92333968 -4 19 C-4.33 18.01 -4.66 17.02 -5 16 C-3 14 -1 12 1 10 C1.04080783 8.00041636 1.04254356 5.99954746 1 4 C-1.8304269 7.49016416 -1.8304269 7.49016416 -4.375 11.1875 C-6.58469019 13.65215444 -8.85430139 14.16114704 -12 15 C-10.68 12.69 -9.36 10.38 -8 8 C-7.34 8 -6.68 8 -6 8 C-5.7525 7.4225 -5.505 6.845 -5.25 6.25 C-3.83316683 3.6997003 -2.12372463 1.98214299 0 0 Z " fill="#553F85" transform="translate(34,74)"/>
<path d="M0 0 C10.30732879 0.2885003 10.30732879 0.2885003 15.1953125 2.4609375 C15.1953125 2.7909375 15.1953125 3.1209375 15.1953125 3.4609375 C14.01453125 3.41453125 12.83375 3.368125 11.6171875 3.3203125 C10.05992116 3.28278801 8.50262742 3.24638857 6.9453125 3.2109375 C6.16800781 3.17742187 5.39070313 3.14390625 4.58984375 3.109375 C-0.19203031 2.95510816 -0.19203031 2.95510816 -4.1328125 5.453125 C-4.68453125 6.11570312 -5.23625 6.77828125 -5.8046875 7.4609375 C-10.06558259 7.91746197 -13.15510885 7.79666784 -16.8046875 5.4609375 C-14.10280444 4.10999597 -11.81606277 4.57597716 -8.875 4.81640625 C-6.59525396 4.63726718 -6.59525396 4.63726718 -4.9140625 2.47265625 C-2.8046875 0.4609375 -2.8046875 0.4609375 0 0 Z " fill="#5A418F" transform="translate(80.8046875,67.5390625)"/>
<path d="M0 0 C7.74547769 5.892813 12.20546806 12.68489354 15 22 C14.5703125 24.234375 14.5703125 24.234375 14 26 C11 20.375 11 20.375 11 17 C10.34 17 9.68 17 9 17 C8.67 14.69 8.34 12.38 8 10 C7.34 10 6.68 10 6 10 C4.375 8.6875 4.375 8.6875 3 7 C3 6.01 3 5.02 3 4 C2.34 4 1.68 4 1 4 C0.67 2.68 0.34 1.36 0 0 Z " fill="#5E449A" transform="translate(95,26)"/>
<path d="M0 0 C0.66 0.66 1.32 1.32 2 2 C-2.09385367 2 -5.10223272 1.15489401 -9 0 C-9.66 0 -10.32 0 -11 0 C-11 -0.66 -11 -1.32 -11 -2 C-17.02900687 -1.48758893 -23.02004643 -0.930215 -29 0 C-21.48909595 -7.51090405 -8.27954058 -4.362681 0 0 Z " fill="#5D428A" transform="translate(93,24)"/>
<path d="M0 0 C0.66 0 1.32 0 2 0 C2.28118425 3.1867548 2.13051686 4.76951278 0.53125 7.59375 C-1.42122159 11.93700314 -1.55614334 15.66867835 -1.6875 20.375 C-1.72166016 21.20644531 -1.75582031 22.03789063 -1.79101562 22.89453125 C-1.87287146 24.92923351 -1.93812701 26.96459208 -2 29 C-5.49513428 23.43574622 -4.54796465 16.30159346 -4 10 C-3.00737003 6.45674259 -1.71413157 3.25225856 0 0 Z " fill="#66499A" transform="translate(21,90)"/>
<path d="M0 0 C1.010625 0.474375 2.02125 0.94875 3.0625 1.4375 C10.75095026 4.67796015 18.80163851 4.11095527 27 4 C27.33 4.66 27.66 5.32 28 6 C18.70091618 8.47975569 10.04452395 6.61079042 1 4 C0.67 2.68 0.34 1.36 0 0 Z " fill="#624397" transform="translate(90,132)"/>
<path d="M0 0 C0 0.66 0 1.32 0 2 C-0.67804688 1.89300781 -1.35609375 1.78601563 -2.0546875 1.67578125 C-10.70994655 0.56090716 -17.29805188 1.98235508 -25 6 C-24.04464499 2.92163387 -22.99809344 1.99878674 -20.25 0.25 C-14.70197659 -1.9173807 -5.38308539 -2.69154269 0 0 Z " fill="#5E468B" transform="translate(87,29)"/>
<path d="M0 0 C0.66 0 1.32 0 2 0 C2.3125 2.6875 2.3125 2.6875 2 6 C-0.1875 8.5625 -0.1875 8.5625 -3 11 C-3.928125 11.928125 -4.85625 12.85625 -5.8125 13.8125 C-6.534375 14.534375 -7.25625 15.25625 -8 16 C-8.99 15.34 -9.98 14.68 -11 14 C-7.25 11 -7.25 11 -5 11 C-3.13448574 7.41247258 -1.57464072 3.72187807 0 0 Z " fill="#674A9B" transform="translate(132,113)"/>
<path d="M0 0 C1.80566063 2.34262094 1.70839113 3.87338353 1.65234375 6.80078125 C1.64847656 7.67863281 1.64460938 8.55648437 1.640625 9.4609375 C1.33984375 11.73828125 1.33984375 11.73828125 -0.66015625 13.73828125 C-1.65015625 13.40828125 -2.64015625 13.07828125 -3.66015625 12.73828125 C-3.00015625 12.73828125 -2.34015625 12.73828125 -1.66015625 12.73828125 C-0.47144515 7.137157 -0.47144515 7.137157 -1.66015625 1.73828125 C-4.9363715 -0.65587605 -8.7155951 -0.80657708 -12.66015625 -1.26171875 C-12.66015625 -1.59171875 -12.66015625 -1.92171875 -12.66015625 -2.26171875 C-7.85554047 -3.67484104 -4.0437169 -3.07322485 0 0 Z " fill="#57407F" transform="translate(109.66015625,87.26171875)"/>
<path d="M0 0 C0.33 0.66 0.66 1.32 1 2 C0.21625 1.95875 -0.5675 1.9175 -1.375 1.875 C-4.16116119 1.71271266 -4.16116119 1.71271266 -6 4 C-6.99 4.495 -6.99 4.495 -8 5 C-8.33 5.66 -8.66 6.32 -9 7 C-9.66 6.67 -10.32 6.34 -11 6 C-10.67 8.64 -10.34 11.28 -10 14 C-10.66 13.67 -11.32 13.34 -12 13 C-12.59355614 10.35139573 -12.74209269 7.70802678 -13 5 C-12.01 5 -11.02 5 -10 5 C-9.896875 4.360625 -9.79375 3.72125 -9.6875 3.0625 C-9.460625 2.381875 -9.23375 1.70125 -9 1 C-5.8035914 -0.06546953 -3.34252724 -0.07427838 0 0 Z " fill="#684AA4" transform="translate(74,58)"/>
<path d="M0 0 C0.66 0 1.32 0 2 0 C3.49821059 3.37097383 4 5.20442119 4 9 C5.65 9.33 7.3 9.66 9 10 C9.33 8.35 9.66 6.7 10 5 C10.33 5 10.66 5 11 5 C11 7.31 11 9.62 11 12 C6.545 11.01 6.545 11.01 2 10 C1.34 6.7 0.68 3.4 0 0 Z " fill="#5D4688" transform="translate(100,48)"/>
<path d="M0 0 C4.35837567 3.45664277 5.94570627 7.6749232 7 13 C6.95423793 15.50776118 6.57584618 17.53956634 6 20 C5.34 19.67 4.68 19.34 4 19 C4.0825 17.865625 4.165 16.73125 4.25 15.5625 C4.28196924 11.07881471 2.86261171 7.84423305 0.875 3.8828125 C0 2 0 2 0 0 Z " fill="#644A94" transform="translate(46,89)"/>
<path d="M0 0 C2.875 2.5 2.875 2.5 5 5 C4.01 5 3.02 5 2 5 C1.34 4.34 0.68 3.68 0 3 C-2.21072977 2.75746187 -2.21072977 2.75746187 -4.625 2.875 C-5.85089844 2.90207031 -5.85089844 2.90207031 -7.1015625 2.9296875 C-8.04128906 2.96449219 -8.04128906 2.96449219 -9 3 C-9.33 4.32 -9.66 5.64 -10 7 C-10.66 7 -11.32 7 -12 7 C-11.8125 5.1875 -11.8125 5.1875 -11 3 C-7.40353464 0.12282771 -4.55748583 -0.75958097 0 0 Z " fill="#5A4488" transform="translate(74,56)"/>
<path d="M0 0 C0.66 0 1.32 0 2 0 C2.625 1.8125 2.625 1.8125 3 4 C1 7 1 7 0 8 C0.33 8.66 0.66 9.32 1 10 C0.0625 12.125 0.0625 12.125 -1 14 C-3 13 -3 13 -4 10 C-3.34 10 -2.68 10 -2 10 C-1.93941406 9.36191406 -1.87882813 8.72382812 -1.81640625 8.06640625 C-1.73261719 7.24011719 -1.64882812 6.41382812 -1.5625 5.5625 C-1.48128906 4.73878906 -1.40007812 3.91507812 -1.31640625 3.06640625 C-1 1 -1 1 0 0 Z " fill="#774CBC" transform="translate(136,109)"/>
<path d="M0 0 C0.9075 0.103125 1.815 0.20625 2.75 0.3125 C2 5.0625 2 5.0625 -0.25 7.3125 C-0.58 5.6625 -0.91 4.0125 -1.25 2.3125 C-2.24 2.8075 -2.24 2.8075 -3.25 3.3125 C-3.90555119 5.83983235 -3.90555119 5.83983235 -4.25 8.3125 C-4.58 7.6525 -4.91 6.9925 -5.25 6.3125 C-5.91 5.9825 -6.57 5.6525 -7.25 5.3125 C-4.05 0.38942308 -4.05 0.38942308 0 0 Z " fill="#5B3CB7" transform="translate(139.25,106.6875)"/>
<path d="M0 0 C2.31 0 4.62 0 7 0 C6.29875 0.474375 5.5975 0.94875 4.875 1.4375 C1.09488344 4.80673433 -1.34083651 8.72340718 -4 13 C-4 9.70342144 -3.25666731 7.83635572 -2 4.8125 C-1.62875 3.91144531 -1.2575 3.01039062 -0.875 2.08203125 C-0.441875 1.05142578 -0.441875 1.05142578 0 0 Z " fill="#604694" transform="translate(101,101)"/>
<path d="M0 0 C0.33 0.66 0.66 1.32 1 2 C0.34 2.66 -0.32 3.32 -1 4 C-1.4125 4.66 -1.825 5.32 -2.25 6 C-4.52950802 8.60515202 -6.70694131 9.12185102 -10 10 C-8.68 7.69 -7.36 5.38 -6 3 C-5.34 3 -4.68 3 -4 3 C-4 2.34 -4 1.68 -4 1 C-2.68 0.67 -1.36 0.34 0 0 Z " fill="#624099" transform="translate(32,79)"/>
<path d="M0 0 C0.33 0 0.66 0 1 0 C0.64455443 6.63498399 -1.13095043 10.63187218 -5 16 C-5.99 15.67 -6.98 15.34 -8 15 C-7.236875 14.195625 -6.47375 13.39125 -5.6875 12.5625 C-2.51756027 8.80720208 -1.27944127 4.6808827 0 0 Z " fill="#614793" transform="translate(140,112)"/>
<path d="M0 0 C0.33 0.66 0.66 1.32 1 2 C0.690625 2.598125 0.38125 3.19625 0.0625 3.8125 C-1.19864857 6.40898235 -1.22537427 8.1452592 -1 11 C-0.67 11.66 -0.34 12.32 0 13 C-0.99 13 -1.98 13 -3 13 C-4.1100616 8.33774127 -3.9453329 5.4025955 -2 1 C-1.34 0.67 -0.68 0.34 0 0 Z " fill="#5F428D" transform="translate(96,86)"/>
<path d="M0 0 C0.99 0.33 1.98 0.66 3 1 C1 2.33333333 -1 3.66666667 -3 5 C-3.99 6.485 -3.99 6.485 -5 8 C-5.66 7.67 -6.32 7.34 -7 7 C-5.65117186 2.95351557 -3.65173931 2.04497401 0 0 Z " fill="#523C7C" transform="translate(94,127)"/>
<path d="M0 0 C3.35433109 0.94933899 6.69246505 1.89748835 10 3 C10 3.66 10 4.32 10 5 C6.37 4.01 2.74 3.02 -1 2 C-0.67 1.34 -0.34 0.68 0 0 Z " fill="#5E4290" transform="translate(97,70)"/>
<path d="M0 0 C0.66 0 1.32 0 2 0 C1.46930939 3.82097239 0.50298434 6.06171403 -2 9 C-2.99 8.67 -3.98 8.34 -5 8 C-4.360625 7.236875 -3.72125 6.47375 -3.0625 5.6875 C-0.85767219 3.11753287 -0.85767219 3.11753287 0 0 Z " fill="#503588" transform="translate(93,101)"/>
<path d="M0 0 C0.66 0.33 1.32 0.66 2 1 C2.5625 2.9375 2.5625 2.9375 3 5 C3.33 5.66 3.66 6.32 4 7 C2.02 7 0.04 7 -2 7 C-1.125 2.25 -1.125 2.25 0 0 Z " fill="#7248B3" transform="translate(49,40)"/>
<path d="M0 0 C6.75 0.875 6.75 0.875 9 2 C9 2.66 9 3.32 9 4 C4.545 3.01 4.545 3.01 0 2 C0 1.34 0 0.68 0 0 Z " fill="#523C7D" transform="translate(35,134)"/>
<path d="M0 0 C-0.33 0.66 -0.66 1.32 -1 2 C-1.78375 1.95875 -2.5675 1.9175 -3.375 1.875 C-6.16116119 1.71271266 -6.16116119 1.71271266 -8 4 C-8 2.68 -8 1.36 -8 0 C-5.13822943 -1.43088528 -3.06624227 -0.59991697 0 0 Z " fill="#7248B6" transform="translate(100,130)"/>
<path d="M0 0 C0.66 0.33 1.32 0.66 2 1 C1.34 4.3 0.68 7.6 0 11 C-0.33 11 -0.66 11 -1 11 C-1.125 3.375 -1.125 3.375 0 0 Z " fill="#5C438A" transform="translate(18,97)"/>
<path d="M0 0 C2.475 0.495 2.475 0.495 5 1 C5.33 2.32 5.66 3.64 6 5 C4.68 4.67 3.36 4.34 2 4 C2 3.34 2 2.68 2 2 C1.34 2 0.68 2 0 2 C0 1.34 0 0.68 0 0 Z " fill="#63498D" transform="translate(62,96)"/>
<path d="M0 0 C0.99 0.33 1.98 0.66 3 1 C4.125 6.625 4.125 6.625 3 10 C2.34 10 1.68 10 1 10 C1.03255208 7.98177083 1.06510417 5.96354167 1.09765625 3.9453125 C1.12649242 1.91814596 1.12649242 1.91814596 0 0 Z " fill="#6F49B3" transform="translate(106,88)"/>
</svg>
