<?xml version="1.0" encoding="UTF-8"?>
<svg version="1.1" xmlns="http://www.w3.org/2000/svg" width="157" height="157">
<path d="M0 0 C3.99243574 3.50183982 6.53551844 7.58034872 7.08203125 12.96484375 C7.39226813 24.31298208 3.15567645 33.04216435 -4.15625 41.6171875 C-14.71984125 52.07093204 -29.33746078 57.44714759 -44.1328125 57.6796875 C-52.92078173 57.26368896 -59.47367016 56.76240937 -65.65625 50.1171875 C-67.1875 48.3359375 -67.1875 48.3359375 -68.15625 46.6171875 C-67.82625 45.6271875 -67.49625 44.6371875 -67.15625 43.6171875 C-63.7670929 44.22239412 -61.85194871 45.53019495 -59.15625 47.6171875 C-48.07564871 51.31072126 -36.11854801 47.89856361 -25.95703125 43.109375 C-17.56410659 38.58119733 -9.22400158 32.01217673 -6.15625 22.6171875 C-5.57488753 18.00308285 -5.18916352 14.10501286 -7.78125 10.1171875 C-13.01438772 6.81204789 -18.20679062 6.25738076 -24.28125 6.3046875 C-25.03116211 6.30960205 -25.78107422 6.3145166 -26.55371094 6.31958008 C-33.0837136 6.45579644 -38.95185913 7.53778674 -45.15625 9.6171875 C-46.14367187 9.93429688 -47.13109375 10.25140625 -48.1484375 10.578125 C-64.27679757 16.24919425 -83.84656601 25.89727031 -92.3828125 41.58984375 C-94.20189485 46.35804445 -95.07275408 51.07134283 -93.3125 55.9609375 C-92.25927225 58.10342428 -92.25927225 58.10342428 -91.06640625 60.0234375 C-90.15625 61.6171875 -90.15625 61.6171875 -90.15625 63.6171875 C-89.49625 63.6171875 -88.83625 63.6171875 -88.15625 63.6171875 C-86.46432396 65.25820603 -84.80322227 66.93105645 -83.15625 68.6171875 C-80.96690543 70.58148438 -78.72049376 72.47500872 -76.46875 74.3671875 C-75.88802734 74.86089844 -75.30730469 75.35460937 -74.70898438 75.86328125 C-71.61832646 78.5111859 -71.61832646 78.5111859 -68.15625 80.6171875 C-68.15625 81.2771875 -68.15625 81.9371875 -68.15625 82.6171875 C-66.64998047 81.82054688 -66.64998047 81.82054688 -65.11328125 81.0078125 C-51.91943185 74.14324763 -39.2063224 68.05992046 -24.09375 71.6171875 C-18.39167643 73.50887068 -14.02367416 77.06629614 -10.15625 81.6171875 C-8.00385972 86.00396387 -7.52058596 89.80569968 -8.15625 94.6171875 C-9.80750565 98.24994994 -11.975319 101.18471086 -15.15625 103.6171875 C-17.90625 103.3671875 -17.90625 103.3671875 -20.15625 102.6171875 C-19.71152344 102.10929687 -19.26679687 101.60140625 -18.80859375 101.078125 C-15.18681666 96.79985775 -15.18681666 96.79985775 -13.96875 91.4921875 C-16.08711043 86.36352541 -18.70253997 82.96347135 -23.78125 80.7421875 C-34.44125687 77.41467134 -45.19853063 80.22012673 -54.98046875 84.99609375 C-57.07762159 86.15166776 -59.13113693 87.34037202 -61.15625 88.6171875 C-60.99125 89.5659375 -60.82625 90.5146875 -60.65625 91.4921875 C-59.15903751 102.43504941 -60.04213425 111.82521147 -66.71875 120.9296875 C-71.95753273 127.0770414 -78.22112023 130.33110488 -86.15625 131.6171875 C-91.23978376 131.89960604 -95.53097355 131.84417246 -100.15625 129.6171875 C-103.11275134 125.8912834 -105.15625 121.99548385 -105.15625 117.16796875 C-103.02638675 105.96717003 -94.01168634 98.87731078 -85.15625 92.6171875 C-82.21027988 90.83890902 -79.21759752 89.18766601 -76.15625 87.6171875 C-79.09937081 85.2266289 -82.08547077 82.90519994 -85.1171875 80.62890625 C-85.83648437 80.08685547 -86.55578125 79.54480469 -87.296875 78.98632812 C-88.77584514 77.8732221 -90.25758512 76.76378599 -91.7421875 75.65820312 C-99.4802804 69.80627037 -106.41808312 63.91896585 -109.90625 54.6171875 C-111.05203049 45.45094359 -108.4572323 38.36840926 -102.96875 31.0546875 C-101.72031633 29.55656709 -100.44879103 28.07742347 -99.15625 26.6171875 C-98.52074219 25.88757812 -97.88523437 25.15796875 -97.23046875 24.40625 C-76.07991013 1.70226052 -28.30362369 -20.6124216 0 0 Z M-75.40625 95.8671875 C-76.36015625 96.47046875 -77.3140625 97.07375 -78.296875 97.6953125 C-84.05804582 101.56757486 -88.28922412 105.21693886 -91.15625 111.6171875 C-91.6601259 115.41226783 -91.6601259 115.41226783 -91.15625 118.6171875 C-90.18387 119.80280766 -90.18387 119.80280766 -88.40625 119.77734375 C-82.14922722 119.50577158 -78.56844041 117.41233208 -74.11328125 113.06640625 C-70.48325636 108.52344097 -68.16878478 103.23973896 -68.1484375 97.359375 C-68.38688978 95.26234612 -68.38688978 95.26234612 -69.15625 92.6171875 C-71.33118212 92.6171875 -73.66652158 94.7600876 -75.40625 95.8671875 Z " fill="#C46796" transform="translate(130.15625,16.3828125)"/>
<path d="M0 0 C0.66 0.33 1.32 0.66 2 1 C2.73305068 9.42193782 1.3686558 15.71480497 -3 23 C-3.52980469 23.515625 -4.05960938 24.03125 -4.60546875 24.5625 C-6.17532062 25.91834275 -6.17532062 25.91834275 -6.390625 28.01953125 C-7 30 -7 30 -9.109375 31.44921875 C-10.41648437 32.06216797 -10.41648437 32.06216797 -11.75 32.6875 C-12.61109375 33.10386719 -13.4721875 33.52023438 -14.359375 33.94921875 C-20.45313413 36.37410219 -26.15967496 36.29382673 -32.625 35.625 C-37.0458385 33.49644813 -38.31169496 31.15220987 -40.24609375 26.734375 C-41.44925017 22.37059525 -40.91858655 19.06384155 -39 15 C-36.8125 12.3125 -36.8125 12.3125 -34 10 C-33.41347656 9.44957031 -32.82695313 8.89914063 -32.22265625 8.33203125 C-28.67983309 5.05885214 -28.67983309 5.05885214 -27 4 C-26.01 4.33 -25.02 4.66 -24 5 C-24.47195034 8.11487222 -25.20586905 10.43644238 -26.5625 13.3125 C-28.24841527 17.63723918 -28.24133186 20.41469457 -28 25 C-25.36 25 -22.72 25 -20 25 C-19.67 24.34 -19.34 23.68 -19 23 C-17.68 23 -16.36 23 -15 23 C-12.39583651 20.81331378 -12.39583651 20.81331378 -10 18 C-8.948125 16.88625 -8.948125 16.88625 -7.875 15.75 C-5.74099872 12.62013146 -4.81778978 9.69120256 -3.7265625 6.09375 C-2.88530046 3.66946798 -1.72820032 1.89279082 0 0 Z " fill="#CA6798" transform="translate(66,112)"/>
<path d="M0 0 C0.91652344 -0.01224609 1.83304688 -0.02449219 2.77734375 -0.03710938 C8.45549676 -0.04925949 13.30366564 0.57021996 18.75 2.1875 C18.5746875 2.80238281 18.399375 3.41726562 18.21875 4.05078125 C17.68882861 6.46633959 18.10269125 7.84100578 18.75 10.1875 C17.75 11.1875 17.75 11.1875 14.8125 11.3125 C11.75 11.1875 11.75 11.1875 9.75 10.1875 C8.32457046 10.11572611 6.89582459 10.10357603 5.46875 10.125 C4.62699219 10.13273437 3.78523438 10.14046875 2.91796875 10.1484375 C1.59732422 10.16777344 1.59732422 10.16777344 0.25 10.1875 C-1.48952164 10.21296884 -3.22911535 10.23401561 -4.96875 10.25 C-6.12793945 10.26740234 -6.12793945 10.26740234 -7.31054688 10.28515625 C-9.25 10.1875 -9.25 10.1875 -11.25 9.1875 C-11.25 9.8475 -11.25 10.5075 -11.25 11.1875 C-11.93707031 11.15269531 -12.62414062 11.11789063 -13.33203125 11.08203125 C-14.23308594 11.05496094 -15.13414063 11.02789062 -16.0625 11 C-16.95582031 10.96519531 -17.84914063 10.93039063 -18.76953125 10.89453125 C-21.71013665 11.24184685 -22.35494854 12.01928796 -24.25 14.1875 C-24.91 14.1875 -25.57 14.1875 -26.25 14.1875 C-25.88487253 11.4855567 -25.55130763 9.60359148 -23.9375 7.375 C-22.25 6.1875 -22.25 6.1875 -18.25 6.1875 C-18.25 5.5275 -18.25 4.8675 -18.25 4.1875 C-12.84054024 -0.64237479 -6.87341692 0.0047534 0 0 Z " fill="#CB6799" transform="translate(102.25,10.8125)"/>
<path d="M0 0 C0.78052734 -0.00386719 1.56105469 -0.00773437 2.36523438 -0.01171875 C8.18414502 -0.00167749 8.18414502 -0.00167749 10.4375 1.125 C10.4375 2.115 10.4375 3.105 10.4375 4.125 C11.4275 4.455 12.4175 4.785 13.4375 5.125 C12.4375 7.125 12.4375 7.125 10.5625 7.8125 C8.4375 8.125 8.4375 8.125 5.4375 7.125 C-4.81141895 6.03582917 -13.61279542 9.21769713 -23.0625 12.8125 C-27.49076679 14.47310005 -30.83935886 15.125 -35.5625 15.125 C-35.5625 15.785 -35.5625 16.445 -35.5625 17.125 C-37.2125 17.125 -38.8625 17.125 -40.5625 17.125 C-39.5625 14.125 -39.5625 14.125 -38.5625 12.125 C-41.4309413 10.02267656 -41.4309413 10.02267656 -44.5625 9.125 C-44.2325 8.465 -43.9025 7.805 -43.5625 7.125 C-41.375 6.875 -41.375 6.875 -38.5625 7.125 C-37.77875 7.82625 -36.995 8.5275 -36.1875 9.25 C-35.32125 9.86875 -34.455 10.4875 -33.5625 11.125 C-29.81589693 10.65019289 -29.81589693 10.65019289 -26.5625 9.125 C-26.2325 8.465 -25.9025 7.805 -25.5625 7.125 C-23.24026667 6.05677267 -20.93164508 5.0754673 -18.5625 4.125 C-17.31126115 3.58620123 -16.06120407 3.04464752 -14.8125 2.5 C-9.6813551 0.32913101 -5.50451017 -0.02740835 0 0 Z " fill="#C96799" transform="translate(96.5625,88.875)"/>
<path d="M0 0 C3.63568821 1.91352011 5.52494482 3.14320434 7 7 C7.60763524 12.91550776 7.38390812 18.48721247 5 24 C4.34 24 3.68 24 3 24 C2.67 26.31 2.34 28.62 2 31 C1.01 31.33 0.02 31.66 -1 32 C-1.33 32.99 -1.66 33.98 -2 35 C-2.66 35.99 -3.32 36.98 -4 38 C-4.66 38 -5.32 38 -6 38 C-6.33 38.99 -6.66 39.98 -7 41 C-9.0625 41.6875 -9.0625 41.6875 -11 42 C-11 41.34 -11 40.68 -11 40 C-12.32 39.67 -13.64 39.34 -15 39 C-15 38.34 -15 37.68 -15 37 C-14.34 37 -13.68 37 -13 37 C-12.7525 36.4225 -12.505 35.845 -12.25 35.25 C-10.29742252 31.73536053 -7.5914523 29.43654813 -4.375 27.0625 C-1.1469925 22.90006928 -1.03881146 19.12099041 -0.5546875 13.9609375 C0.03948059 10.78925148 0.62137856 10.01861387 3 8 C3 7.34 3 6.68 3 6 C2.01 5.67 1.02 5.34 0 5 C0 3.35 0 1.7 0 0 Z " fill="#CC6799" transform="translate(128,19)"/>
<path d="M0 0 C0.99 0.33 1.98 0.66 3 1 C3.33 1.99 3.66 2.98 4 4 C4.66 4.33 5.32 4.66 6 5 C6 5.66 6 6.32 6 7 C7.32 7 8.64 7 10 7 C12.25 9.5 12.25 9.5 14 12 C13.34 12 12.68 12 12 12 C12.33 13.98 12.66 15.96 13 18 C11.28515625 18.703125 11.28515625 18.703125 9 19 C6.74609375 17.671875 6.74609375 17.671875 4.4375 15.75 C3.67308594 15.12609375 2.90867187 14.5021875 2.12109375 13.859375 C-1.58048285 10.61453069 -1.58048285 10.61453069 -3 9 C-3 8.34 -3 7.68 -3 7 C-3.99 7 -4.98 7 -6 7 C-6 5.35 -6 3.7 -6 2 C-4.68 2 -3.36 2 -2 2 C-1.34 1.34 -0.68 0.68 0 0 Z " fill="#CB6799" transform="translate(32,73)"/>
<path d="M0 0 C3.45826342 -0.05789006 6.91640293 -0.09355821 10.375 -0.125 C11.35984375 -0.14175781 12.3446875 -0.15851562 13.359375 -0.17578125 C14.77089844 -0.18544922 14.77089844 -0.18544922 16.2109375 -0.1953125 C17.08024902 -0.20578613 17.94956055 -0.21625977 18.84521484 -0.22705078 C21 0 21 0 23 2 C21.91203125 2.03738281 20.8240625 2.07476563 19.703125 2.11328125 C0.29789988 2.91998545 -15.90164087 9.10475169 -33 18 C-32.505 16.515 -32.505 16.515 -32 15 C-30.35 14.67 -28.7 14.34 -27 14 C-27 13.34 -27 12.68 -27 12 C-19.69686985 8.26688633 -19.69686985 8.26688633 -16.0625 6.875 C-13.8239113 6.18843441 -13.8239113 6.18843441 -13 4 C-12.34 4 -11.68 4 -11 4 C-10.67 3.01 -10.34 2.02 -10 1 C-6.7 1.33 -3.4 1.66 0 2 C0 1.34 0 0.68 0 0 Z " fill="#AF688D" transform="translate(91,20)"/>
<path d="M0 0 C1.0725 0.226875 2.145 0.45375 3.25 0.6875 C1.42683414 5.09348415 -1.04470328 6.89724055 -5.3125 8.875 C-7.75 9.6875 -7.75 9.6875 -10.75 9.6875 C-10.75 10.3475 -10.75 11.0075 -10.75 11.6875 C-14.05 11.3575 -17.35 11.0275 -20.75 10.6875 C-20.75 9.6975 -20.75 8.7075 -20.75 7.6875 C-19.76 7.6875 -18.77 7.6875 -17.75 7.6875 C-17.42 7.0275 -17.09 6.3675 -16.75 5.6875 C-16.09 6.0175 -15.43 6.3475 -14.75 6.6875 C-14.75 6.0275 -14.75 5.3675 -14.75 4.6875 C-12.9375 3 -12.9375 3 -10.75 1.6875 C-9.76 2.0175 -8.77 2.3475 -7.75 2.6875 C-6.88375 1.945 -6.88375 1.945 -6 1.1875 C-3.75 -0.3125 -3.75 -0.3125 0 0 Z " fill="#CB679C" transform="translate(109.75,60.3125)"/>
<path d="M0 0 C0.55042969 0.46019531 1.10085937 0.92039062 1.66796875 1.39453125 C-0.33203125 2.39453125 -0.33203125 2.39453125 -2.25 1.87109375 C-3.37341797 1.44957031 -3.37341797 1.44957031 -4.51953125 1.01953125 C-20.16843552 -4.84538208 -37.18947866 -1.8810182 -52.04296875 4.52734375 C-54.45641917 5.44165432 -56.79285269 5.95488549 -59.33203125 6.39453125 C-48.30172203 -6.64473463 -13.71598074 -9.44266011 0 0 Z " fill="#AA6888" transform="translate(125.33203125,13.60546875)"/>
<path d="M0 0 C-0.66 0.66 -1.32 1.32 -2 2 C-2.73476562 1.51466797 -2.73476562 1.51466797 -3.484375 1.01953125 C-7.03449506 -0.41925965 -10.478025 -0.33981543 -14.25 -0.3125 C-15.01344727 -0.30903564 -15.77689453 -0.30557129 -16.56347656 -0.30200195 C-23.31146791 -0.17123253 -27.91957524 1.10973935 -33.75 4.6875 C-36 6 -36 6 -40 6 C-40.33 6.99 -40.66 7.98 -41 9 C-42.84765625 9.73046875 -42.84765625 9.73046875 -45.0625 10.1875 C-45.79597656 10.34605469 -46.52945313 10.50460938 -47.28515625 10.66796875 C-47.85105469 10.77753906 -48.41695312 10.88710937 -49 11 C-49.33 10.01 -49.66 9.02 -50 8 C-50.639375 7.690625 -51.27875 7.38125 -51.9375 7.0625 C-54.45468915 5.7657662 -54.96886948 4.5778263 -56 2 C-54.82780457 2.78345715 -53.66236332 3.57702836 -52.5 4.375 C-51.52546875 5.03628906 -51.52546875 5.03628906 -50.53125 5.7109375 C-50.0259375 6.13632813 -49.520625 6.56171875 -49 7 C-49 7.66 -49 8.32 -49 9 C-47.99582031 8.46890625 -46.99164063 7.9378125 -45.95703125 7.390625 C-30.41319542 -0.69660308 -17.19976065 -6.14799955 0 0 Z " fill="#AB678A" transform="translate(111,90)"/>
<path d="M0 0 C0.66 0 1.32 0 2 0 C1.96519531 0.80824219 1.93039063 1.61648437 1.89453125 2.44921875 C1.86746094 3.51785156 1.84039063 4.58648437 1.8125 5.6875 C1.77769531 6.74324219 1.74289063 7.79898438 1.70703125 8.88671875 C2.03611327 12.38376367 2.92808432 14.19681997 5 17 C11.0967706 19.93548214 18.67027355 17.76850506 24.72265625 15.80078125 C27.1802519 14.93661811 29.60917607 14.0360237 32 13 C32 13.66 32 14.32 32 15 C30.44148245 15.82011312 28.87798284 16.63076213 27.3125 17.4375 C26.00732422 18.11619141 26.00732422 18.11619141 24.67578125 18.80859375 C18.65043931 21.49141024 12.84881079 21.29470456 6.375 20.625 C1.95674336 18.49769125 0.70465984 16.14866496 -1.265625 11.75390625 C-2.40893107 7.46650847 -1.54595505 4.07659485 0 0 Z " fill="#AD6888" transform="translate(27,127)"/>
<path d="M0 0 C3.34249629 0.59687434 5.46436342 1.73603877 8 4 C8 4.66 8 5.32 8 6 C7.01 6.33 6.02 6.66 5 7 C5.66 7.33 6.32 7.66 7 8 C7 8.66 7 9.32 7 10 C7.95261719 10.04898438 8.90523437 10.09796875 9.88671875 10.1484375 C11.14097656 10.22320312 12.39523438 10.29796875 13.6875 10.375 C14.92886719 10.44460937 16.17023438 10.51421875 17.44921875 10.5859375 C20.69317772 10.96422094 23.06567185 11.61979976 26 13 C26 13.33 26 13.66 26 14 C7.78181669 13.2672298 7.78181669 13.2672298 1.5 6.5 C-0.03125 4.71875 -0.03125 4.71875 -1 3 C-0.67 2.01 -0.34 1.02 0 0 Z " fill="#AF6B8C" transform="translate(63,60)"/>
<path d="M0 0 C0.99 0.33 1.98 0.66 3 1 C1.02 1.99 1.02 1.99 -1 3 C-0.835 3.94875 -0.67 4.8975 -0.5 5.875 C0.75343789 15.03615634 0.91803423 24.63664647 -4.7578125 32.40625 C-6.44477129 34.34591112 -8.16527107 36.20045765 -10 38 C-10.33 37.34 -10.66 36.68 -11 36 C-10.34 35.01 -9.68 34.02 -9 33 C-8.34 33 -7.68 33 -7 33 C-6.71125 32.113125 -6.4225 31.22625 -6.125 30.3125 C-5 27 -5 27 -3.94140625 24.6953125 C-2.82740374 21.50584473 -2.76880755 18.93476303 -2.8125 15.5625 C-2.81894531 14.47066406 -2.82539062 13.37882812 -2.83203125 12.25390625 C-2.99494846 9.09785885 -3.41497422 6.10297675 -4 3 C-2.1875 1.4375 -2.1875 1.4375 0 0 Z " fill="#A76488" transform="translate(70,102)"/>
<path d="M0 0 C2.1875 -0.25 2.1875 -0.25 5 0 C5.804375 0.680625 6.60875 1.36125 7.4375 2.0625 C9.90772449 4.37420748 9.90772449 4.37420748 13.3125 3.75 C14.199375 3.5025 15.08625 3.255 16 3 C15.6875 4.9375 15.6875 4.9375 15 7 C12 8 12 8 8 8 C8 8.66 8 9.32 8 10 C6.35 10 4.7 10 3 10 C4 7 4 7 5 5 C2.1315587 2.89767656 2.1315587 2.89767656 -1 2 C-0.67 1.34 -0.34 0.68 0 0 Z " fill="#CC699B" transform="translate(53,96)"/>
<path d="M0 0 C1.32 0.66 2.64 1.32 4 2 C3.71349873 11.52616722 3.18263282 17.49562619 -3.4375 24.625 C-4.283125 25.40875 -5.12875 26.1925 -6 27 C-6.845625 27.928125 -7.69125 28.85625 -8.5625 29.8125 C-11 32 -11 32 -15 32 C-14.34 31.525625 -13.68 31.05125 -13 30.5625 C-6.99491192 25.43315393 0.52614703 18.79558632 1.203125 10.515625 C1.2691563 6.70782022 1.21112803 3.63338408 0 0 Z " fill="#AC6C8E" transform="translate(123,26)"/>
<path d="M0 0 C1.81640625 1.51953125 1.81640625 1.51953125 3 3 C2.14019531 2.95359375 1.28039062 2.9071875 0.39453125 2.859375 C-10.43376414 2.52874003 -19.06143953 4.95163225 -29 9 C-27.80927248 5.42781744 -26.39215493 4.64430231 -23.14453125 2.91796875 C-16.18412277 -0.06144107 -7.47870361 -1.15727028 0 0 Z " fill="#AA6489" transform="translate(102,93)"/>
<path d="M0 0 C0 0.66 0 1.32 0 2 C-2.15234375 3.4375 -2.15234375 3.4375 -4.9375 5 C-8.62387208 6.86077895 -8.62387208 6.86077895 -11 10 C-12.96299854 10.84065632 -14.96070871 11.46517348 -16.9921875 12.12109375 C-19.19561327 13.08562838 -20.41668754 14.21254978 -22 16 C-22 15.01 -22 14.02 -22 13 C-16.88846268 8.43305637 -7.24212578 0 0 0 Z " fill="#B2678C" transform="translate(64,20)"/>
<path d="M0 0 C0.66 0.33 1.32 0.66 2 1 C2.4678371 8.17350225 1.22330383 15.5434653 -3.25 21.375 C-6.35135374 24.33538312 -9.19464222 26.06001368 -13 28 C-13.33 27.34 -13.66 26.68 -14 26 C-13.46890625 25.63648438 -12.9378125 25.27296875 -12.390625 24.8984375 C-5.51202539 20.00308376 -1.91755018 15.5005676 -0.3046875 7.125 C0.03947498 4.72468731 0.15619773 2.42106481 0 0 Z " fill="#AE6588" transform="translate(61,109)"/>
<path d="M0 0 C-0.99 0.33 -1.98 0.66 -3 1 C-3 1.66 -3 2.32 -3 3 C-4.15628906 3.09087891 -4.15628906 3.09087891 -5.3359375 3.18359375 C-6.33882812 3.26738281 -7.34171875 3.35117188 -8.375 3.4375 C-9.87160156 3.55931641 -9.87160156 3.55931641 -11.3984375 3.68359375 C-13.97927613 3.84965626 -13.97927613 3.84965626 -16 5 C-18.3828125 4.66015625 -18.3828125 4.66015625 -21.125 4.0625 C-22.03507812 3.86785156 -22.94515625 3.67320313 -23.8828125 3.47265625 C-24.58148438 3.31667969 -25.28015625 3.16070312 -26 3 C-26 2.34 -26 1.68 -26 1 C-24.9378125 1.02320312 -23.875625 1.04640625 -22.78125 1.0703125 C-17.14311312 1.15493119 -4.13803687 -2.06901844 0 0 Z " fill="#AE678C" transform="translate(98,64)"/>
<path d="M0 0 C1.32 0.66 2.64 1.32 4 2 C3.03900391 2.74443359 3.03900391 2.74443359 2.05859375 3.50390625 C-2.82286646 7.33778036 -7.39844152 11.19832163 -11.625 15.75 C-13 17 -13 17 -15 17 C-15 14 -15 14 -13.64453125 12.53515625 C-12.73767578 11.80619141 -12.73767578 11.80619141 -11.8125 11.0625 C-11.17570312 10.54429688 -10.53890625 10.02609375 -9.8828125 9.4921875 C-9.26148438 8.99976563 -8.64015625 8.50734375 -8 8 C-7.071875 7.236875 -6.14375 6.47375 -5.1875 5.6875 C-3 4 -3 4 -1 3 C-0.67 2.01 -0.34 1.02 0 0 Z " fill="#AF678C" transform="translate(53,37)"/>
<path d="M0 0 C0.47914625 2.7151621 0.41122838 4.39631121 -1.16015625 6.703125 C-2.6917983 8.37970505 -4.09963117 9.7538565 -6 11 C-8.875 10.875 -8.875 10.875 -11 10 C-10.09373216 8.7010161 -9.17450463 7.41106833 -8.25 6.125 C-7.73953125 5.40570313 -7.2290625 4.68640625 -6.703125 3.9453125 C-4.92926209 1.91920303 -2.8660836 0 0 0 Z " fill="#B56A92" transform="translate(121,109)"/>
<path d="M0 0 C0.99 0.33 1.98 0.66 3 1 C2.01 1.33 1.02 1.66 0 2 C-1.12516085 3.83284443 -1.12516085 3.83284443 -2 6 C-2.556875 6.8971875 -2.556875 6.8971875 -3.125 7.8125 C-4.35998871 10.89997177 -4.12645188 13.71225123 -4 17 C-2.02 17.33 -0.04 17.66 2 18 C2 18.33 2 18.66 2 19 C-0.64 19 -3.28 19 -6 19 C-7.75156546 15.49686909 -6.80357913 11.73177278 -6 8 C-4.62329523 4.73334526 -3.28520816 1.64260408 0 0 Z " fill="#AC688C" transform="translate(44,118)"/>
<path d="M0 0 C0.99 0 1.98 0 3 0 C4.2890625 1.35546875 4.2890625 1.35546875 5.625 3.1875 C9.05889477 7.45385411 13.12364746 9.64851444 18 12 C18 12.66 18 13.32 18 14 C19.32 14.66 20.64 15.32 22 16 C22 16.66 22 17.32 22 18 C13.39234546 14.10802223 5.69930718 7.44076215 0 0 Z " fill="#A76586" transform="translate(26,80)"/>
<path d="M0 0 C-3.49087093 4.0042343 -5.64951939 5.62671065 -11 6 C-10.67 5.34 -10.34 4.68 -10 4 C-10.33 3.01 -10.66 2.02 -11 1 C-6.87831311 -0.62950412 -4.29299643 -1.26264601 0 0 Z " fill="#CA699A" transform="translate(56,109)"/>
<path d="M0 0 C1.65 0 3.3 0 5 0 C5.33 0.99 5.66 1.98 6 3 C8.00016466 4.20882096 8.00016466 4.20882096 10 5 C5.58774263 6.47075246 2.51718381 7.36884358 -2 6 C-1.34 4.02 -0.68 2.04 0 0 Z " fill="#BF6496" transform="translate(87,67)"/>
<path d="M0 0 C0.598125 0.350625 1.19625 0.70125 1.8125 1.0625 C1.8125 3.0425 1.8125 5.0225 1.8125 7.0625 C1.1525 6.7325 0.4925 6.4025 -0.1875 6.0625 C-1.1775 7.5475 -1.1775 7.5475 -2.1875 9.0625 C-3.1775 6.0925 -4.1675 3.1225 -5.1875 0.0625 C-2.1875 -0.9375 -2.1875 -0.9375 0 0 Z " fill="#C26B9A" transform="translate(120.1875,103.9375)"/>
<path d="M0 0 C-5.93169624 3.18464019 -11.3895667 5.65343025 -18 7 C-18 6.34 -18 5.68 -18 5 C-17.15695313 4.65066406 -16.31390625 4.30132812 -15.4453125 3.94140625 C-14.34960938 3.48636719 -13.25390625 3.03132813 -12.125 2.5625 C-11.03445312 2.11003906 -9.94390625 1.65757813 -8.8203125 1.19140625 C-3.50843558 -1.05253067 -3.50843558 -1.05253067 0 0 Z " fill="#AC6589" transform="translate(117,65)"/>
<path d="M0 0 C4.37859255 0.50522222 6.81651224 3.17827222 10 6 C9.01 6.495 9.01 6.495 8 7 C7.01 6.34 6.02 5.68 5 5 C4.34 5.66 3.68 6.32 3 7 C2.01 6.67 1.02 6.34 0 6 C0 4.02 0 2.04 0 0 Z " fill="#C76794" transform="translate(44,85)"/>
<path d="M0 0 C0.99 0.495 0.99 0.495 2 1 C2.23041088 2.97495042 2.45691171 4.95058765 2.6484375 6.9296875 C3.12272008 9.72268489 4.42845255 11.67684289 6 14 C6 14.66 6 15.32 6 16 C5.34 16 4.68 16 4 16 C4 15.34 4 14.68 4 14 C2.68 13.34 1.36 12.68 0 12 C0 8.04 0 4.08 0 0 Z " fill="#AE6B8F" transform="translate(34,64)"/>
<path d="M0 0 C0.99 0.33 1.98 0.66 3 1 C2.06027344 1.81404297 2.06027344 1.81404297 1.1015625 2.64453125 C0.28429688 3.35996094 -0.53296875 4.07539062 -1.375 4.8125 C-2.18710937 5.52019531 -2.99921875 6.22789063 -3.8359375 6.95703125 C-6.16183188 8.99981253 -6.16183188 8.99981253 -8 12 C-8.66 11.67 -9.32 11.34 -10 11 C-9.09066991 9.72390677 -8.17217147 8.45434447 -7.25 7.1875 C-6.73953125 6.47980469 -6.2290625 5.77210937 -5.703125 5.04296875 C-3.93879011 2.92657621 -2.37221637 1.40558489 0 0 Z " fill="#AB698B" transform="translate(38,114)"/>
<path d="M0 0 C0.66 0 1.32 0 2 0 C2 0.99 2 1.98 2 3 C-0.40625 4.82421875 -0.40625 4.82421875 -3.5 6.6875 C-5.03140625 7.62142578 -5.03140625 7.62142578 -6.59375 8.57421875 C-7.3878125 9.04472656 -8.181875 9.51523438 -9 10 C-7.30343574 6.26127505 -5.38732271 4.3711259 -2 2 C-1.34 2 -0.68 2 0 2 C0 1.34 0 0.68 0 0 Z " fill="#AD6184" transform="translate(56,108)"/>
<path d="M0 0 C-1.6875 2.0625 -1.6875 2.0625 -4 4 C-6.75 3.75 -6.75 3.75 -9 3 C-6.38220849 -0.01046024 -3.86655673 -1.93327837 0 0 Z " fill="#99697E" transform="translate(119,116)"/>
<path d="M0 0 C1.65 0 3.3 0 5 0 C5.66 1.32 6.32 2.64 7 4 C5.35 4.33 3.7 4.66 2 5 C2 4.01 2 3.02 2 2 C1.34 2 0.68 2 0 2 C0 1.34 0 0.68 0 0 Z " fill="#BF6A94" transform="translate(37,80)"/>
<path d="M0 0 C0.33 0.66 0.66 1.32 1 2 C0.21625 2.45375 -0.5675 2.9075 -1.375 3.375 C-4.03698031 4.88428742 -4.03698031 4.88428742 -6 7 C-6.66 6.67 -7.32 6.34 -8 6 C-8 5.34 -8 4.68 -8 4 C-5.36 2.68 -2.72 1.36 0 0 Z " fill="#B36B8E" transform="translate(107,58)"/>
<path d="M0 0 C2.64 1.98 5.28 3.96 8 6 C7.01 6.495 7.01 6.495 6 7 C3 5.1875 3 5.1875 0 3 C0 2.01 0 1.02 0 0 Z " fill="#AA6C88" transform="translate(46,85)"/>
<path d="M0 0 C1.98 0.495 1.98 0.495 4 1 C3.34 2.65 2.68 4.3 2 6 C1.01 5.01 0.02 4.02 -1 3 C-0.67 2.01 -0.34 1.02 0 0 Z " fill="#9F6786" transform="translate(63,60)"/>
<path d="M0 0 C1.98 0.495 1.98 0.495 4 1 C2.625 3 2.625 3 1 5 C0.34 5 -0.32 5 -1 5 C-0.67 3.35 -0.34 1.7 0 0 Z " fill="#BB6791" transform="translate(25,51)"/>
</svg>
