<?xml version="1.0" encoding="UTF-8"?>
<svg version="1.1" xmlns="http://www.w3.org/2000/svg" width="196" height="196">
<path d="M0 0 C4.56708618 4.94468822 6.44786953 10.73852878 8.02832031 17.1640625 C8.67059031 18.8402819 9.32244839 20.513618 10.02832031 22.1640625 C10.68832031 22.1640625 11.34832031 22.1640625 12.02832031 22.1640625 C12.31707031 21.4215625 12.60582031 20.6790625 12.90332031 19.9140625 C13.85134675 17.59666453 14.87677943 15.38489135 16.02832031 13.1640625 C16.68832031 13.1640625 17.34832031 13.1640625 18.02832031 13.1640625 C18.13144531 12.43703125 18.23457031 11.71 18.34082031 10.9609375 C19.09557971 7.89043902 20.22618566 5.99596695 22.02832031 3.4140625 C22.56457031 2.63546875 23.10082031 1.856875 23.65332031 1.0546875 C25.02832031 -0.8359375 25.02832031 -0.8359375 26.02832031 -1.8359375 C27.59379079 -1.92920466 29.16344804 -1.95339332 30.73168945 -1.94946289 C31.73265152 -1.94938736 32.73361359 -1.94931183 33.76490784 -1.94923401 C34.85343552 -1.94407272 35.9419632 -1.93891144 37.06347656 -1.93359375 C38.72605751 -1.93147133 38.72605751 -1.93147133 40.42222595 -1.92930603 C43.978451 -1.92368783 47.53461414 -1.91113225 51.09082031 -1.8984375 C53.49511628 -1.89342484 55.89941323 -1.88886153 58.30371094 -1.88476562 C64.21193535 -1.87371249 70.12012341 -1.85695667 76.02832031 -1.8359375 C75.2256523 2.85666036 73.40340267 6.45950346 71.02832031 10.5390625 C70.62170166 11.24893311 70.21508301 11.95880371 69.79614258 12.69018555 C66.51634076 18.39008451 63.14148044 24.03265728 59.73925781 29.66015625 C54.05677607 39.07438414 48.48586702 48.55645143 42.88769531 58.02099609 C41.28997473 60.72176484 39.69056532 63.42152405 38.09082031 66.12109375 C33.78350042 73.40261272 29.56453108 80.72492336 25.44091797 88.11206055 C21.09781007 95.8706504 16.56228057 103.51596252 12.02832031 111.1640625 C8.07694775 109.84693831 7.75952873 108.37941463 5.80566406 104.7578125 C5.19029785 103.63068848 4.57493164 102.50356445 3.94091797 101.34228516 C3.61891418 100.7424884 3.2969104 100.14269165 2.96514893 99.52471924 C1.6184338 97.0172612 0.25083258 94.52143796 -1.11627197 92.02505493 C-1.7980138 90.78011475 -2.47880176 89.53465174 -3.15863037 88.28866577 C-5.64293347 83.74028576 -8.19631162 79.24235463 -10.84667969 74.7890625 C-11.22268311 74.15653564 -11.59868652 73.52400879 -11.98608398 72.87231445 C-12.81684996 71.47569125 -13.64801011 70.07930246 -14.47949219 68.68310547 C-16.31117431 65.59094315 -18.12660844 62.48937567 -19.94042969 59.38671875 C-26.47643231 48.20734944 -33.01429482 37.02920105 -39.65917969 25.9140625 C-40.34343018 24.76490356 -40.34343018 24.76490356 -41.04150391 23.5925293 C-46.32935331 14.36654426 -46.32935331 14.36654426 -52.97167969 6.1640625 C-52.97167969 5.1740625 -52.97167969 4.1840625 -52.97167969 3.1640625 C-51.98167969 3.1640625 -50.99167969 3.1640625 -49.97167969 3.1640625 C-49.97167969 2.5040625 -49.97167969 1.8440625 -49.97167969 1.1640625 C-49.31167969 1.1640625 -48.65167969 1.1640625 -47.97167969 1.1640625 C-47.97167969 0.1740625 -47.97167969 -0.8159375 -47.97167969 -1.8359375 C-35.46806184 -5.26935228 -11.24940701 -6.95001156 0 0 Z " fill="#44B685" transform="translate(86.9716796875,42.8359375)"/>
<path d="M0 0 C3.74973906 -0.11622939 7.49901464 -0.1872595 11.25 -0.25 C12.31347656 -0.28351562 13.37695312 -0.31703125 14.47265625 -0.3515625 C15.49746094 -0.36445312 16.52226563 -0.37734375 17.578125 -0.390625 C18.99206543 -0.4220459 18.99206543 -0.4220459 20.43457031 -0.45410156 C23.78259264 0.13852515 24.87035087 1.40661353 27 4 C28.45076222 6.29658397 29.81114274 8.56706171 31.125 10.9375 C31.47175781 11.54529297 31.81851563 12.15308594 32.17578125 12.77929688 C34.04934642 16.1064902 35.68072787 19.41620406 37 23 C37.66 23 38.32 23 39 23 C39.433125 21.88625 39.433125 21.88625 39.875 20.75 C40.82302644 18.43260203 41.84845911 16.22082885 43 14 C43.66 14 44.32 14 45 14 C45.103125 13.278125 45.20625 12.55625 45.3125 11.8125 C46.52658304 6.84579666 48.70833783 3.62328215 53.04516602 0.82250977 C57.11496798 -0.88988724 61.53943951 -0.40274332 65.875 -0.25 C66.84953125 -0.23195312 67.8240625 -0.21390625 68.828125 -0.1953125 C71.21977807 -0.14841734 73.60936597 -0.08280907 76 0 C74.67116239 4.40534534 72.93568012 8.15608704 70.62890625 12.1328125 C69.97212891 13.26847656 69.31535156 14.40414062 68.63867188 15.57421875 C68.29763428 16.1573584 67.95659668 16.74049805 67.60522461 17.34130859 C66.5632451 19.12372543 65.53001788 20.91099232 64.49804688 22.69921875 C59.42164625 31.43997516 59.42164625 31.43997516 57.32397461 34.22607422 C55.88811186 36.14991318 55.41860629 37.65580477 55 40 C54.34 40 53.68 40 53 40 C52.62488281 41.2684375 52.62488281 41.2684375 52.2421875 42.5625 C50.89544888 46.28932386 49.12327666 49.59772969 47.125 53 C46.78597656 53.59039062 46.44695312 54.18078125 46.09765625 54.7890625 C43.87295546 58.62942052 41.49520867 62.3299173 39 66 C34.91798762 64.63932921 34.09438359 62.04397813 32.1875 58.4375 C31.39410991 56.98188103 30.59837943 55.52753618 29.80078125 54.07421875 C29.36072754 53.27032715 28.92067383 52.46643555 28.46728516 51.63818359 C25.68191885 46.6300857 22.77166281 41.6942705 19.875 36.75 C19.30160889 35.7695874 18.72821777 34.7891748 18.13745117 33.77905273 C17.00415294 31.8415097 15.87036834 29.90425106 14.73608398 27.96728516 C12.32402674 23.84463802 9.91954832 19.71758403 7.51538086 15.59033203 C6.60073487 14.0268724 5.68014193 12.46684084 4.74829102 10.91357422 C2.64235271 7.36280229 1.25155879 3.92410137 0 0 Z " fill="#354A5E" transform="translate(60,42)"/>
<path d="M0 0 C0.88602402 0.00222061 1.77204803 0.00444122 2.68492126 0.00672913 C3.68588333 0.00680466 4.6868454 0.00688019 5.71813965 0.00695801 C6.80666733 0.01211929 7.89519501 0.01728058 9.01670837 0.02259827 C10.67928932 0.02472069 10.67928932 0.02472069 12.37545776 0.02688599 C15.93168281 0.03250418 19.48784596 0.04505977 23.04405212 0.05775452 C25.44834809 0.06276717 27.85264504 0.06733048 30.25694275 0.07142639 C36.16516716 0.08247952 42.07335522 0.09923535 47.98155212 0.12025452 C47.0939219 4.91760231 45.50668416 7.96600503 42.98155212 12.12025452 C41.73608807 9.62932641 42.20479432 8.70944719 42.98155212 6.12025452 C43.64155212 6.12025452 44.30155212 6.12025452 44.98155212 6.12025452 C44.48655212 4.63525452 44.48655212 4.63525452 43.98155212 3.12025452 C39.35797694 1.96320135 34.87231994 1.94192187 30.13780212 1.91712952 C29.29108948 1.91142944 28.44437683 1.90572937 27.57200623 1.89985657 C25.78682189 1.89043748 24.00162041 1.88388492 22.21641541 1.88002014 C19.49068499 1.87028713 16.76570047 1.83922403 14.04014587 1.80775452 C12.30186908 1.80122627 10.56358692 1.7959751 8.82530212 1.79212952 C8.01371643 1.77978271 7.20213074 1.76743591 6.36595154 1.75471497 C1.71501576 1.77297748 -1.17683456 2.20147609 -5.01844788 5.12025452 C-2.6163287 0.15587489 -2.6163287 0.15587489 0 0 Z " fill="#ABD5C2" transform="translate(115.01844787597656,40.87974548339844)"/>
<path d="M0 0 C0.66 0.66 1.32 1.32 2 2 C-3.55612274 12.06658486 -9.14096186 22.10559784 -15 32 C-15.66 30.68 -16.32 29.36 -17 28 C-16.01 26.515 -16.01 26.515 -15 25 C-14.67 24.34 -14.34 23.68 -14 23 C-13.34 23 -12.68 23 -12 23 C-12 22.01 -12 21.02 -12 20 C-11.34 20 -10.68 20 -10 20 C-10 19.01 -10 18.02 -10 17 C-9.34 17 -8.68 17 -8 17 C-8 15.35 -8 13.7 -8 12 C-7.34 11.67 -6.68 11.34 -6 11 C-5.690625 10.175 -5.38125 9.35 -5.0625 8.5 C-4.711875 7.675 -4.36125 6.85 -4 6 C-3.01 5.67 -2.02 5.34 -1 5 C-0.67 3.35 -0.34 1.7 0 0 Z " fill="#69B997" transform="translate(117,117)"/>
<path d="M0 0 C2.475 0.495 2.475 0.495 5 1 C5.66 2.98 6.32 4.96 7 7 C7.66 7 8.32 7 9 7 C9.73206818 8.73034298 10.46403959 10.46072703 11.1953125 12.19140625 C12.00700819 14.09719754 12.00700819 14.09719754 13.25 16.1875 C14.20863398 18.50419879 13.68264753 19.64486602 13 22 C12.48050781 21.13117188 11.96101563 20.26234375 11.42578125 19.3671875 C7.13221581 12.07633201 7.13221581 12.07633201 2 5.375 C0 3 0 3 0 0 Z " fill="#85C9AB" transform="translate(34,46)"/>
<path d="M0 0 C0.33 0.66 0.66 1.32 1 2 C0.05982059 4.02880819 -0.95707741 6.02204336 -2 8 C-2.63093084 9.47664664 -3.25559405 10.9559821 -3.875 12.4375 C-5.76230347 16.75862339 -8.20111446 20.21772225 -11 24 C-11.33 24.99 -11.66 25.98 -12 27 C-12.99 27 -13.98 27 -15 27 C-13.23570801 22.02790438 -10.6060834 17.56561939 -8 13 C-7.34 13 -6.68 13 -6 13 C-5.938125 12.34 -5.87625 11.68 -5.8125 11 C-4.67863503 6.81342164 -2.40368936 3.57449008 0 0 Z " fill="#4AA989" transform="translate(121,69)"/>
<path d="M0 0 C1.32 0 2.64 0 4 0 C2.35526763 6.18336092 -0.92553087 11.39655866 -4.125 16.875 C-4.68832031 17.84953125 -5.25164062 18.8240625 -5.83203125 19.828125 C-7.21650363 22.22161962 -8.60593541 24.6120838 -10 27 C-10.96862277 23.62065154 -10.92663319 22.02391967 -9.5625 18.75 C-9.27503906 18.04359375 -8.98757812 17.3371875 -8.69140625 16.609375 C-8.46324219 16.07828125 -8.23507813 15.5471875 -8 15 C-7.01 15 -6.02 15 -5 15 C-4.566875 13.6696875 -4.566875 13.6696875 -4.125 12.3125 C-3.16851252 9.49617576 -2.13201054 6.74916844 -1 4 C-0.34 4 0.32 4 1 4 C0.67 2.68 0.34 1.36 0 0 Z " fill="#2A585A" transform="translate(132,42)"/>
<path d="M0 0 C0.66 0 1.32 0 2 0 C0.2010497 5.07634826 -2.49026455 9.63713611 -5.125 14.3125 C-5.59292969 15.14845703 -6.06085938 15.98441406 -6.54296875 16.84570312 C-7.6926259 18.89866233 -8.84503802 20.95002202 -10 23 C-11.32 23 -12.64 23 -14 23 C-14 21 -14 21 -12.0625 19 C-11.381875 18.34 -10.70125 17.68 -10 17 C-9.67 16.34 -9.34 15.68 -9 15 C-8.34 15 -7.68 15 -7 15 C-6.566875 13.6696875 -6.566875 13.6696875 -6.125 12.3125 C-5.16851252 9.49617576 -4.13201054 6.74916844 -3 4 C-2.34 4 -1.68 4 -1 4 C-0.67 2.68 -0.34 1.36 0 0 Z " fill="#2A5C5A" transform="translate(110,84)"/>
<path d="M0 0 C2.37254954 2.37254954 3.98483473 4.28496054 5.75 7.0625 C6.19859375 7.75472656 6.6471875 8.44695313 7.109375 9.16015625 C7.40328125 9.76730469 7.6971875 10.37445313 8 11 C7.67 11.66 7.34 12.32 7 13 C5.02 12.34 3.04 11.68 1 11 C0.67 7.37 0.34 3.74 0 0 Z " fill="#75848F" transform="translate(88,50)"/>
<path d="M0 0 C0.66 0 1.32 0 2 0 C1.42176904 4.06225548 0.10882263 6.84762346 -2.0625 10.3125 C-2.61035156 11.19550781 -3.15820312 12.07851562 -3.72265625 12.98828125 C-4.14417969 13.65214844 -4.56570312 14.31601563 -5 15 C-5.66 13.68 -6.32 12.36 -7 11 C-6.34 10.01 -5.68 9.02 -5 8 C-4.67 7.34 -4.34 6.68 -4 6 C-3.34 6 -2.68 6 -2 6 C-2 5.01 -2 4.02 -2 3 C-1.34 3 -0.68 3 0 3 C0 2.01 0 1.02 0 0 Z " fill="#77C1A2" transform="translate(107,134)"/>
<path d="M0 0 C0.33 1.32 0.66 2.64 1 4 C0.34 4 -0.32 4 -1 4 C-0.7525 4.5775 -0.505 5.155 -0.25 5.75 C-0.1675 6.4925 -0.085 7.235 0 8 C-1.8125 10.25 -1.8125 10.25 -4 12 C-4.66 12 -5.32 12 -6 12 C-6 12.99 -6 13.98 -6 15 C-6.66 15 -7.32 15 -8 15 C-6.80100302 11.9168649 -5.52299523 8.93720508 -4 6 C-3.34 6 -2.68 6 -2 6 C-1.855625 5.195625 -1.71125 4.39125 -1.5625 3.5625 C-1 1 -1 1 0 0 Z " fill="#84909B" transform="translate(107,50)"/>
<path d="M0 0 C1.5631897 0.00785522 1.5631897 0.00785522 3.15795898 0.01586914 C4.28266602 0.0190918 5.40737305 0.02231445 6.56616211 0.02563477 C7.75016602 0.03401367 8.93416992 0.04239258 10.15405273 0.05102539 C11.34192383 0.05553711 12.52979492 0.06004883 13.75366211 0.06469727 C16.69967499 0.07652864 19.64558954 0.09301252 22.59155273 0.11352539 C22.59155273 0.44352539 22.59155273 0.77352539 22.59155273 1.11352539 C21.58572144 1.13539917 21.58572144 1.13539917 20.55957031 1.15771484 C17.50716451 1.23240839 14.45582689 1.32899838 11.40405273 1.42602539 C10.34895508 1.44858398 9.29385742 1.47114258 8.20678711 1.49438477 C7.18520508 1.52983398 6.16362305 1.5652832 5.11108398 1.60180664 C4.17369385 1.62799072 3.23630371 1.6541748 2.27050781 1.68115234 C-0.85012278 2.18481012 -2.81487039 3.34676683 -5.40844727 5.11352539 C-3.00264483 0.14153369 -3.00264483 0.14153369 0 0 Z " fill="#9FA9B2" transform="translate(115.408447265625,40.886474609375)"/>
<path d="M0 0 C0.66 0 1.32 0 2 0 C2 0.66 2 1.32 2 2 C2.66 2.33 3.32 2.66 4 3 C5.36176581 4.98075027 6.69593116 6.98079663 8 9 C8.33 9.33 8.66 9.66 9 10 C9.04080783 11.99958364 9.04254356 14.00045254 9 16 C6.40962402 12.79509037 4.62056844 9.44649547 2.8125 5.75 C2.01779297 4.13351563 2.01779297 4.13351563 1.20703125 2.484375 C0.80871094 1.66453125 0.41039063 0.8446875 0 0 Z " fill="#78C5A4" transform="translate(84,130)"/>
<path d="M0 0 C0.99 0 1.98 0 3 0 C1.62712658 3.69876091 -0.06355453 6.9514476 -2.125 10.3125 C-2.66382813 11.19550781 -3.20265625 12.07851562 -3.7578125 12.98828125 C-4.16773438 13.65214844 -4.57765625 14.31601563 -5 15 C-5.66 13.68 -6.32 12.36 -7 11 C-6.01 11 -5.02 11 -4 11 C-4 9.68 -4 8.36 -4 7 C-3.34 7 -2.68 7 -2 7 C-2 6.01 -2 5.02 -2 4 C-1.34 4 -0.68 4 0 4 C0 2.68 0 1.36 0 0 Z " fill="#88CBAE" transform="translate(150,60)"/>
<path d="M0 0 C1.5 1.375 1.5 1.375 3 3 C3 3.66 3 4.32 3 5 C3.99 5.33 4.98 5.66 6 6 C7.75 8.3125 7.75 8.3125 9 11 C8.578125 13.16796875 8.578125 13.16796875 8 15 C6.66121428 12.8782637 5.32884524 10.75294812 4 8.625 C3.6184375 8.02171875 3.236875 7.4184375 2.84375 6.796875 C0 2.2265625 0 2.2265625 0 0 Z " fill="#95D3B9" transform="translate(39,53)"/>
<path d="M0 0 C6.93 0.33 13.86 0.66 21 1 C21.66 2.98 22.32 4.96 23 7 C22.34 7 21.68 7 21 7 C20.65324219 6.35546875 20.30648437 5.7109375 19.94921875 5.046875 C17.24606662 2.20829441 15.13947592 2.44564286 11.33789062 2.29296875 C10.50451172 2.27878906 9.67113281 2.26460937 8.8125 2.25 C7.96751953 2.22035156 7.12253906 2.19070312 6.25195312 2.16015625 C4.16848178 2.0895301 2.08423494 2.04249205 0 2 C0 1.34 0 0.68 0 0 Z " fill="#55AB85" transform="translate(39,41)"/>
<path d="M0 0 C2.375 0.25 2.375 0.25 5 1 C6.375 2.75 6.375 2.75 7 5 C6.625 7.75 6.625 7.75 6 10 C3.38275905 7.63202009 1.67138271 5.10399646 0 2 C0 1.34 0 0.68 0 0 Z " fill="#67BF9B" transform="translate(65,97)"/>
<path d="M0 0 C5.94 0 11.88 0 18 0 C18 0.33 18 0.66 18 1 C12.72 1 7.44 1 2 1 C1.67 2.32 1.34 3.64 1 5 C0.01 5.33 -0.98 5.66 -2 6 C-1.34 4.02 -0.68 2.04 0 0 Z " fill="#51A786" transform="translate(136,42)"/>
<path d="M0 0 C0.66 0.33 1.32 0.66 2 1 C0.43358249 5.30764815 -1.68336156 9.06171464 -4 13 C-4.33 13 -4.66 13 -5 13 C-5 11.35 -5 9.7 -5 8 C-4.01 7.67 -3.02 7.34 -2 7 C-2 5.68 -2 4.36 -2 3 C-1.34 3 -0.68 3 0 3 C0 2.01 0 1.02 0 0 Z " fill="#85CAAC" transform="translate(138,81)"/>
<path d="M0 0 C0.99 0.33 1.98 0.66 3 1 C1.6302836 4.99500618 -0.25722422 7.80009492 -3 11 C-3 9.68 -3 8.36 -3 7 C-2.34 7 -1.68 7 -1 7 C-1.020625 6.030625 -1.04125 5.06125 -1.0625 4.0625 C-1 1 -1 1 0 0 Z " fill="#73C39E" transform="translate(130,93)"/>
<path d="M0 0 C2.64 0 5.28 0 8 0 C6.14285714 8.71428571 6.14285714 8.71428571 3 11 C3.33 9.02 3.66 7.04 4 5 C4.66 5 5.32 5 6 5 C5.67 4.01 5.34 3.02 5 2 C3.35 1.67 1.7 1.34 0 1 C0 0.67 0 0.34 0 0 Z " fill="#81C5A8" transform="translate(154,42)"/>
<path d="M0 0 C0.33 0 0.66 0 1 0 C1.35281338 4.1970092 0.64185432 6.06522073 -2 9.3125 C-2.556875 10.00988281 -3.11375 10.70726563 -3.6875 11.42578125 C-4.120625 11.94527344 -4.55375 12.46476562 -5 13 C-5.33 12.34 -5.66 11.68 -6 11 C-4.78515625 8.3984375 -4.78515625 8.3984375 -3.0625 5.375 C-2.21365234 3.87066406 -2.21365234 3.87066406 -1.34765625 2.3359375 C-0.90292969 1.56507812 -0.45820312 0.79421875 0 0 Z " fill="#49AB89" transform="translate(105,96)"/>
<path d="M0 0 C1.55693206 2.33539809 2.90200646 4.57968756 4.1875 7.0625 C4.55230469 7.75472656 4.91710937 8.44695312 5.29296875 9.16015625 C5.52628906 9.76730469 5.75960937 10.37445313 6 11 C5.67 11.66 5.34 12.32 5 13 C2.69 9.37 0.38 5.74 -2 2 C-1.34 1.34 -0.68 0.68 0 0 Z " fill="#2B595B" transform="translate(75,65)"/>
<path d="M0 0 C0.66 0 1.32 0 2 0 C2.86646667 1.43011973 3.71781829 2.86940619 4.5625 4.3125 C5.03816406 5.11300781 5.51382813 5.91351563 6.00390625 6.73828125 C7 9 7 9 6 12 C0.44419134 4.88610478 0.44419134 4.88610478 0 0 Z " fill="#295956" transform="translate(60,42)"/>
<path d="M0 0 C0.66 0 1.32 0 2 0 C2 0.66 2 1.32 2 2 C2.99 2 3.98 2 5 2 C6.79682816 5.80504787 7.07349791 6.70600835 6 11 C4.02 7.37 2.04 3.74 0 0 Z " fill="#85CAAB" transform="translate(48,69)"/>
<path d="M0 0 C1.98 0.66 3.96 1.32 6 2 C5.01 2.495 5.01 2.495 4 3 C4 4.65 4 6.3 4 8 C1.10067643 5.60490662 0.49831724 3.68754757 0 0 Z " fill="#2B525A" transform="translate(82,79)"/>
<path d="M0 0 C2 0 2 0 3.5 1.1875 C5.30561704 3.36928725 6.18727301 5.29091004 7 8 C6.67 8.99 6.34 9.98 6 11 C4.99735282 9.35577799 3.99794896 7.70957779 3 6.0625 C2.443125 5.14597656 1.88625 4.22945313 1.3125 3.28515625 C0 1 0 1 0 0 Z " fill="#2B5C5A" transform="translate(87,90)"/>
<path d="M0 0 C0.33 0.66 0.66 1.32 1 2 C-0.65909182 6.10406925 -2.21704034 8.65195608 -6 11 C-4.54955729 6.89041233 -2.48889248 3.56741255 0 0 Z " fill="#4B9F84" transform="translate(121,69)"/>
<path d="M0 0 C2.61885488 2.36944013 4.41866551 4.83733102 6 8 C5.67 8.99 5.34 9.98 5 11 C2.03947516 7.63576723 1.07710178 4.30840713 0 0 Z " fill="#49A788" transform="translate(89,95)"/>
<path d="M0 0 C0.99 0 1.98 0 3 0 C2.34 2.31 1.68 4.62 1 7 C0.34 7 -0.32 7 -1 7 C-1.33 7.66 -1.66 8.32 -2 9 C-2 7.68 -2 6.36 -2 5 C-1.34 5 -0.68 5 0 5 C-0.33 4.01 -0.66 3.02 -1 2 C-0.67 1.34 -0.34 0.68 0 0 Z " fill="#2B5957" transform="translate(114,75)"/>
<path d="M0 0 C1.9375 0.75 1.9375 0.75 4 2 C4.75 4.125 4.75 4.125 5 6 C4.01 6 3.02 6 2 6 C1.34 4.02 0.68 2.04 0 0 Z " fill="#71BF9D" transform="translate(75,114)"/>
<path d="M0 0 C0.99 0 1.98 0 3 0 C2.39816251 2.02045442 1.72693904 4.02111039 1 6 C0.01 6.495 0.01 6.495 -1 7 C-1.04254356 5.00045254 -1.04080783 2.99958364 -1 1 C-0.67 0.67 -0.34 0.34 0 0 Z " fill="#8AC9B0" transform="translate(141,75)"/>
<path d="M0 0 C1.98 0 3.96 0 6 0 C5.34 1.65 4.68 3.3 4 5 C3.01 4.67 2.02 4.34 1 4 C0.3125 1.9375 0.3125 1.9375 0 0 Z " fill="#93C9B0" transform="translate(95,149)"/>
<path d="" fill="#61A689" transform="translate(0,0)"/>
<path d="" fill="#F2FFFF" transform="translate(0,0)"/>
</svg>
